G04 #@! TF.GenerationSoftware,KiCad,Pcbnew,(5.1.8)-1*
G04 #@! TF.CreationDate,2021-04-23T17:16:51-07:00*
G04 #@! TF.ProjectId,Spritzgeback,53707269-747a-4676-9562-61636b2e6b69,rev?*
G04 #@! TF.SameCoordinates,Original*
G04 #@! TF.FileFunction,Legend,Top*
G04 #@! TF.FilePolarity,Positive*
%FSLAX46Y46*%
G04 Gerber Fmt 4.6, Leading zero omitted, Abs format (unit mm)*
G04 Created by KiCad (PCBNEW (5.1.8)-1) date 2021-04-23 17:16:51*
%MOMM*%
%LPD*%
G01*
G04 APERTURE LIST*
%ADD10C,0.120000*%
%ADD11C,0.150000*%
G04 APERTURE END LIST*
D10*
X20815000Y-38460000D02*
X23500000Y-38460000D01*
X20815000Y-36540000D02*
X20815000Y-38460000D01*
X23500000Y-36540000D02*
X20815000Y-36540000D01*
D11*
X-7000000Y-2200000D02*
X-7000000Y-1200000D01*
X-7000000Y-15200000D02*
X-6000000Y-15200000D01*
X-6000000Y-1200000D02*
X-7000000Y-1200000D01*
X-7000000Y-15200000D02*
X-7000000Y-14200000D01*
X7000000Y-14200000D02*
X7000000Y-15200000D01*
X7000000Y-15200000D02*
X6000000Y-15200000D01*
X6000000Y-15200000D02*
X7000000Y-15200000D01*
X7000000Y-1200000D02*
X7000000Y-2200000D01*
X7000000Y-1200000D02*
X6000000Y-1200000D01*
X29500000Y-1200000D02*
X28500000Y-1200000D01*
X29500000Y-1200000D02*
X29500000Y-2200000D01*
X28500000Y-15200000D02*
X29500000Y-15200000D01*
X29500000Y-15200000D02*
X28500000Y-15200000D01*
X29500000Y-14200000D02*
X29500000Y-15200000D01*
X15500000Y-15200000D02*
X15500000Y-14200000D01*
X16500000Y-1200000D02*
X15500000Y-1200000D01*
X15500000Y-15200000D02*
X16500000Y-15200000D01*
X15500000Y-2200000D02*
X15500000Y-1200000D01*
X33500000Y-2200000D02*
X33500000Y-1200000D01*
X33500000Y-15200000D02*
X34500000Y-15200000D01*
X34500000Y-1200000D02*
X33500000Y-1200000D01*
X33500000Y-15200000D02*
X33500000Y-14200000D01*
X47500000Y-14200000D02*
X47500000Y-15200000D01*
X47500000Y-15200000D02*
X46500000Y-15200000D01*
X46500000Y-15200000D02*
X47500000Y-15200000D01*
X47500000Y-1200000D02*
X47500000Y-2200000D01*
X47500000Y-1200000D02*
X46500000Y-1200000D01*
X65500000Y-1200000D02*
X64500000Y-1200000D01*
X65500000Y-1200000D02*
X65500000Y-2200000D01*
X64500000Y-15200000D02*
X65500000Y-15200000D01*
X65500000Y-15200000D02*
X64500000Y-15200000D01*
X65500000Y-14200000D02*
X65500000Y-15200000D01*
X51500000Y-15200000D02*
X51500000Y-14200000D01*
X52500000Y-1200000D02*
X51500000Y-1200000D01*
X51500000Y-15200000D02*
X52500000Y-15200000D01*
X51500000Y-2200000D02*
X51500000Y-1200000D01*
X69500000Y-2200000D02*
X69500000Y-1200000D01*
X69500000Y-15200000D02*
X70500000Y-15200000D01*
X70500000Y-1200000D02*
X69500000Y-1200000D01*
X69500000Y-15200000D02*
X69500000Y-14200000D01*
X83500000Y-14200000D02*
X83500000Y-15200000D01*
X83500000Y-15200000D02*
X82500000Y-15200000D01*
X82500000Y-15200000D02*
X83500000Y-15200000D01*
X83500000Y-1200000D02*
X83500000Y-2200000D01*
X83500000Y-1200000D02*
X82500000Y-1200000D01*
X101500000Y-1200000D02*
X100500000Y-1200000D01*
X101500000Y-1200000D02*
X101500000Y-2200000D01*
X100500000Y-15200000D02*
X101500000Y-15200000D01*
X101500000Y-15200000D02*
X100500000Y-15200000D01*
X101500000Y-14200000D02*
X101500000Y-15200000D01*
X87500000Y-15200000D02*
X87500000Y-14200000D01*
X88500000Y-1200000D02*
X87500000Y-1200000D01*
X87500000Y-15200000D02*
X88500000Y-15200000D01*
X87500000Y-2200000D02*
X87500000Y-1200000D01*
X105500000Y-2200000D02*
X105500000Y-1200000D01*
X105500000Y-15200000D02*
X106500000Y-15200000D01*
X106500000Y-1200000D02*
X105500000Y-1200000D01*
X105500000Y-15200000D02*
X105500000Y-14200000D01*
X119500000Y-14200000D02*
X119500000Y-15200000D01*
X119500000Y-15200000D02*
X118500000Y-15200000D01*
X118500000Y-15200000D02*
X119500000Y-15200000D01*
X119500000Y-1200000D02*
X119500000Y-2200000D01*
X119500000Y-1200000D02*
X118500000Y-1200000D01*
X137500000Y-1200000D02*
X136500000Y-1200000D01*
X137500000Y-1200000D02*
X137500000Y-2200000D01*
X136500000Y-15200000D02*
X137500000Y-15200000D01*
X137500000Y-15200000D02*
X136500000Y-15200000D01*
X137500000Y-14200000D02*
X137500000Y-15200000D01*
X123500000Y-15200000D02*
X123500000Y-14200000D01*
X124500000Y-1200000D02*
X123500000Y-1200000D01*
X123500000Y-15200000D02*
X124500000Y-15200000D01*
X123500000Y-2200000D02*
X123500000Y-1200000D01*
X141500000Y-2200000D02*
X141500000Y-1200000D01*
X141500000Y-15200000D02*
X142500000Y-15200000D01*
X142500000Y-1200000D02*
X141500000Y-1200000D01*
X141500000Y-15200000D02*
X141500000Y-14200000D01*
X155500000Y-14200000D02*
X155500000Y-15200000D01*
X155500000Y-15200000D02*
X154500000Y-15200000D01*
X154500000Y-15200000D02*
X155500000Y-15200000D01*
X155500000Y-1200000D02*
X155500000Y-2200000D01*
X155500000Y-1200000D02*
X154500000Y-1200000D01*
X173500000Y-1200000D02*
X172500000Y-1200000D01*
X173500000Y-1200000D02*
X173500000Y-2200000D01*
X172500000Y-15200000D02*
X173500000Y-15200000D01*
X173500000Y-15200000D02*
X172500000Y-15200000D01*
X173500000Y-14200000D02*
X173500000Y-15200000D01*
X159500000Y-15200000D02*
X159500000Y-14200000D01*
X160500000Y-1200000D02*
X159500000Y-1200000D01*
X159500000Y-15200000D02*
X160500000Y-15200000D01*
X159500000Y-2200000D02*
X159500000Y-1200000D01*
X177500000Y-2200000D02*
X177500000Y-1200000D01*
X177500000Y-15200000D02*
X178500000Y-15200000D01*
X178500000Y-1200000D02*
X177500000Y-1200000D01*
X177500000Y-15200000D02*
X177500000Y-14200000D01*
X191500000Y-14200000D02*
X191500000Y-15200000D01*
X191500000Y-15200000D02*
X190500000Y-15200000D01*
X190500000Y-15200000D02*
X191500000Y-15200000D01*
X191500000Y-1200000D02*
X191500000Y-2200000D01*
X191500000Y-1200000D02*
X190500000Y-1200000D01*
X195500000Y-2200000D02*
X195500000Y-1200000D01*
X195500000Y-15200000D02*
X196500000Y-15200000D01*
X196500000Y-1200000D02*
X195500000Y-1200000D01*
X195500000Y-15200000D02*
X195500000Y-14200000D01*
X209500000Y-14200000D02*
X209500000Y-15200000D01*
X209500000Y-15200000D02*
X208500000Y-15200000D01*
X208500000Y-15200000D02*
X209500000Y-15200000D01*
X209500000Y-1200000D02*
X209500000Y-2200000D01*
X209500000Y-1200000D02*
X208500000Y-1200000D01*
X227500000Y-1200000D02*
X226500000Y-1200000D01*
X227500000Y-1200000D02*
X227500000Y-2200000D01*
X226500000Y-15200000D02*
X227500000Y-15200000D01*
X227500000Y-15200000D02*
X226500000Y-15200000D01*
X227500000Y-14200000D02*
X227500000Y-15200000D01*
X213500000Y-15200000D02*
X213500000Y-14200000D01*
X214500000Y-1200000D02*
X213500000Y-1200000D01*
X213500000Y-15200000D02*
X214500000Y-15200000D01*
X213500000Y-2200000D02*
X213500000Y-1200000D01*
X231500000Y-2200000D02*
X231500000Y-1200000D01*
X231500000Y-15200000D02*
X232500000Y-15200000D01*
X232500000Y-1200000D02*
X231500000Y-1200000D01*
X231500000Y-15200000D02*
X231500000Y-14200000D01*
X245500000Y-14200000D02*
X245500000Y-15200000D01*
X245500000Y-15200000D02*
X244500000Y-15200000D01*
X244500000Y-15200000D02*
X245500000Y-15200000D01*
X245500000Y-1200000D02*
X245500000Y-2200000D01*
X245500000Y-1200000D02*
X244500000Y-1200000D01*
X254000000Y-2200000D02*
X254000000Y-1200000D01*
X254000000Y-15200000D02*
X255000000Y-15200000D01*
X255000000Y-1200000D02*
X254000000Y-1200000D01*
X254000000Y-15200000D02*
X254000000Y-14200000D01*
X268000000Y-14200000D02*
X268000000Y-15200000D01*
X268000000Y-15200000D02*
X267000000Y-15200000D01*
X267000000Y-15200000D02*
X268000000Y-15200000D01*
X268000000Y-1200000D02*
X268000000Y-2200000D01*
X268000000Y-1200000D02*
X267000000Y-1200000D01*
X286000000Y-1200000D02*
X285000000Y-1200000D01*
X286000000Y-1200000D02*
X286000000Y-2200000D01*
X285000000Y-15200000D02*
X286000000Y-15200000D01*
X286000000Y-15200000D02*
X285000000Y-15200000D01*
X286000000Y-14200000D02*
X286000000Y-15200000D01*
X272000000Y-15200000D02*
X272000000Y-14200000D01*
X273000000Y-1200000D02*
X272000000Y-1200000D01*
X272000000Y-15200000D02*
X273000000Y-15200000D01*
X272000000Y-2200000D02*
X272000000Y-1200000D01*
X-7000000Y-19200000D02*
X-7000000Y-18200000D01*
X-7000000Y-32200000D02*
X-6000000Y-32200000D01*
X-6000000Y-18200000D02*
X-7000000Y-18200000D01*
X-7000000Y-32200000D02*
X-7000000Y-31200000D01*
X7000000Y-31200000D02*
X7000000Y-32200000D01*
X7000000Y-32200000D02*
X6000000Y-32200000D01*
X6000000Y-32200000D02*
X7000000Y-32200000D01*
X7000000Y-18200000D02*
X7000000Y-19200000D01*
X7000000Y-18200000D02*
X6000000Y-18200000D01*
X29500000Y-18200000D02*
X28500000Y-18200000D01*
X29500000Y-18200000D02*
X29500000Y-19200000D01*
X28500000Y-32200000D02*
X29500000Y-32200000D01*
X29500000Y-32200000D02*
X28500000Y-32200000D01*
X29500000Y-31200000D02*
X29500000Y-32200000D01*
X15500000Y-32200000D02*
X15500000Y-31200000D01*
X16500000Y-18200000D02*
X15500000Y-18200000D01*
X15500000Y-32200000D02*
X16500000Y-32200000D01*
X15500000Y-19200000D02*
X15500000Y-18200000D01*
X47500000Y-18200000D02*
X46500000Y-18200000D01*
X47500000Y-18200000D02*
X47500000Y-19200000D01*
X46500000Y-32200000D02*
X47500000Y-32200000D01*
X47500000Y-32200000D02*
X46500000Y-32200000D01*
X47500000Y-31200000D02*
X47500000Y-32200000D01*
X33500000Y-32200000D02*
X33500000Y-31200000D01*
X34500000Y-18200000D02*
X33500000Y-18200000D01*
X33500000Y-32200000D02*
X34500000Y-32200000D01*
X33500000Y-19200000D02*
X33500000Y-18200000D01*
X65500000Y-18200000D02*
X64500000Y-18200000D01*
X65500000Y-18200000D02*
X65500000Y-19200000D01*
X64500000Y-32200000D02*
X65500000Y-32200000D01*
X65500000Y-32200000D02*
X64500000Y-32200000D01*
X65500000Y-31200000D02*
X65500000Y-32200000D01*
X51500000Y-32200000D02*
X51500000Y-31200000D01*
X52500000Y-18200000D02*
X51500000Y-18200000D01*
X51500000Y-32200000D02*
X52500000Y-32200000D01*
X51500000Y-19200000D02*
X51500000Y-18200000D01*
X69500000Y-19200000D02*
X69500000Y-18200000D01*
X69500000Y-32200000D02*
X70500000Y-32200000D01*
X70500000Y-18200000D02*
X69500000Y-18200000D01*
X69500000Y-32200000D02*
X69500000Y-31200000D01*
X83500000Y-31200000D02*
X83500000Y-32200000D01*
X83500000Y-32200000D02*
X82500000Y-32200000D01*
X82500000Y-32200000D02*
X83500000Y-32200000D01*
X83500000Y-18200000D02*
X83500000Y-19200000D01*
X83500000Y-18200000D02*
X82500000Y-18200000D01*
X87500000Y-19200000D02*
X87500000Y-18200000D01*
X87500000Y-32200000D02*
X88500000Y-32200000D01*
X88500000Y-18200000D02*
X87500000Y-18200000D01*
X87500000Y-32200000D02*
X87500000Y-31200000D01*
X101500000Y-31200000D02*
X101500000Y-32200000D01*
X101500000Y-32200000D02*
X100500000Y-32200000D01*
X100500000Y-32200000D02*
X101500000Y-32200000D01*
X101500000Y-18200000D02*
X101500000Y-19200000D01*
X101500000Y-18200000D02*
X100500000Y-18200000D01*
X119500000Y-18200000D02*
X118500000Y-18200000D01*
X119500000Y-18200000D02*
X119500000Y-19200000D01*
X118500000Y-32200000D02*
X119500000Y-32200000D01*
X119500000Y-32200000D02*
X118500000Y-32200000D01*
X119500000Y-31200000D02*
X119500000Y-32200000D01*
X105500000Y-32200000D02*
X105500000Y-31200000D01*
X106500000Y-18200000D02*
X105500000Y-18200000D01*
X105500000Y-32200000D02*
X106500000Y-32200000D01*
X105500000Y-19200000D02*
X105500000Y-18200000D01*
X123500000Y-19200000D02*
X123500000Y-18200000D01*
X123500000Y-32200000D02*
X124500000Y-32200000D01*
X124500000Y-18200000D02*
X123500000Y-18200000D01*
X123500000Y-32200000D02*
X123500000Y-31200000D01*
X137500000Y-31200000D02*
X137500000Y-32200000D01*
X137500000Y-32200000D02*
X136500000Y-32200000D01*
X136500000Y-32200000D02*
X137500000Y-32200000D01*
X137500000Y-18200000D02*
X137500000Y-19200000D01*
X137500000Y-18200000D02*
X136500000Y-18200000D01*
X155500000Y-18200000D02*
X154500000Y-18200000D01*
X155500000Y-18200000D02*
X155500000Y-19200000D01*
X154500000Y-32200000D02*
X155500000Y-32200000D01*
X155500000Y-32200000D02*
X154500000Y-32200000D01*
X155500000Y-31200000D02*
X155500000Y-32200000D01*
X141500000Y-32200000D02*
X141500000Y-31200000D01*
X142500000Y-18200000D02*
X141500000Y-18200000D01*
X141500000Y-32200000D02*
X142500000Y-32200000D01*
X141500000Y-19200000D02*
X141500000Y-18200000D01*
X173500000Y-18200000D02*
X172500000Y-18200000D01*
X173500000Y-18200000D02*
X173500000Y-19200000D01*
X172500000Y-32200000D02*
X173500000Y-32200000D01*
X173500000Y-32200000D02*
X172500000Y-32200000D01*
X173500000Y-31200000D02*
X173500000Y-32200000D01*
X159500000Y-32200000D02*
X159500000Y-31200000D01*
X160500000Y-18200000D02*
X159500000Y-18200000D01*
X159500000Y-32200000D02*
X160500000Y-32200000D01*
X159500000Y-19200000D02*
X159500000Y-18200000D01*
X177500000Y-19200000D02*
X177500000Y-18200000D01*
X177500000Y-32200000D02*
X178500000Y-32200000D01*
X178500000Y-18200000D02*
X177500000Y-18200000D01*
X177500000Y-32200000D02*
X177500000Y-31200000D01*
X191500000Y-31200000D02*
X191500000Y-32200000D01*
X191500000Y-32200000D02*
X190500000Y-32200000D01*
X190500000Y-32200000D02*
X191500000Y-32200000D01*
X191500000Y-18200000D02*
X191500000Y-19200000D01*
X191500000Y-18200000D02*
X190500000Y-18200000D01*
X209500000Y-18200000D02*
X208500000Y-18200000D01*
X209500000Y-18200000D02*
X209500000Y-19200000D01*
X208500000Y-32200000D02*
X209500000Y-32200000D01*
X209500000Y-32200000D02*
X208500000Y-32200000D01*
X209500000Y-31200000D02*
X209500000Y-32200000D01*
X195500000Y-32200000D02*
X195500000Y-31200000D01*
X196500000Y-18200000D02*
X195500000Y-18200000D01*
X195500000Y-32200000D02*
X196500000Y-32200000D01*
X195500000Y-19200000D02*
X195500000Y-18200000D01*
X213500000Y-19200000D02*
X213500000Y-18200000D01*
X213500000Y-32200000D02*
X214500000Y-32200000D01*
X214500000Y-18200000D02*
X213500000Y-18200000D01*
X213500000Y-32200000D02*
X213500000Y-31200000D01*
X227500000Y-31200000D02*
X227500000Y-32200000D01*
X227500000Y-32200000D02*
X226500000Y-32200000D01*
X226500000Y-32200000D02*
X227500000Y-32200000D01*
X227500000Y-18200000D02*
X227500000Y-19200000D01*
X227500000Y-18200000D02*
X226500000Y-18200000D01*
X245500000Y-18200000D02*
X244500000Y-18200000D01*
X245500000Y-18200000D02*
X245500000Y-19200000D01*
X244500000Y-32200000D02*
X245500000Y-32200000D01*
X245500000Y-32200000D02*
X244500000Y-32200000D01*
X245500000Y-31200000D02*
X245500000Y-32200000D01*
X231500000Y-32200000D02*
X231500000Y-31200000D01*
X232500000Y-18200000D02*
X231500000Y-18200000D01*
X231500000Y-32200000D02*
X232500000Y-32200000D01*
X231500000Y-19200000D02*
X231500000Y-18200000D01*
X254000000Y-19200000D02*
X254000000Y-18200000D01*
X254000000Y-32200000D02*
X255000000Y-32200000D01*
X255000000Y-18200000D02*
X254000000Y-18200000D01*
X254000000Y-32200000D02*
X254000000Y-31200000D01*
X268000000Y-31200000D02*
X268000000Y-32200000D01*
X268000000Y-32200000D02*
X267000000Y-32200000D01*
X267000000Y-32200000D02*
X268000000Y-32200000D01*
X268000000Y-18200000D02*
X268000000Y-19200000D01*
X268000000Y-18200000D02*
X267000000Y-18200000D01*
X272000000Y-19200000D02*
X272000000Y-18200000D01*
X272000000Y-32200000D02*
X273000000Y-32200000D01*
X273000000Y-18200000D02*
X272000000Y-18200000D01*
X272000000Y-32200000D02*
X272000000Y-31200000D01*
X286000000Y-31200000D02*
X286000000Y-32200000D01*
X286000000Y-32200000D02*
X285000000Y-32200000D01*
X285000000Y-32200000D02*
X286000000Y-32200000D01*
X286000000Y-18200000D02*
X286000000Y-19200000D01*
X286000000Y-18200000D02*
X285000000Y-18200000D01*
X7000000Y-35200000D02*
X6000000Y-35200000D01*
X7000000Y-35200000D02*
X7000000Y-36200000D01*
X6000000Y-49200000D02*
X7000000Y-49200000D01*
X7000000Y-49200000D02*
X6000000Y-49200000D01*
X7000000Y-48200000D02*
X7000000Y-49200000D01*
X-7000000Y-49200000D02*
X-7000000Y-48200000D01*
X-6000000Y-35200000D02*
X-7000000Y-35200000D01*
X-7000000Y-49200000D02*
X-6000000Y-49200000D01*
X-7000000Y-36200000D02*
X-7000000Y-35200000D01*
X15500000Y-36200000D02*
X15500000Y-35200000D01*
X15500000Y-49200000D02*
X16500000Y-49200000D01*
X16500000Y-35200000D02*
X15500000Y-35200000D01*
X15500000Y-49200000D02*
X15500000Y-48200000D01*
X29500000Y-48200000D02*
X29500000Y-49200000D01*
X29500000Y-49200000D02*
X28500000Y-49200000D01*
X28500000Y-49200000D02*
X29500000Y-49200000D01*
X29500000Y-35200000D02*
X29500000Y-36200000D01*
X29500000Y-35200000D02*
X28500000Y-35200000D01*
X33500000Y-36200000D02*
X33500000Y-35200000D01*
X33500000Y-49200000D02*
X34500000Y-49200000D01*
X34500000Y-35200000D02*
X33500000Y-35200000D01*
X33500000Y-49200000D02*
X33500000Y-48200000D01*
X47500000Y-48200000D02*
X47500000Y-49200000D01*
X47500000Y-49200000D02*
X46500000Y-49200000D01*
X46500000Y-49200000D02*
X47500000Y-49200000D01*
X47500000Y-35200000D02*
X47500000Y-36200000D01*
X47500000Y-35200000D02*
X46500000Y-35200000D01*
X65500000Y-35200000D02*
X64500000Y-35200000D01*
X65500000Y-35200000D02*
X65500000Y-36200000D01*
X64500000Y-49200000D02*
X65500000Y-49200000D01*
X65500000Y-49200000D02*
X64500000Y-49200000D01*
X65500000Y-48200000D02*
X65500000Y-49200000D01*
X51500000Y-49200000D02*
X51500000Y-48200000D01*
X52500000Y-35200000D02*
X51500000Y-35200000D01*
X51500000Y-49200000D02*
X52500000Y-49200000D01*
X51500000Y-36200000D02*
X51500000Y-35200000D01*
X69500000Y-36200000D02*
X69500000Y-35200000D01*
X69500000Y-49200000D02*
X70500000Y-49200000D01*
X70500000Y-35200000D02*
X69500000Y-35200000D01*
X69500000Y-49200000D02*
X69500000Y-48200000D01*
X83500000Y-48200000D02*
X83500000Y-49200000D01*
X83500000Y-49200000D02*
X82500000Y-49200000D01*
X82500000Y-49200000D02*
X83500000Y-49200000D01*
X83500000Y-35200000D02*
X83500000Y-36200000D01*
X83500000Y-35200000D02*
X82500000Y-35200000D01*
X87500000Y-36200000D02*
X87500000Y-35200000D01*
X87500000Y-49200000D02*
X88500000Y-49200000D01*
X88500000Y-35200000D02*
X87500000Y-35200000D01*
X87500000Y-49200000D02*
X87500000Y-48200000D01*
X101500000Y-48200000D02*
X101500000Y-49200000D01*
X101500000Y-49200000D02*
X100500000Y-49200000D01*
X100500000Y-49200000D02*
X101500000Y-49200000D01*
X101500000Y-35200000D02*
X101500000Y-36200000D01*
X101500000Y-35200000D02*
X100500000Y-35200000D01*
X119500000Y-35200000D02*
X118500000Y-35200000D01*
X119500000Y-35200000D02*
X119500000Y-36200000D01*
X118500000Y-49200000D02*
X119500000Y-49200000D01*
X119500000Y-49200000D02*
X118500000Y-49200000D01*
X119500000Y-48200000D02*
X119500000Y-49200000D01*
X105500000Y-49200000D02*
X105500000Y-48200000D01*
X106500000Y-35200000D02*
X105500000Y-35200000D01*
X105500000Y-49200000D02*
X106500000Y-49200000D01*
X105500000Y-36200000D02*
X105500000Y-35200000D01*
X123500000Y-36200000D02*
X123500000Y-35200000D01*
X123500000Y-49200000D02*
X124500000Y-49200000D01*
X124500000Y-35200000D02*
X123500000Y-35200000D01*
X123500000Y-49200000D02*
X123500000Y-48200000D01*
X137500000Y-48200000D02*
X137500000Y-49200000D01*
X137500000Y-49200000D02*
X136500000Y-49200000D01*
X136500000Y-49200000D02*
X137500000Y-49200000D01*
X137500000Y-35200000D02*
X137500000Y-36200000D01*
X137500000Y-35200000D02*
X136500000Y-35200000D01*
X155500000Y-35200000D02*
X154500000Y-35200000D01*
X155500000Y-35200000D02*
X155500000Y-36200000D01*
X154500000Y-49200000D02*
X155500000Y-49200000D01*
X155500000Y-49200000D02*
X154500000Y-49200000D01*
X155500000Y-48200000D02*
X155500000Y-49200000D01*
X141500000Y-49200000D02*
X141500000Y-48200000D01*
X142500000Y-35200000D02*
X141500000Y-35200000D01*
X141500000Y-49200000D02*
X142500000Y-49200000D01*
X141500000Y-36200000D02*
X141500000Y-35200000D01*
X173500000Y-35200000D02*
X172500000Y-35200000D01*
X173500000Y-35200000D02*
X173500000Y-36200000D01*
X172500000Y-49200000D02*
X173500000Y-49200000D01*
X173500000Y-49200000D02*
X172500000Y-49200000D01*
X173500000Y-48200000D02*
X173500000Y-49200000D01*
X159500000Y-49200000D02*
X159500000Y-48200000D01*
X160500000Y-35200000D02*
X159500000Y-35200000D01*
X159500000Y-49200000D02*
X160500000Y-49200000D01*
X159500000Y-36200000D02*
X159500000Y-35200000D01*
X191500000Y-35200000D02*
X190500000Y-35200000D01*
X191500000Y-35200000D02*
X191500000Y-36200000D01*
X190500000Y-49200000D02*
X191500000Y-49200000D01*
X191500000Y-49200000D02*
X190500000Y-49200000D01*
X191500000Y-48200000D02*
X191500000Y-49200000D01*
X177500000Y-49200000D02*
X177500000Y-48200000D01*
X178500000Y-35200000D02*
X177500000Y-35200000D01*
X177500000Y-49200000D02*
X178500000Y-49200000D01*
X177500000Y-36200000D02*
X177500000Y-35200000D01*
X195500000Y-36200000D02*
X195500000Y-35200000D01*
X195500000Y-49200000D02*
X196500000Y-49200000D01*
X196500000Y-35200000D02*
X195500000Y-35200000D01*
X195500000Y-49200000D02*
X195500000Y-48200000D01*
X209500000Y-48200000D02*
X209500000Y-49200000D01*
X209500000Y-49200000D02*
X208500000Y-49200000D01*
X208500000Y-49200000D02*
X209500000Y-49200000D01*
X209500000Y-35200000D02*
X209500000Y-36200000D01*
X209500000Y-35200000D02*
X208500000Y-35200000D01*
X227500000Y-35200000D02*
X226500000Y-35200000D01*
X227500000Y-35200000D02*
X227500000Y-36200000D01*
X226500000Y-49200000D02*
X227500000Y-49200000D01*
X227500000Y-49200000D02*
X226500000Y-49200000D01*
X227500000Y-48200000D02*
X227500000Y-49200000D01*
X213500000Y-49200000D02*
X213500000Y-48200000D01*
X214500000Y-35200000D02*
X213500000Y-35200000D01*
X213500000Y-49200000D02*
X214500000Y-49200000D01*
X213500000Y-36200000D02*
X213500000Y-35200000D01*
X245500000Y-35200000D02*
X244500000Y-35200000D01*
X245500000Y-35200000D02*
X245500000Y-36200000D01*
X244500000Y-49200000D02*
X245500000Y-49200000D01*
X245500000Y-49200000D02*
X244500000Y-49200000D01*
X245500000Y-48200000D02*
X245500000Y-49200000D01*
X231500000Y-49200000D02*
X231500000Y-48200000D01*
X232500000Y-35200000D02*
X231500000Y-35200000D01*
X231500000Y-49200000D02*
X232500000Y-49200000D01*
X231500000Y-36200000D02*
X231500000Y-35200000D01*
X-7000000Y-53200000D02*
X-7000000Y-52200000D01*
X-7000000Y-66200000D02*
X-6000000Y-66200000D01*
X-6000000Y-52200000D02*
X-7000000Y-52200000D01*
X-7000000Y-66200000D02*
X-7000000Y-65200000D01*
X7000000Y-65200000D02*
X7000000Y-66200000D01*
X7000000Y-66200000D02*
X6000000Y-66200000D01*
X6000000Y-66200000D02*
X7000000Y-66200000D01*
X7000000Y-52200000D02*
X7000000Y-53200000D01*
X7000000Y-52200000D02*
X6000000Y-52200000D01*
X20000000Y-53200000D02*
X20000000Y-52200000D01*
X20000000Y-66200000D02*
X21000000Y-66200000D01*
X21000000Y-52200000D02*
X20000000Y-52200000D01*
X20000000Y-66200000D02*
X20000000Y-65200000D01*
X34000000Y-65200000D02*
X34000000Y-66200000D01*
X34000000Y-66200000D02*
X33000000Y-66200000D01*
X33000000Y-66200000D02*
X34000000Y-66200000D01*
X34000000Y-52200000D02*
X34000000Y-53200000D01*
X34000000Y-52200000D02*
X33000000Y-52200000D01*
X42500000Y-53200000D02*
X42500000Y-52200000D01*
X42500000Y-66200000D02*
X43500000Y-66200000D01*
X43500000Y-52200000D02*
X42500000Y-52200000D01*
X42500000Y-66200000D02*
X42500000Y-65200000D01*
X56500000Y-65200000D02*
X56500000Y-66200000D01*
X56500000Y-66200000D02*
X55500000Y-66200000D01*
X55500000Y-66200000D02*
X56500000Y-66200000D01*
X56500000Y-52200000D02*
X56500000Y-53200000D01*
X56500000Y-52200000D02*
X55500000Y-52200000D01*
X74500000Y-52200000D02*
X73500000Y-52200000D01*
X74500000Y-52200000D02*
X74500000Y-53200000D01*
X73500000Y-66200000D02*
X74500000Y-66200000D01*
X74500000Y-66200000D02*
X73500000Y-66200000D01*
X74500000Y-65200000D02*
X74500000Y-66200000D01*
X60500000Y-66200000D02*
X60500000Y-65200000D01*
X61500000Y-52200000D02*
X60500000Y-52200000D01*
X60500000Y-66200000D02*
X61500000Y-66200000D01*
X60500000Y-53200000D02*
X60500000Y-52200000D01*
X78500000Y-53200000D02*
X78500000Y-52200000D01*
X78500000Y-66200000D02*
X79500000Y-66200000D01*
X79500000Y-52200000D02*
X78500000Y-52200000D01*
X78500000Y-66200000D02*
X78500000Y-65200000D01*
X92500000Y-65200000D02*
X92500000Y-66200000D01*
X92500000Y-66200000D02*
X91500000Y-66200000D01*
X91500000Y-66200000D02*
X92500000Y-66200000D01*
X92500000Y-52200000D02*
X92500000Y-53200000D01*
X92500000Y-52200000D02*
X91500000Y-52200000D01*
X96500000Y-53200000D02*
X96500000Y-52200000D01*
X96500000Y-66200000D02*
X97500000Y-66200000D01*
X97500000Y-52200000D02*
X96500000Y-52200000D01*
X96500000Y-66200000D02*
X96500000Y-65200000D01*
X110500000Y-65200000D02*
X110500000Y-66200000D01*
X110500000Y-66200000D02*
X109500000Y-66200000D01*
X109500000Y-66200000D02*
X110500000Y-66200000D01*
X110500000Y-52200000D02*
X110500000Y-53200000D01*
X110500000Y-52200000D02*
X109500000Y-52200000D01*
X114500000Y-53200000D02*
X114500000Y-52200000D01*
X114500000Y-66200000D02*
X115500000Y-66200000D01*
X115500000Y-52200000D02*
X114500000Y-52200000D01*
X114500000Y-66200000D02*
X114500000Y-65200000D01*
X128500000Y-65200000D02*
X128500000Y-66200000D01*
X128500000Y-66200000D02*
X127500000Y-66200000D01*
X127500000Y-66200000D02*
X128500000Y-66200000D01*
X128500000Y-52200000D02*
X128500000Y-53200000D01*
X128500000Y-52200000D02*
X127500000Y-52200000D01*
X146500000Y-52200000D02*
X145500000Y-52200000D01*
X146500000Y-52200000D02*
X146500000Y-53200000D01*
X145500000Y-66200000D02*
X146500000Y-66200000D01*
X146500000Y-66200000D02*
X145500000Y-66200000D01*
X146500000Y-65200000D02*
X146500000Y-66200000D01*
X132500000Y-66200000D02*
X132500000Y-65200000D01*
X133500000Y-52200000D02*
X132500000Y-52200000D01*
X132500000Y-66200000D02*
X133500000Y-66200000D01*
X132500000Y-53200000D02*
X132500000Y-52200000D01*
X150500000Y-53200000D02*
X150500000Y-52200000D01*
X150500000Y-66200000D02*
X151500000Y-66200000D01*
X151500000Y-52200000D02*
X150500000Y-52200000D01*
X150500000Y-66200000D02*
X150500000Y-65200000D01*
X164500000Y-65200000D02*
X164500000Y-66200000D01*
X164500000Y-66200000D02*
X163500000Y-66200000D01*
X163500000Y-66200000D02*
X164500000Y-66200000D01*
X164500000Y-52200000D02*
X164500000Y-53200000D01*
X164500000Y-52200000D02*
X163500000Y-52200000D01*
X182500000Y-52200000D02*
X181500000Y-52200000D01*
X182500000Y-52200000D02*
X182500000Y-53200000D01*
X181500000Y-66200000D02*
X182500000Y-66200000D01*
X182500000Y-66200000D02*
X181500000Y-66200000D01*
X182500000Y-65200000D02*
X182500000Y-66200000D01*
X168500000Y-66200000D02*
X168500000Y-65200000D01*
X169500000Y-52200000D02*
X168500000Y-52200000D01*
X168500000Y-66200000D02*
X169500000Y-66200000D01*
X168500000Y-53200000D02*
X168500000Y-52200000D01*
X186500000Y-53200000D02*
X186500000Y-52200000D01*
X186500000Y-66200000D02*
X187500000Y-66200000D01*
X187500000Y-52200000D02*
X186500000Y-52200000D01*
X186500000Y-66200000D02*
X186500000Y-65200000D01*
X200500000Y-65200000D02*
X200500000Y-66200000D01*
X200500000Y-66200000D02*
X199500000Y-66200000D01*
X199500000Y-66200000D02*
X200500000Y-66200000D01*
X200500000Y-52200000D02*
X200500000Y-53200000D01*
X200500000Y-52200000D02*
X199500000Y-52200000D01*
X204500000Y-53200000D02*
X204500000Y-52200000D01*
X204500000Y-66200000D02*
X205500000Y-66200000D01*
X205500000Y-52200000D02*
X204500000Y-52200000D01*
X204500000Y-66200000D02*
X204500000Y-65200000D01*
X218500000Y-65200000D02*
X218500000Y-66200000D01*
X218500000Y-66200000D02*
X217500000Y-66200000D01*
X217500000Y-66200000D02*
X218500000Y-66200000D01*
X218500000Y-52200000D02*
X218500000Y-53200000D01*
X218500000Y-52200000D02*
X217500000Y-52200000D01*
X241000000Y-52200000D02*
X240000000Y-52200000D01*
X241000000Y-52200000D02*
X241000000Y-53200000D01*
X240000000Y-66200000D02*
X241000000Y-66200000D01*
X241000000Y-66200000D02*
X240000000Y-66200000D01*
X241000000Y-65200000D02*
X241000000Y-66200000D01*
X227000000Y-66200000D02*
X227000000Y-65200000D01*
X228000000Y-52200000D02*
X227000000Y-52200000D01*
X227000000Y-66200000D02*
X228000000Y-66200000D01*
X227000000Y-53200000D02*
X227000000Y-52200000D01*
X254000000Y-53200000D02*
X254000000Y-52200000D01*
X254000000Y-66200000D02*
X255000000Y-66200000D01*
X255000000Y-52200000D02*
X254000000Y-52200000D01*
X254000000Y-66200000D02*
X254000000Y-65200000D01*
X268000000Y-65200000D02*
X268000000Y-66200000D01*
X268000000Y-66200000D02*
X267000000Y-66200000D01*
X267000000Y-66200000D02*
X268000000Y-66200000D01*
X268000000Y-52200000D02*
X268000000Y-53200000D01*
X268000000Y-52200000D02*
X267000000Y-52200000D01*
X-7000000Y-70200000D02*
X-7000000Y-69200000D01*
X-7000000Y-83200000D02*
X-6000000Y-83200000D01*
X-6000000Y-69200000D02*
X-7000000Y-69200000D01*
X-7000000Y-83200000D02*
X-7000000Y-82200000D01*
X7000000Y-82200000D02*
X7000000Y-83200000D01*
X7000000Y-83200000D02*
X6000000Y-83200000D01*
X6000000Y-83200000D02*
X7000000Y-83200000D01*
X7000000Y-69200000D02*
X7000000Y-70200000D01*
X7000000Y-69200000D02*
X6000000Y-69200000D01*
X29500000Y-69200000D02*
X28500000Y-69200000D01*
X29500000Y-69200000D02*
X29500000Y-70200000D01*
X28500000Y-83200000D02*
X29500000Y-83200000D01*
X29500000Y-83200000D02*
X28500000Y-83200000D01*
X29500000Y-82200000D02*
X29500000Y-83200000D01*
X15500000Y-83200000D02*
X15500000Y-82200000D01*
X16500000Y-69200000D02*
X15500000Y-69200000D01*
X15500000Y-83200000D02*
X16500000Y-83200000D01*
X15500000Y-70200000D02*
X15500000Y-69200000D01*
X47500000Y-69200000D02*
X46500000Y-69200000D01*
X47500000Y-69200000D02*
X47500000Y-70200000D01*
X46500000Y-83200000D02*
X47500000Y-83200000D01*
X47500000Y-83200000D02*
X46500000Y-83200000D01*
X47500000Y-82200000D02*
X47500000Y-83200000D01*
X33500000Y-83200000D02*
X33500000Y-82200000D01*
X34500000Y-69200000D02*
X33500000Y-69200000D01*
X33500000Y-83200000D02*
X34500000Y-83200000D01*
X33500000Y-70200000D02*
X33500000Y-69200000D01*
X65500000Y-69200000D02*
X64500000Y-69200000D01*
X65500000Y-69200000D02*
X65500000Y-70200000D01*
X64500000Y-83200000D02*
X65500000Y-83200000D01*
X65500000Y-83200000D02*
X64500000Y-83200000D01*
X65500000Y-82200000D02*
X65500000Y-83200000D01*
X51500000Y-83200000D02*
X51500000Y-82200000D01*
X52500000Y-69200000D02*
X51500000Y-69200000D01*
X51500000Y-83200000D02*
X52500000Y-83200000D01*
X51500000Y-70200000D02*
X51500000Y-69200000D01*
X83500000Y-69200000D02*
X82500000Y-69200000D01*
X83500000Y-69200000D02*
X83500000Y-70200000D01*
X82500000Y-83200000D02*
X83500000Y-83200000D01*
X83500000Y-83200000D02*
X82500000Y-83200000D01*
X83500000Y-82200000D02*
X83500000Y-83200000D01*
X69500000Y-83200000D02*
X69500000Y-82200000D01*
X70500000Y-69200000D02*
X69500000Y-69200000D01*
X69500000Y-83200000D02*
X70500000Y-83200000D01*
X69500000Y-70200000D02*
X69500000Y-69200000D01*
X98000000Y-70200000D02*
X98000000Y-69200000D01*
X98000000Y-83200000D02*
X99000000Y-83200000D01*
X99000000Y-69200000D02*
X98000000Y-69200000D01*
X98000000Y-83200000D02*
X98000000Y-82200000D01*
X112000000Y-82200000D02*
X112000000Y-83200000D01*
X112000000Y-83200000D02*
X111000000Y-83200000D01*
X111000000Y-83200000D02*
X112000000Y-83200000D01*
X112000000Y-69200000D02*
X112000000Y-70200000D01*
X112000000Y-69200000D02*
X111000000Y-69200000D01*
X145000000Y-69200000D02*
X144000000Y-69200000D01*
X145000000Y-69200000D02*
X145000000Y-70200000D01*
X144000000Y-83200000D02*
X145000000Y-83200000D01*
X145000000Y-83200000D02*
X144000000Y-83200000D01*
X145000000Y-82200000D02*
X145000000Y-83200000D01*
X131000000Y-83200000D02*
X131000000Y-82200000D01*
X132000000Y-69200000D02*
X131000000Y-69200000D01*
X131000000Y-83200000D02*
X132000000Y-83200000D01*
X131000000Y-70200000D02*
X131000000Y-69200000D01*
X173500000Y-69200000D02*
X172500000Y-69200000D01*
X173500000Y-69200000D02*
X173500000Y-70200000D01*
X172500000Y-83200000D02*
X173500000Y-83200000D01*
X173500000Y-83200000D02*
X172500000Y-83200000D01*
X173500000Y-82200000D02*
X173500000Y-83200000D01*
X159500000Y-83200000D02*
X159500000Y-82200000D01*
X160500000Y-69200000D02*
X159500000Y-69200000D01*
X159500000Y-83200000D02*
X160500000Y-83200000D01*
X159500000Y-70200000D02*
X159500000Y-69200000D01*
X191500000Y-69200000D02*
X190500000Y-69200000D01*
X191500000Y-69200000D02*
X191500000Y-70200000D01*
X190500000Y-83200000D02*
X191500000Y-83200000D01*
X191500000Y-83200000D02*
X190500000Y-83200000D01*
X191500000Y-82200000D02*
X191500000Y-83200000D01*
X177500000Y-83200000D02*
X177500000Y-82200000D01*
X178500000Y-69200000D02*
X177500000Y-69200000D01*
X177500000Y-83200000D02*
X178500000Y-83200000D01*
X177500000Y-70200000D02*
X177500000Y-69200000D01*
X195500000Y-70200000D02*
X195500000Y-69200000D01*
X195500000Y-83200000D02*
X196500000Y-83200000D01*
X196500000Y-69200000D02*
X195500000Y-69200000D01*
X195500000Y-83200000D02*
X195500000Y-82200000D01*
X209500000Y-82200000D02*
X209500000Y-83200000D01*
X209500000Y-83200000D02*
X208500000Y-83200000D01*
X208500000Y-83200000D02*
X209500000Y-83200000D01*
X209500000Y-69200000D02*
X209500000Y-70200000D01*
X209500000Y-69200000D02*
X208500000Y-69200000D01*
X227500000Y-69200000D02*
X226500000Y-69200000D01*
X227500000Y-69200000D02*
X227500000Y-70200000D01*
X226500000Y-83200000D02*
X227500000Y-83200000D01*
X227500000Y-83200000D02*
X226500000Y-83200000D01*
X227500000Y-82200000D02*
X227500000Y-83200000D01*
X213500000Y-83200000D02*
X213500000Y-82200000D01*
X214500000Y-69200000D02*
X213500000Y-69200000D01*
X213500000Y-83200000D02*
X214500000Y-83200000D01*
X213500000Y-70200000D02*
X213500000Y-69200000D01*
X250000000Y-69200000D02*
X249000000Y-69200000D01*
X250000000Y-69200000D02*
X250000000Y-70200000D01*
X249000000Y-83200000D02*
X250000000Y-83200000D01*
X250000000Y-83200000D02*
X249000000Y-83200000D01*
X250000000Y-82200000D02*
X250000000Y-83200000D01*
X236000000Y-83200000D02*
X236000000Y-82200000D01*
X237000000Y-69200000D02*
X236000000Y-69200000D01*
X236000000Y-83200000D02*
X237000000Y-83200000D01*
X236000000Y-70200000D02*
X236000000Y-69200000D01*
X268000000Y-69200000D02*
X267000000Y-69200000D01*
X268000000Y-69200000D02*
X268000000Y-70200000D01*
X267000000Y-83200000D02*
X268000000Y-83200000D01*
X268000000Y-83200000D02*
X267000000Y-83200000D01*
X268000000Y-82200000D02*
X268000000Y-83200000D01*
X254000000Y-83200000D02*
X254000000Y-82200000D01*
X255000000Y-69200000D02*
X254000000Y-69200000D01*
X254000000Y-83200000D02*
X255000000Y-83200000D01*
X254000000Y-70200000D02*
X254000000Y-69200000D01*
X272000000Y-70200000D02*
X272000000Y-69200000D01*
X272000000Y-83200000D02*
X273000000Y-83200000D01*
X273000000Y-69200000D02*
X272000000Y-69200000D01*
X272000000Y-83200000D02*
X272000000Y-82200000D01*
X286000000Y-82200000D02*
X286000000Y-83200000D01*
X286000000Y-83200000D02*
X285000000Y-83200000D01*
X285000000Y-83200000D02*
X286000000Y-83200000D01*
X286000000Y-69200000D02*
X286000000Y-70200000D01*
X286000000Y-69200000D02*
X285000000Y-69200000D01*
X256139619Y-56127380D02*
X255806285Y-55651190D01*
X255568190Y-56127380D02*
X255568190Y-55127380D01*
X255949142Y-55127380D01*
X256044380Y-55175000D01*
X256092000Y-55222619D01*
X256139619Y-55317857D01*
X256139619Y-55460714D01*
X256092000Y-55555952D01*
X256044380Y-55603571D01*
X255949142Y-55651190D01*
X255568190Y-55651190D01*
X256568190Y-55603571D02*
X256901523Y-55603571D01*
X257044380Y-56127380D02*
X256568190Y-56127380D01*
X256568190Y-55127380D01*
X257044380Y-55127380D01*
X257425333Y-56079761D02*
X257568190Y-56127380D01*
X257806285Y-56127380D01*
X257901523Y-56079761D01*
X257949142Y-56032142D01*
X257996761Y-55936904D01*
X257996761Y-55841666D01*
X257949142Y-55746428D01*
X257901523Y-55698809D01*
X257806285Y-55651190D01*
X257615809Y-55603571D01*
X257520571Y-55555952D01*
X257472952Y-55508333D01*
X257425333Y-55413095D01*
X257425333Y-55317857D01*
X257472952Y-55222619D01*
X257520571Y-55175000D01*
X257615809Y-55127380D01*
X257853904Y-55127380D01*
X257996761Y-55175000D01*
X258425333Y-55603571D02*
X258758666Y-55603571D01*
X258901523Y-56127380D02*
X258425333Y-56127380D01*
X258425333Y-55127380D01*
X258901523Y-55127380D01*
X259187238Y-55127380D02*
X259758666Y-55127380D01*
X259472952Y-56127380D02*
X259472952Y-55127380D01*
X17075000Y-37902380D02*
X16598809Y-37902380D01*
X16598809Y-36902380D01*
X17408333Y-37378571D02*
X17741666Y-37378571D01*
X17884523Y-37902380D02*
X17408333Y-37902380D01*
X17408333Y-36902380D01*
X17884523Y-36902380D01*
X18313095Y-37902380D02*
X18313095Y-36902380D01*
X18551190Y-36902380D01*
X18694047Y-36950000D01*
X18789285Y-37045238D01*
X18836904Y-37140476D01*
X18884523Y-37330952D01*
X18884523Y-37473809D01*
X18836904Y-37664285D01*
X18789285Y-37759523D01*
X18694047Y-37854761D01*
X18551190Y-37902380D01*
X18313095Y-37902380D01*
X19075000Y-37997619D02*
X19836904Y-37997619D01*
X20598809Y-37902380D02*
X20027380Y-37902380D01*
X20313095Y-37902380D02*
X20313095Y-36902380D01*
X20217857Y-37045238D01*
X20122619Y-37140476D01*
X20027380Y-37188095D01*
M02*
