G04 #@! TF.GenerationSoftware,KiCad,Pcbnew,(5.1.8)-1*
G04 #@! TF.CreationDate,2021-04-23T17:16:51-07:00*
G04 #@! TF.ProjectId,Spritzgeback,53707269-747a-4676-9562-61636b2e6b69,rev?*
G04 #@! TF.SameCoordinates,Original*
G04 #@! TF.FileFunction,Legend,Bot*
G04 #@! TF.FilePolarity,Positive*
%FSLAX46Y46*%
G04 Gerber Fmt 4.6, Leading zero omitted, Abs format (unit mm)*
G04 Created by KiCad (PCBNEW (5.1.8)-1) date 2021-04-23 17:16:51*
%MOMM*%
%LPD*%
G01*
G04 APERTURE LIST*
%ADD10C,0.120000*%
%ADD11C,0.100000*%
%ADD12C,0.150000*%
%ADD13C,0.127000*%
%ADD14C,0.200000*%
G04 APERTURE END LIST*
D10*
X247950000Y-9150000D02*
G75*
G03*
X247950000Y-9150000I-250000J0D01*
G01*
D11*
G36*
X11665000Y-34948000D02*
G01*
X11665000Y-38148000D01*
X10365000Y-36998000D01*
X10365000Y-33798000D01*
X11665000Y-34948000D01*
G37*
X11665000Y-34948000D02*
X11665000Y-38148000D01*
X10365000Y-36998000D01*
X10365000Y-33798000D01*
X11665000Y-34948000D01*
G36*
X10865000Y-34948000D02*
G01*
X10865000Y-38148000D01*
X9565000Y-36998000D01*
X9565000Y-33798000D01*
X10865000Y-34948000D01*
G37*
X10865000Y-34948000D02*
X10865000Y-38148000D01*
X9565000Y-36998000D01*
X9565000Y-33798000D01*
X10865000Y-34948000D01*
G36*
X10065000Y-34948000D02*
G01*
X10065000Y-38148000D01*
X8765000Y-36998000D01*
X8765000Y-33798000D01*
X10065000Y-34948000D01*
G37*
X10065000Y-34948000D02*
X10065000Y-38148000D01*
X8765000Y-36998000D01*
X8765000Y-33798000D01*
X10065000Y-34948000D01*
D12*
X10569761Y-40287285D02*
X10617380Y-40430142D01*
X10617380Y-40668238D01*
X10569761Y-40763476D01*
X10522142Y-40811095D01*
X10426904Y-40858714D01*
X10331666Y-40858714D01*
X10236428Y-40811095D01*
X10188809Y-40763476D01*
X10141190Y-40668238D01*
X10093571Y-40477761D01*
X10045952Y-40382523D01*
X9998333Y-40334904D01*
X9903095Y-40287285D01*
X9807857Y-40287285D01*
X9712619Y-40334904D01*
X9665000Y-40382523D01*
X9617380Y-40477761D01*
X9617380Y-40715857D01*
X9665000Y-40858714D01*
X9950714Y-41287285D02*
X10950714Y-41287285D01*
X9998333Y-41287285D02*
X9950714Y-41382523D01*
X9950714Y-41573000D01*
X9998333Y-41668238D01*
X10045952Y-41715857D01*
X10141190Y-41763476D01*
X10426904Y-41763476D01*
X10522142Y-41715857D01*
X10569761Y-41668238D01*
X10617380Y-41573000D01*
X10617380Y-41382523D01*
X10569761Y-41287285D01*
X10617380Y-42192047D02*
X9950714Y-42192047D01*
X10141190Y-42192047D02*
X10045952Y-42239666D01*
X9998333Y-42287285D01*
X9950714Y-42382523D01*
X9950714Y-42477761D01*
X10617380Y-42811095D02*
X9950714Y-42811095D01*
X9617380Y-42811095D02*
X9665000Y-42763476D01*
X9712619Y-42811095D01*
X9665000Y-42858714D01*
X9617380Y-42811095D01*
X9712619Y-42811095D01*
X9950714Y-43144428D02*
X9950714Y-43525380D01*
X9617380Y-43287285D02*
X10474523Y-43287285D01*
X10569761Y-43334904D01*
X10617380Y-43430142D01*
X10617380Y-43525380D01*
X9950714Y-43763476D02*
X9950714Y-44287285D01*
X10617380Y-43763476D01*
X10617380Y-44287285D01*
X9950714Y-45096809D02*
X10760238Y-45096809D01*
X10855476Y-45049190D01*
X10903095Y-45001571D01*
X10950714Y-44906333D01*
X10950714Y-44763476D01*
X10903095Y-44668238D01*
X10569761Y-45096809D02*
X10617380Y-45001571D01*
X10617380Y-44811095D01*
X10569761Y-44715857D01*
X10522142Y-44668238D01*
X10426904Y-44620619D01*
X10141190Y-44620619D01*
X10045952Y-44668238D01*
X9998333Y-44715857D01*
X9950714Y-44811095D01*
X9950714Y-45001571D01*
X9998333Y-45096809D01*
X10569761Y-45953952D02*
X10617380Y-45858714D01*
X10617380Y-45668238D01*
X10569761Y-45573000D01*
X10474523Y-45525380D01*
X10093571Y-45525380D01*
X9998333Y-45573000D01*
X9950714Y-45668238D01*
X9950714Y-45858714D01*
X9998333Y-45953952D01*
X10093571Y-46001571D01*
X10188809Y-46001571D01*
X10284047Y-45525380D01*
X10617380Y-46430142D02*
X9617380Y-46430142D01*
X9998333Y-46430142D02*
X9950714Y-46525380D01*
X9950714Y-46715857D01*
X9998333Y-46811095D01*
X10045952Y-46858714D01*
X10141190Y-46906333D01*
X10426904Y-46906333D01*
X10522142Y-46858714D01*
X10569761Y-46811095D01*
X10617380Y-46715857D01*
X10617380Y-46525380D01*
X10569761Y-46430142D01*
X10617380Y-47763476D02*
X10093571Y-47763476D01*
X9998333Y-47715857D01*
X9950714Y-47620619D01*
X9950714Y-47430142D01*
X9998333Y-47334904D01*
X10569761Y-47763476D02*
X10617380Y-47668238D01*
X10617380Y-47430142D01*
X10569761Y-47334904D01*
X10474523Y-47287285D01*
X10379285Y-47287285D01*
X10284047Y-47334904D01*
X10236428Y-47430142D01*
X10236428Y-47668238D01*
X10188809Y-47763476D01*
X10569761Y-48668238D02*
X10617380Y-48573000D01*
X10617380Y-48382523D01*
X10569761Y-48287285D01*
X10522142Y-48239666D01*
X10426904Y-48192047D01*
X10141190Y-48192047D01*
X10045952Y-48239666D01*
X9998333Y-48287285D01*
X9950714Y-48382523D01*
X9950714Y-48573000D01*
X9998333Y-48668238D01*
X10617380Y-49096809D02*
X9617380Y-49096809D01*
X10236428Y-49192047D02*
X10617380Y-49477761D01*
X9950714Y-49477761D02*
X10331666Y-49096809D01*
X10617380Y-50668238D02*
X9617380Y-50668238D01*
X9998333Y-50668238D02*
X9950714Y-50763476D01*
X9950714Y-50953952D01*
X9998333Y-51049190D01*
X10045952Y-51096809D01*
X10141190Y-51144428D01*
X10426904Y-51144428D01*
X10522142Y-51096809D01*
X10569761Y-51049190D01*
X10617380Y-50953952D01*
X10617380Y-50763476D01*
X10569761Y-50668238D01*
X9950714Y-51477761D02*
X10617380Y-51715857D01*
X9950714Y-51953952D02*
X10617380Y-51715857D01*
X10855476Y-51620619D01*
X10903095Y-51573000D01*
X10950714Y-51477761D01*
X9617380Y-53382523D02*
X10331666Y-53382523D01*
X10474523Y-53334904D01*
X10569761Y-53239666D01*
X10617380Y-53096809D01*
X10617380Y-53001571D01*
X10569761Y-54239666D02*
X10617380Y-54144428D01*
X10617380Y-53953952D01*
X10569761Y-53858714D01*
X10474523Y-53811095D01*
X10093571Y-53811095D01*
X9998333Y-53858714D01*
X9950714Y-53953952D01*
X9950714Y-54144428D01*
X9998333Y-54239666D01*
X10093571Y-54287285D01*
X10188809Y-54287285D01*
X10284047Y-53811095D01*
X10617380Y-54715857D02*
X9950714Y-54715857D01*
X10141190Y-54715857D02*
X10045952Y-54763476D01*
X9998333Y-54811095D01*
X9950714Y-54906333D01*
X9950714Y-55001571D01*
X10569761Y-55715857D02*
X10617380Y-55620619D01*
X10617380Y-55430142D01*
X10569761Y-55334904D01*
X10474523Y-55287285D01*
X10093571Y-55287285D01*
X9998333Y-55334904D01*
X9950714Y-55430142D01*
X9950714Y-55620619D01*
X9998333Y-55715857D01*
X10093571Y-55763476D01*
X10188809Y-55763476D01*
X10284047Y-55287285D01*
X10617380Y-56192047D02*
X9950714Y-56192047D01*
X10045952Y-56192047D02*
X9998333Y-56239666D01*
X9950714Y-56334904D01*
X9950714Y-56477761D01*
X9998333Y-56573000D01*
X10093571Y-56620619D01*
X10617380Y-56620619D01*
X10093571Y-56620619D02*
X9998333Y-56668238D01*
X9950714Y-56763476D01*
X9950714Y-56906333D01*
X9998333Y-57001571D01*
X10093571Y-57049190D01*
X10617380Y-57049190D01*
X9950714Y-57430142D02*
X10617380Y-57668238D01*
X9950714Y-57906333D02*
X10617380Y-57668238D01*
X10855476Y-57573000D01*
X10903095Y-57525380D01*
X10950714Y-57430142D01*
D10*
X120747231Y-66550000D02*
G75*
G03*
X120747231Y-66550000I-300000J0D01*
G01*
X123000000Y-52950000D02*
X123400000Y-52950000D01*
X123400000Y-52950000D02*
X123800000Y-52950000D01*
X123400000Y-52450000D02*
X123400000Y-52950000D01*
X239610000Y-3322936D02*
X239610000Y-3777064D01*
X238140000Y-3322936D02*
X238140000Y-3777064D01*
X135300000Y-45250000D02*
X135600000Y-45250000D01*
X135300000Y-45250000D02*
X135300000Y-45800000D01*
X135300000Y-45250000D02*
X135300000Y-44700000D01*
X134700000Y-45250000D02*
X134400000Y-45250000D01*
X135300000Y-45250000D02*
X134700000Y-44850000D01*
X134700000Y-45650000D02*
X135300000Y-45250000D01*
X134700000Y-44850000D02*
X134700000Y-45650000D01*
X137200000Y-44250000D02*
X133300000Y-44250000D01*
X137200000Y-46250000D02*
X133300000Y-46250000D01*
X137200000Y-44250000D02*
X137200000Y-46250000D01*
X4800000Y-11250000D02*
X5100000Y-11250000D01*
X4800000Y-11250000D02*
X4800000Y-11800000D01*
X4800000Y-11250000D02*
X4800000Y-10700000D01*
X4200000Y-11250000D02*
X3900000Y-11250000D01*
X4800000Y-11250000D02*
X4200000Y-10850000D01*
X4200000Y-11650000D02*
X4800000Y-11250000D01*
X4200000Y-10850000D02*
X4200000Y-11650000D01*
X6700000Y-10250000D02*
X2800000Y-10250000D01*
X6700000Y-12250000D02*
X2800000Y-12250000D01*
X6700000Y-10250000D02*
X6700000Y-12250000D01*
X27300000Y-11250000D02*
X27600000Y-11250000D01*
X27300000Y-11250000D02*
X27300000Y-11800000D01*
X27300000Y-11250000D02*
X27300000Y-10700000D01*
X26700000Y-11250000D02*
X26400000Y-11250000D01*
X27300000Y-11250000D02*
X26700000Y-10850000D01*
X26700000Y-11650000D02*
X27300000Y-11250000D01*
X26700000Y-10850000D02*
X26700000Y-11650000D01*
X29200000Y-10250000D02*
X25300000Y-10250000D01*
X29200000Y-12250000D02*
X25300000Y-12250000D01*
X29200000Y-10250000D02*
X29200000Y-12250000D01*
X45300000Y-11250000D02*
X45600000Y-11250000D01*
X45300000Y-11250000D02*
X45300000Y-11800000D01*
X45300000Y-11250000D02*
X45300000Y-10700000D01*
X44700000Y-11250000D02*
X44400000Y-11250000D01*
X45300000Y-11250000D02*
X44700000Y-10850000D01*
X44700000Y-11650000D02*
X45300000Y-11250000D01*
X44700000Y-10850000D02*
X44700000Y-11650000D01*
X47200000Y-10250000D02*
X43300000Y-10250000D01*
X47200000Y-12250000D02*
X43300000Y-12250000D01*
X47200000Y-10250000D02*
X47200000Y-12250000D01*
X63300000Y-11250000D02*
X63600000Y-11250000D01*
X63300000Y-11250000D02*
X63300000Y-11800000D01*
X63300000Y-11250000D02*
X63300000Y-10700000D01*
X62700000Y-11250000D02*
X62400000Y-11250000D01*
X63300000Y-11250000D02*
X62700000Y-10850000D01*
X62700000Y-11650000D02*
X63300000Y-11250000D01*
X62700000Y-10850000D02*
X62700000Y-11650000D01*
X65200000Y-10250000D02*
X61300000Y-10250000D01*
X65200000Y-12250000D02*
X61300000Y-12250000D01*
X65200000Y-10250000D02*
X65200000Y-12250000D01*
X81300000Y-11250000D02*
X81600000Y-11250000D01*
X81300000Y-11250000D02*
X81300000Y-11800000D01*
X81300000Y-11250000D02*
X81300000Y-10700000D01*
X80700000Y-11250000D02*
X80400000Y-11250000D01*
X81300000Y-11250000D02*
X80700000Y-10850000D01*
X80700000Y-11650000D02*
X81300000Y-11250000D01*
X80700000Y-10850000D02*
X80700000Y-11650000D01*
X83200000Y-10250000D02*
X79300000Y-10250000D01*
X83200000Y-12250000D02*
X79300000Y-12250000D01*
X83200000Y-10250000D02*
X83200000Y-12250000D01*
X99300000Y-11250000D02*
X99600000Y-11250000D01*
X99300000Y-11250000D02*
X99300000Y-11800000D01*
X99300000Y-11250000D02*
X99300000Y-10700000D01*
X98700000Y-11250000D02*
X98400000Y-11250000D01*
X99300000Y-11250000D02*
X98700000Y-10850000D01*
X98700000Y-11650000D02*
X99300000Y-11250000D01*
X98700000Y-10850000D02*
X98700000Y-11650000D01*
X101200000Y-10250000D02*
X97300000Y-10250000D01*
X101200000Y-12250000D02*
X97300000Y-12250000D01*
X101200000Y-10250000D02*
X101200000Y-12250000D01*
X117300000Y-11250000D02*
X117600000Y-11250000D01*
X117300000Y-11250000D02*
X117300000Y-11800000D01*
X117300000Y-11250000D02*
X117300000Y-10700000D01*
X116700000Y-11250000D02*
X116400000Y-11250000D01*
X117300000Y-11250000D02*
X116700000Y-10850000D01*
X116700000Y-11650000D02*
X117300000Y-11250000D01*
X116700000Y-10850000D02*
X116700000Y-11650000D01*
X119200000Y-10250000D02*
X115300000Y-10250000D01*
X119200000Y-12250000D02*
X115300000Y-12250000D01*
X119200000Y-10250000D02*
X119200000Y-12250000D01*
X135300000Y-11250000D02*
X135600000Y-11250000D01*
X135300000Y-11250000D02*
X135300000Y-11800000D01*
X135300000Y-11250000D02*
X135300000Y-10700000D01*
X134700000Y-11250000D02*
X134400000Y-11250000D01*
X135300000Y-11250000D02*
X134700000Y-10850000D01*
X134700000Y-11650000D02*
X135300000Y-11250000D01*
X134700000Y-10850000D02*
X134700000Y-11650000D01*
X137200000Y-10250000D02*
X133300000Y-10250000D01*
X137200000Y-12250000D02*
X133300000Y-12250000D01*
X137200000Y-10250000D02*
X137200000Y-12250000D01*
X153300000Y-11250000D02*
X153600000Y-11250000D01*
X153300000Y-11250000D02*
X153300000Y-11800000D01*
X153300000Y-11250000D02*
X153300000Y-10700000D01*
X152700000Y-11250000D02*
X152400000Y-11250000D01*
X153300000Y-11250000D02*
X152700000Y-10850000D01*
X152700000Y-11650000D02*
X153300000Y-11250000D01*
X152700000Y-10850000D02*
X152700000Y-11650000D01*
X155200000Y-10250000D02*
X151300000Y-10250000D01*
X155200000Y-12250000D02*
X151300000Y-12250000D01*
X155200000Y-10250000D02*
X155200000Y-12250000D01*
X171300000Y-11250000D02*
X171600000Y-11250000D01*
X171300000Y-11250000D02*
X171300000Y-11800000D01*
X171300000Y-11250000D02*
X171300000Y-10700000D01*
X170700000Y-11250000D02*
X170400000Y-11250000D01*
X171300000Y-11250000D02*
X170700000Y-10850000D01*
X170700000Y-11650000D02*
X171300000Y-11250000D01*
X170700000Y-10850000D02*
X170700000Y-11650000D01*
X173200000Y-10250000D02*
X169300000Y-10250000D01*
X173200000Y-12250000D02*
X169300000Y-12250000D01*
X173200000Y-10250000D02*
X173200000Y-12250000D01*
X189300000Y-11250000D02*
X189600000Y-11250000D01*
X189300000Y-11250000D02*
X189300000Y-11800000D01*
X189300000Y-11250000D02*
X189300000Y-10700000D01*
X188700000Y-11250000D02*
X188400000Y-11250000D01*
X189300000Y-11250000D02*
X188700000Y-10850000D01*
X188700000Y-11650000D02*
X189300000Y-11250000D01*
X188700000Y-10850000D02*
X188700000Y-11650000D01*
X191200000Y-10250000D02*
X187300000Y-10250000D01*
X191200000Y-12250000D02*
X187300000Y-12250000D01*
X191200000Y-10250000D02*
X191200000Y-12250000D01*
X207300000Y-11250000D02*
X207600000Y-11250000D01*
X207300000Y-11250000D02*
X207300000Y-11800000D01*
X207300000Y-11250000D02*
X207300000Y-10700000D01*
X206700000Y-11250000D02*
X206400000Y-11250000D01*
X207300000Y-11250000D02*
X206700000Y-10850000D01*
X206700000Y-11650000D02*
X207300000Y-11250000D01*
X206700000Y-10850000D02*
X206700000Y-11650000D01*
X209200000Y-10250000D02*
X205300000Y-10250000D01*
X209200000Y-12250000D02*
X205300000Y-12250000D01*
X209200000Y-10250000D02*
X209200000Y-12250000D01*
X225300000Y-11250000D02*
X225600000Y-11250000D01*
X225300000Y-11250000D02*
X225300000Y-11800000D01*
X225300000Y-11250000D02*
X225300000Y-10700000D01*
X224700000Y-11250000D02*
X224400000Y-11250000D01*
X225300000Y-11250000D02*
X224700000Y-10850000D01*
X224700000Y-11650000D02*
X225300000Y-11250000D01*
X224700000Y-10850000D02*
X224700000Y-11650000D01*
X227200000Y-10250000D02*
X223300000Y-10250000D01*
X227200000Y-12250000D02*
X223300000Y-12250000D01*
X227200000Y-10250000D02*
X227200000Y-12250000D01*
X233400000Y-4700000D02*
X233400000Y-5000000D01*
X233400000Y-4700000D02*
X232850000Y-4700000D01*
X233400000Y-4700000D02*
X233950000Y-4700000D01*
X233400000Y-4100000D02*
X233400000Y-3800000D01*
X233400000Y-4700000D02*
X233800000Y-4100000D01*
X233000000Y-4100000D02*
X233400000Y-4700000D01*
X233800000Y-4100000D02*
X233000000Y-4100000D01*
X234400000Y-6600000D02*
X234400000Y-2700000D01*
X232400000Y-6600000D02*
X232400000Y-2700000D01*
X234400000Y-6600000D02*
X232400000Y-6600000D01*
X283800000Y-11250000D02*
X284100000Y-11250000D01*
X283800000Y-11250000D02*
X283800000Y-11800000D01*
X283800000Y-11250000D02*
X283800000Y-10700000D01*
X283200000Y-11250000D02*
X282900000Y-11250000D01*
X283800000Y-11250000D02*
X283200000Y-10850000D01*
X283200000Y-11650000D02*
X283800000Y-11250000D01*
X283200000Y-10850000D02*
X283200000Y-11650000D01*
X285700000Y-10250000D02*
X281800000Y-10250000D01*
X285700000Y-12250000D02*
X281800000Y-12250000D01*
X285700000Y-10250000D02*
X285700000Y-12250000D01*
X4800000Y-28250000D02*
X5100000Y-28250000D01*
X4800000Y-28250000D02*
X4800000Y-28800000D01*
X4800000Y-28250000D02*
X4800000Y-27700000D01*
X4200000Y-28250000D02*
X3900000Y-28250000D01*
X4800000Y-28250000D02*
X4200000Y-27850000D01*
X4200000Y-28650000D02*
X4800000Y-28250000D01*
X4200000Y-27850000D02*
X4200000Y-28650000D01*
X6700000Y-27250000D02*
X2800000Y-27250000D01*
X6700000Y-29250000D02*
X2800000Y-29250000D01*
X6700000Y-27250000D02*
X6700000Y-29250000D01*
X27300000Y-28250000D02*
X27600000Y-28250000D01*
X27300000Y-28250000D02*
X27300000Y-28800000D01*
X27300000Y-28250000D02*
X27300000Y-27700000D01*
X26700000Y-28250000D02*
X26400000Y-28250000D01*
X27300000Y-28250000D02*
X26700000Y-27850000D01*
X26700000Y-28650000D02*
X27300000Y-28250000D01*
X26700000Y-27850000D02*
X26700000Y-28650000D01*
X29200000Y-27250000D02*
X25300000Y-27250000D01*
X29200000Y-29250000D02*
X25300000Y-29250000D01*
X29200000Y-27250000D02*
X29200000Y-29250000D01*
X45300000Y-28250000D02*
X45600000Y-28250000D01*
X45300000Y-28250000D02*
X45300000Y-28800000D01*
X45300000Y-28250000D02*
X45300000Y-27700000D01*
X44700000Y-28250000D02*
X44400000Y-28250000D01*
X45300000Y-28250000D02*
X44700000Y-27850000D01*
X44700000Y-28650000D02*
X45300000Y-28250000D01*
X44700000Y-27850000D02*
X44700000Y-28650000D01*
X47200000Y-27250000D02*
X43300000Y-27250000D01*
X47200000Y-29250000D02*
X43300000Y-29250000D01*
X47200000Y-27250000D02*
X47200000Y-29250000D01*
X63300000Y-28250000D02*
X63600000Y-28250000D01*
X63300000Y-28250000D02*
X63300000Y-28800000D01*
X63300000Y-28250000D02*
X63300000Y-27700000D01*
X62700000Y-28250000D02*
X62400000Y-28250000D01*
X63300000Y-28250000D02*
X62700000Y-27850000D01*
X62700000Y-28650000D02*
X63300000Y-28250000D01*
X62700000Y-27850000D02*
X62700000Y-28650000D01*
X65200000Y-27250000D02*
X61300000Y-27250000D01*
X65200000Y-29250000D02*
X61300000Y-29250000D01*
X65200000Y-27250000D02*
X65200000Y-29250000D01*
X81300000Y-28250000D02*
X81600000Y-28250000D01*
X81300000Y-28250000D02*
X81300000Y-28800000D01*
X81300000Y-28250000D02*
X81300000Y-27700000D01*
X80700000Y-28250000D02*
X80400000Y-28250000D01*
X81300000Y-28250000D02*
X80700000Y-27850000D01*
X80700000Y-28650000D02*
X81300000Y-28250000D01*
X80700000Y-27850000D02*
X80700000Y-28650000D01*
X83200000Y-27250000D02*
X79300000Y-27250000D01*
X83200000Y-29250000D02*
X79300000Y-29250000D01*
X83200000Y-27250000D02*
X83200000Y-29250000D01*
X99300000Y-28250000D02*
X99600000Y-28250000D01*
X99300000Y-28250000D02*
X99300000Y-28800000D01*
X99300000Y-28250000D02*
X99300000Y-27700000D01*
X98700000Y-28250000D02*
X98400000Y-28250000D01*
X99300000Y-28250000D02*
X98700000Y-27850000D01*
X98700000Y-28650000D02*
X99300000Y-28250000D01*
X98700000Y-27850000D02*
X98700000Y-28650000D01*
X101200000Y-27250000D02*
X97300000Y-27250000D01*
X101200000Y-29250000D02*
X97300000Y-29250000D01*
X101200000Y-27250000D02*
X101200000Y-29250000D01*
X117300000Y-28250000D02*
X117600000Y-28250000D01*
X117300000Y-28250000D02*
X117300000Y-28800000D01*
X117300000Y-28250000D02*
X117300000Y-27700000D01*
X116700000Y-28250000D02*
X116400000Y-28250000D01*
X117300000Y-28250000D02*
X116700000Y-27850000D01*
X116700000Y-28650000D02*
X117300000Y-28250000D01*
X116700000Y-27850000D02*
X116700000Y-28650000D01*
X119200000Y-27250000D02*
X115300000Y-27250000D01*
X119200000Y-29250000D02*
X115300000Y-29250000D01*
X119200000Y-27250000D02*
X119200000Y-29250000D01*
X135300000Y-28250000D02*
X135600000Y-28250000D01*
X135300000Y-28250000D02*
X135300000Y-28800000D01*
X135300000Y-28250000D02*
X135300000Y-27700000D01*
X134700000Y-28250000D02*
X134400000Y-28250000D01*
X135300000Y-28250000D02*
X134700000Y-27850000D01*
X134700000Y-28650000D02*
X135300000Y-28250000D01*
X134700000Y-27850000D02*
X134700000Y-28650000D01*
X137200000Y-27250000D02*
X133300000Y-27250000D01*
X137200000Y-29250000D02*
X133300000Y-29250000D01*
X137200000Y-27250000D02*
X137200000Y-29250000D01*
X153300000Y-28250000D02*
X153600000Y-28250000D01*
X153300000Y-28250000D02*
X153300000Y-28800000D01*
X153300000Y-28250000D02*
X153300000Y-27700000D01*
X152700000Y-28250000D02*
X152400000Y-28250000D01*
X153300000Y-28250000D02*
X152700000Y-27850000D01*
X152700000Y-28650000D02*
X153300000Y-28250000D01*
X152700000Y-27850000D02*
X152700000Y-28650000D01*
X155200000Y-27250000D02*
X151300000Y-27250000D01*
X155200000Y-29250000D02*
X151300000Y-29250000D01*
X155200000Y-27250000D02*
X155200000Y-29250000D01*
X171300000Y-28250000D02*
X171600000Y-28250000D01*
X171300000Y-28250000D02*
X171300000Y-28800000D01*
X171300000Y-28250000D02*
X171300000Y-27700000D01*
X170700000Y-28250000D02*
X170400000Y-28250000D01*
X171300000Y-28250000D02*
X170700000Y-27850000D01*
X170700000Y-28650000D02*
X171300000Y-28250000D01*
X170700000Y-27850000D02*
X170700000Y-28650000D01*
X173200000Y-27250000D02*
X169300000Y-27250000D01*
X173200000Y-29250000D02*
X169300000Y-29250000D01*
X173200000Y-27250000D02*
X173200000Y-29250000D01*
X189300000Y-28250000D02*
X189600000Y-28250000D01*
X189300000Y-28250000D02*
X189300000Y-28800000D01*
X189300000Y-28250000D02*
X189300000Y-27700000D01*
X188700000Y-28250000D02*
X188400000Y-28250000D01*
X189300000Y-28250000D02*
X188700000Y-27850000D01*
X188700000Y-28650000D02*
X189300000Y-28250000D01*
X188700000Y-27850000D02*
X188700000Y-28650000D01*
X191200000Y-27250000D02*
X187300000Y-27250000D01*
X191200000Y-29250000D02*
X187300000Y-29250000D01*
X191200000Y-27250000D02*
X191200000Y-29250000D01*
X207300000Y-28250000D02*
X207600000Y-28250000D01*
X207300000Y-28250000D02*
X207300000Y-28800000D01*
X207300000Y-28250000D02*
X207300000Y-27700000D01*
X206700000Y-28250000D02*
X206400000Y-28250000D01*
X207300000Y-28250000D02*
X206700000Y-27850000D01*
X206700000Y-28650000D02*
X207300000Y-28250000D01*
X206700000Y-27850000D02*
X206700000Y-28650000D01*
X209200000Y-27250000D02*
X205300000Y-27250000D01*
X209200000Y-29250000D02*
X205300000Y-29250000D01*
X209200000Y-27250000D02*
X209200000Y-29250000D01*
X225300000Y-28250000D02*
X225600000Y-28250000D01*
X225300000Y-28250000D02*
X225300000Y-28800000D01*
X225300000Y-28250000D02*
X225300000Y-27700000D01*
X224700000Y-28250000D02*
X224400000Y-28250000D01*
X225300000Y-28250000D02*
X224700000Y-27850000D01*
X224700000Y-28650000D02*
X225300000Y-28250000D01*
X224700000Y-27850000D02*
X224700000Y-28650000D01*
X227200000Y-27250000D02*
X223300000Y-27250000D01*
X227200000Y-29250000D02*
X223300000Y-29250000D01*
X227200000Y-27250000D02*
X227200000Y-29250000D01*
X243300000Y-28250000D02*
X243600000Y-28250000D01*
X243300000Y-28250000D02*
X243300000Y-28800000D01*
X243300000Y-28250000D02*
X243300000Y-27700000D01*
X242700000Y-28250000D02*
X242400000Y-28250000D01*
X243300000Y-28250000D02*
X242700000Y-27850000D01*
X242700000Y-28650000D02*
X243300000Y-28250000D01*
X242700000Y-27850000D02*
X242700000Y-28650000D01*
X245200000Y-27250000D02*
X241300000Y-27250000D01*
X245200000Y-29250000D02*
X241300000Y-29250000D01*
X245200000Y-27250000D02*
X245200000Y-29250000D01*
X265800000Y-11250000D02*
X266100000Y-11250000D01*
X265800000Y-11250000D02*
X265800000Y-11800000D01*
X265800000Y-11250000D02*
X265800000Y-10700000D01*
X265200000Y-11250000D02*
X264900000Y-11250000D01*
X265800000Y-11250000D02*
X265200000Y-10850000D01*
X265200000Y-11650000D02*
X265800000Y-11250000D01*
X265200000Y-10850000D02*
X265200000Y-11650000D01*
X267700000Y-10250000D02*
X263800000Y-10250000D01*
X267700000Y-12250000D02*
X263800000Y-12250000D01*
X267700000Y-10250000D02*
X267700000Y-12250000D01*
X4800000Y-45250000D02*
X5100000Y-45250000D01*
X4800000Y-45250000D02*
X4800000Y-45800000D01*
X4800000Y-45250000D02*
X4800000Y-44700000D01*
X4200000Y-45250000D02*
X3900000Y-45250000D01*
X4800000Y-45250000D02*
X4200000Y-44850000D01*
X4200000Y-45650000D02*
X4800000Y-45250000D01*
X4200000Y-44850000D02*
X4200000Y-45650000D01*
X6700000Y-44250000D02*
X2800000Y-44250000D01*
X6700000Y-46250000D02*
X2800000Y-46250000D01*
X6700000Y-44250000D02*
X6700000Y-46250000D01*
X27300000Y-45250000D02*
X27600000Y-45250000D01*
X27300000Y-45250000D02*
X27300000Y-45800000D01*
X27300000Y-45250000D02*
X27300000Y-44700000D01*
X26700000Y-45250000D02*
X26400000Y-45250000D01*
X27300000Y-45250000D02*
X26700000Y-44850000D01*
X26700000Y-45650000D02*
X27300000Y-45250000D01*
X26700000Y-44850000D02*
X26700000Y-45650000D01*
X29200000Y-44250000D02*
X25300000Y-44250000D01*
X29200000Y-46250000D02*
X25300000Y-46250000D01*
X29200000Y-44250000D02*
X29200000Y-46250000D01*
X45300000Y-45250000D02*
X45600000Y-45250000D01*
X45300000Y-45250000D02*
X45300000Y-45800000D01*
X45300000Y-45250000D02*
X45300000Y-44700000D01*
X44700000Y-45250000D02*
X44400000Y-45250000D01*
X45300000Y-45250000D02*
X44700000Y-44850000D01*
X44700000Y-45650000D02*
X45300000Y-45250000D01*
X44700000Y-44850000D02*
X44700000Y-45650000D01*
X47200000Y-44250000D02*
X43300000Y-44250000D01*
X47200000Y-46250000D02*
X43300000Y-46250000D01*
X47200000Y-44250000D02*
X47200000Y-46250000D01*
X63300000Y-45250000D02*
X63600000Y-45250000D01*
X63300000Y-45250000D02*
X63300000Y-45800000D01*
X63300000Y-45250000D02*
X63300000Y-44700000D01*
X62700000Y-45250000D02*
X62400000Y-45250000D01*
X63300000Y-45250000D02*
X62700000Y-44850000D01*
X62700000Y-45650000D02*
X63300000Y-45250000D01*
X62700000Y-44850000D02*
X62700000Y-45650000D01*
X65200000Y-44250000D02*
X61300000Y-44250000D01*
X65200000Y-46250000D02*
X61300000Y-46250000D01*
X65200000Y-44250000D02*
X65200000Y-46250000D01*
X81300000Y-45250000D02*
X81600000Y-45250000D01*
X81300000Y-45250000D02*
X81300000Y-45800000D01*
X81300000Y-45250000D02*
X81300000Y-44700000D01*
X80700000Y-45250000D02*
X80400000Y-45250000D01*
X81300000Y-45250000D02*
X80700000Y-44850000D01*
X80700000Y-45650000D02*
X81300000Y-45250000D01*
X80700000Y-44850000D02*
X80700000Y-45650000D01*
X83200000Y-44250000D02*
X79300000Y-44250000D01*
X83200000Y-46250000D02*
X79300000Y-46250000D01*
X83200000Y-44250000D02*
X83200000Y-46250000D01*
X99300000Y-45250000D02*
X99600000Y-45250000D01*
X99300000Y-45250000D02*
X99300000Y-45800000D01*
X99300000Y-45250000D02*
X99300000Y-44700000D01*
X98700000Y-45250000D02*
X98400000Y-45250000D01*
X99300000Y-45250000D02*
X98700000Y-44850000D01*
X98700000Y-45650000D02*
X99300000Y-45250000D01*
X98700000Y-44850000D02*
X98700000Y-45650000D01*
X101200000Y-44250000D02*
X97300000Y-44250000D01*
X101200000Y-46250000D02*
X97300000Y-46250000D01*
X101200000Y-44250000D02*
X101200000Y-46250000D01*
X117300000Y-45250000D02*
X117600000Y-45250000D01*
X117300000Y-45250000D02*
X117300000Y-45800000D01*
X117300000Y-45250000D02*
X117300000Y-44700000D01*
X116700000Y-45250000D02*
X116400000Y-45250000D01*
X117300000Y-45250000D02*
X116700000Y-44850000D01*
X116700000Y-45650000D02*
X117300000Y-45250000D01*
X116700000Y-44850000D02*
X116700000Y-45650000D01*
X119200000Y-44250000D02*
X115300000Y-44250000D01*
X119200000Y-46250000D02*
X115300000Y-46250000D01*
X119200000Y-44250000D02*
X119200000Y-46250000D01*
X153300000Y-45250000D02*
X153600000Y-45250000D01*
X153300000Y-45250000D02*
X153300000Y-45800000D01*
X153300000Y-45250000D02*
X153300000Y-44700000D01*
X152700000Y-45250000D02*
X152400000Y-45250000D01*
X153300000Y-45250000D02*
X152700000Y-44850000D01*
X152700000Y-45650000D02*
X153300000Y-45250000D01*
X152700000Y-44850000D02*
X152700000Y-45650000D01*
X155200000Y-44250000D02*
X151300000Y-44250000D01*
X155200000Y-46250000D02*
X151300000Y-46250000D01*
X155200000Y-44250000D02*
X155200000Y-46250000D01*
X171300000Y-45250000D02*
X171600000Y-45250000D01*
X171300000Y-45250000D02*
X171300000Y-45800000D01*
X171300000Y-45250000D02*
X171300000Y-44700000D01*
X170700000Y-45250000D02*
X170400000Y-45250000D01*
X171300000Y-45250000D02*
X170700000Y-44850000D01*
X170700000Y-45650000D02*
X171300000Y-45250000D01*
X170700000Y-44850000D02*
X170700000Y-45650000D01*
X173200000Y-44250000D02*
X169300000Y-44250000D01*
X173200000Y-46250000D02*
X169300000Y-46250000D01*
X173200000Y-44250000D02*
X173200000Y-46250000D01*
X189300000Y-45250000D02*
X189600000Y-45250000D01*
X189300000Y-45250000D02*
X189300000Y-45800000D01*
X189300000Y-45250000D02*
X189300000Y-44700000D01*
X188700000Y-45250000D02*
X188400000Y-45250000D01*
X189300000Y-45250000D02*
X188700000Y-44850000D01*
X188700000Y-45650000D02*
X189300000Y-45250000D01*
X188700000Y-44850000D02*
X188700000Y-45650000D01*
X191200000Y-44250000D02*
X187300000Y-44250000D01*
X191200000Y-46250000D02*
X187300000Y-46250000D01*
X191200000Y-44250000D02*
X191200000Y-46250000D01*
X207300000Y-45250000D02*
X207600000Y-45250000D01*
X207300000Y-45250000D02*
X207300000Y-45800000D01*
X207300000Y-45250000D02*
X207300000Y-44700000D01*
X206700000Y-45250000D02*
X206400000Y-45250000D01*
X207300000Y-45250000D02*
X206700000Y-44850000D01*
X206700000Y-45650000D02*
X207300000Y-45250000D01*
X206700000Y-44850000D02*
X206700000Y-45650000D01*
X209200000Y-44250000D02*
X205300000Y-44250000D01*
X209200000Y-46250000D02*
X205300000Y-46250000D01*
X209200000Y-44250000D02*
X209200000Y-46250000D01*
X225300000Y-45250000D02*
X225600000Y-45250000D01*
X225300000Y-45250000D02*
X225300000Y-45800000D01*
X225300000Y-45250000D02*
X225300000Y-44700000D01*
X224700000Y-45250000D02*
X224400000Y-45250000D01*
X225300000Y-45250000D02*
X224700000Y-44850000D01*
X224700000Y-45650000D02*
X225300000Y-45250000D01*
X224700000Y-44850000D02*
X224700000Y-45650000D01*
X227200000Y-44250000D02*
X223300000Y-44250000D01*
X227200000Y-46250000D02*
X223300000Y-46250000D01*
X227200000Y-44250000D02*
X227200000Y-46250000D01*
X243300000Y-45250000D02*
X243600000Y-45250000D01*
X243300000Y-45250000D02*
X243300000Y-45800000D01*
X243300000Y-45250000D02*
X243300000Y-44700000D01*
X242700000Y-45250000D02*
X242400000Y-45250000D01*
X243300000Y-45250000D02*
X242700000Y-44850000D01*
X242700000Y-45650000D02*
X243300000Y-45250000D01*
X242700000Y-44850000D02*
X242700000Y-45650000D01*
X245200000Y-44250000D02*
X241300000Y-44250000D01*
X245200000Y-46250000D02*
X241300000Y-46250000D01*
X245200000Y-44250000D02*
X245200000Y-46250000D01*
X265800000Y-28250000D02*
X266100000Y-28250000D01*
X265800000Y-28250000D02*
X265800000Y-28800000D01*
X265800000Y-28250000D02*
X265800000Y-27700000D01*
X265200000Y-28250000D02*
X264900000Y-28250000D01*
X265800000Y-28250000D02*
X265200000Y-27850000D01*
X265200000Y-28650000D02*
X265800000Y-28250000D01*
X265200000Y-27850000D02*
X265200000Y-28650000D01*
X267700000Y-27250000D02*
X263800000Y-27250000D01*
X267700000Y-29250000D02*
X263800000Y-29250000D01*
X267700000Y-27250000D02*
X267700000Y-29250000D01*
X4800000Y-62250000D02*
X5100000Y-62250000D01*
X4800000Y-62250000D02*
X4800000Y-62800000D01*
X4800000Y-62250000D02*
X4800000Y-61700000D01*
X4200000Y-62250000D02*
X3900000Y-62250000D01*
X4800000Y-62250000D02*
X4200000Y-61850000D01*
X4200000Y-62650000D02*
X4800000Y-62250000D01*
X4200000Y-61850000D02*
X4200000Y-62650000D01*
X6700000Y-61250000D02*
X2800000Y-61250000D01*
X6700000Y-63250000D02*
X2800000Y-63250000D01*
X6700000Y-61250000D02*
X6700000Y-63250000D01*
X31800000Y-62250000D02*
X32100000Y-62250000D01*
X31800000Y-62250000D02*
X31800000Y-62800000D01*
X31800000Y-62250000D02*
X31800000Y-61700000D01*
X31200000Y-62250000D02*
X30900000Y-62250000D01*
X31800000Y-62250000D02*
X31200000Y-61850000D01*
X31200000Y-62650000D02*
X31800000Y-62250000D01*
X31200000Y-61850000D02*
X31200000Y-62650000D01*
X33700000Y-61250000D02*
X29800000Y-61250000D01*
X33700000Y-63250000D02*
X29800000Y-63250000D01*
X33700000Y-61250000D02*
X33700000Y-63250000D01*
X54300000Y-62250000D02*
X54600000Y-62250000D01*
X54300000Y-62250000D02*
X54300000Y-62800000D01*
X54300000Y-62250000D02*
X54300000Y-61700000D01*
X53700000Y-62250000D02*
X53400000Y-62250000D01*
X54300000Y-62250000D02*
X53700000Y-61850000D01*
X53700000Y-62650000D02*
X54300000Y-62250000D01*
X53700000Y-61850000D02*
X53700000Y-62650000D01*
X56200000Y-61250000D02*
X52300000Y-61250000D01*
X56200000Y-63250000D02*
X52300000Y-63250000D01*
X56200000Y-61250000D02*
X56200000Y-63250000D01*
X72300000Y-62250000D02*
X72600000Y-62250000D01*
X72300000Y-62250000D02*
X72300000Y-62800000D01*
X72300000Y-62250000D02*
X72300000Y-61700000D01*
X71700000Y-62250000D02*
X71400000Y-62250000D01*
X72300000Y-62250000D02*
X71700000Y-61850000D01*
X71700000Y-62650000D02*
X72300000Y-62250000D01*
X71700000Y-61850000D02*
X71700000Y-62650000D01*
X74200000Y-61250000D02*
X70300000Y-61250000D01*
X74200000Y-63250000D02*
X70300000Y-63250000D01*
X74200000Y-61250000D02*
X74200000Y-63250000D01*
X90300000Y-62250000D02*
X90600000Y-62250000D01*
X90300000Y-62250000D02*
X90300000Y-62800000D01*
X90300000Y-62250000D02*
X90300000Y-61700000D01*
X89700000Y-62250000D02*
X89400000Y-62250000D01*
X90300000Y-62250000D02*
X89700000Y-61850000D01*
X89700000Y-62650000D02*
X90300000Y-62250000D01*
X89700000Y-61850000D02*
X89700000Y-62650000D01*
X92200000Y-61250000D02*
X88300000Y-61250000D01*
X92200000Y-63250000D02*
X88300000Y-63250000D01*
X92200000Y-61250000D02*
X92200000Y-63250000D01*
X110200000Y-61250000D02*
X110200000Y-63250000D01*
X110200000Y-63250000D02*
X106300000Y-63250000D01*
X110200000Y-61250000D02*
X106300000Y-61250000D01*
X107700000Y-61850000D02*
X107700000Y-62650000D01*
X107700000Y-62650000D02*
X108300000Y-62250000D01*
X108300000Y-62250000D02*
X107700000Y-61850000D01*
X107700000Y-62250000D02*
X107400000Y-62250000D01*
X108300000Y-62250000D02*
X108300000Y-61700000D01*
X108300000Y-62250000D02*
X108300000Y-62800000D01*
X108300000Y-62250000D02*
X108600000Y-62250000D01*
X126300000Y-62250000D02*
X126600000Y-62250000D01*
X126300000Y-62250000D02*
X126300000Y-62800000D01*
X126300000Y-62250000D02*
X126300000Y-61700000D01*
X125700000Y-62250000D02*
X125400000Y-62250000D01*
X126300000Y-62250000D02*
X125700000Y-61850000D01*
X125700000Y-62650000D02*
X126300000Y-62250000D01*
X125700000Y-61850000D02*
X125700000Y-62650000D01*
X128200000Y-61250000D02*
X124300000Y-61250000D01*
X128200000Y-63250000D02*
X124300000Y-63250000D01*
X128200000Y-61250000D02*
X128200000Y-63250000D01*
X146200000Y-61250000D02*
X146200000Y-63250000D01*
X146200000Y-63250000D02*
X142300000Y-63250000D01*
X146200000Y-61250000D02*
X142300000Y-61250000D01*
X143700000Y-61850000D02*
X143700000Y-62650000D01*
X143700000Y-62650000D02*
X144300000Y-62250000D01*
X144300000Y-62250000D02*
X143700000Y-61850000D01*
X143700000Y-62250000D02*
X143400000Y-62250000D01*
X144300000Y-62250000D02*
X144300000Y-61700000D01*
X144300000Y-62250000D02*
X144300000Y-62800000D01*
X144300000Y-62250000D02*
X144600000Y-62250000D01*
X162300000Y-62250000D02*
X162600000Y-62250000D01*
X162300000Y-62250000D02*
X162300000Y-62800000D01*
X162300000Y-62250000D02*
X162300000Y-61700000D01*
X161700000Y-62250000D02*
X161400000Y-62250000D01*
X162300000Y-62250000D02*
X161700000Y-61850000D01*
X161700000Y-62650000D02*
X162300000Y-62250000D01*
X161700000Y-61850000D02*
X161700000Y-62650000D01*
X164200000Y-61250000D02*
X160300000Y-61250000D01*
X164200000Y-63250000D02*
X160300000Y-63250000D01*
X164200000Y-61250000D02*
X164200000Y-63250000D01*
X180300000Y-62250000D02*
X180600000Y-62250000D01*
X180300000Y-62250000D02*
X180300000Y-62800000D01*
X180300000Y-62250000D02*
X180300000Y-61700000D01*
X179700000Y-62250000D02*
X179400000Y-62250000D01*
X180300000Y-62250000D02*
X179700000Y-61850000D01*
X179700000Y-62650000D02*
X180300000Y-62250000D01*
X179700000Y-61850000D02*
X179700000Y-62650000D01*
X182200000Y-61250000D02*
X178300000Y-61250000D01*
X182200000Y-63250000D02*
X178300000Y-63250000D01*
X182200000Y-61250000D02*
X182200000Y-63250000D01*
X198300000Y-62250000D02*
X198600000Y-62250000D01*
X198300000Y-62250000D02*
X198300000Y-62800000D01*
X198300000Y-62250000D02*
X198300000Y-61700000D01*
X197700000Y-62250000D02*
X197400000Y-62250000D01*
X198300000Y-62250000D02*
X197700000Y-61850000D01*
X197700000Y-62650000D02*
X198300000Y-62250000D01*
X197700000Y-61850000D02*
X197700000Y-62650000D01*
X200200000Y-61250000D02*
X196300000Y-61250000D01*
X200200000Y-63250000D02*
X196300000Y-63250000D01*
X200200000Y-61250000D02*
X200200000Y-63250000D01*
X216300000Y-62250000D02*
X216600000Y-62250000D01*
X216300000Y-62250000D02*
X216300000Y-62800000D01*
X216300000Y-62250000D02*
X216300000Y-61700000D01*
X215700000Y-62250000D02*
X215400000Y-62250000D01*
X216300000Y-62250000D02*
X215700000Y-61850000D01*
X215700000Y-62650000D02*
X216300000Y-62250000D01*
X215700000Y-61850000D02*
X215700000Y-62650000D01*
X218200000Y-61250000D02*
X214300000Y-61250000D01*
X218200000Y-63250000D02*
X214300000Y-63250000D01*
X218200000Y-61250000D02*
X218200000Y-63250000D01*
X238800000Y-62250000D02*
X239100000Y-62250000D01*
X238800000Y-62250000D02*
X238800000Y-62800000D01*
X238800000Y-62250000D02*
X238800000Y-61700000D01*
X238200000Y-62250000D02*
X237900000Y-62250000D01*
X238800000Y-62250000D02*
X238200000Y-61850000D01*
X238200000Y-62650000D02*
X238800000Y-62250000D01*
X238200000Y-61850000D02*
X238200000Y-62650000D01*
X240700000Y-61250000D02*
X236800000Y-61250000D01*
X240700000Y-63250000D02*
X236800000Y-63250000D01*
X240700000Y-61250000D02*
X240700000Y-63250000D01*
X27300000Y-79250000D02*
X27600000Y-79250000D01*
X27300000Y-79250000D02*
X27300000Y-79800000D01*
X27300000Y-79250000D02*
X27300000Y-78700000D01*
X26700000Y-79250000D02*
X26400000Y-79250000D01*
X27300000Y-79250000D02*
X26700000Y-78850000D01*
X26700000Y-79650000D02*
X27300000Y-79250000D01*
X26700000Y-78850000D02*
X26700000Y-79650000D01*
X29200000Y-78250000D02*
X25300000Y-78250000D01*
X29200000Y-80250000D02*
X25300000Y-80250000D01*
X29200000Y-78250000D02*
X29200000Y-80250000D01*
X45300000Y-79250000D02*
X45600000Y-79250000D01*
X45300000Y-79250000D02*
X45300000Y-79800000D01*
X45300000Y-79250000D02*
X45300000Y-78700000D01*
X44700000Y-79250000D02*
X44400000Y-79250000D01*
X45300000Y-79250000D02*
X44700000Y-78850000D01*
X44700000Y-79650000D02*
X45300000Y-79250000D01*
X44700000Y-78850000D02*
X44700000Y-79650000D01*
X47200000Y-78250000D02*
X43300000Y-78250000D01*
X47200000Y-80250000D02*
X43300000Y-80250000D01*
X47200000Y-78250000D02*
X47200000Y-80250000D01*
X63300000Y-79250000D02*
X63600000Y-79250000D01*
X63300000Y-79250000D02*
X63300000Y-79800000D01*
X63300000Y-79250000D02*
X63300000Y-78700000D01*
X62700000Y-79250000D02*
X62400000Y-79250000D01*
X63300000Y-79250000D02*
X62700000Y-78850000D01*
X62700000Y-79650000D02*
X63300000Y-79250000D01*
X62700000Y-78850000D02*
X62700000Y-79650000D01*
X65200000Y-78250000D02*
X61300000Y-78250000D01*
X65200000Y-80250000D02*
X61300000Y-80250000D01*
X65200000Y-78250000D02*
X65200000Y-80250000D01*
X111700000Y-78250000D02*
X111700000Y-80250000D01*
X111700000Y-80250000D02*
X107800000Y-80250000D01*
X111700000Y-78250000D02*
X107800000Y-78250000D01*
X109200000Y-78850000D02*
X109200000Y-79650000D01*
X109200000Y-79650000D02*
X109800000Y-79250000D01*
X109800000Y-79250000D02*
X109200000Y-78850000D01*
X109200000Y-79250000D02*
X108900000Y-79250000D01*
X109800000Y-79250000D02*
X109800000Y-78700000D01*
X109800000Y-79250000D02*
X109800000Y-79800000D01*
X109800000Y-79250000D02*
X110100000Y-79250000D01*
X144700000Y-78250000D02*
X144700000Y-80250000D01*
X144700000Y-80250000D02*
X140800000Y-80250000D01*
X144700000Y-78250000D02*
X140800000Y-78250000D01*
X142200000Y-78850000D02*
X142200000Y-79650000D01*
X142200000Y-79650000D02*
X142800000Y-79250000D01*
X142800000Y-79250000D02*
X142200000Y-78850000D01*
X142200000Y-79250000D02*
X141900000Y-79250000D01*
X142800000Y-79250000D02*
X142800000Y-78700000D01*
X142800000Y-79250000D02*
X142800000Y-79800000D01*
X142800000Y-79250000D02*
X143100000Y-79250000D01*
X189300000Y-79250000D02*
X189600000Y-79250000D01*
X189300000Y-79250000D02*
X189300000Y-79800000D01*
X189300000Y-79250000D02*
X189300000Y-78700000D01*
X188700000Y-79250000D02*
X188400000Y-79250000D01*
X189300000Y-79250000D02*
X188700000Y-78850000D01*
X188700000Y-79650000D02*
X189300000Y-79250000D01*
X188700000Y-78850000D02*
X188700000Y-79650000D01*
X191200000Y-78250000D02*
X187300000Y-78250000D01*
X191200000Y-80250000D02*
X187300000Y-80250000D01*
X191200000Y-78250000D02*
X191200000Y-80250000D01*
X207300000Y-79250000D02*
X207600000Y-79250000D01*
X207300000Y-79250000D02*
X207300000Y-79800000D01*
X207300000Y-79250000D02*
X207300000Y-78700000D01*
X206700000Y-79250000D02*
X206400000Y-79250000D01*
X207300000Y-79250000D02*
X206700000Y-78850000D01*
X206700000Y-79650000D02*
X207300000Y-79250000D01*
X206700000Y-78850000D02*
X206700000Y-79650000D01*
X209200000Y-78250000D02*
X205300000Y-78250000D01*
X209200000Y-80250000D02*
X205300000Y-80250000D01*
X209200000Y-78250000D02*
X209200000Y-80250000D01*
X225300000Y-79250000D02*
X225600000Y-79250000D01*
X225300000Y-79250000D02*
X225300000Y-79800000D01*
X225300000Y-79250000D02*
X225300000Y-78700000D01*
X224700000Y-79250000D02*
X224400000Y-79250000D01*
X225300000Y-79250000D02*
X224700000Y-78850000D01*
X224700000Y-79650000D02*
X225300000Y-79250000D01*
X224700000Y-78850000D02*
X224700000Y-79650000D01*
X227200000Y-78250000D02*
X223300000Y-78250000D01*
X227200000Y-80250000D02*
X223300000Y-80250000D01*
X227200000Y-78250000D02*
X227200000Y-80250000D01*
X247800000Y-79250000D02*
X248100000Y-79250000D01*
X247800000Y-79250000D02*
X247800000Y-79800000D01*
X247800000Y-79250000D02*
X247800000Y-78700000D01*
X247200000Y-79250000D02*
X246900000Y-79250000D01*
X247800000Y-79250000D02*
X247200000Y-78850000D01*
X247200000Y-79650000D02*
X247800000Y-79250000D01*
X247200000Y-78850000D02*
X247200000Y-79650000D01*
X249700000Y-78250000D02*
X245800000Y-78250000D01*
X249700000Y-80250000D02*
X245800000Y-80250000D01*
X249700000Y-78250000D02*
X249700000Y-80250000D01*
X283800000Y-79250000D02*
X284100000Y-79250000D01*
X283800000Y-79250000D02*
X283800000Y-79800000D01*
X283800000Y-79250000D02*
X283800000Y-78700000D01*
X283200000Y-79250000D02*
X282900000Y-79250000D01*
X283800000Y-79250000D02*
X283200000Y-78850000D01*
X283200000Y-79650000D02*
X283800000Y-79250000D01*
X283200000Y-78850000D02*
X283200000Y-79650000D01*
X285700000Y-78250000D02*
X281800000Y-78250000D01*
X285700000Y-80250000D02*
X281800000Y-80250000D01*
X285700000Y-78250000D02*
X285700000Y-80250000D01*
X4800000Y-79250000D02*
X5100000Y-79250000D01*
X4800000Y-79250000D02*
X4800000Y-79800000D01*
X4800000Y-79250000D02*
X4800000Y-78700000D01*
X4200000Y-79250000D02*
X3900000Y-79250000D01*
X4800000Y-79250000D02*
X4200000Y-78850000D01*
X4200000Y-79650000D02*
X4800000Y-79250000D01*
X4200000Y-78850000D02*
X4200000Y-79650000D01*
X6700000Y-78250000D02*
X2800000Y-78250000D01*
X6700000Y-80250000D02*
X2800000Y-80250000D01*
X6700000Y-78250000D02*
X6700000Y-80250000D01*
X81300000Y-79250000D02*
X81600000Y-79250000D01*
X81300000Y-79250000D02*
X81300000Y-79800000D01*
X81300000Y-79250000D02*
X81300000Y-78700000D01*
X80700000Y-79250000D02*
X80400000Y-79250000D01*
X81300000Y-79250000D02*
X80700000Y-78850000D01*
X80700000Y-79650000D02*
X81300000Y-79250000D01*
X80700000Y-78850000D02*
X80700000Y-79650000D01*
X83200000Y-78250000D02*
X79300000Y-78250000D01*
X83200000Y-80250000D02*
X79300000Y-80250000D01*
X83200000Y-78250000D02*
X83200000Y-80250000D01*
X265800000Y-62250000D02*
X266100000Y-62250000D01*
X265800000Y-62250000D02*
X265800000Y-62800000D01*
X265800000Y-62250000D02*
X265800000Y-61700000D01*
X265200000Y-62250000D02*
X264900000Y-62250000D01*
X265800000Y-62250000D02*
X265200000Y-61850000D01*
X265200000Y-62650000D02*
X265800000Y-62250000D01*
X265200000Y-61850000D02*
X265200000Y-62650000D01*
X267700000Y-61250000D02*
X263800000Y-61250000D01*
X267700000Y-63250000D02*
X263800000Y-63250000D01*
X267700000Y-61250000D02*
X267700000Y-63250000D01*
X265800000Y-79250000D02*
X266100000Y-79250000D01*
X265800000Y-79250000D02*
X265800000Y-79800000D01*
X265800000Y-79250000D02*
X265800000Y-78700000D01*
X265200000Y-79250000D02*
X264900000Y-79250000D01*
X265800000Y-79250000D02*
X265200000Y-78850000D01*
X265200000Y-79650000D02*
X265800000Y-79250000D01*
X265200000Y-78850000D02*
X265200000Y-79650000D01*
X267700000Y-78250000D02*
X263800000Y-78250000D01*
X267700000Y-80250000D02*
X263800000Y-80250000D01*
X267700000Y-78250000D02*
X267700000Y-80250000D01*
X283575000Y-28250000D02*
X283875000Y-28250000D01*
X283575000Y-28250000D02*
X283575000Y-28800000D01*
X283575000Y-28250000D02*
X283575000Y-27700000D01*
X282975000Y-28250000D02*
X282675000Y-28250000D01*
X283575000Y-28250000D02*
X282975000Y-27850000D01*
X282975000Y-28650000D02*
X283575000Y-28250000D01*
X282975000Y-27850000D02*
X282975000Y-28650000D01*
X285475000Y-27250000D02*
X281575000Y-27250000D01*
X285475000Y-29250000D02*
X281575000Y-29250000D01*
X285475000Y-27250000D02*
X285475000Y-29250000D01*
X171300000Y-79250000D02*
X171600000Y-79250000D01*
X171300000Y-79250000D02*
X171300000Y-79800000D01*
X171300000Y-79250000D02*
X171300000Y-78700000D01*
X170700000Y-79250000D02*
X170400000Y-79250000D01*
X171300000Y-79250000D02*
X170700000Y-78850000D01*
X170700000Y-79650000D02*
X171300000Y-79250000D01*
X170700000Y-78850000D02*
X170700000Y-79650000D01*
X173200000Y-78250000D02*
X169300000Y-78250000D01*
X173200000Y-80250000D02*
X169300000Y-80250000D01*
X173200000Y-78250000D02*
X173200000Y-80250000D01*
X264018936Y-46601000D02*
X264473064Y-46601000D01*
X264018936Y-48071000D02*
X264473064Y-48071000D01*
X264515252Y-45055000D02*
X263992748Y-45055000D01*
X264515252Y-43585000D02*
X263992748Y-43585000D01*
X271400457Y-36787010D02*
X271030990Y-36417543D01*
X270361010Y-37826457D02*
X269991543Y-37456990D01*
X284793000Y-52553252D02*
X284793000Y-52030748D01*
X286263000Y-52553252D02*
X286263000Y-52030748D01*
X281017000Y-56667252D02*
X281017000Y-56144748D01*
X282487000Y-56667252D02*
X282487000Y-56144748D01*
X284775000Y-48655252D02*
X284775000Y-48132748D01*
X286245000Y-48655252D02*
X286245000Y-48132748D01*
X273230990Y-53809543D02*
X273600457Y-54179010D01*
X272191543Y-54848990D02*
X272561010Y-55218457D01*
X284959990Y-41129457D02*
X285329457Y-40759990D01*
X283920543Y-40090010D02*
X284290010Y-39720543D01*
X282513543Y-38689010D02*
X282883010Y-38319543D01*
X283552990Y-39728457D02*
X283922457Y-39358990D01*
X277862543Y-35144010D02*
X278232010Y-34774543D01*
X278901990Y-36183457D02*
X279271457Y-35813990D01*
X280326165Y-37509282D02*
X280647282Y-37188165D01*
X279286718Y-36469835D02*
X279607835Y-36148718D01*
X281676165Y-38859282D02*
X281997282Y-38538165D01*
X280636718Y-37819835D02*
X280957835Y-37498718D01*
D12*
X275973586Y-38917031D02*
X276875148Y-38015470D01*
X268248445Y-45829000D02*
X268725742Y-45351703D01*
X275567000Y-53147555D02*
X276044297Y-52670258D01*
X282885555Y-45829000D02*
X282408258Y-46306297D01*
X275567000Y-38510445D02*
X275089703Y-38987742D01*
X282885555Y-45829000D02*
X282408258Y-45351703D01*
X275567000Y-53147555D02*
X275089703Y-52670258D01*
X268248445Y-45829000D02*
X268725742Y-46306297D01*
X275567000Y-38510445D02*
X275973586Y-38917031D01*
D10*
X272197010Y-36004457D02*
X271827543Y-35634990D01*
X273236457Y-34965010D02*
X272866990Y-34595543D01*
X241415000Y-10736252D02*
X241415000Y-10213748D01*
X242885000Y-10736252D02*
X242885000Y-10213748D01*
X247109000Y-10343064D02*
X247109000Y-9888936D01*
X245639000Y-10343064D02*
X245639000Y-9888936D01*
X243723000Y-12279064D02*
X243723000Y-11824936D01*
X245193000Y-12279064D02*
X245193000Y-11824936D01*
X262630936Y-53997000D02*
X263085064Y-53997000D01*
X262630936Y-52527000D02*
X263085064Y-52527000D01*
X26035000Y-37377064D02*
X26035000Y-36922936D01*
X24565000Y-37377064D02*
X24565000Y-36922936D01*
X250960000Y-10200000D02*
X250960000Y-12000000D01*
X247740000Y-12000000D02*
X247740000Y-9550000D01*
X257329064Y-3365000D02*
X256874936Y-3365000D01*
X257329064Y-4835000D02*
X256874936Y-4835000D01*
X280960000Y-50336000D02*
X284260000Y-50336000D01*
X284260000Y-50336000D02*
X284260000Y-54336000D01*
D13*
X245280000Y-3835000D02*
X245280000Y-2395000D01*
X254220000Y-3835000D02*
X254220000Y-2395000D01*
X254220000Y345000D02*
X254220000Y1575000D01*
X254220000Y1575000D02*
X245280000Y1575000D01*
X245280000Y1575000D02*
X245280000Y345000D01*
D14*
X246450000Y-7425000D02*
G75*
G03*
X246450000Y-7425000I-100000J0D01*
G01*
D10*
X240615000Y-3777064D02*
X240615000Y-3322936D01*
X242085000Y-3777064D02*
X242085000Y-3322936D01*
D12*
X-7000000Y-13800000D02*
X-7000000Y-14400000D01*
X1500000Y-11900000D02*
X-1000000Y-11900000D01*
X-1500000Y-16400000D02*
X-2000000Y-15900000D01*
X-2000000Y-14900000D02*
X-2000000Y-15900000D01*
X-7000000Y-14400000D02*
X-2500000Y-14400000D01*
X2000000Y-12400000D02*
X1500000Y-11900000D01*
X2000000Y-15900000D02*
X1500000Y-16400000D01*
X1500000Y-16400000D02*
X-1500000Y-16400000D01*
X-2500000Y-10400000D02*
X-2500000Y-9700000D01*
X-2500000Y-9700000D02*
X-7000000Y-9700000D01*
X-7000000Y-9700000D02*
X-7000000Y-10200000D01*
X-2500000Y-14400000D02*
G75*
G02*
X-2000000Y-14900000I0J-500000D01*
G01*
X-1000000Y-11900000D02*
G75*
G02*
X-2500000Y-10400000I0J1500000D01*
G01*
X15500000Y-9700000D02*
X15500000Y-10200000D01*
X20000000Y-9700000D02*
X15500000Y-9700000D01*
X20000000Y-10400000D02*
X20000000Y-9700000D01*
X24000000Y-16400000D02*
X21000000Y-16400000D01*
X24500000Y-15900000D02*
X24000000Y-16400000D01*
X24500000Y-12400000D02*
X24000000Y-11900000D01*
X15500000Y-14400000D02*
X20000000Y-14400000D01*
X20500000Y-14900000D02*
X20500000Y-15900000D01*
X21000000Y-16400000D02*
X20500000Y-15900000D01*
X24000000Y-11900000D02*
X21500000Y-11900000D01*
X15500000Y-13800000D02*
X15500000Y-14400000D01*
X21500000Y-11900000D02*
G75*
G02*
X20000000Y-10400000I0J1500000D01*
G01*
X20000000Y-14400000D02*
G75*
G02*
X20500000Y-14900000I0J-500000D01*
G01*
X33500000Y-13800000D02*
X33500000Y-14400000D01*
X42000000Y-11900000D02*
X39500000Y-11900000D01*
X39000000Y-16400000D02*
X38500000Y-15900000D01*
X38500000Y-14900000D02*
X38500000Y-15900000D01*
X33500000Y-14400000D02*
X38000000Y-14400000D01*
X42500000Y-12400000D02*
X42000000Y-11900000D01*
X42500000Y-15900000D02*
X42000000Y-16400000D01*
X42000000Y-16400000D02*
X39000000Y-16400000D01*
X38000000Y-10400000D02*
X38000000Y-9700000D01*
X38000000Y-9700000D02*
X33500000Y-9700000D01*
X33500000Y-9700000D02*
X33500000Y-10200000D01*
X38000000Y-14400000D02*
G75*
G02*
X38500000Y-14900000I0J-500000D01*
G01*
X39500000Y-11900000D02*
G75*
G02*
X38000000Y-10400000I0J1500000D01*
G01*
X51500000Y-9700000D02*
X51500000Y-10200000D01*
X56000000Y-9700000D02*
X51500000Y-9700000D01*
X56000000Y-10400000D02*
X56000000Y-9700000D01*
X60000000Y-16400000D02*
X57000000Y-16400000D01*
X60500000Y-15900000D02*
X60000000Y-16400000D01*
X60500000Y-12400000D02*
X60000000Y-11900000D01*
X51500000Y-14400000D02*
X56000000Y-14400000D01*
X56500000Y-14900000D02*
X56500000Y-15900000D01*
X57000000Y-16400000D02*
X56500000Y-15900000D01*
X60000000Y-11900000D02*
X57500000Y-11900000D01*
X51500000Y-13800000D02*
X51500000Y-14400000D01*
X57500000Y-11900000D02*
G75*
G02*
X56000000Y-10400000I0J1500000D01*
G01*
X56000000Y-14400000D02*
G75*
G02*
X56500000Y-14900000I0J-500000D01*
G01*
X69500000Y-13800000D02*
X69500000Y-14400000D01*
X78000000Y-11900000D02*
X75500000Y-11900000D01*
X75000000Y-16400000D02*
X74500000Y-15900000D01*
X74500000Y-14900000D02*
X74500000Y-15900000D01*
X69500000Y-14400000D02*
X74000000Y-14400000D01*
X78500000Y-12400000D02*
X78000000Y-11900000D01*
X78500000Y-15900000D02*
X78000000Y-16400000D01*
X78000000Y-16400000D02*
X75000000Y-16400000D01*
X74000000Y-10400000D02*
X74000000Y-9700000D01*
X74000000Y-9700000D02*
X69500000Y-9700000D01*
X69500000Y-9700000D02*
X69500000Y-10200000D01*
X74000000Y-14400000D02*
G75*
G02*
X74500000Y-14900000I0J-500000D01*
G01*
X75500000Y-11900000D02*
G75*
G02*
X74000000Y-10400000I0J1500000D01*
G01*
X87500000Y-9700000D02*
X87500000Y-10200000D01*
X92000000Y-9700000D02*
X87500000Y-9700000D01*
X92000000Y-10400000D02*
X92000000Y-9700000D01*
X96000000Y-16400000D02*
X93000000Y-16400000D01*
X96500000Y-15900000D02*
X96000000Y-16400000D01*
X96500000Y-12400000D02*
X96000000Y-11900000D01*
X87500000Y-14400000D02*
X92000000Y-14400000D01*
X92500000Y-14900000D02*
X92500000Y-15900000D01*
X93000000Y-16400000D02*
X92500000Y-15900000D01*
X96000000Y-11900000D02*
X93500000Y-11900000D01*
X87500000Y-13800000D02*
X87500000Y-14400000D01*
X93500000Y-11900000D02*
G75*
G02*
X92000000Y-10400000I0J1500000D01*
G01*
X92000000Y-14400000D02*
G75*
G02*
X92500000Y-14900000I0J-500000D01*
G01*
X105500000Y-13800000D02*
X105500000Y-14400000D01*
X114000000Y-11900000D02*
X111500000Y-11900000D01*
X111000000Y-16400000D02*
X110500000Y-15900000D01*
X110500000Y-14900000D02*
X110500000Y-15900000D01*
X105500000Y-14400000D02*
X110000000Y-14400000D01*
X114500000Y-12400000D02*
X114000000Y-11900000D01*
X114500000Y-15900000D02*
X114000000Y-16400000D01*
X114000000Y-16400000D02*
X111000000Y-16400000D01*
X110000000Y-10400000D02*
X110000000Y-9700000D01*
X110000000Y-9700000D02*
X105500000Y-9700000D01*
X105500000Y-9700000D02*
X105500000Y-10200000D01*
X110000000Y-14400000D02*
G75*
G02*
X110500000Y-14900000I0J-500000D01*
G01*
X111500000Y-11900000D02*
G75*
G02*
X110000000Y-10400000I0J1500000D01*
G01*
X123500000Y-9700000D02*
X123500000Y-10200000D01*
X128000000Y-9700000D02*
X123500000Y-9700000D01*
X128000000Y-10400000D02*
X128000000Y-9700000D01*
X132000000Y-16400000D02*
X129000000Y-16400000D01*
X132500000Y-15900000D02*
X132000000Y-16400000D01*
X132500000Y-12400000D02*
X132000000Y-11900000D01*
X123500000Y-14400000D02*
X128000000Y-14400000D01*
X128500000Y-14900000D02*
X128500000Y-15900000D01*
X129000000Y-16400000D02*
X128500000Y-15900000D01*
X132000000Y-11900000D02*
X129500000Y-11900000D01*
X123500000Y-13800000D02*
X123500000Y-14400000D01*
X129500000Y-11900000D02*
G75*
G02*
X128000000Y-10400000I0J1500000D01*
G01*
X128000000Y-14400000D02*
G75*
G02*
X128500000Y-14900000I0J-500000D01*
G01*
X141500000Y-13800000D02*
X141500000Y-14400000D01*
X150000000Y-11900000D02*
X147500000Y-11900000D01*
X147000000Y-16400000D02*
X146500000Y-15900000D01*
X146500000Y-14900000D02*
X146500000Y-15900000D01*
X141500000Y-14400000D02*
X146000000Y-14400000D01*
X150500000Y-12400000D02*
X150000000Y-11900000D01*
X150500000Y-15900000D02*
X150000000Y-16400000D01*
X150000000Y-16400000D02*
X147000000Y-16400000D01*
X146000000Y-10400000D02*
X146000000Y-9700000D01*
X146000000Y-9700000D02*
X141500000Y-9700000D01*
X141500000Y-9700000D02*
X141500000Y-10200000D01*
X146000000Y-14400000D02*
G75*
G02*
X146500000Y-14900000I0J-500000D01*
G01*
X147500000Y-11900000D02*
G75*
G02*
X146000000Y-10400000I0J1500000D01*
G01*
X159500000Y-9700000D02*
X159500000Y-10200000D01*
X164000000Y-9700000D02*
X159500000Y-9700000D01*
X164000000Y-10400000D02*
X164000000Y-9700000D01*
X168000000Y-16400000D02*
X165000000Y-16400000D01*
X168500000Y-15900000D02*
X168000000Y-16400000D01*
X168500000Y-12400000D02*
X168000000Y-11900000D01*
X159500000Y-14400000D02*
X164000000Y-14400000D01*
X164500000Y-14900000D02*
X164500000Y-15900000D01*
X165000000Y-16400000D02*
X164500000Y-15900000D01*
X168000000Y-11900000D02*
X165500000Y-11900000D01*
X159500000Y-13800000D02*
X159500000Y-14400000D01*
X165500000Y-11900000D02*
G75*
G02*
X164000000Y-10400000I0J1500000D01*
G01*
X164000000Y-14400000D02*
G75*
G02*
X164500000Y-14900000I0J-500000D01*
G01*
X177500000Y-13800000D02*
X177500000Y-14400000D01*
X186000000Y-11900000D02*
X183500000Y-11900000D01*
X183000000Y-16400000D02*
X182500000Y-15900000D01*
X182500000Y-14900000D02*
X182500000Y-15900000D01*
X177500000Y-14400000D02*
X182000000Y-14400000D01*
X186500000Y-12400000D02*
X186000000Y-11900000D01*
X186500000Y-15900000D02*
X186000000Y-16400000D01*
X186000000Y-16400000D02*
X183000000Y-16400000D01*
X182000000Y-10400000D02*
X182000000Y-9700000D01*
X182000000Y-9700000D02*
X177500000Y-9700000D01*
X177500000Y-9700000D02*
X177500000Y-10200000D01*
X182000000Y-14400000D02*
G75*
G02*
X182500000Y-14900000I0J-500000D01*
G01*
X183500000Y-11900000D02*
G75*
G02*
X182000000Y-10400000I0J1500000D01*
G01*
X195500000Y-13800000D02*
X195500000Y-14400000D01*
X204000000Y-11900000D02*
X201500000Y-11900000D01*
X201000000Y-16400000D02*
X200500000Y-15900000D01*
X200500000Y-14900000D02*
X200500000Y-15900000D01*
X195500000Y-14400000D02*
X200000000Y-14400000D01*
X204500000Y-12400000D02*
X204000000Y-11900000D01*
X204500000Y-15900000D02*
X204000000Y-16400000D01*
X204000000Y-16400000D02*
X201000000Y-16400000D01*
X200000000Y-10400000D02*
X200000000Y-9700000D01*
X200000000Y-9700000D02*
X195500000Y-9700000D01*
X195500000Y-9700000D02*
X195500000Y-10200000D01*
X200000000Y-14400000D02*
G75*
G02*
X200500000Y-14900000I0J-500000D01*
G01*
X201500000Y-11900000D02*
G75*
G02*
X200000000Y-10400000I0J1500000D01*
G01*
X213500000Y-9700000D02*
X213500000Y-10200000D01*
X218000000Y-9700000D02*
X213500000Y-9700000D01*
X218000000Y-10400000D02*
X218000000Y-9700000D01*
X222000000Y-16400000D02*
X219000000Y-16400000D01*
X222500000Y-15900000D02*
X222000000Y-16400000D01*
X222500000Y-12400000D02*
X222000000Y-11900000D01*
X213500000Y-14400000D02*
X218000000Y-14400000D01*
X218500000Y-14900000D02*
X218500000Y-15900000D01*
X219000000Y-16400000D02*
X218500000Y-15900000D01*
X222000000Y-11900000D02*
X219500000Y-11900000D01*
X213500000Y-13800000D02*
X213500000Y-14400000D01*
X219500000Y-11900000D02*
G75*
G02*
X218000000Y-10400000I0J1500000D01*
G01*
X218000000Y-14400000D02*
G75*
G02*
X218500000Y-14900000I0J-500000D01*
G01*
X231500000Y-13800000D02*
X231500000Y-14400000D01*
X240000000Y-11900000D02*
X237500000Y-11900000D01*
X237000000Y-16400000D02*
X236500000Y-15900000D01*
X236500000Y-14900000D02*
X236500000Y-15900000D01*
X231500000Y-14400000D02*
X236000000Y-14400000D01*
X240500000Y-12400000D02*
X240000000Y-11900000D01*
X240500000Y-15900000D02*
X240000000Y-16400000D01*
X240000000Y-16400000D02*
X237000000Y-16400000D01*
X236000000Y-10400000D02*
X236000000Y-9700000D01*
X236000000Y-9700000D02*
X231500000Y-9700000D01*
X231500000Y-9700000D02*
X231500000Y-10200000D01*
X236000000Y-14400000D02*
G75*
G02*
X236500000Y-14900000I0J-500000D01*
G01*
X237500000Y-11900000D02*
G75*
G02*
X236000000Y-10400000I0J1500000D01*
G01*
X254000000Y-13800000D02*
X254000000Y-14400000D01*
X262500000Y-11900000D02*
X260000000Y-11900000D01*
X259500000Y-16400000D02*
X259000000Y-15900000D01*
X259000000Y-14900000D02*
X259000000Y-15900000D01*
X254000000Y-14400000D02*
X258500000Y-14400000D01*
X263000000Y-12400000D02*
X262500000Y-11900000D01*
X263000000Y-15900000D02*
X262500000Y-16400000D01*
X262500000Y-16400000D02*
X259500000Y-16400000D01*
X258500000Y-10400000D02*
X258500000Y-9700000D01*
X258500000Y-9700000D02*
X254000000Y-9700000D01*
X254000000Y-9700000D02*
X254000000Y-10200000D01*
X258500000Y-14400000D02*
G75*
G02*
X259000000Y-14900000I0J-500000D01*
G01*
X260000000Y-11900000D02*
G75*
G02*
X258500000Y-10400000I0J1500000D01*
G01*
X272000000Y-9700000D02*
X272000000Y-10200000D01*
X276500000Y-9700000D02*
X272000000Y-9700000D01*
X276500000Y-10400000D02*
X276500000Y-9700000D01*
X280500000Y-16400000D02*
X277500000Y-16400000D01*
X281000000Y-15900000D02*
X280500000Y-16400000D01*
X281000000Y-12400000D02*
X280500000Y-11900000D01*
X272000000Y-14400000D02*
X276500000Y-14400000D01*
X277000000Y-14900000D02*
X277000000Y-15900000D01*
X277500000Y-16400000D02*
X277000000Y-15900000D01*
X280500000Y-11900000D02*
X278000000Y-11900000D01*
X272000000Y-13800000D02*
X272000000Y-14400000D01*
X278000000Y-11900000D02*
G75*
G02*
X276500000Y-10400000I0J1500000D01*
G01*
X276500000Y-14400000D02*
G75*
G02*
X277000000Y-14900000I0J-500000D01*
G01*
X-7000000Y-30800000D02*
X-7000000Y-31400000D01*
X1500000Y-28900000D02*
X-1000000Y-28900000D01*
X-1500000Y-33400000D02*
X-2000000Y-32900000D01*
X-2000000Y-31900000D02*
X-2000000Y-32900000D01*
X-7000000Y-31400000D02*
X-2500000Y-31400000D01*
X2000000Y-29400000D02*
X1500000Y-28900000D01*
X2000000Y-32900000D02*
X1500000Y-33400000D01*
X1500000Y-33400000D02*
X-1500000Y-33400000D01*
X-2500000Y-27400000D02*
X-2500000Y-26700000D01*
X-2500000Y-26700000D02*
X-7000000Y-26700000D01*
X-7000000Y-26700000D02*
X-7000000Y-27200000D01*
X-2500000Y-31400000D02*
G75*
G02*
X-2000000Y-31900000I0J-500000D01*
G01*
X-1000000Y-28900000D02*
G75*
G02*
X-2500000Y-27400000I0J1500000D01*
G01*
X15500000Y-26700000D02*
X15500000Y-27200000D01*
X20000000Y-26700000D02*
X15500000Y-26700000D01*
X20000000Y-27400000D02*
X20000000Y-26700000D01*
X24000000Y-33400000D02*
X21000000Y-33400000D01*
X24500000Y-32900000D02*
X24000000Y-33400000D01*
X24500000Y-29400000D02*
X24000000Y-28900000D01*
X15500000Y-31400000D02*
X20000000Y-31400000D01*
X20500000Y-31900000D02*
X20500000Y-32900000D01*
X21000000Y-33400000D02*
X20500000Y-32900000D01*
X24000000Y-28900000D02*
X21500000Y-28900000D01*
X15500000Y-30800000D02*
X15500000Y-31400000D01*
X21500000Y-28900000D02*
G75*
G02*
X20000000Y-27400000I0J1500000D01*
G01*
X20000000Y-31400000D02*
G75*
G02*
X20500000Y-31900000I0J-500000D01*
G01*
X33500000Y-26700000D02*
X33500000Y-27200000D01*
X38000000Y-26700000D02*
X33500000Y-26700000D01*
X38000000Y-27400000D02*
X38000000Y-26700000D01*
X42000000Y-33400000D02*
X39000000Y-33400000D01*
X42500000Y-32900000D02*
X42000000Y-33400000D01*
X42500000Y-29400000D02*
X42000000Y-28900000D01*
X33500000Y-31400000D02*
X38000000Y-31400000D01*
X38500000Y-31900000D02*
X38500000Y-32900000D01*
X39000000Y-33400000D02*
X38500000Y-32900000D01*
X42000000Y-28900000D02*
X39500000Y-28900000D01*
X33500000Y-30800000D02*
X33500000Y-31400000D01*
X39500000Y-28900000D02*
G75*
G02*
X38000000Y-27400000I0J1500000D01*
G01*
X38000000Y-31400000D02*
G75*
G02*
X38500000Y-31900000I0J-500000D01*
G01*
X51500000Y-26700000D02*
X51500000Y-27200000D01*
X56000000Y-26700000D02*
X51500000Y-26700000D01*
X56000000Y-27400000D02*
X56000000Y-26700000D01*
X60000000Y-33400000D02*
X57000000Y-33400000D01*
X60500000Y-32900000D02*
X60000000Y-33400000D01*
X60500000Y-29400000D02*
X60000000Y-28900000D01*
X51500000Y-31400000D02*
X56000000Y-31400000D01*
X56500000Y-31900000D02*
X56500000Y-32900000D01*
X57000000Y-33400000D02*
X56500000Y-32900000D01*
X60000000Y-28900000D02*
X57500000Y-28900000D01*
X51500000Y-30800000D02*
X51500000Y-31400000D01*
X57500000Y-28900000D02*
G75*
G02*
X56000000Y-27400000I0J1500000D01*
G01*
X56000000Y-31400000D02*
G75*
G02*
X56500000Y-31900000I0J-500000D01*
G01*
X69500000Y-30800000D02*
X69500000Y-31400000D01*
X78000000Y-28900000D02*
X75500000Y-28900000D01*
X75000000Y-33400000D02*
X74500000Y-32900000D01*
X74500000Y-31900000D02*
X74500000Y-32900000D01*
X69500000Y-31400000D02*
X74000000Y-31400000D01*
X78500000Y-29400000D02*
X78000000Y-28900000D01*
X78500000Y-32900000D02*
X78000000Y-33400000D01*
X78000000Y-33400000D02*
X75000000Y-33400000D01*
X74000000Y-27400000D02*
X74000000Y-26700000D01*
X74000000Y-26700000D02*
X69500000Y-26700000D01*
X69500000Y-26700000D02*
X69500000Y-27200000D01*
X74000000Y-31400000D02*
G75*
G02*
X74500000Y-31900000I0J-500000D01*
G01*
X75500000Y-28900000D02*
G75*
G02*
X74000000Y-27400000I0J1500000D01*
G01*
X87500000Y-30800000D02*
X87500000Y-31400000D01*
X96000000Y-28900000D02*
X93500000Y-28900000D01*
X93000000Y-33400000D02*
X92500000Y-32900000D01*
X92500000Y-31900000D02*
X92500000Y-32900000D01*
X87500000Y-31400000D02*
X92000000Y-31400000D01*
X96500000Y-29400000D02*
X96000000Y-28900000D01*
X96500000Y-32900000D02*
X96000000Y-33400000D01*
X96000000Y-33400000D02*
X93000000Y-33400000D01*
X92000000Y-27400000D02*
X92000000Y-26700000D01*
X92000000Y-26700000D02*
X87500000Y-26700000D01*
X87500000Y-26700000D02*
X87500000Y-27200000D01*
X92000000Y-31400000D02*
G75*
G02*
X92500000Y-31900000I0J-500000D01*
G01*
X93500000Y-28900000D02*
G75*
G02*
X92000000Y-27400000I0J1500000D01*
G01*
X105500000Y-26700000D02*
X105500000Y-27200000D01*
X110000000Y-26700000D02*
X105500000Y-26700000D01*
X110000000Y-27400000D02*
X110000000Y-26700000D01*
X114000000Y-33400000D02*
X111000000Y-33400000D01*
X114500000Y-32900000D02*
X114000000Y-33400000D01*
X114500000Y-29400000D02*
X114000000Y-28900000D01*
X105500000Y-31400000D02*
X110000000Y-31400000D01*
X110500000Y-31900000D02*
X110500000Y-32900000D01*
X111000000Y-33400000D02*
X110500000Y-32900000D01*
X114000000Y-28900000D02*
X111500000Y-28900000D01*
X105500000Y-30800000D02*
X105500000Y-31400000D01*
X111500000Y-28900000D02*
G75*
G02*
X110000000Y-27400000I0J1500000D01*
G01*
X110000000Y-31400000D02*
G75*
G02*
X110500000Y-31900000I0J-500000D01*
G01*
X123500000Y-30800000D02*
X123500000Y-31400000D01*
X132000000Y-28900000D02*
X129500000Y-28900000D01*
X129000000Y-33400000D02*
X128500000Y-32900000D01*
X128500000Y-31900000D02*
X128500000Y-32900000D01*
X123500000Y-31400000D02*
X128000000Y-31400000D01*
X132500000Y-29400000D02*
X132000000Y-28900000D01*
X132500000Y-32900000D02*
X132000000Y-33400000D01*
X132000000Y-33400000D02*
X129000000Y-33400000D01*
X128000000Y-27400000D02*
X128000000Y-26700000D01*
X128000000Y-26700000D02*
X123500000Y-26700000D01*
X123500000Y-26700000D02*
X123500000Y-27200000D01*
X128000000Y-31400000D02*
G75*
G02*
X128500000Y-31900000I0J-500000D01*
G01*
X129500000Y-28900000D02*
G75*
G02*
X128000000Y-27400000I0J1500000D01*
G01*
X141500000Y-26700000D02*
X141500000Y-27200000D01*
X146000000Y-26700000D02*
X141500000Y-26700000D01*
X146000000Y-27400000D02*
X146000000Y-26700000D01*
X150000000Y-33400000D02*
X147000000Y-33400000D01*
X150500000Y-32900000D02*
X150000000Y-33400000D01*
X150500000Y-29400000D02*
X150000000Y-28900000D01*
X141500000Y-31400000D02*
X146000000Y-31400000D01*
X146500000Y-31900000D02*
X146500000Y-32900000D01*
X147000000Y-33400000D02*
X146500000Y-32900000D01*
X150000000Y-28900000D02*
X147500000Y-28900000D01*
X141500000Y-30800000D02*
X141500000Y-31400000D01*
X147500000Y-28900000D02*
G75*
G02*
X146000000Y-27400000I0J1500000D01*
G01*
X146000000Y-31400000D02*
G75*
G02*
X146500000Y-31900000I0J-500000D01*
G01*
X159500000Y-26700000D02*
X159500000Y-27200000D01*
X164000000Y-26700000D02*
X159500000Y-26700000D01*
X164000000Y-27400000D02*
X164000000Y-26700000D01*
X168000000Y-33400000D02*
X165000000Y-33400000D01*
X168500000Y-32900000D02*
X168000000Y-33400000D01*
X168500000Y-29400000D02*
X168000000Y-28900000D01*
X159500000Y-31400000D02*
X164000000Y-31400000D01*
X164500000Y-31900000D02*
X164500000Y-32900000D01*
X165000000Y-33400000D02*
X164500000Y-32900000D01*
X168000000Y-28900000D02*
X165500000Y-28900000D01*
X159500000Y-30800000D02*
X159500000Y-31400000D01*
X165500000Y-28900000D02*
G75*
G02*
X164000000Y-27400000I0J1500000D01*
G01*
X164000000Y-31400000D02*
G75*
G02*
X164500000Y-31900000I0J-500000D01*
G01*
X177500000Y-30800000D02*
X177500000Y-31400000D01*
X186000000Y-28900000D02*
X183500000Y-28900000D01*
X183000000Y-33400000D02*
X182500000Y-32900000D01*
X182500000Y-31900000D02*
X182500000Y-32900000D01*
X177500000Y-31400000D02*
X182000000Y-31400000D01*
X186500000Y-29400000D02*
X186000000Y-28900000D01*
X186500000Y-32900000D02*
X186000000Y-33400000D01*
X186000000Y-33400000D02*
X183000000Y-33400000D01*
X182000000Y-27400000D02*
X182000000Y-26700000D01*
X182000000Y-26700000D02*
X177500000Y-26700000D01*
X177500000Y-26700000D02*
X177500000Y-27200000D01*
X182000000Y-31400000D02*
G75*
G02*
X182500000Y-31900000I0J-500000D01*
G01*
X183500000Y-28900000D02*
G75*
G02*
X182000000Y-27400000I0J1500000D01*
G01*
X195500000Y-26700000D02*
X195500000Y-27200000D01*
X200000000Y-26700000D02*
X195500000Y-26700000D01*
X200000000Y-27400000D02*
X200000000Y-26700000D01*
X204000000Y-33400000D02*
X201000000Y-33400000D01*
X204500000Y-32900000D02*
X204000000Y-33400000D01*
X204500000Y-29400000D02*
X204000000Y-28900000D01*
X195500000Y-31400000D02*
X200000000Y-31400000D01*
X200500000Y-31900000D02*
X200500000Y-32900000D01*
X201000000Y-33400000D02*
X200500000Y-32900000D01*
X204000000Y-28900000D02*
X201500000Y-28900000D01*
X195500000Y-30800000D02*
X195500000Y-31400000D01*
X201500000Y-28900000D02*
G75*
G02*
X200000000Y-27400000I0J1500000D01*
G01*
X200000000Y-31400000D02*
G75*
G02*
X200500000Y-31900000I0J-500000D01*
G01*
X213500000Y-30800000D02*
X213500000Y-31400000D01*
X222000000Y-28900000D02*
X219500000Y-28900000D01*
X219000000Y-33400000D02*
X218500000Y-32900000D01*
X218500000Y-31900000D02*
X218500000Y-32900000D01*
X213500000Y-31400000D02*
X218000000Y-31400000D01*
X222500000Y-29400000D02*
X222000000Y-28900000D01*
X222500000Y-32900000D02*
X222000000Y-33400000D01*
X222000000Y-33400000D02*
X219000000Y-33400000D01*
X218000000Y-27400000D02*
X218000000Y-26700000D01*
X218000000Y-26700000D02*
X213500000Y-26700000D01*
X213500000Y-26700000D02*
X213500000Y-27200000D01*
X218000000Y-31400000D02*
G75*
G02*
X218500000Y-31900000I0J-500000D01*
G01*
X219500000Y-28900000D02*
G75*
G02*
X218000000Y-27400000I0J1500000D01*
G01*
X231500000Y-26700000D02*
X231500000Y-27200000D01*
X236000000Y-26700000D02*
X231500000Y-26700000D01*
X236000000Y-27400000D02*
X236000000Y-26700000D01*
X240000000Y-33400000D02*
X237000000Y-33400000D01*
X240500000Y-32900000D02*
X240000000Y-33400000D01*
X240500000Y-29400000D02*
X240000000Y-28900000D01*
X231500000Y-31400000D02*
X236000000Y-31400000D01*
X236500000Y-31900000D02*
X236500000Y-32900000D01*
X237000000Y-33400000D02*
X236500000Y-32900000D01*
X240000000Y-28900000D02*
X237500000Y-28900000D01*
X231500000Y-30800000D02*
X231500000Y-31400000D01*
X237500000Y-28900000D02*
G75*
G02*
X236000000Y-27400000I0J1500000D01*
G01*
X236000000Y-31400000D02*
G75*
G02*
X236500000Y-31900000I0J-500000D01*
G01*
X254000000Y-30800000D02*
X254000000Y-31400000D01*
X262500000Y-28900000D02*
X260000000Y-28900000D01*
X259500000Y-33400000D02*
X259000000Y-32900000D01*
X259000000Y-31900000D02*
X259000000Y-32900000D01*
X254000000Y-31400000D02*
X258500000Y-31400000D01*
X263000000Y-29400000D02*
X262500000Y-28900000D01*
X263000000Y-32900000D02*
X262500000Y-33400000D01*
X262500000Y-33400000D02*
X259500000Y-33400000D01*
X258500000Y-27400000D02*
X258500000Y-26700000D01*
X258500000Y-26700000D02*
X254000000Y-26700000D01*
X254000000Y-26700000D02*
X254000000Y-27200000D01*
X258500000Y-31400000D02*
G75*
G02*
X259000000Y-31900000I0J-500000D01*
G01*
X260000000Y-28900000D02*
G75*
G02*
X258500000Y-27400000I0J1500000D01*
G01*
X272000000Y-30800000D02*
X272000000Y-31400000D01*
X280500000Y-28900000D02*
X278000000Y-28900000D01*
X277500000Y-33400000D02*
X277000000Y-32900000D01*
X277000000Y-31900000D02*
X277000000Y-32900000D01*
X272000000Y-31400000D02*
X276500000Y-31400000D01*
X281000000Y-29400000D02*
X280500000Y-28900000D01*
X281000000Y-32900000D02*
X280500000Y-33400000D01*
X280500000Y-33400000D02*
X277500000Y-33400000D01*
X276500000Y-27400000D02*
X276500000Y-26700000D01*
X276500000Y-26700000D02*
X272000000Y-26700000D01*
X272000000Y-26700000D02*
X272000000Y-27200000D01*
X276500000Y-31400000D02*
G75*
G02*
X277000000Y-31900000I0J-500000D01*
G01*
X278000000Y-28900000D02*
G75*
G02*
X276500000Y-27400000I0J1500000D01*
G01*
X-7000000Y-43700000D02*
X-7000000Y-44200000D01*
X-2500000Y-43700000D02*
X-7000000Y-43700000D01*
X-2500000Y-44400000D02*
X-2500000Y-43700000D01*
X1500000Y-50400000D02*
X-1500000Y-50400000D01*
X2000000Y-49900000D02*
X1500000Y-50400000D01*
X2000000Y-46400000D02*
X1500000Y-45900000D01*
X-7000000Y-48400000D02*
X-2500000Y-48400000D01*
X-2000000Y-48900000D02*
X-2000000Y-49900000D01*
X-1500000Y-50400000D02*
X-2000000Y-49900000D01*
X1500000Y-45900000D02*
X-1000000Y-45900000D01*
X-7000000Y-47800000D02*
X-7000000Y-48400000D01*
X-1000000Y-45900000D02*
G75*
G02*
X-2500000Y-44400000I0J1500000D01*
G01*
X-2500000Y-48400000D02*
G75*
G02*
X-2000000Y-48900000I0J-500000D01*
G01*
X15500000Y-47800000D02*
X15500000Y-48400000D01*
X24000000Y-45900000D02*
X21500000Y-45900000D01*
X21000000Y-50400000D02*
X20500000Y-49900000D01*
X20500000Y-48900000D02*
X20500000Y-49900000D01*
X15500000Y-48400000D02*
X20000000Y-48400000D01*
X24500000Y-46400000D02*
X24000000Y-45900000D01*
X24500000Y-49900000D02*
X24000000Y-50400000D01*
X24000000Y-50400000D02*
X21000000Y-50400000D01*
X20000000Y-44400000D02*
X20000000Y-43700000D01*
X20000000Y-43700000D02*
X15500000Y-43700000D01*
X15500000Y-43700000D02*
X15500000Y-44200000D01*
X20000000Y-48400000D02*
G75*
G02*
X20500000Y-48900000I0J-500000D01*
G01*
X21500000Y-45900000D02*
G75*
G02*
X20000000Y-44400000I0J1500000D01*
G01*
X33500000Y-47800000D02*
X33500000Y-48400000D01*
X42000000Y-45900000D02*
X39500000Y-45900000D01*
X39000000Y-50400000D02*
X38500000Y-49900000D01*
X38500000Y-48900000D02*
X38500000Y-49900000D01*
X33500000Y-48400000D02*
X38000000Y-48400000D01*
X42500000Y-46400000D02*
X42000000Y-45900000D01*
X42500000Y-49900000D02*
X42000000Y-50400000D01*
X42000000Y-50400000D02*
X39000000Y-50400000D01*
X38000000Y-44400000D02*
X38000000Y-43700000D01*
X38000000Y-43700000D02*
X33500000Y-43700000D01*
X33500000Y-43700000D02*
X33500000Y-44200000D01*
X38000000Y-48400000D02*
G75*
G02*
X38500000Y-48900000I0J-500000D01*
G01*
X39500000Y-45900000D02*
G75*
G02*
X38000000Y-44400000I0J1500000D01*
G01*
X51500000Y-43700000D02*
X51500000Y-44200000D01*
X56000000Y-43700000D02*
X51500000Y-43700000D01*
X56000000Y-44400000D02*
X56000000Y-43700000D01*
X60000000Y-50400000D02*
X57000000Y-50400000D01*
X60500000Y-49900000D02*
X60000000Y-50400000D01*
X60500000Y-46400000D02*
X60000000Y-45900000D01*
X51500000Y-48400000D02*
X56000000Y-48400000D01*
X56500000Y-48900000D02*
X56500000Y-49900000D01*
X57000000Y-50400000D02*
X56500000Y-49900000D01*
X60000000Y-45900000D02*
X57500000Y-45900000D01*
X51500000Y-47800000D02*
X51500000Y-48400000D01*
X57500000Y-45900000D02*
G75*
G02*
X56000000Y-44400000I0J1500000D01*
G01*
X56000000Y-48400000D02*
G75*
G02*
X56500000Y-48900000I0J-500000D01*
G01*
X69500000Y-47800000D02*
X69500000Y-48400000D01*
X78000000Y-45900000D02*
X75500000Y-45900000D01*
X75000000Y-50400000D02*
X74500000Y-49900000D01*
X74500000Y-48900000D02*
X74500000Y-49900000D01*
X69500000Y-48400000D02*
X74000000Y-48400000D01*
X78500000Y-46400000D02*
X78000000Y-45900000D01*
X78500000Y-49900000D02*
X78000000Y-50400000D01*
X78000000Y-50400000D02*
X75000000Y-50400000D01*
X74000000Y-44400000D02*
X74000000Y-43700000D01*
X74000000Y-43700000D02*
X69500000Y-43700000D01*
X69500000Y-43700000D02*
X69500000Y-44200000D01*
X74000000Y-48400000D02*
G75*
G02*
X74500000Y-48900000I0J-500000D01*
G01*
X75500000Y-45900000D02*
G75*
G02*
X74000000Y-44400000I0J1500000D01*
G01*
X87500000Y-47800000D02*
X87500000Y-48400000D01*
X96000000Y-45900000D02*
X93500000Y-45900000D01*
X93000000Y-50400000D02*
X92500000Y-49900000D01*
X92500000Y-48900000D02*
X92500000Y-49900000D01*
X87500000Y-48400000D02*
X92000000Y-48400000D01*
X96500000Y-46400000D02*
X96000000Y-45900000D01*
X96500000Y-49900000D02*
X96000000Y-50400000D01*
X96000000Y-50400000D02*
X93000000Y-50400000D01*
X92000000Y-44400000D02*
X92000000Y-43700000D01*
X92000000Y-43700000D02*
X87500000Y-43700000D01*
X87500000Y-43700000D02*
X87500000Y-44200000D01*
X92000000Y-48400000D02*
G75*
G02*
X92500000Y-48900000I0J-500000D01*
G01*
X93500000Y-45900000D02*
G75*
G02*
X92000000Y-44400000I0J1500000D01*
G01*
X105500000Y-43700000D02*
X105500000Y-44200000D01*
X110000000Y-43700000D02*
X105500000Y-43700000D01*
X110000000Y-44400000D02*
X110000000Y-43700000D01*
X114000000Y-50400000D02*
X111000000Y-50400000D01*
X114500000Y-49900000D02*
X114000000Y-50400000D01*
X114500000Y-46400000D02*
X114000000Y-45900000D01*
X105500000Y-48400000D02*
X110000000Y-48400000D01*
X110500000Y-48900000D02*
X110500000Y-49900000D01*
X111000000Y-50400000D02*
X110500000Y-49900000D01*
X114000000Y-45900000D02*
X111500000Y-45900000D01*
X105500000Y-47800000D02*
X105500000Y-48400000D01*
X111500000Y-45900000D02*
G75*
G02*
X110000000Y-44400000I0J1500000D01*
G01*
X110000000Y-48400000D02*
G75*
G02*
X110500000Y-48900000I0J-500000D01*
G01*
X123500000Y-47800000D02*
X123500000Y-48400000D01*
X132000000Y-45900000D02*
X129500000Y-45900000D01*
X129000000Y-50400000D02*
X128500000Y-49900000D01*
X128500000Y-48900000D02*
X128500000Y-49900000D01*
X123500000Y-48400000D02*
X128000000Y-48400000D01*
X132500000Y-46400000D02*
X132000000Y-45900000D01*
X132500000Y-49900000D02*
X132000000Y-50400000D01*
X132000000Y-50400000D02*
X129000000Y-50400000D01*
X128000000Y-44400000D02*
X128000000Y-43700000D01*
X128000000Y-43700000D02*
X123500000Y-43700000D01*
X123500000Y-43700000D02*
X123500000Y-44200000D01*
X128000000Y-48400000D02*
G75*
G02*
X128500000Y-48900000I0J-500000D01*
G01*
X129500000Y-45900000D02*
G75*
G02*
X128000000Y-44400000I0J1500000D01*
G01*
X141500000Y-43700000D02*
X141500000Y-44200000D01*
X146000000Y-43700000D02*
X141500000Y-43700000D01*
X146000000Y-44400000D02*
X146000000Y-43700000D01*
X150000000Y-50400000D02*
X147000000Y-50400000D01*
X150500000Y-49900000D02*
X150000000Y-50400000D01*
X150500000Y-46400000D02*
X150000000Y-45900000D01*
X141500000Y-48400000D02*
X146000000Y-48400000D01*
X146500000Y-48900000D02*
X146500000Y-49900000D01*
X147000000Y-50400000D02*
X146500000Y-49900000D01*
X150000000Y-45900000D02*
X147500000Y-45900000D01*
X141500000Y-47800000D02*
X141500000Y-48400000D01*
X147500000Y-45900000D02*
G75*
G02*
X146000000Y-44400000I0J1500000D01*
G01*
X146000000Y-48400000D02*
G75*
G02*
X146500000Y-48900000I0J-500000D01*
G01*
X159500000Y-43700000D02*
X159500000Y-44200000D01*
X164000000Y-43700000D02*
X159500000Y-43700000D01*
X164000000Y-44400000D02*
X164000000Y-43700000D01*
X168000000Y-50400000D02*
X165000000Y-50400000D01*
X168500000Y-49900000D02*
X168000000Y-50400000D01*
X168500000Y-46400000D02*
X168000000Y-45900000D01*
X159500000Y-48400000D02*
X164000000Y-48400000D01*
X164500000Y-48900000D02*
X164500000Y-49900000D01*
X165000000Y-50400000D02*
X164500000Y-49900000D01*
X168000000Y-45900000D02*
X165500000Y-45900000D01*
X159500000Y-47800000D02*
X159500000Y-48400000D01*
X165500000Y-45900000D02*
G75*
G02*
X164000000Y-44400000I0J1500000D01*
G01*
X164000000Y-48400000D02*
G75*
G02*
X164500000Y-48900000I0J-500000D01*
G01*
X177500000Y-43700000D02*
X177500000Y-44200000D01*
X182000000Y-43700000D02*
X177500000Y-43700000D01*
X182000000Y-44400000D02*
X182000000Y-43700000D01*
X186000000Y-50400000D02*
X183000000Y-50400000D01*
X186500000Y-49900000D02*
X186000000Y-50400000D01*
X186500000Y-46400000D02*
X186000000Y-45900000D01*
X177500000Y-48400000D02*
X182000000Y-48400000D01*
X182500000Y-48900000D02*
X182500000Y-49900000D01*
X183000000Y-50400000D02*
X182500000Y-49900000D01*
X186000000Y-45900000D02*
X183500000Y-45900000D01*
X177500000Y-47800000D02*
X177500000Y-48400000D01*
X183500000Y-45900000D02*
G75*
G02*
X182000000Y-44400000I0J1500000D01*
G01*
X182000000Y-48400000D02*
G75*
G02*
X182500000Y-48900000I0J-500000D01*
G01*
X195500000Y-47800000D02*
X195500000Y-48400000D01*
X204000000Y-45900000D02*
X201500000Y-45900000D01*
X201000000Y-50400000D02*
X200500000Y-49900000D01*
X200500000Y-48900000D02*
X200500000Y-49900000D01*
X195500000Y-48400000D02*
X200000000Y-48400000D01*
X204500000Y-46400000D02*
X204000000Y-45900000D01*
X204500000Y-49900000D02*
X204000000Y-50400000D01*
X204000000Y-50400000D02*
X201000000Y-50400000D01*
X200000000Y-44400000D02*
X200000000Y-43700000D01*
X200000000Y-43700000D02*
X195500000Y-43700000D01*
X195500000Y-43700000D02*
X195500000Y-44200000D01*
X200000000Y-48400000D02*
G75*
G02*
X200500000Y-48900000I0J-500000D01*
G01*
X201500000Y-45900000D02*
G75*
G02*
X200000000Y-44400000I0J1500000D01*
G01*
X213500000Y-43700000D02*
X213500000Y-44200000D01*
X218000000Y-43700000D02*
X213500000Y-43700000D01*
X218000000Y-44400000D02*
X218000000Y-43700000D01*
X222000000Y-50400000D02*
X219000000Y-50400000D01*
X222500000Y-49900000D02*
X222000000Y-50400000D01*
X222500000Y-46400000D02*
X222000000Y-45900000D01*
X213500000Y-48400000D02*
X218000000Y-48400000D01*
X218500000Y-48900000D02*
X218500000Y-49900000D01*
X219000000Y-50400000D02*
X218500000Y-49900000D01*
X222000000Y-45900000D02*
X219500000Y-45900000D01*
X213500000Y-47800000D02*
X213500000Y-48400000D01*
X219500000Y-45900000D02*
G75*
G02*
X218000000Y-44400000I0J1500000D01*
G01*
X218000000Y-48400000D02*
G75*
G02*
X218500000Y-48900000I0J-500000D01*
G01*
X231500000Y-43700000D02*
X231500000Y-44200000D01*
X236000000Y-43700000D02*
X231500000Y-43700000D01*
X236000000Y-44400000D02*
X236000000Y-43700000D01*
X240000000Y-50400000D02*
X237000000Y-50400000D01*
X240500000Y-49900000D02*
X240000000Y-50400000D01*
X240500000Y-46400000D02*
X240000000Y-45900000D01*
X231500000Y-48400000D02*
X236000000Y-48400000D01*
X236500000Y-48900000D02*
X236500000Y-49900000D01*
X237000000Y-50400000D02*
X236500000Y-49900000D01*
X240000000Y-45900000D02*
X237500000Y-45900000D01*
X231500000Y-47800000D02*
X231500000Y-48400000D01*
X237500000Y-45900000D02*
G75*
G02*
X236000000Y-44400000I0J1500000D01*
G01*
X236000000Y-48400000D02*
G75*
G02*
X236500000Y-48900000I0J-500000D01*
G01*
X-7000000Y-64800000D02*
X-7000000Y-65400000D01*
X1500000Y-62900000D02*
X-1000000Y-62900000D01*
X-1500000Y-67400000D02*
X-2000000Y-66900000D01*
X-2000000Y-65900000D02*
X-2000000Y-66900000D01*
X-7000000Y-65400000D02*
X-2500000Y-65400000D01*
X2000000Y-63400000D02*
X1500000Y-62900000D01*
X2000000Y-66900000D02*
X1500000Y-67400000D01*
X1500000Y-67400000D02*
X-1500000Y-67400000D01*
X-2500000Y-61400000D02*
X-2500000Y-60700000D01*
X-2500000Y-60700000D02*
X-7000000Y-60700000D01*
X-7000000Y-60700000D02*
X-7000000Y-61200000D01*
X-2500000Y-65400000D02*
G75*
G02*
X-2000000Y-65900000I0J-500000D01*
G01*
X-1000000Y-62900000D02*
G75*
G02*
X-2500000Y-61400000I0J1500000D01*
G01*
X20000000Y-64800000D02*
X20000000Y-65400000D01*
X28500000Y-62900000D02*
X26000000Y-62900000D01*
X25500000Y-67400000D02*
X25000000Y-66900000D01*
X25000000Y-65900000D02*
X25000000Y-66900000D01*
X20000000Y-65400000D02*
X24500000Y-65400000D01*
X29000000Y-63400000D02*
X28500000Y-62900000D01*
X29000000Y-66900000D02*
X28500000Y-67400000D01*
X28500000Y-67400000D02*
X25500000Y-67400000D01*
X24500000Y-61400000D02*
X24500000Y-60700000D01*
X24500000Y-60700000D02*
X20000000Y-60700000D01*
X20000000Y-60700000D02*
X20000000Y-61200000D01*
X24500000Y-65400000D02*
G75*
G02*
X25000000Y-65900000I0J-500000D01*
G01*
X26000000Y-62900000D02*
G75*
G02*
X24500000Y-61400000I0J1500000D01*
G01*
X42500000Y-64800000D02*
X42500000Y-65400000D01*
X51000000Y-62900000D02*
X48500000Y-62900000D01*
X48000000Y-67400000D02*
X47500000Y-66900000D01*
X47500000Y-65900000D02*
X47500000Y-66900000D01*
X42500000Y-65400000D02*
X47000000Y-65400000D01*
X51500000Y-63400000D02*
X51000000Y-62900000D01*
X51500000Y-66900000D02*
X51000000Y-67400000D01*
X51000000Y-67400000D02*
X48000000Y-67400000D01*
X47000000Y-61400000D02*
X47000000Y-60700000D01*
X47000000Y-60700000D02*
X42500000Y-60700000D01*
X42500000Y-60700000D02*
X42500000Y-61200000D01*
X47000000Y-65400000D02*
G75*
G02*
X47500000Y-65900000I0J-500000D01*
G01*
X48500000Y-62900000D02*
G75*
G02*
X47000000Y-61400000I0J1500000D01*
G01*
X60500000Y-60700000D02*
X60500000Y-61200000D01*
X65000000Y-60700000D02*
X60500000Y-60700000D01*
X65000000Y-61400000D02*
X65000000Y-60700000D01*
X69000000Y-67400000D02*
X66000000Y-67400000D01*
X69500000Y-66900000D02*
X69000000Y-67400000D01*
X69500000Y-63400000D02*
X69000000Y-62900000D01*
X60500000Y-65400000D02*
X65000000Y-65400000D01*
X65500000Y-65900000D02*
X65500000Y-66900000D01*
X66000000Y-67400000D02*
X65500000Y-66900000D01*
X69000000Y-62900000D02*
X66500000Y-62900000D01*
X60500000Y-64800000D02*
X60500000Y-65400000D01*
X66500000Y-62900000D02*
G75*
G02*
X65000000Y-61400000I0J1500000D01*
G01*
X65000000Y-65400000D02*
G75*
G02*
X65500000Y-65900000I0J-500000D01*
G01*
X78500000Y-64800000D02*
X78500000Y-65400000D01*
X87000000Y-62900000D02*
X84500000Y-62900000D01*
X84000000Y-67400000D02*
X83500000Y-66900000D01*
X83500000Y-65900000D02*
X83500000Y-66900000D01*
X78500000Y-65400000D02*
X83000000Y-65400000D01*
X87500000Y-63400000D02*
X87000000Y-62900000D01*
X87500000Y-66900000D02*
X87000000Y-67400000D01*
X87000000Y-67400000D02*
X84000000Y-67400000D01*
X83000000Y-61400000D02*
X83000000Y-60700000D01*
X83000000Y-60700000D02*
X78500000Y-60700000D01*
X78500000Y-60700000D02*
X78500000Y-61200000D01*
X83000000Y-65400000D02*
G75*
G02*
X83500000Y-65900000I0J-500000D01*
G01*
X84500000Y-62900000D02*
G75*
G02*
X83000000Y-61400000I0J1500000D01*
G01*
X96500000Y-64800000D02*
X96500000Y-65400000D01*
X105000000Y-62900000D02*
X102500000Y-62900000D01*
X102000000Y-67400000D02*
X101500000Y-66900000D01*
X101500000Y-65900000D02*
X101500000Y-66900000D01*
X96500000Y-65400000D02*
X101000000Y-65400000D01*
X105500000Y-63400000D02*
X105000000Y-62900000D01*
X105500000Y-66900000D02*
X105000000Y-67400000D01*
X105000000Y-67400000D02*
X102000000Y-67400000D01*
X101000000Y-61400000D02*
X101000000Y-60700000D01*
X101000000Y-60700000D02*
X96500000Y-60700000D01*
X96500000Y-60700000D02*
X96500000Y-61200000D01*
X101000000Y-65400000D02*
G75*
G02*
X101500000Y-65900000I0J-500000D01*
G01*
X102500000Y-62900000D02*
G75*
G02*
X101000000Y-61400000I0J1500000D01*
G01*
X114500000Y-64800000D02*
X114500000Y-65400000D01*
X123000000Y-62900000D02*
X120500000Y-62900000D01*
X120000000Y-67400000D02*
X119500000Y-66900000D01*
X119500000Y-65900000D02*
X119500000Y-66900000D01*
X114500000Y-65400000D02*
X119000000Y-65400000D01*
X123500000Y-63400000D02*
X123000000Y-62900000D01*
X123500000Y-66900000D02*
X123000000Y-67400000D01*
X123000000Y-67400000D02*
X120000000Y-67400000D01*
X119000000Y-61400000D02*
X119000000Y-60700000D01*
X119000000Y-60700000D02*
X114500000Y-60700000D01*
X114500000Y-60700000D02*
X114500000Y-61200000D01*
X119000000Y-65400000D02*
G75*
G02*
X119500000Y-65900000I0J-500000D01*
G01*
X120500000Y-62900000D02*
G75*
G02*
X119000000Y-61400000I0J1500000D01*
G01*
X132500000Y-60700000D02*
X132500000Y-61200000D01*
X137000000Y-60700000D02*
X132500000Y-60700000D01*
X137000000Y-61400000D02*
X137000000Y-60700000D01*
X141000000Y-67400000D02*
X138000000Y-67400000D01*
X141500000Y-66900000D02*
X141000000Y-67400000D01*
X141500000Y-63400000D02*
X141000000Y-62900000D01*
X132500000Y-65400000D02*
X137000000Y-65400000D01*
X137500000Y-65900000D02*
X137500000Y-66900000D01*
X138000000Y-67400000D02*
X137500000Y-66900000D01*
X141000000Y-62900000D02*
X138500000Y-62900000D01*
X132500000Y-64800000D02*
X132500000Y-65400000D01*
X138500000Y-62900000D02*
G75*
G02*
X137000000Y-61400000I0J1500000D01*
G01*
X137000000Y-65400000D02*
G75*
G02*
X137500000Y-65900000I0J-500000D01*
G01*
X150500000Y-64800000D02*
X150500000Y-65400000D01*
X159000000Y-62900000D02*
X156500000Y-62900000D01*
X156000000Y-67400000D02*
X155500000Y-66900000D01*
X155500000Y-65900000D02*
X155500000Y-66900000D01*
X150500000Y-65400000D02*
X155000000Y-65400000D01*
X159500000Y-63400000D02*
X159000000Y-62900000D01*
X159500000Y-66900000D02*
X159000000Y-67400000D01*
X159000000Y-67400000D02*
X156000000Y-67400000D01*
X155000000Y-61400000D02*
X155000000Y-60700000D01*
X155000000Y-60700000D02*
X150500000Y-60700000D01*
X150500000Y-60700000D02*
X150500000Y-61200000D01*
X155000000Y-65400000D02*
G75*
G02*
X155500000Y-65900000I0J-500000D01*
G01*
X156500000Y-62900000D02*
G75*
G02*
X155000000Y-61400000I0J1500000D01*
G01*
X168500000Y-60700000D02*
X168500000Y-61200000D01*
X173000000Y-60700000D02*
X168500000Y-60700000D01*
X173000000Y-61400000D02*
X173000000Y-60700000D01*
X177000000Y-67400000D02*
X174000000Y-67400000D01*
X177500000Y-66900000D02*
X177000000Y-67400000D01*
X177500000Y-63400000D02*
X177000000Y-62900000D01*
X168500000Y-65400000D02*
X173000000Y-65400000D01*
X173500000Y-65900000D02*
X173500000Y-66900000D01*
X174000000Y-67400000D02*
X173500000Y-66900000D01*
X177000000Y-62900000D02*
X174500000Y-62900000D01*
X168500000Y-64800000D02*
X168500000Y-65400000D01*
X174500000Y-62900000D02*
G75*
G02*
X173000000Y-61400000I0J1500000D01*
G01*
X173000000Y-65400000D02*
G75*
G02*
X173500000Y-65900000I0J-500000D01*
G01*
X186500000Y-64800000D02*
X186500000Y-65400000D01*
X195000000Y-62900000D02*
X192500000Y-62900000D01*
X192000000Y-67400000D02*
X191500000Y-66900000D01*
X191500000Y-65900000D02*
X191500000Y-66900000D01*
X186500000Y-65400000D02*
X191000000Y-65400000D01*
X195500000Y-63400000D02*
X195000000Y-62900000D01*
X195500000Y-66900000D02*
X195000000Y-67400000D01*
X195000000Y-67400000D02*
X192000000Y-67400000D01*
X191000000Y-61400000D02*
X191000000Y-60700000D01*
X191000000Y-60700000D02*
X186500000Y-60700000D01*
X186500000Y-60700000D02*
X186500000Y-61200000D01*
X191000000Y-65400000D02*
G75*
G02*
X191500000Y-65900000I0J-500000D01*
G01*
X192500000Y-62900000D02*
G75*
G02*
X191000000Y-61400000I0J1500000D01*
G01*
X204500000Y-64800000D02*
X204500000Y-65400000D01*
X213000000Y-62900000D02*
X210500000Y-62900000D01*
X210000000Y-67400000D02*
X209500000Y-66900000D01*
X209500000Y-65900000D02*
X209500000Y-66900000D01*
X204500000Y-65400000D02*
X209000000Y-65400000D01*
X213500000Y-63400000D02*
X213000000Y-62900000D01*
X213500000Y-66900000D02*
X213000000Y-67400000D01*
X213000000Y-67400000D02*
X210000000Y-67400000D01*
X209000000Y-61400000D02*
X209000000Y-60700000D01*
X209000000Y-60700000D02*
X204500000Y-60700000D01*
X204500000Y-60700000D02*
X204500000Y-61200000D01*
X209000000Y-65400000D02*
G75*
G02*
X209500000Y-65900000I0J-500000D01*
G01*
X210500000Y-62900000D02*
G75*
G02*
X209000000Y-61400000I0J1500000D01*
G01*
X227000000Y-60700000D02*
X227000000Y-61200000D01*
X231500000Y-60700000D02*
X227000000Y-60700000D01*
X231500000Y-61400000D02*
X231500000Y-60700000D01*
X235500000Y-67400000D02*
X232500000Y-67400000D01*
X236000000Y-66900000D02*
X235500000Y-67400000D01*
X236000000Y-63400000D02*
X235500000Y-62900000D01*
X227000000Y-65400000D02*
X231500000Y-65400000D01*
X232000000Y-65900000D02*
X232000000Y-66900000D01*
X232500000Y-67400000D02*
X232000000Y-66900000D01*
X235500000Y-62900000D02*
X233000000Y-62900000D01*
X227000000Y-64800000D02*
X227000000Y-65400000D01*
X233000000Y-62900000D02*
G75*
G02*
X231500000Y-61400000I0J1500000D01*
G01*
X231500000Y-65400000D02*
G75*
G02*
X232000000Y-65900000I0J-500000D01*
G01*
X254000000Y-64800000D02*
X254000000Y-65400000D01*
X262500000Y-62900000D02*
X260000000Y-62900000D01*
X259500000Y-67400000D02*
X259000000Y-66900000D01*
X259000000Y-65900000D02*
X259000000Y-66900000D01*
X254000000Y-65400000D02*
X258500000Y-65400000D01*
X263000000Y-63400000D02*
X262500000Y-62900000D01*
X263000000Y-66900000D02*
X262500000Y-67400000D01*
X262500000Y-67400000D02*
X259500000Y-67400000D01*
X258500000Y-61400000D02*
X258500000Y-60700000D01*
X258500000Y-60700000D02*
X254000000Y-60700000D01*
X254000000Y-60700000D02*
X254000000Y-61200000D01*
X258500000Y-65400000D02*
G75*
G02*
X259000000Y-65900000I0J-500000D01*
G01*
X260000000Y-62900000D02*
G75*
G02*
X258500000Y-61400000I0J1500000D01*
G01*
X-7000000Y-81800000D02*
X-7000000Y-82400000D01*
X1500000Y-79900000D02*
X-1000000Y-79900000D01*
X-1500000Y-84400000D02*
X-2000000Y-83900000D01*
X-2000000Y-82900000D02*
X-2000000Y-83900000D01*
X-7000000Y-82400000D02*
X-2500000Y-82400000D01*
X2000000Y-80400000D02*
X1500000Y-79900000D01*
X2000000Y-83900000D02*
X1500000Y-84400000D01*
X1500000Y-84400000D02*
X-1500000Y-84400000D01*
X-2500000Y-78400000D02*
X-2500000Y-77700000D01*
X-2500000Y-77700000D02*
X-7000000Y-77700000D01*
X-7000000Y-77700000D02*
X-7000000Y-78200000D01*
X-2500000Y-82400000D02*
G75*
G02*
X-2000000Y-82900000I0J-500000D01*
G01*
X-1000000Y-79900000D02*
G75*
G02*
X-2500000Y-78400000I0J1500000D01*
G01*
X15500000Y-77700000D02*
X15500000Y-78200000D01*
X20000000Y-77700000D02*
X15500000Y-77700000D01*
X20000000Y-78400000D02*
X20000000Y-77700000D01*
X24000000Y-84400000D02*
X21000000Y-84400000D01*
X24500000Y-83900000D02*
X24000000Y-84400000D01*
X24500000Y-80400000D02*
X24000000Y-79900000D01*
X15500000Y-82400000D02*
X20000000Y-82400000D01*
X20500000Y-82900000D02*
X20500000Y-83900000D01*
X21000000Y-84400000D02*
X20500000Y-83900000D01*
X24000000Y-79900000D02*
X21500000Y-79900000D01*
X15500000Y-81800000D02*
X15500000Y-82400000D01*
X21500000Y-79900000D02*
G75*
G02*
X20000000Y-78400000I0J1500000D01*
G01*
X20000000Y-82400000D02*
G75*
G02*
X20500000Y-82900000I0J-500000D01*
G01*
X33500000Y-77700000D02*
X33500000Y-78200000D01*
X38000000Y-77700000D02*
X33500000Y-77700000D01*
X38000000Y-78400000D02*
X38000000Y-77700000D01*
X42000000Y-84400000D02*
X39000000Y-84400000D01*
X42500000Y-83900000D02*
X42000000Y-84400000D01*
X42500000Y-80400000D02*
X42000000Y-79900000D01*
X33500000Y-82400000D02*
X38000000Y-82400000D01*
X38500000Y-82900000D02*
X38500000Y-83900000D01*
X39000000Y-84400000D02*
X38500000Y-83900000D01*
X42000000Y-79900000D02*
X39500000Y-79900000D01*
X33500000Y-81800000D02*
X33500000Y-82400000D01*
X39500000Y-79900000D02*
G75*
G02*
X38000000Y-78400000I0J1500000D01*
G01*
X38000000Y-82400000D02*
G75*
G02*
X38500000Y-82900000I0J-500000D01*
G01*
X51500000Y-77700000D02*
X51500000Y-78200000D01*
X56000000Y-77700000D02*
X51500000Y-77700000D01*
X56000000Y-78400000D02*
X56000000Y-77700000D01*
X60000000Y-84400000D02*
X57000000Y-84400000D01*
X60500000Y-83900000D02*
X60000000Y-84400000D01*
X60500000Y-80400000D02*
X60000000Y-79900000D01*
X51500000Y-82400000D02*
X56000000Y-82400000D01*
X56500000Y-82900000D02*
X56500000Y-83900000D01*
X57000000Y-84400000D02*
X56500000Y-83900000D01*
X60000000Y-79900000D02*
X57500000Y-79900000D01*
X51500000Y-81800000D02*
X51500000Y-82400000D01*
X57500000Y-79900000D02*
G75*
G02*
X56000000Y-78400000I0J1500000D01*
G01*
X56000000Y-82400000D02*
G75*
G02*
X56500000Y-82900000I0J-500000D01*
G01*
X69500000Y-77700000D02*
X69500000Y-78200000D01*
X74000000Y-77700000D02*
X69500000Y-77700000D01*
X74000000Y-78400000D02*
X74000000Y-77700000D01*
X78000000Y-84400000D02*
X75000000Y-84400000D01*
X78500000Y-83900000D02*
X78000000Y-84400000D01*
X78500000Y-80400000D02*
X78000000Y-79900000D01*
X69500000Y-82400000D02*
X74000000Y-82400000D01*
X74500000Y-82900000D02*
X74500000Y-83900000D01*
X75000000Y-84400000D02*
X74500000Y-83900000D01*
X78000000Y-79900000D02*
X75500000Y-79900000D01*
X69500000Y-81800000D02*
X69500000Y-82400000D01*
X75500000Y-79900000D02*
G75*
G02*
X74000000Y-78400000I0J1500000D01*
G01*
X74000000Y-82400000D02*
G75*
G02*
X74500000Y-82900000I0J-500000D01*
G01*
X98000000Y-81800000D02*
X98000000Y-82400000D01*
X106500000Y-79900000D02*
X104000000Y-79900000D01*
X103500000Y-84400000D02*
X103000000Y-83900000D01*
X103000000Y-82900000D02*
X103000000Y-83900000D01*
X98000000Y-82400000D02*
X102500000Y-82400000D01*
X107000000Y-80400000D02*
X106500000Y-79900000D01*
X107000000Y-83900000D02*
X106500000Y-84400000D01*
X106500000Y-84400000D02*
X103500000Y-84400000D01*
X102500000Y-78400000D02*
X102500000Y-77700000D01*
X102500000Y-77700000D02*
X98000000Y-77700000D01*
X98000000Y-77700000D02*
X98000000Y-78200000D01*
X102500000Y-82400000D02*
G75*
G02*
X103000000Y-82900000I0J-500000D01*
G01*
X104000000Y-79900000D02*
G75*
G02*
X102500000Y-78400000I0J1500000D01*
G01*
X131000000Y-77700000D02*
X131000000Y-78200000D01*
X135500000Y-77700000D02*
X131000000Y-77700000D01*
X135500000Y-78400000D02*
X135500000Y-77700000D01*
X139500000Y-84400000D02*
X136500000Y-84400000D01*
X140000000Y-83900000D02*
X139500000Y-84400000D01*
X140000000Y-80400000D02*
X139500000Y-79900000D01*
X131000000Y-82400000D02*
X135500000Y-82400000D01*
X136000000Y-82900000D02*
X136000000Y-83900000D01*
X136500000Y-84400000D02*
X136000000Y-83900000D01*
X139500000Y-79900000D02*
X137000000Y-79900000D01*
X131000000Y-81800000D02*
X131000000Y-82400000D01*
X137000000Y-79900000D02*
G75*
G02*
X135500000Y-78400000I0J1500000D01*
G01*
X135500000Y-82400000D02*
G75*
G02*
X136000000Y-82900000I0J-500000D01*
G01*
X159500000Y-77700000D02*
X159500000Y-78200000D01*
X164000000Y-77700000D02*
X159500000Y-77700000D01*
X164000000Y-78400000D02*
X164000000Y-77700000D01*
X168000000Y-84400000D02*
X165000000Y-84400000D01*
X168500000Y-83900000D02*
X168000000Y-84400000D01*
X168500000Y-80400000D02*
X168000000Y-79900000D01*
X159500000Y-82400000D02*
X164000000Y-82400000D01*
X164500000Y-82900000D02*
X164500000Y-83900000D01*
X165000000Y-84400000D02*
X164500000Y-83900000D01*
X168000000Y-79900000D02*
X165500000Y-79900000D01*
X159500000Y-81800000D02*
X159500000Y-82400000D01*
X165500000Y-79900000D02*
G75*
G02*
X164000000Y-78400000I0J1500000D01*
G01*
X164000000Y-82400000D02*
G75*
G02*
X164500000Y-82900000I0J-500000D01*
G01*
X177500000Y-77700000D02*
X177500000Y-78200000D01*
X182000000Y-77700000D02*
X177500000Y-77700000D01*
X182000000Y-78400000D02*
X182000000Y-77700000D01*
X186000000Y-84400000D02*
X183000000Y-84400000D01*
X186500000Y-83900000D02*
X186000000Y-84400000D01*
X186500000Y-80400000D02*
X186000000Y-79900000D01*
X177500000Y-82400000D02*
X182000000Y-82400000D01*
X182500000Y-82900000D02*
X182500000Y-83900000D01*
X183000000Y-84400000D02*
X182500000Y-83900000D01*
X186000000Y-79900000D02*
X183500000Y-79900000D01*
X177500000Y-81800000D02*
X177500000Y-82400000D01*
X183500000Y-79900000D02*
G75*
G02*
X182000000Y-78400000I0J1500000D01*
G01*
X182000000Y-82400000D02*
G75*
G02*
X182500000Y-82900000I0J-500000D01*
G01*
X195500000Y-81800000D02*
X195500000Y-82400000D01*
X204000000Y-79900000D02*
X201500000Y-79900000D01*
X201000000Y-84400000D02*
X200500000Y-83900000D01*
X200500000Y-82900000D02*
X200500000Y-83900000D01*
X195500000Y-82400000D02*
X200000000Y-82400000D01*
X204500000Y-80400000D02*
X204000000Y-79900000D01*
X204500000Y-83900000D02*
X204000000Y-84400000D01*
X204000000Y-84400000D02*
X201000000Y-84400000D01*
X200000000Y-78400000D02*
X200000000Y-77700000D01*
X200000000Y-77700000D02*
X195500000Y-77700000D01*
X195500000Y-77700000D02*
X195500000Y-78200000D01*
X200000000Y-82400000D02*
G75*
G02*
X200500000Y-82900000I0J-500000D01*
G01*
X201500000Y-79900000D02*
G75*
G02*
X200000000Y-78400000I0J1500000D01*
G01*
X213500000Y-77700000D02*
X213500000Y-78200000D01*
X218000000Y-77700000D02*
X213500000Y-77700000D01*
X218000000Y-78400000D02*
X218000000Y-77700000D01*
X222000000Y-84400000D02*
X219000000Y-84400000D01*
X222500000Y-83900000D02*
X222000000Y-84400000D01*
X222500000Y-80400000D02*
X222000000Y-79900000D01*
X213500000Y-82400000D02*
X218000000Y-82400000D01*
X218500000Y-82900000D02*
X218500000Y-83900000D01*
X219000000Y-84400000D02*
X218500000Y-83900000D01*
X222000000Y-79900000D02*
X219500000Y-79900000D01*
X213500000Y-81800000D02*
X213500000Y-82400000D01*
X219500000Y-79900000D02*
G75*
G02*
X218000000Y-78400000I0J1500000D01*
G01*
X218000000Y-82400000D02*
G75*
G02*
X218500000Y-82900000I0J-500000D01*
G01*
X236000000Y-77700000D02*
X236000000Y-78200000D01*
X240500000Y-77700000D02*
X236000000Y-77700000D01*
X240500000Y-78400000D02*
X240500000Y-77700000D01*
X244500000Y-84400000D02*
X241500000Y-84400000D01*
X245000000Y-83900000D02*
X244500000Y-84400000D01*
X245000000Y-80400000D02*
X244500000Y-79900000D01*
X236000000Y-82400000D02*
X240500000Y-82400000D01*
X241000000Y-82900000D02*
X241000000Y-83900000D01*
X241500000Y-84400000D02*
X241000000Y-83900000D01*
X244500000Y-79900000D02*
X242000000Y-79900000D01*
X236000000Y-81800000D02*
X236000000Y-82400000D01*
X242000000Y-79900000D02*
G75*
G02*
X240500000Y-78400000I0J1500000D01*
G01*
X240500000Y-82400000D02*
G75*
G02*
X241000000Y-82900000I0J-500000D01*
G01*
X254000000Y-77700000D02*
X254000000Y-78200000D01*
X258500000Y-77700000D02*
X254000000Y-77700000D01*
X258500000Y-78400000D02*
X258500000Y-77700000D01*
X262500000Y-84400000D02*
X259500000Y-84400000D01*
X263000000Y-83900000D02*
X262500000Y-84400000D01*
X263000000Y-80400000D02*
X262500000Y-79900000D01*
X254000000Y-82400000D02*
X258500000Y-82400000D01*
X259000000Y-82900000D02*
X259000000Y-83900000D01*
X259500000Y-84400000D02*
X259000000Y-83900000D01*
X262500000Y-79900000D02*
X260000000Y-79900000D01*
X254000000Y-81800000D02*
X254000000Y-82400000D01*
X260000000Y-79900000D02*
G75*
G02*
X258500000Y-78400000I0J1500000D01*
G01*
X258500000Y-82400000D02*
G75*
G02*
X259000000Y-82900000I0J-500000D01*
G01*
X272000000Y-81800000D02*
X272000000Y-82400000D01*
X280500000Y-79900000D02*
X278000000Y-79900000D01*
X277500000Y-84400000D02*
X277000000Y-83900000D01*
X277000000Y-82900000D02*
X277000000Y-83900000D01*
X272000000Y-82400000D02*
X276500000Y-82400000D01*
X281000000Y-80400000D02*
X280500000Y-79900000D01*
X281000000Y-83900000D02*
X280500000Y-84400000D01*
X280500000Y-84400000D02*
X277500000Y-84400000D01*
X276500000Y-78400000D02*
X276500000Y-77700000D01*
X276500000Y-77700000D02*
X272000000Y-77700000D01*
X272000000Y-77700000D02*
X272000000Y-78200000D01*
X276500000Y-82400000D02*
G75*
G02*
X277000000Y-82900000I0J-500000D01*
G01*
X278000000Y-79900000D02*
G75*
G02*
X276500000Y-78400000I0J1500000D01*
G01*
X237727380Y-3233333D02*
X237251190Y-2900000D01*
X237727380Y-2661904D02*
X236727380Y-2661904D01*
X236727380Y-3042857D01*
X236775000Y-3138095D01*
X236822619Y-3185714D01*
X236917857Y-3233333D01*
X237060714Y-3233333D01*
X237155952Y-3185714D01*
X237203571Y-3138095D01*
X237251190Y-3042857D01*
X237251190Y-2661904D01*
X236727380Y-3566666D02*
X236727380Y-4185714D01*
X237108333Y-3852380D01*
X237108333Y-3995238D01*
X237155952Y-4090476D01*
X237203571Y-4138095D01*
X237298809Y-4185714D01*
X237536904Y-4185714D01*
X237632142Y-4138095D01*
X237679761Y-4090476D01*
X237727380Y-3995238D01*
X237727380Y-3709523D01*
X237679761Y-3614285D01*
X237632142Y-3566666D01*
X261716666Y-46827380D02*
X262050000Y-46351190D01*
X262288095Y-46827380D02*
X262288095Y-45827380D01*
X261907142Y-45827380D01*
X261811904Y-45875000D01*
X261764285Y-45922619D01*
X261716666Y-46017857D01*
X261716666Y-46160714D01*
X261764285Y-46255952D01*
X261811904Y-46303571D01*
X261907142Y-46351190D01*
X262288095Y-46351190D01*
X260811904Y-45827380D02*
X261288095Y-45827380D01*
X261335714Y-46303571D01*
X261288095Y-46255952D01*
X261192857Y-46208333D01*
X260954761Y-46208333D01*
X260859523Y-46255952D01*
X260811904Y-46303571D01*
X260764285Y-46398809D01*
X260764285Y-46636904D01*
X260811904Y-46732142D01*
X260859523Y-46779761D01*
X260954761Y-46827380D01*
X261192857Y-46827380D01*
X261288095Y-46779761D01*
X261335714Y-46732142D01*
X259044380Y-56127380D02*
X259377714Y-55651190D01*
X259615809Y-56127380D02*
X259615809Y-55127380D01*
X259234857Y-55127380D01*
X259139619Y-55175000D01*
X259092000Y-55222619D01*
X259044380Y-55317857D01*
X259044380Y-55460714D01*
X259092000Y-55555952D01*
X259139619Y-55603571D01*
X259234857Y-55651190D01*
X259615809Y-55651190D01*
X258615809Y-55603571D02*
X258282476Y-55603571D01*
X258139619Y-56127380D02*
X258615809Y-56127380D01*
X258615809Y-55127380D01*
X258139619Y-55127380D01*
X257758666Y-56079761D02*
X257615809Y-56127380D01*
X257377714Y-56127380D01*
X257282476Y-56079761D01*
X257234857Y-56032142D01*
X257187238Y-55936904D01*
X257187238Y-55841666D01*
X257234857Y-55746428D01*
X257282476Y-55698809D01*
X257377714Y-55651190D01*
X257568190Y-55603571D01*
X257663428Y-55555952D01*
X257711047Y-55508333D01*
X257758666Y-55413095D01*
X257758666Y-55317857D01*
X257711047Y-55222619D01*
X257663428Y-55175000D01*
X257568190Y-55127380D01*
X257330095Y-55127380D01*
X257187238Y-55175000D01*
X256758666Y-55603571D02*
X256425333Y-55603571D01*
X256282476Y-56127380D02*
X256758666Y-56127380D01*
X256758666Y-55127380D01*
X256282476Y-55127380D01*
X255996761Y-55127380D02*
X255425333Y-55127380D01*
X255711047Y-56127380D02*
X255711047Y-55127380D01*
X261916666Y-43757142D02*
X261964285Y-43804761D01*
X262107142Y-43852380D01*
X262202380Y-43852380D01*
X262345238Y-43804761D01*
X262440476Y-43709523D01*
X262488095Y-43614285D01*
X262535714Y-43423809D01*
X262535714Y-43280952D01*
X262488095Y-43090476D01*
X262440476Y-42995238D01*
X262345238Y-42900000D01*
X262202380Y-42852380D01*
X262107142Y-42852380D01*
X261964285Y-42900000D01*
X261916666Y-42947619D01*
X261011904Y-42852380D02*
X261488095Y-42852380D01*
X261535714Y-43328571D01*
X261488095Y-43280952D01*
X261392857Y-43233333D01*
X261154761Y-43233333D01*
X261059523Y-43280952D01*
X261011904Y-43328571D01*
X260964285Y-43423809D01*
X260964285Y-43661904D01*
X261011904Y-43757142D01*
X261059523Y-43804761D01*
X261154761Y-43852380D01*
X261392857Y-43852380D01*
X261488095Y-43804761D01*
X261535714Y-43757142D01*
X269323875Y-38517694D02*
X269323875Y-38585037D01*
X269391219Y-38719724D01*
X269458563Y-38787068D01*
X269593250Y-38854411D01*
X269727937Y-38854411D01*
X269828952Y-38820740D01*
X269997311Y-38719724D01*
X270098326Y-38618709D01*
X270199341Y-38450350D01*
X270233013Y-38349335D01*
X270233013Y-38214648D01*
X270165669Y-38079961D01*
X270098326Y-38012617D01*
X269963639Y-37945274D01*
X269896295Y-37945274D01*
X269727937Y-37642228D02*
X269256532Y-37170824D01*
X268852471Y-38180976D01*
X287657142Y-52108333D02*
X287704761Y-52060714D01*
X287752380Y-51917857D01*
X287752380Y-51822619D01*
X287704761Y-51679761D01*
X287609523Y-51584523D01*
X287514285Y-51536904D01*
X287323809Y-51489285D01*
X287180952Y-51489285D01*
X286990476Y-51536904D01*
X286895238Y-51584523D01*
X286800000Y-51679761D01*
X286752380Y-51822619D01*
X286752380Y-51917857D01*
X286800000Y-52060714D01*
X286847619Y-52108333D01*
X287752380Y-53060714D02*
X287752380Y-52489285D01*
X287752380Y-52775000D02*
X286752380Y-52775000D01*
X286895238Y-52679761D01*
X286990476Y-52584523D01*
X287038095Y-52489285D01*
X283307142Y-58883333D02*
X283354761Y-58835714D01*
X283402380Y-58692857D01*
X283402380Y-58597619D01*
X283354761Y-58454761D01*
X283259523Y-58359523D01*
X283164285Y-58311904D01*
X282973809Y-58264285D01*
X282830952Y-58264285D01*
X282640476Y-58311904D01*
X282545238Y-58359523D01*
X282450000Y-58454761D01*
X282402380Y-58597619D01*
X282402380Y-58692857D01*
X282450000Y-58835714D01*
X282497619Y-58883333D01*
X282497619Y-59264285D02*
X282450000Y-59311904D01*
X282402380Y-59407142D01*
X282402380Y-59645238D01*
X282450000Y-59740476D01*
X282497619Y-59788095D01*
X282592857Y-59835714D01*
X282688095Y-59835714D01*
X282830952Y-59788095D01*
X283402380Y-59216666D01*
X283402380Y-59835714D01*
X287682142Y-48033333D02*
X287729761Y-47985714D01*
X287777380Y-47842857D01*
X287777380Y-47747619D01*
X287729761Y-47604761D01*
X287634523Y-47509523D01*
X287539285Y-47461904D01*
X287348809Y-47414285D01*
X287205952Y-47414285D01*
X287015476Y-47461904D01*
X286920238Y-47509523D01*
X286825000Y-47604761D01*
X286777380Y-47747619D01*
X286777380Y-47842857D01*
X286825000Y-47985714D01*
X286872619Y-48033333D01*
X286777380Y-48366666D02*
X286777380Y-48985714D01*
X287158333Y-48652380D01*
X287158333Y-48795238D01*
X287205952Y-48890476D01*
X287253571Y-48938095D01*
X287348809Y-48985714D01*
X287586904Y-48985714D01*
X287682142Y-48938095D01*
X287729761Y-48890476D01*
X287777380Y-48795238D01*
X287777380Y-48509523D01*
X287729761Y-48414285D01*
X287682142Y-48366666D01*
X271559230Y-56015760D02*
X271559230Y-56083103D01*
X271626574Y-56217790D01*
X271693918Y-56285134D01*
X271828605Y-56352477D01*
X271963292Y-56352477D01*
X272064307Y-56318806D01*
X272232666Y-56217790D01*
X272333681Y-56116775D01*
X272434696Y-55948416D01*
X272468368Y-55847401D01*
X272468368Y-55712714D01*
X272401024Y-55578027D01*
X272333681Y-55510683D01*
X272198994Y-55443340D01*
X272131650Y-55443340D01*
X271357200Y-55005607D02*
X270885795Y-55477012D01*
X271794933Y-54904592D02*
X271458215Y-55578027D01*
X271020482Y-55140294D01*
X287795389Y-37809687D02*
X287862732Y-37809687D01*
X287997419Y-37742343D01*
X288064763Y-37675000D01*
X288132106Y-37540312D01*
X288132106Y-37405625D01*
X288098435Y-37304610D01*
X287997419Y-37136251D01*
X287896404Y-37035236D01*
X287728045Y-36934221D01*
X287627030Y-36900549D01*
X287492343Y-36900549D01*
X287357656Y-36967893D01*
X287290312Y-37035236D01*
X287222969Y-37169923D01*
X287222969Y-37237267D01*
X286549534Y-37776015D02*
X286684221Y-37641328D01*
X286785236Y-37607656D01*
X286852580Y-37607656D01*
X287020938Y-37641328D01*
X287189297Y-37742343D01*
X287458671Y-38011717D01*
X287492343Y-38112732D01*
X287492343Y-38180076D01*
X287458671Y-38281091D01*
X287323984Y-38415778D01*
X287222969Y-38449450D01*
X287155625Y-38449450D01*
X287054610Y-38415778D01*
X286886251Y-38247419D01*
X286852580Y-38146404D01*
X286852580Y-38079061D01*
X286886251Y-37978045D01*
X287020938Y-37843358D01*
X287121954Y-37809687D01*
X287189297Y-37809687D01*
X287290312Y-37843358D01*
X286488389Y-36358687D02*
X286555732Y-36358687D01*
X286690419Y-36291343D01*
X286757763Y-36224000D01*
X286825106Y-36089312D01*
X286825106Y-35954625D01*
X286791435Y-35853610D01*
X286690419Y-35685251D01*
X286589404Y-35584236D01*
X286421045Y-35483221D01*
X286320030Y-35449549D01*
X286185343Y-35449549D01*
X286050656Y-35516893D01*
X285983312Y-35584236D01*
X285915969Y-35718923D01*
X285915969Y-35786267D01*
X285747610Y-36426030D02*
X285781282Y-36325015D01*
X285781282Y-36257671D01*
X285747610Y-36156656D01*
X285713938Y-36122984D01*
X285612923Y-36089312D01*
X285545580Y-36089312D01*
X285444564Y-36122984D01*
X285309877Y-36257671D01*
X285276206Y-36358687D01*
X285276206Y-36426030D01*
X285309877Y-36527045D01*
X285343549Y-36560717D01*
X285444564Y-36594389D01*
X285511908Y-36594389D01*
X285612923Y-36560717D01*
X285747610Y-36426030D01*
X285848625Y-36392358D01*
X285915969Y-36392358D01*
X286016984Y-36426030D01*
X286151671Y-36560717D01*
X286185343Y-36661732D01*
X286185343Y-36729076D01*
X286151671Y-36830091D01*
X286016984Y-36964778D01*
X285915969Y-36998450D01*
X285848625Y-36998450D01*
X285747610Y-36964778D01*
X285612923Y-36830091D01*
X285579251Y-36729076D01*
X285579251Y-36661732D01*
X285612923Y-36560717D01*
X277837389Y-34513687D02*
X277904732Y-34513687D01*
X278039419Y-34446343D01*
X278106763Y-34379000D01*
X278174106Y-34244312D01*
X278174106Y-34109625D01*
X278140435Y-34008610D01*
X278039419Y-33840251D01*
X277938404Y-33739236D01*
X277770045Y-33638221D01*
X277669030Y-33604549D01*
X277534343Y-33604549D01*
X277399656Y-33671893D01*
X277332312Y-33739236D01*
X277264969Y-33873923D01*
X277264969Y-33941267D01*
X277568015Y-34917748D02*
X277433328Y-35052435D01*
X277332312Y-35086106D01*
X277264969Y-35086106D01*
X277096610Y-35052435D01*
X276928251Y-34951419D01*
X276658877Y-34682045D01*
X276625206Y-34581030D01*
X276625206Y-34513687D01*
X276658877Y-34412671D01*
X276793564Y-34277984D01*
X276894580Y-34244312D01*
X276961923Y-34244312D01*
X277062938Y-34277984D01*
X277231297Y-34446343D01*
X277264969Y-34547358D01*
X277264969Y-34614702D01*
X277231297Y-34715717D01*
X277096610Y-34850404D01*
X276995595Y-34884076D01*
X276928251Y-34884076D01*
X276827236Y-34850404D01*
X283204732Y-34331030D02*
X283103717Y-33758610D01*
X283608793Y-33926969D02*
X282901687Y-33219862D01*
X282632312Y-33489236D01*
X282598641Y-33590251D01*
X282598641Y-33657595D01*
X282632312Y-33758610D01*
X282733328Y-33859625D01*
X282834343Y-33893297D01*
X282901687Y-33893297D01*
X283002702Y-33859625D01*
X283272076Y-33590251D01*
X282531297Y-35004465D02*
X282935358Y-34600404D01*
X282733328Y-34802435D02*
X282026221Y-34095328D01*
X282194580Y-34128999D01*
X282329267Y-34128999D01*
X282430282Y-34095328D01*
X284604732Y-35631030D02*
X284503717Y-35058610D01*
X285008793Y-35226969D02*
X284301687Y-34519862D01*
X284032312Y-34789236D01*
X283998641Y-34890251D01*
X283998641Y-34957595D01*
X284032312Y-35058610D01*
X284133328Y-35159625D01*
X284234343Y-35193297D01*
X284301687Y-35193297D01*
X284402702Y-35159625D01*
X284672076Y-34890251D01*
X283695595Y-35260641D02*
X283628251Y-35260641D01*
X283527236Y-35294312D01*
X283358877Y-35462671D01*
X283325206Y-35563687D01*
X283325206Y-35631030D01*
X283358877Y-35732045D01*
X283426221Y-35799389D01*
X283560908Y-35866732D01*
X284369030Y-35866732D01*
X283931297Y-36304465D01*
X275808522Y-44943026D02*
X276380942Y-45515446D01*
X276414614Y-45616461D01*
X276414614Y-45683805D01*
X276380942Y-45784820D01*
X276246255Y-45919507D01*
X276145240Y-45953179D01*
X276077896Y-45953179D01*
X275976881Y-45919507D01*
X275404461Y-45347087D01*
X275404461Y-46761301D02*
X275808522Y-46357240D01*
X275606492Y-46559270D02*
X274899385Y-45852164D01*
X275067744Y-45885835D01*
X275202431Y-45885835D01*
X275303446Y-45852164D01*
X273952030Y-34882106D02*
X273952030Y-34949450D01*
X274019374Y-35084137D01*
X274086717Y-35151480D01*
X274221404Y-35218824D01*
X274356091Y-35218824D01*
X274457106Y-35185152D01*
X274625465Y-35084137D01*
X274726480Y-34983122D01*
X274827496Y-34814763D01*
X274861167Y-34713748D01*
X274861167Y-34579061D01*
X274793824Y-34444374D01*
X274726480Y-34377030D01*
X274591793Y-34309687D01*
X274524450Y-34309687D01*
X273211251Y-34276015D02*
X273615312Y-34680076D01*
X273413282Y-34478045D02*
X274120389Y-33770938D01*
X274086717Y-33939297D01*
X274086717Y-34073984D01*
X274120389Y-34175000D01*
X272537816Y-33602580D02*
X272941877Y-34006641D01*
X272739847Y-33804610D02*
X273446954Y-33097503D01*
X273413282Y-33265862D01*
X273413282Y-33400549D01*
X273446954Y-33501564D01*
X240617857Y-11607142D02*
X240665476Y-11654761D01*
X240808333Y-11702380D01*
X240903571Y-11702380D01*
X241046428Y-11654761D01*
X241141666Y-11559523D01*
X241189285Y-11464285D01*
X241236904Y-11273809D01*
X241236904Y-11130952D01*
X241189285Y-10940476D01*
X241141666Y-10845238D01*
X241046428Y-10750000D01*
X240903571Y-10702380D01*
X240808333Y-10702380D01*
X240665476Y-10750000D01*
X240617857Y-10797619D01*
X239665476Y-11702380D02*
X240236904Y-11702380D01*
X239951190Y-11702380D02*
X239951190Y-10702380D01*
X240046428Y-10845238D01*
X240141666Y-10940476D01*
X240236904Y-10988095D01*
X239046428Y-10702380D02*
X238951190Y-10702380D01*
X238855952Y-10750000D01*
X238808333Y-10797619D01*
X238760714Y-10892857D01*
X238713095Y-11083333D01*
X238713095Y-11321428D01*
X238760714Y-11511904D01*
X238808333Y-11607142D01*
X238855952Y-11654761D01*
X238951190Y-11702380D01*
X239046428Y-11702380D01*
X239141666Y-11654761D01*
X239189285Y-11607142D01*
X239236904Y-11511904D01*
X239284523Y-11321428D01*
X239284523Y-11083333D01*
X239236904Y-10892857D01*
X239189285Y-10797619D01*
X239141666Y-10750000D01*
X239046428Y-10702380D01*
X246378571Y-12416666D02*
X246378571Y-12083333D01*
X246902380Y-12083333D02*
X245902380Y-12083333D01*
X245902380Y-12559523D01*
X246902380Y-13464285D02*
X246902380Y-12892857D01*
X246902380Y-13178571D02*
X245902380Y-13178571D01*
X246045238Y-13083333D01*
X246140476Y-12988095D01*
X246188095Y-12892857D01*
X244503571Y-14341666D02*
X244503571Y-14008333D01*
X245027380Y-14008333D02*
X244027380Y-14008333D01*
X244027380Y-14484523D01*
X244503571Y-15198809D02*
X244551190Y-15341666D01*
X244598809Y-15389285D01*
X244694047Y-15436904D01*
X244836904Y-15436904D01*
X244932142Y-15389285D01*
X244979761Y-15341666D01*
X245027380Y-15246428D01*
X245027380Y-14865476D01*
X244027380Y-14865476D01*
X244027380Y-15198809D01*
X244075000Y-15294047D01*
X244122619Y-15341666D01*
X244217857Y-15389285D01*
X244313095Y-15389285D01*
X244408333Y-15341666D01*
X244455952Y-15294047D01*
X244503571Y-15198809D01*
X244503571Y-14865476D01*
X245027380Y-16389285D02*
X245027380Y-15817857D01*
X245027380Y-16103571D02*
X244027380Y-16103571D01*
X244170238Y-16008333D01*
X244265476Y-15913095D01*
X244313095Y-15817857D01*
X263066666Y-55352380D02*
X263400000Y-54876190D01*
X263638095Y-55352380D02*
X263638095Y-54352380D01*
X263257142Y-54352380D01*
X263161904Y-54400000D01*
X263114285Y-54447619D01*
X263066666Y-54542857D01*
X263066666Y-54685714D01*
X263114285Y-54780952D01*
X263161904Y-54828571D01*
X263257142Y-54876190D01*
X263638095Y-54876190D01*
X262209523Y-54352380D02*
X262400000Y-54352380D01*
X262495238Y-54400000D01*
X262542857Y-54447619D01*
X262638095Y-54590476D01*
X262685714Y-54780952D01*
X262685714Y-55161904D01*
X262638095Y-55257142D01*
X262590476Y-55304761D01*
X262495238Y-55352380D01*
X262304761Y-55352380D01*
X262209523Y-55304761D01*
X262161904Y-55257142D01*
X262114285Y-55161904D01*
X262114285Y-54923809D01*
X262161904Y-54828571D01*
X262209523Y-54780952D01*
X262304761Y-54733333D01*
X262495238Y-54733333D01*
X262590476Y-54780952D01*
X262638095Y-54828571D01*
X262685714Y-54923809D01*
X23702380Y-37083333D02*
X23226190Y-36750000D01*
X23702380Y-36511904D02*
X22702380Y-36511904D01*
X22702380Y-36892857D01*
X22750000Y-36988095D01*
X22797619Y-37035714D01*
X22892857Y-37083333D01*
X23035714Y-37083333D01*
X23130952Y-37035714D01*
X23178571Y-36988095D01*
X23226190Y-36892857D01*
X23226190Y-36511904D01*
X22702380Y-37416666D02*
X22702380Y-38083333D01*
X23702380Y-37654761D01*
X250211904Y-13102380D02*
X250211904Y-13911904D01*
X250164285Y-14007142D01*
X250116666Y-14054761D01*
X250021428Y-14102380D01*
X249830952Y-14102380D01*
X249735714Y-14054761D01*
X249688095Y-14007142D01*
X249640476Y-13911904D01*
X249640476Y-13102380D01*
X249211904Y-13197619D02*
X249164285Y-13150000D01*
X249069047Y-13102380D01*
X248830952Y-13102380D01*
X248735714Y-13150000D01*
X248688095Y-13197619D01*
X248640476Y-13292857D01*
X248640476Y-13388095D01*
X248688095Y-13530952D01*
X249259523Y-14102380D01*
X248640476Y-14102380D01*
X257291666Y-6127380D02*
X257625000Y-5651190D01*
X257863095Y-6127380D02*
X257863095Y-5127380D01*
X257482142Y-5127380D01*
X257386904Y-5175000D01*
X257339285Y-5222619D01*
X257291666Y-5317857D01*
X257291666Y-5460714D01*
X257339285Y-5555952D01*
X257386904Y-5603571D01*
X257482142Y-5651190D01*
X257863095Y-5651190D01*
X256434523Y-5460714D02*
X256434523Y-6127380D01*
X256672619Y-5079761D02*
X256910714Y-5794047D01*
X256291666Y-5794047D01*
X279727380Y-52690476D02*
X280727380Y-53357142D01*
X279727380Y-53357142D02*
X280727380Y-52690476D01*
X280727380Y-54261904D02*
X280727380Y-53690476D01*
X280727380Y-53976190D02*
X279727380Y-53976190D01*
X279870238Y-53880952D01*
X279965476Y-53785714D01*
X280013095Y-53690476D01*
D11*
X249933333Y-1877380D02*
X249933333Y-2591666D01*
X249980952Y-2734523D01*
X250076190Y-2829761D01*
X250219047Y-2877380D01*
X250314285Y-2877380D01*
X248933333Y-2877380D02*
X249504761Y-2877380D01*
X249219047Y-2877380D02*
X249219047Y-1877380D01*
X249314285Y-2020238D01*
X249409523Y-2115476D01*
X249504761Y-2163095D01*
D12*
X243233333Y-5803571D02*
X243566666Y-5803571D01*
X243566666Y-6327380D02*
X243566666Y-5327380D01*
X243090476Y-5327380D01*
X242376190Y-5803571D02*
X242233333Y-5851190D01*
X242185714Y-5898809D01*
X242138095Y-5994047D01*
X242138095Y-6136904D01*
X242185714Y-6232142D01*
X242233333Y-6279761D01*
X242328571Y-6327380D01*
X242709523Y-6327380D01*
X242709523Y-5327380D01*
X242376190Y-5327380D01*
X242280952Y-5375000D01*
X242233333Y-5422619D01*
X242185714Y-5517857D01*
X242185714Y-5613095D01*
X242233333Y-5708333D01*
X242280952Y-5755952D01*
X242376190Y-5803571D01*
X242709523Y-5803571D01*
X241757142Y-5422619D02*
X241709523Y-5375000D01*
X241614285Y-5327380D01*
X241376190Y-5327380D01*
X241280952Y-5375000D01*
X241233333Y-5422619D01*
X241185714Y-5517857D01*
X241185714Y-5613095D01*
X241233333Y-5755952D01*
X241804761Y-6327380D01*
X241185714Y-6327380D01*
M02*
