G04 #@! TF.GenerationSoftware,KiCad,Pcbnew,(5.1.8)-1*
G04 #@! TF.CreationDate,2021-04-23T17:16:51-07:00*
G04 #@! TF.ProjectId,Spritzgeback,53707269-747a-4676-9562-61636b2e6b69,rev?*
G04 #@! TF.SameCoordinates,Original*
G04 #@! TF.FileFunction,Soldermask,Bot*
G04 #@! TF.FilePolarity,Negative*
%FSLAX46Y46*%
G04 Gerber Fmt 4.6, Leading zero omitted, Abs format (unit mm)*
G04 Created by KiCad (PCBNEW (5.1.8)-1) date 2021-04-23 17:16:51*
%MOMM*%
%LPD*%
G01*
G04 APERTURE LIST*
%ADD10C,4.562400*%
%ADD11R,0.900000X1.200000*%
%ADD12R,1.200000X0.900000*%
%ADD13C,2.032000*%
%ADD14C,0.100000*%
%ADD15R,0.650000X1.060000*%
%ADD16R,1.200000X1.400000*%
%ADD17C,0.700000*%
%ADD18O,1.050000X2.100000*%
%ADD19R,0.600000X1.450000*%
%ADD20R,0.300000X1.450000*%
%ADD21C,1.701800*%
%ADD22R,2.600000X2.600000*%
%ADD23C,3.000000*%
%ADD24C,5.000000*%
G04 APERTURE END LIST*
G36*
G01*
X238424998Y-3950000D02*
X239325002Y-3950000D01*
G75*
G02*
X239575000Y-4199998I0J-249998D01*
G01*
X239575000Y-4725002D01*
G75*
G02*
X239325002Y-4975000I-249998J0D01*
G01*
X238424998Y-4975000D01*
G75*
G02*
X238175000Y-4725002I0J249998D01*
G01*
X238175000Y-4199998D01*
G75*
G02*
X238424998Y-3950000I249998J0D01*
G01*
G37*
G36*
G01*
X238424998Y-2125000D02*
X239325002Y-2125000D01*
G75*
G02*
X239575000Y-2374998I0J-249998D01*
G01*
X239575000Y-2900002D01*
G75*
G02*
X239325002Y-3150000I-249998J0D01*
G01*
X238424998Y-3150000D01*
G75*
G02*
X238175000Y-2900002I0J249998D01*
G01*
X238175000Y-2374998D01*
G75*
G02*
X238424998Y-2125000I249998J0D01*
G01*
G37*
D10*
X37500000Y-54900000D03*
X223500000Y-54900000D03*
D11*
X133300000Y-45250000D03*
X136600000Y-45250000D03*
X2800000Y-11250000D03*
X6100000Y-11250000D03*
X25300000Y-11250000D03*
X28600000Y-11250000D03*
X43300000Y-11250000D03*
X46600000Y-11250000D03*
X61300000Y-11250000D03*
X64600000Y-11250000D03*
X79300000Y-11250000D03*
X82600000Y-11250000D03*
X97300000Y-11250000D03*
X100600000Y-11250000D03*
X115300000Y-11250000D03*
X118600000Y-11250000D03*
X133300000Y-11250000D03*
X136600000Y-11250000D03*
X151300000Y-11250000D03*
X154600000Y-11250000D03*
X169300000Y-11250000D03*
X172600000Y-11250000D03*
X187300000Y-11250000D03*
X190600000Y-11250000D03*
X205300000Y-11250000D03*
X208600000Y-11250000D03*
X223300000Y-11250000D03*
X226600000Y-11250000D03*
D12*
X233400000Y-2700000D03*
X233400000Y-6000000D03*
D11*
X281800000Y-11250000D03*
X285100000Y-11250000D03*
X2800000Y-28250000D03*
X6100000Y-28250000D03*
X25300000Y-28250000D03*
X28600000Y-28250000D03*
X43300000Y-28250000D03*
X46600000Y-28250000D03*
X61300000Y-28250000D03*
X64600000Y-28250000D03*
X79300000Y-28250000D03*
X82600000Y-28250000D03*
X97300000Y-28250000D03*
X100600000Y-28250000D03*
X115300000Y-28250000D03*
X118600000Y-28250000D03*
X133300000Y-28250000D03*
X136600000Y-28250000D03*
X151300000Y-28250000D03*
X154600000Y-28250000D03*
X169300000Y-28250000D03*
X172600000Y-28250000D03*
X187300000Y-28250000D03*
X190600000Y-28250000D03*
X205300000Y-28250000D03*
X208600000Y-28250000D03*
X223300000Y-28250000D03*
X226600000Y-28250000D03*
X241300000Y-28250000D03*
X244600000Y-28250000D03*
X263800000Y-11250000D03*
X267100000Y-11250000D03*
X2800000Y-45250000D03*
X6100000Y-45250000D03*
X25300000Y-45250000D03*
X28600000Y-45250000D03*
X43300000Y-45250000D03*
X46600000Y-45250000D03*
X61300000Y-45250000D03*
X64600000Y-45250000D03*
X79300000Y-45250000D03*
X82600000Y-45250000D03*
X97300000Y-45250000D03*
X100600000Y-45250000D03*
X115300000Y-45250000D03*
X118600000Y-45250000D03*
X151300000Y-45250000D03*
X154600000Y-45250000D03*
X169300000Y-45250000D03*
X172600000Y-45250000D03*
X187300000Y-45250000D03*
X190600000Y-45250000D03*
X205300000Y-45250000D03*
X208600000Y-45250000D03*
X223300000Y-45250000D03*
X226600000Y-45250000D03*
X241300000Y-45250000D03*
X244600000Y-45250000D03*
X263800000Y-28250000D03*
X267100000Y-28250000D03*
X2800000Y-62250000D03*
X6100000Y-62250000D03*
X29800000Y-62250000D03*
X33100000Y-62250000D03*
X52300000Y-62250000D03*
X55600000Y-62250000D03*
X70300000Y-62250000D03*
X73600000Y-62250000D03*
X88300000Y-62250000D03*
X91600000Y-62250000D03*
X109600000Y-62250000D03*
X106300000Y-62250000D03*
X124300000Y-62250000D03*
X127600000Y-62250000D03*
X145600000Y-62250000D03*
X142300000Y-62250000D03*
X160300000Y-62250000D03*
X163600000Y-62250000D03*
X178300000Y-62250000D03*
X181600000Y-62250000D03*
X196300000Y-62250000D03*
X199600000Y-62250000D03*
X214300000Y-62250000D03*
X217600000Y-62250000D03*
X236800000Y-62250000D03*
X240100000Y-62250000D03*
X25300000Y-79250000D03*
X28600000Y-79250000D03*
X43300000Y-79250000D03*
X46600000Y-79250000D03*
X61300000Y-79250000D03*
X64600000Y-79250000D03*
X111100000Y-79250000D03*
X107800000Y-79250000D03*
X144100000Y-79250000D03*
X140800000Y-79250000D03*
X187300000Y-79250000D03*
X190600000Y-79250000D03*
X205300000Y-79250000D03*
X208600000Y-79250000D03*
X223300000Y-79250000D03*
X226600000Y-79250000D03*
X245800000Y-79250000D03*
X249100000Y-79250000D03*
X281800000Y-79250000D03*
X285100000Y-79250000D03*
X2800000Y-79250000D03*
X6100000Y-79250000D03*
X79300000Y-79250000D03*
X82600000Y-79250000D03*
X263800000Y-62250000D03*
X267100000Y-62250000D03*
X263800000Y-79250000D03*
X267100000Y-79250000D03*
X281575000Y-28250000D03*
X284875000Y-28250000D03*
X169300000Y-79250000D03*
X172600000Y-79250000D03*
G36*
G01*
X262646000Y-47786001D02*
X262646000Y-46885999D01*
G75*
G02*
X262895999Y-46636000I249999J0D01*
G01*
X263596001Y-46636000D01*
G75*
G02*
X263846000Y-46885999I0J-249999D01*
G01*
X263846000Y-47786001D01*
G75*
G02*
X263596001Y-48036000I-249999J0D01*
G01*
X262895999Y-48036000D01*
G75*
G02*
X262646000Y-47786001I0J249999D01*
G01*
G37*
G36*
G01*
X264646000Y-47786001D02*
X264646000Y-46885999D01*
G75*
G02*
X264895999Y-46636000I249999J0D01*
G01*
X265596001Y-46636000D01*
G75*
G02*
X265846000Y-46885999I0J-249999D01*
G01*
X265846000Y-47786001D01*
G75*
G02*
X265596001Y-48036000I-249999J0D01*
G01*
X264895999Y-48036000D01*
G75*
G02*
X264646000Y-47786001I0J249999D01*
G01*
G37*
D13*
X259592000Y-53670000D03*
X255592000Y-53670000D03*
G36*
G01*
X265879000Y-43845000D02*
X265879000Y-44795000D01*
G75*
G02*
X265629000Y-45045000I-250000J0D01*
G01*
X264954000Y-45045000D01*
G75*
G02*
X264704000Y-44795000I0J250000D01*
G01*
X264704000Y-43845000D01*
G75*
G02*
X264954000Y-43595000I250000J0D01*
G01*
X265629000Y-43595000D01*
G75*
G02*
X265879000Y-43845000I0J-250000D01*
G01*
G37*
G36*
G01*
X263804000Y-43845000D02*
X263804000Y-44795000D01*
G75*
G02*
X263554000Y-45045000I-250000J0D01*
G01*
X262879000Y-45045000D01*
G75*
G02*
X262629000Y-44795000I0J250000D01*
G01*
X262629000Y-43845000D01*
G75*
G02*
X262879000Y-43595000I250000J0D01*
G01*
X263554000Y-43595000D01*
G75*
G02*
X263804000Y-43845000I0J-250000D01*
G01*
G37*
G36*
G01*
X270713678Y-36467927D02*
X270041927Y-37139678D01*
G75*
G02*
X269688373Y-37139678I-176777J176777D01*
G01*
X269211076Y-36662381D01*
G75*
G02*
X269211076Y-36308827I176777J176777D01*
G01*
X269882827Y-35637076D01*
G75*
G02*
X270236381Y-35637076I176777J-176777D01*
G01*
X270713678Y-36114373D01*
G75*
G02*
X270713678Y-36467927I-176777J-176777D01*
G01*
G37*
G36*
G01*
X272180924Y-37935173D02*
X271509173Y-38606924D01*
G75*
G02*
X271155619Y-38606924I-176777J176777D01*
G01*
X270678322Y-38129627D01*
G75*
G02*
X270678322Y-37776073I176777J176777D01*
G01*
X271350073Y-37104322D01*
G75*
G02*
X271703627Y-37104322I176777J-176777D01*
G01*
X272180924Y-37581619D01*
G75*
G02*
X272180924Y-37935173I-176777J-176777D01*
G01*
G37*
G36*
G01*
X286003000Y-53917000D02*
X285053000Y-53917000D01*
G75*
G02*
X284803000Y-53667000I0J250000D01*
G01*
X284803000Y-52992000D01*
G75*
G02*
X285053000Y-52742000I250000J0D01*
G01*
X286003000Y-52742000D01*
G75*
G02*
X286253000Y-52992000I0J-250000D01*
G01*
X286253000Y-53667000D01*
G75*
G02*
X286003000Y-53917000I-250000J0D01*
G01*
G37*
G36*
G01*
X286003000Y-51842000D02*
X285053000Y-51842000D01*
G75*
G02*
X284803000Y-51592000I0J250000D01*
G01*
X284803000Y-50917000D01*
G75*
G02*
X285053000Y-50667000I250000J0D01*
G01*
X286003000Y-50667000D01*
G75*
G02*
X286253000Y-50917000I0J-250000D01*
G01*
X286253000Y-51592000D01*
G75*
G02*
X286003000Y-51842000I-250000J0D01*
G01*
G37*
G36*
G01*
X282227000Y-58031000D02*
X281277000Y-58031000D01*
G75*
G02*
X281027000Y-57781000I0J250000D01*
G01*
X281027000Y-57106000D01*
G75*
G02*
X281277000Y-56856000I250000J0D01*
G01*
X282227000Y-56856000D01*
G75*
G02*
X282477000Y-57106000I0J-250000D01*
G01*
X282477000Y-57781000D01*
G75*
G02*
X282227000Y-58031000I-250000J0D01*
G01*
G37*
G36*
G01*
X282227000Y-55956000D02*
X281277000Y-55956000D01*
G75*
G02*
X281027000Y-55706000I0J250000D01*
G01*
X281027000Y-55031000D01*
G75*
G02*
X281277000Y-54781000I250000J0D01*
G01*
X282227000Y-54781000D01*
G75*
G02*
X282477000Y-55031000I0J-250000D01*
G01*
X282477000Y-55706000D01*
G75*
G02*
X282227000Y-55956000I-250000J0D01*
G01*
G37*
G36*
G01*
X285985000Y-50019000D02*
X285035000Y-50019000D01*
G75*
G02*
X284785000Y-49769000I0J250000D01*
G01*
X284785000Y-49094000D01*
G75*
G02*
X285035000Y-48844000I250000J0D01*
G01*
X285985000Y-48844000D01*
G75*
G02*
X286235000Y-49094000I0J-250000D01*
G01*
X286235000Y-49769000D01*
G75*
G02*
X285985000Y-50019000I-250000J0D01*
G01*
G37*
G36*
G01*
X285985000Y-47944000D02*
X285035000Y-47944000D01*
G75*
G02*
X284785000Y-47694000I0J250000D01*
G01*
X284785000Y-47019000D01*
G75*
G02*
X285035000Y-46769000I250000J0D01*
G01*
X285985000Y-46769000D01*
G75*
G02*
X286235000Y-47019000I0J-250000D01*
G01*
X286235000Y-47694000D01*
G75*
G02*
X285985000Y-47944000I-250000J0D01*
G01*
G37*
G36*
G01*
X271411076Y-53700827D02*
X272082827Y-53029076D01*
G75*
G02*
X272436381Y-53029076I176777J-176777D01*
G01*
X272913678Y-53506373D01*
G75*
G02*
X272913678Y-53859927I-176777J-176777D01*
G01*
X272241927Y-54531678D01*
G75*
G02*
X271888373Y-54531678I-176777J176777D01*
G01*
X271411076Y-54054381D01*
G75*
G02*
X271411076Y-53700827I176777J176777D01*
G01*
G37*
G36*
G01*
X272878322Y-55168073D02*
X273550073Y-54496322D01*
G75*
G02*
X273903627Y-54496322I176777J-176777D01*
G01*
X274380924Y-54973619D01*
G75*
G02*
X274380924Y-55327173I-176777J-176777D01*
G01*
X273709173Y-55998924D01*
G75*
G02*
X273355619Y-55998924I-176777J176777D01*
G01*
X272878322Y-55521627D01*
G75*
G02*
X272878322Y-55168073I176777J176777D01*
G01*
G37*
G36*
G01*
X285279073Y-40442678D02*
X284607322Y-39770927D01*
G75*
G02*
X284607322Y-39417373I176777J176777D01*
G01*
X285084619Y-38940076D01*
G75*
G02*
X285438173Y-38940076I176777J-176777D01*
G01*
X286109924Y-39611827D01*
G75*
G02*
X286109924Y-39965381I-176777J-176777D01*
G01*
X285632627Y-40442678D01*
G75*
G02*
X285279073Y-40442678I-176777J176777D01*
G01*
G37*
G36*
G01*
X283811827Y-41909924D02*
X283140076Y-41238173D01*
G75*
G02*
X283140076Y-40884619I176777J176777D01*
G01*
X283617373Y-40407322D01*
G75*
G02*
X283970927Y-40407322I176777J-176777D01*
G01*
X284642678Y-41079073D01*
G75*
G02*
X284642678Y-41432627I-176777J-176777D01*
G01*
X284165381Y-41909924D01*
G75*
G02*
X283811827Y-41909924I-176777J176777D01*
G01*
G37*
G36*
G01*
X282404827Y-40508924D02*
X281733076Y-39837173D01*
G75*
G02*
X281733076Y-39483619I176777J176777D01*
G01*
X282210373Y-39006322D01*
G75*
G02*
X282563927Y-39006322I176777J-176777D01*
G01*
X283235678Y-39678073D01*
G75*
G02*
X283235678Y-40031627I-176777J-176777D01*
G01*
X282758381Y-40508924D01*
G75*
G02*
X282404827Y-40508924I-176777J176777D01*
G01*
G37*
G36*
G01*
X283872073Y-39041678D02*
X283200322Y-38369927D01*
G75*
G02*
X283200322Y-38016373I176777J176777D01*
G01*
X283677619Y-37539076D01*
G75*
G02*
X284031173Y-37539076I176777J-176777D01*
G01*
X284702924Y-38210827D01*
G75*
G02*
X284702924Y-38564381I-176777J-176777D01*
G01*
X284225627Y-39041678D01*
G75*
G02*
X283872073Y-39041678I-176777J176777D01*
G01*
G37*
G36*
G01*
X277753827Y-36963924D02*
X277082076Y-36292173D01*
G75*
G02*
X277082076Y-35938619I176777J176777D01*
G01*
X277559373Y-35461322D01*
G75*
G02*
X277912927Y-35461322I176777J-176777D01*
G01*
X278584678Y-36133073D01*
G75*
G02*
X278584678Y-36486627I-176777J-176777D01*
G01*
X278107381Y-36963924D01*
G75*
G02*
X277753827Y-36963924I-176777J176777D01*
G01*
G37*
G36*
G01*
X279221073Y-35496678D02*
X278549322Y-34824927D01*
G75*
G02*
X278549322Y-34471373I176777J176777D01*
G01*
X279026619Y-33994076D01*
G75*
G02*
X279380173Y-33994076I176777J-176777D01*
G01*
X280051924Y-34665827D01*
G75*
G02*
X280051924Y-35019381I-176777J-176777D01*
G01*
X279574627Y-35496678D01*
G75*
G02*
X279221073Y-35496678I-176777J176777D01*
G01*
G37*
G36*
G01*
X280568042Y-36864356D02*
X279931644Y-36227958D01*
G75*
G02*
X279931644Y-35874406I176776J176776D01*
G01*
X280426620Y-35379430D01*
G75*
G02*
X280780172Y-35379430I176776J-176776D01*
G01*
X281416570Y-36015828D01*
G75*
G02*
X281416570Y-36369380I-176776J-176776D01*
G01*
X280921594Y-36864356D01*
G75*
G02*
X280568042Y-36864356I-176776J176776D01*
G01*
G37*
G36*
G01*
X279153828Y-38278570D02*
X278517430Y-37642172D01*
G75*
G02*
X278517430Y-37288620I176776J176776D01*
G01*
X279012406Y-36793644D01*
G75*
G02*
X279365958Y-36793644I176776J-176776D01*
G01*
X280002356Y-37430042D01*
G75*
G02*
X280002356Y-37783594I-176776J-176776D01*
G01*
X279507380Y-38278570D01*
G75*
G02*
X279153828Y-38278570I-176776J176776D01*
G01*
G37*
G36*
G01*
X281918042Y-38214356D02*
X281281644Y-37577958D01*
G75*
G02*
X281281644Y-37224406I176776J176776D01*
G01*
X281776620Y-36729430D01*
G75*
G02*
X282130172Y-36729430I176776J-176776D01*
G01*
X282766570Y-37365828D01*
G75*
G02*
X282766570Y-37719380I-176776J-176776D01*
G01*
X282271594Y-38214356D01*
G75*
G02*
X281918042Y-38214356I-176776J176776D01*
G01*
G37*
G36*
G01*
X280503828Y-39628570D02*
X279867430Y-38992172D01*
G75*
G02*
X279867430Y-38638620I176776J176776D01*
G01*
X280362406Y-38143644D01*
G75*
G02*
X280715958Y-38143644I176776J-176776D01*
G01*
X281352356Y-38780042D01*
G75*
G02*
X281352356Y-39133594I-176776J-176776D01*
G01*
X280857380Y-39628570D01*
G75*
G02*
X280503828Y-39628570I-176776J176776D01*
G01*
G37*
D14*
G36*
X277104958Y-38245280D02*
G01*
X277493866Y-38634188D01*
X276433206Y-39694848D01*
X276044298Y-39305940D01*
X277104958Y-38245280D01*
G37*
G36*
X277670643Y-38810966D02*
G01*
X278059551Y-39199874D01*
X276998891Y-40260534D01*
X276609983Y-39871626D01*
X277670643Y-38810966D01*
G37*
G36*
X278236328Y-39376651D02*
G01*
X278625236Y-39765559D01*
X277564576Y-40826219D01*
X277175668Y-40437311D01*
X278236328Y-39376651D01*
G37*
G36*
X278802014Y-39942336D02*
G01*
X279190922Y-40331244D01*
X278130262Y-41391904D01*
X277741354Y-41002996D01*
X278802014Y-39942336D01*
G37*
G36*
X279367699Y-40508022D02*
G01*
X279756607Y-40896930D01*
X278695947Y-41957590D01*
X278307039Y-41568682D01*
X279367699Y-40508022D01*
G37*
G36*
X279933385Y-41073707D02*
G01*
X280322293Y-41462615D01*
X279261633Y-42523275D01*
X278872725Y-42134367D01*
X279933385Y-41073707D01*
G37*
G36*
X280499070Y-41639393D02*
G01*
X280887978Y-42028301D01*
X279827318Y-43088961D01*
X279438410Y-42700053D01*
X280499070Y-41639393D01*
G37*
G36*
X281064756Y-42205078D02*
G01*
X281453664Y-42593986D01*
X280393004Y-43654646D01*
X280004096Y-43265738D01*
X281064756Y-42205078D01*
G37*
G36*
X281630441Y-42770764D02*
G01*
X282019349Y-43159672D01*
X280958689Y-44220332D01*
X280569781Y-43831424D01*
X281630441Y-42770764D01*
G37*
G36*
X282196126Y-43336449D02*
G01*
X282585034Y-43725357D01*
X281524374Y-44786017D01*
X281135466Y-44397109D01*
X282196126Y-43336449D01*
G37*
G36*
X282761812Y-43902134D02*
G01*
X283150720Y-44291042D01*
X282090060Y-45351702D01*
X281701152Y-44962794D01*
X282761812Y-43902134D01*
G37*
G36*
X283150720Y-47366958D02*
G01*
X282761812Y-47755866D01*
X281701152Y-46695206D01*
X282090060Y-46306298D01*
X283150720Y-47366958D01*
G37*
G36*
X282585034Y-47932643D02*
G01*
X282196126Y-48321551D01*
X281135466Y-47260891D01*
X281524374Y-46871983D01*
X282585034Y-47932643D01*
G37*
G36*
X282019349Y-48498328D02*
G01*
X281630441Y-48887236D01*
X280569781Y-47826576D01*
X280958689Y-47437668D01*
X282019349Y-48498328D01*
G37*
G36*
X281453664Y-49064014D02*
G01*
X281064756Y-49452922D01*
X280004096Y-48392262D01*
X280393004Y-48003354D01*
X281453664Y-49064014D01*
G37*
G36*
X280887978Y-49629699D02*
G01*
X280499070Y-50018607D01*
X279438410Y-48957947D01*
X279827318Y-48569039D01*
X280887978Y-49629699D01*
G37*
G36*
X280322293Y-50195385D02*
G01*
X279933385Y-50584293D01*
X278872725Y-49523633D01*
X279261633Y-49134725D01*
X280322293Y-50195385D01*
G37*
G36*
X279756607Y-50761070D02*
G01*
X279367699Y-51149978D01*
X278307039Y-50089318D01*
X278695947Y-49700410D01*
X279756607Y-50761070D01*
G37*
G36*
X279190922Y-51326756D02*
G01*
X278802014Y-51715664D01*
X277741354Y-50655004D01*
X278130262Y-50266096D01*
X279190922Y-51326756D01*
G37*
G36*
X278625236Y-51892441D02*
G01*
X278236328Y-52281349D01*
X277175668Y-51220689D01*
X277564576Y-50831781D01*
X278625236Y-51892441D01*
G37*
G36*
X278059551Y-52458126D02*
G01*
X277670643Y-52847034D01*
X276609983Y-51786374D01*
X276998891Y-51397466D01*
X278059551Y-52458126D01*
G37*
G36*
X277493866Y-53023812D02*
G01*
X277104958Y-53412720D01*
X276044298Y-52352060D01*
X276433206Y-51963152D01*
X277493866Y-53023812D01*
G37*
G36*
X274700794Y-51963152D02*
G01*
X275089702Y-52352060D01*
X274029042Y-53412720D01*
X273640134Y-53023812D01*
X274700794Y-51963152D01*
G37*
G36*
X274135109Y-51397466D02*
G01*
X274524017Y-51786374D01*
X273463357Y-52847034D01*
X273074449Y-52458126D01*
X274135109Y-51397466D01*
G37*
G36*
X273569424Y-50831781D02*
G01*
X273958332Y-51220689D01*
X272897672Y-52281349D01*
X272508764Y-51892441D01*
X273569424Y-50831781D01*
G37*
G36*
X273003738Y-50266096D02*
G01*
X273392646Y-50655004D01*
X272331986Y-51715664D01*
X271943078Y-51326756D01*
X273003738Y-50266096D01*
G37*
G36*
X272438053Y-49700410D02*
G01*
X272826961Y-50089318D01*
X271766301Y-51149978D01*
X271377393Y-50761070D01*
X272438053Y-49700410D01*
G37*
G36*
X271872367Y-49134725D02*
G01*
X272261275Y-49523633D01*
X271200615Y-50584293D01*
X270811707Y-50195385D01*
X271872367Y-49134725D01*
G37*
G36*
X271306682Y-48569039D02*
G01*
X271695590Y-48957947D01*
X270634930Y-50018607D01*
X270246022Y-49629699D01*
X271306682Y-48569039D01*
G37*
G36*
X270740996Y-48003354D02*
G01*
X271129904Y-48392262D01*
X270069244Y-49452922D01*
X269680336Y-49064014D01*
X270740996Y-48003354D01*
G37*
G36*
X270175311Y-47437668D02*
G01*
X270564219Y-47826576D01*
X269503559Y-48887236D01*
X269114651Y-48498328D01*
X270175311Y-47437668D01*
G37*
G36*
X269609626Y-46871983D02*
G01*
X269998534Y-47260891D01*
X268937874Y-48321551D01*
X268548966Y-47932643D01*
X269609626Y-46871983D01*
G37*
G36*
X269043940Y-46306298D02*
G01*
X269432848Y-46695206D01*
X268372188Y-47755866D01*
X267983280Y-47366958D01*
X269043940Y-46306298D01*
G37*
G36*
X269432848Y-44962794D02*
G01*
X269043940Y-45351702D01*
X267983280Y-44291042D01*
X268372188Y-43902134D01*
X269432848Y-44962794D01*
G37*
G36*
X269998534Y-44397109D02*
G01*
X269609626Y-44786017D01*
X268548966Y-43725357D01*
X268937874Y-43336449D01*
X269998534Y-44397109D01*
G37*
G36*
X270564219Y-43831424D02*
G01*
X270175311Y-44220332D01*
X269114651Y-43159672D01*
X269503559Y-42770764D01*
X270564219Y-43831424D01*
G37*
G36*
X271129904Y-43265738D02*
G01*
X270740996Y-43654646D01*
X269680336Y-42593986D01*
X270069244Y-42205078D01*
X271129904Y-43265738D01*
G37*
G36*
X271695590Y-42700053D02*
G01*
X271306682Y-43088961D01*
X270246022Y-42028301D01*
X270634930Y-41639393D01*
X271695590Y-42700053D01*
G37*
G36*
X272261275Y-42134367D02*
G01*
X271872367Y-42523275D01*
X270811707Y-41462615D01*
X271200615Y-41073707D01*
X272261275Y-42134367D01*
G37*
G36*
X272826961Y-41568682D02*
G01*
X272438053Y-41957590D01*
X271377393Y-40896930D01*
X271766301Y-40508022D01*
X272826961Y-41568682D01*
G37*
G36*
X273392646Y-41002996D02*
G01*
X273003738Y-41391904D01*
X271943078Y-40331244D01*
X272331986Y-39942336D01*
X273392646Y-41002996D01*
G37*
G36*
X273958332Y-40437311D02*
G01*
X273569424Y-40826219D01*
X272508764Y-39765559D01*
X272897672Y-39376651D01*
X273958332Y-40437311D01*
G37*
G36*
X274524017Y-39871626D02*
G01*
X274135109Y-40260534D01*
X273074449Y-39199874D01*
X273463357Y-38810966D01*
X274524017Y-39871626D01*
G37*
G36*
X275089702Y-39305940D02*
G01*
X274700794Y-39694848D01*
X273640134Y-38634188D01*
X274029042Y-38245280D01*
X275089702Y-39305940D01*
G37*
G36*
G01*
X274016924Y-36113173D02*
X273345173Y-36784924D01*
G75*
G02*
X272991619Y-36784924I-176777J176777D01*
G01*
X272514322Y-36307627D01*
G75*
G02*
X272514322Y-35954073I176777J176777D01*
G01*
X273186073Y-35282322D01*
G75*
G02*
X273539627Y-35282322I176777J-176777D01*
G01*
X274016924Y-35759619D01*
G75*
G02*
X274016924Y-36113173I-176777J-176777D01*
G01*
G37*
G36*
G01*
X272549678Y-34645927D02*
X271877927Y-35317678D01*
G75*
G02*
X271524373Y-35317678I-176777J176777D01*
G01*
X271047076Y-34840381D01*
G75*
G02*
X271047076Y-34486827I176777J176777D01*
G01*
X271718827Y-33815076D01*
G75*
G02*
X272072381Y-33815076I176777J-176777D01*
G01*
X272549678Y-34292373D01*
G75*
G02*
X272549678Y-34645927I-176777J-176777D01*
G01*
G37*
G36*
G01*
X242625000Y-12100000D02*
X241675000Y-12100000D01*
G75*
G02*
X241425000Y-11850000I0J250000D01*
G01*
X241425000Y-11175000D01*
G75*
G02*
X241675000Y-10925000I250000J0D01*
G01*
X242625000Y-10925000D01*
G75*
G02*
X242875000Y-11175000I0J-250000D01*
G01*
X242875000Y-11850000D01*
G75*
G02*
X242625000Y-12100000I-250000J0D01*
G01*
G37*
G36*
G01*
X242625000Y-10025000D02*
X241675000Y-10025000D01*
G75*
G02*
X241425000Y-9775000I0J250000D01*
G01*
X241425000Y-9100000D01*
G75*
G02*
X241675000Y-8850000I250000J0D01*
G01*
X242625000Y-8850000D01*
G75*
G02*
X242875000Y-9100000I0J-250000D01*
G01*
X242875000Y-9775000D01*
G75*
G02*
X242625000Y-10025000I-250000J0D01*
G01*
G37*
G36*
G01*
X246824002Y-9716000D02*
X245923998Y-9716000D01*
G75*
G02*
X245674000Y-9466002I0J249998D01*
G01*
X245674000Y-8940998D01*
G75*
G02*
X245923998Y-8691000I249998J0D01*
G01*
X246824002Y-8691000D01*
G75*
G02*
X247074000Y-8940998I0J-249998D01*
G01*
X247074000Y-9466002D01*
G75*
G02*
X246824002Y-9716000I-249998J0D01*
G01*
G37*
G36*
G01*
X246824002Y-11541000D02*
X245923998Y-11541000D01*
G75*
G02*
X245674000Y-11291002I0J249998D01*
G01*
X245674000Y-10765998D01*
G75*
G02*
X245923998Y-10516000I249998J0D01*
G01*
X246824002Y-10516000D01*
G75*
G02*
X247074000Y-10765998I0J-249998D01*
G01*
X247074000Y-11291002D01*
G75*
G02*
X246824002Y-11541000I-249998J0D01*
G01*
G37*
G36*
G01*
X244908002Y-13477000D02*
X244007998Y-13477000D01*
G75*
G02*
X243758000Y-13227002I0J249998D01*
G01*
X243758000Y-12701998D01*
G75*
G02*
X244007998Y-12452000I249998J0D01*
G01*
X244908002Y-12452000D01*
G75*
G02*
X245158000Y-12701998I0J-249998D01*
G01*
X245158000Y-13227002D01*
G75*
G02*
X244908002Y-13477000I-249998J0D01*
G01*
G37*
G36*
G01*
X244908002Y-11652000D02*
X244007998Y-11652000D01*
G75*
G02*
X243758000Y-11402002I0J249998D01*
G01*
X243758000Y-10876998D01*
G75*
G02*
X244007998Y-10627000I249998J0D01*
G01*
X244908002Y-10627000D01*
G75*
G02*
X245158000Y-10876998I0J-249998D01*
G01*
X245158000Y-11402002D01*
G75*
G02*
X244908002Y-11652000I-249998J0D01*
G01*
G37*
G36*
G01*
X263258000Y-53712001D02*
X263258000Y-52811999D01*
G75*
G02*
X263507999Y-52562000I249999J0D01*
G01*
X264208001Y-52562000D01*
G75*
G02*
X264458000Y-52811999I0J-249999D01*
G01*
X264458000Y-53712001D01*
G75*
G02*
X264208001Y-53962000I-249999J0D01*
G01*
X263507999Y-53962000D01*
G75*
G02*
X263258000Y-53712001I0J249999D01*
G01*
G37*
G36*
G01*
X261258000Y-53712001D02*
X261258000Y-52811999D01*
G75*
G02*
X261507999Y-52562000I249999J0D01*
G01*
X262208001Y-52562000D01*
G75*
G02*
X262458000Y-52811999I0J-249999D01*
G01*
X262458000Y-53712001D01*
G75*
G02*
X262208001Y-53962000I-249999J0D01*
G01*
X261507999Y-53962000D01*
G75*
G02*
X261258000Y-53712001I0J249999D01*
G01*
G37*
G36*
G01*
X25750001Y-36750000D02*
X24849999Y-36750000D01*
G75*
G02*
X24600000Y-36500001I0J249999D01*
G01*
X24600000Y-35799999D01*
G75*
G02*
X24849999Y-35550000I249999J0D01*
G01*
X25750001Y-35550000D01*
G75*
G02*
X26000000Y-35799999I0J-249999D01*
G01*
X26000000Y-36500001D01*
G75*
G02*
X25750001Y-36750000I-249999J0D01*
G01*
G37*
G36*
G01*
X25750001Y-38750000D02*
X24849999Y-38750000D01*
G75*
G02*
X24600000Y-38500001I0J249999D01*
G01*
X24600000Y-37799999D01*
G75*
G02*
X24849999Y-37550000I249999J0D01*
G01*
X25750001Y-37550000D01*
G75*
G02*
X26000000Y-37799999I0J-249999D01*
G01*
X26000000Y-38500001D01*
G75*
G02*
X25750001Y-38750000I-249999J0D01*
G01*
G37*
D15*
X249350000Y-12200000D03*
X248400000Y-12200000D03*
X250300000Y-12200000D03*
X250300000Y-10000000D03*
X249350000Y-10000000D03*
X248400000Y-10000000D03*
G36*
G01*
X258527000Y-3649998D02*
X258527000Y-4550002D01*
G75*
G02*
X258277002Y-4800000I-249998J0D01*
G01*
X257751998Y-4800000D01*
G75*
G02*
X257502000Y-4550002I0J249998D01*
G01*
X257502000Y-3649998D01*
G75*
G02*
X257751998Y-3400000I249998J0D01*
G01*
X258277002Y-3400000D01*
G75*
G02*
X258527000Y-3649998I0J-249998D01*
G01*
G37*
G36*
G01*
X256702000Y-3649998D02*
X256702000Y-4550002D01*
G75*
G02*
X256452002Y-4800000I-249998J0D01*
G01*
X255926998Y-4800000D01*
G75*
G02*
X255677000Y-4550002I0J249998D01*
G01*
X255677000Y-3649998D01*
G75*
G02*
X255926998Y-3400000I249998J0D01*
G01*
X256452002Y-3400000D01*
G75*
G02*
X256702000Y-3649998I0J-249998D01*
G01*
G37*
D16*
X281760000Y-51236000D03*
X281760000Y-53436000D03*
X283460000Y-53436000D03*
X283460000Y-51236000D03*
D17*
X252640000Y-4675000D03*
X246860000Y-4675000D03*
D18*
X254070000Y-1025000D03*
X245430000Y-1025000D03*
X254070000Y-5205000D03*
X245430000Y-5205000D03*
D19*
X253000000Y-6120000D03*
X252200000Y-6120000D03*
D20*
X251500000Y-6120000D03*
X251000000Y-6120000D03*
X250500000Y-6120000D03*
X250000000Y-6120000D03*
X248000000Y-6120000D03*
X248500000Y-6120000D03*
X249000000Y-6120000D03*
X249500000Y-6120000D03*
D19*
X247300000Y-6120000D03*
X246500000Y-6120000D03*
G36*
G01*
X241800001Y-4975000D02*
X240899999Y-4975000D01*
G75*
G02*
X240650000Y-4725001I0J249999D01*
G01*
X240650000Y-4199999D01*
G75*
G02*
X240899999Y-3950000I249999J0D01*
G01*
X241800001Y-3950000D01*
G75*
G02*
X242050000Y-4199999I0J-249999D01*
G01*
X242050000Y-4725001D01*
G75*
G02*
X241800001Y-4975000I-249999J0D01*
G01*
G37*
G36*
G01*
X241800001Y-3150000D02*
X240899999Y-3150000D01*
G75*
G02*
X240650000Y-2900001I0J249999D01*
G01*
X240650000Y-2374999D01*
G75*
G02*
X240899999Y-2125000I249999J0D01*
G01*
X241800001Y-2125000D01*
G75*
G02*
X242050000Y-2374999I0J-249999D01*
G01*
X242050000Y-2900001D01*
G75*
G02*
X241800001Y-3150000I-249999J0D01*
G01*
G37*
D21*
X-5500000Y-8200000D03*
X5500000Y-8200000D03*
D22*
X3275000Y-14150000D03*
D23*
X-5000000Y-11950000D03*
D24*
X0Y-8200000D03*
D23*
X0Y-14150000D03*
D22*
X-8275000Y-11950000D03*
D13*
X5000000Y-3050000D03*
X27500000Y-3050000D03*
D22*
X14225000Y-11950000D03*
D23*
X22500000Y-14150000D03*
D24*
X22500000Y-8200000D03*
D23*
X17500000Y-11950000D03*
D22*
X25775000Y-14150000D03*
D21*
X28000000Y-8200000D03*
X17000000Y-8200000D03*
X35000000Y-8200000D03*
X46000000Y-8200000D03*
D22*
X43775000Y-14150000D03*
D23*
X35500000Y-11950000D03*
D24*
X40500000Y-8200000D03*
D23*
X40500000Y-14150000D03*
D22*
X32225000Y-11950000D03*
D13*
X45500000Y-3050000D03*
X63500000Y-3050000D03*
D22*
X50225000Y-11950000D03*
D23*
X58500000Y-14150000D03*
D24*
X58500000Y-8200000D03*
D23*
X53500000Y-11950000D03*
D22*
X61775000Y-14150000D03*
D21*
X64000000Y-8200000D03*
X53000000Y-8200000D03*
X71000000Y-8200000D03*
X82000000Y-8200000D03*
D22*
X79775000Y-14150000D03*
D23*
X71500000Y-11950000D03*
D24*
X76500000Y-8200000D03*
D23*
X76500000Y-14150000D03*
D22*
X68225000Y-11950000D03*
D13*
X81500000Y-3050000D03*
X99500000Y-3050000D03*
D22*
X86225000Y-11950000D03*
D23*
X94500000Y-14150000D03*
D24*
X94500000Y-8200000D03*
D23*
X89500000Y-11950000D03*
D22*
X97775000Y-14150000D03*
D21*
X100000000Y-8200000D03*
X89000000Y-8200000D03*
X107000000Y-8200000D03*
X118000000Y-8200000D03*
D22*
X115775000Y-14150000D03*
D23*
X107500000Y-11950000D03*
D24*
X112500000Y-8200000D03*
D23*
X112500000Y-14150000D03*
D22*
X104225000Y-11950000D03*
D13*
X117500000Y-3050000D03*
X135500000Y-3050000D03*
D22*
X122225000Y-11950000D03*
D23*
X130500000Y-14150000D03*
D24*
X130500000Y-8200000D03*
D23*
X125500000Y-11950000D03*
D22*
X133775000Y-14150000D03*
D21*
X136000000Y-8200000D03*
X125000000Y-8200000D03*
X143000000Y-8200000D03*
X154000000Y-8200000D03*
D22*
X151775000Y-14150000D03*
D23*
X143500000Y-11950000D03*
D24*
X148500000Y-8200000D03*
D23*
X148500000Y-14150000D03*
D22*
X140225000Y-11950000D03*
D13*
X153500000Y-3050000D03*
X171500000Y-3050000D03*
D22*
X158225000Y-11950000D03*
D23*
X166500000Y-14150000D03*
D24*
X166500000Y-8200000D03*
D23*
X161500000Y-11950000D03*
D22*
X169775000Y-14150000D03*
D21*
X172000000Y-8200000D03*
X161000000Y-8200000D03*
X179000000Y-8200000D03*
X190000000Y-8200000D03*
D22*
X187775000Y-14150000D03*
D23*
X179500000Y-11950000D03*
D24*
X184500000Y-8200000D03*
D23*
X184500000Y-14150000D03*
D22*
X176225000Y-11950000D03*
D13*
X189500000Y-3050000D03*
D21*
X197000000Y-8200000D03*
X208000000Y-8200000D03*
D22*
X205775000Y-14150000D03*
D23*
X197500000Y-11950000D03*
D24*
X202500000Y-8200000D03*
D23*
X202500000Y-14150000D03*
D22*
X194225000Y-11950000D03*
D13*
X207500000Y-3050000D03*
X225500000Y-3050000D03*
D22*
X212225000Y-11950000D03*
D23*
X220500000Y-14150000D03*
D24*
X220500000Y-8200000D03*
D23*
X215500000Y-11950000D03*
D22*
X223775000Y-14150000D03*
D21*
X226000000Y-8200000D03*
X215000000Y-8200000D03*
X233000000Y-8200000D03*
X244000000Y-8200000D03*
D22*
X241775000Y-14150000D03*
D23*
X233500000Y-11950000D03*
D24*
X238500000Y-8200000D03*
D23*
X238500000Y-14150000D03*
D22*
X230225000Y-11950000D03*
D13*
X243500000Y-3050000D03*
D21*
X255500000Y-8200000D03*
X266500000Y-8200000D03*
D22*
X264275000Y-14150000D03*
D23*
X256000000Y-11950000D03*
D24*
X261000000Y-8200000D03*
D23*
X261000000Y-14150000D03*
D22*
X252725000Y-11950000D03*
D13*
X266000000Y-3050000D03*
X284000000Y-3050000D03*
D22*
X270725000Y-11950000D03*
D23*
X279000000Y-14150000D03*
D24*
X279000000Y-8200000D03*
D23*
X274000000Y-11950000D03*
D22*
X282275000Y-14150000D03*
D21*
X284500000Y-8200000D03*
X273500000Y-8200000D03*
X-5500000Y-25200000D03*
X5500000Y-25200000D03*
D22*
X3275000Y-31150000D03*
D23*
X-5000000Y-28950000D03*
D24*
X0Y-25200000D03*
D23*
X0Y-31150000D03*
D22*
X-8275000Y-28950000D03*
D13*
X5000000Y-20050000D03*
X27500000Y-20050000D03*
D22*
X14225000Y-28950000D03*
D23*
X22500000Y-31150000D03*
D24*
X22500000Y-25200000D03*
D23*
X17500000Y-28950000D03*
D22*
X25775000Y-31150000D03*
D21*
X28000000Y-25200000D03*
X17000000Y-25200000D03*
D13*
X45500000Y-20050000D03*
D22*
X32225000Y-28950000D03*
D23*
X40500000Y-31150000D03*
D24*
X40500000Y-25200000D03*
D23*
X35500000Y-28950000D03*
D22*
X43775000Y-31150000D03*
D21*
X46000000Y-25200000D03*
X35000000Y-25200000D03*
D13*
X63500000Y-20050000D03*
D22*
X50225000Y-28950000D03*
D23*
X58500000Y-31150000D03*
D24*
X58500000Y-25200000D03*
D23*
X53500000Y-28950000D03*
D22*
X61775000Y-31150000D03*
D21*
X64000000Y-25200000D03*
X53000000Y-25200000D03*
X71000000Y-25200000D03*
X82000000Y-25200000D03*
D22*
X79775000Y-31150000D03*
D23*
X71500000Y-28950000D03*
D24*
X76500000Y-25200000D03*
D23*
X76500000Y-31150000D03*
D22*
X68225000Y-28950000D03*
D13*
X81500000Y-20050000D03*
D21*
X89000000Y-25200000D03*
X100000000Y-25200000D03*
D22*
X97775000Y-31150000D03*
D23*
X89500000Y-28950000D03*
D24*
X94500000Y-25200000D03*
D23*
X94500000Y-31150000D03*
D22*
X86225000Y-28950000D03*
D13*
X99500000Y-20050000D03*
X117500000Y-20050000D03*
D22*
X104225000Y-28950000D03*
D23*
X112500000Y-31150000D03*
D24*
X112500000Y-25200000D03*
D23*
X107500000Y-28950000D03*
D22*
X115775000Y-31150000D03*
D21*
X118000000Y-25200000D03*
X107000000Y-25200000D03*
X125000000Y-25200000D03*
X136000000Y-25200000D03*
D22*
X133775000Y-31150000D03*
D23*
X125500000Y-28950000D03*
D24*
X130500000Y-25200000D03*
D23*
X130500000Y-31150000D03*
D22*
X122225000Y-28950000D03*
D13*
X135500000Y-20050000D03*
X153500000Y-20050000D03*
D22*
X140225000Y-28950000D03*
D23*
X148500000Y-31150000D03*
D24*
X148500000Y-25200000D03*
D23*
X143500000Y-28950000D03*
D22*
X151775000Y-31150000D03*
D21*
X154000000Y-25200000D03*
X143000000Y-25200000D03*
D13*
X171500000Y-20050000D03*
D22*
X158225000Y-28950000D03*
D23*
X166500000Y-31150000D03*
D24*
X166500000Y-25200000D03*
D23*
X161500000Y-28950000D03*
D22*
X169775000Y-31150000D03*
D21*
X172000000Y-25200000D03*
X161000000Y-25200000D03*
X179000000Y-25200000D03*
X190000000Y-25200000D03*
D22*
X187775000Y-31150000D03*
D23*
X179500000Y-28950000D03*
D24*
X184500000Y-25200000D03*
D23*
X184500000Y-31150000D03*
D22*
X176225000Y-28950000D03*
D13*
X189500000Y-20050000D03*
X207500000Y-20050000D03*
D22*
X194225000Y-28950000D03*
D23*
X202500000Y-31150000D03*
D24*
X202500000Y-25200000D03*
D23*
X197500000Y-28950000D03*
D22*
X205775000Y-31150000D03*
D21*
X208000000Y-25200000D03*
X197000000Y-25200000D03*
X215000000Y-25200000D03*
X226000000Y-25200000D03*
D22*
X223775000Y-31150000D03*
D23*
X215500000Y-28950000D03*
D24*
X220500000Y-25200000D03*
D23*
X220500000Y-31150000D03*
D22*
X212225000Y-28950000D03*
D13*
X225500000Y-20050000D03*
X243500000Y-20050000D03*
D22*
X230225000Y-28950000D03*
D23*
X238500000Y-31150000D03*
D24*
X238500000Y-25200000D03*
D23*
X233500000Y-28950000D03*
D22*
X241775000Y-31150000D03*
D21*
X244000000Y-25200000D03*
X233000000Y-25200000D03*
X255500000Y-25200000D03*
X266500000Y-25200000D03*
D22*
X264275000Y-31150000D03*
D23*
X256000000Y-28950000D03*
D24*
X261000000Y-25200000D03*
D23*
X261000000Y-31150000D03*
D22*
X252725000Y-28950000D03*
D13*
X266000000Y-20050000D03*
D21*
X273500000Y-25200000D03*
X284500000Y-25200000D03*
D22*
X282275000Y-31150000D03*
D23*
X274000000Y-28950000D03*
D24*
X279000000Y-25200000D03*
D23*
X279000000Y-31150000D03*
D22*
X270725000Y-28950000D03*
D13*
X284000000Y-20050000D03*
X5000000Y-37050000D03*
D22*
X-8275000Y-45950000D03*
D23*
X0Y-48150000D03*
D24*
X0Y-42200000D03*
D23*
X-5000000Y-45950000D03*
D22*
X3275000Y-48150000D03*
D21*
X5500000Y-42200000D03*
X-5500000Y-42200000D03*
X17000000Y-42200000D03*
X28000000Y-42200000D03*
D22*
X25775000Y-48150000D03*
D23*
X17500000Y-45950000D03*
D24*
X22500000Y-42200000D03*
D23*
X22500000Y-48150000D03*
D22*
X14225000Y-45950000D03*
D13*
X27500000Y-37050000D03*
D21*
X35000000Y-42200000D03*
X46000000Y-42200000D03*
D22*
X43775000Y-48150000D03*
D23*
X35500000Y-45950000D03*
D24*
X40500000Y-42200000D03*
D23*
X40500000Y-48150000D03*
D22*
X32225000Y-45950000D03*
D13*
X45500000Y-37050000D03*
X63500000Y-37050000D03*
D22*
X50225000Y-45950000D03*
D23*
X58500000Y-48150000D03*
D24*
X58500000Y-42200000D03*
D23*
X53500000Y-45950000D03*
D22*
X61775000Y-48150000D03*
D21*
X64000000Y-42200000D03*
X53000000Y-42200000D03*
X71000000Y-42200000D03*
X82000000Y-42200000D03*
D22*
X79775000Y-48150000D03*
D23*
X71500000Y-45950000D03*
D24*
X76500000Y-42200000D03*
D23*
X76500000Y-48150000D03*
D22*
X68225000Y-45950000D03*
D13*
X81500000Y-37050000D03*
D21*
X89000000Y-42200000D03*
X100000000Y-42200000D03*
D22*
X97775000Y-48150000D03*
D23*
X89500000Y-45950000D03*
D24*
X94500000Y-42200000D03*
D23*
X94500000Y-48150000D03*
D22*
X86225000Y-45950000D03*
D13*
X99500000Y-37050000D03*
X117500000Y-37050000D03*
D22*
X104225000Y-45950000D03*
D23*
X112500000Y-48150000D03*
D24*
X112500000Y-42200000D03*
D23*
X107500000Y-45950000D03*
D22*
X115775000Y-48150000D03*
D21*
X118000000Y-42200000D03*
X107000000Y-42200000D03*
X125000000Y-42200000D03*
X136000000Y-42200000D03*
D22*
X133775000Y-48150000D03*
D23*
X125500000Y-45950000D03*
D24*
X130500000Y-42200000D03*
D23*
X130500000Y-48150000D03*
D22*
X122225000Y-45950000D03*
D13*
X135500000Y-37050000D03*
X153500000Y-37050000D03*
D22*
X140225000Y-45950000D03*
D23*
X148500000Y-48150000D03*
D24*
X148500000Y-42200000D03*
D23*
X143500000Y-45950000D03*
D22*
X151775000Y-48150000D03*
D21*
X154000000Y-42200000D03*
X143000000Y-42200000D03*
D13*
X171500000Y-37050000D03*
D22*
X158225000Y-45950000D03*
D23*
X166500000Y-48150000D03*
D24*
X166500000Y-42200000D03*
D23*
X161500000Y-45950000D03*
D22*
X169775000Y-48150000D03*
D21*
X172000000Y-42200000D03*
X161000000Y-42200000D03*
D13*
X189500000Y-37050000D03*
D22*
X176225000Y-45950000D03*
D23*
X184500000Y-48150000D03*
D24*
X184500000Y-42200000D03*
D23*
X179500000Y-45950000D03*
D22*
X187775000Y-48150000D03*
D21*
X190000000Y-42200000D03*
X179000000Y-42200000D03*
X197000000Y-42200000D03*
X208000000Y-42200000D03*
D22*
X205775000Y-48150000D03*
D23*
X197500000Y-45950000D03*
D24*
X202500000Y-42200000D03*
D23*
X202500000Y-48150000D03*
D22*
X194225000Y-45950000D03*
D13*
X207500000Y-37050000D03*
X225500000Y-37050000D03*
D22*
X212225000Y-45950000D03*
D23*
X220500000Y-48150000D03*
D24*
X220500000Y-42200000D03*
D23*
X215500000Y-45950000D03*
D22*
X223775000Y-48150000D03*
D21*
X226000000Y-42200000D03*
X215000000Y-42200000D03*
D13*
X243500000Y-37050000D03*
D22*
X230225000Y-45950000D03*
D23*
X238500000Y-48150000D03*
D24*
X238500000Y-42200000D03*
D23*
X233500000Y-45950000D03*
D22*
X241775000Y-48150000D03*
D21*
X244000000Y-42200000D03*
X233000000Y-42200000D03*
X-5500000Y-59200000D03*
X5500000Y-59200000D03*
D22*
X3275000Y-65150000D03*
D23*
X-5000000Y-62950000D03*
D24*
X0Y-59200000D03*
D23*
X0Y-65150000D03*
D22*
X-8275000Y-62950000D03*
D13*
X5000000Y-54050000D03*
D21*
X21500000Y-59200000D03*
X32500000Y-59200000D03*
D22*
X30275000Y-65150000D03*
D23*
X22000000Y-62950000D03*
D24*
X27000000Y-59200000D03*
D23*
X27000000Y-65150000D03*
D22*
X18725000Y-62950000D03*
D13*
X32000000Y-54050000D03*
D21*
X44000000Y-59200000D03*
X55000000Y-59200000D03*
D22*
X52775000Y-65150000D03*
D23*
X44500000Y-62950000D03*
D24*
X49500000Y-59200000D03*
D23*
X49500000Y-65150000D03*
D22*
X41225000Y-62950000D03*
D13*
X54500000Y-54050000D03*
X72500000Y-54050000D03*
D22*
X59225000Y-62950000D03*
D23*
X67500000Y-65150000D03*
D24*
X67500000Y-59200000D03*
D23*
X62500000Y-62950000D03*
D22*
X70775000Y-65150000D03*
D21*
X73000000Y-59200000D03*
X62000000Y-59200000D03*
X80000000Y-59200000D03*
X91000000Y-59200000D03*
D22*
X88775000Y-65150000D03*
D23*
X80500000Y-62950000D03*
D24*
X85500000Y-59200000D03*
D23*
X85500000Y-65150000D03*
D22*
X77225000Y-62950000D03*
D13*
X90500000Y-54050000D03*
D21*
X98000000Y-59200000D03*
X109000000Y-59200000D03*
D22*
X106775000Y-65150000D03*
D23*
X98500000Y-62950000D03*
D24*
X103500000Y-59200000D03*
D23*
X103500000Y-65150000D03*
D22*
X95225000Y-62950000D03*
D13*
X108500000Y-54050000D03*
D21*
X116000000Y-59200000D03*
X127000000Y-59200000D03*
D22*
X124775000Y-65150000D03*
D23*
X116500000Y-62950000D03*
D24*
X121500000Y-59200000D03*
D23*
X121500000Y-65150000D03*
D22*
X113225000Y-62950000D03*
D13*
X126500000Y-54050000D03*
X144500000Y-54050000D03*
D22*
X131225000Y-62950000D03*
D23*
X139500000Y-65150000D03*
D24*
X139500000Y-59200000D03*
D23*
X134500000Y-62950000D03*
D22*
X142775000Y-65150000D03*
D21*
X145000000Y-59200000D03*
X134000000Y-59200000D03*
X152000000Y-59200000D03*
X163000000Y-59200000D03*
D22*
X160775000Y-65150000D03*
D23*
X152500000Y-62950000D03*
D24*
X157500000Y-59200000D03*
D23*
X157500000Y-65150000D03*
D22*
X149225000Y-62950000D03*
D13*
X162500000Y-54050000D03*
X180500000Y-54050000D03*
D22*
X167225000Y-62950000D03*
D23*
X175500000Y-65150000D03*
D24*
X175500000Y-59200000D03*
D23*
X170500000Y-62950000D03*
D22*
X178775000Y-65150000D03*
D21*
X181000000Y-59200000D03*
X170000000Y-59200000D03*
X188000000Y-59200000D03*
X199000000Y-59200000D03*
D22*
X196775000Y-65150000D03*
D23*
X188500000Y-62950000D03*
D24*
X193500000Y-59200000D03*
D23*
X193500000Y-65150000D03*
D22*
X185225000Y-62950000D03*
D13*
X198500000Y-54050000D03*
D21*
X206000000Y-59200000D03*
X217000000Y-59200000D03*
D22*
X214775000Y-65150000D03*
D23*
X206500000Y-62950000D03*
D24*
X211500000Y-59200000D03*
D23*
X211500000Y-65150000D03*
D22*
X203225000Y-62950000D03*
D13*
X216500000Y-54050000D03*
X239000000Y-54050000D03*
D22*
X225725000Y-62950000D03*
D23*
X234000000Y-65150000D03*
D24*
X234000000Y-59200000D03*
D23*
X229000000Y-62950000D03*
D22*
X237275000Y-65150000D03*
D21*
X239500000Y-59200000D03*
X228500000Y-59200000D03*
X255500000Y-59200000D03*
X266500000Y-59200000D03*
D22*
X264275000Y-65150000D03*
D23*
X256000000Y-62950000D03*
D24*
X261000000Y-59200000D03*
D23*
X261000000Y-65150000D03*
D22*
X252725000Y-62950000D03*
D13*
X266000000Y-54050000D03*
D21*
X-5500000Y-76200000D03*
X5500000Y-76200000D03*
D22*
X3275000Y-82150000D03*
D23*
X-5000000Y-79950000D03*
D24*
X0Y-76200000D03*
D23*
X0Y-82150000D03*
D22*
X-8275000Y-79950000D03*
D13*
X5000000Y-71050000D03*
X27500000Y-71050000D03*
D22*
X14225000Y-79950000D03*
D23*
X22500000Y-82150000D03*
D24*
X22500000Y-76200000D03*
D23*
X17500000Y-79950000D03*
D22*
X25775000Y-82150000D03*
D21*
X28000000Y-76200000D03*
X17000000Y-76200000D03*
D13*
X45500000Y-71050000D03*
D22*
X32225000Y-79950000D03*
D23*
X40500000Y-82150000D03*
D24*
X40500000Y-76200000D03*
D23*
X35500000Y-79950000D03*
D22*
X43775000Y-82150000D03*
D21*
X46000000Y-76200000D03*
X35000000Y-76200000D03*
D13*
X63500000Y-71050000D03*
D22*
X50225000Y-79950000D03*
D23*
X58500000Y-82150000D03*
D24*
X58500000Y-76200000D03*
D23*
X53500000Y-79950000D03*
D22*
X61775000Y-82150000D03*
D21*
X64000000Y-76200000D03*
X53000000Y-76200000D03*
D13*
X81500000Y-71050000D03*
D22*
X68225000Y-79950000D03*
D23*
X76500000Y-82150000D03*
D24*
X76500000Y-76200000D03*
D23*
X71500000Y-79950000D03*
D22*
X79775000Y-82150000D03*
D21*
X82000000Y-76200000D03*
X71000000Y-76200000D03*
X99500000Y-76200000D03*
X110500000Y-76200000D03*
D22*
X108275000Y-82150000D03*
D23*
X100000000Y-79950000D03*
D24*
X105000000Y-76200000D03*
D23*
X105000000Y-82150000D03*
D22*
X96725000Y-79950000D03*
D13*
X110000000Y-71050000D03*
X143000000Y-71050000D03*
D22*
X129725000Y-79950000D03*
D23*
X138000000Y-82150000D03*
D24*
X138000000Y-76200000D03*
D23*
X133000000Y-79950000D03*
D22*
X141275000Y-82150000D03*
D21*
X143500000Y-76200000D03*
X132500000Y-76200000D03*
D13*
X171500000Y-71050000D03*
D22*
X158225000Y-79950000D03*
D23*
X166500000Y-82150000D03*
D24*
X166500000Y-76200000D03*
D23*
X161500000Y-79950000D03*
D22*
X169775000Y-82150000D03*
D21*
X172000000Y-76200000D03*
X161000000Y-76200000D03*
D13*
X189500000Y-71050000D03*
D22*
X176225000Y-79950000D03*
D23*
X184500000Y-82150000D03*
D24*
X184500000Y-76200000D03*
D23*
X179500000Y-79950000D03*
D22*
X187775000Y-82150000D03*
D21*
X190000000Y-76200000D03*
X179000000Y-76200000D03*
X197000000Y-76200000D03*
X208000000Y-76200000D03*
D22*
X205775000Y-82150000D03*
D23*
X197500000Y-79950000D03*
D24*
X202500000Y-76200000D03*
D23*
X202500000Y-82150000D03*
D22*
X194225000Y-79950000D03*
D13*
X207500000Y-71050000D03*
X225500000Y-71050000D03*
D22*
X212225000Y-79950000D03*
D23*
X220500000Y-82150000D03*
D24*
X220500000Y-76200000D03*
D23*
X215500000Y-79950000D03*
D22*
X223775000Y-82150000D03*
D21*
X226000000Y-76200000D03*
X215000000Y-76200000D03*
D13*
X248000000Y-71050000D03*
D22*
X234725000Y-79950000D03*
D23*
X243000000Y-82150000D03*
D24*
X243000000Y-76200000D03*
D23*
X238000000Y-79950000D03*
D22*
X246275000Y-82150000D03*
D21*
X248500000Y-76200000D03*
X237500000Y-76200000D03*
D13*
X266000000Y-71050000D03*
D22*
X252725000Y-79950000D03*
D23*
X261000000Y-82150000D03*
D24*
X261000000Y-76200000D03*
D23*
X256000000Y-79950000D03*
D22*
X264275000Y-82150000D03*
D21*
X266500000Y-76200000D03*
X255500000Y-76200000D03*
X273500000Y-76200000D03*
X284500000Y-76200000D03*
D22*
X282275000Y-82150000D03*
D23*
X274000000Y-79950000D03*
D24*
X279000000Y-76200000D03*
D23*
X279000000Y-82150000D03*
D22*
X270725000Y-79950000D03*
D13*
X284000000Y-71050000D03*
M02*
