M48
; DRILL file {KiCad (5.1.8)-1} date 04/23/21 17:17:38
; FORMAT={-:-/ absolute / metric / decimal}
; #@! TF.CreationDate,2021-04-23T17:17:38-07:00
; #@! TF.GenerationSoftware,Kicad,Pcbnew,(5.1.8)-1
FMAT,2
METRIC
T1C0.400
T2C0.650
T3C1.270
T4C4.062
T5C0.700
T6C1.702
T7C3.000
T8C5.000
%
G90
G05
T1
X16.075Y-15.25
X16.075Y-16.7
X16.075Y-32.25
X16.075Y-34.15
X16.25Y-49.25
X16.25Y-50.7
X20.35Y-66.25
X20.35Y-67.7
X23.45Y-35.875
X26.45Y-34.6
X28.3Y-33.7
X32.225Y-15.25
X32.225Y-16.7
X32.225Y-32.25
X32.225Y-35.05
X32.225Y-49.25
X32.225Y-50.7
X35.625Y-66.25
X35.625Y-67.7
X50.2Y-35.05
X50.225Y-15.25
X50.225Y-16.7
X50.225Y-32.25
X50.225Y-49.25
X50.225Y-51.15
X59.225Y-66.25
X59.225Y-67.7
X68.225Y-15.25
X68.225Y-16.7
X68.225Y-32.25
X68.225Y-35.05
X68.225Y-49.25
X68.225Y-51.6
X77.225Y-66.25
X77.225Y-67.7
X86.225Y-15.25
X86.225Y-16.7
X86.225Y-32.25
X86.225Y-35.05
X86.225Y-49.25
X86.225Y-52.05
X95.225Y-66.25
X95.225Y-67.7
X104.225Y-15.25
X104.225Y-16.7
X104.225Y-32.25
X104.225Y-34.15
X104.225Y-36.05
X104.225Y-49.25
X104.225Y-52.5
X122.225Y-15.25
X122.225Y-16.7
X122.225Y-32.25
X122.225Y-35.5
X122.225Y-49.25
X122.225Y-52.5
X131.225Y-66.25
X131.225Y-67.7
X140.225Y-15.25
X140.225Y-16.7
X140.225Y-32.25
X140.225Y-35.5
X140.225Y-49.25
X140.225Y-52.5
X149.225Y-66.25
X149.225Y-67.7
X158.225Y-15.25
X158.225Y-16.7
X158.225Y-32.25
X158.225Y-35.5
X158.225Y-49.25
X158.225Y-52.5
X167.225Y-66.25
X167.225Y-68.15
X176.225Y-15.25
X176.225Y-16.7
X176.225Y-32.25
X176.225Y-35.5
X176.225Y-49.25
X176.225Y-52.5
X185.225Y-66.25
X185.225Y-68.6
X194.225Y-15.25
X194.225Y-16.7
X194.225Y-32.25
X194.225Y-35.5
X194.225Y-49.25
X194.225Y-52.5
X203.225Y-66.25
X203.225Y-69.05
X212.2Y-16.7
X212.225Y-15.25
X212.225Y-32.25
X212.225Y-35.5
X212.225Y-49.25
X212.225Y-52.5
X228.85Y-66.25
X228.85Y-69.5
X230.225Y-15.25
X230.225Y-16.7
X230.225Y-32.25
X230.225Y-35.5
X230.225Y-49.25
X230.225Y-52.5
X231.225Y-15.25
X231.225Y-16.7
X238.875Y-1.2
X240.1Y-56.625
X241.35Y-1.2
X241.55Y-56.625
X242.15Y-7.725
X245.725Y-40.075
X245.827Y-7.265
X247.393Y-38.407
X249.7Y-8.5
X251.975Y-51.634
X252.725Y-16.039
X252.725Y-18.999
X252.725Y-66.25
X252.725Y-69.95
X253.375Y-8.7
X255.981Y-47.63
X259.258Y-4.102
X261.742Y-44.314
X261.748Y-47.33
X263.852Y-34.675
X264.577Y-37.025
X264.937Y-38.488
X266.027Y-34.675
X266.85Y-32.35
X267.975Y-32.35
X268.892Y-35.318
X269.518Y-58.432
X270.225Y-57.725
X270.722Y-33.49
X271.51Y-60.424
X271.875Y-44.85
X272.225Y-59.725
X272.478Y-56.426
X274.534Y-41.852
X276.372Y-49.54
X277.442Y-42.816
X278.83Y-46.954
X279.025Y-68.5
X280.256Y-33.798
X280.687Y-70.162
X281.754Y-58.92
X283.466Y-55.048
X283.914Y-47.84
X284.938Y-37.304
X285.534Y-54.838
X286.318Y-38.684
X286.887Y-15.113
X287.913Y-14.087
T3
X216.5Y-54.05
X198.5Y-54.05
X117.5Y-37.05
X243.5Y-37.05
X171.5Y-37.05
X243.5Y-3.05
X99.5Y-3.05
X153.5Y-20.05
X99.5Y-20.05
X63.5Y-37.05
X162.5Y-54.05
X143.0Y-71.05
X99.5Y-37.05
X225.5Y-37.05
X207.5Y-71.05
X5.0Y-3.05
X266.0Y-71.05
X63.5Y-3.05
X284.0Y-3.05
X45.5Y-20.05
X63.5Y-20.05
X266.0Y-20.05
X189.5Y-37.05
X27.5Y-71.05
X180.5Y-54.05
X248.0Y-71.05
X81.5Y-71.05
X135.5Y-3.05
X81.5Y-3.05
X5.0Y-20.05
X27.5Y-37.05
X284.0Y-20.05
X32.0Y-54.05
X266.0Y-54.05
X5.0Y-71.05
X135.5Y-37.05
X63.5Y-71.05
X110.0Y-71.05
X284.0Y-71.05
X117.5Y-3.05
X27.5Y-3.05
X225.5Y-3.05
X117.5Y-20.05
X243.5Y-20.05
X189.5Y-71.05
X108.5Y-54.05
X72.5Y-54.05
X54.5Y-54.05
X126.5Y-54.05
X45.5Y-3.05
X27.5Y-20.05
X255.592Y-53.67
X259.592Y-53.67
X171.5Y-3.05
X5.0Y-37.05
X171.5Y-20.05
X45.5Y-71.05
X171.5Y-71.05
X207.5Y-37.05
X5.0Y-54.05
X225.5Y-71.05
X266.0Y-3.05
X189.5Y-3.05
X45.5Y-37.05
X135.5Y-20.05
X81.5Y-20.05
X239.0Y-54.05
X90.5Y-54.05
X153.5Y-37.05
X81.5Y-37.05
X144.5Y-54.05
X207.5Y-3.05
X153.5Y-3.05
X207.5Y-20.05
X189.5Y-20.05
X225.5Y-20.05
T4
X37.5Y-54.9
X223.5Y-54.9
T5
X246.86Y-4.675
X252.64Y-4.675
T6
X179.0Y-76.2
X190.0Y-76.2
X98.0Y-59.2
X109.0Y-59.2
X62.0Y-59.2
X73.0Y-59.2
X44.0Y-59.2
X55.0Y-59.2
X116.0Y-59.2
X127.0Y-59.2
X35.0Y-8.2
X46.0Y-8.2
X17.0Y-25.2
X28.0Y-25.2
X161.0Y-8.2
X172.0Y-8.2
X-5.5Y-42.2
X5.5Y-42.2
X161.0Y-25.2
X172.0Y-25.2
X35.0Y-76.2
X46.0Y-76.2
X161.0Y-76.2
X172.0Y-76.2
X197.0Y-42.2
X208.0Y-42.2
X-5.5Y-59.2
X5.5Y-59.2
X215.0Y-76.2
X226.0Y-76.2
X255.5Y-8.2
X266.5Y-8.2
X179.0Y-8.2
X190.0Y-8.2
X35.0Y-42.2
X46.0Y-42.2
X125.0Y-25.2
X136.0Y-25.2
X71.0Y-25.2
X82.0Y-25.2
X228.5Y-59.2
X239.5Y-59.2
X80.0Y-59.2
X91.0Y-59.2
X143.0Y-42.2
X154.0Y-42.2
X71.0Y-42.2
X82.0Y-42.2
X134.0Y-59.2
X145.0Y-59.2
X197.0Y-8.2
X208.0Y-8.2
X143.0Y-8.2
X154.0Y-8.2
X197.0Y-25.2
X208.0Y-25.2
X179.0Y-25.2
X190.0Y-25.2
X215.0Y-25.2
X226.0Y-25.2
X206.0Y-59.2
X217.0Y-59.2
X188.0Y-59.2
X199.0Y-59.2
X107.0Y-42.2
X118.0Y-42.2
X233.0Y-42.2
X244.0Y-42.2
X161.0Y-42.2
X172.0Y-42.2
X233.0Y-8.2
X244.0Y-8.2
X89.0Y-8.2
X100.0Y-8.2
X143.0Y-25.2
X154.0Y-25.2
X89.0Y-25.2
X100.0Y-25.2
X53.0Y-42.2
X64.0Y-42.2
X152.0Y-59.2
X163.0Y-59.2
X132.5Y-76.2
X143.5Y-76.2
X89.0Y-42.2
X100.0Y-42.2
X215.0Y-42.2
X226.0Y-42.2
X197.0Y-76.2
X208.0Y-76.2
X-5.5Y-8.2
X5.5Y-8.2
X255.5Y-76.2
X266.5Y-76.2
X53.0Y-8.2
X64.0Y-8.2
X273.5Y-8.2
X284.5Y-8.2
X35.0Y-25.2
X46.0Y-25.2
X53.0Y-25.2
X64.0Y-25.2
X255.5Y-25.2
X266.5Y-25.2
X179.0Y-42.2
X190.0Y-42.2
X17.0Y-76.2
X28.0Y-76.2
X170.0Y-59.2
X181.0Y-59.2
X237.5Y-76.2
X248.5Y-76.2
X71.0Y-76.2
X82.0Y-76.2
X125.0Y-8.2
X136.0Y-8.2
X71.0Y-8.2
X82.0Y-8.2
X-5.5Y-25.2
X5.5Y-25.2
X17.0Y-42.2
X28.0Y-42.2
X273.5Y-25.2
X284.5Y-25.2
X21.5Y-59.2
X32.5Y-59.2
X255.5Y-59.2
X266.5Y-59.2
X-5.5Y-76.2
X5.5Y-76.2
X125.0Y-42.2
X136.0Y-42.2
X53.0Y-76.2
X64.0Y-76.2
X99.5Y-76.2
X110.5Y-76.2
X273.5Y-76.2
X284.5Y-76.2
X107.0Y-8.2
X118.0Y-8.2
X17.0Y-8.2
X28.0Y-8.2
X215.0Y-8.2
X226.0Y-8.2
X107.0Y-25.2
X118.0Y-25.2
X233.0Y-25.2
X244.0Y-25.2
T7
X179.5Y-79.95
X184.5Y-82.15
X98.5Y-62.95
X103.5Y-65.15
X62.5Y-62.95
X67.5Y-65.15
X44.5Y-62.95
X49.5Y-65.15
X116.5Y-62.95
X121.5Y-65.15
X35.5Y-11.95
X40.5Y-14.15
X17.5Y-28.95
X22.5Y-31.15
X161.5Y-11.95
X166.5Y-14.15
X-5.0Y-45.95
X0.0Y-48.15
X161.5Y-28.95
X166.5Y-31.15
X35.5Y-79.95
X40.5Y-82.15
X161.5Y-79.95
X166.5Y-82.15
X197.5Y-45.95
X202.5Y-48.15
X-5.0Y-62.95
X0.0Y-65.15
X215.5Y-79.95
X220.5Y-82.15
X256.0Y-11.95
X261.0Y-14.15
X179.5Y-11.95
X184.5Y-14.15
X35.5Y-45.95
X40.5Y-48.15
X125.5Y-28.95
X130.5Y-31.15
X71.5Y-28.95
X76.5Y-31.15
X229.0Y-62.95
X234.0Y-65.15
X80.5Y-62.95
X85.5Y-65.15
X143.5Y-45.95
X148.5Y-48.15
X71.5Y-45.95
X76.5Y-48.15
X134.5Y-62.95
X139.5Y-65.15
X197.5Y-11.95
X202.5Y-14.15
X143.5Y-11.95
X148.5Y-14.15
X197.5Y-28.95
X202.5Y-31.15
X179.5Y-28.95
X184.5Y-31.15
X215.5Y-28.95
X220.5Y-31.15
X206.5Y-62.95
X211.5Y-65.15
X188.5Y-62.95
X193.5Y-65.15
X107.5Y-45.95
X112.5Y-48.15
X233.5Y-45.95
X238.5Y-48.15
X161.5Y-45.95
X166.5Y-48.15
X233.5Y-11.95
X238.5Y-14.15
X89.5Y-11.95
X94.5Y-14.15
X143.5Y-28.95
X148.5Y-31.15
X89.5Y-28.95
X94.5Y-31.15
X53.5Y-45.95
X58.5Y-48.15
X152.5Y-62.95
X157.5Y-65.15
X133.0Y-79.95
X138.0Y-82.15
X89.5Y-45.95
X94.5Y-48.15
X215.5Y-45.95
X220.5Y-48.15
X197.5Y-79.95
X202.5Y-82.15
X-5.0Y-11.95
X0.0Y-14.15
X256.0Y-79.95
X261.0Y-82.15
X53.5Y-11.95
X58.5Y-14.15
X274.0Y-11.95
X279.0Y-14.15
X35.5Y-28.95
X40.5Y-31.15
X53.5Y-28.95
X58.5Y-31.15
X256.0Y-28.95
X261.0Y-31.15
X179.5Y-45.95
X184.5Y-48.15
X17.5Y-79.95
X22.5Y-82.15
X170.5Y-62.95
X175.5Y-65.15
X238.0Y-79.95
X243.0Y-82.15
X71.5Y-79.95
X76.5Y-82.15
X125.5Y-11.95
X130.5Y-14.15
X71.5Y-11.95
X76.5Y-14.15
X-5.0Y-28.95
X0.0Y-31.15
X17.5Y-45.95
X22.5Y-48.15
X274.0Y-28.95
X279.0Y-31.15
X22.0Y-62.95
X27.0Y-65.15
X256.0Y-62.95
X261.0Y-65.15
X-5.0Y-79.95
X0.0Y-82.15
X125.5Y-45.95
X130.5Y-48.15
X53.5Y-79.95
X58.5Y-82.15
X100.0Y-79.95
X105.0Y-82.15
X274.0Y-79.95
X279.0Y-82.15
X107.5Y-11.95
X112.5Y-14.15
X17.5Y-11.95
X22.5Y-14.15
X215.5Y-11.95
X220.5Y-14.15
X107.5Y-28.95
X112.5Y-31.15
X233.5Y-28.95
X238.5Y-31.15
T8
X211.5Y-59.2
X193.5Y-59.2
X112.5Y-42.2
X238.5Y-42.2
X166.5Y-42.2
X238.5Y-8.2
X94.5Y-8.2
X148.5Y-25.2
X94.5Y-25.2
X58.5Y-42.2
X157.5Y-59.2
X138.0Y-76.2
X94.5Y-42.2
X220.5Y-42.2
X202.5Y-76.2
X0.0Y-8.2
X261.0Y-76.2
X58.5Y-8.2
X279.0Y-8.2
X40.5Y-25.2
X58.5Y-25.2
X261.0Y-25.2
X184.5Y-42.2
X22.5Y-76.2
X175.5Y-59.2
X243.0Y-76.2
X76.5Y-76.2
X130.5Y-8.2
X76.5Y-8.2
X0.0Y-25.2
X22.5Y-42.2
X279.0Y-25.2
X27.0Y-59.2
X261.0Y-59.2
X0.0Y-76.2
X130.5Y-42.2
X58.5Y-76.2
X105.0Y-76.2
X279.0Y-76.2
X112.5Y-8.2
X22.5Y-8.2
X220.5Y-8.2
X112.5Y-25.2
X238.5Y-25.2
X184.5Y-76.2
X103.5Y-59.2
X67.5Y-59.2
X49.5Y-59.2
X121.5Y-59.2
X40.5Y-8.2
X22.5Y-25.2
X166.5Y-8.2
X0.0Y-42.2
X166.5Y-25.2
X40.5Y-76.2
X166.5Y-76.2
X202.5Y-42.2
X0.0Y-59.2
X220.5Y-76.2
X261.0Y-8.2
X184.5Y-8.2
X40.5Y-42.2
X130.5Y-25.2
X76.5Y-25.2
X234.0Y-59.2
X85.5Y-59.2
X148.5Y-42.2
X76.5Y-42.2
X139.5Y-59.2
X202.5Y-8.2
X148.5Y-8.2
X202.5Y-25.2
X184.5Y-25.2
X220.5Y-25.2
T2
G00X245.43Y-0.725
M15
G01X245.43Y-1.325
M16
G05
G00X245.43Y-4.655
M15
G01X245.43Y-5.755
M16
G05
G00X254.07Y-0.725
M15
G01X254.07Y-1.325
M16
G05
G00X254.07Y-4.655
M15
G01X254.07Y-5.755
M16
G05
T0
M30
