G04 #@! TF.GenerationSoftware,KiCad,Pcbnew,(5.1.8)-1*
G04 #@! TF.CreationDate,2021-04-23T17:16:51-07:00*
G04 #@! TF.ProjectId,Spritzgeback,53707269-747a-4676-9562-61636b2e6b69,rev?*
G04 #@! TF.SameCoordinates,Original*
G04 #@! TF.FileFunction,Profile,NP*
%FSLAX46Y46*%
G04 Gerber Fmt 4.6, Leading zero omitted, Abs format (unit mm)*
G04 Created by KiCad (PCBNEW (5.1.8)-1) date 2021-04-23 17:16:51*
%MOMM*%
%LPD*%
G01*
G04 APERTURE LIST*
G04 #@! TA.AperFunction,Profile*
%ADD10C,0.050000*%
G04 #@! TD*
G04 APERTURE END LIST*
D10*
X141519999Y1825000D02*
G75*
G02*
X137480000Y1824999I-2019999J-775000D01*
G01*
X83530505Y-85726302D02*
G75*
G02*
X87530000Y-85725000I1999495J776302D01*
G01*
X191470000Y-85725000D02*
G75*
G02*
X195470000Y-85725000I2000000J775000D01*
G01*
X141520000Y1825000D02*
X287850000Y1825000D01*
X195470000Y-85725000D02*
X287850000Y-85725000D01*
X87530000Y-85725000D02*
X191470000Y-85725000D01*
X289850000Y-78050000D02*
X289850000Y-83725000D01*
X289850000Y-73750000D02*
X289850000Y-10650000D01*
X-10850000Y-83725000D02*
X-10850000Y-78050000D01*
X-10850000Y-73750000D02*
X-10850000Y-10650000D01*
X-10850000Y-78050000D02*
G75*
G03*
X-10850000Y-73750000I0J2150000D01*
G01*
X-10850000Y-10650000D02*
G75*
G03*
X-10850000Y-6350000I0J2150000D01*
G01*
X289850000Y-78050000D02*
G75*
G02*
X289850000Y-73750000I0J2150000D01*
G01*
X289850000Y-10650000D02*
G75*
G02*
X289850000Y-6350000I0J2150000D01*
G01*
X-10850000Y-83725000D02*
G75*
G03*
X-8850000Y-85725000I2000000J0D01*
G01*
X287850000Y-85725000D02*
G75*
G03*
X289850000Y-83725000I0J2000000D01*
G01*
X289850000Y-175000D02*
G75*
G03*
X287850000Y1825000I-2000000J0D01*
G01*
X-10850000Y-175000D02*
G75*
G02*
X-8850000Y1825000I2000000J0D01*
G01*
X-10850000Y-6350000D02*
X-10850000Y-175000D01*
X83530000Y-85725000D02*
X-8850000Y-85725000D01*
X289850000Y-175000D02*
X289850000Y-6350000D01*
X-8850000Y1825000D02*
X137480000Y1824999D01*
M02*
