G04 #@! TF.GenerationSoftware,KiCad,Pcbnew,(5.1.8)-1*
G04 #@! TF.CreationDate,2021-02-07T11:47:01-08:00*
G04 #@! TF.ProjectId,Spritzgeback,53707269-747a-4676-9562-61636b2e6b69,rev?*
G04 #@! TF.SameCoordinates,Original*
G04 #@! TF.FileFunction,Legend,Top*
G04 #@! TF.FilePolarity,Positive*
%FSLAX46Y46*%
G04 Gerber Fmt 4.6, Leading zero omitted, Abs format (unit mm)*
G04 Created by KiCad (PCBNEW (5.1.8)-1) date 2021-02-07 11:47:01*
%MOMM*%
%LPD*%
G01*
G04 APERTURE LIST*
%ADD10C,0.150000*%
%ADD11C,0.120000*%
G04 APERTURE END LIST*
D10*
X257031250Y-50150000D02*
X257031250Y-51150000D01*
X256031250Y-64150000D02*
X257031250Y-64150000D01*
X257031250Y-50150000D02*
X256031250Y-50150000D01*
X257031250Y-63150000D02*
X257031250Y-64150000D01*
X243031250Y-64150000D02*
X243031250Y-63150000D01*
X244031250Y-50150000D02*
X243031250Y-50150000D01*
X243031250Y-64150000D02*
X244031250Y-64150000D01*
X243031250Y-51150000D02*
X243031250Y-50150000D01*
X33193750Y-50150000D02*
X33193750Y-51150000D01*
X32193750Y-64150000D02*
X33193750Y-64150000D01*
X33193750Y-50150000D02*
X32193750Y-50150000D01*
X33193750Y-63150000D02*
X33193750Y-64150000D01*
X19193750Y-64150000D02*
X19193750Y-63150000D01*
X20193750Y-50150000D02*
X19193750Y-50150000D01*
X19193750Y-64150000D02*
X20193750Y-64150000D01*
X19193750Y-51150000D02*
X19193750Y-50150000D01*
X9381250Y-69200000D02*
X9381250Y-70200000D01*
X8381250Y-83200000D02*
X9381250Y-83200000D01*
X9381250Y-69200000D02*
X8381250Y-69200000D01*
X9381250Y-82200000D02*
X9381250Y-83200000D01*
X-4618750Y-83200000D02*
X-4618750Y-82200000D01*
X-3618750Y-69200000D02*
X-4618750Y-69200000D01*
X-4618750Y-83200000D02*
X-3618750Y-83200000D01*
X-4618750Y-70200000D02*
X-4618750Y-69200000D01*
X242743750Y-69200000D02*
X242743750Y-70200000D01*
X241743750Y-83200000D02*
X242743750Y-83200000D01*
X242743750Y-69200000D02*
X241743750Y-69200000D01*
X242743750Y-82200000D02*
X242743750Y-83200000D01*
X228743750Y-83200000D02*
X228743750Y-82200000D01*
X229743750Y-69200000D02*
X228743750Y-69200000D01*
X228743750Y-83200000D02*
X229743750Y-83200000D01*
X228743750Y-70200000D02*
X228743750Y-69200000D01*
D11*
X25585000Y-32490000D02*
X22900000Y-32490000D01*
X25585000Y-34410000D02*
X25585000Y-32490000D01*
X22900000Y-34410000D02*
X25585000Y-34410000D01*
D10*
X-7000000Y6000000D02*
X-7000000Y7000000D01*
X-7000000Y-7000000D02*
X-6000000Y-7000000D01*
X-6000000Y7000000D02*
X-7000000Y7000000D01*
X-7000000Y-7000000D02*
X-7000000Y-6000000D01*
X7000000Y-6000000D02*
X7000000Y-7000000D01*
X7000000Y7000000D02*
X6000000Y7000000D01*
X6000000Y-7000000D02*
X7000000Y-7000000D01*
X7000000Y7000000D02*
X7000000Y6000000D01*
X30812500Y7000000D02*
X30812500Y6000000D01*
X29812500Y-7000000D02*
X30812500Y-7000000D01*
X30812500Y7000000D02*
X29812500Y7000000D01*
X30812500Y-6000000D02*
X30812500Y-7000000D01*
X16812500Y-7000000D02*
X16812500Y-6000000D01*
X17812500Y7000000D02*
X16812500Y7000000D01*
X16812500Y-7000000D02*
X17812500Y-7000000D01*
X16812500Y6000000D02*
X16812500Y7000000D01*
X35862500Y6000000D02*
X35862500Y7000000D01*
X35862500Y-7000000D02*
X36862500Y-7000000D01*
X36862500Y7000000D02*
X35862500Y7000000D01*
X35862500Y-7000000D02*
X35862500Y-6000000D01*
X49862500Y-6000000D02*
X49862500Y-7000000D01*
X49862500Y7000000D02*
X48862500Y7000000D01*
X48862500Y-7000000D02*
X49862500Y-7000000D01*
X49862500Y7000000D02*
X49862500Y6000000D01*
X68912500Y7000000D02*
X68912500Y6000000D01*
X67912500Y-7000000D02*
X68912500Y-7000000D01*
X68912500Y7000000D02*
X67912500Y7000000D01*
X68912500Y-6000000D02*
X68912500Y-7000000D01*
X54912500Y-7000000D02*
X54912500Y-6000000D01*
X55912500Y7000000D02*
X54912500Y7000000D01*
X54912500Y-7000000D02*
X55912500Y-7000000D01*
X54912500Y6000000D02*
X54912500Y7000000D01*
X73962500Y6000000D02*
X73962500Y7000000D01*
X73962500Y-7000000D02*
X74962500Y-7000000D01*
X74962500Y7000000D02*
X73962500Y7000000D01*
X73962500Y-7000000D02*
X73962500Y-6000000D01*
X87962500Y-6000000D02*
X87962500Y-7000000D01*
X87962500Y7000000D02*
X86962500Y7000000D01*
X86962500Y-7000000D02*
X87962500Y-7000000D01*
X87962500Y7000000D02*
X87962500Y6000000D01*
X93012500Y6000000D02*
X93012500Y7000000D01*
X93012500Y-7000000D02*
X94012500Y-7000000D01*
X94012500Y7000000D02*
X93012500Y7000000D01*
X93012500Y-7000000D02*
X93012500Y-6000000D01*
X107012500Y-6000000D02*
X107012500Y-7000000D01*
X107012500Y7000000D02*
X106012500Y7000000D01*
X106012500Y-7000000D02*
X107012500Y-7000000D01*
X107012500Y7000000D02*
X107012500Y6000000D01*
X112062500Y6000000D02*
X112062500Y7000000D01*
X112062500Y-7000000D02*
X113062500Y-7000000D01*
X113062500Y7000000D02*
X112062500Y7000000D01*
X112062500Y-7000000D02*
X112062500Y-6000000D01*
X126062500Y-6000000D02*
X126062500Y-7000000D01*
X126062500Y7000000D02*
X125062500Y7000000D01*
X125062500Y-7000000D02*
X126062500Y-7000000D01*
X126062500Y7000000D02*
X126062500Y6000000D01*
X145112500Y7000000D02*
X145112500Y6000000D01*
X144112500Y-7000000D02*
X145112500Y-7000000D01*
X145112500Y7000000D02*
X144112500Y7000000D01*
X145112500Y-6000000D02*
X145112500Y-7000000D01*
X131112500Y-7000000D02*
X131112500Y-6000000D01*
X132112500Y7000000D02*
X131112500Y7000000D01*
X131112500Y-7000000D02*
X132112500Y-7000000D01*
X131112500Y6000000D02*
X131112500Y7000000D01*
X150162500Y6000000D02*
X150162500Y7000000D01*
X150162500Y-7000000D02*
X151162500Y-7000000D01*
X151162500Y7000000D02*
X150162500Y7000000D01*
X150162500Y-7000000D02*
X150162500Y-6000000D01*
X164162500Y-6000000D02*
X164162500Y-7000000D01*
X164162500Y7000000D02*
X163162500Y7000000D01*
X163162500Y-7000000D02*
X164162500Y-7000000D01*
X164162500Y7000000D02*
X164162500Y6000000D01*
X183212500Y7000000D02*
X183212500Y6000000D01*
X182212500Y-7000000D02*
X183212500Y-7000000D01*
X183212500Y7000000D02*
X182212500Y7000000D01*
X183212500Y-6000000D02*
X183212500Y-7000000D01*
X169212500Y-7000000D02*
X169212500Y-6000000D01*
X170212500Y7000000D02*
X169212500Y7000000D01*
X169212500Y-7000000D02*
X170212500Y-7000000D01*
X169212500Y6000000D02*
X169212500Y7000000D01*
X188262500Y6000000D02*
X188262500Y7000000D01*
X188262500Y-7000000D02*
X189262500Y-7000000D01*
X189262500Y7000000D02*
X188262500Y7000000D01*
X188262500Y-7000000D02*
X188262500Y-6000000D01*
X202262500Y-6000000D02*
X202262500Y-7000000D01*
X202262500Y7000000D02*
X201262500Y7000000D01*
X201262500Y-7000000D02*
X202262500Y-7000000D01*
X202262500Y7000000D02*
X202262500Y6000000D01*
X207312500Y6000000D02*
X207312500Y7000000D01*
X207312500Y-7000000D02*
X208312500Y-7000000D01*
X208312500Y7000000D02*
X207312500Y7000000D01*
X207312500Y-7000000D02*
X207312500Y-6000000D01*
X221312500Y-6000000D02*
X221312500Y-7000000D01*
X221312500Y7000000D02*
X220312500Y7000000D01*
X220312500Y-7000000D02*
X221312500Y-7000000D01*
X221312500Y7000000D02*
X221312500Y6000000D01*
X240362500Y7000000D02*
X240362500Y6000000D01*
X239362500Y-7000000D02*
X240362500Y-7000000D01*
X240362500Y7000000D02*
X239362500Y7000000D01*
X240362500Y-6000000D02*
X240362500Y-7000000D01*
X226362500Y-7000000D02*
X226362500Y-6000000D01*
X227362500Y7000000D02*
X226362500Y7000000D01*
X226362500Y-7000000D02*
X227362500Y-7000000D01*
X226362500Y6000000D02*
X226362500Y7000000D01*
X245412500Y6000000D02*
X245412500Y7000000D01*
X245412500Y-7000000D02*
X246412500Y-7000000D01*
X246412500Y7000000D02*
X245412500Y7000000D01*
X245412500Y-7000000D02*
X245412500Y-6000000D01*
X259412500Y-6000000D02*
X259412500Y-7000000D01*
X259412500Y7000000D02*
X258412500Y7000000D01*
X258412500Y-7000000D02*
X259412500Y-7000000D01*
X259412500Y7000000D02*
X259412500Y6000000D01*
X302275000Y7000000D02*
X302275000Y6000000D01*
X301275000Y-7000000D02*
X302275000Y-7000000D01*
X302275000Y7000000D02*
X301275000Y7000000D01*
X302275000Y-6000000D02*
X302275000Y-7000000D01*
X288275000Y-7000000D02*
X288275000Y-6000000D01*
X289275000Y7000000D02*
X288275000Y7000000D01*
X288275000Y-7000000D02*
X289275000Y-7000000D01*
X288275000Y6000000D02*
X288275000Y7000000D01*
X-7000000Y-13050000D02*
X-7000000Y-12050000D01*
X-7000000Y-26050000D02*
X-6000000Y-26050000D01*
X-6000000Y-12050000D02*
X-7000000Y-12050000D01*
X-7000000Y-26050000D02*
X-7000000Y-25050000D01*
X7000000Y-25050000D02*
X7000000Y-26050000D01*
X7000000Y-12050000D02*
X6000000Y-12050000D01*
X6000000Y-26050000D02*
X7000000Y-26050000D01*
X7000000Y-12050000D02*
X7000000Y-13050000D01*
X30812500Y-12050000D02*
X30812500Y-13050000D01*
X29812500Y-26050000D02*
X30812500Y-26050000D01*
X30812500Y-12050000D02*
X29812500Y-12050000D01*
X30812500Y-25050000D02*
X30812500Y-26050000D01*
X16812500Y-26050000D02*
X16812500Y-25050000D01*
X17812500Y-12050000D02*
X16812500Y-12050000D01*
X16812500Y-26050000D02*
X17812500Y-26050000D01*
X16812500Y-13050000D02*
X16812500Y-12050000D01*
X35862500Y-13050000D02*
X35862500Y-12050000D01*
X35862500Y-26050000D02*
X36862500Y-26050000D01*
X36862500Y-12050000D02*
X35862500Y-12050000D01*
X35862500Y-26050000D02*
X35862500Y-25050000D01*
X49862500Y-25050000D02*
X49862500Y-26050000D01*
X49862500Y-12050000D02*
X48862500Y-12050000D01*
X48862500Y-26050000D02*
X49862500Y-26050000D01*
X49862500Y-12050000D02*
X49862500Y-13050000D01*
X68912500Y-12050000D02*
X68912500Y-13050000D01*
X67912500Y-26050000D02*
X68912500Y-26050000D01*
X68912500Y-12050000D02*
X67912500Y-12050000D01*
X68912500Y-25050000D02*
X68912500Y-26050000D01*
X54912500Y-26050000D02*
X54912500Y-25050000D01*
X55912500Y-12050000D02*
X54912500Y-12050000D01*
X54912500Y-26050000D02*
X55912500Y-26050000D01*
X54912500Y-13050000D02*
X54912500Y-12050000D01*
X87962500Y-12050000D02*
X87962500Y-13050000D01*
X86962500Y-26050000D02*
X87962500Y-26050000D01*
X87962500Y-12050000D02*
X86962500Y-12050000D01*
X87962500Y-25050000D02*
X87962500Y-26050000D01*
X73962500Y-26050000D02*
X73962500Y-25050000D01*
X74962500Y-12050000D02*
X73962500Y-12050000D01*
X73962500Y-26050000D02*
X74962500Y-26050000D01*
X73962500Y-13050000D02*
X73962500Y-12050000D01*
X107012500Y-12050000D02*
X107012500Y-13050000D01*
X106012500Y-26050000D02*
X107012500Y-26050000D01*
X107012500Y-12050000D02*
X106012500Y-12050000D01*
X107012500Y-25050000D02*
X107012500Y-26050000D01*
X93012500Y-26050000D02*
X93012500Y-25050000D01*
X94012500Y-12050000D02*
X93012500Y-12050000D01*
X93012500Y-26050000D02*
X94012500Y-26050000D01*
X93012500Y-13050000D02*
X93012500Y-12050000D01*
X112062500Y-13050000D02*
X112062500Y-12050000D01*
X112062500Y-26050000D02*
X113062500Y-26050000D01*
X113062500Y-12050000D02*
X112062500Y-12050000D01*
X112062500Y-26050000D02*
X112062500Y-25050000D01*
X126062500Y-25050000D02*
X126062500Y-26050000D01*
X126062500Y-12050000D02*
X125062500Y-12050000D01*
X125062500Y-26050000D02*
X126062500Y-26050000D01*
X126062500Y-12050000D02*
X126062500Y-13050000D01*
X145112500Y-12050000D02*
X145112500Y-13050000D01*
X144112500Y-26050000D02*
X145112500Y-26050000D01*
X145112500Y-12050000D02*
X144112500Y-12050000D01*
X145112500Y-25050000D02*
X145112500Y-26050000D01*
X131112500Y-26050000D02*
X131112500Y-25050000D01*
X132112500Y-12050000D02*
X131112500Y-12050000D01*
X131112500Y-26050000D02*
X132112500Y-26050000D01*
X131112500Y-13050000D02*
X131112500Y-12050000D01*
X150162500Y-13050000D02*
X150162500Y-12050000D01*
X150162500Y-26050000D02*
X151162500Y-26050000D01*
X151162500Y-12050000D02*
X150162500Y-12050000D01*
X150162500Y-26050000D02*
X150162500Y-25050000D01*
X164162500Y-25050000D02*
X164162500Y-26050000D01*
X164162500Y-12050000D02*
X163162500Y-12050000D01*
X163162500Y-26050000D02*
X164162500Y-26050000D01*
X164162500Y-12050000D02*
X164162500Y-13050000D01*
X183212500Y-12050000D02*
X183212500Y-13050000D01*
X182212500Y-26050000D02*
X183212500Y-26050000D01*
X183212500Y-12050000D02*
X182212500Y-12050000D01*
X183212500Y-25050000D02*
X183212500Y-26050000D01*
X169212500Y-26050000D02*
X169212500Y-25050000D01*
X170212500Y-12050000D02*
X169212500Y-12050000D01*
X169212500Y-26050000D02*
X170212500Y-26050000D01*
X169212500Y-13050000D02*
X169212500Y-12050000D01*
X188262500Y-13050000D02*
X188262500Y-12050000D01*
X188262500Y-26050000D02*
X189262500Y-26050000D01*
X189262500Y-12050000D02*
X188262500Y-12050000D01*
X188262500Y-26050000D02*
X188262500Y-25050000D01*
X202262500Y-25050000D02*
X202262500Y-26050000D01*
X202262500Y-12050000D02*
X201262500Y-12050000D01*
X201262500Y-26050000D02*
X202262500Y-26050000D01*
X202262500Y-12050000D02*
X202262500Y-13050000D01*
X221312500Y-12050000D02*
X221312500Y-13050000D01*
X220312500Y-26050000D02*
X221312500Y-26050000D01*
X221312500Y-12050000D02*
X220312500Y-12050000D01*
X221312500Y-25050000D02*
X221312500Y-26050000D01*
X207312500Y-26050000D02*
X207312500Y-25050000D01*
X208312500Y-12050000D02*
X207312500Y-12050000D01*
X207312500Y-26050000D02*
X208312500Y-26050000D01*
X207312500Y-13050000D02*
X207312500Y-12050000D01*
X226362500Y-13050000D02*
X226362500Y-12050000D01*
X226362500Y-26050000D02*
X227362500Y-26050000D01*
X227362500Y-12050000D02*
X226362500Y-12050000D01*
X226362500Y-26050000D02*
X226362500Y-25050000D01*
X240362500Y-25050000D02*
X240362500Y-26050000D01*
X240362500Y-12050000D02*
X239362500Y-12050000D01*
X239362500Y-26050000D02*
X240362500Y-26050000D01*
X240362500Y-12050000D02*
X240362500Y-13050000D01*
X259412500Y-12050000D02*
X259412500Y-13050000D01*
X258412500Y-26050000D02*
X259412500Y-26050000D01*
X259412500Y-12050000D02*
X258412500Y-12050000D01*
X259412500Y-25050000D02*
X259412500Y-26050000D01*
X245412500Y-26050000D02*
X245412500Y-25050000D01*
X246412500Y-12050000D02*
X245412500Y-12050000D01*
X245412500Y-26050000D02*
X246412500Y-26050000D01*
X245412500Y-13050000D02*
X245412500Y-12050000D01*
X269225000Y6000000D02*
X269225000Y7000000D01*
X269225000Y-7000000D02*
X270225000Y-7000000D01*
X270225000Y7000000D02*
X269225000Y7000000D01*
X269225000Y-7000000D02*
X269225000Y-6000000D01*
X283225000Y-6000000D02*
X283225000Y-7000000D01*
X283225000Y7000000D02*
X282225000Y7000000D01*
X282225000Y-7000000D02*
X283225000Y-7000000D01*
X283225000Y7000000D02*
X283225000Y6000000D01*
X7000000Y-31100000D02*
X7000000Y-32100000D01*
X6000000Y-45100000D02*
X7000000Y-45100000D01*
X7000000Y-31100000D02*
X6000000Y-31100000D01*
X7000000Y-44100000D02*
X7000000Y-45100000D01*
X-7000000Y-45100000D02*
X-7000000Y-44100000D01*
X-6000000Y-31100000D02*
X-7000000Y-31100000D01*
X-7000000Y-45100000D02*
X-6000000Y-45100000D01*
X-7000000Y-32100000D02*
X-7000000Y-31100000D01*
X30812500Y-31100000D02*
X30812500Y-32100000D01*
X29812500Y-45100000D02*
X30812500Y-45100000D01*
X30812500Y-31100000D02*
X29812500Y-31100000D01*
X30812500Y-44100000D02*
X30812500Y-45100000D01*
X16812500Y-45100000D02*
X16812500Y-44100000D01*
X17812500Y-31100000D02*
X16812500Y-31100000D01*
X16812500Y-45100000D02*
X17812500Y-45100000D01*
X16812500Y-32100000D02*
X16812500Y-31100000D01*
X35862500Y-32100000D02*
X35862500Y-31100000D01*
X35862500Y-45100000D02*
X36862500Y-45100000D01*
X36862500Y-31100000D02*
X35862500Y-31100000D01*
X35862500Y-45100000D02*
X35862500Y-44100000D01*
X49862500Y-44100000D02*
X49862500Y-45100000D01*
X49862500Y-31100000D02*
X48862500Y-31100000D01*
X48862500Y-45100000D02*
X49862500Y-45100000D01*
X49862500Y-31100000D02*
X49862500Y-32100000D01*
X54912500Y-32100000D02*
X54912500Y-31100000D01*
X54912500Y-45100000D02*
X55912500Y-45100000D01*
X55912500Y-31100000D02*
X54912500Y-31100000D01*
X54912500Y-45100000D02*
X54912500Y-44100000D01*
X68912500Y-44100000D02*
X68912500Y-45100000D01*
X68912500Y-31100000D02*
X67912500Y-31100000D01*
X67912500Y-45100000D02*
X68912500Y-45100000D01*
X68912500Y-31100000D02*
X68912500Y-32100000D01*
X73962500Y-32100000D02*
X73962500Y-31100000D01*
X73962500Y-45100000D02*
X74962500Y-45100000D01*
X74962500Y-31100000D02*
X73962500Y-31100000D01*
X73962500Y-45100000D02*
X73962500Y-44100000D01*
X87962500Y-44100000D02*
X87962500Y-45100000D01*
X87962500Y-31100000D02*
X86962500Y-31100000D01*
X86962500Y-45100000D02*
X87962500Y-45100000D01*
X87962500Y-31100000D02*
X87962500Y-32100000D01*
X107012500Y-31100000D02*
X107012500Y-32100000D01*
X106012500Y-45100000D02*
X107012500Y-45100000D01*
X107012500Y-31100000D02*
X106012500Y-31100000D01*
X107012500Y-44100000D02*
X107012500Y-45100000D01*
X93012500Y-45100000D02*
X93012500Y-44100000D01*
X94012500Y-31100000D02*
X93012500Y-31100000D01*
X93012500Y-45100000D02*
X94012500Y-45100000D01*
X93012500Y-32100000D02*
X93012500Y-31100000D01*
X112062500Y-32100000D02*
X112062500Y-31100000D01*
X112062500Y-45100000D02*
X113062500Y-45100000D01*
X113062500Y-31100000D02*
X112062500Y-31100000D01*
X112062500Y-45100000D02*
X112062500Y-44100000D01*
X126062500Y-44100000D02*
X126062500Y-45100000D01*
X126062500Y-31100000D02*
X125062500Y-31100000D01*
X125062500Y-45100000D02*
X126062500Y-45100000D01*
X126062500Y-31100000D02*
X126062500Y-32100000D01*
X145112500Y-31100000D02*
X145112500Y-32100000D01*
X144112500Y-45100000D02*
X145112500Y-45100000D01*
X145112500Y-31100000D02*
X144112500Y-31100000D01*
X145112500Y-44100000D02*
X145112500Y-45100000D01*
X131112500Y-45100000D02*
X131112500Y-44100000D01*
X132112500Y-31100000D02*
X131112500Y-31100000D01*
X131112500Y-45100000D02*
X132112500Y-45100000D01*
X131112500Y-32100000D02*
X131112500Y-31100000D01*
X150162500Y-32100000D02*
X150162500Y-31100000D01*
X150162500Y-45100000D02*
X151162500Y-45100000D01*
X151162500Y-31100000D02*
X150162500Y-31100000D01*
X150162500Y-45100000D02*
X150162500Y-44100000D01*
X164162500Y-44100000D02*
X164162500Y-45100000D01*
X164162500Y-31100000D02*
X163162500Y-31100000D01*
X163162500Y-45100000D02*
X164162500Y-45100000D01*
X164162500Y-31100000D02*
X164162500Y-32100000D01*
X183212500Y-31100000D02*
X183212500Y-32100000D01*
X182212500Y-45100000D02*
X183212500Y-45100000D01*
X183212500Y-31100000D02*
X182212500Y-31100000D01*
X183212500Y-44100000D02*
X183212500Y-45100000D01*
X169212500Y-45100000D02*
X169212500Y-44100000D01*
X170212500Y-31100000D02*
X169212500Y-31100000D01*
X169212500Y-45100000D02*
X170212500Y-45100000D01*
X169212500Y-32100000D02*
X169212500Y-31100000D01*
X202262500Y-31100000D02*
X202262500Y-32100000D01*
X201262500Y-45100000D02*
X202262500Y-45100000D01*
X202262500Y-31100000D02*
X201262500Y-31100000D01*
X202262500Y-44100000D02*
X202262500Y-45100000D01*
X188262500Y-45100000D02*
X188262500Y-44100000D01*
X189262500Y-31100000D02*
X188262500Y-31100000D01*
X188262500Y-45100000D02*
X189262500Y-45100000D01*
X188262500Y-32100000D02*
X188262500Y-31100000D01*
X207312500Y-32100000D02*
X207312500Y-31100000D01*
X207312500Y-45100000D02*
X208312500Y-45100000D01*
X208312500Y-31100000D02*
X207312500Y-31100000D01*
X207312500Y-45100000D02*
X207312500Y-44100000D01*
X221312500Y-44100000D02*
X221312500Y-45100000D01*
X221312500Y-31100000D02*
X220312500Y-31100000D01*
X220312500Y-45100000D02*
X221312500Y-45100000D01*
X221312500Y-31100000D02*
X221312500Y-32100000D01*
X226362500Y-32100000D02*
X226362500Y-31100000D01*
X226362500Y-45100000D02*
X227362500Y-45100000D01*
X227362500Y-31100000D02*
X226362500Y-31100000D01*
X226362500Y-45100000D02*
X226362500Y-44100000D01*
X240362500Y-44100000D02*
X240362500Y-45100000D01*
X240362500Y-31100000D02*
X239362500Y-31100000D01*
X239362500Y-45100000D02*
X240362500Y-45100000D01*
X240362500Y-31100000D02*
X240362500Y-32100000D01*
X259412500Y-31100000D02*
X259412500Y-32100000D01*
X258412500Y-45100000D02*
X259412500Y-45100000D01*
X259412500Y-31100000D02*
X258412500Y-31100000D01*
X259412500Y-44100000D02*
X259412500Y-45100000D01*
X245412500Y-45100000D02*
X245412500Y-44100000D01*
X246412500Y-31100000D02*
X245412500Y-31100000D01*
X245412500Y-45100000D02*
X246412500Y-45100000D01*
X245412500Y-32100000D02*
X245412500Y-31100000D01*
X269225000Y-13050000D02*
X269225000Y-12050000D01*
X269225000Y-26050000D02*
X270225000Y-26050000D01*
X270225000Y-12050000D02*
X269225000Y-12050000D01*
X269225000Y-26050000D02*
X269225000Y-25050000D01*
X283225000Y-25050000D02*
X283225000Y-26050000D01*
X283225000Y-12050000D02*
X282225000Y-12050000D01*
X282225000Y-26050000D02*
X283225000Y-26050000D01*
X283225000Y-12050000D02*
X283225000Y-13050000D01*
X7000000Y-50150000D02*
X7000000Y-51150000D01*
X6000000Y-64150000D02*
X7000000Y-64150000D01*
X7000000Y-50150000D02*
X6000000Y-50150000D01*
X7000000Y-63150000D02*
X7000000Y-64150000D01*
X-7000000Y-64150000D02*
X-7000000Y-63150000D01*
X-6000000Y-50150000D02*
X-7000000Y-50150000D01*
X-7000000Y-64150000D02*
X-6000000Y-64150000D01*
X-7000000Y-51150000D02*
X-7000000Y-50150000D01*
X21575000Y-51150000D02*
X21575000Y-50150000D01*
X21575000Y-64150000D02*
X22575000Y-64150000D01*
X22575000Y-50150000D02*
X21575000Y-50150000D01*
X21575000Y-64150000D02*
X21575000Y-63150000D01*
X35575000Y-63150000D02*
X35575000Y-64150000D01*
X35575000Y-50150000D02*
X34575000Y-50150000D01*
X34575000Y-64150000D02*
X35575000Y-64150000D01*
X35575000Y-50150000D02*
X35575000Y-51150000D01*
X45387500Y-51150000D02*
X45387500Y-50150000D01*
X45387500Y-64150000D02*
X46387500Y-64150000D01*
X46387500Y-50150000D02*
X45387500Y-50150000D01*
X45387500Y-64150000D02*
X45387500Y-63150000D01*
X59387500Y-63150000D02*
X59387500Y-64150000D01*
X59387500Y-50150000D02*
X58387500Y-50150000D01*
X58387500Y-64150000D02*
X59387500Y-64150000D01*
X59387500Y-50150000D02*
X59387500Y-51150000D01*
X64437500Y-51150000D02*
X64437500Y-50150000D01*
X64437500Y-64150000D02*
X65437500Y-64150000D01*
X65437500Y-50150000D02*
X64437500Y-50150000D01*
X64437500Y-64150000D02*
X64437500Y-63150000D01*
X78437500Y-63150000D02*
X78437500Y-64150000D01*
X78437500Y-50150000D02*
X77437500Y-50150000D01*
X77437500Y-64150000D02*
X78437500Y-64150000D01*
X78437500Y-50150000D02*
X78437500Y-51150000D01*
X97487500Y-50150000D02*
X97487500Y-51150000D01*
X96487500Y-64150000D02*
X97487500Y-64150000D01*
X97487500Y-50150000D02*
X96487500Y-50150000D01*
X97487500Y-63150000D02*
X97487500Y-64150000D01*
X83487500Y-64150000D02*
X83487500Y-63150000D01*
X84487500Y-50150000D02*
X83487500Y-50150000D01*
X83487500Y-64150000D02*
X84487500Y-64150000D01*
X83487500Y-51150000D02*
X83487500Y-50150000D01*
X102537500Y-51150000D02*
X102537500Y-50150000D01*
X102537500Y-64150000D02*
X103537500Y-64150000D01*
X103537500Y-50150000D02*
X102537500Y-50150000D01*
X102537500Y-64150000D02*
X102537500Y-63150000D01*
X116537500Y-63150000D02*
X116537500Y-64150000D01*
X116537500Y-50150000D02*
X115537500Y-50150000D01*
X115537500Y-64150000D02*
X116537500Y-64150000D01*
X116537500Y-50150000D02*
X116537500Y-51150000D01*
X121587500Y-51150000D02*
X121587500Y-50150000D01*
X121587500Y-64150000D02*
X122587500Y-64150000D01*
X122587500Y-50150000D02*
X121587500Y-50150000D01*
X121587500Y-64150000D02*
X121587500Y-63150000D01*
X135587500Y-63150000D02*
X135587500Y-64150000D01*
X135587500Y-50150000D02*
X134587500Y-50150000D01*
X134587500Y-64150000D02*
X135587500Y-64150000D01*
X135587500Y-50150000D02*
X135587500Y-51150000D01*
X154637500Y-50150000D02*
X154637500Y-51150000D01*
X153637500Y-64150000D02*
X154637500Y-64150000D01*
X154637500Y-50150000D02*
X153637500Y-50150000D01*
X154637500Y-63150000D02*
X154637500Y-64150000D01*
X140637500Y-64150000D02*
X140637500Y-63150000D01*
X141637500Y-50150000D02*
X140637500Y-50150000D01*
X140637500Y-64150000D02*
X141637500Y-64150000D01*
X140637500Y-51150000D02*
X140637500Y-50150000D01*
X173687500Y-50150000D02*
X173687500Y-51150000D01*
X172687500Y-64150000D02*
X173687500Y-64150000D01*
X173687500Y-50150000D02*
X172687500Y-50150000D01*
X173687500Y-63150000D02*
X173687500Y-64150000D01*
X159687500Y-64150000D02*
X159687500Y-63150000D01*
X160687500Y-50150000D02*
X159687500Y-50150000D01*
X159687500Y-64150000D02*
X160687500Y-64150000D01*
X159687500Y-51150000D02*
X159687500Y-50150000D01*
X192737500Y-50150000D02*
X192737500Y-51150000D01*
X191737500Y-64150000D02*
X192737500Y-64150000D01*
X192737500Y-50150000D02*
X191737500Y-50150000D01*
X192737500Y-63150000D02*
X192737500Y-64150000D01*
X178737500Y-64150000D02*
X178737500Y-63150000D01*
X179737500Y-50150000D02*
X178737500Y-50150000D01*
X178737500Y-64150000D02*
X179737500Y-64150000D01*
X178737500Y-51150000D02*
X178737500Y-50150000D01*
X197787500Y-51150000D02*
X197787500Y-50150000D01*
X197787500Y-64150000D02*
X198787500Y-64150000D01*
X198787500Y-50150000D02*
X197787500Y-50150000D01*
X197787500Y-64150000D02*
X197787500Y-63150000D01*
X211787500Y-63150000D02*
X211787500Y-64150000D01*
X211787500Y-50150000D02*
X210787500Y-50150000D01*
X210787500Y-64150000D02*
X211787500Y-64150000D01*
X211787500Y-50150000D02*
X211787500Y-51150000D01*
X230837500Y-50150000D02*
X230837500Y-51150000D01*
X229837500Y-64150000D02*
X230837500Y-64150000D01*
X230837500Y-50150000D02*
X229837500Y-50150000D01*
X230837500Y-63150000D02*
X230837500Y-64150000D01*
X216837500Y-64150000D02*
X216837500Y-63150000D01*
X217837500Y-50150000D02*
X216837500Y-50150000D01*
X216837500Y-64150000D02*
X217837500Y-64150000D01*
X216837500Y-51150000D02*
X216837500Y-50150000D01*
X254650000Y-50150000D02*
X254650000Y-51150000D01*
X253650000Y-64150000D02*
X254650000Y-64150000D01*
X254650000Y-50150000D02*
X253650000Y-50150000D01*
X254650000Y-63150000D02*
X254650000Y-64150000D01*
X240650000Y-64150000D02*
X240650000Y-63150000D01*
X241650000Y-50150000D02*
X240650000Y-50150000D01*
X240650000Y-64150000D02*
X241650000Y-64150000D01*
X240650000Y-51150000D02*
X240650000Y-50150000D01*
X283225000Y-50150000D02*
X283225000Y-51150000D01*
X282225000Y-64150000D02*
X283225000Y-64150000D01*
X283225000Y-50150000D02*
X282225000Y-50150000D01*
X283225000Y-63150000D02*
X283225000Y-64150000D01*
X269225000Y-64150000D02*
X269225000Y-63150000D01*
X270225000Y-50150000D02*
X269225000Y-50150000D01*
X269225000Y-64150000D02*
X270225000Y-64150000D01*
X269225000Y-51150000D02*
X269225000Y-50150000D01*
X302275000Y-12050000D02*
X302275000Y-13050000D01*
X301275000Y-26050000D02*
X302275000Y-26050000D01*
X302275000Y-12050000D02*
X301275000Y-12050000D01*
X302275000Y-25050000D02*
X302275000Y-26050000D01*
X288275000Y-26050000D02*
X288275000Y-25050000D01*
X289275000Y-12050000D02*
X288275000Y-12050000D01*
X288275000Y-26050000D02*
X289275000Y-26050000D01*
X288275000Y-13050000D02*
X288275000Y-12050000D01*
X7000000Y-69200000D02*
X7000000Y-70200000D01*
X6000000Y-83200000D02*
X7000000Y-83200000D01*
X7000000Y-69200000D02*
X6000000Y-69200000D01*
X7000000Y-82200000D02*
X7000000Y-83200000D01*
X-7000000Y-83200000D02*
X-7000000Y-82200000D01*
X-6000000Y-69200000D02*
X-7000000Y-69200000D01*
X-7000000Y-83200000D02*
X-6000000Y-83200000D01*
X-7000000Y-70200000D02*
X-7000000Y-69200000D01*
X16812500Y-70200000D02*
X16812500Y-69200000D01*
X16812500Y-83200000D02*
X17812500Y-83200000D01*
X17812500Y-69200000D02*
X16812500Y-69200000D01*
X16812500Y-83200000D02*
X16812500Y-82200000D01*
X30812500Y-82200000D02*
X30812500Y-83200000D01*
X30812500Y-69200000D02*
X29812500Y-69200000D01*
X29812500Y-83200000D02*
X30812500Y-83200000D01*
X30812500Y-69200000D02*
X30812500Y-70200000D01*
X49862500Y-69200000D02*
X49862500Y-70200000D01*
X48862500Y-83200000D02*
X49862500Y-83200000D01*
X49862500Y-69200000D02*
X48862500Y-69200000D01*
X49862500Y-82200000D02*
X49862500Y-83200000D01*
X35862500Y-83200000D02*
X35862500Y-82200000D01*
X36862500Y-69200000D02*
X35862500Y-69200000D01*
X35862500Y-83200000D02*
X36862500Y-83200000D01*
X35862500Y-70200000D02*
X35862500Y-69200000D01*
X54912500Y-70200000D02*
X54912500Y-69200000D01*
X54912500Y-83200000D02*
X55912500Y-83200000D01*
X55912500Y-69200000D02*
X54912500Y-69200000D01*
X54912500Y-83200000D02*
X54912500Y-82200000D01*
X68912500Y-82200000D02*
X68912500Y-83200000D01*
X68912500Y-69200000D02*
X67912500Y-69200000D01*
X67912500Y-83200000D02*
X68912500Y-83200000D01*
X68912500Y-69200000D02*
X68912500Y-70200000D01*
X73962500Y-70200000D02*
X73962500Y-69200000D01*
X73962500Y-83200000D02*
X74962500Y-83200000D01*
X74962500Y-69200000D02*
X73962500Y-69200000D01*
X73962500Y-83200000D02*
X73962500Y-82200000D01*
X87962500Y-82200000D02*
X87962500Y-83200000D01*
X87962500Y-69200000D02*
X86962500Y-69200000D01*
X86962500Y-83200000D02*
X87962500Y-83200000D01*
X87962500Y-69200000D02*
X87962500Y-70200000D01*
X104125000Y-70200000D02*
X104125000Y-69200000D01*
X104125000Y-83200000D02*
X105125000Y-83200000D01*
X105125000Y-69200000D02*
X104125000Y-69200000D01*
X104125000Y-83200000D02*
X104125000Y-82200000D01*
X118125000Y-82200000D02*
X118125000Y-83200000D01*
X118125000Y-69200000D02*
X117125000Y-69200000D01*
X117125000Y-83200000D02*
X118125000Y-83200000D01*
X118125000Y-69200000D02*
X118125000Y-70200000D01*
X153050000Y-69200000D02*
X153050000Y-70200000D01*
X152050000Y-83200000D02*
X153050000Y-83200000D01*
X153050000Y-69200000D02*
X152050000Y-69200000D01*
X153050000Y-82200000D02*
X153050000Y-83200000D01*
X139050000Y-83200000D02*
X139050000Y-82200000D01*
X140050000Y-69200000D02*
X139050000Y-69200000D01*
X139050000Y-83200000D02*
X140050000Y-83200000D01*
X139050000Y-70200000D02*
X139050000Y-69200000D01*
X183212500Y-69200000D02*
X183212500Y-70200000D01*
X182212500Y-83200000D02*
X183212500Y-83200000D01*
X183212500Y-69200000D02*
X182212500Y-69200000D01*
X183212500Y-82200000D02*
X183212500Y-83200000D01*
X169212500Y-83200000D02*
X169212500Y-82200000D01*
X170212500Y-69200000D02*
X169212500Y-69200000D01*
X169212500Y-83200000D02*
X170212500Y-83200000D01*
X169212500Y-70200000D02*
X169212500Y-69200000D01*
X202262500Y-69200000D02*
X202262500Y-70200000D01*
X201262500Y-83200000D02*
X202262500Y-83200000D01*
X202262500Y-69200000D02*
X201262500Y-69200000D01*
X202262500Y-82200000D02*
X202262500Y-83200000D01*
X188262500Y-83200000D02*
X188262500Y-82200000D01*
X189262500Y-69200000D02*
X188262500Y-69200000D01*
X188262500Y-83200000D02*
X189262500Y-83200000D01*
X188262500Y-70200000D02*
X188262500Y-69200000D01*
X207312500Y-70200000D02*
X207312500Y-69200000D01*
X207312500Y-83200000D02*
X208312500Y-83200000D01*
X208312500Y-69200000D02*
X207312500Y-69200000D01*
X207312500Y-83200000D02*
X207312500Y-82200000D01*
X221312500Y-82200000D02*
X221312500Y-83200000D01*
X221312500Y-69200000D02*
X220312500Y-69200000D01*
X220312500Y-83200000D02*
X221312500Y-83200000D01*
X221312500Y-69200000D02*
X221312500Y-70200000D01*
X240362500Y-69200000D02*
X240362500Y-70200000D01*
X239362500Y-83200000D02*
X240362500Y-83200000D01*
X240362500Y-69200000D02*
X239362500Y-69200000D01*
X240362500Y-82200000D02*
X240362500Y-83200000D01*
X226362500Y-83200000D02*
X226362500Y-82200000D01*
X227362500Y-69200000D02*
X226362500Y-69200000D01*
X226362500Y-83200000D02*
X227362500Y-83200000D01*
X226362500Y-70200000D02*
X226362500Y-69200000D01*
X250175000Y-70200000D02*
X250175000Y-69200000D01*
X250175000Y-83200000D02*
X251175000Y-83200000D01*
X251175000Y-69200000D02*
X250175000Y-69200000D01*
X250175000Y-83200000D02*
X250175000Y-82200000D01*
X264175000Y-82200000D02*
X264175000Y-83200000D01*
X264175000Y-69200000D02*
X263175000Y-69200000D01*
X263175000Y-83200000D02*
X264175000Y-83200000D01*
X264175000Y-69200000D02*
X264175000Y-70200000D01*
X283225000Y-69200000D02*
X283225000Y-70200000D01*
X282225000Y-83200000D02*
X283225000Y-83200000D01*
X283225000Y-69200000D02*
X282225000Y-69200000D01*
X283225000Y-82200000D02*
X283225000Y-83200000D01*
X269225000Y-83200000D02*
X269225000Y-82200000D01*
X270225000Y-69200000D02*
X269225000Y-69200000D01*
X269225000Y-83200000D02*
X270225000Y-83200000D01*
X269225000Y-70200000D02*
X269225000Y-69200000D01*
X288275000Y-70200000D02*
X288275000Y-69200000D01*
X288275000Y-83200000D02*
X289275000Y-83200000D01*
X289275000Y-69200000D02*
X288275000Y-69200000D01*
X288275000Y-83200000D02*
X288275000Y-82200000D01*
X302275000Y-82200000D02*
X302275000Y-83200000D01*
X302275000Y-69200000D02*
X301275000Y-69200000D01*
X301275000Y-83200000D02*
X302275000Y-83200000D01*
X302275000Y-69200000D02*
X302275000Y-70200000D01*
X144597619Y-71402380D02*
X144264285Y-70926190D01*
X144026190Y-71402380D02*
X144026190Y-70402380D01*
X144407142Y-70402380D01*
X144502380Y-70450000D01*
X144550000Y-70497619D01*
X144597619Y-70592857D01*
X144597619Y-70735714D01*
X144550000Y-70830952D01*
X144502380Y-70878571D01*
X144407142Y-70926190D01*
X144026190Y-70926190D01*
X145026190Y-70878571D02*
X145359523Y-70878571D01*
X145502380Y-71402380D02*
X145026190Y-71402380D01*
X145026190Y-70402380D01*
X145502380Y-70402380D01*
X145883333Y-71354761D02*
X146026190Y-71402380D01*
X146264285Y-71402380D01*
X146359523Y-71354761D01*
X146407142Y-71307142D01*
X146454761Y-71211904D01*
X146454761Y-71116666D01*
X146407142Y-71021428D01*
X146359523Y-70973809D01*
X146264285Y-70926190D01*
X146073809Y-70878571D01*
X145978571Y-70830952D01*
X145930952Y-70783333D01*
X145883333Y-70688095D01*
X145883333Y-70592857D01*
X145930952Y-70497619D01*
X145978571Y-70450000D01*
X146073809Y-70402380D01*
X146311904Y-70402380D01*
X146454761Y-70450000D01*
X146883333Y-70878571D02*
X147216666Y-70878571D01*
X147359523Y-71402380D02*
X146883333Y-71402380D01*
X146883333Y-70402380D01*
X147359523Y-70402380D01*
X147645238Y-70402380D02*
X148216666Y-70402380D01*
X147930952Y-71402380D02*
X147930952Y-70402380D01*
X18550000Y-34302380D02*
X18073809Y-34302380D01*
X18073809Y-33302380D01*
X18883333Y-33778571D02*
X19216666Y-33778571D01*
X19359523Y-34302380D02*
X18883333Y-34302380D01*
X18883333Y-33302380D01*
X19359523Y-33302380D01*
X19788095Y-34302380D02*
X19788095Y-33302380D01*
X20026190Y-33302380D01*
X20169047Y-33350000D01*
X20264285Y-33445238D01*
X20311904Y-33540476D01*
X20359523Y-33730952D01*
X20359523Y-33873809D01*
X20311904Y-34064285D01*
X20264285Y-34159523D01*
X20169047Y-34254761D01*
X20026190Y-34302380D01*
X19788095Y-34302380D01*
X20550000Y-34397619D02*
X21311904Y-34397619D01*
X22073809Y-34302380D02*
X21502380Y-34302380D01*
X21788095Y-34302380D02*
X21788095Y-33302380D01*
X21692857Y-33445238D01*
X21597619Y-33540476D01*
X21502380Y-33588095D01*
X-1142857Y4675238D02*
X-1000000Y4627619D01*
X-761904Y4627619D01*
X-666666Y4675238D01*
X-619047Y4722857D01*
X-571428Y4818095D01*
X-571428Y4913333D01*
X-619047Y5008571D01*
X-666666Y5056190D01*
X-761904Y5103809D01*
X-952380Y5151428D01*
X-1047619Y5199047D01*
X-1095238Y5246666D01*
X-1142857Y5341904D01*
X-1142857Y5437142D01*
X-1095238Y5532380D01*
X-1047619Y5580000D01*
X-952380Y5627619D01*
X-714285Y5627619D01*
X-571428Y5580000D01*
X-380952Y4532380D02*
X380952Y4532380D01*
X1142857Y4627619D02*
X571428Y4627619D01*
X857142Y4627619D02*
X857142Y5627619D01*
X761904Y5484761D01*
X666666Y5389523D01*
X571428Y5341904D01*
X22669642Y4675238D02*
X22812500Y4627619D01*
X23050595Y4627619D01*
X23145833Y4675238D01*
X23193452Y4722857D01*
X23241071Y4818095D01*
X23241071Y4913333D01*
X23193452Y5008571D01*
X23145833Y5056190D01*
X23050595Y5103809D01*
X22860119Y5151428D01*
X22764880Y5199047D01*
X22717261Y5246666D01*
X22669642Y5341904D01*
X22669642Y5437142D01*
X22717261Y5532380D01*
X22764880Y5580000D01*
X22860119Y5627619D01*
X23098214Y5627619D01*
X23241071Y5580000D01*
X23431547Y4532380D02*
X24193452Y4532380D01*
X24383928Y5532380D02*
X24431547Y5580000D01*
X24526785Y5627619D01*
X24764880Y5627619D01*
X24860119Y5580000D01*
X24907738Y5532380D01*
X24955357Y5437142D01*
X24955357Y5341904D01*
X24907738Y5199047D01*
X24336309Y4627619D01*
X24955357Y4627619D01*
X41719642Y4675238D02*
X41862500Y4627619D01*
X42100595Y4627619D01*
X42195833Y4675238D01*
X42243452Y4722857D01*
X42291071Y4818095D01*
X42291071Y4913333D01*
X42243452Y5008571D01*
X42195833Y5056190D01*
X42100595Y5103809D01*
X41910119Y5151428D01*
X41814880Y5199047D01*
X41767261Y5246666D01*
X41719642Y5341904D01*
X41719642Y5437142D01*
X41767261Y5532380D01*
X41814880Y5580000D01*
X41910119Y5627619D01*
X42148214Y5627619D01*
X42291071Y5580000D01*
X42481547Y4532380D02*
X43243452Y4532380D01*
X43386309Y5627619D02*
X44005357Y5627619D01*
X43672023Y5246666D01*
X43814880Y5246666D01*
X43910119Y5199047D01*
X43957738Y5151428D01*
X44005357Y5056190D01*
X44005357Y4818095D01*
X43957738Y4722857D01*
X43910119Y4675238D01*
X43814880Y4627619D01*
X43529166Y4627619D01*
X43433928Y4675238D01*
X43386309Y4722857D01*
X60769642Y4675238D02*
X60912500Y4627619D01*
X61150595Y4627619D01*
X61245833Y4675238D01*
X61293452Y4722857D01*
X61341071Y4818095D01*
X61341071Y4913333D01*
X61293452Y5008571D01*
X61245833Y5056190D01*
X61150595Y5103809D01*
X60960119Y5151428D01*
X60864880Y5199047D01*
X60817261Y5246666D01*
X60769642Y5341904D01*
X60769642Y5437142D01*
X60817261Y5532380D01*
X60864880Y5580000D01*
X60960119Y5627619D01*
X61198214Y5627619D01*
X61341071Y5580000D01*
X61531547Y4532380D02*
X62293452Y4532380D01*
X62960119Y5294285D02*
X62960119Y4627619D01*
X62722023Y5675238D02*
X62483928Y4960952D01*
X63102976Y4960952D01*
X79819642Y4675238D02*
X79962500Y4627619D01*
X80200595Y4627619D01*
X80295833Y4675238D01*
X80343452Y4722857D01*
X80391071Y4818095D01*
X80391071Y4913333D01*
X80343452Y5008571D01*
X80295833Y5056190D01*
X80200595Y5103809D01*
X80010119Y5151428D01*
X79914880Y5199047D01*
X79867261Y5246666D01*
X79819642Y5341904D01*
X79819642Y5437142D01*
X79867261Y5532380D01*
X79914880Y5580000D01*
X80010119Y5627619D01*
X80248214Y5627619D01*
X80391071Y5580000D01*
X80581547Y4532380D02*
X81343452Y4532380D01*
X82057738Y5627619D02*
X81581547Y5627619D01*
X81533928Y5151428D01*
X81581547Y5199047D01*
X81676785Y5246666D01*
X81914880Y5246666D01*
X82010119Y5199047D01*
X82057738Y5151428D01*
X82105357Y5056190D01*
X82105357Y4818095D01*
X82057738Y4722857D01*
X82010119Y4675238D01*
X81914880Y4627619D01*
X81676785Y4627619D01*
X81581547Y4675238D01*
X81533928Y4722857D01*
X98869642Y4675238D02*
X99012500Y4627619D01*
X99250595Y4627619D01*
X99345833Y4675238D01*
X99393452Y4722857D01*
X99441071Y4818095D01*
X99441071Y4913333D01*
X99393452Y5008571D01*
X99345833Y5056190D01*
X99250595Y5103809D01*
X99060119Y5151428D01*
X98964880Y5199047D01*
X98917261Y5246666D01*
X98869642Y5341904D01*
X98869642Y5437142D01*
X98917261Y5532380D01*
X98964880Y5580000D01*
X99060119Y5627619D01*
X99298214Y5627619D01*
X99441071Y5580000D01*
X99631547Y4532380D02*
X100393452Y4532380D01*
X101060119Y5627619D02*
X100869642Y5627619D01*
X100774404Y5580000D01*
X100726785Y5532380D01*
X100631547Y5389523D01*
X100583928Y5199047D01*
X100583928Y4818095D01*
X100631547Y4722857D01*
X100679166Y4675238D01*
X100774404Y4627619D01*
X100964880Y4627619D01*
X101060119Y4675238D01*
X101107738Y4722857D01*
X101155357Y4818095D01*
X101155357Y5056190D01*
X101107738Y5151428D01*
X101060119Y5199047D01*
X100964880Y5246666D01*
X100774404Y5246666D01*
X100679166Y5199047D01*
X100631547Y5151428D01*
X100583928Y5056190D01*
X117919642Y4675238D02*
X118062500Y4627619D01*
X118300595Y4627619D01*
X118395833Y4675238D01*
X118443452Y4722857D01*
X118491071Y4818095D01*
X118491071Y4913333D01*
X118443452Y5008571D01*
X118395833Y5056190D01*
X118300595Y5103809D01*
X118110119Y5151428D01*
X118014880Y5199047D01*
X117967261Y5246666D01*
X117919642Y5341904D01*
X117919642Y5437142D01*
X117967261Y5532380D01*
X118014880Y5580000D01*
X118110119Y5627619D01*
X118348214Y5627619D01*
X118491071Y5580000D01*
X118681547Y4532380D02*
X119443452Y4532380D01*
X119586309Y5627619D02*
X120252976Y5627619D01*
X119824404Y4627619D01*
X136969642Y4675238D02*
X137112500Y4627619D01*
X137350595Y4627619D01*
X137445833Y4675238D01*
X137493452Y4722857D01*
X137541071Y4818095D01*
X137541071Y4913333D01*
X137493452Y5008571D01*
X137445833Y5056190D01*
X137350595Y5103809D01*
X137160119Y5151428D01*
X137064880Y5199047D01*
X137017261Y5246666D01*
X136969642Y5341904D01*
X136969642Y5437142D01*
X137017261Y5532380D01*
X137064880Y5580000D01*
X137160119Y5627619D01*
X137398214Y5627619D01*
X137541071Y5580000D01*
X137731547Y4532380D02*
X138493452Y4532380D01*
X138874404Y5199047D02*
X138779166Y5246666D01*
X138731547Y5294285D01*
X138683928Y5389523D01*
X138683928Y5437142D01*
X138731547Y5532380D01*
X138779166Y5580000D01*
X138874404Y5627619D01*
X139064880Y5627619D01*
X139160119Y5580000D01*
X139207738Y5532380D01*
X139255357Y5437142D01*
X139255357Y5389523D01*
X139207738Y5294285D01*
X139160119Y5246666D01*
X139064880Y5199047D01*
X138874404Y5199047D01*
X138779166Y5151428D01*
X138731547Y5103809D01*
X138683928Y5008571D01*
X138683928Y4818095D01*
X138731547Y4722857D01*
X138779166Y4675238D01*
X138874404Y4627619D01*
X139064880Y4627619D01*
X139160119Y4675238D01*
X139207738Y4722857D01*
X139255357Y4818095D01*
X139255357Y5008571D01*
X139207738Y5103809D01*
X139160119Y5151428D01*
X139064880Y5199047D01*
X156019642Y4675238D02*
X156162500Y4627619D01*
X156400595Y4627619D01*
X156495833Y4675238D01*
X156543452Y4722857D01*
X156591071Y4818095D01*
X156591071Y4913333D01*
X156543452Y5008571D01*
X156495833Y5056190D01*
X156400595Y5103809D01*
X156210119Y5151428D01*
X156114880Y5199047D01*
X156067261Y5246666D01*
X156019642Y5341904D01*
X156019642Y5437142D01*
X156067261Y5532380D01*
X156114880Y5580000D01*
X156210119Y5627619D01*
X156448214Y5627619D01*
X156591071Y5580000D01*
X156781547Y4532380D02*
X157543452Y4532380D01*
X157829166Y4627619D02*
X158019642Y4627619D01*
X158114880Y4675238D01*
X158162500Y4722857D01*
X158257738Y4865714D01*
X158305357Y5056190D01*
X158305357Y5437142D01*
X158257738Y5532380D01*
X158210119Y5580000D01*
X158114880Y5627619D01*
X157924404Y5627619D01*
X157829166Y5580000D01*
X157781547Y5532380D01*
X157733928Y5437142D01*
X157733928Y5199047D01*
X157781547Y5103809D01*
X157829166Y5056190D01*
X157924404Y5008571D01*
X158114880Y5008571D01*
X158210119Y5056190D01*
X158257738Y5103809D01*
X158305357Y5199047D01*
X174593452Y4675238D02*
X174736309Y4627619D01*
X174974404Y4627619D01*
X175069642Y4675238D01*
X175117261Y4722857D01*
X175164880Y4818095D01*
X175164880Y4913333D01*
X175117261Y5008571D01*
X175069642Y5056190D01*
X174974404Y5103809D01*
X174783928Y5151428D01*
X174688690Y5199047D01*
X174641071Y5246666D01*
X174593452Y5341904D01*
X174593452Y5437142D01*
X174641071Y5532380D01*
X174688690Y5580000D01*
X174783928Y5627619D01*
X175022023Y5627619D01*
X175164880Y5580000D01*
X175355357Y4532380D02*
X176117261Y4532380D01*
X176879166Y4627619D02*
X176307738Y4627619D01*
X176593452Y4627619D02*
X176593452Y5627619D01*
X176498214Y5484761D01*
X176402976Y5389523D01*
X176307738Y5341904D01*
X177498214Y5627619D02*
X177593452Y5627619D01*
X177688690Y5580000D01*
X177736309Y5532380D01*
X177783928Y5437142D01*
X177831547Y5246666D01*
X177831547Y5008571D01*
X177783928Y4818095D01*
X177736309Y4722857D01*
X177688690Y4675238D01*
X177593452Y4627619D01*
X177498214Y4627619D01*
X177402976Y4675238D01*
X177355357Y4722857D01*
X177307738Y4818095D01*
X177260119Y5008571D01*
X177260119Y5246666D01*
X177307738Y5437142D01*
X177355357Y5532380D01*
X177402976Y5580000D01*
X177498214Y5627619D01*
X193643452Y4675238D02*
X193786309Y4627619D01*
X194024404Y4627619D01*
X194119642Y4675238D01*
X194167261Y4722857D01*
X194214880Y4818095D01*
X194214880Y4913333D01*
X194167261Y5008571D01*
X194119642Y5056190D01*
X194024404Y5103809D01*
X193833928Y5151428D01*
X193738690Y5199047D01*
X193691071Y5246666D01*
X193643452Y5341904D01*
X193643452Y5437142D01*
X193691071Y5532380D01*
X193738690Y5580000D01*
X193833928Y5627619D01*
X194072023Y5627619D01*
X194214880Y5580000D01*
X194405357Y4532380D02*
X195167261Y4532380D01*
X195929166Y4627619D02*
X195357738Y4627619D01*
X195643452Y4627619D02*
X195643452Y5627619D01*
X195548214Y5484761D01*
X195452976Y5389523D01*
X195357738Y5341904D01*
X196881547Y4627619D02*
X196310119Y4627619D01*
X196595833Y4627619D02*
X196595833Y5627619D01*
X196500595Y5484761D01*
X196405357Y5389523D01*
X196310119Y5341904D01*
X212693452Y4675238D02*
X212836309Y4627619D01*
X213074404Y4627619D01*
X213169642Y4675238D01*
X213217261Y4722857D01*
X213264880Y4818095D01*
X213264880Y4913333D01*
X213217261Y5008571D01*
X213169642Y5056190D01*
X213074404Y5103809D01*
X212883928Y5151428D01*
X212788690Y5199047D01*
X212741071Y5246666D01*
X212693452Y5341904D01*
X212693452Y5437142D01*
X212741071Y5532380D01*
X212788690Y5580000D01*
X212883928Y5627619D01*
X213122023Y5627619D01*
X213264880Y5580000D01*
X213455357Y4532380D02*
X214217261Y4532380D01*
X214979166Y4627619D02*
X214407738Y4627619D01*
X214693452Y4627619D02*
X214693452Y5627619D01*
X214598214Y5484761D01*
X214502976Y5389523D01*
X214407738Y5341904D01*
X215360119Y5532380D02*
X215407738Y5580000D01*
X215502976Y5627619D01*
X215741071Y5627619D01*
X215836309Y5580000D01*
X215883928Y5532380D01*
X215931547Y5437142D01*
X215931547Y5341904D01*
X215883928Y5199047D01*
X215312500Y4627619D01*
X215931547Y4627619D01*
X231743452Y4675238D02*
X231886309Y4627619D01*
X232124404Y4627619D01*
X232219642Y4675238D01*
X232267261Y4722857D01*
X232314880Y4818095D01*
X232314880Y4913333D01*
X232267261Y5008571D01*
X232219642Y5056190D01*
X232124404Y5103809D01*
X231933928Y5151428D01*
X231838690Y5199047D01*
X231791071Y5246666D01*
X231743452Y5341904D01*
X231743452Y5437142D01*
X231791071Y5532380D01*
X231838690Y5580000D01*
X231933928Y5627619D01*
X232172023Y5627619D01*
X232314880Y5580000D01*
X232505357Y4532380D02*
X233267261Y4532380D01*
X234029166Y4627619D02*
X233457738Y4627619D01*
X233743452Y4627619D02*
X233743452Y5627619D01*
X233648214Y5484761D01*
X233552976Y5389523D01*
X233457738Y5341904D01*
X234362500Y5627619D02*
X234981547Y5627619D01*
X234648214Y5246666D01*
X234791071Y5246666D01*
X234886309Y5199047D01*
X234933928Y5151428D01*
X234981547Y5056190D01*
X234981547Y4818095D01*
X234933928Y4722857D01*
X234886309Y4675238D01*
X234791071Y4627619D01*
X234505357Y4627619D01*
X234410119Y4675238D01*
X234362500Y4722857D01*
X250793452Y4675238D02*
X250936309Y4627619D01*
X251174404Y4627619D01*
X251269642Y4675238D01*
X251317261Y4722857D01*
X251364880Y4818095D01*
X251364880Y4913333D01*
X251317261Y5008571D01*
X251269642Y5056190D01*
X251174404Y5103809D01*
X250983928Y5151428D01*
X250888690Y5199047D01*
X250841071Y5246666D01*
X250793452Y5341904D01*
X250793452Y5437142D01*
X250841071Y5532380D01*
X250888690Y5580000D01*
X250983928Y5627619D01*
X251222023Y5627619D01*
X251364880Y5580000D01*
X251555357Y4532380D02*
X252317261Y4532380D01*
X253079166Y4627619D02*
X252507738Y4627619D01*
X252793452Y4627619D02*
X252793452Y5627619D01*
X252698214Y5484761D01*
X252602976Y5389523D01*
X252507738Y5341904D01*
X253936309Y5294285D02*
X253936309Y4627619D01*
X253698214Y5675238D02*
X253460119Y4960952D01*
X254079166Y4960952D01*
X293655952Y4675238D02*
X293798809Y4627619D01*
X294036904Y4627619D01*
X294132142Y4675238D01*
X294179761Y4722857D01*
X294227380Y4818095D01*
X294227380Y4913333D01*
X294179761Y5008571D01*
X294132142Y5056190D01*
X294036904Y5103809D01*
X293846428Y5151428D01*
X293751190Y5199047D01*
X293703571Y5246666D01*
X293655952Y5341904D01*
X293655952Y5437142D01*
X293703571Y5532380D01*
X293751190Y5580000D01*
X293846428Y5627619D01*
X294084523Y5627619D01*
X294227380Y5580000D01*
X294417857Y4532380D02*
X295179761Y4532380D01*
X295941666Y4627619D02*
X295370238Y4627619D01*
X295655952Y4627619D02*
X295655952Y5627619D01*
X295560714Y5484761D01*
X295465476Y5389523D01*
X295370238Y5341904D01*
X296798809Y5627619D02*
X296608333Y5627619D01*
X296513095Y5580000D01*
X296465476Y5532380D01*
X296370238Y5389523D01*
X296322619Y5199047D01*
X296322619Y4818095D01*
X296370238Y4722857D01*
X296417857Y4675238D01*
X296513095Y4627619D01*
X296703571Y4627619D01*
X296798809Y4675238D01*
X296846428Y4722857D01*
X296894047Y4818095D01*
X296894047Y5056190D01*
X296846428Y5151428D01*
X296798809Y5199047D01*
X296703571Y5246666D01*
X296513095Y5246666D01*
X296417857Y5199047D01*
X296370238Y5151428D01*
X296322619Y5056190D01*
X-1619047Y-14374761D02*
X-1476190Y-14422380D01*
X-1238095Y-14422380D01*
X-1142857Y-14374761D01*
X-1095238Y-14327142D01*
X-1047619Y-14231904D01*
X-1047619Y-14136666D01*
X-1095238Y-14041428D01*
X-1142857Y-13993809D01*
X-1238095Y-13946190D01*
X-1428571Y-13898571D01*
X-1523809Y-13850952D01*
X-1571428Y-13803333D01*
X-1619047Y-13708095D01*
X-1619047Y-13612857D01*
X-1571428Y-13517619D01*
X-1523809Y-13470000D01*
X-1428571Y-13422380D01*
X-1190476Y-13422380D01*
X-1047619Y-13470000D01*
X-857142Y-14517619D02*
X-95238Y-14517619D01*
X666666Y-14422380D02*
X95238Y-14422380D01*
X380952Y-14422380D02*
X380952Y-13422380D01*
X285714Y-13565238D01*
X190476Y-13660476D01*
X95238Y-13708095D01*
X1000000Y-13422380D02*
X1666666Y-13422380D01*
X1238095Y-14422380D01*
X22193452Y-14374761D02*
X22336309Y-14422380D01*
X22574404Y-14422380D01*
X22669642Y-14374761D01*
X22717261Y-14327142D01*
X22764880Y-14231904D01*
X22764880Y-14136666D01*
X22717261Y-14041428D01*
X22669642Y-13993809D01*
X22574404Y-13946190D01*
X22383928Y-13898571D01*
X22288690Y-13850952D01*
X22241071Y-13803333D01*
X22193452Y-13708095D01*
X22193452Y-13612857D01*
X22241071Y-13517619D01*
X22288690Y-13470000D01*
X22383928Y-13422380D01*
X22622023Y-13422380D01*
X22764880Y-13470000D01*
X22955357Y-14517619D02*
X23717261Y-14517619D01*
X24479166Y-14422380D02*
X23907738Y-14422380D01*
X24193452Y-14422380D02*
X24193452Y-13422380D01*
X24098214Y-13565238D01*
X24002976Y-13660476D01*
X23907738Y-13708095D01*
X25050595Y-13850952D02*
X24955357Y-13803333D01*
X24907738Y-13755714D01*
X24860119Y-13660476D01*
X24860119Y-13612857D01*
X24907738Y-13517619D01*
X24955357Y-13470000D01*
X25050595Y-13422380D01*
X25241071Y-13422380D01*
X25336309Y-13470000D01*
X25383928Y-13517619D01*
X25431547Y-13612857D01*
X25431547Y-13660476D01*
X25383928Y-13755714D01*
X25336309Y-13803333D01*
X25241071Y-13850952D01*
X25050595Y-13850952D01*
X24955357Y-13898571D01*
X24907738Y-13946190D01*
X24860119Y-14041428D01*
X24860119Y-14231904D01*
X24907738Y-14327142D01*
X24955357Y-14374761D01*
X25050595Y-14422380D01*
X25241071Y-14422380D01*
X25336309Y-14374761D01*
X25383928Y-14327142D01*
X25431547Y-14231904D01*
X25431547Y-14041428D01*
X25383928Y-13946190D01*
X25336309Y-13898571D01*
X25241071Y-13850952D01*
X41243452Y-14374761D02*
X41386309Y-14422380D01*
X41624404Y-14422380D01*
X41719642Y-14374761D01*
X41767261Y-14327142D01*
X41814880Y-14231904D01*
X41814880Y-14136666D01*
X41767261Y-14041428D01*
X41719642Y-13993809D01*
X41624404Y-13946190D01*
X41433928Y-13898571D01*
X41338690Y-13850952D01*
X41291071Y-13803333D01*
X41243452Y-13708095D01*
X41243452Y-13612857D01*
X41291071Y-13517619D01*
X41338690Y-13470000D01*
X41433928Y-13422380D01*
X41672023Y-13422380D01*
X41814880Y-13470000D01*
X42005357Y-14517619D02*
X42767261Y-14517619D01*
X43529166Y-14422380D02*
X42957738Y-14422380D01*
X43243452Y-14422380D02*
X43243452Y-13422380D01*
X43148214Y-13565238D01*
X43052976Y-13660476D01*
X42957738Y-13708095D01*
X44005357Y-14422380D02*
X44195833Y-14422380D01*
X44291071Y-14374761D01*
X44338690Y-14327142D01*
X44433928Y-14184285D01*
X44481547Y-13993809D01*
X44481547Y-13612857D01*
X44433928Y-13517619D01*
X44386309Y-13470000D01*
X44291071Y-13422380D01*
X44100595Y-13422380D01*
X44005357Y-13470000D01*
X43957738Y-13517619D01*
X43910119Y-13612857D01*
X43910119Y-13850952D01*
X43957738Y-13946190D01*
X44005357Y-13993809D01*
X44100595Y-14041428D01*
X44291071Y-14041428D01*
X44386309Y-13993809D01*
X44433928Y-13946190D01*
X44481547Y-13850952D01*
X60293452Y-14374761D02*
X60436309Y-14422380D01*
X60674404Y-14422380D01*
X60769642Y-14374761D01*
X60817261Y-14327142D01*
X60864880Y-14231904D01*
X60864880Y-14136666D01*
X60817261Y-14041428D01*
X60769642Y-13993809D01*
X60674404Y-13946190D01*
X60483928Y-13898571D01*
X60388690Y-13850952D01*
X60341071Y-13803333D01*
X60293452Y-13708095D01*
X60293452Y-13612857D01*
X60341071Y-13517619D01*
X60388690Y-13470000D01*
X60483928Y-13422380D01*
X60722023Y-13422380D01*
X60864880Y-13470000D01*
X61055357Y-14517619D02*
X61817261Y-14517619D01*
X62007738Y-13517619D02*
X62055357Y-13470000D01*
X62150595Y-13422380D01*
X62388690Y-13422380D01*
X62483928Y-13470000D01*
X62531547Y-13517619D01*
X62579166Y-13612857D01*
X62579166Y-13708095D01*
X62531547Y-13850952D01*
X61960119Y-14422380D01*
X62579166Y-14422380D01*
X63198214Y-13422380D02*
X63293452Y-13422380D01*
X63388690Y-13470000D01*
X63436309Y-13517619D01*
X63483928Y-13612857D01*
X63531547Y-13803333D01*
X63531547Y-14041428D01*
X63483928Y-14231904D01*
X63436309Y-14327142D01*
X63388690Y-14374761D01*
X63293452Y-14422380D01*
X63198214Y-14422380D01*
X63102976Y-14374761D01*
X63055357Y-14327142D01*
X63007738Y-14231904D01*
X62960119Y-14041428D01*
X62960119Y-13803333D01*
X63007738Y-13612857D01*
X63055357Y-13517619D01*
X63102976Y-13470000D01*
X63198214Y-13422380D01*
X79343452Y-14374761D02*
X79486309Y-14422380D01*
X79724404Y-14422380D01*
X79819642Y-14374761D01*
X79867261Y-14327142D01*
X79914880Y-14231904D01*
X79914880Y-14136666D01*
X79867261Y-14041428D01*
X79819642Y-13993809D01*
X79724404Y-13946190D01*
X79533928Y-13898571D01*
X79438690Y-13850952D01*
X79391071Y-13803333D01*
X79343452Y-13708095D01*
X79343452Y-13612857D01*
X79391071Y-13517619D01*
X79438690Y-13470000D01*
X79533928Y-13422380D01*
X79772023Y-13422380D01*
X79914880Y-13470000D01*
X80105357Y-14517619D02*
X80867261Y-14517619D01*
X81057738Y-13517619D02*
X81105357Y-13470000D01*
X81200595Y-13422380D01*
X81438690Y-13422380D01*
X81533928Y-13470000D01*
X81581547Y-13517619D01*
X81629166Y-13612857D01*
X81629166Y-13708095D01*
X81581547Y-13850952D01*
X81010119Y-14422380D01*
X81629166Y-14422380D01*
X82581547Y-14422380D02*
X82010119Y-14422380D01*
X82295833Y-14422380D02*
X82295833Y-13422380D01*
X82200595Y-13565238D01*
X82105357Y-13660476D01*
X82010119Y-13708095D01*
X98393452Y-14374761D02*
X98536309Y-14422380D01*
X98774404Y-14422380D01*
X98869642Y-14374761D01*
X98917261Y-14327142D01*
X98964880Y-14231904D01*
X98964880Y-14136666D01*
X98917261Y-14041428D01*
X98869642Y-13993809D01*
X98774404Y-13946190D01*
X98583928Y-13898571D01*
X98488690Y-13850952D01*
X98441071Y-13803333D01*
X98393452Y-13708095D01*
X98393452Y-13612857D01*
X98441071Y-13517619D01*
X98488690Y-13470000D01*
X98583928Y-13422380D01*
X98822023Y-13422380D01*
X98964880Y-13470000D01*
X99155357Y-14517619D02*
X99917261Y-14517619D01*
X100107738Y-13517619D02*
X100155357Y-13470000D01*
X100250595Y-13422380D01*
X100488690Y-13422380D01*
X100583928Y-13470000D01*
X100631547Y-13517619D01*
X100679166Y-13612857D01*
X100679166Y-13708095D01*
X100631547Y-13850952D01*
X100060119Y-14422380D01*
X100679166Y-14422380D01*
X101060119Y-13517619D02*
X101107738Y-13470000D01*
X101202976Y-13422380D01*
X101441071Y-13422380D01*
X101536309Y-13470000D01*
X101583928Y-13517619D01*
X101631547Y-13612857D01*
X101631547Y-13708095D01*
X101583928Y-13850952D01*
X101012500Y-14422380D01*
X101631547Y-14422380D01*
X117443452Y-14374761D02*
X117586309Y-14422380D01*
X117824404Y-14422380D01*
X117919642Y-14374761D01*
X117967261Y-14327142D01*
X118014880Y-14231904D01*
X118014880Y-14136666D01*
X117967261Y-14041428D01*
X117919642Y-13993809D01*
X117824404Y-13946190D01*
X117633928Y-13898571D01*
X117538690Y-13850952D01*
X117491071Y-13803333D01*
X117443452Y-13708095D01*
X117443452Y-13612857D01*
X117491071Y-13517619D01*
X117538690Y-13470000D01*
X117633928Y-13422380D01*
X117872023Y-13422380D01*
X118014880Y-13470000D01*
X118205357Y-14517619D02*
X118967261Y-14517619D01*
X119157738Y-13517619D02*
X119205357Y-13470000D01*
X119300595Y-13422380D01*
X119538690Y-13422380D01*
X119633928Y-13470000D01*
X119681547Y-13517619D01*
X119729166Y-13612857D01*
X119729166Y-13708095D01*
X119681547Y-13850952D01*
X119110119Y-14422380D01*
X119729166Y-14422380D01*
X120062500Y-13422380D02*
X120681547Y-13422380D01*
X120348214Y-13803333D01*
X120491071Y-13803333D01*
X120586309Y-13850952D01*
X120633928Y-13898571D01*
X120681547Y-13993809D01*
X120681547Y-14231904D01*
X120633928Y-14327142D01*
X120586309Y-14374761D01*
X120491071Y-14422380D01*
X120205357Y-14422380D01*
X120110119Y-14374761D01*
X120062500Y-14327142D01*
X136493452Y-14374761D02*
X136636309Y-14422380D01*
X136874404Y-14422380D01*
X136969642Y-14374761D01*
X137017261Y-14327142D01*
X137064880Y-14231904D01*
X137064880Y-14136666D01*
X137017261Y-14041428D01*
X136969642Y-13993809D01*
X136874404Y-13946190D01*
X136683928Y-13898571D01*
X136588690Y-13850952D01*
X136541071Y-13803333D01*
X136493452Y-13708095D01*
X136493452Y-13612857D01*
X136541071Y-13517619D01*
X136588690Y-13470000D01*
X136683928Y-13422380D01*
X136922023Y-13422380D01*
X137064880Y-13470000D01*
X137255357Y-14517619D02*
X138017261Y-14517619D01*
X138207738Y-13517619D02*
X138255357Y-13470000D01*
X138350595Y-13422380D01*
X138588690Y-13422380D01*
X138683928Y-13470000D01*
X138731547Y-13517619D01*
X138779166Y-13612857D01*
X138779166Y-13708095D01*
X138731547Y-13850952D01*
X138160119Y-14422380D01*
X138779166Y-14422380D01*
X139636309Y-13755714D02*
X139636309Y-14422380D01*
X139398214Y-13374761D02*
X139160119Y-14089047D01*
X139779166Y-14089047D01*
X155543452Y-14374761D02*
X155686309Y-14422380D01*
X155924404Y-14422380D01*
X156019642Y-14374761D01*
X156067261Y-14327142D01*
X156114880Y-14231904D01*
X156114880Y-14136666D01*
X156067261Y-14041428D01*
X156019642Y-13993809D01*
X155924404Y-13946190D01*
X155733928Y-13898571D01*
X155638690Y-13850952D01*
X155591071Y-13803333D01*
X155543452Y-13708095D01*
X155543452Y-13612857D01*
X155591071Y-13517619D01*
X155638690Y-13470000D01*
X155733928Y-13422380D01*
X155972023Y-13422380D01*
X156114880Y-13470000D01*
X156305357Y-14517619D02*
X157067261Y-14517619D01*
X157257738Y-13517619D02*
X157305357Y-13470000D01*
X157400595Y-13422380D01*
X157638690Y-13422380D01*
X157733928Y-13470000D01*
X157781547Y-13517619D01*
X157829166Y-13612857D01*
X157829166Y-13708095D01*
X157781547Y-13850952D01*
X157210119Y-14422380D01*
X157829166Y-14422380D01*
X158733928Y-13422380D02*
X158257738Y-13422380D01*
X158210119Y-13898571D01*
X158257738Y-13850952D01*
X158352976Y-13803333D01*
X158591071Y-13803333D01*
X158686309Y-13850952D01*
X158733928Y-13898571D01*
X158781547Y-13993809D01*
X158781547Y-14231904D01*
X158733928Y-14327142D01*
X158686309Y-14374761D01*
X158591071Y-14422380D01*
X158352976Y-14422380D01*
X158257738Y-14374761D01*
X158210119Y-14327142D01*
X174593452Y-14374761D02*
X174736309Y-14422380D01*
X174974404Y-14422380D01*
X175069642Y-14374761D01*
X175117261Y-14327142D01*
X175164880Y-14231904D01*
X175164880Y-14136666D01*
X175117261Y-14041428D01*
X175069642Y-13993809D01*
X174974404Y-13946190D01*
X174783928Y-13898571D01*
X174688690Y-13850952D01*
X174641071Y-13803333D01*
X174593452Y-13708095D01*
X174593452Y-13612857D01*
X174641071Y-13517619D01*
X174688690Y-13470000D01*
X174783928Y-13422380D01*
X175022023Y-13422380D01*
X175164880Y-13470000D01*
X175355357Y-14517619D02*
X176117261Y-14517619D01*
X176307738Y-13517619D02*
X176355357Y-13470000D01*
X176450595Y-13422380D01*
X176688690Y-13422380D01*
X176783928Y-13470000D01*
X176831547Y-13517619D01*
X176879166Y-13612857D01*
X176879166Y-13708095D01*
X176831547Y-13850952D01*
X176260119Y-14422380D01*
X176879166Y-14422380D01*
X177736309Y-13422380D02*
X177545833Y-13422380D01*
X177450595Y-13470000D01*
X177402976Y-13517619D01*
X177307738Y-13660476D01*
X177260119Y-13850952D01*
X177260119Y-14231904D01*
X177307738Y-14327142D01*
X177355357Y-14374761D01*
X177450595Y-14422380D01*
X177641071Y-14422380D01*
X177736309Y-14374761D01*
X177783928Y-14327142D01*
X177831547Y-14231904D01*
X177831547Y-13993809D01*
X177783928Y-13898571D01*
X177736309Y-13850952D01*
X177641071Y-13803333D01*
X177450595Y-13803333D01*
X177355357Y-13850952D01*
X177307738Y-13898571D01*
X177260119Y-13993809D01*
X193643452Y-14374761D02*
X193786309Y-14422380D01*
X194024404Y-14422380D01*
X194119642Y-14374761D01*
X194167261Y-14327142D01*
X194214880Y-14231904D01*
X194214880Y-14136666D01*
X194167261Y-14041428D01*
X194119642Y-13993809D01*
X194024404Y-13946190D01*
X193833928Y-13898571D01*
X193738690Y-13850952D01*
X193691071Y-13803333D01*
X193643452Y-13708095D01*
X193643452Y-13612857D01*
X193691071Y-13517619D01*
X193738690Y-13470000D01*
X193833928Y-13422380D01*
X194072023Y-13422380D01*
X194214880Y-13470000D01*
X194405357Y-14517619D02*
X195167261Y-14517619D01*
X195357738Y-13517619D02*
X195405357Y-13470000D01*
X195500595Y-13422380D01*
X195738690Y-13422380D01*
X195833928Y-13470000D01*
X195881547Y-13517619D01*
X195929166Y-13612857D01*
X195929166Y-13708095D01*
X195881547Y-13850952D01*
X195310119Y-14422380D01*
X195929166Y-14422380D01*
X196262500Y-13422380D02*
X196929166Y-13422380D01*
X196500595Y-14422380D01*
X212693452Y-14374761D02*
X212836309Y-14422380D01*
X213074404Y-14422380D01*
X213169642Y-14374761D01*
X213217261Y-14327142D01*
X213264880Y-14231904D01*
X213264880Y-14136666D01*
X213217261Y-14041428D01*
X213169642Y-13993809D01*
X213074404Y-13946190D01*
X212883928Y-13898571D01*
X212788690Y-13850952D01*
X212741071Y-13803333D01*
X212693452Y-13708095D01*
X212693452Y-13612857D01*
X212741071Y-13517619D01*
X212788690Y-13470000D01*
X212883928Y-13422380D01*
X213122023Y-13422380D01*
X213264880Y-13470000D01*
X213455357Y-14517619D02*
X214217261Y-14517619D01*
X214407738Y-13517619D02*
X214455357Y-13470000D01*
X214550595Y-13422380D01*
X214788690Y-13422380D01*
X214883928Y-13470000D01*
X214931547Y-13517619D01*
X214979166Y-13612857D01*
X214979166Y-13708095D01*
X214931547Y-13850952D01*
X214360119Y-14422380D01*
X214979166Y-14422380D01*
X215550595Y-13850952D02*
X215455357Y-13803333D01*
X215407738Y-13755714D01*
X215360119Y-13660476D01*
X215360119Y-13612857D01*
X215407738Y-13517619D01*
X215455357Y-13470000D01*
X215550595Y-13422380D01*
X215741071Y-13422380D01*
X215836309Y-13470000D01*
X215883928Y-13517619D01*
X215931547Y-13612857D01*
X215931547Y-13660476D01*
X215883928Y-13755714D01*
X215836309Y-13803333D01*
X215741071Y-13850952D01*
X215550595Y-13850952D01*
X215455357Y-13898571D01*
X215407738Y-13946190D01*
X215360119Y-14041428D01*
X215360119Y-14231904D01*
X215407738Y-14327142D01*
X215455357Y-14374761D01*
X215550595Y-14422380D01*
X215741071Y-14422380D01*
X215836309Y-14374761D01*
X215883928Y-14327142D01*
X215931547Y-14231904D01*
X215931547Y-14041428D01*
X215883928Y-13946190D01*
X215836309Y-13898571D01*
X215741071Y-13850952D01*
X231743452Y-14374761D02*
X231886309Y-14422380D01*
X232124404Y-14422380D01*
X232219642Y-14374761D01*
X232267261Y-14327142D01*
X232314880Y-14231904D01*
X232314880Y-14136666D01*
X232267261Y-14041428D01*
X232219642Y-13993809D01*
X232124404Y-13946190D01*
X231933928Y-13898571D01*
X231838690Y-13850952D01*
X231791071Y-13803333D01*
X231743452Y-13708095D01*
X231743452Y-13612857D01*
X231791071Y-13517619D01*
X231838690Y-13470000D01*
X231933928Y-13422380D01*
X232172023Y-13422380D01*
X232314880Y-13470000D01*
X232505357Y-14517619D02*
X233267261Y-14517619D01*
X233457738Y-13517619D02*
X233505357Y-13470000D01*
X233600595Y-13422380D01*
X233838690Y-13422380D01*
X233933928Y-13470000D01*
X233981547Y-13517619D01*
X234029166Y-13612857D01*
X234029166Y-13708095D01*
X233981547Y-13850952D01*
X233410119Y-14422380D01*
X234029166Y-14422380D01*
X234505357Y-14422380D02*
X234695833Y-14422380D01*
X234791071Y-14374761D01*
X234838690Y-14327142D01*
X234933928Y-14184285D01*
X234981547Y-13993809D01*
X234981547Y-13612857D01*
X234933928Y-13517619D01*
X234886309Y-13470000D01*
X234791071Y-13422380D01*
X234600595Y-13422380D01*
X234505357Y-13470000D01*
X234457738Y-13517619D01*
X234410119Y-13612857D01*
X234410119Y-13850952D01*
X234457738Y-13946190D01*
X234505357Y-13993809D01*
X234600595Y-14041428D01*
X234791071Y-14041428D01*
X234886309Y-13993809D01*
X234933928Y-13946190D01*
X234981547Y-13850952D01*
X250793452Y-14374761D02*
X250936309Y-14422380D01*
X251174404Y-14422380D01*
X251269642Y-14374761D01*
X251317261Y-14327142D01*
X251364880Y-14231904D01*
X251364880Y-14136666D01*
X251317261Y-14041428D01*
X251269642Y-13993809D01*
X251174404Y-13946190D01*
X250983928Y-13898571D01*
X250888690Y-13850952D01*
X250841071Y-13803333D01*
X250793452Y-13708095D01*
X250793452Y-13612857D01*
X250841071Y-13517619D01*
X250888690Y-13470000D01*
X250983928Y-13422380D01*
X251222023Y-13422380D01*
X251364880Y-13470000D01*
X251555357Y-14517619D02*
X252317261Y-14517619D01*
X252460119Y-13422380D02*
X253079166Y-13422380D01*
X252745833Y-13803333D01*
X252888690Y-13803333D01*
X252983928Y-13850952D01*
X253031547Y-13898571D01*
X253079166Y-13993809D01*
X253079166Y-14231904D01*
X253031547Y-14327142D01*
X252983928Y-14374761D01*
X252888690Y-14422380D01*
X252602976Y-14422380D01*
X252507738Y-14374761D01*
X252460119Y-14327142D01*
X253698214Y-13422380D02*
X253793452Y-13422380D01*
X253888690Y-13470000D01*
X253936309Y-13517619D01*
X253983928Y-13612857D01*
X254031547Y-13803333D01*
X254031547Y-14041428D01*
X253983928Y-14231904D01*
X253936309Y-14327142D01*
X253888690Y-14374761D01*
X253793452Y-14422380D01*
X253698214Y-14422380D01*
X253602976Y-14374761D01*
X253555357Y-14327142D01*
X253507738Y-14231904D01*
X253460119Y-14041428D01*
X253460119Y-13803333D01*
X253507738Y-13612857D01*
X253555357Y-13517619D01*
X253602976Y-13470000D01*
X253698214Y-13422380D01*
X274605952Y4675238D02*
X274748809Y4627619D01*
X274986904Y4627619D01*
X275082142Y4675238D01*
X275129761Y4722857D01*
X275177380Y4818095D01*
X275177380Y4913333D01*
X275129761Y5008571D01*
X275082142Y5056190D01*
X274986904Y5103809D01*
X274796428Y5151428D01*
X274701190Y5199047D01*
X274653571Y5246666D01*
X274605952Y5341904D01*
X274605952Y5437142D01*
X274653571Y5532380D01*
X274701190Y5580000D01*
X274796428Y5627619D01*
X275034523Y5627619D01*
X275177380Y5580000D01*
X275367857Y4532380D02*
X276129761Y4532380D01*
X276891666Y4627619D02*
X276320238Y4627619D01*
X276605952Y4627619D02*
X276605952Y5627619D01*
X276510714Y5484761D01*
X276415476Y5389523D01*
X276320238Y5341904D01*
X277796428Y5627619D02*
X277320238Y5627619D01*
X277272619Y5151428D01*
X277320238Y5199047D01*
X277415476Y5246666D01*
X277653571Y5246666D01*
X277748809Y5199047D01*
X277796428Y5151428D01*
X277844047Y5056190D01*
X277844047Y4818095D01*
X277796428Y4722857D01*
X277748809Y4675238D01*
X277653571Y4627619D01*
X277415476Y4627619D01*
X277320238Y4675238D01*
X277272619Y4722857D01*
X-1619047Y-33424761D02*
X-1476190Y-33472380D01*
X-1238095Y-33472380D01*
X-1142857Y-33424761D01*
X-1095238Y-33377142D01*
X-1047619Y-33281904D01*
X-1047619Y-33186666D01*
X-1095238Y-33091428D01*
X-1142857Y-33043809D01*
X-1238095Y-32996190D01*
X-1428571Y-32948571D01*
X-1523809Y-32900952D01*
X-1571428Y-32853333D01*
X-1619047Y-32758095D01*
X-1619047Y-32662857D01*
X-1571428Y-32567619D01*
X-1523809Y-32520000D01*
X-1428571Y-32472380D01*
X-1190476Y-32472380D01*
X-1047619Y-32520000D01*
X-857142Y-33567619D02*
X-95238Y-33567619D01*
X47619Y-32472380D02*
X666666Y-32472380D01*
X333333Y-32853333D01*
X476190Y-32853333D01*
X571428Y-32900952D01*
X619047Y-32948571D01*
X666666Y-33043809D01*
X666666Y-33281904D01*
X619047Y-33377142D01*
X571428Y-33424761D01*
X476190Y-33472380D01*
X190476Y-33472380D01*
X95238Y-33424761D01*
X47619Y-33377142D01*
X1000000Y-32472380D02*
X1619047Y-32472380D01*
X1285714Y-32853333D01*
X1428571Y-32853333D01*
X1523809Y-32900952D01*
X1571428Y-32948571D01*
X1619047Y-33043809D01*
X1619047Y-33281904D01*
X1571428Y-33377142D01*
X1523809Y-33424761D01*
X1428571Y-33472380D01*
X1142857Y-33472380D01*
X1047619Y-33424761D01*
X1000000Y-33377142D01*
X26280952Y-36354761D02*
X26423809Y-36402380D01*
X26661904Y-36402380D01*
X26757142Y-36354761D01*
X26804761Y-36307142D01*
X26852380Y-36211904D01*
X26852380Y-36116666D01*
X26804761Y-36021428D01*
X26757142Y-35973809D01*
X26661904Y-35926190D01*
X26471428Y-35878571D01*
X26376190Y-35830952D01*
X26328571Y-35783333D01*
X26280952Y-35688095D01*
X26280952Y-35592857D01*
X26328571Y-35497619D01*
X26376190Y-35450000D01*
X26471428Y-35402380D01*
X26709523Y-35402380D01*
X26852380Y-35450000D01*
X27042857Y-36497619D02*
X27804761Y-36497619D01*
X27947619Y-35402380D02*
X28566666Y-35402380D01*
X28233333Y-35783333D01*
X28376190Y-35783333D01*
X28471428Y-35830952D01*
X28519047Y-35878571D01*
X28566666Y-35973809D01*
X28566666Y-36211904D01*
X28519047Y-36307142D01*
X28471428Y-36354761D01*
X28376190Y-36402380D01*
X28090476Y-36402380D01*
X27995238Y-36354761D01*
X27947619Y-36307142D01*
X29423809Y-35735714D02*
X29423809Y-36402380D01*
X29185714Y-35354761D02*
X28947619Y-36069047D01*
X29566666Y-36069047D01*
X41243452Y-33424761D02*
X41386309Y-33472380D01*
X41624404Y-33472380D01*
X41719642Y-33424761D01*
X41767261Y-33377142D01*
X41814880Y-33281904D01*
X41814880Y-33186666D01*
X41767261Y-33091428D01*
X41719642Y-33043809D01*
X41624404Y-32996190D01*
X41433928Y-32948571D01*
X41338690Y-32900952D01*
X41291071Y-32853333D01*
X41243452Y-32758095D01*
X41243452Y-32662857D01*
X41291071Y-32567619D01*
X41338690Y-32520000D01*
X41433928Y-32472380D01*
X41672023Y-32472380D01*
X41814880Y-32520000D01*
X42005357Y-33567619D02*
X42767261Y-33567619D01*
X42910119Y-32472380D02*
X43529166Y-32472380D01*
X43195833Y-32853333D01*
X43338690Y-32853333D01*
X43433928Y-32900952D01*
X43481547Y-32948571D01*
X43529166Y-33043809D01*
X43529166Y-33281904D01*
X43481547Y-33377142D01*
X43433928Y-33424761D01*
X43338690Y-33472380D01*
X43052976Y-33472380D01*
X42957738Y-33424761D01*
X42910119Y-33377142D01*
X44433928Y-32472380D02*
X43957738Y-32472380D01*
X43910119Y-32948571D01*
X43957738Y-32900952D01*
X44052976Y-32853333D01*
X44291071Y-32853333D01*
X44386309Y-32900952D01*
X44433928Y-32948571D01*
X44481547Y-33043809D01*
X44481547Y-33281904D01*
X44433928Y-33377142D01*
X44386309Y-33424761D01*
X44291071Y-33472380D01*
X44052976Y-33472380D01*
X43957738Y-33424761D01*
X43910119Y-33377142D01*
X60293452Y-33424761D02*
X60436309Y-33472380D01*
X60674404Y-33472380D01*
X60769642Y-33424761D01*
X60817261Y-33377142D01*
X60864880Y-33281904D01*
X60864880Y-33186666D01*
X60817261Y-33091428D01*
X60769642Y-33043809D01*
X60674404Y-32996190D01*
X60483928Y-32948571D01*
X60388690Y-32900952D01*
X60341071Y-32853333D01*
X60293452Y-32758095D01*
X60293452Y-32662857D01*
X60341071Y-32567619D01*
X60388690Y-32520000D01*
X60483928Y-32472380D01*
X60722023Y-32472380D01*
X60864880Y-32520000D01*
X61055357Y-33567619D02*
X61817261Y-33567619D01*
X61960119Y-32472380D02*
X62579166Y-32472380D01*
X62245833Y-32853333D01*
X62388690Y-32853333D01*
X62483928Y-32900952D01*
X62531547Y-32948571D01*
X62579166Y-33043809D01*
X62579166Y-33281904D01*
X62531547Y-33377142D01*
X62483928Y-33424761D01*
X62388690Y-33472380D01*
X62102976Y-33472380D01*
X62007738Y-33424761D01*
X61960119Y-33377142D01*
X63436309Y-32472380D02*
X63245833Y-32472380D01*
X63150595Y-32520000D01*
X63102976Y-32567619D01*
X63007738Y-32710476D01*
X62960119Y-32900952D01*
X62960119Y-33281904D01*
X63007738Y-33377142D01*
X63055357Y-33424761D01*
X63150595Y-33472380D01*
X63341071Y-33472380D01*
X63436309Y-33424761D01*
X63483928Y-33377142D01*
X63531547Y-33281904D01*
X63531547Y-33043809D01*
X63483928Y-32948571D01*
X63436309Y-32900952D01*
X63341071Y-32853333D01*
X63150595Y-32853333D01*
X63055357Y-32900952D01*
X63007738Y-32948571D01*
X62960119Y-33043809D01*
X79343452Y-33424761D02*
X79486309Y-33472380D01*
X79724404Y-33472380D01*
X79819642Y-33424761D01*
X79867261Y-33377142D01*
X79914880Y-33281904D01*
X79914880Y-33186666D01*
X79867261Y-33091428D01*
X79819642Y-33043809D01*
X79724404Y-32996190D01*
X79533928Y-32948571D01*
X79438690Y-32900952D01*
X79391071Y-32853333D01*
X79343452Y-32758095D01*
X79343452Y-32662857D01*
X79391071Y-32567619D01*
X79438690Y-32520000D01*
X79533928Y-32472380D01*
X79772023Y-32472380D01*
X79914880Y-32520000D01*
X80105357Y-33567619D02*
X80867261Y-33567619D01*
X81010119Y-32472380D02*
X81629166Y-32472380D01*
X81295833Y-32853333D01*
X81438690Y-32853333D01*
X81533928Y-32900952D01*
X81581547Y-32948571D01*
X81629166Y-33043809D01*
X81629166Y-33281904D01*
X81581547Y-33377142D01*
X81533928Y-33424761D01*
X81438690Y-33472380D01*
X81152976Y-33472380D01*
X81057738Y-33424761D01*
X81010119Y-33377142D01*
X81962500Y-32472380D02*
X82629166Y-32472380D01*
X82200595Y-33472380D01*
X98393452Y-33424761D02*
X98536309Y-33472380D01*
X98774404Y-33472380D01*
X98869642Y-33424761D01*
X98917261Y-33377142D01*
X98964880Y-33281904D01*
X98964880Y-33186666D01*
X98917261Y-33091428D01*
X98869642Y-33043809D01*
X98774404Y-32996190D01*
X98583928Y-32948571D01*
X98488690Y-32900952D01*
X98441071Y-32853333D01*
X98393452Y-32758095D01*
X98393452Y-32662857D01*
X98441071Y-32567619D01*
X98488690Y-32520000D01*
X98583928Y-32472380D01*
X98822023Y-32472380D01*
X98964880Y-32520000D01*
X99155357Y-33567619D02*
X99917261Y-33567619D01*
X100060119Y-32472380D02*
X100679166Y-32472380D01*
X100345833Y-32853333D01*
X100488690Y-32853333D01*
X100583928Y-32900952D01*
X100631547Y-32948571D01*
X100679166Y-33043809D01*
X100679166Y-33281904D01*
X100631547Y-33377142D01*
X100583928Y-33424761D01*
X100488690Y-33472380D01*
X100202976Y-33472380D01*
X100107738Y-33424761D01*
X100060119Y-33377142D01*
X101250595Y-32900952D02*
X101155357Y-32853333D01*
X101107738Y-32805714D01*
X101060119Y-32710476D01*
X101060119Y-32662857D01*
X101107738Y-32567619D01*
X101155357Y-32520000D01*
X101250595Y-32472380D01*
X101441071Y-32472380D01*
X101536309Y-32520000D01*
X101583928Y-32567619D01*
X101631547Y-32662857D01*
X101631547Y-32710476D01*
X101583928Y-32805714D01*
X101536309Y-32853333D01*
X101441071Y-32900952D01*
X101250595Y-32900952D01*
X101155357Y-32948571D01*
X101107738Y-32996190D01*
X101060119Y-33091428D01*
X101060119Y-33281904D01*
X101107738Y-33377142D01*
X101155357Y-33424761D01*
X101250595Y-33472380D01*
X101441071Y-33472380D01*
X101536309Y-33424761D01*
X101583928Y-33377142D01*
X101631547Y-33281904D01*
X101631547Y-33091428D01*
X101583928Y-32996190D01*
X101536309Y-32948571D01*
X101441071Y-32900952D01*
X117443452Y-33424761D02*
X117586309Y-33472380D01*
X117824404Y-33472380D01*
X117919642Y-33424761D01*
X117967261Y-33377142D01*
X118014880Y-33281904D01*
X118014880Y-33186666D01*
X117967261Y-33091428D01*
X117919642Y-33043809D01*
X117824404Y-32996190D01*
X117633928Y-32948571D01*
X117538690Y-32900952D01*
X117491071Y-32853333D01*
X117443452Y-32758095D01*
X117443452Y-32662857D01*
X117491071Y-32567619D01*
X117538690Y-32520000D01*
X117633928Y-32472380D01*
X117872023Y-32472380D01*
X118014880Y-32520000D01*
X118205357Y-33567619D02*
X118967261Y-33567619D01*
X119110119Y-32472380D02*
X119729166Y-32472380D01*
X119395833Y-32853333D01*
X119538690Y-32853333D01*
X119633928Y-32900952D01*
X119681547Y-32948571D01*
X119729166Y-33043809D01*
X119729166Y-33281904D01*
X119681547Y-33377142D01*
X119633928Y-33424761D01*
X119538690Y-33472380D01*
X119252976Y-33472380D01*
X119157738Y-33424761D01*
X119110119Y-33377142D01*
X120205357Y-33472380D02*
X120395833Y-33472380D01*
X120491071Y-33424761D01*
X120538690Y-33377142D01*
X120633928Y-33234285D01*
X120681547Y-33043809D01*
X120681547Y-32662857D01*
X120633928Y-32567619D01*
X120586309Y-32520000D01*
X120491071Y-32472380D01*
X120300595Y-32472380D01*
X120205357Y-32520000D01*
X120157738Y-32567619D01*
X120110119Y-32662857D01*
X120110119Y-32900952D01*
X120157738Y-32996190D01*
X120205357Y-33043809D01*
X120300595Y-33091428D01*
X120491071Y-33091428D01*
X120586309Y-33043809D01*
X120633928Y-32996190D01*
X120681547Y-32900952D01*
X136493452Y-33424761D02*
X136636309Y-33472380D01*
X136874404Y-33472380D01*
X136969642Y-33424761D01*
X137017261Y-33377142D01*
X137064880Y-33281904D01*
X137064880Y-33186666D01*
X137017261Y-33091428D01*
X136969642Y-33043809D01*
X136874404Y-32996190D01*
X136683928Y-32948571D01*
X136588690Y-32900952D01*
X136541071Y-32853333D01*
X136493452Y-32758095D01*
X136493452Y-32662857D01*
X136541071Y-32567619D01*
X136588690Y-32520000D01*
X136683928Y-32472380D01*
X136922023Y-32472380D01*
X137064880Y-32520000D01*
X137255357Y-33567619D02*
X138017261Y-33567619D01*
X138683928Y-32805714D02*
X138683928Y-33472380D01*
X138445833Y-32424761D02*
X138207738Y-33139047D01*
X138826785Y-33139047D01*
X139398214Y-32472380D02*
X139493452Y-32472380D01*
X139588690Y-32520000D01*
X139636309Y-32567619D01*
X139683928Y-32662857D01*
X139731547Y-32853333D01*
X139731547Y-33091428D01*
X139683928Y-33281904D01*
X139636309Y-33377142D01*
X139588690Y-33424761D01*
X139493452Y-33472380D01*
X139398214Y-33472380D01*
X139302976Y-33424761D01*
X139255357Y-33377142D01*
X139207738Y-33281904D01*
X139160119Y-33091428D01*
X139160119Y-32853333D01*
X139207738Y-32662857D01*
X139255357Y-32567619D01*
X139302976Y-32520000D01*
X139398214Y-32472380D01*
X155543452Y-33424761D02*
X155686309Y-33472380D01*
X155924404Y-33472380D01*
X156019642Y-33424761D01*
X156067261Y-33377142D01*
X156114880Y-33281904D01*
X156114880Y-33186666D01*
X156067261Y-33091428D01*
X156019642Y-33043809D01*
X155924404Y-32996190D01*
X155733928Y-32948571D01*
X155638690Y-32900952D01*
X155591071Y-32853333D01*
X155543452Y-32758095D01*
X155543452Y-32662857D01*
X155591071Y-32567619D01*
X155638690Y-32520000D01*
X155733928Y-32472380D01*
X155972023Y-32472380D01*
X156114880Y-32520000D01*
X156305357Y-33567619D02*
X157067261Y-33567619D01*
X157733928Y-32805714D02*
X157733928Y-33472380D01*
X157495833Y-32424761D02*
X157257738Y-33139047D01*
X157876785Y-33139047D01*
X158781547Y-33472380D02*
X158210119Y-33472380D01*
X158495833Y-33472380D02*
X158495833Y-32472380D01*
X158400595Y-32615238D01*
X158305357Y-32710476D01*
X158210119Y-32758095D01*
X174593452Y-33424761D02*
X174736309Y-33472380D01*
X174974404Y-33472380D01*
X175069642Y-33424761D01*
X175117261Y-33377142D01*
X175164880Y-33281904D01*
X175164880Y-33186666D01*
X175117261Y-33091428D01*
X175069642Y-33043809D01*
X174974404Y-32996190D01*
X174783928Y-32948571D01*
X174688690Y-32900952D01*
X174641071Y-32853333D01*
X174593452Y-32758095D01*
X174593452Y-32662857D01*
X174641071Y-32567619D01*
X174688690Y-32520000D01*
X174783928Y-32472380D01*
X175022023Y-32472380D01*
X175164880Y-32520000D01*
X175355357Y-33567619D02*
X176117261Y-33567619D01*
X176783928Y-32805714D02*
X176783928Y-33472380D01*
X176545833Y-32424761D02*
X176307738Y-33139047D01*
X176926785Y-33139047D01*
X177260119Y-32567619D02*
X177307738Y-32520000D01*
X177402976Y-32472380D01*
X177641071Y-32472380D01*
X177736309Y-32520000D01*
X177783928Y-32567619D01*
X177831547Y-32662857D01*
X177831547Y-32758095D01*
X177783928Y-32900952D01*
X177212500Y-33472380D01*
X177831547Y-33472380D01*
X193643452Y-33424761D02*
X193786309Y-33472380D01*
X194024404Y-33472380D01*
X194119642Y-33424761D01*
X194167261Y-33377142D01*
X194214880Y-33281904D01*
X194214880Y-33186666D01*
X194167261Y-33091428D01*
X194119642Y-33043809D01*
X194024404Y-32996190D01*
X193833928Y-32948571D01*
X193738690Y-32900952D01*
X193691071Y-32853333D01*
X193643452Y-32758095D01*
X193643452Y-32662857D01*
X193691071Y-32567619D01*
X193738690Y-32520000D01*
X193833928Y-32472380D01*
X194072023Y-32472380D01*
X194214880Y-32520000D01*
X194405357Y-33567619D02*
X195167261Y-33567619D01*
X195833928Y-32805714D02*
X195833928Y-33472380D01*
X195595833Y-32424761D02*
X195357738Y-33139047D01*
X195976785Y-33139047D01*
X196262500Y-32472380D02*
X196881547Y-32472380D01*
X196548214Y-32853333D01*
X196691071Y-32853333D01*
X196786309Y-32900952D01*
X196833928Y-32948571D01*
X196881547Y-33043809D01*
X196881547Y-33281904D01*
X196833928Y-33377142D01*
X196786309Y-33424761D01*
X196691071Y-33472380D01*
X196405357Y-33472380D01*
X196310119Y-33424761D01*
X196262500Y-33377142D01*
X212693452Y-33424761D02*
X212836309Y-33472380D01*
X213074404Y-33472380D01*
X213169642Y-33424761D01*
X213217261Y-33377142D01*
X213264880Y-33281904D01*
X213264880Y-33186666D01*
X213217261Y-33091428D01*
X213169642Y-33043809D01*
X213074404Y-32996190D01*
X212883928Y-32948571D01*
X212788690Y-32900952D01*
X212741071Y-32853333D01*
X212693452Y-32758095D01*
X212693452Y-32662857D01*
X212741071Y-32567619D01*
X212788690Y-32520000D01*
X212883928Y-32472380D01*
X213122023Y-32472380D01*
X213264880Y-32520000D01*
X213455357Y-33567619D02*
X214217261Y-33567619D01*
X214883928Y-32805714D02*
X214883928Y-33472380D01*
X214645833Y-32424761D02*
X214407738Y-33139047D01*
X215026785Y-33139047D01*
X215836309Y-32805714D02*
X215836309Y-33472380D01*
X215598214Y-32424761D02*
X215360119Y-33139047D01*
X215979166Y-33139047D01*
X231743452Y-33424761D02*
X231886309Y-33472380D01*
X232124404Y-33472380D01*
X232219642Y-33424761D01*
X232267261Y-33377142D01*
X232314880Y-33281904D01*
X232314880Y-33186666D01*
X232267261Y-33091428D01*
X232219642Y-33043809D01*
X232124404Y-32996190D01*
X231933928Y-32948571D01*
X231838690Y-32900952D01*
X231791071Y-32853333D01*
X231743452Y-32758095D01*
X231743452Y-32662857D01*
X231791071Y-32567619D01*
X231838690Y-32520000D01*
X231933928Y-32472380D01*
X232172023Y-32472380D01*
X232314880Y-32520000D01*
X232505357Y-33567619D02*
X233267261Y-33567619D01*
X233933928Y-32805714D02*
X233933928Y-33472380D01*
X233695833Y-32424761D02*
X233457738Y-33139047D01*
X234076785Y-33139047D01*
X234933928Y-32472380D02*
X234457738Y-32472380D01*
X234410119Y-32948571D01*
X234457738Y-32900952D01*
X234552976Y-32853333D01*
X234791071Y-32853333D01*
X234886309Y-32900952D01*
X234933928Y-32948571D01*
X234981547Y-33043809D01*
X234981547Y-33281904D01*
X234933928Y-33377142D01*
X234886309Y-33424761D01*
X234791071Y-33472380D01*
X234552976Y-33472380D01*
X234457738Y-33424761D01*
X234410119Y-33377142D01*
X250793452Y-33424761D02*
X250936309Y-33472380D01*
X251174404Y-33472380D01*
X251269642Y-33424761D01*
X251317261Y-33377142D01*
X251364880Y-33281904D01*
X251364880Y-33186666D01*
X251317261Y-33091428D01*
X251269642Y-33043809D01*
X251174404Y-32996190D01*
X250983928Y-32948571D01*
X250888690Y-32900952D01*
X250841071Y-32853333D01*
X250793452Y-32758095D01*
X250793452Y-32662857D01*
X250841071Y-32567619D01*
X250888690Y-32520000D01*
X250983928Y-32472380D01*
X251222023Y-32472380D01*
X251364880Y-32520000D01*
X251555357Y-33567619D02*
X252317261Y-33567619D01*
X252983928Y-32805714D02*
X252983928Y-33472380D01*
X252745833Y-32424761D02*
X252507738Y-33139047D01*
X253126785Y-33139047D01*
X253936309Y-32472380D02*
X253745833Y-32472380D01*
X253650595Y-32520000D01*
X253602976Y-32567619D01*
X253507738Y-32710476D01*
X253460119Y-32900952D01*
X253460119Y-33281904D01*
X253507738Y-33377142D01*
X253555357Y-33424761D01*
X253650595Y-33472380D01*
X253841071Y-33472380D01*
X253936309Y-33424761D01*
X253983928Y-33377142D01*
X254031547Y-33281904D01*
X254031547Y-33043809D01*
X253983928Y-32948571D01*
X253936309Y-32900952D01*
X253841071Y-32853333D01*
X253650595Y-32853333D01*
X253555357Y-32900952D01*
X253507738Y-32948571D01*
X253460119Y-33043809D01*
X274605952Y-14374761D02*
X274748809Y-14422380D01*
X274986904Y-14422380D01*
X275082142Y-14374761D01*
X275129761Y-14327142D01*
X275177380Y-14231904D01*
X275177380Y-14136666D01*
X275129761Y-14041428D01*
X275082142Y-13993809D01*
X274986904Y-13946190D01*
X274796428Y-13898571D01*
X274701190Y-13850952D01*
X274653571Y-13803333D01*
X274605952Y-13708095D01*
X274605952Y-13612857D01*
X274653571Y-13517619D01*
X274701190Y-13470000D01*
X274796428Y-13422380D01*
X275034523Y-13422380D01*
X275177380Y-13470000D01*
X275367857Y-14517619D02*
X276129761Y-14517619D01*
X276272619Y-13422380D02*
X276891666Y-13422380D01*
X276558333Y-13803333D01*
X276701190Y-13803333D01*
X276796428Y-13850952D01*
X276844047Y-13898571D01*
X276891666Y-13993809D01*
X276891666Y-14231904D01*
X276844047Y-14327142D01*
X276796428Y-14374761D01*
X276701190Y-14422380D01*
X276415476Y-14422380D01*
X276320238Y-14374761D01*
X276272619Y-14327142D01*
X277844047Y-14422380D02*
X277272619Y-14422380D01*
X277558333Y-14422380D02*
X277558333Y-13422380D01*
X277463095Y-13565238D01*
X277367857Y-13660476D01*
X277272619Y-13708095D01*
X-1619047Y-52474761D02*
X-1476190Y-52522380D01*
X-1238095Y-52522380D01*
X-1142857Y-52474761D01*
X-1095238Y-52427142D01*
X-1047619Y-52331904D01*
X-1047619Y-52236666D01*
X-1095238Y-52141428D01*
X-1142857Y-52093809D01*
X-1238095Y-52046190D01*
X-1428571Y-51998571D01*
X-1523809Y-51950952D01*
X-1571428Y-51903333D01*
X-1619047Y-51808095D01*
X-1619047Y-51712857D01*
X-1571428Y-51617619D01*
X-1523809Y-51570000D01*
X-1428571Y-51522380D01*
X-1190476Y-51522380D01*
X-1047619Y-51570000D01*
X-857142Y-52617619D02*
X-95238Y-52617619D01*
X571428Y-51855714D02*
X571428Y-52522380D01*
X333333Y-51474761D02*
X95238Y-52189047D01*
X714285Y-52189047D01*
X1000000Y-51522380D02*
X1666666Y-51522380D01*
X1238095Y-52522380D01*
X26955952Y-52474761D02*
X27098809Y-52522380D01*
X27336904Y-52522380D01*
X27432142Y-52474761D01*
X27479761Y-52427142D01*
X27527380Y-52331904D01*
X27527380Y-52236666D01*
X27479761Y-52141428D01*
X27432142Y-52093809D01*
X27336904Y-52046190D01*
X27146428Y-51998571D01*
X27051190Y-51950952D01*
X27003571Y-51903333D01*
X26955952Y-51808095D01*
X26955952Y-51712857D01*
X27003571Y-51617619D01*
X27051190Y-51570000D01*
X27146428Y-51522380D01*
X27384523Y-51522380D01*
X27527380Y-51570000D01*
X27717857Y-52617619D02*
X28479761Y-52617619D01*
X29146428Y-51855714D02*
X29146428Y-52522380D01*
X28908333Y-51474761D02*
X28670238Y-52189047D01*
X29289285Y-52189047D01*
X29813095Y-51950952D02*
X29717857Y-51903333D01*
X29670238Y-51855714D01*
X29622619Y-51760476D01*
X29622619Y-51712857D01*
X29670238Y-51617619D01*
X29717857Y-51570000D01*
X29813095Y-51522380D01*
X30003571Y-51522380D01*
X30098809Y-51570000D01*
X30146428Y-51617619D01*
X30194047Y-51712857D01*
X30194047Y-51760476D01*
X30146428Y-51855714D01*
X30098809Y-51903333D01*
X30003571Y-51950952D01*
X29813095Y-51950952D01*
X29717857Y-51998571D01*
X29670238Y-52046190D01*
X29622619Y-52141428D01*
X29622619Y-52331904D01*
X29670238Y-52427142D01*
X29717857Y-52474761D01*
X29813095Y-52522380D01*
X30003571Y-52522380D01*
X30098809Y-52474761D01*
X30146428Y-52427142D01*
X30194047Y-52331904D01*
X30194047Y-52141428D01*
X30146428Y-52046190D01*
X30098809Y-51998571D01*
X30003571Y-51950952D01*
X50768452Y-52474761D02*
X50911309Y-52522380D01*
X51149404Y-52522380D01*
X51244642Y-52474761D01*
X51292261Y-52427142D01*
X51339880Y-52331904D01*
X51339880Y-52236666D01*
X51292261Y-52141428D01*
X51244642Y-52093809D01*
X51149404Y-52046190D01*
X50958928Y-51998571D01*
X50863690Y-51950952D01*
X50816071Y-51903333D01*
X50768452Y-51808095D01*
X50768452Y-51712857D01*
X50816071Y-51617619D01*
X50863690Y-51570000D01*
X50958928Y-51522380D01*
X51197023Y-51522380D01*
X51339880Y-51570000D01*
X51530357Y-52617619D02*
X52292261Y-52617619D01*
X52958928Y-51855714D02*
X52958928Y-52522380D01*
X52720833Y-51474761D02*
X52482738Y-52189047D01*
X53101785Y-52189047D01*
X53530357Y-52522380D02*
X53720833Y-52522380D01*
X53816071Y-52474761D01*
X53863690Y-52427142D01*
X53958928Y-52284285D01*
X54006547Y-52093809D01*
X54006547Y-51712857D01*
X53958928Y-51617619D01*
X53911309Y-51570000D01*
X53816071Y-51522380D01*
X53625595Y-51522380D01*
X53530357Y-51570000D01*
X53482738Y-51617619D01*
X53435119Y-51712857D01*
X53435119Y-51950952D01*
X53482738Y-52046190D01*
X53530357Y-52093809D01*
X53625595Y-52141428D01*
X53816071Y-52141428D01*
X53911309Y-52093809D01*
X53958928Y-52046190D01*
X54006547Y-51950952D01*
X69818452Y-52474761D02*
X69961309Y-52522380D01*
X70199404Y-52522380D01*
X70294642Y-52474761D01*
X70342261Y-52427142D01*
X70389880Y-52331904D01*
X70389880Y-52236666D01*
X70342261Y-52141428D01*
X70294642Y-52093809D01*
X70199404Y-52046190D01*
X70008928Y-51998571D01*
X69913690Y-51950952D01*
X69866071Y-51903333D01*
X69818452Y-51808095D01*
X69818452Y-51712857D01*
X69866071Y-51617619D01*
X69913690Y-51570000D01*
X70008928Y-51522380D01*
X70247023Y-51522380D01*
X70389880Y-51570000D01*
X70580357Y-52617619D02*
X71342261Y-52617619D01*
X72056547Y-51522380D02*
X71580357Y-51522380D01*
X71532738Y-51998571D01*
X71580357Y-51950952D01*
X71675595Y-51903333D01*
X71913690Y-51903333D01*
X72008928Y-51950952D01*
X72056547Y-51998571D01*
X72104166Y-52093809D01*
X72104166Y-52331904D01*
X72056547Y-52427142D01*
X72008928Y-52474761D01*
X71913690Y-52522380D01*
X71675595Y-52522380D01*
X71580357Y-52474761D01*
X71532738Y-52427142D01*
X72723214Y-51522380D02*
X72818452Y-51522380D01*
X72913690Y-51570000D01*
X72961309Y-51617619D01*
X73008928Y-51712857D01*
X73056547Y-51903333D01*
X73056547Y-52141428D01*
X73008928Y-52331904D01*
X72961309Y-52427142D01*
X72913690Y-52474761D01*
X72818452Y-52522380D01*
X72723214Y-52522380D01*
X72627976Y-52474761D01*
X72580357Y-52427142D01*
X72532738Y-52331904D01*
X72485119Y-52141428D01*
X72485119Y-51903333D01*
X72532738Y-51712857D01*
X72580357Y-51617619D01*
X72627976Y-51570000D01*
X72723214Y-51522380D01*
X88868452Y-52474761D02*
X89011309Y-52522380D01*
X89249404Y-52522380D01*
X89344642Y-52474761D01*
X89392261Y-52427142D01*
X89439880Y-52331904D01*
X89439880Y-52236666D01*
X89392261Y-52141428D01*
X89344642Y-52093809D01*
X89249404Y-52046190D01*
X89058928Y-51998571D01*
X88963690Y-51950952D01*
X88916071Y-51903333D01*
X88868452Y-51808095D01*
X88868452Y-51712857D01*
X88916071Y-51617619D01*
X88963690Y-51570000D01*
X89058928Y-51522380D01*
X89297023Y-51522380D01*
X89439880Y-51570000D01*
X89630357Y-52617619D02*
X90392261Y-52617619D01*
X91106547Y-51522380D02*
X90630357Y-51522380D01*
X90582738Y-51998571D01*
X90630357Y-51950952D01*
X90725595Y-51903333D01*
X90963690Y-51903333D01*
X91058928Y-51950952D01*
X91106547Y-51998571D01*
X91154166Y-52093809D01*
X91154166Y-52331904D01*
X91106547Y-52427142D01*
X91058928Y-52474761D01*
X90963690Y-52522380D01*
X90725595Y-52522380D01*
X90630357Y-52474761D01*
X90582738Y-52427142D01*
X92106547Y-52522380D02*
X91535119Y-52522380D01*
X91820833Y-52522380D02*
X91820833Y-51522380D01*
X91725595Y-51665238D01*
X91630357Y-51760476D01*
X91535119Y-51808095D01*
X107918452Y-52474761D02*
X108061309Y-52522380D01*
X108299404Y-52522380D01*
X108394642Y-52474761D01*
X108442261Y-52427142D01*
X108489880Y-52331904D01*
X108489880Y-52236666D01*
X108442261Y-52141428D01*
X108394642Y-52093809D01*
X108299404Y-52046190D01*
X108108928Y-51998571D01*
X108013690Y-51950952D01*
X107966071Y-51903333D01*
X107918452Y-51808095D01*
X107918452Y-51712857D01*
X107966071Y-51617619D01*
X108013690Y-51570000D01*
X108108928Y-51522380D01*
X108347023Y-51522380D01*
X108489880Y-51570000D01*
X108680357Y-52617619D02*
X109442261Y-52617619D01*
X110156547Y-51522380D02*
X109680357Y-51522380D01*
X109632738Y-51998571D01*
X109680357Y-51950952D01*
X109775595Y-51903333D01*
X110013690Y-51903333D01*
X110108928Y-51950952D01*
X110156547Y-51998571D01*
X110204166Y-52093809D01*
X110204166Y-52331904D01*
X110156547Y-52427142D01*
X110108928Y-52474761D01*
X110013690Y-52522380D01*
X109775595Y-52522380D01*
X109680357Y-52474761D01*
X109632738Y-52427142D01*
X110585119Y-51617619D02*
X110632738Y-51570000D01*
X110727976Y-51522380D01*
X110966071Y-51522380D01*
X111061309Y-51570000D01*
X111108928Y-51617619D01*
X111156547Y-51712857D01*
X111156547Y-51808095D01*
X111108928Y-51950952D01*
X110537500Y-52522380D01*
X111156547Y-52522380D01*
X126968452Y-52474761D02*
X127111309Y-52522380D01*
X127349404Y-52522380D01*
X127444642Y-52474761D01*
X127492261Y-52427142D01*
X127539880Y-52331904D01*
X127539880Y-52236666D01*
X127492261Y-52141428D01*
X127444642Y-52093809D01*
X127349404Y-52046190D01*
X127158928Y-51998571D01*
X127063690Y-51950952D01*
X127016071Y-51903333D01*
X126968452Y-51808095D01*
X126968452Y-51712857D01*
X127016071Y-51617619D01*
X127063690Y-51570000D01*
X127158928Y-51522380D01*
X127397023Y-51522380D01*
X127539880Y-51570000D01*
X127730357Y-52617619D02*
X128492261Y-52617619D01*
X129206547Y-51522380D02*
X128730357Y-51522380D01*
X128682738Y-51998571D01*
X128730357Y-51950952D01*
X128825595Y-51903333D01*
X129063690Y-51903333D01*
X129158928Y-51950952D01*
X129206547Y-51998571D01*
X129254166Y-52093809D01*
X129254166Y-52331904D01*
X129206547Y-52427142D01*
X129158928Y-52474761D01*
X129063690Y-52522380D01*
X128825595Y-52522380D01*
X128730357Y-52474761D01*
X128682738Y-52427142D01*
X129587500Y-51522380D02*
X130206547Y-51522380D01*
X129873214Y-51903333D01*
X130016071Y-51903333D01*
X130111309Y-51950952D01*
X130158928Y-51998571D01*
X130206547Y-52093809D01*
X130206547Y-52331904D01*
X130158928Y-52427142D01*
X130111309Y-52474761D01*
X130016071Y-52522380D01*
X129730357Y-52522380D01*
X129635119Y-52474761D01*
X129587500Y-52427142D01*
X146018452Y-52474761D02*
X146161309Y-52522380D01*
X146399404Y-52522380D01*
X146494642Y-52474761D01*
X146542261Y-52427142D01*
X146589880Y-52331904D01*
X146589880Y-52236666D01*
X146542261Y-52141428D01*
X146494642Y-52093809D01*
X146399404Y-52046190D01*
X146208928Y-51998571D01*
X146113690Y-51950952D01*
X146066071Y-51903333D01*
X146018452Y-51808095D01*
X146018452Y-51712857D01*
X146066071Y-51617619D01*
X146113690Y-51570000D01*
X146208928Y-51522380D01*
X146447023Y-51522380D01*
X146589880Y-51570000D01*
X146780357Y-52617619D02*
X147542261Y-52617619D01*
X148256547Y-51522380D02*
X147780357Y-51522380D01*
X147732738Y-51998571D01*
X147780357Y-51950952D01*
X147875595Y-51903333D01*
X148113690Y-51903333D01*
X148208928Y-51950952D01*
X148256547Y-51998571D01*
X148304166Y-52093809D01*
X148304166Y-52331904D01*
X148256547Y-52427142D01*
X148208928Y-52474761D01*
X148113690Y-52522380D01*
X147875595Y-52522380D01*
X147780357Y-52474761D01*
X147732738Y-52427142D01*
X149161309Y-51855714D02*
X149161309Y-52522380D01*
X148923214Y-51474761D02*
X148685119Y-52189047D01*
X149304166Y-52189047D01*
X165068452Y-52474761D02*
X165211309Y-52522380D01*
X165449404Y-52522380D01*
X165544642Y-52474761D01*
X165592261Y-52427142D01*
X165639880Y-52331904D01*
X165639880Y-52236666D01*
X165592261Y-52141428D01*
X165544642Y-52093809D01*
X165449404Y-52046190D01*
X165258928Y-51998571D01*
X165163690Y-51950952D01*
X165116071Y-51903333D01*
X165068452Y-51808095D01*
X165068452Y-51712857D01*
X165116071Y-51617619D01*
X165163690Y-51570000D01*
X165258928Y-51522380D01*
X165497023Y-51522380D01*
X165639880Y-51570000D01*
X165830357Y-52617619D02*
X166592261Y-52617619D01*
X167306547Y-51522380D02*
X166830357Y-51522380D01*
X166782738Y-51998571D01*
X166830357Y-51950952D01*
X166925595Y-51903333D01*
X167163690Y-51903333D01*
X167258928Y-51950952D01*
X167306547Y-51998571D01*
X167354166Y-52093809D01*
X167354166Y-52331904D01*
X167306547Y-52427142D01*
X167258928Y-52474761D01*
X167163690Y-52522380D01*
X166925595Y-52522380D01*
X166830357Y-52474761D01*
X166782738Y-52427142D01*
X168258928Y-51522380D02*
X167782738Y-51522380D01*
X167735119Y-51998571D01*
X167782738Y-51950952D01*
X167877976Y-51903333D01*
X168116071Y-51903333D01*
X168211309Y-51950952D01*
X168258928Y-51998571D01*
X168306547Y-52093809D01*
X168306547Y-52331904D01*
X168258928Y-52427142D01*
X168211309Y-52474761D01*
X168116071Y-52522380D01*
X167877976Y-52522380D01*
X167782738Y-52474761D01*
X167735119Y-52427142D01*
X184118452Y-52474761D02*
X184261309Y-52522380D01*
X184499404Y-52522380D01*
X184594642Y-52474761D01*
X184642261Y-52427142D01*
X184689880Y-52331904D01*
X184689880Y-52236666D01*
X184642261Y-52141428D01*
X184594642Y-52093809D01*
X184499404Y-52046190D01*
X184308928Y-51998571D01*
X184213690Y-51950952D01*
X184166071Y-51903333D01*
X184118452Y-51808095D01*
X184118452Y-51712857D01*
X184166071Y-51617619D01*
X184213690Y-51570000D01*
X184308928Y-51522380D01*
X184547023Y-51522380D01*
X184689880Y-51570000D01*
X184880357Y-52617619D02*
X185642261Y-52617619D01*
X186356547Y-51522380D02*
X185880357Y-51522380D01*
X185832738Y-51998571D01*
X185880357Y-51950952D01*
X185975595Y-51903333D01*
X186213690Y-51903333D01*
X186308928Y-51950952D01*
X186356547Y-51998571D01*
X186404166Y-52093809D01*
X186404166Y-52331904D01*
X186356547Y-52427142D01*
X186308928Y-52474761D01*
X186213690Y-52522380D01*
X185975595Y-52522380D01*
X185880357Y-52474761D01*
X185832738Y-52427142D01*
X187261309Y-51522380D02*
X187070833Y-51522380D01*
X186975595Y-51570000D01*
X186927976Y-51617619D01*
X186832738Y-51760476D01*
X186785119Y-51950952D01*
X186785119Y-52331904D01*
X186832738Y-52427142D01*
X186880357Y-52474761D01*
X186975595Y-52522380D01*
X187166071Y-52522380D01*
X187261309Y-52474761D01*
X187308928Y-52427142D01*
X187356547Y-52331904D01*
X187356547Y-52093809D01*
X187308928Y-51998571D01*
X187261309Y-51950952D01*
X187166071Y-51903333D01*
X186975595Y-51903333D01*
X186880357Y-51950952D01*
X186832738Y-51998571D01*
X186785119Y-52093809D01*
X203168452Y-52474761D02*
X203311309Y-52522380D01*
X203549404Y-52522380D01*
X203644642Y-52474761D01*
X203692261Y-52427142D01*
X203739880Y-52331904D01*
X203739880Y-52236666D01*
X203692261Y-52141428D01*
X203644642Y-52093809D01*
X203549404Y-52046190D01*
X203358928Y-51998571D01*
X203263690Y-51950952D01*
X203216071Y-51903333D01*
X203168452Y-51808095D01*
X203168452Y-51712857D01*
X203216071Y-51617619D01*
X203263690Y-51570000D01*
X203358928Y-51522380D01*
X203597023Y-51522380D01*
X203739880Y-51570000D01*
X203930357Y-52617619D02*
X204692261Y-52617619D01*
X205406547Y-51522380D02*
X204930357Y-51522380D01*
X204882738Y-51998571D01*
X204930357Y-51950952D01*
X205025595Y-51903333D01*
X205263690Y-51903333D01*
X205358928Y-51950952D01*
X205406547Y-51998571D01*
X205454166Y-52093809D01*
X205454166Y-52331904D01*
X205406547Y-52427142D01*
X205358928Y-52474761D01*
X205263690Y-52522380D01*
X205025595Y-52522380D01*
X204930357Y-52474761D01*
X204882738Y-52427142D01*
X205787500Y-51522380D02*
X206454166Y-51522380D01*
X206025595Y-52522380D01*
X222218452Y-52474761D02*
X222361309Y-52522380D01*
X222599404Y-52522380D01*
X222694642Y-52474761D01*
X222742261Y-52427142D01*
X222789880Y-52331904D01*
X222789880Y-52236666D01*
X222742261Y-52141428D01*
X222694642Y-52093809D01*
X222599404Y-52046190D01*
X222408928Y-51998571D01*
X222313690Y-51950952D01*
X222266071Y-51903333D01*
X222218452Y-51808095D01*
X222218452Y-51712857D01*
X222266071Y-51617619D01*
X222313690Y-51570000D01*
X222408928Y-51522380D01*
X222647023Y-51522380D01*
X222789880Y-51570000D01*
X222980357Y-52617619D02*
X223742261Y-52617619D01*
X224456547Y-51522380D02*
X223980357Y-51522380D01*
X223932738Y-51998571D01*
X223980357Y-51950952D01*
X224075595Y-51903333D01*
X224313690Y-51903333D01*
X224408928Y-51950952D01*
X224456547Y-51998571D01*
X224504166Y-52093809D01*
X224504166Y-52331904D01*
X224456547Y-52427142D01*
X224408928Y-52474761D01*
X224313690Y-52522380D01*
X224075595Y-52522380D01*
X223980357Y-52474761D01*
X223932738Y-52427142D01*
X225075595Y-51950952D02*
X224980357Y-51903333D01*
X224932738Y-51855714D01*
X224885119Y-51760476D01*
X224885119Y-51712857D01*
X224932738Y-51617619D01*
X224980357Y-51570000D01*
X225075595Y-51522380D01*
X225266071Y-51522380D01*
X225361309Y-51570000D01*
X225408928Y-51617619D01*
X225456547Y-51712857D01*
X225456547Y-51760476D01*
X225408928Y-51855714D01*
X225361309Y-51903333D01*
X225266071Y-51950952D01*
X225075595Y-51950952D01*
X224980357Y-51998571D01*
X224932738Y-52046190D01*
X224885119Y-52141428D01*
X224885119Y-52331904D01*
X224932738Y-52427142D01*
X224980357Y-52474761D01*
X225075595Y-52522380D01*
X225266071Y-52522380D01*
X225361309Y-52474761D01*
X225408928Y-52427142D01*
X225456547Y-52331904D01*
X225456547Y-52141428D01*
X225408928Y-52046190D01*
X225361309Y-51998571D01*
X225266071Y-51950952D01*
X246030952Y-52474761D02*
X246173809Y-52522380D01*
X246411904Y-52522380D01*
X246507142Y-52474761D01*
X246554761Y-52427142D01*
X246602380Y-52331904D01*
X246602380Y-52236666D01*
X246554761Y-52141428D01*
X246507142Y-52093809D01*
X246411904Y-52046190D01*
X246221428Y-51998571D01*
X246126190Y-51950952D01*
X246078571Y-51903333D01*
X246030952Y-51808095D01*
X246030952Y-51712857D01*
X246078571Y-51617619D01*
X246126190Y-51570000D01*
X246221428Y-51522380D01*
X246459523Y-51522380D01*
X246602380Y-51570000D01*
X246792857Y-52617619D02*
X247554761Y-52617619D01*
X248269047Y-51522380D02*
X247792857Y-51522380D01*
X247745238Y-51998571D01*
X247792857Y-51950952D01*
X247888095Y-51903333D01*
X248126190Y-51903333D01*
X248221428Y-51950952D01*
X248269047Y-51998571D01*
X248316666Y-52093809D01*
X248316666Y-52331904D01*
X248269047Y-52427142D01*
X248221428Y-52474761D01*
X248126190Y-52522380D01*
X247888095Y-52522380D01*
X247792857Y-52474761D01*
X247745238Y-52427142D01*
X248792857Y-52522380D02*
X248983333Y-52522380D01*
X249078571Y-52474761D01*
X249126190Y-52427142D01*
X249221428Y-52284285D01*
X249269047Y-52093809D01*
X249269047Y-51712857D01*
X249221428Y-51617619D01*
X249173809Y-51570000D01*
X249078571Y-51522380D01*
X248888095Y-51522380D01*
X248792857Y-51570000D01*
X248745238Y-51617619D01*
X248697619Y-51712857D01*
X248697619Y-51950952D01*
X248745238Y-52046190D01*
X248792857Y-52093809D01*
X248888095Y-52141428D01*
X249078571Y-52141428D01*
X249173809Y-52093809D01*
X249221428Y-52046190D01*
X249269047Y-51950952D01*
X274605952Y-52474761D02*
X274748809Y-52522380D01*
X274986904Y-52522380D01*
X275082142Y-52474761D01*
X275129761Y-52427142D01*
X275177380Y-52331904D01*
X275177380Y-52236666D01*
X275129761Y-52141428D01*
X275082142Y-52093809D01*
X274986904Y-52046190D01*
X274796428Y-51998571D01*
X274701190Y-51950952D01*
X274653571Y-51903333D01*
X274605952Y-51808095D01*
X274605952Y-51712857D01*
X274653571Y-51617619D01*
X274701190Y-51570000D01*
X274796428Y-51522380D01*
X275034523Y-51522380D01*
X275177380Y-51570000D01*
X275367857Y-52617619D02*
X276129761Y-52617619D01*
X276796428Y-51522380D02*
X276605952Y-51522380D01*
X276510714Y-51570000D01*
X276463095Y-51617619D01*
X276367857Y-51760476D01*
X276320238Y-51950952D01*
X276320238Y-52331904D01*
X276367857Y-52427142D01*
X276415476Y-52474761D01*
X276510714Y-52522380D01*
X276701190Y-52522380D01*
X276796428Y-52474761D01*
X276844047Y-52427142D01*
X276891666Y-52331904D01*
X276891666Y-52093809D01*
X276844047Y-51998571D01*
X276796428Y-51950952D01*
X276701190Y-51903333D01*
X276510714Y-51903333D01*
X276415476Y-51950952D01*
X276367857Y-51998571D01*
X276320238Y-52093809D01*
X277510714Y-51522380D02*
X277605952Y-51522380D01*
X277701190Y-51570000D01*
X277748809Y-51617619D01*
X277796428Y-51712857D01*
X277844047Y-51903333D01*
X277844047Y-52141428D01*
X277796428Y-52331904D01*
X277748809Y-52427142D01*
X277701190Y-52474761D01*
X277605952Y-52522380D01*
X277510714Y-52522380D01*
X277415476Y-52474761D01*
X277367857Y-52427142D01*
X277320238Y-52331904D01*
X277272619Y-52141428D01*
X277272619Y-51903333D01*
X277320238Y-51712857D01*
X277367857Y-51617619D01*
X277415476Y-51570000D01*
X277510714Y-51522380D01*
X293655952Y-14374761D02*
X293798809Y-14422380D01*
X294036904Y-14422380D01*
X294132142Y-14374761D01*
X294179761Y-14327142D01*
X294227380Y-14231904D01*
X294227380Y-14136666D01*
X294179761Y-14041428D01*
X294132142Y-13993809D01*
X294036904Y-13946190D01*
X293846428Y-13898571D01*
X293751190Y-13850952D01*
X293703571Y-13803333D01*
X293655952Y-13708095D01*
X293655952Y-13612857D01*
X293703571Y-13517619D01*
X293751190Y-13470000D01*
X293846428Y-13422380D01*
X294084523Y-13422380D01*
X294227380Y-13470000D01*
X294417857Y-14517619D02*
X295179761Y-14517619D01*
X295322619Y-13422380D02*
X295941666Y-13422380D01*
X295608333Y-13803333D01*
X295751190Y-13803333D01*
X295846428Y-13850952D01*
X295894047Y-13898571D01*
X295941666Y-13993809D01*
X295941666Y-14231904D01*
X295894047Y-14327142D01*
X295846428Y-14374761D01*
X295751190Y-14422380D01*
X295465476Y-14422380D01*
X295370238Y-14374761D01*
X295322619Y-14327142D01*
X296322619Y-13517619D02*
X296370238Y-13470000D01*
X296465476Y-13422380D01*
X296703571Y-13422380D01*
X296798809Y-13470000D01*
X296846428Y-13517619D01*
X296894047Y-13612857D01*
X296894047Y-13708095D01*
X296846428Y-13850952D01*
X296275000Y-14422380D01*
X296894047Y-14422380D01*
X-1619047Y-71524761D02*
X-1476190Y-71572380D01*
X-1238095Y-71572380D01*
X-1142857Y-71524761D01*
X-1095238Y-71477142D01*
X-1047619Y-71381904D01*
X-1047619Y-71286666D01*
X-1095238Y-71191428D01*
X-1142857Y-71143809D01*
X-1238095Y-71096190D01*
X-1428571Y-71048571D01*
X-1523809Y-71000952D01*
X-1571428Y-70953333D01*
X-1619047Y-70858095D01*
X-1619047Y-70762857D01*
X-1571428Y-70667619D01*
X-1523809Y-70620000D01*
X-1428571Y-70572380D01*
X-1190476Y-70572380D01*
X-1047619Y-70620000D01*
X-857142Y-71667619D02*
X-95238Y-71667619D01*
X571428Y-70572380D02*
X380952Y-70572380D01*
X285714Y-70620000D01*
X238095Y-70667619D01*
X142857Y-70810476D01*
X95238Y-71000952D01*
X95238Y-71381904D01*
X142857Y-71477142D01*
X190476Y-71524761D01*
X285714Y-71572380D01*
X476190Y-71572380D01*
X571428Y-71524761D01*
X619047Y-71477142D01*
X666666Y-71381904D01*
X666666Y-71143809D01*
X619047Y-71048571D01*
X571428Y-71000952D01*
X476190Y-70953333D01*
X285714Y-70953333D01*
X190476Y-71000952D01*
X142857Y-71048571D01*
X95238Y-71143809D01*
X1619047Y-71572380D02*
X1047619Y-71572380D01*
X1333333Y-71572380D02*
X1333333Y-70572380D01*
X1238095Y-70715238D01*
X1142857Y-70810476D01*
X1047619Y-70858095D01*
X22193452Y-71524761D02*
X22336309Y-71572380D01*
X22574404Y-71572380D01*
X22669642Y-71524761D01*
X22717261Y-71477142D01*
X22764880Y-71381904D01*
X22764880Y-71286666D01*
X22717261Y-71191428D01*
X22669642Y-71143809D01*
X22574404Y-71096190D01*
X22383928Y-71048571D01*
X22288690Y-71000952D01*
X22241071Y-70953333D01*
X22193452Y-70858095D01*
X22193452Y-70762857D01*
X22241071Y-70667619D01*
X22288690Y-70620000D01*
X22383928Y-70572380D01*
X22622023Y-70572380D01*
X22764880Y-70620000D01*
X22955357Y-71667619D02*
X23717261Y-71667619D01*
X24383928Y-70572380D02*
X24193452Y-70572380D01*
X24098214Y-70620000D01*
X24050595Y-70667619D01*
X23955357Y-70810476D01*
X23907738Y-71000952D01*
X23907738Y-71381904D01*
X23955357Y-71477142D01*
X24002976Y-71524761D01*
X24098214Y-71572380D01*
X24288690Y-71572380D01*
X24383928Y-71524761D01*
X24431547Y-71477142D01*
X24479166Y-71381904D01*
X24479166Y-71143809D01*
X24431547Y-71048571D01*
X24383928Y-71000952D01*
X24288690Y-70953333D01*
X24098214Y-70953333D01*
X24002976Y-71000952D01*
X23955357Y-71048571D01*
X23907738Y-71143809D01*
X24860119Y-70667619D02*
X24907738Y-70620000D01*
X25002976Y-70572380D01*
X25241071Y-70572380D01*
X25336309Y-70620000D01*
X25383928Y-70667619D01*
X25431547Y-70762857D01*
X25431547Y-70858095D01*
X25383928Y-71000952D01*
X24812500Y-71572380D01*
X25431547Y-71572380D01*
X41243452Y-71524761D02*
X41386309Y-71572380D01*
X41624404Y-71572380D01*
X41719642Y-71524761D01*
X41767261Y-71477142D01*
X41814880Y-71381904D01*
X41814880Y-71286666D01*
X41767261Y-71191428D01*
X41719642Y-71143809D01*
X41624404Y-71096190D01*
X41433928Y-71048571D01*
X41338690Y-71000952D01*
X41291071Y-70953333D01*
X41243452Y-70858095D01*
X41243452Y-70762857D01*
X41291071Y-70667619D01*
X41338690Y-70620000D01*
X41433928Y-70572380D01*
X41672023Y-70572380D01*
X41814880Y-70620000D01*
X42005357Y-71667619D02*
X42767261Y-71667619D01*
X43433928Y-70572380D02*
X43243452Y-70572380D01*
X43148214Y-70620000D01*
X43100595Y-70667619D01*
X43005357Y-70810476D01*
X42957738Y-71000952D01*
X42957738Y-71381904D01*
X43005357Y-71477142D01*
X43052976Y-71524761D01*
X43148214Y-71572380D01*
X43338690Y-71572380D01*
X43433928Y-71524761D01*
X43481547Y-71477142D01*
X43529166Y-71381904D01*
X43529166Y-71143809D01*
X43481547Y-71048571D01*
X43433928Y-71000952D01*
X43338690Y-70953333D01*
X43148214Y-70953333D01*
X43052976Y-71000952D01*
X43005357Y-71048571D01*
X42957738Y-71143809D01*
X43862500Y-70572380D02*
X44481547Y-70572380D01*
X44148214Y-70953333D01*
X44291071Y-70953333D01*
X44386309Y-71000952D01*
X44433928Y-71048571D01*
X44481547Y-71143809D01*
X44481547Y-71381904D01*
X44433928Y-71477142D01*
X44386309Y-71524761D01*
X44291071Y-71572380D01*
X44005357Y-71572380D01*
X43910119Y-71524761D01*
X43862500Y-71477142D01*
X60293452Y-71524761D02*
X60436309Y-71572380D01*
X60674404Y-71572380D01*
X60769642Y-71524761D01*
X60817261Y-71477142D01*
X60864880Y-71381904D01*
X60864880Y-71286666D01*
X60817261Y-71191428D01*
X60769642Y-71143809D01*
X60674404Y-71096190D01*
X60483928Y-71048571D01*
X60388690Y-71000952D01*
X60341071Y-70953333D01*
X60293452Y-70858095D01*
X60293452Y-70762857D01*
X60341071Y-70667619D01*
X60388690Y-70620000D01*
X60483928Y-70572380D01*
X60722023Y-70572380D01*
X60864880Y-70620000D01*
X61055357Y-71667619D02*
X61817261Y-71667619D01*
X62483928Y-70572380D02*
X62293452Y-70572380D01*
X62198214Y-70620000D01*
X62150595Y-70667619D01*
X62055357Y-70810476D01*
X62007738Y-71000952D01*
X62007738Y-71381904D01*
X62055357Y-71477142D01*
X62102976Y-71524761D01*
X62198214Y-71572380D01*
X62388690Y-71572380D01*
X62483928Y-71524761D01*
X62531547Y-71477142D01*
X62579166Y-71381904D01*
X62579166Y-71143809D01*
X62531547Y-71048571D01*
X62483928Y-71000952D01*
X62388690Y-70953333D01*
X62198214Y-70953333D01*
X62102976Y-71000952D01*
X62055357Y-71048571D01*
X62007738Y-71143809D01*
X63436309Y-70905714D02*
X63436309Y-71572380D01*
X63198214Y-70524761D02*
X62960119Y-71239047D01*
X63579166Y-71239047D01*
X79343452Y-71524761D02*
X79486309Y-71572380D01*
X79724404Y-71572380D01*
X79819642Y-71524761D01*
X79867261Y-71477142D01*
X79914880Y-71381904D01*
X79914880Y-71286666D01*
X79867261Y-71191428D01*
X79819642Y-71143809D01*
X79724404Y-71096190D01*
X79533928Y-71048571D01*
X79438690Y-71000952D01*
X79391071Y-70953333D01*
X79343452Y-70858095D01*
X79343452Y-70762857D01*
X79391071Y-70667619D01*
X79438690Y-70620000D01*
X79533928Y-70572380D01*
X79772023Y-70572380D01*
X79914880Y-70620000D01*
X80105357Y-71667619D02*
X80867261Y-71667619D01*
X81533928Y-70572380D02*
X81343452Y-70572380D01*
X81248214Y-70620000D01*
X81200595Y-70667619D01*
X81105357Y-70810476D01*
X81057738Y-71000952D01*
X81057738Y-71381904D01*
X81105357Y-71477142D01*
X81152976Y-71524761D01*
X81248214Y-71572380D01*
X81438690Y-71572380D01*
X81533928Y-71524761D01*
X81581547Y-71477142D01*
X81629166Y-71381904D01*
X81629166Y-71143809D01*
X81581547Y-71048571D01*
X81533928Y-71000952D01*
X81438690Y-70953333D01*
X81248214Y-70953333D01*
X81152976Y-71000952D01*
X81105357Y-71048571D01*
X81057738Y-71143809D01*
X82533928Y-70572380D02*
X82057738Y-70572380D01*
X82010119Y-71048571D01*
X82057738Y-71000952D01*
X82152976Y-70953333D01*
X82391071Y-70953333D01*
X82486309Y-71000952D01*
X82533928Y-71048571D01*
X82581547Y-71143809D01*
X82581547Y-71381904D01*
X82533928Y-71477142D01*
X82486309Y-71524761D01*
X82391071Y-71572380D01*
X82152976Y-71572380D01*
X82057738Y-71524761D01*
X82010119Y-71477142D01*
X109505952Y-71524761D02*
X109648809Y-71572380D01*
X109886904Y-71572380D01*
X109982142Y-71524761D01*
X110029761Y-71477142D01*
X110077380Y-71381904D01*
X110077380Y-71286666D01*
X110029761Y-71191428D01*
X109982142Y-71143809D01*
X109886904Y-71096190D01*
X109696428Y-71048571D01*
X109601190Y-71000952D01*
X109553571Y-70953333D01*
X109505952Y-70858095D01*
X109505952Y-70762857D01*
X109553571Y-70667619D01*
X109601190Y-70620000D01*
X109696428Y-70572380D01*
X109934523Y-70572380D01*
X110077380Y-70620000D01*
X110267857Y-71667619D02*
X111029761Y-71667619D01*
X111696428Y-70572380D02*
X111505952Y-70572380D01*
X111410714Y-70620000D01*
X111363095Y-70667619D01*
X111267857Y-70810476D01*
X111220238Y-71000952D01*
X111220238Y-71381904D01*
X111267857Y-71477142D01*
X111315476Y-71524761D01*
X111410714Y-71572380D01*
X111601190Y-71572380D01*
X111696428Y-71524761D01*
X111744047Y-71477142D01*
X111791666Y-71381904D01*
X111791666Y-71143809D01*
X111744047Y-71048571D01*
X111696428Y-71000952D01*
X111601190Y-70953333D01*
X111410714Y-70953333D01*
X111315476Y-71000952D01*
X111267857Y-71048571D01*
X111220238Y-71143809D01*
X112648809Y-70572380D02*
X112458333Y-70572380D01*
X112363095Y-70620000D01*
X112315476Y-70667619D01*
X112220238Y-70810476D01*
X112172619Y-71000952D01*
X112172619Y-71381904D01*
X112220238Y-71477142D01*
X112267857Y-71524761D01*
X112363095Y-71572380D01*
X112553571Y-71572380D01*
X112648809Y-71524761D01*
X112696428Y-71477142D01*
X112744047Y-71381904D01*
X112744047Y-71143809D01*
X112696428Y-71048571D01*
X112648809Y-71000952D01*
X112553571Y-70953333D01*
X112363095Y-70953333D01*
X112267857Y-71000952D01*
X112220238Y-71048571D01*
X112172619Y-71143809D01*
X149830952Y-69154761D02*
X149973809Y-69202380D01*
X150211904Y-69202380D01*
X150307142Y-69154761D01*
X150354761Y-69107142D01*
X150402380Y-69011904D01*
X150402380Y-68916666D01*
X150354761Y-68821428D01*
X150307142Y-68773809D01*
X150211904Y-68726190D01*
X150021428Y-68678571D01*
X149926190Y-68630952D01*
X149878571Y-68583333D01*
X149830952Y-68488095D01*
X149830952Y-68392857D01*
X149878571Y-68297619D01*
X149926190Y-68250000D01*
X150021428Y-68202380D01*
X150259523Y-68202380D01*
X150402380Y-68250000D01*
X150592857Y-69297619D02*
X151354761Y-69297619D01*
X152021428Y-68202380D02*
X151830952Y-68202380D01*
X151735714Y-68250000D01*
X151688095Y-68297619D01*
X151592857Y-68440476D01*
X151545238Y-68630952D01*
X151545238Y-69011904D01*
X151592857Y-69107142D01*
X151640476Y-69154761D01*
X151735714Y-69202380D01*
X151926190Y-69202380D01*
X152021428Y-69154761D01*
X152069047Y-69107142D01*
X152116666Y-69011904D01*
X152116666Y-68773809D01*
X152069047Y-68678571D01*
X152021428Y-68630952D01*
X151926190Y-68583333D01*
X151735714Y-68583333D01*
X151640476Y-68630952D01*
X151592857Y-68678571D01*
X151545238Y-68773809D01*
X152450000Y-68202380D02*
X153116666Y-68202380D01*
X152688095Y-69202380D01*
X174593452Y-71524761D02*
X174736309Y-71572380D01*
X174974404Y-71572380D01*
X175069642Y-71524761D01*
X175117261Y-71477142D01*
X175164880Y-71381904D01*
X175164880Y-71286666D01*
X175117261Y-71191428D01*
X175069642Y-71143809D01*
X174974404Y-71096190D01*
X174783928Y-71048571D01*
X174688690Y-71000952D01*
X174641071Y-70953333D01*
X174593452Y-70858095D01*
X174593452Y-70762857D01*
X174641071Y-70667619D01*
X174688690Y-70620000D01*
X174783928Y-70572380D01*
X175022023Y-70572380D01*
X175164880Y-70620000D01*
X175355357Y-71667619D02*
X176117261Y-71667619D01*
X176783928Y-70572380D02*
X176593452Y-70572380D01*
X176498214Y-70620000D01*
X176450595Y-70667619D01*
X176355357Y-70810476D01*
X176307738Y-71000952D01*
X176307738Y-71381904D01*
X176355357Y-71477142D01*
X176402976Y-71524761D01*
X176498214Y-71572380D01*
X176688690Y-71572380D01*
X176783928Y-71524761D01*
X176831547Y-71477142D01*
X176879166Y-71381904D01*
X176879166Y-71143809D01*
X176831547Y-71048571D01*
X176783928Y-71000952D01*
X176688690Y-70953333D01*
X176498214Y-70953333D01*
X176402976Y-71000952D01*
X176355357Y-71048571D01*
X176307738Y-71143809D01*
X177450595Y-71000952D02*
X177355357Y-70953333D01*
X177307738Y-70905714D01*
X177260119Y-70810476D01*
X177260119Y-70762857D01*
X177307738Y-70667619D01*
X177355357Y-70620000D01*
X177450595Y-70572380D01*
X177641071Y-70572380D01*
X177736309Y-70620000D01*
X177783928Y-70667619D01*
X177831547Y-70762857D01*
X177831547Y-70810476D01*
X177783928Y-70905714D01*
X177736309Y-70953333D01*
X177641071Y-71000952D01*
X177450595Y-71000952D01*
X177355357Y-71048571D01*
X177307738Y-71096190D01*
X177260119Y-71191428D01*
X177260119Y-71381904D01*
X177307738Y-71477142D01*
X177355357Y-71524761D01*
X177450595Y-71572380D01*
X177641071Y-71572380D01*
X177736309Y-71524761D01*
X177783928Y-71477142D01*
X177831547Y-71381904D01*
X177831547Y-71191428D01*
X177783928Y-71096190D01*
X177736309Y-71048571D01*
X177641071Y-71000952D01*
X193643452Y-71524761D02*
X193786309Y-71572380D01*
X194024404Y-71572380D01*
X194119642Y-71524761D01*
X194167261Y-71477142D01*
X194214880Y-71381904D01*
X194214880Y-71286666D01*
X194167261Y-71191428D01*
X194119642Y-71143809D01*
X194024404Y-71096190D01*
X193833928Y-71048571D01*
X193738690Y-71000952D01*
X193691071Y-70953333D01*
X193643452Y-70858095D01*
X193643452Y-70762857D01*
X193691071Y-70667619D01*
X193738690Y-70620000D01*
X193833928Y-70572380D01*
X194072023Y-70572380D01*
X194214880Y-70620000D01*
X194405357Y-71667619D02*
X195167261Y-71667619D01*
X195833928Y-70572380D02*
X195643452Y-70572380D01*
X195548214Y-70620000D01*
X195500595Y-70667619D01*
X195405357Y-70810476D01*
X195357738Y-71000952D01*
X195357738Y-71381904D01*
X195405357Y-71477142D01*
X195452976Y-71524761D01*
X195548214Y-71572380D01*
X195738690Y-71572380D01*
X195833928Y-71524761D01*
X195881547Y-71477142D01*
X195929166Y-71381904D01*
X195929166Y-71143809D01*
X195881547Y-71048571D01*
X195833928Y-71000952D01*
X195738690Y-70953333D01*
X195548214Y-70953333D01*
X195452976Y-71000952D01*
X195405357Y-71048571D01*
X195357738Y-71143809D01*
X196405357Y-71572380D02*
X196595833Y-71572380D01*
X196691071Y-71524761D01*
X196738690Y-71477142D01*
X196833928Y-71334285D01*
X196881547Y-71143809D01*
X196881547Y-70762857D01*
X196833928Y-70667619D01*
X196786309Y-70620000D01*
X196691071Y-70572380D01*
X196500595Y-70572380D01*
X196405357Y-70620000D01*
X196357738Y-70667619D01*
X196310119Y-70762857D01*
X196310119Y-71000952D01*
X196357738Y-71096190D01*
X196405357Y-71143809D01*
X196500595Y-71191428D01*
X196691071Y-71191428D01*
X196786309Y-71143809D01*
X196833928Y-71096190D01*
X196881547Y-71000952D01*
X212693452Y-71524761D02*
X212836309Y-71572380D01*
X213074404Y-71572380D01*
X213169642Y-71524761D01*
X213217261Y-71477142D01*
X213264880Y-71381904D01*
X213264880Y-71286666D01*
X213217261Y-71191428D01*
X213169642Y-71143809D01*
X213074404Y-71096190D01*
X212883928Y-71048571D01*
X212788690Y-71000952D01*
X212741071Y-70953333D01*
X212693452Y-70858095D01*
X212693452Y-70762857D01*
X212741071Y-70667619D01*
X212788690Y-70620000D01*
X212883928Y-70572380D01*
X213122023Y-70572380D01*
X213264880Y-70620000D01*
X213455357Y-71667619D02*
X214217261Y-71667619D01*
X214360119Y-70572380D02*
X215026785Y-70572380D01*
X214598214Y-71572380D01*
X215598214Y-70572380D02*
X215693452Y-70572380D01*
X215788690Y-70620000D01*
X215836309Y-70667619D01*
X215883928Y-70762857D01*
X215931547Y-70953333D01*
X215931547Y-71191428D01*
X215883928Y-71381904D01*
X215836309Y-71477142D01*
X215788690Y-71524761D01*
X215693452Y-71572380D01*
X215598214Y-71572380D01*
X215502976Y-71524761D01*
X215455357Y-71477142D01*
X215407738Y-71381904D01*
X215360119Y-71191428D01*
X215360119Y-70953333D01*
X215407738Y-70762857D01*
X215455357Y-70667619D01*
X215502976Y-70620000D01*
X215598214Y-70572380D01*
X231743452Y-71524761D02*
X231886309Y-71572380D01*
X232124404Y-71572380D01*
X232219642Y-71524761D01*
X232267261Y-71477142D01*
X232314880Y-71381904D01*
X232314880Y-71286666D01*
X232267261Y-71191428D01*
X232219642Y-71143809D01*
X232124404Y-71096190D01*
X231933928Y-71048571D01*
X231838690Y-71000952D01*
X231791071Y-70953333D01*
X231743452Y-70858095D01*
X231743452Y-70762857D01*
X231791071Y-70667619D01*
X231838690Y-70620000D01*
X231933928Y-70572380D01*
X232172023Y-70572380D01*
X232314880Y-70620000D01*
X232505357Y-71667619D02*
X233267261Y-71667619D01*
X233410119Y-70572380D02*
X234076785Y-70572380D01*
X233648214Y-71572380D01*
X234981547Y-71572380D02*
X234410119Y-71572380D01*
X234695833Y-71572380D02*
X234695833Y-70572380D01*
X234600595Y-70715238D01*
X234505357Y-70810476D01*
X234410119Y-70858095D01*
X255555952Y-71524761D02*
X255698809Y-71572380D01*
X255936904Y-71572380D01*
X256032142Y-71524761D01*
X256079761Y-71477142D01*
X256127380Y-71381904D01*
X256127380Y-71286666D01*
X256079761Y-71191428D01*
X256032142Y-71143809D01*
X255936904Y-71096190D01*
X255746428Y-71048571D01*
X255651190Y-71000952D01*
X255603571Y-70953333D01*
X255555952Y-70858095D01*
X255555952Y-70762857D01*
X255603571Y-70667619D01*
X255651190Y-70620000D01*
X255746428Y-70572380D01*
X255984523Y-70572380D01*
X256127380Y-70620000D01*
X256317857Y-71667619D02*
X257079761Y-71667619D01*
X257222619Y-70572380D02*
X257889285Y-70572380D01*
X257460714Y-71572380D01*
X258222619Y-70667619D02*
X258270238Y-70620000D01*
X258365476Y-70572380D01*
X258603571Y-70572380D01*
X258698809Y-70620000D01*
X258746428Y-70667619D01*
X258794047Y-70762857D01*
X258794047Y-70858095D01*
X258746428Y-71000952D01*
X258175000Y-71572380D01*
X258794047Y-71572380D01*
X274605952Y-71524761D02*
X274748809Y-71572380D01*
X274986904Y-71572380D01*
X275082142Y-71524761D01*
X275129761Y-71477142D01*
X275177380Y-71381904D01*
X275177380Y-71286666D01*
X275129761Y-71191428D01*
X275082142Y-71143809D01*
X274986904Y-71096190D01*
X274796428Y-71048571D01*
X274701190Y-71000952D01*
X274653571Y-70953333D01*
X274605952Y-70858095D01*
X274605952Y-70762857D01*
X274653571Y-70667619D01*
X274701190Y-70620000D01*
X274796428Y-70572380D01*
X275034523Y-70572380D01*
X275177380Y-70620000D01*
X275367857Y-71667619D02*
X276129761Y-71667619D01*
X276272619Y-70572380D02*
X276939285Y-70572380D01*
X276510714Y-71572380D01*
X277225000Y-70572380D02*
X277844047Y-70572380D01*
X277510714Y-70953333D01*
X277653571Y-70953333D01*
X277748809Y-71000952D01*
X277796428Y-71048571D01*
X277844047Y-71143809D01*
X277844047Y-71381904D01*
X277796428Y-71477142D01*
X277748809Y-71524761D01*
X277653571Y-71572380D01*
X277367857Y-71572380D01*
X277272619Y-71524761D01*
X277225000Y-71477142D01*
X293655952Y-71524761D02*
X293798809Y-71572380D01*
X294036904Y-71572380D01*
X294132142Y-71524761D01*
X294179761Y-71477142D01*
X294227380Y-71381904D01*
X294227380Y-71286666D01*
X294179761Y-71191428D01*
X294132142Y-71143809D01*
X294036904Y-71096190D01*
X293846428Y-71048571D01*
X293751190Y-71000952D01*
X293703571Y-70953333D01*
X293655952Y-70858095D01*
X293655952Y-70762857D01*
X293703571Y-70667619D01*
X293751190Y-70620000D01*
X293846428Y-70572380D01*
X294084523Y-70572380D01*
X294227380Y-70620000D01*
X294417857Y-71667619D02*
X295179761Y-71667619D01*
X295322619Y-70572380D02*
X295989285Y-70572380D01*
X295560714Y-71572380D01*
X296798809Y-70905714D02*
X296798809Y-71572380D01*
X296560714Y-70524761D02*
X296322619Y-71239047D01*
X296941666Y-71239047D01*
M02*
