G04 #@! TF.GenerationSoftware,KiCad,Pcbnew,(5.1.8)-1*
G04 #@! TF.CreationDate,2021-02-07T11:47:01-08:00*
G04 #@! TF.ProjectId,Spritzgeback,53707269-747a-4676-9562-61636b2e6b69,rev?*
G04 #@! TF.SameCoordinates,Original*
G04 #@! TF.FileFunction,Soldermask,Bot*
G04 #@! TF.FilePolarity,Negative*
%FSLAX46Y46*%
G04 Gerber Fmt 4.6, Leading zero omitted, Abs format (unit mm)*
G04 Created by KiCad (PCBNEW (5.1.8)-1) date 2021-02-07 11:47:01*
%MOMM*%
%LPD*%
G01*
G04 APERTURE LIST*
%ADD10C,4.462400*%
%ADD11C,2.032000*%
%ADD12C,5.000000*%
%ADD13C,1.701800*%
%ADD14C,0.100000*%
%ADD15R,0.900000X1.200000*%
%ADD16R,1.200000X0.900000*%
%ADD17R,0.650000X1.060000*%
%ADD18R,1.200000X1.400000*%
%ADD19C,0.700000*%
%ADD20O,1.050000X2.100000*%
%ADD21R,0.600000X1.450000*%
%ADD22R,0.300000X1.450000*%
G04 APERTURE END LIST*
D10*
X236925000Y-61450000D03*
X39300000Y-61450000D03*
X100400000Y-80500000D03*
X285750000Y-9525000D03*
X147637500Y-9525000D03*
X52387500Y-9525000D03*
D11*
X255031250Y-52000000D03*
X250031250Y-63050000D03*
X245031250Y-60950000D03*
D12*
X250031250Y-57150000D03*
D13*
X255531250Y-57150000D03*
X244531250Y-57150000D03*
D11*
X31193750Y-52000000D03*
X26193750Y-63050000D03*
X21193750Y-60950000D03*
D12*
X26193750Y-57150000D03*
D13*
X31693750Y-57150000D03*
X20693750Y-57150000D03*
D11*
X7381250Y-71050000D03*
X2381250Y-82100000D03*
X-2618750Y-80000000D03*
D12*
X2381250Y-76200000D03*
D13*
X7881250Y-76200000D03*
X-3118750Y-76200000D03*
D11*
X240743750Y-71050000D03*
X235743750Y-82100000D03*
X230743750Y-80000000D03*
D12*
X235743750Y-76200000D03*
D13*
X241243750Y-76200000D03*
X230243750Y-76200000D03*
G36*
G01*
X118299999Y-76100000D02*
X119200001Y-76100000D01*
G75*
G02*
X119450000Y-76349999I0J-249999D01*
G01*
X119450000Y-77050001D01*
G75*
G02*
X119200001Y-77300000I-249999J0D01*
G01*
X118299999Y-77300000D01*
G75*
G02*
X118050000Y-77050001I0J249999D01*
G01*
X118050000Y-76349999D01*
G75*
G02*
X118299999Y-76100000I249999J0D01*
G01*
G37*
G36*
G01*
X118299999Y-74100000D02*
X119200001Y-74100000D01*
G75*
G02*
X119450000Y-74349999I0J-249999D01*
G01*
X119450000Y-75050001D01*
G75*
G02*
X119200001Y-75300000I-249999J0D01*
G01*
X118299999Y-75300000D01*
G75*
G02*
X118050000Y-75050001I0J249999D01*
G01*
X118050000Y-74349999D01*
G75*
G02*
X118299999Y-74100000I249999J0D01*
G01*
G37*
D11*
X148050000Y-72800000D03*
X144050000Y-72800000D03*
G36*
G01*
X118275000Y-72150000D02*
X119225000Y-72150000D01*
G75*
G02*
X119475000Y-72400000I0J-250000D01*
G01*
X119475000Y-73075000D01*
G75*
G02*
X119225000Y-73325000I-250000J0D01*
G01*
X118275000Y-73325000D01*
G75*
G02*
X118025000Y-73075000I0J250000D01*
G01*
X118025000Y-72400000D01*
G75*
G02*
X118275000Y-72150000I250000J0D01*
G01*
G37*
G36*
G01*
X118275000Y-70075000D02*
X119225000Y-70075000D01*
G75*
G02*
X119475000Y-70325000I0J-250000D01*
G01*
X119475000Y-71000000D01*
G75*
G02*
X119225000Y-71250000I-250000J0D01*
G01*
X118275000Y-71250000D01*
G75*
G02*
X118025000Y-71000000I0J250000D01*
G01*
X118025000Y-70325000D01*
G75*
G02*
X118275000Y-70075000I250000J0D01*
G01*
G37*
G36*
G01*
X124775000Y-65725000D02*
X123825000Y-65725000D01*
G75*
G02*
X123575000Y-65475000I0J250000D01*
G01*
X123575000Y-64800000D01*
G75*
G02*
X123825000Y-64550000I250000J0D01*
G01*
X124775000Y-64550000D01*
G75*
G02*
X125025000Y-64800000I0J-250000D01*
G01*
X125025000Y-65475000D01*
G75*
G02*
X124775000Y-65725000I-250000J0D01*
G01*
G37*
G36*
G01*
X124775000Y-63650000D02*
X123825000Y-63650000D01*
G75*
G02*
X123575000Y-63400000I0J250000D01*
G01*
X123575000Y-62725000D01*
G75*
G02*
X123825000Y-62475000I250000J0D01*
G01*
X124775000Y-62475000D01*
G75*
G02*
X125025000Y-62725000I0J-250000D01*
G01*
X125025000Y-63400000D01*
G75*
G02*
X124775000Y-63650000I-250000J0D01*
G01*
G37*
G36*
G01*
X143467678Y-78345927D02*
X142795927Y-79017678D01*
G75*
G02*
X142442373Y-79017678I-176777J176777D01*
G01*
X141965076Y-78540381D01*
G75*
G02*
X141965076Y-78186827I176777J176777D01*
G01*
X142636827Y-77515076D01*
G75*
G02*
X142990381Y-77515076I176777J-176777D01*
G01*
X143467678Y-77992373D01*
G75*
G02*
X143467678Y-78345927I-176777J-176777D01*
G01*
G37*
G36*
G01*
X144934924Y-79813173D02*
X144263173Y-80484924D01*
G75*
G02*
X143909619Y-80484924I-176777J176777D01*
G01*
X143432322Y-80007627D01*
G75*
G02*
X143432322Y-79654073I176777J176777D01*
G01*
X144104073Y-78982322D01*
G75*
G02*
X144457627Y-78982322I176777J-176777D01*
G01*
X144934924Y-79459619D01*
G75*
G02*
X144934924Y-79813173I-176777J-176777D01*
G01*
G37*
G36*
G01*
X140600000Y-81825000D02*
X140600000Y-82775000D01*
G75*
G02*
X140350000Y-83025000I-250000J0D01*
G01*
X139675000Y-83025000D01*
G75*
G02*
X139425000Y-82775000I0J250000D01*
G01*
X139425000Y-81825000D01*
G75*
G02*
X139675000Y-81575000I250000J0D01*
G01*
X140350000Y-81575000D01*
G75*
G02*
X140600000Y-81825000I0J-250000D01*
G01*
G37*
G36*
G01*
X142675000Y-81825000D02*
X142675000Y-82775000D01*
G75*
G02*
X142425000Y-83025000I-250000J0D01*
G01*
X141750000Y-83025000D01*
G75*
G02*
X141500000Y-82775000I0J250000D01*
G01*
X141500000Y-81825000D01*
G75*
G02*
X141750000Y-81575000I250000J0D01*
G01*
X142425000Y-81575000D01*
G75*
G02*
X142675000Y-81825000I0J-250000D01*
G01*
G37*
G36*
G01*
X138450000Y-78125000D02*
X138450000Y-77175000D01*
G75*
G02*
X138700000Y-76925000I250000J0D01*
G01*
X139375000Y-76925000D01*
G75*
G02*
X139625000Y-77175000I0J-250000D01*
G01*
X139625000Y-78125000D01*
G75*
G02*
X139375000Y-78375000I-250000J0D01*
G01*
X138700000Y-78375000D01*
G75*
G02*
X138450000Y-78125000I0J250000D01*
G01*
G37*
G36*
G01*
X136375000Y-78125000D02*
X136375000Y-77175000D01*
G75*
G02*
X136625000Y-76925000I250000J0D01*
G01*
X137300000Y-76925000D01*
G75*
G02*
X137550000Y-77175000I0J-250000D01*
G01*
X137550000Y-78125000D01*
G75*
G02*
X137300000Y-78375000I-250000J0D01*
G01*
X136625000Y-78375000D01*
G75*
G02*
X136375000Y-78125000I0J250000D01*
G01*
G37*
G36*
G01*
X125532322Y-83054073D02*
X126204073Y-82382322D01*
G75*
G02*
X126557627Y-82382322I176777J-176777D01*
G01*
X127034924Y-82859619D01*
G75*
G02*
X127034924Y-83213173I-176777J-176777D01*
G01*
X126363173Y-83884924D01*
G75*
G02*
X126009619Y-83884924I-176777J176777D01*
G01*
X125532322Y-83407627D01*
G75*
G02*
X125532322Y-83054073I176777J176777D01*
G01*
G37*
G36*
G01*
X124065076Y-81586827D02*
X124736827Y-80915076D01*
G75*
G02*
X125090381Y-80915076I176777J-176777D01*
G01*
X125567678Y-81392373D01*
G75*
G02*
X125567678Y-81745927I-176777J-176777D01*
G01*
X124895927Y-82417678D01*
G75*
G02*
X124542373Y-82417678I-176777J176777D01*
G01*
X124065076Y-81940381D01*
G75*
G02*
X124065076Y-81586827I176777J176777D01*
G01*
G37*
G36*
G01*
X136536827Y-70134924D02*
X135865076Y-69463173D01*
G75*
G02*
X135865076Y-69109619I176777J176777D01*
G01*
X136342373Y-68632322D01*
G75*
G02*
X136695927Y-68632322I176777J-176777D01*
G01*
X137367678Y-69304073D01*
G75*
G02*
X137367678Y-69657627I-176777J-176777D01*
G01*
X136890381Y-70134924D01*
G75*
G02*
X136536827Y-70134924I-176777J176777D01*
G01*
G37*
G36*
G01*
X138004073Y-68667678D02*
X137332322Y-67995927D01*
G75*
G02*
X137332322Y-67642373I176777J176777D01*
G01*
X137809619Y-67165076D01*
G75*
G02*
X138163173Y-67165076I176777J-176777D01*
G01*
X138834924Y-67836827D01*
G75*
G02*
X138834924Y-68190381I-176777J-176777D01*
G01*
X138357627Y-68667678D01*
G75*
G02*
X138004073Y-68667678I-176777J176777D01*
G01*
G37*
G36*
G01*
X136604073Y-67267678D02*
X135932322Y-66595927D01*
G75*
G02*
X135932322Y-66242373I176777J176777D01*
G01*
X136409619Y-65765076D01*
G75*
G02*
X136763173Y-65765076I176777J-176777D01*
G01*
X137434924Y-66436827D01*
G75*
G02*
X137434924Y-66790381I-176777J-176777D01*
G01*
X136957627Y-67267678D01*
G75*
G02*
X136604073Y-67267678I-176777J176777D01*
G01*
G37*
G36*
G01*
X135136827Y-68734924D02*
X134465076Y-68063173D01*
G75*
G02*
X134465076Y-67709619I176777J176777D01*
G01*
X134942373Y-67232322D01*
G75*
G02*
X135295927Y-67232322I176777J-176777D01*
G01*
X135967678Y-67904073D01*
G75*
G02*
X135967678Y-68257627I-176777J-176777D01*
G01*
X135490381Y-68734924D01*
G75*
G02*
X135136827Y-68734924I-176777J176777D01*
G01*
G37*
G36*
G01*
X132504073Y-63167678D02*
X131832322Y-62495927D01*
G75*
G02*
X131832322Y-62142373I176777J176777D01*
G01*
X132309619Y-61665076D01*
G75*
G02*
X132663173Y-61665076I176777J-176777D01*
G01*
X133334924Y-62336827D01*
G75*
G02*
X133334924Y-62690381I-176777J-176777D01*
G01*
X132857627Y-63167678D01*
G75*
G02*
X132504073Y-63167678I-176777J176777D01*
G01*
G37*
G36*
G01*
X131036827Y-64634924D02*
X130365076Y-63963173D01*
G75*
G02*
X130365076Y-63609619I176777J176777D01*
G01*
X130842373Y-63132322D01*
G75*
G02*
X131195927Y-63132322I176777J-176777D01*
G01*
X131867678Y-63804073D01*
G75*
G02*
X131867678Y-64157627I-176777J-176777D01*
G01*
X131390381Y-64634924D01*
G75*
G02*
X131036827Y-64634924I-176777J176777D01*
G01*
G37*
G36*
G01*
X132436828Y-65949570D02*
X131800430Y-65313172D01*
G75*
G02*
X131800430Y-64959620I176776J176776D01*
G01*
X132295406Y-64464644D01*
G75*
G02*
X132648958Y-64464644I176776J-176776D01*
G01*
X133285356Y-65101042D01*
G75*
G02*
X133285356Y-65454594I-176776J-176776D01*
G01*
X132790380Y-65949570D01*
G75*
G02*
X132436828Y-65949570I-176776J176776D01*
G01*
G37*
G36*
G01*
X133851042Y-64535356D02*
X133214644Y-63898958D01*
G75*
G02*
X133214644Y-63545406I176776J176776D01*
G01*
X133709620Y-63050430D01*
G75*
G02*
X134063172Y-63050430I176776J-176776D01*
G01*
X134699570Y-63686828D01*
G75*
G02*
X134699570Y-64040380I-176776J-176776D01*
G01*
X134204594Y-64535356D01*
G75*
G02*
X133851042Y-64535356I-176776J176776D01*
G01*
G37*
G36*
G01*
X133786828Y-67299570D02*
X133150430Y-66663172D01*
G75*
G02*
X133150430Y-66309620I176776J176776D01*
G01*
X133645406Y-65814644D01*
G75*
G02*
X133998958Y-65814644I176776J-176776D01*
G01*
X134635356Y-66451042D01*
G75*
G02*
X134635356Y-66804594I-176776J-176776D01*
G01*
X134140380Y-67299570D01*
G75*
G02*
X133786828Y-67299570I-176776J176776D01*
G01*
G37*
G36*
G01*
X135201042Y-65885356D02*
X134564644Y-65248958D01*
G75*
G02*
X134564644Y-64895406I176776J176776D01*
G01*
X135059620Y-64400430D01*
G75*
G02*
X135413172Y-64400430I176776J-176776D01*
G01*
X136049570Y-65036828D01*
G75*
G02*
X136049570Y-65390380I-176776J-176776D01*
G01*
X135554594Y-65885356D01*
G75*
G02*
X135201042Y-65885356I-176776J176776D01*
G01*
G37*
D14*
G36*
X128032702Y-67836940D02*
G01*
X127643794Y-68225848D01*
X126583134Y-67165188D01*
X126972042Y-66776280D01*
X128032702Y-67836940D01*
G37*
G36*
X127467017Y-68402626D02*
G01*
X127078109Y-68791534D01*
X126017449Y-67730874D01*
X126406357Y-67341966D01*
X127467017Y-68402626D01*
G37*
G36*
X126901332Y-68968311D02*
G01*
X126512424Y-69357219D01*
X125451764Y-68296559D01*
X125840672Y-67907651D01*
X126901332Y-68968311D01*
G37*
G36*
X126335646Y-69533996D02*
G01*
X125946738Y-69922904D01*
X124886078Y-68862244D01*
X125274986Y-68473336D01*
X126335646Y-69533996D01*
G37*
G36*
X125769961Y-70099682D02*
G01*
X125381053Y-70488590D01*
X124320393Y-69427930D01*
X124709301Y-69039022D01*
X125769961Y-70099682D01*
G37*
G36*
X125204275Y-70665367D02*
G01*
X124815367Y-71054275D01*
X123754707Y-69993615D01*
X124143615Y-69604707D01*
X125204275Y-70665367D01*
G37*
G36*
X124638590Y-71231053D02*
G01*
X124249682Y-71619961D01*
X123189022Y-70559301D01*
X123577930Y-70170393D01*
X124638590Y-71231053D01*
G37*
G36*
X124072904Y-71796738D02*
G01*
X123683996Y-72185646D01*
X122623336Y-71124986D01*
X123012244Y-70736078D01*
X124072904Y-71796738D01*
G37*
G36*
X123507219Y-72362424D02*
G01*
X123118311Y-72751332D01*
X122057651Y-71690672D01*
X122446559Y-71301764D01*
X123507219Y-72362424D01*
G37*
G36*
X122941534Y-72928109D02*
G01*
X122552626Y-73317017D01*
X121491966Y-72256357D01*
X121880874Y-71867449D01*
X122941534Y-72928109D01*
G37*
G36*
X122375848Y-73493794D02*
G01*
X121986940Y-73882702D01*
X120926280Y-72822042D01*
X121315188Y-72433134D01*
X122375848Y-73493794D01*
G37*
G36*
X121986940Y-74837298D02*
G01*
X122375848Y-75226206D01*
X121315188Y-76286866D01*
X120926280Y-75897958D01*
X121986940Y-74837298D01*
G37*
G36*
X122552626Y-75402983D02*
G01*
X122941534Y-75791891D01*
X121880874Y-76852551D01*
X121491966Y-76463643D01*
X122552626Y-75402983D01*
G37*
G36*
X123118311Y-75968668D02*
G01*
X123507219Y-76357576D01*
X122446559Y-77418236D01*
X122057651Y-77029328D01*
X123118311Y-75968668D01*
G37*
G36*
X123683996Y-76534354D02*
G01*
X124072904Y-76923262D01*
X123012244Y-77983922D01*
X122623336Y-77595014D01*
X123683996Y-76534354D01*
G37*
G36*
X124249682Y-77100039D02*
G01*
X124638590Y-77488947D01*
X123577930Y-78549607D01*
X123189022Y-78160699D01*
X124249682Y-77100039D01*
G37*
G36*
X124815367Y-77665725D02*
G01*
X125204275Y-78054633D01*
X124143615Y-79115293D01*
X123754707Y-78726385D01*
X124815367Y-77665725D01*
G37*
G36*
X125381053Y-78231410D02*
G01*
X125769961Y-78620318D01*
X124709301Y-79680978D01*
X124320393Y-79292070D01*
X125381053Y-78231410D01*
G37*
G36*
X125946738Y-78797096D02*
G01*
X126335646Y-79186004D01*
X125274986Y-80246664D01*
X124886078Y-79857756D01*
X125946738Y-78797096D01*
G37*
G36*
X126512424Y-79362781D02*
G01*
X126901332Y-79751689D01*
X125840672Y-80812349D01*
X125451764Y-80423441D01*
X126512424Y-79362781D01*
G37*
G36*
X127078109Y-79928466D02*
G01*
X127467017Y-80317374D01*
X126406357Y-81378034D01*
X126017449Y-80989126D01*
X127078109Y-79928466D01*
G37*
G36*
X127643794Y-80494152D02*
G01*
X128032702Y-80883060D01*
X126972042Y-81943720D01*
X126583134Y-81554812D01*
X127643794Y-80494152D01*
G37*
G36*
X130436866Y-81554812D02*
G01*
X130047958Y-81943720D01*
X128987298Y-80883060D01*
X129376206Y-80494152D01*
X130436866Y-81554812D01*
G37*
G36*
X131002551Y-80989126D02*
G01*
X130613643Y-81378034D01*
X129552983Y-80317374D01*
X129941891Y-79928466D01*
X131002551Y-80989126D01*
G37*
G36*
X131568236Y-80423441D02*
G01*
X131179328Y-80812349D01*
X130118668Y-79751689D01*
X130507576Y-79362781D01*
X131568236Y-80423441D01*
G37*
G36*
X132133922Y-79857756D02*
G01*
X131745014Y-80246664D01*
X130684354Y-79186004D01*
X131073262Y-78797096D01*
X132133922Y-79857756D01*
G37*
G36*
X132699607Y-79292070D02*
G01*
X132310699Y-79680978D01*
X131250039Y-78620318D01*
X131638947Y-78231410D01*
X132699607Y-79292070D01*
G37*
G36*
X133265293Y-78726385D02*
G01*
X132876385Y-79115293D01*
X131815725Y-78054633D01*
X132204633Y-77665725D01*
X133265293Y-78726385D01*
G37*
G36*
X133830978Y-78160699D02*
G01*
X133442070Y-78549607D01*
X132381410Y-77488947D01*
X132770318Y-77100039D01*
X133830978Y-78160699D01*
G37*
G36*
X134396664Y-77595014D02*
G01*
X134007756Y-77983922D01*
X132947096Y-76923262D01*
X133336004Y-76534354D01*
X134396664Y-77595014D01*
G37*
G36*
X134962349Y-77029328D02*
G01*
X134573441Y-77418236D01*
X133512781Y-76357576D01*
X133901689Y-75968668D01*
X134962349Y-77029328D01*
G37*
G36*
X135528034Y-76463643D02*
G01*
X135139126Y-76852551D01*
X134078466Y-75791891D01*
X134467374Y-75402983D01*
X135528034Y-76463643D01*
G37*
G36*
X136093720Y-75897958D02*
G01*
X135704812Y-76286866D01*
X134644152Y-75226206D01*
X135033060Y-74837298D01*
X136093720Y-75897958D01*
G37*
G36*
X135704812Y-72433134D02*
G01*
X136093720Y-72822042D01*
X135033060Y-73882702D01*
X134644152Y-73493794D01*
X135704812Y-72433134D01*
G37*
G36*
X135139126Y-71867449D02*
G01*
X135528034Y-72256357D01*
X134467374Y-73317017D01*
X134078466Y-72928109D01*
X135139126Y-71867449D01*
G37*
G36*
X134573441Y-71301764D02*
G01*
X134962349Y-71690672D01*
X133901689Y-72751332D01*
X133512781Y-72362424D01*
X134573441Y-71301764D01*
G37*
G36*
X134007756Y-70736078D02*
G01*
X134396664Y-71124986D01*
X133336004Y-72185646D01*
X132947096Y-71796738D01*
X134007756Y-70736078D01*
G37*
G36*
X133442070Y-70170393D02*
G01*
X133830978Y-70559301D01*
X132770318Y-71619961D01*
X132381410Y-71231053D01*
X133442070Y-70170393D01*
G37*
G36*
X132876385Y-69604707D02*
G01*
X133265293Y-69993615D01*
X132204633Y-71054275D01*
X131815725Y-70665367D01*
X132876385Y-69604707D01*
G37*
G36*
X132310699Y-69039022D02*
G01*
X132699607Y-69427930D01*
X131638947Y-70488590D01*
X131250039Y-70099682D01*
X132310699Y-69039022D01*
G37*
G36*
X131745014Y-68473336D02*
G01*
X132133922Y-68862244D01*
X131073262Y-69922904D01*
X130684354Y-69533996D01*
X131745014Y-68473336D01*
G37*
G36*
X131179328Y-67907651D02*
G01*
X131568236Y-68296559D01*
X130507576Y-69357219D01*
X130118668Y-68968311D01*
X131179328Y-67907651D01*
G37*
G36*
X130613643Y-67341966D02*
G01*
X131002551Y-67730874D01*
X129941891Y-68791534D01*
X129552983Y-68402626D01*
X130613643Y-67341966D01*
G37*
G36*
X130047958Y-66776280D02*
G01*
X130436866Y-67165188D01*
X129376206Y-68225848D01*
X128987298Y-67836940D01*
X130047958Y-66776280D01*
G37*
G36*
G01*
X126825000Y-63650000D02*
X125875000Y-63650000D01*
G75*
G02*
X125625000Y-63400000I0J250000D01*
G01*
X125625000Y-62725000D01*
G75*
G02*
X125875000Y-62475000I250000J0D01*
G01*
X126825000Y-62475000D01*
G75*
G02*
X127075000Y-62725000I0J-250000D01*
G01*
X127075000Y-63400000D01*
G75*
G02*
X126825000Y-63650000I-250000J0D01*
G01*
G37*
G36*
G01*
X126825000Y-65725000D02*
X125875000Y-65725000D01*
G75*
G02*
X125625000Y-65475000I0J250000D01*
G01*
X125625000Y-64800000D01*
G75*
G02*
X125875000Y-64550000I250000J0D01*
G01*
X126825000Y-64550000D01*
G75*
G02*
X127075000Y-64800000I0J-250000D01*
G01*
X127075000Y-65475000D01*
G75*
G02*
X126825000Y-65725000I-250000J0D01*
G01*
G37*
G36*
G01*
X7975000Y-6000000D02*
X8925000Y-6000000D01*
G75*
G02*
X9175000Y-6250000I0J-250000D01*
G01*
X9175000Y-6925000D01*
G75*
G02*
X8925000Y-7175000I-250000J0D01*
G01*
X7975000Y-7175000D01*
G75*
G02*
X7725000Y-6925000I0J250000D01*
G01*
X7725000Y-6250000D01*
G75*
G02*
X7975000Y-6000000I250000J0D01*
G01*
G37*
G36*
G01*
X7975000Y-3925000D02*
X8925000Y-3925000D01*
G75*
G02*
X9175000Y-4175000I0J-250000D01*
G01*
X9175000Y-4850000D01*
G75*
G02*
X8925000Y-5100000I-250000J0D01*
G01*
X7975000Y-5100000D01*
G75*
G02*
X7725000Y-4850000I0J250000D01*
G01*
X7725000Y-4175000D01*
G75*
G02*
X7975000Y-3925000I250000J0D01*
G01*
G37*
D15*
X5250000Y-5700000D03*
X1950000Y-5700000D03*
D16*
X26962500Y-6100000D03*
X26962500Y-2800000D03*
X46012500Y-6100000D03*
X46012500Y-2800000D03*
X65062500Y-6100000D03*
X65062500Y-2800000D03*
X84112500Y-6100000D03*
X84112500Y-2800000D03*
X103162500Y-2800000D03*
X103162500Y-6100000D03*
X122212500Y-6100000D03*
X122212500Y-2800000D03*
X141262500Y-2800000D03*
X141262500Y-6100000D03*
X160312500Y-2800000D03*
X160312500Y-6100000D03*
X179362500Y-6100000D03*
X179362500Y-2800000D03*
X198412500Y-6100000D03*
X198412500Y-2800000D03*
X217462500Y-2800000D03*
X217462500Y-6100000D03*
X236512500Y-6100000D03*
X236512500Y-2800000D03*
X255562500Y-2800000D03*
X255562500Y-6100000D03*
X298425000Y-6100000D03*
X298425000Y-2800000D03*
X3150000Y-25150000D03*
X3150000Y-21850000D03*
X26962500Y-21850000D03*
X26962500Y-25150000D03*
X46012500Y-25150000D03*
X46012500Y-21850000D03*
X65062500Y-25150000D03*
X65062500Y-21850000D03*
X84112500Y-25150000D03*
X84112500Y-21850000D03*
X103162500Y-25150000D03*
X103162500Y-21850000D03*
X122212500Y-25150000D03*
X122212500Y-21850000D03*
X141262500Y-21850000D03*
X141262500Y-25150000D03*
X160312500Y-25150000D03*
X160312500Y-21850000D03*
X179362500Y-21850000D03*
X179362500Y-25150000D03*
X198412500Y-25150000D03*
X198412500Y-21850000D03*
X217462500Y-25150000D03*
X217462500Y-21850000D03*
X236512500Y-25150000D03*
X236512500Y-21850000D03*
X255562500Y-21850000D03*
X255562500Y-25150000D03*
X279375000Y-6100000D03*
X279375000Y-2800000D03*
X3150000Y-40900000D03*
X3150000Y-44200000D03*
X26962500Y-40900000D03*
X26962500Y-44200000D03*
X46012500Y-40900000D03*
X46012500Y-44200000D03*
X65062500Y-40900000D03*
X65062500Y-44200000D03*
X84112500Y-40900000D03*
X84112500Y-44200000D03*
X103162500Y-44200000D03*
X103162500Y-40900000D03*
X122212500Y-44200000D03*
X122212500Y-40900000D03*
X141262500Y-40900000D03*
X141262500Y-44200000D03*
X160312500Y-44200000D03*
X160312500Y-40900000D03*
X179362500Y-40900000D03*
X179362500Y-44200000D03*
X198412500Y-40900000D03*
X198412500Y-44200000D03*
X217462500Y-40900000D03*
X217462500Y-44200000D03*
X236512500Y-40900000D03*
X236512500Y-44200000D03*
X255562500Y-44200000D03*
X255562500Y-40900000D03*
X279375000Y-21850000D03*
X279375000Y-25150000D03*
X3150000Y-59950000D03*
X3150000Y-63250000D03*
X31725000Y-63250000D03*
X31725000Y-59950000D03*
X55537500Y-63250000D03*
X55537500Y-59950000D03*
X74587500Y-59950000D03*
X74587500Y-63250000D03*
X93637500Y-63250000D03*
X93637500Y-59950000D03*
X112687500Y-63250000D03*
X112687500Y-59950000D03*
X123400000Y-51550000D03*
X123400000Y-54850000D03*
X150787500Y-63250000D03*
X150787500Y-59950000D03*
X169837500Y-59950000D03*
X169837500Y-63250000D03*
X188887500Y-63250000D03*
X188887500Y-59950000D03*
X207937500Y-59950000D03*
X207937500Y-63250000D03*
X226987500Y-63250000D03*
X226987500Y-59950000D03*
X253181250Y-63250000D03*
X253181250Y-59950000D03*
X26962500Y-82300000D03*
X26962500Y-79000000D03*
X46012500Y-79000000D03*
X46012500Y-82300000D03*
X65062500Y-82300000D03*
X65062500Y-79000000D03*
D15*
X113075000Y-81900000D03*
X116375000Y-81900000D03*
D14*
G36*
X150960660Y-78140812D02*
G01*
X151809188Y-78989340D01*
X151172792Y-79625736D01*
X150324264Y-78777208D01*
X150960660Y-78140812D01*
G37*
G36*
X148627208Y-80474264D02*
G01*
X149475736Y-81322792D01*
X148839340Y-81959188D01*
X147990812Y-81110660D01*
X148627208Y-80474264D01*
G37*
D16*
X179362500Y-79000000D03*
X179362500Y-82300000D03*
X198412500Y-79000000D03*
X198412500Y-82300000D03*
X217462500Y-82300000D03*
X217462500Y-79000000D03*
X238893750Y-79000000D03*
X238893750Y-82300000D03*
X260325000Y-82300000D03*
X260325000Y-79000000D03*
X298425000Y-79000000D03*
X298425000Y-82300000D03*
G36*
G01*
X4750000Y1999998D02*
X4750000Y2900002D01*
G75*
G02*
X4999998Y3150000I249998J0D01*
G01*
X5525002Y3150000D01*
G75*
G02*
X5775000Y2900002I0J-249998D01*
G01*
X5775000Y1999998D01*
G75*
G02*
X5525002Y1750000I-249998J0D01*
G01*
X4999998Y1750000D01*
G75*
G02*
X4750000Y1999998I0J249998D01*
G01*
G37*
G36*
G01*
X2925000Y1999998D02*
X2925000Y2900002D01*
G75*
G02*
X3174998Y3150000I249998J0D01*
G01*
X3700002Y3150000D01*
G75*
G02*
X3950000Y2900002I0J-249998D01*
G01*
X3950000Y1999998D01*
G75*
G02*
X3700002Y1750000I-249998J0D01*
G01*
X3174998Y1750000D01*
G75*
G02*
X2925000Y1999998I0J249998D01*
G01*
G37*
G36*
G01*
X5775000Y-1949998D02*
X5775000Y-2850002D01*
G75*
G02*
X5525002Y-3100000I-249998J0D01*
G01*
X4999998Y-3100000D01*
G75*
G02*
X4750000Y-2850002I0J249998D01*
G01*
X4750000Y-1949998D01*
G75*
G02*
X4999998Y-1700000I249998J0D01*
G01*
X5525002Y-1700000D01*
G75*
G02*
X5775000Y-1949998I0J-249998D01*
G01*
G37*
G36*
G01*
X3950000Y-1949998D02*
X3950000Y-2850002D01*
G75*
G02*
X3700002Y-3100000I-249998J0D01*
G01*
X3174998Y-3100000D01*
G75*
G02*
X2925000Y-2850002I0J249998D01*
G01*
X2925000Y-1949998D01*
G75*
G02*
X3174998Y-1700000I249998J0D01*
G01*
X3700002Y-1700000D01*
G75*
G02*
X3950000Y-1949998I0J-249998D01*
G01*
G37*
G36*
G01*
X142250000Y-73249999D02*
X142250000Y-74150001D01*
G75*
G02*
X142000001Y-74400000I-249999J0D01*
G01*
X141299999Y-74400000D01*
G75*
G02*
X141050000Y-74150001I0J249999D01*
G01*
X141050000Y-73249999D01*
G75*
G02*
X141299999Y-73000000I249999J0D01*
G01*
X142000001Y-73000000D01*
G75*
G02*
X142250000Y-73249999I0J-249999D01*
G01*
G37*
G36*
G01*
X140250000Y-73249999D02*
X140250000Y-74150001D01*
G75*
G02*
X140000001Y-74400000I-249999J0D01*
G01*
X139299999Y-74400000D01*
G75*
G02*
X139050000Y-74150001I0J249999D01*
G01*
X139050000Y-73249999D01*
G75*
G02*
X139299999Y-73000000I249999J0D01*
G01*
X140000001Y-73000000D01*
G75*
G02*
X140250000Y-73249999I0J-249999D01*
G01*
G37*
G36*
G01*
X24400000Y-31900001D02*
X24400000Y-30999999D01*
G75*
G02*
X24649999Y-30750000I249999J0D01*
G01*
X25350001Y-30750000D01*
G75*
G02*
X25600000Y-30999999I0J-249999D01*
G01*
X25600000Y-31900001D01*
G75*
G02*
X25350001Y-32150000I-249999J0D01*
G01*
X24649999Y-32150000D01*
G75*
G02*
X24400000Y-31900001I0J249999D01*
G01*
G37*
G36*
G01*
X22400000Y-31900001D02*
X22400000Y-30999999D01*
G75*
G02*
X22649999Y-30750000I249999J0D01*
G01*
X23350001Y-30750000D01*
G75*
G02*
X23600000Y-30999999I0J-249999D01*
G01*
X23600000Y-31900001D01*
G75*
G02*
X23350001Y-32150000I-249999J0D01*
G01*
X22649999Y-32150000D01*
G75*
G02*
X22400000Y-31900001I0J249999D01*
G01*
G37*
D17*
X12000000Y-3200000D03*
X11050000Y-3200000D03*
X12950000Y-3200000D03*
X12950000Y-1000000D03*
X12000000Y-1000000D03*
X11050000Y-1000000D03*
G36*
G01*
X8900002Y-1350000D02*
X7999998Y-1350000D01*
G75*
G02*
X7750000Y-1100002I0J249998D01*
G01*
X7750000Y-574998D01*
G75*
G02*
X7999998Y-325000I249998J0D01*
G01*
X8900002Y-325000D01*
G75*
G02*
X9150000Y-574998I0J-249998D01*
G01*
X9150000Y-1100002D01*
G75*
G02*
X8900002Y-1350000I-249998J0D01*
G01*
G37*
G36*
G01*
X8900002Y-3175000D02*
X7999998Y-3175000D01*
G75*
G02*
X7750000Y-2925002I0J249998D01*
G01*
X7750000Y-2399998D01*
G75*
G02*
X7999998Y-2150000I249998J0D01*
G01*
X8900002Y-2150000D01*
G75*
G02*
X9150000Y-2399998I0J-249998D01*
G01*
X9150000Y-2925002D01*
G75*
G02*
X8900002Y-3175000I-249998J0D01*
G01*
G37*
G36*
G01*
X16050002Y-3175000D02*
X15149998Y-3175000D01*
G75*
G02*
X14900000Y-2925002I0J249998D01*
G01*
X14900000Y-2399998D01*
G75*
G02*
X15149998Y-2150000I249998J0D01*
G01*
X16050002Y-2150000D01*
G75*
G02*
X16300000Y-2399998I0J-249998D01*
G01*
X16300000Y-2925002D01*
G75*
G02*
X16050002Y-3175000I-249998J0D01*
G01*
G37*
G36*
G01*
X16050002Y-1350000D02*
X15149998Y-1350000D01*
G75*
G02*
X14900000Y-1100002I0J249998D01*
G01*
X14900000Y-574998D01*
G75*
G02*
X15149998Y-325000I249998J0D01*
G01*
X16050002Y-325000D01*
G75*
G02*
X16300000Y-574998I0J-249998D01*
G01*
X16300000Y-1100002D01*
G75*
G02*
X16050002Y-1350000I-249998J0D01*
G01*
G37*
D16*
X5531250Y-82300000D03*
X5531250Y-79000000D03*
D18*
X136650000Y-79650000D03*
X136650000Y-81850000D03*
X134950000Y-81850000D03*
X134950000Y-79650000D03*
D19*
X14790000Y3500000D03*
X9010000Y3500000D03*
D20*
X16220000Y7150000D03*
X7580000Y7150000D03*
X16220000Y2970000D03*
X7580000Y2970000D03*
D21*
X15150000Y2055000D03*
X14350000Y2055000D03*
D22*
X13650000Y2055000D03*
X13150000Y2055000D03*
X12650000Y2055000D03*
X12150000Y2055000D03*
X10150000Y2055000D03*
X10650000Y2055000D03*
X11150000Y2055000D03*
X11650000Y2055000D03*
D21*
X9450000Y2055000D03*
X8650000Y2055000D03*
D16*
X84112500Y-82300000D03*
X84112500Y-79000000D03*
X279375000Y-59950000D03*
X279375000Y-63250000D03*
X279375000Y-82300000D03*
X279375000Y-79000000D03*
D11*
X5000000Y5150000D03*
X0Y-5900000D03*
X-5000000Y-3800000D03*
D12*
X0Y0D03*
D13*
X5500000Y0D03*
X-5500000Y0D03*
X18312500Y0D03*
X29312500Y0D03*
D12*
X23812500Y0D03*
D11*
X18812500Y-3800000D03*
X23812500Y-5900000D03*
X28812500Y5150000D03*
X47862500Y5150000D03*
X42862500Y-5900000D03*
X37862500Y-3800000D03*
D12*
X42862500Y0D03*
D13*
X48362500Y0D03*
X37362500Y0D03*
X56412500Y0D03*
X67412500Y0D03*
D12*
X61912500Y0D03*
D11*
X56912500Y-3800000D03*
X61912500Y-5900000D03*
X66912500Y5150000D03*
X85962500Y5150000D03*
X80962500Y-5900000D03*
X75962500Y-3800000D03*
D12*
X80962500Y0D03*
D13*
X86462500Y0D03*
X75462500Y0D03*
D11*
X105012500Y5150000D03*
X100012500Y-5900000D03*
X95012500Y-3800000D03*
D12*
X100012500Y0D03*
D13*
X105512500Y0D03*
X94512500Y0D03*
D11*
X124062500Y5150000D03*
X119062500Y-5900000D03*
X114062500Y-3800000D03*
D12*
X119062500Y0D03*
D13*
X124562500Y0D03*
X113562500Y0D03*
X132612500Y0D03*
X143612500Y0D03*
D12*
X138112500Y0D03*
D11*
X133112500Y-3800000D03*
X138112500Y-5900000D03*
X143112500Y5150000D03*
X162162500Y5150000D03*
X157162500Y-5900000D03*
X152162500Y-3800000D03*
D12*
X157162500Y0D03*
D13*
X162662500Y0D03*
X151662500Y0D03*
X170712500Y0D03*
X181712500Y0D03*
D12*
X176212500Y0D03*
D11*
X171212500Y-3800000D03*
X176212500Y-5900000D03*
X181212500Y5150000D03*
X200262500Y5150000D03*
X195262500Y-5900000D03*
X190262500Y-3800000D03*
D12*
X195262500Y0D03*
D13*
X200762500Y0D03*
X189762500Y0D03*
D11*
X219312500Y5150000D03*
X214312500Y-5900000D03*
X209312500Y-3800000D03*
D12*
X214312500Y0D03*
D13*
X219812500Y0D03*
X208812500Y0D03*
X227862500Y0D03*
X238862500Y0D03*
D12*
X233362500Y0D03*
D11*
X228362500Y-3800000D03*
X233362500Y-5900000D03*
X238362500Y5150000D03*
X257412500Y5150000D03*
X252412500Y-5900000D03*
X247412500Y-3800000D03*
D12*
X252412500Y0D03*
D13*
X257912500Y0D03*
X246912500Y0D03*
X289775000Y0D03*
X300775000Y0D03*
D12*
X295275000Y0D03*
D11*
X290275000Y-3800000D03*
X295275000Y-5900000D03*
X300275000Y5150000D03*
X5000000Y-13900000D03*
X0Y-24950000D03*
X-5000000Y-22850000D03*
D12*
X0Y-19050000D03*
D13*
X5500000Y-19050000D03*
X-5500000Y-19050000D03*
X18312500Y-19050000D03*
X29312500Y-19050000D03*
D12*
X23812500Y-19050000D03*
D11*
X18812500Y-22850000D03*
X23812500Y-24950000D03*
X28812500Y-13900000D03*
X47862500Y-13900000D03*
X42862500Y-24950000D03*
X37862500Y-22850000D03*
D12*
X42862500Y-19050000D03*
D13*
X48362500Y-19050000D03*
X37362500Y-19050000D03*
X56412500Y-19050000D03*
X67412500Y-19050000D03*
D12*
X61912500Y-19050000D03*
D11*
X56912500Y-22850000D03*
X61912500Y-24950000D03*
X66912500Y-13900000D03*
D13*
X75462500Y-19050000D03*
X86462500Y-19050000D03*
D12*
X80962500Y-19050000D03*
D11*
X75962500Y-22850000D03*
X80962500Y-24950000D03*
X85962500Y-13900000D03*
D13*
X94512500Y-19050000D03*
X105512500Y-19050000D03*
D12*
X100012500Y-19050000D03*
D11*
X95012500Y-22850000D03*
X100012500Y-24950000D03*
X105012500Y-13900000D03*
X124062500Y-13900000D03*
X119062500Y-24950000D03*
X114062500Y-22850000D03*
D12*
X119062500Y-19050000D03*
D13*
X124562500Y-19050000D03*
X113562500Y-19050000D03*
X132612500Y-19050000D03*
X143612500Y-19050000D03*
D12*
X138112500Y-19050000D03*
D11*
X133112500Y-22850000D03*
X138112500Y-24950000D03*
X143112500Y-13900000D03*
X162162500Y-13900000D03*
X157162500Y-24950000D03*
X152162500Y-22850000D03*
D12*
X157162500Y-19050000D03*
D13*
X162662500Y-19050000D03*
X151662500Y-19050000D03*
X170712500Y-19050000D03*
X181712500Y-19050000D03*
D12*
X176212500Y-19050000D03*
D11*
X171212500Y-22850000D03*
X176212500Y-24950000D03*
X181212500Y-13900000D03*
X200262500Y-13900000D03*
X195262500Y-24950000D03*
X190262500Y-22850000D03*
D12*
X195262500Y-19050000D03*
D13*
X200762500Y-19050000D03*
X189762500Y-19050000D03*
X208812500Y-19050000D03*
X219812500Y-19050000D03*
D12*
X214312500Y-19050000D03*
D11*
X209312500Y-22850000D03*
X214312500Y-24950000D03*
X219312500Y-13900000D03*
X238362500Y-13900000D03*
X233362500Y-24950000D03*
X228362500Y-22850000D03*
D12*
X233362500Y-19050000D03*
D13*
X238862500Y-19050000D03*
X227862500Y-19050000D03*
X246912500Y-19050000D03*
X257912500Y-19050000D03*
D12*
X252412500Y-19050000D03*
D11*
X247412500Y-22850000D03*
X252412500Y-24950000D03*
X257412500Y-13900000D03*
X281225000Y5150000D03*
X276225000Y-5900000D03*
X271225000Y-3800000D03*
D12*
X276225000Y0D03*
D13*
X281725000Y0D03*
X270725000Y0D03*
X-5500000Y-38100000D03*
X5500000Y-38100000D03*
D12*
X0Y-38100000D03*
D11*
X-5000000Y-41900000D03*
X0Y-44000000D03*
X5000000Y-32950000D03*
D13*
X18312500Y-38100000D03*
X29312500Y-38100000D03*
D12*
X23812500Y-38100000D03*
D11*
X18812500Y-41900000D03*
X23812500Y-44000000D03*
X28812500Y-32950000D03*
X47862500Y-32950000D03*
X42862500Y-44000000D03*
X37862500Y-41900000D03*
D12*
X42862500Y-38100000D03*
D13*
X48362500Y-38100000D03*
X37362500Y-38100000D03*
D11*
X66912500Y-32950000D03*
X61912500Y-44000000D03*
X56912500Y-41900000D03*
D12*
X61912500Y-38100000D03*
D13*
X67412500Y-38100000D03*
X56412500Y-38100000D03*
D11*
X85962500Y-32950000D03*
X80962500Y-44000000D03*
X75962500Y-41900000D03*
D12*
X80962500Y-38100000D03*
D13*
X86462500Y-38100000D03*
X75462500Y-38100000D03*
X94512500Y-38100000D03*
X105512500Y-38100000D03*
D12*
X100012500Y-38100000D03*
D11*
X95012500Y-41900000D03*
X100012500Y-44000000D03*
X105012500Y-32950000D03*
X124062500Y-32950000D03*
X119062500Y-44000000D03*
X114062500Y-41900000D03*
D12*
X119062500Y-38100000D03*
D13*
X124562500Y-38100000D03*
X113562500Y-38100000D03*
X132612500Y-38100000D03*
X143612500Y-38100000D03*
D12*
X138112500Y-38100000D03*
D11*
X133112500Y-41900000D03*
X138112500Y-44000000D03*
X143112500Y-32950000D03*
X162162500Y-32950000D03*
X157162500Y-44000000D03*
X152162500Y-41900000D03*
D12*
X157162500Y-38100000D03*
D13*
X162662500Y-38100000D03*
X151662500Y-38100000D03*
X170712500Y-38100000D03*
X181712500Y-38100000D03*
D12*
X176212500Y-38100000D03*
D11*
X171212500Y-41900000D03*
X176212500Y-44000000D03*
X181212500Y-32950000D03*
D13*
X189762500Y-38100000D03*
X200762500Y-38100000D03*
D12*
X195262500Y-38100000D03*
D11*
X190262500Y-41900000D03*
X195262500Y-44000000D03*
X200262500Y-32950000D03*
X219312500Y-32950000D03*
X214312500Y-44000000D03*
X209312500Y-41900000D03*
D12*
X214312500Y-38100000D03*
D13*
X219812500Y-38100000D03*
X208812500Y-38100000D03*
D11*
X238362500Y-32950000D03*
X233362500Y-44000000D03*
X228362500Y-41900000D03*
D12*
X233362500Y-38100000D03*
D13*
X238862500Y-38100000D03*
X227862500Y-38100000D03*
X246912500Y-38100000D03*
X257912500Y-38100000D03*
D12*
X252412500Y-38100000D03*
D11*
X247412500Y-41900000D03*
X252412500Y-44000000D03*
X257412500Y-32950000D03*
X281225000Y-13900000D03*
X276225000Y-24950000D03*
X271225000Y-22850000D03*
D12*
X276225000Y-19050000D03*
D13*
X281725000Y-19050000D03*
X270725000Y-19050000D03*
X-5500000Y-57150000D03*
X5500000Y-57150000D03*
D12*
X0Y-57150000D03*
D11*
X-5000000Y-60950000D03*
X0Y-63050000D03*
X5000000Y-52000000D03*
X33575000Y-52000000D03*
X28575000Y-63050000D03*
X23575000Y-60950000D03*
D12*
X28575000Y-57150000D03*
D13*
X34075000Y-57150000D03*
X23075000Y-57150000D03*
D11*
X57387500Y-52000000D03*
X52387500Y-63050000D03*
X47387500Y-60950000D03*
D12*
X52387500Y-57150000D03*
D13*
X57887500Y-57150000D03*
X46887500Y-57150000D03*
D11*
X76437500Y-52000000D03*
X71437500Y-63050000D03*
X66437500Y-60950000D03*
D12*
X71437500Y-57150000D03*
D13*
X76937500Y-57150000D03*
X65937500Y-57150000D03*
X84987500Y-57150000D03*
X95987500Y-57150000D03*
D12*
X90487500Y-57150000D03*
D11*
X85487500Y-60950000D03*
X90487500Y-63050000D03*
X95487500Y-52000000D03*
X114537500Y-52000000D03*
X109537500Y-63050000D03*
X104537500Y-60950000D03*
D12*
X109537500Y-57150000D03*
D13*
X115037500Y-57150000D03*
X104037500Y-57150000D03*
D11*
X133587500Y-52000000D03*
X128587500Y-63050000D03*
X123587500Y-60950000D03*
D12*
X128587500Y-57150000D03*
D13*
X134087500Y-57150000D03*
X123087500Y-57150000D03*
X142137500Y-57150000D03*
X153137500Y-57150000D03*
D12*
X147637500Y-57150000D03*
D11*
X142637500Y-60950000D03*
X147637500Y-63050000D03*
X152637500Y-52000000D03*
D13*
X161187500Y-57150000D03*
X172187500Y-57150000D03*
D12*
X166687500Y-57150000D03*
D11*
X161687500Y-60950000D03*
X166687500Y-63050000D03*
X171687500Y-52000000D03*
D13*
X180237500Y-57150000D03*
X191237500Y-57150000D03*
D12*
X185737500Y-57150000D03*
D11*
X180737500Y-60950000D03*
X185737500Y-63050000D03*
X190737500Y-52000000D03*
X209787500Y-52000000D03*
X204787500Y-63050000D03*
X199787500Y-60950000D03*
D12*
X204787500Y-57150000D03*
D13*
X210287500Y-57150000D03*
X199287500Y-57150000D03*
X218337500Y-57150000D03*
X229337500Y-57150000D03*
D12*
X223837500Y-57150000D03*
D11*
X218837500Y-60950000D03*
X223837500Y-63050000D03*
X228837500Y-52000000D03*
D13*
X242150000Y-57150000D03*
X253150000Y-57150000D03*
D12*
X247650000Y-57150000D03*
D11*
X242650000Y-60950000D03*
X247650000Y-63050000D03*
X252650000Y-52000000D03*
D13*
X270725000Y-57150000D03*
X281725000Y-57150000D03*
D12*
X276225000Y-57150000D03*
D11*
X271225000Y-60950000D03*
X276225000Y-63050000D03*
X281225000Y-52000000D03*
D13*
X289775000Y-19050000D03*
X300775000Y-19050000D03*
D12*
X295275000Y-19050000D03*
D11*
X290275000Y-22850000D03*
X295275000Y-24950000D03*
X300275000Y-13900000D03*
D13*
X-5500000Y-76200000D03*
X5500000Y-76200000D03*
D12*
X0Y-76200000D03*
D11*
X-5000000Y-80000000D03*
X0Y-82100000D03*
X5000000Y-71050000D03*
X28812500Y-71050000D03*
X23812500Y-82100000D03*
X18812500Y-80000000D03*
D12*
X23812500Y-76200000D03*
D13*
X29312500Y-76200000D03*
X18312500Y-76200000D03*
X37362500Y-76200000D03*
X48362500Y-76200000D03*
D12*
X42862500Y-76200000D03*
D11*
X37862500Y-80000000D03*
X42862500Y-82100000D03*
X47862500Y-71050000D03*
X66912500Y-71050000D03*
X61912500Y-82100000D03*
X56912500Y-80000000D03*
D12*
X61912500Y-76200000D03*
D13*
X67412500Y-76200000D03*
X56412500Y-76200000D03*
D11*
X85962500Y-71050000D03*
X80962500Y-82100000D03*
X75962500Y-80000000D03*
D12*
X80962500Y-76200000D03*
D13*
X86462500Y-76200000D03*
X75462500Y-76200000D03*
D11*
X116125000Y-71050000D03*
X111125000Y-82100000D03*
X106125000Y-80000000D03*
D12*
X111125000Y-76200000D03*
D13*
X116625000Y-76200000D03*
X105625000Y-76200000D03*
X140550000Y-76200000D03*
X151550000Y-76200000D03*
D12*
X146050000Y-76200000D03*
D11*
X141050000Y-80000000D03*
X146050000Y-82100000D03*
X151050000Y-71050000D03*
D13*
X170712500Y-76200000D03*
X181712500Y-76200000D03*
D12*
X176212500Y-76200000D03*
D11*
X171212500Y-80000000D03*
X176212500Y-82100000D03*
X181212500Y-71050000D03*
D13*
X189762500Y-76200000D03*
X200762500Y-76200000D03*
D12*
X195262500Y-76200000D03*
D11*
X190262500Y-80000000D03*
X195262500Y-82100000D03*
X200262500Y-71050000D03*
X219312500Y-71050000D03*
X214312500Y-82100000D03*
X209312500Y-80000000D03*
D12*
X214312500Y-76200000D03*
D13*
X219812500Y-76200000D03*
X208812500Y-76200000D03*
X227862500Y-76200000D03*
X238862500Y-76200000D03*
D12*
X233362500Y-76200000D03*
D11*
X228362500Y-80000000D03*
X233362500Y-82100000D03*
X238362500Y-71050000D03*
X262175000Y-71050000D03*
X257175000Y-82100000D03*
X252175000Y-80000000D03*
D12*
X257175000Y-76200000D03*
D13*
X262675000Y-76200000D03*
X251675000Y-76200000D03*
X270725000Y-76200000D03*
X281725000Y-76200000D03*
D12*
X276225000Y-76200000D03*
D11*
X271225000Y-80000000D03*
X276225000Y-82100000D03*
X281225000Y-71050000D03*
X300275000Y-71050000D03*
X295275000Y-82100000D03*
X290275000Y-80000000D03*
D12*
X295275000Y-76200000D03*
D13*
X300775000Y-76200000D03*
X289775000Y-76200000D03*
D16*
X298425000Y-25150000D03*
X298425000Y-21850000D03*
M02*
