G04 #@! TF.GenerationSoftware,KiCad,Pcbnew,(5.1.8)-1*
G04 #@! TF.CreationDate,2021-02-07T11:47:01-08:00*
G04 #@! TF.ProjectId,Spritzgeback,53707269-747a-4676-9562-61636b2e6b69,rev?*
G04 #@! TF.SameCoordinates,Original*
G04 #@! TF.FileFunction,Legend,Bot*
G04 #@! TF.FilePolarity,Positive*
%FSLAX46Y46*%
G04 Gerber Fmt 4.6, Leading zero omitted, Abs format (unit mm)*
G04 Created by KiCad (PCBNEW (5.1.8)-1) date 2021-02-07 11:47:01*
%MOMM*%
%LPD*%
G01*
G04 APERTURE LIST*
%ADD10C,0.100000*%
%ADD11C,0.150000*%
%ADD12C,0.120000*%
%ADD13C,0.127000*%
%ADD14C,0.200000*%
G04 APERTURE END LIST*
D10*
G36*
X285500000Y-40050000D02*
G01*
X282300000Y-40050000D01*
X283450000Y-38750000D01*
X286650000Y-38750000D01*
X285500000Y-40050000D01*
G37*
X285500000Y-40050000D02*
X282300000Y-40050000D01*
X283450000Y-38750000D01*
X286650000Y-38750000D01*
X285500000Y-40050000D01*
G36*
X285500000Y-39250000D02*
G01*
X282300000Y-39250000D01*
X283450000Y-37950000D01*
X286650000Y-37950000D01*
X285500000Y-39250000D01*
G37*
X285500000Y-39250000D02*
X282300000Y-39250000D01*
X283450000Y-37950000D01*
X286650000Y-37950000D01*
X285500000Y-39250000D01*
G36*
X285500000Y-38450000D02*
G01*
X282300000Y-38450000D01*
X283450000Y-37150000D01*
X286650000Y-37150000D01*
X285500000Y-38450000D01*
G37*
X285500000Y-38450000D02*
X282300000Y-38450000D01*
X283450000Y-37150000D01*
X286650000Y-37150000D01*
X285500000Y-38450000D01*
D11*
X293435714Y-35254761D02*
X293292857Y-35302380D01*
X293054761Y-35302380D01*
X292959523Y-35254761D01*
X292911904Y-35207142D01*
X292864285Y-35111904D01*
X292864285Y-35016666D01*
X292911904Y-34921428D01*
X292959523Y-34873809D01*
X293054761Y-34826190D01*
X293245238Y-34778571D01*
X293340476Y-34730952D01*
X293388095Y-34683333D01*
X293435714Y-34588095D01*
X293435714Y-34492857D01*
X293388095Y-34397619D01*
X293340476Y-34350000D01*
X293245238Y-34302380D01*
X293007142Y-34302380D01*
X292864285Y-34350000D01*
X292435714Y-34635714D02*
X292435714Y-35635714D01*
X292435714Y-34683333D02*
X292340476Y-34635714D01*
X292150000Y-34635714D01*
X292054761Y-34683333D01*
X292007142Y-34730952D01*
X291959523Y-34826190D01*
X291959523Y-35111904D01*
X292007142Y-35207142D01*
X292054761Y-35254761D01*
X292150000Y-35302380D01*
X292340476Y-35302380D01*
X292435714Y-35254761D01*
X291530952Y-35302380D02*
X291530952Y-34635714D01*
X291530952Y-34826190D02*
X291483333Y-34730952D01*
X291435714Y-34683333D01*
X291340476Y-34635714D01*
X291245238Y-34635714D01*
X290911904Y-35302380D02*
X290911904Y-34635714D01*
X290911904Y-34302380D02*
X290959523Y-34350000D01*
X290911904Y-34397619D01*
X290864285Y-34350000D01*
X290911904Y-34302380D01*
X290911904Y-34397619D01*
X290578571Y-34635714D02*
X290197619Y-34635714D01*
X290435714Y-34302380D02*
X290435714Y-35159523D01*
X290388095Y-35254761D01*
X290292857Y-35302380D01*
X290197619Y-35302380D01*
X289959523Y-34635714D02*
X289435714Y-34635714D01*
X289959523Y-35302380D01*
X289435714Y-35302380D01*
X288626190Y-34635714D02*
X288626190Y-35445238D01*
X288673809Y-35540476D01*
X288721428Y-35588095D01*
X288816666Y-35635714D01*
X288959523Y-35635714D01*
X289054761Y-35588095D01*
X288626190Y-35254761D02*
X288721428Y-35302380D01*
X288911904Y-35302380D01*
X289007142Y-35254761D01*
X289054761Y-35207142D01*
X289102380Y-35111904D01*
X289102380Y-34826190D01*
X289054761Y-34730952D01*
X289007142Y-34683333D01*
X288911904Y-34635714D01*
X288721428Y-34635714D01*
X288626190Y-34683333D01*
X287769047Y-35254761D02*
X287864285Y-35302380D01*
X288054761Y-35302380D01*
X288150000Y-35254761D01*
X288197619Y-35159523D01*
X288197619Y-34778571D01*
X288150000Y-34683333D01*
X288054761Y-34635714D01*
X287864285Y-34635714D01*
X287769047Y-34683333D01*
X287721428Y-34778571D01*
X287721428Y-34873809D01*
X288197619Y-34969047D01*
X287292857Y-35302380D02*
X287292857Y-34302380D01*
X287292857Y-34683333D02*
X287197619Y-34635714D01*
X287007142Y-34635714D01*
X286911904Y-34683333D01*
X286864285Y-34730952D01*
X286816666Y-34826190D01*
X286816666Y-35111904D01*
X286864285Y-35207142D01*
X286911904Y-35254761D01*
X287007142Y-35302380D01*
X287197619Y-35302380D01*
X287292857Y-35254761D01*
X285959523Y-35302380D02*
X285959523Y-34778571D01*
X286007142Y-34683333D01*
X286102380Y-34635714D01*
X286292857Y-34635714D01*
X286388095Y-34683333D01*
X285959523Y-35254761D02*
X286054761Y-35302380D01*
X286292857Y-35302380D01*
X286388095Y-35254761D01*
X286435714Y-35159523D01*
X286435714Y-35064285D01*
X286388095Y-34969047D01*
X286292857Y-34921428D01*
X286054761Y-34921428D01*
X285959523Y-34873809D01*
X285054761Y-35254761D02*
X285150000Y-35302380D01*
X285340476Y-35302380D01*
X285435714Y-35254761D01*
X285483333Y-35207142D01*
X285530952Y-35111904D01*
X285530952Y-34826190D01*
X285483333Y-34730952D01*
X285435714Y-34683333D01*
X285340476Y-34635714D01*
X285150000Y-34635714D01*
X285054761Y-34683333D01*
X284626190Y-35302380D02*
X284626190Y-34302380D01*
X284530952Y-34921428D02*
X284245238Y-35302380D01*
X284245238Y-34635714D02*
X284626190Y-35016666D01*
X283054761Y-35302380D02*
X283054761Y-34302380D01*
X283054761Y-34683333D02*
X282959523Y-34635714D01*
X282769047Y-34635714D01*
X282673809Y-34683333D01*
X282626190Y-34730952D01*
X282578571Y-34826190D01*
X282578571Y-35111904D01*
X282626190Y-35207142D01*
X282673809Y-35254761D01*
X282769047Y-35302380D01*
X282959523Y-35302380D01*
X283054761Y-35254761D01*
X282245238Y-34635714D02*
X282007142Y-35302380D01*
X281769047Y-34635714D02*
X282007142Y-35302380D01*
X282102380Y-35540476D01*
X282150000Y-35588095D01*
X282245238Y-35635714D01*
X280340476Y-34302380D02*
X280340476Y-35016666D01*
X280388095Y-35159523D01*
X280483333Y-35254761D01*
X280626190Y-35302380D01*
X280721428Y-35302380D01*
X279483333Y-35254761D02*
X279578571Y-35302380D01*
X279769047Y-35302380D01*
X279864285Y-35254761D01*
X279911904Y-35159523D01*
X279911904Y-34778571D01*
X279864285Y-34683333D01*
X279769047Y-34635714D01*
X279578571Y-34635714D01*
X279483333Y-34683333D01*
X279435714Y-34778571D01*
X279435714Y-34873809D01*
X279911904Y-34969047D01*
X279007142Y-35302380D02*
X279007142Y-34635714D01*
X279007142Y-34826190D02*
X278959523Y-34730952D01*
X278911904Y-34683333D01*
X278816666Y-34635714D01*
X278721428Y-34635714D01*
X278007142Y-35254761D02*
X278102380Y-35302380D01*
X278292857Y-35302380D01*
X278388095Y-35254761D01*
X278435714Y-35159523D01*
X278435714Y-34778571D01*
X278388095Y-34683333D01*
X278292857Y-34635714D01*
X278102380Y-34635714D01*
X278007142Y-34683333D01*
X277959523Y-34778571D01*
X277959523Y-34873809D01*
X278435714Y-34969047D01*
X277530952Y-35302380D02*
X277530952Y-34635714D01*
X277530952Y-34730952D02*
X277483333Y-34683333D01*
X277388095Y-34635714D01*
X277245238Y-34635714D01*
X277150000Y-34683333D01*
X277102380Y-34778571D01*
X277102380Y-35302380D01*
X277102380Y-34778571D02*
X277054761Y-34683333D01*
X276959523Y-34635714D01*
X276816666Y-34635714D01*
X276721428Y-34683333D01*
X276673809Y-34778571D01*
X276673809Y-35302380D01*
X276292857Y-34635714D02*
X276054761Y-35302380D01*
X275816666Y-34635714D02*
X276054761Y-35302380D01*
X276150000Y-35540476D01*
X276197619Y-35588095D01*
X276292857Y-35635714D01*
D12*
X128847231Y-66550000D02*
G75*
G03*
X128847231Y-66550000I-300000J0D01*
G01*
X123400000Y-53550000D02*
X123400000Y-53950000D01*
X123950000Y-53550000D02*
X122850000Y-53550000D01*
X123000000Y-52950000D02*
X123400000Y-52950000D01*
X123400000Y-53550000D02*
X123000000Y-52950000D01*
X123800000Y-52950000D02*
X123400000Y-53550000D01*
X123400000Y-52950000D02*
X123800000Y-52950000D01*
X123400000Y-52450000D02*
X123400000Y-52950000D01*
X150200000Y-79750000D02*
X150450000Y-79500000D01*
X150200000Y-79750000D02*
X149800000Y-79350000D01*
X150200000Y-79750000D02*
X150600000Y-80150000D01*
X149450000Y-79900000D02*
X150200000Y-79750000D01*
X149750000Y-80200000D02*
X149450000Y-79900000D01*
X150050000Y-80500000D02*
X150200000Y-79750000D01*
X149750000Y-80200000D02*
X150050000Y-80500000D01*
X149350000Y-80600000D02*
X149750000Y-80200000D01*
X115100000Y-81900000D02*
X115500000Y-81900000D01*
X115100000Y-81900000D02*
X115100000Y-82450000D01*
X115100000Y-81350000D02*
X115100000Y-81900000D01*
X115100000Y-81900000D02*
X115100000Y-81350000D01*
X114500000Y-81500000D02*
X114500000Y-81900000D01*
X115100000Y-81900000D02*
X114500000Y-81500000D01*
X114500000Y-82300000D02*
X115100000Y-81900000D01*
X114500000Y-81900000D02*
X114500000Y-82300000D01*
X113950000Y-81900000D02*
X114500000Y-81900000D01*
X3300000Y-5700000D02*
X3700000Y-5700000D01*
X3300000Y-5150000D02*
X3300000Y-6250000D01*
X2700000Y-6100000D02*
X2700000Y-5650000D01*
X3300000Y-5700000D02*
X2700000Y-6100000D01*
X2700000Y-5300000D02*
X3300000Y-5700000D01*
X2700000Y-5700000D02*
X2700000Y-5300000D01*
X2850000Y-5700000D02*
X3350000Y-5700000D01*
X118015000Y-75472936D02*
X118015000Y-75927064D01*
X119485000Y-75472936D02*
X119485000Y-75927064D01*
X118015000Y-71438748D02*
X118015000Y-71961252D01*
X119485000Y-71438748D02*
X119485000Y-71961252D01*
X123565000Y-64361252D02*
X123565000Y-63838748D01*
X125035000Y-64361252D02*
X125035000Y-63838748D01*
X144154457Y-78665010D02*
X143784990Y-78295543D01*
X143115010Y-79704457D02*
X142745543Y-79334990D01*
X141311252Y-81565000D02*
X140788748Y-81565000D01*
X141311252Y-83035000D02*
X140788748Y-83035000D01*
X137738748Y-78385000D02*
X138261252Y-78385000D01*
X137738748Y-76915000D02*
X138261252Y-76915000D01*
X124845543Y-82734990D02*
X125215010Y-83104457D01*
X125884990Y-81695543D02*
X126254457Y-82065010D01*
X136645543Y-68315010D02*
X137015010Y-67945543D01*
X137684990Y-69354457D02*
X138054457Y-68984990D01*
X136284990Y-67954457D02*
X136654457Y-67584990D01*
X135245543Y-66915010D02*
X135615010Y-66545543D01*
X132184990Y-63854457D02*
X132554457Y-63484990D01*
X131145543Y-62815010D02*
X131515010Y-62445543D01*
X132569718Y-64140835D02*
X132890835Y-63819718D01*
X133609165Y-65180282D02*
X133930282Y-64859165D01*
X133919718Y-65490835D02*
X134240835Y-65169718D01*
X134959165Y-66530282D02*
X135280282Y-66209165D01*
D11*
X128510000Y-67041445D02*
X128916586Y-67448031D01*
X121191445Y-74360000D02*
X121668742Y-74837297D01*
X128510000Y-81678555D02*
X128032703Y-81201258D01*
X135828555Y-74360000D02*
X135351258Y-73882703D01*
X128510000Y-67041445D02*
X128032703Y-67518742D01*
X135828555Y-74360000D02*
X135351258Y-74837297D01*
X128510000Y-81678555D02*
X128987297Y-81201258D01*
X121191445Y-74360000D02*
X121668742Y-73882703D01*
X128916586Y-67448031D02*
X129818148Y-66546470D01*
D12*
X127085000Y-64361252D02*
X127085000Y-63838748D01*
X125615000Y-64361252D02*
X125615000Y-63838748D01*
X7715000Y-5288748D02*
X7715000Y-5811252D01*
X9185000Y-5288748D02*
X9185000Y-5811252D01*
X5850000Y-4700000D02*
X1950000Y-4700000D01*
X5850000Y-6700000D02*
X1950000Y-6700000D01*
X5850000Y-4700000D02*
X5850000Y-6700000D01*
X27962500Y-6700000D02*
X27962500Y-2800000D01*
X25962500Y-6700000D02*
X25962500Y-2800000D01*
X27962500Y-6700000D02*
X25962500Y-6700000D01*
X47012500Y-6700000D02*
X47012500Y-2800000D01*
X45012500Y-6700000D02*
X45012500Y-2800000D01*
X47012500Y-6700000D02*
X45012500Y-6700000D01*
X66062500Y-6700000D02*
X66062500Y-2800000D01*
X64062500Y-6700000D02*
X64062500Y-2800000D01*
X66062500Y-6700000D02*
X64062500Y-6700000D01*
X85112500Y-6700000D02*
X85112500Y-2800000D01*
X83112500Y-6700000D02*
X83112500Y-2800000D01*
X85112500Y-6700000D02*
X83112500Y-6700000D01*
X104162500Y-6700000D02*
X102162500Y-6700000D01*
X102162500Y-6700000D02*
X102162500Y-2800000D01*
X104162500Y-6700000D02*
X104162500Y-2800000D01*
X123212500Y-6700000D02*
X123212500Y-2800000D01*
X121212500Y-6700000D02*
X121212500Y-2800000D01*
X123212500Y-6700000D02*
X121212500Y-6700000D01*
X142262500Y-6700000D02*
X140262500Y-6700000D01*
X140262500Y-6700000D02*
X140262500Y-2800000D01*
X142262500Y-6700000D02*
X142262500Y-2800000D01*
X161312500Y-6700000D02*
X159312500Y-6700000D01*
X159312500Y-6700000D02*
X159312500Y-2800000D01*
X161312500Y-6700000D02*
X161312500Y-2800000D01*
X180362500Y-6700000D02*
X180362500Y-2800000D01*
X178362500Y-6700000D02*
X178362500Y-2800000D01*
X180362500Y-6700000D02*
X178362500Y-6700000D01*
X199412500Y-6700000D02*
X199412500Y-2800000D01*
X197412500Y-6700000D02*
X197412500Y-2800000D01*
X199412500Y-6700000D02*
X197412500Y-6700000D01*
X218462500Y-6700000D02*
X216462500Y-6700000D01*
X216462500Y-6700000D02*
X216462500Y-2800000D01*
X218462500Y-6700000D02*
X218462500Y-2800000D01*
X237512500Y-6700000D02*
X237512500Y-2800000D01*
X235512500Y-6700000D02*
X235512500Y-2800000D01*
X237512500Y-6700000D02*
X235512500Y-6700000D01*
X256562500Y-6700000D02*
X254562500Y-6700000D01*
X254562500Y-6700000D02*
X254562500Y-2800000D01*
X256562500Y-6700000D02*
X256562500Y-2800000D01*
X299425000Y-6700000D02*
X299425000Y-2800000D01*
X297425000Y-6700000D02*
X297425000Y-2800000D01*
X299425000Y-6700000D02*
X297425000Y-6700000D01*
X4150000Y-25750000D02*
X4150000Y-21850000D01*
X2150000Y-25750000D02*
X2150000Y-21850000D01*
X4150000Y-25750000D02*
X2150000Y-25750000D01*
X27962500Y-25750000D02*
X25962500Y-25750000D01*
X25962500Y-25750000D02*
X25962500Y-21850000D01*
X27962500Y-25750000D02*
X27962500Y-21850000D01*
X47012500Y-25750000D02*
X47012500Y-21850000D01*
X45012500Y-25750000D02*
X45012500Y-21850000D01*
X47012500Y-25750000D02*
X45012500Y-25750000D01*
X66062500Y-25750000D02*
X66062500Y-21850000D01*
X64062500Y-25750000D02*
X64062500Y-21850000D01*
X66062500Y-25750000D02*
X64062500Y-25750000D01*
X85112500Y-25750000D02*
X85112500Y-21850000D01*
X83112500Y-25750000D02*
X83112500Y-21850000D01*
X85112500Y-25750000D02*
X83112500Y-25750000D01*
X104162500Y-25750000D02*
X104162500Y-21850000D01*
X102162500Y-25750000D02*
X102162500Y-21850000D01*
X104162500Y-25750000D02*
X102162500Y-25750000D01*
X123212500Y-25750000D02*
X123212500Y-21850000D01*
X121212500Y-25750000D02*
X121212500Y-21850000D01*
X123212500Y-25750000D02*
X121212500Y-25750000D01*
X142262500Y-25750000D02*
X140262500Y-25750000D01*
X140262500Y-25750000D02*
X140262500Y-21850000D01*
X142262500Y-25750000D02*
X142262500Y-21850000D01*
X161312500Y-25750000D02*
X161312500Y-21850000D01*
X159312500Y-25750000D02*
X159312500Y-21850000D01*
X161312500Y-25750000D02*
X159312500Y-25750000D01*
X180362500Y-25750000D02*
X178362500Y-25750000D01*
X178362500Y-25750000D02*
X178362500Y-21850000D01*
X180362500Y-25750000D02*
X180362500Y-21850000D01*
X199412500Y-25750000D02*
X199412500Y-21850000D01*
X197412500Y-25750000D02*
X197412500Y-21850000D01*
X199412500Y-25750000D02*
X197412500Y-25750000D01*
X218462500Y-25750000D02*
X218462500Y-21850000D01*
X216462500Y-25750000D02*
X216462500Y-21850000D01*
X218462500Y-25750000D02*
X216462500Y-25750000D01*
X237512500Y-25750000D02*
X237512500Y-21850000D01*
X235512500Y-25750000D02*
X235512500Y-21850000D01*
X237512500Y-25750000D02*
X235512500Y-25750000D01*
X256562500Y-25750000D02*
X254562500Y-25750000D01*
X254562500Y-25750000D02*
X254562500Y-21850000D01*
X256562500Y-25750000D02*
X256562500Y-21850000D01*
X280375000Y-6700000D02*
X280375000Y-2800000D01*
X278375000Y-6700000D02*
X278375000Y-2800000D01*
X280375000Y-6700000D02*
X278375000Y-6700000D01*
X4150000Y-44800000D02*
X2150000Y-44800000D01*
X2150000Y-44800000D02*
X2150000Y-40900000D01*
X4150000Y-44800000D02*
X4150000Y-40900000D01*
X27962500Y-44800000D02*
X25962500Y-44800000D01*
X25962500Y-44800000D02*
X25962500Y-40900000D01*
X27962500Y-44800000D02*
X27962500Y-40900000D01*
X47012500Y-44800000D02*
X45012500Y-44800000D01*
X45012500Y-44800000D02*
X45012500Y-40900000D01*
X47012500Y-44800000D02*
X47012500Y-40900000D01*
X66062500Y-44800000D02*
X64062500Y-44800000D01*
X64062500Y-44800000D02*
X64062500Y-40900000D01*
X66062500Y-44800000D02*
X66062500Y-40900000D01*
X85112500Y-44800000D02*
X83112500Y-44800000D01*
X83112500Y-44800000D02*
X83112500Y-40900000D01*
X85112500Y-44800000D02*
X85112500Y-40900000D01*
X104162500Y-44800000D02*
X104162500Y-40900000D01*
X102162500Y-44800000D02*
X102162500Y-40900000D01*
X104162500Y-44800000D02*
X102162500Y-44800000D01*
X123212500Y-44800000D02*
X123212500Y-40900000D01*
X121212500Y-44800000D02*
X121212500Y-40900000D01*
X123212500Y-44800000D02*
X121212500Y-44800000D01*
X142262500Y-44800000D02*
X140262500Y-44800000D01*
X140262500Y-44800000D02*
X140262500Y-40900000D01*
X142262500Y-44800000D02*
X142262500Y-40900000D01*
X161312500Y-44800000D02*
X161312500Y-40900000D01*
X159312500Y-44800000D02*
X159312500Y-40900000D01*
X161312500Y-44800000D02*
X159312500Y-44800000D01*
X180362500Y-44800000D02*
X178362500Y-44800000D01*
X178362500Y-44800000D02*
X178362500Y-40900000D01*
X180362500Y-44800000D02*
X180362500Y-40900000D01*
X199412500Y-44800000D02*
X197412500Y-44800000D01*
X197412500Y-44800000D02*
X197412500Y-40900000D01*
X199412500Y-44800000D02*
X199412500Y-40900000D01*
X218462500Y-44800000D02*
X216462500Y-44800000D01*
X216462500Y-44800000D02*
X216462500Y-40900000D01*
X218462500Y-44800000D02*
X218462500Y-40900000D01*
X237512500Y-44800000D02*
X235512500Y-44800000D01*
X235512500Y-44800000D02*
X235512500Y-40900000D01*
X237512500Y-44800000D02*
X237512500Y-40900000D01*
X256562500Y-44800000D02*
X256562500Y-40900000D01*
X254562500Y-44800000D02*
X254562500Y-40900000D01*
X256562500Y-44800000D02*
X254562500Y-44800000D01*
X280375000Y-25750000D02*
X278375000Y-25750000D01*
X278375000Y-25750000D02*
X278375000Y-21850000D01*
X280375000Y-25750000D02*
X280375000Y-21850000D01*
X4150000Y-63850000D02*
X2150000Y-63850000D01*
X2150000Y-63850000D02*
X2150000Y-59950000D01*
X4150000Y-63850000D02*
X4150000Y-59950000D01*
X32725000Y-63850000D02*
X32725000Y-59950000D01*
X30725000Y-63850000D02*
X30725000Y-59950000D01*
X32725000Y-63850000D02*
X30725000Y-63850000D01*
X56537500Y-63850000D02*
X56537500Y-59950000D01*
X54537500Y-63850000D02*
X54537500Y-59950000D01*
X56537500Y-63850000D02*
X54537500Y-63850000D01*
X75587500Y-63850000D02*
X73587500Y-63850000D01*
X73587500Y-63850000D02*
X73587500Y-59950000D01*
X75587500Y-63850000D02*
X75587500Y-59950000D01*
X94637500Y-63850000D02*
X94637500Y-59950000D01*
X92637500Y-63850000D02*
X92637500Y-59950000D01*
X94637500Y-63850000D02*
X92637500Y-63850000D01*
X113687500Y-63850000D02*
X113687500Y-59950000D01*
X111687500Y-63850000D02*
X111687500Y-59950000D01*
X113687500Y-63850000D02*
X111687500Y-63850000D01*
X124400000Y-55450000D02*
X122400000Y-55450000D01*
X122400000Y-55450000D02*
X122400000Y-51550000D01*
X124400000Y-55450000D02*
X124400000Y-51550000D01*
X151787500Y-63850000D02*
X151787500Y-59950000D01*
X149787500Y-63850000D02*
X149787500Y-59950000D01*
X151787500Y-63850000D02*
X149787500Y-63850000D01*
X170837500Y-63850000D02*
X168837500Y-63850000D01*
X168837500Y-63850000D02*
X168837500Y-59950000D01*
X170837500Y-63850000D02*
X170837500Y-59950000D01*
X189887500Y-63850000D02*
X189887500Y-59950000D01*
X187887500Y-63850000D02*
X187887500Y-59950000D01*
X189887500Y-63850000D02*
X187887500Y-63850000D01*
X208937500Y-63850000D02*
X206937500Y-63850000D01*
X206937500Y-63850000D02*
X206937500Y-59950000D01*
X208937500Y-63850000D02*
X208937500Y-59950000D01*
X227987500Y-63850000D02*
X227987500Y-59950000D01*
X225987500Y-63850000D02*
X225987500Y-59950000D01*
X227987500Y-63850000D02*
X225987500Y-63850000D01*
X254181250Y-63850000D02*
X254181250Y-59950000D01*
X252181250Y-63850000D02*
X252181250Y-59950000D01*
X254181250Y-63850000D02*
X252181250Y-63850000D01*
X27962500Y-82900000D02*
X27962500Y-79000000D01*
X25962500Y-82900000D02*
X25962500Y-79000000D01*
X27962500Y-82900000D02*
X25962500Y-82900000D01*
X47012500Y-82900000D02*
X45012500Y-82900000D01*
X45012500Y-82900000D02*
X45012500Y-79000000D01*
X47012500Y-82900000D02*
X47012500Y-79000000D01*
X66062500Y-82900000D02*
X66062500Y-79000000D01*
X64062500Y-82900000D02*
X64062500Y-79000000D01*
X66062500Y-82900000D02*
X64062500Y-82900000D01*
X116975000Y-80900000D02*
X116975000Y-82900000D01*
X116975000Y-82900000D02*
X113075000Y-82900000D01*
X116975000Y-80900000D02*
X113075000Y-80900000D01*
X150783883Y-77751903D02*
X148026167Y-80509619D01*
X152198097Y-79166117D02*
X149440381Y-81923833D01*
X150783883Y-77751903D02*
X152198097Y-79166117D01*
X180362500Y-82900000D02*
X178362500Y-82900000D01*
X178362500Y-82900000D02*
X178362500Y-79000000D01*
X180362500Y-82900000D02*
X180362500Y-79000000D01*
X199412500Y-82900000D02*
X197412500Y-82900000D01*
X197412500Y-82900000D02*
X197412500Y-79000000D01*
X199412500Y-82900000D02*
X199412500Y-79000000D01*
X218462500Y-82900000D02*
X218462500Y-79000000D01*
X216462500Y-82900000D02*
X216462500Y-79000000D01*
X218462500Y-82900000D02*
X216462500Y-82900000D01*
X239893750Y-82900000D02*
X237893750Y-82900000D01*
X237893750Y-82900000D02*
X237893750Y-79000000D01*
X239893750Y-82900000D02*
X239893750Y-79000000D01*
X261325000Y-82900000D02*
X261325000Y-79000000D01*
X259325000Y-82900000D02*
X259325000Y-79000000D01*
X261325000Y-82900000D02*
X259325000Y-82900000D01*
X299425000Y-82900000D02*
X297425000Y-82900000D01*
X297425000Y-82900000D02*
X297425000Y-79000000D01*
X299425000Y-82900000D02*
X299425000Y-79000000D01*
X4122936Y1715000D02*
X4577064Y1715000D01*
X4122936Y3185000D02*
X4577064Y3185000D01*
X4577064Y-3135000D02*
X4122936Y-3135000D01*
X4577064Y-1665000D02*
X4122936Y-1665000D01*
X140877064Y-74435000D02*
X140422936Y-74435000D01*
X140877064Y-72965000D02*
X140422936Y-72965000D01*
X23772936Y-32185000D02*
X24227064Y-32185000D01*
X23772936Y-30715000D02*
X24227064Y-30715000D01*
X13610000Y-1200000D02*
X13610000Y-3000000D01*
X10390000Y-3000000D02*
X10390000Y-550000D01*
X7715000Y-1977064D02*
X7715000Y-1522936D01*
X9185000Y-1977064D02*
X9185000Y-1522936D01*
X16335000Y-1977064D02*
X16335000Y-1522936D01*
X14865000Y-1977064D02*
X14865000Y-1522936D01*
X6531250Y-82900000D02*
X6531250Y-79000000D01*
X4531250Y-82900000D02*
X4531250Y-79000000D01*
X6531250Y-82900000D02*
X4531250Y-82900000D01*
X137450000Y-78750000D02*
X137450000Y-82750000D01*
X134150000Y-78750000D02*
X137450000Y-78750000D01*
D13*
X7430000Y4340000D02*
X7430000Y5780000D01*
X16370000Y4340000D02*
X16370000Y5780000D01*
X16370000Y8520000D02*
X16370000Y9750000D01*
X16370000Y9750000D02*
X7430000Y9750000D01*
X7430000Y9750000D02*
X7430000Y8520000D01*
D14*
X8600000Y750000D02*
G75*
G03*
X8600000Y750000I-100000J0D01*
G01*
D12*
X85112500Y-82900000D02*
X85112500Y-79000000D01*
X83112500Y-82900000D02*
X83112500Y-79000000D01*
X85112500Y-82900000D02*
X83112500Y-82900000D01*
X280375000Y-63850000D02*
X280375000Y-59950000D01*
X278375000Y-63850000D02*
X278375000Y-59950000D01*
X280375000Y-63850000D02*
X278375000Y-63850000D01*
X280375000Y-82900000D02*
X278375000Y-82900000D01*
X278375000Y-82900000D02*
X278375000Y-79000000D01*
X280375000Y-82900000D02*
X280375000Y-79000000D01*
X299425000Y-25750000D02*
X297425000Y-25750000D01*
X297425000Y-25750000D02*
X297425000Y-21850000D01*
X299425000Y-25750000D02*
X299425000Y-21850000D01*
D11*
X119252380Y-78283333D02*
X118776190Y-77950000D01*
X119252380Y-77711904D02*
X118252380Y-77711904D01*
X118252380Y-78092857D01*
X118300000Y-78188095D01*
X118347619Y-78235714D01*
X118442857Y-78283333D01*
X118585714Y-78283333D01*
X118680952Y-78235714D01*
X118728571Y-78188095D01*
X118776190Y-78092857D01*
X118776190Y-77711904D01*
X118252380Y-79188095D02*
X118252380Y-78711904D01*
X118728571Y-78664285D01*
X118680952Y-78711904D01*
X118633333Y-78807142D01*
X118633333Y-79045238D01*
X118680952Y-79140476D01*
X118728571Y-79188095D01*
X118823809Y-79235714D01*
X119061904Y-79235714D01*
X119157142Y-79188095D01*
X119204761Y-79140476D01*
X119252380Y-79045238D01*
X119252380Y-78807142D01*
X119204761Y-78711904D01*
X119157142Y-78664285D01*
X147383333Y-71654761D02*
X147240476Y-71702380D01*
X147002380Y-71702380D01*
X146907142Y-71654761D01*
X146859523Y-71607142D01*
X146811904Y-71511904D01*
X146811904Y-71416666D01*
X146859523Y-71321428D01*
X146907142Y-71273809D01*
X147002380Y-71226190D01*
X147192857Y-71178571D01*
X147288095Y-71130952D01*
X147335714Y-71083333D01*
X147383333Y-70988095D01*
X147383333Y-70892857D01*
X147335714Y-70797619D01*
X147288095Y-70750000D01*
X147192857Y-70702380D01*
X146954761Y-70702380D01*
X146811904Y-70750000D01*
X146478571Y-70702380D02*
X146240476Y-71702380D01*
X146050000Y-70988095D01*
X145859523Y-71702380D01*
X145621428Y-70702380D01*
X144716666Y-71702380D02*
X145288095Y-71702380D01*
X145002380Y-71702380D02*
X145002380Y-70702380D01*
X145097619Y-70845238D01*
X145192857Y-70940476D01*
X145288095Y-70988095D01*
X119007142Y-68683333D02*
X119054761Y-68635714D01*
X119102380Y-68492857D01*
X119102380Y-68397619D01*
X119054761Y-68254761D01*
X118959523Y-68159523D01*
X118864285Y-68111904D01*
X118673809Y-68064285D01*
X118530952Y-68064285D01*
X118340476Y-68111904D01*
X118245238Y-68159523D01*
X118150000Y-68254761D01*
X118102380Y-68397619D01*
X118102380Y-68492857D01*
X118150000Y-68635714D01*
X118197619Y-68683333D01*
X118102380Y-69588095D02*
X118102380Y-69111904D01*
X118578571Y-69064285D01*
X118530952Y-69111904D01*
X118483333Y-69207142D01*
X118483333Y-69445238D01*
X118530952Y-69540476D01*
X118578571Y-69588095D01*
X118673809Y-69635714D01*
X118911904Y-69635714D01*
X119007142Y-69588095D01*
X119054761Y-69540476D01*
X119102380Y-69445238D01*
X119102380Y-69207142D01*
X119054761Y-69111904D01*
X119007142Y-69064285D01*
X123057142Y-63783333D02*
X123104761Y-63735714D01*
X123152380Y-63592857D01*
X123152380Y-63497619D01*
X123104761Y-63354761D01*
X123009523Y-63259523D01*
X122914285Y-63211904D01*
X122723809Y-63164285D01*
X122580952Y-63164285D01*
X122390476Y-63211904D01*
X122295238Y-63259523D01*
X122200000Y-63354761D01*
X122152380Y-63497619D01*
X122152380Y-63592857D01*
X122200000Y-63735714D01*
X122247619Y-63783333D01*
X122152380Y-64116666D02*
X122152380Y-64783333D01*
X123152380Y-64354761D01*
X146370389Y-79934687D02*
X146437732Y-79934687D01*
X146572419Y-79867343D01*
X146639763Y-79800000D01*
X146707106Y-79665312D01*
X146707106Y-79530625D01*
X146673435Y-79429610D01*
X146572419Y-79261251D01*
X146471404Y-79160236D01*
X146303045Y-79059221D01*
X146202030Y-79025549D01*
X146067343Y-79025549D01*
X145932656Y-79092893D01*
X145865312Y-79160236D01*
X145797969Y-79294923D01*
X145797969Y-79362267D01*
X145764297Y-80675465D02*
X146168358Y-80271404D01*
X145966328Y-80473435D02*
X145259221Y-79766328D01*
X145427580Y-79800000D01*
X145562267Y-79800000D01*
X145663282Y-79766328D01*
X141254166Y-84307142D02*
X141301785Y-84354761D01*
X141444642Y-84402380D01*
X141539880Y-84402380D01*
X141682738Y-84354761D01*
X141777976Y-84259523D01*
X141825595Y-84164285D01*
X141873214Y-83973809D01*
X141873214Y-83830952D01*
X141825595Y-83640476D01*
X141777976Y-83545238D01*
X141682738Y-83450000D01*
X141539880Y-83402380D01*
X141444642Y-83402380D01*
X141301785Y-83450000D01*
X141254166Y-83497619D01*
X140873214Y-83497619D02*
X140825595Y-83450000D01*
X140730357Y-83402380D01*
X140492261Y-83402380D01*
X140397023Y-83450000D01*
X140349404Y-83497619D01*
X140301785Y-83592857D01*
X140301785Y-83688095D01*
X140349404Y-83830952D01*
X140920833Y-84402380D01*
X140301785Y-84402380D01*
X138216666Y-76457142D02*
X138264285Y-76504761D01*
X138407142Y-76552380D01*
X138502380Y-76552380D01*
X138645238Y-76504761D01*
X138740476Y-76409523D01*
X138788095Y-76314285D01*
X138835714Y-76123809D01*
X138835714Y-75980952D01*
X138788095Y-75790476D01*
X138740476Y-75695238D01*
X138645238Y-75600000D01*
X138502380Y-75552380D01*
X138407142Y-75552380D01*
X138264285Y-75600000D01*
X138216666Y-75647619D01*
X137883333Y-75552380D02*
X137264285Y-75552380D01*
X137597619Y-75933333D01*
X137454761Y-75933333D01*
X137359523Y-75980952D01*
X137311904Y-76028571D01*
X137264285Y-76123809D01*
X137264285Y-76361904D01*
X137311904Y-76457142D01*
X137359523Y-76504761D01*
X137454761Y-76552380D01*
X137740476Y-76552380D01*
X137835714Y-76504761D01*
X137883333Y-76457142D01*
X124213230Y-83901760D02*
X124213230Y-83969103D01*
X124280574Y-84103790D01*
X124347918Y-84171134D01*
X124482605Y-84238477D01*
X124617292Y-84238477D01*
X124718307Y-84204806D01*
X124886666Y-84103790D01*
X124987681Y-84002775D01*
X125088696Y-83834416D01*
X125122368Y-83733401D01*
X125122368Y-83598714D01*
X125055024Y-83464027D01*
X124987681Y-83396683D01*
X124852994Y-83329340D01*
X124785650Y-83329340D01*
X124011200Y-82891607D02*
X123539795Y-83363012D01*
X124448933Y-82790592D02*
X124112215Y-83464027D01*
X123674482Y-83026294D01*
X140170389Y-67184687D02*
X140237732Y-67184687D01*
X140372419Y-67117343D01*
X140439763Y-67050000D01*
X140507106Y-66915312D01*
X140507106Y-66780625D01*
X140473435Y-66679610D01*
X140372419Y-66511251D01*
X140271404Y-66410236D01*
X140103045Y-66309221D01*
X140002030Y-66275549D01*
X139867343Y-66275549D01*
X139732656Y-66342893D01*
X139665312Y-66410236D01*
X139597969Y-66544923D01*
X139597969Y-66612267D01*
X138924534Y-67151015D02*
X139059221Y-67016328D01*
X139160236Y-66982656D01*
X139227580Y-66982656D01*
X139395938Y-67016328D01*
X139564297Y-67117343D01*
X139833671Y-67386717D01*
X139867343Y-67487732D01*
X139867343Y-67555076D01*
X139833671Y-67656091D01*
X139698984Y-67790778D01*
X139597969Y-67824450D01*
X139530625Y-67824450D01*
X139429610Y-67790778D01*
X139261251Y-67622419D01*
X139227580Y-67521404D01*
X139227580Y-67454061D01*
X139261251Y-67353045D01*
X139395938Y-67218358D01*
X139496954Y-67184687D01*
X139564297Y-67184687D01*
X139665312Y-67218358D01*
X138570389Y-65734687D02*
X138637732Y-65734687D01*
X138772419Y-65667343D01*
X138839763Y-65600000D01*
X138907106Y-65465312D01*
X138907106Y-65330625D01*
X138873435Y-65229610D01*
X138772419Y-65061251D01*
X138671404Y-64960236D01*
X138503045Y-64859221D01*
X138402030Y-64825549D01*
X138267343Y-64825549D01*
X138132656Y-64892893D01*
X138065312Y-64960236D01*
X137997969Y-65094923D01*
X137997969Y-65162267D01*
X137829610Y-65802030D02*
X137863282Y-65701015D01*
X137863282Y-65633671D01*
X137829610Y-65532656D01*
X137795938Y-65498984D01*
X137694923Y-65465312D01*
X137627580Y-65465312D01*
X137526564Y-65498984D01*
X137391877Y-65633671D01*
X137358206Y-65734687D01*
X137358206Y-65802030D01*
X137391877Y-65903045D01*
X137425549Y-65936717D01*
X137526564Y-65970389D01*
X137593908Y-65970389D01*
X137694923Y-65936717D01*
X137829610Y-65802030D01*
X137930625Y-65768358D01*
X137997969Y-65768358D01*
X138098984Y-65802030D01*
X138233671Y-65936717D01*
X138267343Y-66037732D01*
X138267343Y-66105076D01*
X138233671Y-66206091D01*
X138098984Y-66340778D01*
X137997969Y-66374450D01*
X137930625Y-66374450D01*
X137829610Y-66340778D01*
X137694923Y-66206091D01*
X137661251Y-66105076D01*
X137661251Y-66037732D01*
X137694923Y-65936717D01*
X133920389Y-60984687D02*
X133987732Y-60984687D01*
X134122419Y-60917343D01*
X134189763Y-60850000D01*
X134257106Y-60715312D01*
X134257106Y-60580625D01*
X134223435Y-60479610D01*
X134122419Y-60311251D01*
X134021404Y-60210236D01*
X133853045Y-60109221D01*
X133752030Y-60075549D01*
X133617343Y-60075549D01*
X133482656Y-60142893D01*
X133415312Y-60210236D01*
X133347969Y-60344923D01*
X133347969Y-60412267D01*
X133651015Y-61388748D02*
X133516328Y-61523435D01*
X133415312Y-61557106D01*
X133347969Y-61557106D01*
X133179610Y-61523435D01*
X133011251Y-61422419D01*
X132741877Y-61153045D01*
X132708206Y-61052030D01*
X132708206Y-60984687D01*
X132741877Y-60883671D01*
X132876564Y-60748984D01*
X132977580Y-60715312D01*
X133044923Y-60715312D01*
X133145938Y-60748984D01*
X133314297Y-60917343D01*
X133347969Y-61018358D01*
X133347969Y-61085702D01*
X133314297Y-61186717D01*
X133179610Y-61321404D01*
X133078595Y-61355076D01*
X133011251Y-61355076D01*
X132910236Y-61321404D01*
X135437732Y-62502030D02*
X135336717Y-61929610D01*
X135841793Y-62097969D02*
X135134687Y-61390862D01*
X134865312Y-61660236D01*
X134831641Y-61761251D01*
X134831641Y-61828595D01*
X134865312Y-61929610D01*
X134966328Y-62030625D01*
X135067343Y-62064297D01*
X135134687Y-62064297D01*
X135235702Y-62030625D01*
X135505076Y-61761251D01*
X134764297Y-63175465D02*
X135168358Y-62771404D01*
X134966328Y-62973435D02*
X134259221Y-62266328D01*
X134427580Y-62300000D01*
X134562267Y-62300000D01*
X134663282Y-62266328D01*
X136637732Y-63702030D02*
X136536717Y-63129610D01*
X137041793Y-63297969D02*
X136334687Y-62590862D01*
X136065312Y-62860236D01*
X136031641Y-62961251D01*
X136031641Y-63028595D01*
X136065312Y-63129610D01*
X136166328Y-63230625D01*
X136267343Y-63264297D01*
X136334687Y-63264297D01*
X136435702Y-63230625D01*
X136705076Y-62961251D01*
X135728595Y-63331641D02*
X135661251Y-63331641D01*
X135560236Y-63365312D01*
X135391877Y-63533671D01*
X135358206Y-63634687D01*
X135358206Y-63702030D01*
X135391877Y-63803045D01*
X135459221Y-63870389D01*
X135593908Y-63937732D01*
X136402030Y-63937732D01*
X135964297Y-64375465D01*
X123393576Y-68166080D02*
X123965996Y-68738500D01*
X123999668Y-68839515D01*
X123999668Y-68906859D01*
X123965996Y-69007874D01*
X123831309Y-69142561D01*
X123730294Y-69176233D01*
X123662950Y-69176233D01*
X123561935Y-69142561D01*
X122989515Y-68570141D01*
X122989515Y-69984355D02*
X123393576Y-69580294D01*
X123191546Y-69782324D02*
X122484439Y-69075218D01*
X122652798Y-69108889D01*
X122787485Y-69108889D01*
X122888500Y-69075218D01*
X129192857Y-65357142D02*
X129240476Y-65404761D01*
X129383333Y-65452380D01*
X129478571Y-65452380D01*
X129621428Y-65404761D01*
X129716666Y-65309523D01*
X129764285Y-65214285D01*
X129811904Y-65023809D01*
X129811904Y-64880952D01*
X129764285Y-64690476D01*
X129716666Y-64595238D01*
X129621428Y-64500000D01*
X129478571Y-64452380D01*
X129383333Y-64452380D01*
X129240476Y-64500000D01*
X129192857Y-64547619D01*
X128240476Y-65452380D02*
X128811904Y-65452380D01*
X128526190Y-65452380D02*
X128526190Y-64452380D01*
X128621428Y-64595238D01*
X128716666Y-64690476D01*
X128811904Y-64738095D01*
X127288095Y-65452380D02*
X127859523Y-65452380D01*
X127573809Y-65452380D02*
X127573809Y-64452380D01*
X127669047Y-64595238D01*
X127764285Y-64690476D01*
X127859523Y-64738095D01*
X10507142Y-5257142D02*
X10554761Y-5209523D01*
X10602380Y-5066666D01*
X10602380Y-4971428D01*
X10554761Y-4828571D01*
X10459523Y-4733333D01*
X10364285Y-4685714D01*
X10173809Y-4638095D01*
X10030952Y-4638095D01*
X9840476Y-4685714D01*
X9745238Y-4733333D01*
X9650000Y-4828571D01*
X9602380Y-4971428D01*
X9602380Y-5066666D01*
X9650000Y-5209523D01*
X9697619Y-5257142D01*
X10602380Y-6209523D02*
X10602380Y-5638095D01*
X10602380Y-5923809D02*
X9602380Y-5923809D01*
X9745238Y-5828571D01*
X9840476Y-5733333D01*
X9888095Y-5638095D01*
X9602380Y-6828571D02*
X9602380Y-6923809D01*
X9650000Y-7019047D01*
X9697619Y-7066666D01*
X9792857Y-7114285D01*
X9983333Y-7161904D01*
X10221428Y-7161904D01*
X10411904Y-7114285D01*
X10507142Y-7066666D01*
X10554761Y-7019047D01*
X10602380Y-6923809D01*
X10602380Y-6828571D01*
X10554761Y-6733333D01*
X10507142Y-6685714D01*
X10411904Y-6638095D01*
X10221428Y-6590476D01*
X9983333Y-6590476D01*
X9792857Y-6638095D01*
X9697619Y-6685714D01*
X9650000Y-6733333D01*
X9602380Y-6828571D01*
X4169047Y-7952380D02*
X4169047Y-6952380D01*
X3930952Y-6952380D01*
X3788095Y-7000000D01*
X3692857Y-7095238D01*
X3645238Y-7190476D01*
X3597619Y-7380952D01*
X3597619Y-7523809D01*
X3645238Y-7714285D01*
X3692857Y-7809523D01*
X3788095Y-7904761D01*
X3930952Y-7952380D01*
X4169047Y-7952380D01*
X3407142Y-8047619D02*
X2645238Y-8047619D01*
X1883333Y-7952380D02*
X2454761Y-7952380D01*
X2169047Y-7952380D02*
X2169047Y-6952380D01*
X2264285Y-7095238D01*
X2359523Y-7190476D01*
X2454761Y-7238095D01*
X29414880Y-3330952D02*
X28414880Y-3330952D01*
X28414880Y-3569047D01*
X28462500Y-3711904D01*
X28557738Y-3807142D01*
X28652976Y-3854761D01*
X28843452Y-3902380D01*
X28986309Y-3902380D01*
X29176785Y-3854761D01*
X29272023Y-3807142D01*
X29367261Y-3711904D01*
X29414880Y-3569047D01*
X29414880Y-3330952D01*
X29510119Y-4092857D02*
X29510119Y-4854761D01*
X28510119Y-5045238D02*
X28462500Y-5092857D01*
X28414880Y-5188095D01*
X28414880Y-5426190D01*
X28462500Y-5521428D01*
X28510119Y-5569047D01*
X28605357Y-5616666D01*
X28700595Y-5616666D01*
X28843452Y-5569047D01*
X29414880Y-4997619D01*
X29414880Y-5616666D01*
X48464880Y-3330952D02*
X47464880Y-3330952D01*
X47464880Y-3569047D01*
X47512500Y-3711904D01*
X47607738Y-3807142D01*
X47702976Y-3854761D01*
X47893452Y-3902380D01*
X48036309Y-3902380D01*
X48226785Y-3854761D01*
X48322023Y-3807142D01*
X48417261Y-3711904D01*
X48464880Y-3569047D01*
X48464880Y-3330952D01*
X48560119Y-4092857D02*
X48560119Y-4854761D01*
X47464880Y-4997619D02*
X47464880Y-5616666D01*
X47845833Y-5283333D01*
X47845833Y-5426190D01*
X47893452Y-5521428D01*
X47941071Y-5569047D01*
X48036309Y-5616666D01*
X48274404Y-5616666D01*
X48369642Y-5569047D01*
X48417261Y-5521428D01*
X48464880Y-5426190D01*
X48464880Y-5140476D01*
X48417261Y-5045238D01*
X48369642Y-4997619D01*
X67514880Y-3330952D02*
X66514880Y-3330952D01*
X66514880Y-3569047D01*
X66562500Y-3711904D01*
X66657738Y-3807142D01*
X66752976Y-3854761D01*
X66943452Y-3902380D01*
X67086309Y-3902380D01*
X67276785Y-3854761D01*
X67372023Y-3807142D01*
X67467261Y-3711904D01*
X67514880Y-3569047D01*
X67514880Y-3330952D01*
X67610119Y-4092857D02*
X67610119Y-4854761D01*
X66848214Y-5521428D02*
X67514880Y-5521428D01*
X66467261Y-5283333D02*
X67181547Y-5045238D01*
X67181547Y-5664285D01*
X86564880Y-3330952D02*
X85564880Y-3330952D01*
X85564880Y-3569047D01*
X85612500Y-3711904D01*
X85707738Y-3807142D01*
X85802976Y-3854761D01*
X85993452Y-3902380D01*
X86136309Y-3902380D01*
X86326785Y-3854761D01*
X86422023Y-3807142D01*
X86517261Y-3711904D01*
X86564880Y-3569047D01*
X86564880Y-3330952D01*
X86660119Y-4092857D02*
X86660119Y-4854761D01*
X85564880Y-5569047D02*
X85564880Y-5092857D01*
X86041071Y-5045238D01*
X85993452Y-5092857D01*
X85945833Y-5188095D01*
X85945833Y-5426190D01*
X85993452Y-5521428D01*
X86041071Y-5569047D01*
X86136309Y-5616666D01*
X86374404Y-5616666D01*
X86469642Y-5569047D01*
X86517261Y-5521428D01*
X86564880Y-5426190D01*
X86564880Y-5188095D01*
X86517261Y-5092857D01*
X86469642Y-5045238D01*
X105614880Y-3330952D02*
X104614880Y-3330952D01*
X104614880Y-3569047D01*
X104662500Y-3711904D01*
X104757738Y-3807142D01*
X104852976Y-3854761D01*
X105043452Y-3902380D01*
X105186309Y-3902380D01*
X105376785Y-3854761D01*
X105472023Y-3807142D01*
X105567261Y-3711904D01*
X105614880Y-3569047D01*
X105614880Y-3330952D01*
X105710119Y-4092857D02*
X105710119Y-4854761D01*
X104614880Y-5521428D02*
X104614880Y-5330952D01*
X104662500Y-5235714D01*
X104710119Y-5188095D01*
X104852976Y-5092857D01*
X105043452Y-5045238D01*
X105424404Y-5045238D01*
X105519642Y-5092857D01*
X105567261Y-5140476D01*
X105614880Y-5235714D01*
X105614880Y-5426190D01*
X105567261Y-5521428D01*
X105519642Y-5569047D01*
X105424404Y-5616666D01*
X105186309Y-5616666D01*
X105091071Y-5569047D01*
X105043452Y-5521428D01*
X104995833Y-5426190D01*
X104995833Y-5235714D01*
X105043452Y-5140476D01*
X105091071Y-5092857D01*
X105186309Y-5045238D01*
X124664880Y-3330952D02*
X123664880Y-3330952D01*
X123664880Y-3569047D01*
X123712500Y-3711904D01*
X123807738Y-3807142D01*
X123902976Y-3854761D01*
X124093452Y-3902380D01*
X124236309Y-3902380D01*
X124426785Y-3854761D01*
X124522023Y-3807142D01*
X124617261Y-3711904D01*
X124664880Y-3569047D01*
X124664880Y-3330952D01*
X124760119Y-4092857D02*
X124760119Y-4854761D01*
X123664880Y-4997619D02*
X123664880Y-5664285D01*
X124664880Y-5235714D01*
X143714880Y-3330952D02*
X142714880Y-3330952D01*
X142714880Y-3569047D01*
X142762500Y-3711904D01*
X142857738Y-3807142D01*
X142952976Y-3854761D01*
X143143452Y-3902380D01*
X143286309Y-3902380D01*
X143476785Y-3854761D01*
X143572023Y-3807142D01*
X143667261Y-3711904D01*
X143714880Y-3569047D01*
X143714880Y-3330952D01*
X143810119Y-4092857D02*
X143810119Y-4854761D01*
X143143452Y-5235714D02*
X143095833Y-5140476D01*
X143048214Y-5092857D01*
X142952976Y-5045238D01*
X142905357Y-5045238D01*
X142810119Y-5092857D01*
X142762500Y-5140476D01*
X142714880Y-5235714D01*
X142714880Y-5426190D01*
X142762500Y-5521428D01*
X142810119Y-5569047D01*
X142905357Y-5616666D01*
X142952976Y-5616666D01*
X143048214Y-5569047D01*
X143095833Y-5521428D01*
X143143452Y-5426190D01*
X143143452Y-5235714D01*
X143191071Y-5140476D01*
X143238690Y-5092857D01*
X143333928Y-5045238D01*
X143524404Y-5045238D01*
X143619642Y-5092857D01*
X143667261Y-5140476D01*
X143714880Y-5235714D01*
X143714880Y-5426190D01*
X143667261Y-5521428D01*
X143619642Y-5569047D01*
X143524404Y-5616666D01*
X143333928Y-5616666D01*
X143238690Y-5569047D01*
X143191071Y-5521428D01*
X143143452Y-5426190D01*
X162764880Y-3330952D02*
X161764880Y-3330952D01*
X161764880Y-3569047D01*
X161812500Y-3711904D01*
X161907738Y-3807142D01*
X162002976Y-3854761D01*
X162193452Y-3902380D01*
X162336309Y-3902380D01*
X162526785Y-3854761D01*
X162622023Y-3807142D01*
X162717261Y-3711904D01*
X162764880Y-3569047D01*
X162764880Y-3330952D01*
X162860119Y-4092857D02*
X162860119Y-4854761D01*
X162764880Y-5140476D02*
X162764880Y-5330952D01*
X162717261Y-5426190D01*
X162669642Y-5473809D01*
X162526785Y-5569047D01*
X162336309Y-5616666D01*
X161955357Y-5616666D01*
X161860119Y-5569047D01*
X161812500Y-5521428D01*
X161764880Y-5426190D01*
X161764880Y-5235714D01*
X161812500Y-5140476D01*
X161860119Y-5092857D01*
X161955357Y-5045238D01*
X162193452Y-5045238D01*
X162288690Y-5092857D01*
X162336309Y-5140476D01*
X162383928Y-5235714D01*
X162383928Y-5426190D01*
X162336309Y-5521428D01*
X162288690Y-5569047D01*
X162193452Y-5616666D01*
X181814880Y-2854761D02*
X180814880Y-2854761D01*
X180814880Y-3092857D01*
X180862500Y-3235714D01*
X180957738Y-3330952D01*
X181052976Y-3378571D01*
X181243452Y-3426190D01*
X181386309Y-3426190D01*
X181576785Y-3378571D01*
X181672023Y-3330952D01*
X181767261Y-3235714D01*
X181814880Y-3092857D01*
X181814880Y-2854761D01*
X181910119Y-3616666D02*
X181910119Y-4378571D01*
X181814880Y-5140476D02*
X181814880Y-4569047D01*
X181814880Y-4854761D02*
X180814880Y-4854761D01*
X180957738Y-4759523D01*
X181052976Y-4664285D01*
X181100595Y-4569047D01*
X180814880Y-5759523D02*
X180814880Y-5854761D01*
X180862500Y-5950000D01*
X180910119Y-5997619D01*
X181005357Y-6045238D01*
X181195833Y-6092857D01*
X181433928Y-6092857D01*
X181624404Y-6045238D01*
X181719642Y-5997619D01*
X181767261Y-5950000D01*
X181814880Y-5854761D01*
X181814880Y-5759523D01*
X181767261Y-5664285D01*
X181719642Y-5616666D01*
X181624404Y-5569047D01*
X181433928Y-5521428D01*
X181195833Y-5521428D01*
X181005357Y-5569047D01*
X180910119Y-5616666D01*
X180862500Y-5664285D01*
X180814880Y-5759523D01*
X200864880Y-2854761D02*
X199864880Y-2854761D01*
X199864880Y-3092857D01*
X199912500Y-3235714D01*
X200007738Y-3330952D01*
X200102976Y-3378571D01*
X200293452Y-3426190D01*
X200436309Y-3426190D01*
X200626785Y-3378571D01*
X200722023Y-3330952D01*
X200817261Y-3235714D01*
X200864880Y-3092857D01*
X200864880Y-2854761D01*
X200960119Y-3616666D02*
X200960119Y-4378571D01*
X200864880Y-5140476D02*
X200864880Y-4569047D01*
X200864880Y-4854761D02*
X199864880Y-4854761D01*
X200007738Y-4759523D01*
X200102976Y-4664285D01*
X200150595Y-4569047D01*
X200864880Y-6092857D02*
X200864880Y-5521428D01*
X200864880Y-5807142D02*
X199864880Y-5807142D01*
X200007738Y-5711904D01*
X200102976Y-5616666D01*
X200150595Y-5521428D01*
X219914880Y-2854761D02*
X218914880Y-2854761D01*
X218914880Y-3092857D01*
X218962500Y-3235714D01*
X219057738Y-3330952D01*
X219152976Y-3378571D01*
X219343452Y-3426190D01*
X219486309Y-3426190D01*
X219676785Y-3378571D01*
X219772023Y-3330952D01*
X219867261Y-3235714D01*
X219914880Y-3092857D01*
X219914880Y-2854761D01*
X220010119Y-3616666D02*
X220010119Y-4378571D01*
X219914880Y-5140476D02*
X219914880Y-4569047D01*
X219914880Y-4854761D02*
X218914880Y-4854761D01*
X219057738Y-4759523D01*
X219152976Y-4664285D01*
X219200595Y-4569047D01*
X219010119Y-5521428D02*
X218962500Y-5569047D01*
X218914880Y-5664285D01*
X218914880Y-5902380D01*
X218962500Y-5997619D01*
X219010119Y-6045238D01*
X219105357Y-6092857D01*
X219200595Y-6092857D01*
X219343452Y-6045238D01*
X219914880Y-5473809D01*
X219914880Y-6092857D01*
X238964880Y-2854761D02*
X237964880Y-2854761D01*
X237964880Y-3092857D01*
X238012500Y-3235714D01*
X238107738Y-3330952D01*
X238202976Y-3378571D01*
X238393452Y-3426190D01*
X238536309Y-3426190D01*
X238726785Y-3378571D01*
X238822023Y-3330952D01*
X238917261Y-3235714D01*
X238964880Y-3092857D01*
X238964880Y-2854761D01*
X239060119Y-3616666D02*
X239060119Y-4378571D01*
X238964880Y-5140476D02*
X238964880Y-4569047D01*
X238964880Y-4854761D02*
X237964880Y-4854761D01*
X238107738Y-4759523D01*
X238202976Y-4664285D01*
X238250595Y-4569047D01*
X237964880Y-5473809D02*
X237964880Y-6092857D01*
X238345833Y-5759523D01*
X238345833Y-5902380D01*
X238393452Y-5997619D01*
X238441071Y-6045238D01*
X238536309Y-6092857D01*
X238774404Y-6092857D01*
X238869642Y-6045238D01*
X238917261Y-5997619D01*
X238964880Y-5902380D01*
X238964880Y-5616666D01*
X238917261Y-5521428D01*
X238869642Y-5473809D01*
X258014880Y-2854761D02*
X257014880Y-2854761D01*
X257014880Y-3092857D01*
X257062500Y-3235714D01*
X257157738Y-3330952D01*
X257252976Y-3378571D01*
X257443452Y-3426190D01*
X257586309Y-3426190D01*
X257776785Y-3378571D01*
X257872023Y-3330952D01*
X257967261Y-3235714D01*
X258014880Y-3092857D01*
X258014880Y-2854761D01*
X258110119Y-3616666D02*
X258110119Y-4378571D01*
X258014880Y-5140476D02*
X258014880Y-4569047D01*
X258014880Y-4854761D02*
X257014880Y-4854761D01*
X257157738Y-4759523D01*
X257252976Y-4664285D01*
X257300595Y-4569047D01*
X257348214Y-5997619D02*
X258014880Y-5997619D01*
X256967261Y-5759523D02*
X257681547Y-5521428D01*
X257681547Y-6140476D01*
X300877380Y-2854761D02*
X299877380Y-2854761D01*
X299877380Y-3092857D01*
X299925000Y-3235714D01*
X300020238Y-3330952D01*
X300115476Y-3378571D01*
X300305952Y-3426190D01*
X300448809Y-3426190D01*
X300639285Y-3378571D01*
X300734523Y-3330952D01*
X300829761Y-3235714D01*
X300877380Y-3092857D01*
X300877380Y-2854761D01*
X300972619Y-3616666D02*
X300972619Y-4378571D01*
X300877380Y-5140476D02*
X300877380Y-4569047D01*
X300877380Y-4854761D02*
X299877380Y-4854761D01*
X300020238Y-4759523D01*
X300115476Y-4664285D01*
X300163095Y-4569047D01*
X299877380Y-5997619D02*
X299877380Y-5807142D01*
X299925000Y-5711904D01*
X299972619Y-5664285D01*
X300115476Y-5569047D01*
X300305952Y-5521428D01*
X300686904Y-5521428D01*
X300782142Y-5569047D01*
X300829761Y-5616666D01*
X300877380Y-5711904D01*
X300877380Y-5902380D01*
X300829761Y-5997619D01*
X300782142Y-6045238D01*
X300686904Y-6092857D01*
X300448809Y-6092857D01*
X300353571Y-6045238D01*
X300305952Y-5997619D01*
X300258333Y-5902380D01*
X300258333Y-5711904D01*
X300305952Y-5616666D01*
X300353571Y-5569047D01*
X300448809Y-5521428D01*
X5602380Y-21904761D02*
X4602380Y-21904761D01*
X4602380Y-22142857D01*
X4650000Y-22285714D01*
X4745238Y-22380952D01*
X4840476Y-22428571D01*
X5030952Y-22476190D01*
X5173809Y-22476190D01*
X5364285Y-22428571D01*
X5459523Y-22380952D01*
X5554761Y-22285714D01*
X5602380Y-22142857D01*
X5602380Y-21904761D01*
X5697619Y-22666666D02*
X5697619Y-23428571D01*
X5602380Y-24190476D02*
X5602380Y-23619047D01*
X5602380Y-23904761D02*
X4602380Y-23904761D01*
X4745238Y-23809523D01*
X4840476Y-23714285D01*
X4888095Y-23619047D01*
X4602380Y-24523809D02*
X4602380Y-25190476D01*
X5602380Y-24761904D01*
X29414880Y-21904761D02*
X28414880Y-21904761D01*
X28414880Y-22142857D01*
X28462500Y-22285714D01*
X28557738Y-22380952D01*
X28652976Y-22428571D01*
X28843452Y-22476190D01*
X28986309Y-22476190D01*
X29176785Y-22428571D01*
X29272023Y-22380952D01*
X29367261Y-22285714D01*
X29414880Y-22142857D01*
X29414880Y-21904761D01*
X29510119Y-22666666D02*
X29510119Y-23428571D01*
X29414880Y-24190476D02*
X29414880Y-23619047D01*
X29414880Y-23904761D02*
X28414880Y-23904761D01*
X28557738Y-23809523D01*
X28652976Y-23714285D01*
X28700595Y-23619047D01*
X28843452Y-24761904D02*
X28795833Y-24666666D01*
X28748214Y-24619047D01*
X28652976Y-24571428D01*
X28605357Y-24571428D01*
X28510119Y-24619047D01*
X28462500Y-24666666D01*
X28414880Y-24761904D01*
X28414880Y-24952380D01*
X28462500Y-25047619D01*
X28510119Y-25095238D01*
X28605357Y-25142857D01*
X28652976Y-25142857D01*
X28748214Y-25095238D01*
X28795833Y-25047619D01*
X28843452Y-24952380D01*
X28843452Y-24761904D01*
X28891071Y-24666666D01*
X28938690Y-24619047D01*
X29033928Y-24571428D01*
X29224404Y-24571428D01*
X29319642Y-24619047D01*
X29367261Y-24666666D01*
X29414880Y-24761904D01*
X29414880Y-24952380D01*
X29367261Y-25047619D01*
X29319642Y-25095238D01*
X29224404Y-25142857D01*
X29033928Y-25142857D01*
X28938690Y-25095238D01*
X28891071Y-25047619D01*
X28843452Y-24952380D01*
X48464880Y-21904761D02*
X47464880Y-21904761D01*
X47464880Y-22142857D01*
X47512500Y-22285714D01*
X47607738Y-22380952D01*
X47702976Y-22428571D01*
X47893452Y-22476190D01*
X48036309Y-22476190D01*
X48226785Y-22428571D01*
X48322023Y-22380952D01*
X48417261Y-22285714D01*
X48464880Y-22142857D01*
X48464880Y-21904761D01*
X48560119Y-22666666D02*
X48560119Y-23428571D01*
X48464880Y-24190476D02*
X48464880Y-23619047D01*
X48464880Y-23904761D02*
X47464880Y-23904761D01*
X47607738Y-23809523D01*
X47702976Y-23714285D01*
X47750595Y-23619047D01*
X48464880Y-24666666D02*
X48464880Y-24857142D01*
X48417261Y-24952380D01*
X48369642Y-25000000D01*
X48226785Y-25095238D01*
X48036309Y-25142857D01*
X47655357Y-25142857D01*
X47560119Y-25095238D01*
X47512500Y-25047619D01*
X47464880Y-24952380D01*
X47464880Y-24761904D01*
X47512500Y-24666666D01*
X47560119Y-24619047D01*
X47655357Y-24571428D01*
X47893452Y-24571428D01*
X47988690Y-24619047D01*
X48036309Y-24666666D01*
X48083928Y-24761904D01*
X48083928Y-24952380D01*
X48036309Y-25047619D01*
X47988690Y-25095238D01*
X47893452Y-25142857D01*
X67514880Y-21904761D02*
X66514880Y-21904761D01*
X66514880Y-22142857D01*
X66562500Y-22285714D01*
X66657738Y-22380952D01*
X66752976Y-22428571D01*
X66943452Y-22476190D01*
X67086309Y-22476190D01*
X67276785Y-22428571D01*
X67372023Y-22380952D01*
X67467261Y-22285714D01*
X67514880Y-22142857D01*
X67514880Y-21904761D01*
X67610119Y-22666666D02*
X67610119Y-23428571D01*
X66610119Y-23619047D02*
X66562500Y-23666666D01*
X66514880Y-23761904D01*
X66514880Y-24000000D01*
X66562500Y-24095238D01*
X66610119Y-24142857D01*
X66705357Y-24190476D01*
X66800595Y-24190476D01*
X66943452Y-24142857D01*
X67514880Y-23571428D01*
X67514880Y-24190476D01*
X66514880Y-24809523D02*
X66514880Y-24904761D01*
X66562500Y-25000000D01*
X66610119Y-25047619D01*
X66705357Y-25095238D01*
X66895833Y-25142857D01*
X67133928Y-25142857D01*
X67324404Y-25095238D01*
X67419642Y-25047619D01*
X67467261Y-25000000D01*
X67514880Y-24904761D01*
X67514880Y-24809523D01*
X67467261Y-24714285D01*
X67419642Y-24666666D01*
X67324404Y-24619047D01*
X67133928Y-24571428D01*
X66895833Y-24571428D01*
X66705357Y-24619047D01*
X66610119Y-24666666D01*
X66562500Y-24714285D01*
X66514880Y-24809523D01*
X86564880Y-21904761D02*
X85564880Y-21904761D01*
X85564880Y-22142857D01*
X85612500Y-22285714D01*
X85707738Y-22380952D01*
X85802976Y-22428571D01*
X85993452Y-22476190D01*
X86136309Y-22476190D01*
X86326785Y-22428571D01*
X86422023Y-22380952D01*
X86517261Y-22285714D01*
X86564880Y-22142857D01*
X86564880Y-21904761D01*
X86660119Y-22666666D02*
X86660119Y-23428571D01*
X85660119Y-23619047D02*
X85612500Y-23666666D01*
X85564880Y-23761904D01*
X85564880Y-24000000D01*
X85612500Y-24095238D01*
X85660119Y-24142857D01*
X85755357Y-24190476D01*
X85850595Y-24190476D01*
X85993452Y-24142857D01*
X86564880Y-23571428D01*
X86564880Y-24190476D01*
X86564880Y-25142857D02*
X86564880Y-24571428D01*
X86564880Y-24857142D02*
X85564880Y-24857142D01*
X85707738Y-24761904D01*
X85802976Y-24666666D01*
X85850595Y-24571428D01*
X105614880Y-21904761D02*
X104614880Y-21904761D01*
X104614880Y-22142857D01*
X104662500Y-22285714D01*
X104757738Y-22380952D01*
X104852976Y-22428571D01*
X105043452Y-22476190D01*
X105186309Y-22476190D01*
X105376785Y-22428571D01*
X105472023Y-22380952D01*
X105567261Y-22285714D01*
X105614880Y-22142857D01*
X105614880Y-21904761D01*
X105710119Y-22666666D02*
X105710119Y-23428571D01*
X104710119Y-23619047D02*
X104662500Y-23666666D01*
X104614880Y-23761904D01*
X104614880Y-24000000D01*
X104662500Y-24095238D01*
X104710119Y-24142857D01*
X104805357Y-24190476D01*
X104900595Y-24190476D01*
X105043452Y-24142857D01*
X105614880Y-23571428D01*
X105614880Y-24190476D01*
X104710119Y-24571428D02*
X104662500Y-24619047D01*
X104614880Y-24714285D01*
X104614880Y-24952380D01*
X104662500Y-25047619D01*
X104710119Y-25095238D01*
X104805357Y-25142857D01*
X104900595Y-25142857D01*
X105043452Y-25095238D01*
X105614880Y-24523809D01*
X105614880Y-25142857D01*
X124664880Y-21904761D02*
X123664880Y-21904761D01*
X123664880Y-22142857D01*
X123712500Y-22285714D01*
X123807738Y-22380952D01*
X123902976Y-22428571D01*
X124093452Y-22476190D01*
X124236309Y-22476190D01*
X124426785Y-22428571D01*
X124522023Y-22380952D01*
X124617261Y-22285714D01*
X124664880Y-22142857D01*
X124664880Y-21904761D01*
X124760119Y-22666666D02*
X124760119Y-23428571D01*
X123760119Y-23619047D02*
X123712500Y-23666666D01*
X123664880Y-23761904D01*
X123664880Y-24000000D01*
X123712500Y-24095238D01*
X123760119Y-24142857D01*
X123855357Y-24190476D01*
X123950595Y-24190476D01*
X124093452Y-24142857D01*
X124664880Y-23571428D01*
X124664880Y-24190476D01*
X123664880Y-24523809D02*
X123664880Y-25142857D01*
X124045833Y-24809523D01*
X124045833Y-24952380D01*
X124093452Y-25047619D01*
X124141071Y-25095238D01*
X124236309Y-25142857D01*
X124474404Y-25142857D01*
X124569642Y-25095238D01*
X124617261Y-25047619D01*
X124664880Y-24952380D01*
X124664880Y-24666666D01*
X124617261Y-24571428D01*
X124569642Y-24523809D01*
X143714880Y-21904761D02*
X142714880Y-21904761D01*
X142714880Y-22142857D01*
X142762500Y-22285714D01*
X142857738Y-22380952D01*
X142952976Y-22428571D01*
X143143452Y-22476190D01*
X143286309Y-22476190D01*
X143476785Y-22428571D01*
X143572023Y-22380952D01*
X143667261Y-22285714D01*
X143714880Y-22142857D01*
X143714880Y-21904761D01*
X143810119Y-22666666D02*
X143810119Y-23428571D01*
X142810119Y-23619047D02*
X142762500Y-23666666D01*
X142714880Y-23761904D01*
X142714880Y-24000000D01*
X142762500Y-24095238D01*
X142810119Y-24142857D01*
X142905357Y-24190476D01*
X143000595Y-24190476D01*
X143143452Y-24142857D01*
X143714880Y-23571428D01*
X143714880Y-24190476D01*
X143048214Y-25047619D02*
X143714880Y-25047619D01*
X142667261Y-24809523D02*
X143381547Y-24571428D01*
X143381547Y-25190476D01*
X162764880Y-21904761D02*
X161764880Y-21904761D01*
X161764880Y-22142857D01*
X161812500Y-22285714D01*
X161907738Y-22380952D01*
X162002976Y-22428571D01*
X162193452Y-22476190D01*
X162336309Y-22476190D01*
X162526785Y-22428571D01*
X162622023Y-22380952D01*
X162717261Y-22285714D01*
X162764880Y-22142857D01*
X162764880Y-21904761D01*
X162860119Y-22666666D02*
X162860119Y-23428571D01*
X161860119Y-23619047D02*
X161812500Y-23666666D01*
X161764880Y-23761904D01*
X161764880Y-24000000D01*
X161812500Y-24095238D01*
X161860119Y-24142857D01*
X161955357Y-24190476D01*
X162050595Y-24190476D01*
X162193452Y-24142857D01*
X162764880Y-23571428D01*
X162764880Y-24190476D01*
X161764880Y-25095238D02*
X161764880Y-24619047D01*
X162241071Y-24571428D01*
X162193452Y-24619047D01*
X162145833Y-24714285D01*
X162145833Y-24952380D01*
X162193452Y-25047619D01*
X162241071Y-25095238D01*
X162336309Y-25142857D01*
X162574404Y-25142857D01*
X162669642Y-25095238D01*
X162717261Y-25047619D01*
X162764880Y-24952380D01*
X162764880Y-24714285D01*
X162717261Y-24619047D01*
X162669642Y-24571428D01*
X181814880Y-21904761D02*
X180814880Y-21904761D01*
X180814880Y-22142857D01*
X180862500Y-22285714D01*
X180957738Y-22380952D01*
X181052976Y-22428571D01*
X181243452Y-22476190D01*
X181386309Y-22476190D01*
X181576785Y-22428571D01*
X181672023Y-22380952D01*
X181767261Y-22285714D01*
X181814880Y-22142857D01*
X181814880Y-21904761D01*
X181910119Y-22666666D02*
X181910119Y-23428571D01*
X180910119Y-23619047D02*
X180862500Y-23666666D01*
X180814880Y-23761904D01*
X180814880Y-24000000D01*
X180862500Y-24095238D01*
X180910119Y-24142857D01*
X181005357Y-24190476D01*
X181100595Y-24190476D01*
X181243452Y-24142857D01*
X181814880Y-23571428D01*
X181814880Y-24190476D01*
X180814880Y-25047619D02*
X180814880Y-24857142D01*
X180862500Y-24761904D01*
X180910119Y-24714285D01*
X181052976Y-24619047D01*
X181243452Y-24571428D01*
X181624404Y-24571428D01*
X181719642Y-24619047D01*
X181767261Y-24666666D01*
X181814880Y-24761904D01*
X181814880Y-24952380D01*
X181767261Y-25047619D01*
X181719642Y-25095238D01*
X181624404Y-25142857D01*
X181386309Y-25142857D01*
X181291071Y-25095238D01*
X181243452Y-25047619D01*
X181195833Y-24952380D01*
X181195833Y-24761904D01*
X181243452Y-24666666D01*
X181291071Y-24619047D01*
X181386309Y-24571428D01*
X200864880Y-21904761D02*
X199864880Y-21904761D01*
X199864880Y-22142857D01*
X199912500Y-22285714D01*
X200007738Y-22380952D01*
X200102976Y-22428571D01*
X200293452Y-22476190D01*
X200436309Y-22476190D01*
X200626785Y-22428571D01*
X200722023Y-22380952D01*
X200817261Y-22285714D01*
X200864880Y-22142857D01*
X200864880Y-21904761D01*
X200960119Y-22666666D02*
X200960119Y-23428571D01*
X199960119Y-23619047D02*
X199912500Y-23666666D01*
X199864880Y-23761904D01*
X199864880Y-24000000D01*
X199912500Y-24095238D01*
X199960119Y-24142857D01*
X200055357Y-24190476D01*
X200150595Y-24190476D01*
X200293452Y-24142857D01*
X200864880Y-23571428D01*
X200864880Y-24190476D01*
X199864880Y-24523809D02*
X199864880Y-25190476D01*
X200864880Y-24761904D01*
X219914880Y-21904761D02*
X218914880Y-21904761D01*
X218914880Y-22142857D01*
X218962500Y-22285714D01*
X219057738Y-22380952D01*
X219152976Y-22428571D01*
X219343452Y-22476190D01*
X219486309Y-22476190D01*
X219676785Y-22428571D01*
X219772023Y-22380952D01*
X219867261Y-22285714D01*
X219914880Y-22142857D01*
X219914880Y-21904761D01*
X220010119Y-22666666D02*
X220010119Y-23428571D01*
X219010119Y-23619047D02*
X218962500Y-23666666D01*
X218914880Y-23761904D01*
X218914880Y-24000000D01*
X218962500Y-24095238D01*
X219010119Y-24142857D01*
X219105357Y-24190476D01*
X219200595Y-24190476D01*
X219343452Y-24142857D01*
X219914880Y-23571428D01*
X219914880Y-24190476D01*
X219343452Y-24761904D02*
X219295833Y-24666666D01*
X219248214Y-24619047D01*
X219152976Y-24571428D01*
X219105357Y-24571428D01*
X219010119Y-24619047D01*
X218962500Y-24666666D01*
X218914880Y-24761904D01*
X218914880Y-24952380D01*
X218962500Y-25047619D01*
X219010119Y-25095238D01*
X219105357Y-25142857D01*
X219152976Y-25142857D01*
X219248214Y-25095238D01*
X219295833Y-25047619D01*
X219343452Y-24952380D01*
X219343452Y-24761904D01*
X219391071Y-24666666D01*
X219438690Y-24619047D01*
X219533928Y-24571428D01*
X219724404Y-24571428D01*
X219819642Y-24619047D01*
X219867261Y-24666666D01*
X219914880Y-24761904D01*
X219914880Y-24952380D01*
X219867261Y-25047619D01*
X219819642Y-25095238D01*
X219724404Y-25142857D01*
X219533928Y-25142857D01*
X219438690Y-25095238D01*
X219391071Y-25047619D01*
X219343452Y-24952380D01*
X238964880Y-21904761D02*
X237964880Y-21904761D01*
X237964880Y-22142857D01*
X238012500Y-22285714D01*
X238107738Y-22380952D01*
X238202976Y-22428571D01*
X238393452Y-22476190D01*
X238536309Y-22476190D01*
X238726785Y-22428571D01*
X238822023Y-22380952D01*
X238917261Y-22285714D01*
X238964880Y-22142857D01*
X238964880Y-21904761D01*
X239060119Y-22666666D02*
X239060119Y-23428571D01*
X238060119Y-23619047D02*
X238012500Y-23666666D01*
X237964880Y-23761904D01*
X237964880Y-24000000D01*
X238012500Y-24095238D01*
X238060119Y-24142857D01*
X238155357Y-24190476D01*
X238250595Y-24190476D01*
X238393452Y-24142857D01*
X238964880Y-23571428D01*
X238964880Y-24190476D01*
X238964880Y-24666666D02*
X238964880Y-24857142D01*
X238917261Y-24952380D01*
X238869642Y-25000000D01*
X238726785Y-25095238D01*
X238536309Y-25142857D01*
X238155357Y-25142857D01*
X238060119Y-25095238D01*
X238012500Y-25047619D01*
X237964880Y-24952380D01*
X237964880Y-24761904D01*
X238012500Y-24666666D01*
X238060119Y-24619047D01*
X238155357Y-24571428D01*
X238393452Y-24571428D01*
X238488690Y-24619047D01*
X238536309Y-24666666D01*
X238583928Y-24761904D01*
X238583928Y-24952380D01*
X238536309Y-25047619D01*
X238488690Y-25095238D01*
X238393452Y-25142857D01*
X258014880Y-21904761D02*
X257014880Y-21904761D01*
X257014880Y-22142857D01*
X257062500Y-22285714D01*
X257157738Y-22380952D01*
X257252976Y-22428571D01*
X257443452Y-22476190D01*
X257586309Y-22476190D01*
X257776785Y-22428571D01*
X257872023Y-22380952D01*
X257967261Y-22285714D01*
X258014880Y-22142857D01*
X258014880Y-21904761D01*
X258110119Y-22666666D02*
X258110119Y-23428571D01*
X257014880Y-23571428D02*
X257014880Y-24190476D01*
X257395833Y-23857142D01*
X257395833Y-24000000D01*
X257443452Y-24095238D01*
X257491071Y-24142857D01*
X257586309Y-24190476D01*
X257824404Y-24190476D01*
X257919642Y-24142857D01*
X257967261Y-24095238D01*
X258014880Y-24000000D01*
X258014880Y-23714285D01*
X257967261Y-23619047D01*
X257919642Y-23571428D01*
X257014880Y-24809523D02*
X257014880Y-24904761D01*
X257062500Y-25000000D01*
X257110119Y-25047619D01*
X257205357Y-25095238D01*
X257395833Y-25142857D01*
X257633928Y-25142857D01*
X257824404Y-25095238D01*
X257919642Y-25047619D01*
X257967261Y-25000000D01*
X258014880Y-24904761D01*
X258014880Y-24809523D01*
X257967261Y-24714285D01*
X257919642Y-24666666D01*
X257824404Y-24619047D01*
X257633928Y-24571428D01*
X257395833Y-24571428D01*
X257205357Y-24619047D01*
X257110119Y-24666666D01*
X257062500Y-24714285D01*
X257014880Y-24809523D01*
X281827380Y-2854761D02*
X280827380Y-2854761D01*
X280827380Y-3092857D01*
X280875000Y-3235714D01*
X280970238Y-3330952D01*
X281065476Y-3378571D01*
X281255952Y-3426190D01*
X281398809Y-3426190D01*
X281589285Y-3378571D01*
X281684523Y-3330952D01*
X281779761Y-3235714D01*
X281827380Y-3092857D01*
X281827380Y-2854761D01*
X281922619Y-3616666D02*
X281922619Y-4378571D01*
X281827380Y-5140476D02*
X281827380Y-4569047D01*
X281827380Y-4854761D02*
X280827380Y-4854761D01*
X280970238Y-4759523D01*
X281065476Y-4664285D01*
X281113095Y-4569047D01*
X280827380Y-6045238D02*
X280827380Y-5569047D01*
X281303571Y-5521428D01*
X281255952Y-5569047D01*
X281208333Y-5664285D01*
X281208333Y-5902380D01*
X281255952Y-5997619D01*
X281303571Y-6045238D01*
X281398809Y-6092857D01*
X281636904Y-6092857D01*
X281732142Y-6045238D01*
X281779761Y-5997619D01*
X281827380Y-5902380D01*
X281827380Y-5664285D01*
X281779761Y-5569047D01*
X281732142Y-5521428D01*
X5602380Y-40954761D02*
X4602380Y-40954761D01*
X4602380Y-41192857D01*
X4650000Y-41335714D01*
X4745238Y-41430952D01*
X4840476Y-41478571D01*
X5030952Y-41526190D01*
X5173809Y-41526190D01*
X5364285Y-41478571D01*
X5459523Y-41430952D01*
X5554761Y-41335714D01*
X5602380Y-41192857D01*
X5602380Y-40954761D01*
X5697619Y-41716666D02*
X5697619Y-42478571D01*
X4602380Y-42621428D02*
X4602380Y-43240476D01*
X4983333Y-42907142D01*
X4983333Y-43050000D01*
X5030952Y-43145238D01*
X5078571Y-43192857D01*
X5173809Y-43240476D01*
X5411904Y-43240476D01*
X5507142Y-43192857D01*
X5554761Y-43145238D01*
X5602380Y-43050000D01*
X5602380Y-42764285D01*
X5554761Y-42669047D01*
X5507142Y-42621428D01*
X4602380Y-43573809D02*
X4602380Y-44192857D01*
X4983333Y-43859523D01*
X4983333Y-44002380D01*
X5030952Y-44097619D01*
X5078571Y-44145238D01*
X5173809Y-44192857D01*
X5411904Y-44192857D01*
X5507142Y-44145238D01*
X5554761Y-44097619D01*
X5602380Y-44002380D01*
X5602380Y-43716666D01*
X5554761Y-43621428D01*
X5507142Y-43573809D01*
X29414880Y-40954761D02*
X28414880Y-40954761D01*
X28414880Y-41192857D01*
X28462500Y-41335714D01*
X28557738Y-41430952D01*
X28652976Y-41478571D01*
X28843452Y-41526190D01*
X28986309Y-41526190D01*
X29176785Y-41478571D01*
X29272023Y-41430952D01*
X29367261Y-41335714D01*
X29414880Y-41192857D01*
X29414880Y-40954761D01*
X29510119Y-41716666D02*
X29510119Y-42478571D01*
X28414880Y-42621428D02*
X28414880Y-43240476D01*
X28795833Y-42907142D01*
X28795833Y-43050000D01*
X28843452Y-43145238D01*
X28891071Y-43192857D01*
X28986309Y-43240476D01*
X29224404Y-43240476D01*
X29319642Y-43192857D01*
X29367261Y-43145238D01*
X29414880Y-43050000D01*
X29414880Y-42764285D01*
X29367261Y-42669047D01*
X29319642Y-42621428D01*
X28748214Y-44097619D02*
X29414880Y-44097619D01*
X28367261Y-43859523D02*
X29081547Y-43621428D01*
X29081547Y-44240476D01*
X48464880Y-40954761D02*
X47464880Y-40954761D01*
X47464880Y-41192857D01*
X47512500Y-41335714D01*
X47607738Y-41430952D01*
X47702976Y-41478571D01*
X47893452Y-41526190D01*
X48036309Y-41526190D01*
X48226785Y-41478571D01*
X48322023Y-41430952D01*
X48417261Y-41335714D01*
X48464880Y-41192857D01*
X48464880Y-40954761D01*
X48560119Y-41716666D02*
X48560119Y-42478571D01*
X47464880Y-42621428D02*
X47464880Y-43240476D01*
X47845833Y-42907142D01*
X47845833Y-43050000D01*
X47893452Y-43145238D01*
X47941071Y-43192857D01*
X48036309Y-43240476D01*
X48274404Y-43240476D01*
X48369642Y-43192857D01*
X48417261Y-43145238D01*
X48464880Y-43050000D01*
X48464880Y-42764285D01*
X48417261Y-42669047D01*
X48369642Y-42621428D01*
X47464880Y-44145238D02*
X47464880Y-43669047D01*
X47941071Y-43621428D01*
X47893452Y-43669047D01*
X47845833Y-43764285D01*
X47845833Y-44002380D01*
X47893452Y-44097619D01*
X47941071Y-44145238D01*
X48036309Y-44192857D01*
X48274404Y-44192857D01*
X48369642Y-44145238D01*
X48417261Y-44097619D01*
X48464880Y-44002380D01*
X48464880Y-43764285D01*
X48417261Y-43669047D01*
X48369642Y-43621428D01*
X67514880Y-40954761D02*
X66514880Y-40954761D01*
X66514880Y-41192857D01*
X66562500Y-41335714D01*
X66657738Y-41430952D01*
X66752976Y-41478571D01*
X66943452Y-41526190D01*
X67086309Y-41526190D01*
X67276785Y-41478571D01*
X67372023Y-41430952D01*
X67467261Y-41335714D01*
X67514880Y-41192857D01*
X67514880Y-40954761D01*
X67610119Y-41716666D02*
X67610119Y-42478571D01*
X66514880Y-42621428D02*
X66514880Y-43240476D01*
X66895833Y-42907142D01*
X66895833Y-43050000D01*
X66943452Y-43145238D01*
X66991071Y-43192857D01*
X67086309Y-43240476D01*
X67324404Y-43240476D01*
X67419642Y-43192857D01*
X67467261Y-43145238D01*
X67514880Y-43050000D01*
X67514880Y-42764285D01*
X67467261Y-42669047D01*
X67419642Y-42621428D01*
X66514880Y-44097619D02*
X66514880Y-43907142D01*
X66562500Y-43811904D01*
X66610119Y-43764285D01*
X66752976Y-43669047D01*
X66943452Y-43621428D01*
X67324404Y-43621428D01*
X67419642Y-43669047D01*
X67467261Y-43716666D01*
X67514880Y-43811904D01*
X67514880Y-44002380D01*
X67467261Y-44097619D01*
X67419642Y-44145238D01*
X67324404Y-44192857D01*
X67086309Y-44192857D01*
X66991071Y-44145238D01*
X66943452Y-44097619D01*
X66895833Y-44002380D01*
X66895833Y-43811904D01*
X66943452Y-43716666D01*
X66991071Y-43669047D01*
X67086309Y-43621428D01*
X86564880Y-40954761D02*
X85564880Y-40954761D01*
X85564880Y-41192857D01*
X85612500Y-41335714D01*
X85707738Y-41430952D01*
X85802976Y-41478571D01*
X85993452Y-41526190D01*
X86136309Y-41526190D01*
X86326785Y-41478571D01*
X86422023Y-41430952D01*
X86517261Y-41335714D01*
X86564880Y-41192857D01*
X86564880Y-40954761D01*
X86660119Y-41716666D02*
X86660119Y-42478571D01*
X85564880Y-42621428D02*
X85564880Y-43240476D01*
X85945833Y-42907142D01*
X85945833Y-43050000D01*
X85993452Y-43145238D01*
X86041071Y-43192857D01*
X86136309Y-43240476D01*
X86374404Y-43240476D01*
X86469642Y-43192857D01*
X86517261Y-43145238D01*
X86564880Y-43050000D01*
X86564880Y-42764285D01*
X86517261Y-42669047D01*
X86469642Y-42621428D01*
X85564880Y-43573809D02*
X85564880Y-44240476D01*
X86564880Y-43811904D01*
X105614880Y-40954761D02*
X104614880Y-40954761D01*
X104614880Y-41192857D01*
X104662500Y-41335714D01*
X104757738Y-41430952D01*
X104852976Y-41478571D01*
X105043452Y-41526190D01*
X105186309Y-41526190D01*
X105376785Y-41478571D01*
X105472023Y-41430952D01*
X105567261Y-41335714D01*
X105614880Y-41192857D01*
X105614880Y-40954761D01*
X105710119Y-41716666D02*
X105710119Y-42478571D01*
X104614880Y-42621428D02*
X104614880Y-43240476D01*
X104995833Y-42907142D01*
X104995833Y-43050000D01*
X105043452Y-43145238D01*
X105091071Y-43192857D01*
X105186309Y-43240476D01*
X105424404Y-43240476D01*
X105519642Y-43192857D01*
X105567261Y-43145238D01*
X105614880Y-43050000D01*
X105614880Y-42764285D01*
X105567261Y-42669047D01*
X105519642Y-42621428D01*
X105043452Y-43811904D02*
X104995833Y-43716666D01*
X104948214Y-43669047D01*
X104852976Y-43621428D01*
X104805357Y-43621428D01*
X104710119Y-43669047D01*
X104662500Y-43716666D01*
X104614880Y-43811904D01*
X104614880Y-44002380D01*
X104662500Y-44097619D01*
X104710119Y-44145238D01*
X104805357Y-44192857D01*
X104852976Y-44192857D01*
X104948214Y-44145238D01*
X104995833Y-44097619D01*
X105043452Y-44002380D01*
X105043452Y-43811904D01*
X105091071Y-43716666D01*
X105138690Y-43669047D01*
X105233928Y-43621428D01*
X105424404Y-43621428D01*
X105519642Y-43669047D01*
X105567261Y-43716666D01*
X105614880Y-43811904D01*
X105614880Y-44002380D01*
X105567261Y-44097619D01*
X105519642Y-44145238D01*
X105424404Y-44192857D01*
X105233928Y-44192857D01*
X105138690Y-44145238D01*
X105091071Y-44097619D01*
X105043452Y-44002380D01*
X124664880Y-40954761D02*
X123664880Y-40954761D01*
X123664880Y-41192857D01*
X123712500Y-41335714D01*
X123807738Y-41430952D01*
X123902976Y-41478571D01*
X124093452Y-41526190D01*
X124236309Y-41526190D01*
X124426785Y-41478571D01*
X124522023Y-41430952D01*
X124617261Y-41335714D01*
X124664880Y-41192857D01*
X124664880Y-40954761D01*
X124760119Y-41716666D02*
X124760119Y-42478571D01*
X123664880Y-42621428D02*
X123664880Y-43240476D01*
X124045833Y-42907142D01*
X124045833Y-43050000D01*
X124093452Y-43145238D01*
X124141071Y-43192857D01*
X124236309Y-43240476D01*
X124474404Y-43240476D01*
X124569642Y-43192857D01*
X124617261Y-43145238D01*
X124664880Y-43050000D01*
X124664880Y-42764285D01*
X124617261Y-42669047D01*
X124569642Y-42621428D01*
X124664880Y-43716666D02*
X124664880Y-43907142D01*
X124617261Y-44002380D01*
X124569642Y-44050000D01*
X124426785Y-44145238D01*
X124236309Y-44192857D01*
X123855357Y-44192857D01*
X123760119Y-44145238D01*
X123712500Y-44097619D01*
X123664880Y-44002380D01*
X123664880Y-43811904D01*
X123712500Y-43716666D01*
X123760119Y-43669047D01*
X123855357Y-43621428D01*
X124093452Y-43621428D01*
X124188690Y-43669047D01*
X124236309Y-43716666D01*
X124283928Y-43811904D01*
X124283928Y-44002380D01*
X124236309Y-44097619D01*
X124188690Y-44145238D01*
X124093452Y-44192857D01*
X143714880Y-40954761D02*
X142714880Y-40954761D01*
X142714880Y-41192857D01*
X142762500Y-41335714D01*
X142857738Y-41430952D01*
X142952976Y-41478571D01*
X143143452Y-41526190D01*
X143286309Y-41526190D01*
X143476785Y-41478571D01*
X143572023Y-41430952D01*
X143667261Y-41335714D01*
X143714880Y-41192857D01*
X143714880Y-40954761D01*
X143810119Y-41716666D02*
X143810119Y-42478571D01*
X143048214Y-43145238D02*
X143714880Y-43145238D01*
X142667261Y-42907142D02*
X143381547Y-42669047D01*
X143381547Y-43288095D01*
X142714880Y-43859523D02*
X142714880Y-43954761D01*
X142762500Y-44050000D01*
X142810119Y-44097619D01*
X142905357Y-44145238D01*
X143095833Y-44192857D01*
X143333928Y-44192857D01*
X143524404Y-44145238D01*
X143619642Y-44097619D01*
X143667261Y-44050000D01*
X143714880Y-43954761D01*
X143714880Y-43859523D01*
X143667261Y-43764285D01*
X143619642Y-43716666D01*
X143524404Y-43669047D01*
X143333928Y-43621428D01*
X143095833Y-43621428D01*
X142905357Y-43669047D01*
X142810119Y-43716666D01*
X142762500Y-43764285D01*
X142714880Y-43859523D01*
X162764880Y-40954761D02*
X161764880Y-40954761D01*
X161764880Y-41192857D01*
X161812500Y-41335714D01*
X161907738Y-41430952D01*
X162002976Y-41478571D01*
X162193452Y-41526190D01*
X162336309Y-41526190D01*
X162526785Y-41478571D01*
X162622023Y-41430952D01*
X162717261Y-41335714D01*
X162764880Y-41192857D01*
X162764880Y-40954761D01*
X162860119Y-41716666D02*
X162860119Y-42478571D01*
X162098214Y-43145238D02*
X162764880Y-43145238D01*
X161717261Y-42907142D02*
X162431547Y-42669047D01*
X162431547Y-43288095D01*
X162764880Y-44192857D02*
X162764880Y-43621428D01*
X162764880Y-43907142D02*
X161764880Y-43907142D01*
X161907738Y-43811904D01*
X162002976Y-43716666D01*
X162050595Y-43621428D01*
X181814880Y-40954761D02*
X180814880Y-40954761D01*
X180814880Y-41192857D01*
X180862500Y-41335714D01*
X180957738Y-41430952D01*
X181052976Y-41478571D01*
X181243452Y-41526190D01*
X181386309Y-41526190D01*
X181576785Y-41478571D01*
X181672023Y-41430952D01*
X181767261Y-41335714D01*
X181814880Y-41192857D01*
X181814880Y-40954761D01*
X181910119Y-41716666D02*
X181910119Y-42478571D01*
X181148214Y-43145238D02*
X181814880Y-43145238D01*
X180767261Y-42907142D02*
X181481547Y-42669047D01*
X181481547Y-43288095D01*
X180910119Y-43621428D02*
X180862500Y-43669047D01*
X180814880Y-43764285D01*
X180814880Y-44002380D01*
X180862500Y-44097619D01*
X180910119Y-44145238D01*
X181005357Y-44192857D01*
X181100595Y-44192857D01*
X181243452Y-44145238D01*
X181814880Y-43573809D01*
X181814880Y-44192857D01*
X200864880Y-40954761D02*
X199864880Y-40954761D01*
X199864880Y-41192857D01*
X199912500Y-41335714D01*
X200007738Y-41430952D01*
X200102976Y-41478571D01*
X200293452Y-41526190D01*
X200436309Y-41526190D01*
X200626785Y-41478571D01*
X200722023Y-41430952D01*
X200817261Y-41335714D01*
X200864880Y-41192857D01*
X200864880Y-40954761D01*
X200960119Y-41716666D02*
X200960119Y-42478571D01*
X200198214Y-43145238D02*
X200864880Y-43145238D01*
X199817261Y-42907142D02*
X200531547Y-42669047D01*
X200531547Y-43288095D01*
X199864880Y-43573809D02*
X199864880Y-44192857D01*
X200245833Y-43859523D01*
X200245833Y-44002380D01*
X200293452Y-44097619D01*
X200341071Y-44145238D01*
X200436309Y-44192857D01*
X200674404Y-44192857D01*
X200769642Y-44145238D01*
X200817261Y-44097619D01*
X200864880Y-44002380D01*
X200864880Y-43716666D01*
X200817261Y-43621428D01*
X200769642Y-43573809D01*
X219914880Y-40954761D02*
X218914880Y-40954761D01*
X218914880Y-41192857D01*
X218962500Y-41335714D01*
X219057738Y-41430952D01*
X219152976Y-41478571D01*
X219343452Y-41526190D01*
X219486309Y-41526190D01*
X219676785Y-41478571D01*
X219772023Y-41430952D01*
X219867261Y-41335714D01*
X219914880Y-41192857D01*
X219914880Y-40954761D01*
X220010119Y-41716666D02*
X220010119Y-42478571D01*
X219248214Y-43145238D02*
X219914880Y-43145238D01*
X218867261Y-42907142D02*
X219581547Y-42669047D01*
X219581547Y-43288095D01*
X219248214Y-44097619D02*
X219914880Y-44097619D01*
X218867261Y-43859523D02*
X219581547Y-43621428D01*
X219581547Y-44240476D01*
X238964880Y-40954761D02*
X237964880Y-40954761D01*
X237964880Y-41192857D01*
X238012500Y-41335714D01*
X238107738Y-41430952D01*
X238202976Y-41478571D01*
X238393452Y-41526190D01*
X238536309Y-41526190D01*
X238726785Y-41478571D01*
X238822023Y-41430952D01*
X238917261Y-41335714D01*
X238964880Y-41192857D01*
X238964880Y-40954761D01*
X239060119Y-41716666D02*
X239060119Y-42478571D01*
X238298214Y-43145238D02*
X238964880Y-43145238D01*
X237917261Y-42907142D02*
X238631547Y-42669047D01*
X238631547Y-43288095D01*
X237964880Y-44145238D02*
X237964880Y-43669047D01*
X238441071Y-43621428D01*
X238393452Y-43669047D01*
X238345833Y-43764285D01*
X238345833Y-44002380D01*
X238393452Y-44097619D01*
X238441071Y-44145238D01*
X238536309Y-44192857D01*
X238774404Y-44192857D01*
X238869642Y-44145238D01*
X238917261Y-44097619D01*
X238964880Y-44002380D01*
X238964880Y-43764285D01*
X238917261Y-43669047D01*
X238869642Y-43621428D01*
X258014880Y-40954761D02*
X257014880Y-40954761D01*
X257014880Y-41192857D01*
X257062500Y-41335714D01*
X257157738Y-41430952D01*
X257252976Y-41478571D01*
X257443452Y-41526190D01*
X257586309Y-41526190D01*
X257776785Y-41478571D01*
X257872023Y-41430952D01*
X257967261Y-41335714D01*
X258014880Y-41192857D01*
X258014880Y-40954761D01*
X258110119Y-41716666D02*
X258110119Y-42478571D01*
X257348214Y-43145238D02*
X258014880Y-43145238D01*
X256967261Y-42907142D02*
X257681547Y-42669047D01*
X257681547Y-43288095D01*
X257014880Y-44097619D02*
X257014880Y-43907142D01*
X257062500Y-43811904D01*
X257110119Y-43764285D01*
X257252976Y-43669047D01*
X257443452Y-43621428D01*
X257824404Y-43621428D01*
X257919642Y-43669047D01*
X257967261Y-43716666D01*
X258014880Y-43811904D01*
X258014880Y-44002380D01*
X257967261Y-44097619D01*
X257919642Y-44145238D01*
X257824404Y-44192857D01*
X257586309Y-44192857D01*
X257491071Y-44145238D01*
X257443452Y-44097619D01*
X257395833Y-44002380D01*
X257395833Y-43811904D01*
X257443452Y-43716666D01*
X257491071Y-43669047D01*
X257586309Y-43621428D01*
X281827380Y-21904761D02*
X280827380Y-21904761D01*
X280827380Y-22142857D01*
X280875000Y-22285714D01*
X280970238Y-22380952D01*
X281065476Y-22428571D01*
X281255952Y-22476190D01*
X281398809Y-22476190D01*
X281589285Y-22428571D01*
X281684523Y-22380952D01*
X281779761Y-22285714D01*
X281827380Y-22142857D01*
X281827380Y-21904761D01*
X281922619Y-22666666D02*
X281922619Y-23428571D01*
X280827380Y-23571428D02*
X280827380Y-24190476D01*
X281208333Y-23857142D01*
X281208333Y-24000000D01*
X281255952Y-24095238D01*
X281303571Y-24142857D01*
X281398809Y-24190476D01*
X281636904Y-24190476D01*
X281732142Y-24142857D01*
X281779761Y-24095238D01*
X281827380Y-24000000D01*
X281827380Y-23714285D01*
X281779761Y-23619047D01*
X281732142Y-23571428D01*
X281827380Y-25142857D02*
X281827380Y-24571428D01*
X281827380Y-24857142D02*
X280827380Y-24857142D01*
X280970238Y-24761904D01*
X281065476Y-24666666D01*
X281113095Y-24571428D01*
X5602380Y-60004761D02*
X4602380Y-60004761D01*
X4602380Y-60242857D01*
X4650000Y-60385714D01*
X4745238Y-60480952D01*
X4840476Y-60528571D01*
X5030952Y-60576190D01*
X5173809Y-60576190D01*
X5364285Y-60528571D01*
X5459523Y-60480952D01*
X5554761Y-60385714D01*
X5602380Y-60242857D01*
X5602380Y-60004761D01*
X5697619Y-60766666D02*
X5697619Y-61528571D01*
X4935714Y-62195238D02*
X5602380Y-62195238D01*
X4554761Y-61957142D02*
X5269047Y-61719047D01*
X5269047Y-62338095D01*
X4602380Y-62623809D02*
X4602380Y-63290476D01*
X5602380Y-62861904D01*
X34177380Y-60004761D02*
X33177380Y-60004761D01*
X33177380Y-60242857D01*
X33225000Y-60385714D01*
X33320238Y-60480952D01*
X33415476Y-60528571D01*
X33605952Y-60576190D01*
X33748809Y-60576190D01*
X33939285Y-60528571D01*
X34034523Y-60480952D01*
X34129761Y-60385714D01*
X34177380Y-60242857D01*
X34177380Y-60004761D01*
X34272619Y-60766666D02*
X34272619Y-61528571D01*
X33510714Y-62195238D02*
X34177380Y-62195238D01*
X33129761Y-61957142D02*
X33844047Y-61719047D01*
X33844047Y-62338095D01*
X33605952Y-62861904D02*
X33558333Y-62766666D01*
X33510714Y-62719047D01*
X33415476Y-62671428D01*
X33367857Y-62671428D01*
X33272619Y-62719047D01*
X33225000Y-62766666D01*
X33177380Y-62861904D01*
X33177380Y-63052380D01*
X33225000Y-63147619D01*
X33272619Y-63195238D01*
X33367857Y-63242857D01*
X33415476Y-63242857D01*
X33510714Y-63195238D01*
X33558333Y-63147619D01*
X33605952Y-63052380D01*
X33605952Y-62861904D01*
X33653571Y-62766666D01*
X33701190Y-62719047D01*
X33796428Y-62671428D01*
X33986904Y-62671428D01*
X34082142Y-62719047D01*
X34129761Y-62766666D01*
X34177380Y-62861904D01*
X34177380Y-63052380D01*
X34129761Y-63147619D01*
X34082142Y-63195238D01*
X33986904Y-63242857D01*
X33796428Y-63242857D01*
X33701190Y-63195238D01*
X33653571Y-63147619D01*
X33605952Y-63052380D01*
X57989880Y-60004761D02*
X56989880Y-60004761D01*
X56989880Y-60242857D01*
X57037500Y-60385714D01*
X57132738Y-60480952D01*
X57227976Y-60528571D01*
X57418452Y-60576190D01*
X57561309Y-60576190D01*
X57751785Y-60528571D01*
X57847023Y-60480952D01*
X57942261Y-60385714D01*
X57989880Y-60242857D01*
X57989880Y-60004761D01*
X58085119Y-60766666D02*
X58085119Y-61528571D01*
X57323214Y-62195238D02*
X57989880Y-62195238D01*
X56942261Y-61957142D02*
X57656547Y-61719047D01*
X57656547Y-62338095D01*
X57989880Y-62766666D02*
X57989880Y-62957142D01*
X57942261Y-63052380D01*
X57894642Y-63100000D01*
X57751785Y-63195238D01*
X57561309Y-63242857D01*
X57180357Y-63242857D01*
X57085119Y-63195238D01*
X57037500Y-63147619D01*
X56989880Y-63052380D01*
X56989880Y-62861904D01*
X57037500Y-62766666D01*
X57085119Y-62719047D01*
X57180357Y-62671428D01*
X57418452Y-62671428D01*
X57513690Y-62719047D01*
X57561309Y-62766666D01*
X57608928Y-62861904D01*
X57608928Y-63052380D01*
X57561309Y-63147619D01*
X57513690Y-63195238D01*
X57418452Y-63242857D01*
X77039880Y-60004761D02*
X76039880Y-60004761D01*
X76039880Y-60242857D01*
X76087500Y-60385714D01*
X76182738Y-60480952D01*
X76277976Y-60528571D01*
X76468452Y-60576190D01*
X76611309Y-60576190D01*
X76801785Y-60528571D01*
X76897023Y-60480952D01*
X76992261Y-60385714D01*
X77039880Y-60242857D01*
X77039880Y-60004761D01*
X77135119Y-60766666D02*
X77135119Y-61528571D01*
X76039880Y-62242857D02*
X76039880Y-61766666D01*
X76516071Y-61719047D01*
X76468452Y-61766666D01*
X76420833Y-61861904D01*
X76420833Y-62100000D01*
X76468452Y-62195238D01*
X76516071Y-62242857D01*
X76611309Y-62290476D01*
X76849404Y-62290476D01*
X76944642Y-62242857D01*
X76992261Y-62195238D01*
X77039880Y-62100000D01*
X77039880Y-61861904D01*
X76992261Y-61766666D01*
X76944642Y-61719047D01*
X76039880Y-62909523D02*
X76039880Y-63004761D01*
X76087500Y-63100000D01*
X76135119Y-63147619D01*
X76230357Y-63195238D01*
X76420833Y-63242857D01*
X76658928Y-63242857D01*
X76849404Y-63195238D01*
X76944642Y-63147619D01*
X76992261Y-63100000D01*
X77039880Y-63004761D01*
X77039880Y-62909523D01*
X76992261Y-62814285D01*
X76944642Y-62766666D01*
X76849404Y-62719047D01*
X76658928Y-62671428D01*
X76420833Y-62671428D01*
X76230357Y-62719047D01*
X76135119Y-62766666D01*
X76087500Y-62814285D01*
X76039880Y-62909523D01*
X95091317Y-65163650D02*
X95091317Y-64163650D01*
X94853221Y-64163650D01*
X94710364Y-64211270D01*
X94615126Y-64306508D01*
X94567507Y-64401746D01*
X94519888Y-64592222D01*
X94519888Y-64735079D01*
X94567507Y-64925555D01*
X94615126Y-65020793D01*
X94710364Y-65116031D01*
X94853221Y-65163650D01*
X95091317Y-65163650D01*
X94329412Y-65258889D02*
X93567507Y-65258889D01*
X92853221Y-64163650D02*
X93329412Y-64163650D01*
X93377031Y-64639841D01*
X93329412Y-64592222D01*
X93234174Y-64544603D01*
X92996079Y-64544603D01*
X92900840Y-64592222D01*
X92853221Y-64639841D01*
X92805602Y-64735079D01*
X92805602Y-64973174D01*
X92853221Y-65068412D01*
X92900840Y-65116031D01*
X92996079Y-65163650D01*
X93234174Y-65163650D01*
X93329412Y-65116031D01*
X93377031Y-65068412D01*
X91853221Y-65163650D02*
X92424650Y-65163650D01*
X92138936Y-65163650D02*
X92138936Y-64163650D01*
X92234174Y-64306508D01*
X92329412Y-64401746D01*
X92424650Y-64449365D01*
X115139880Y-60004761D02*
X114139880Y-60004761D01*
X114139880Y-60242857D01*
X114187500Y-60385714D01*
X114282738Y-60480952D01*
X114377976Y-60528571D01*
X114568452Y-60576190D01*
X114711309Y-60576190D01*
X114901785Y-60528571D01*
X114997023Y-60480952D01*
X115092261Y-60385714D01*
X115139880Y-60242857D01*
X115139880Y-60004761D01*
X115235119Y-60766666D02*
X115235119Y-61528571D01*
X114139880Y-62242857D02*
X114139880Y-61766666D01*
X114616071Y-61719047D01*
X114568452Y-61766666D01*
X114520833Y-61861904D01*
X114520833Y-62100000D01*
X114568452Y-62195238D01*
X114616071Y-62242857D01*
X114711309Y-62290476D01*
X114949404Y-62290476D01*
X115044642Y-62242857D01*
X115092261Y-62195238D01*
X115139880Y-62100000D01*
X115139880Y-61861904D01*
X115092261Y-61766666D01*
X115044642Y-61719047D01*
X114235119Y-62671428D02*
X114187500Y-62719047D01*
X114139880Y-62814285D01*
X114139880Y-63052380D01*
X114187500Y-63147619D01*
X114235119Y-63195238D01*
X114330357Y-63242857D01*
X114425595Y-63242857D01*
X114568452Y-63195238D01*
X115139880Y-62623809D01*
X115139880Y-63242857D01*
X122002380Y-51704761D02*
X121002380Y-51704761D01*
X121002380Y-51942857D01*
X121050000Y-52085714D01*
X121145238Y-52180952D01*
X121240476Y-52228571D01*
X121430952Y-52276190D01*
X121573809Y-52276190D01*
X121764285Y-52228571D01*
X121859523Y-52180952D01*
X121954761Y-52085714D01*
X122002380Y-51942857D01*
X122002380Y-51704761D01*
X122097619Y-52466666D02*
X122097619Y-53228571D01*
X121002380Y-53942857D02*
X121002380Y-53466666D01*
X121478571Y-53419047D01*
X121430952Y-53466666D01*
X121383333Y-53561904D01*
X121383333Y-53800000D01*
X121430952Y-53895238D01*
X121478571Y-53942857D01*
X121573809Y-53990476D01*
X121811904Y-53990476D01*
X121907142Y-53942857D01*
X121954761Y-53895238D01*
X122002380Y-53800000D01*
X122002380Y-53561904D01*
X121954761Y-53466666D01*
X121907142Y-53419047D01*
X121002380Y-54323809D02*
X121002380Y-54942857D01*
X121383333Y-54609523D01*
X121383333Y-54752380D01*
X121430952Y-54847619D01*
X121478571Y-54895238D01*
X121573809Y-54942857D01*
X121811904Y-54942857D01*
X121907142Y-54895238D01*
X121954761Y-54847619D01*
X122002380Y-54752380D01*
X122002380Y-54466666D01*
X121954761Y-54371428D01*
X121907142Y-54323809D01*
X153239880Y-60004761D02*
X152239880Y-60004761D01*
X152239880Y-60242857D01*
X152287500Y-60385714D01*
X152382738Y-60480952D01*
X152477976Y-60528571D01*
X152668452Y-60576190D01*
X152811309Y-60576190D01*
X153001785Y-60528571D01*
X153097023Y-60480952D01*
X153192261Y-60385714D01*
X153239880Y-60242857D01*
X153239880Y-60004761D01*
X153335119Y-60766666D02*
X153335119Y-61528571D01*
X152239880Y-62242857D02*
X152239880Y-61766666D01*
X152716071Y-61719047D01*
X152668452Y-61766666D01*
X152620833Y-61861904D01*
X152620833Y-62100000D01*
X152668452Y-62195238D01*
X152716071Y-62242857D01*
X152811309Y-62290476D01*
X153049404Y-62290476D01*
X153144642Y-62242857D01*
X153192261Y-62195238D01*
X153239880Y-62100000D01*
X153239880Y-61861904D01*
X153192261Y-61766666D01*
X153144642Y-61719047D01*
X152573214Y-63147619D02*
X153239880Y-63147619D01*
X152192261Y-62909523D02*
X152906547Y-62671428D01*
X152906547Y-63290476D01*
X172289880Y-60004761D02*
X171289880Y-60004761D01*
X171289880Y-60242857D01*
X171337500Y-60385714D01*
X171432738Y-60480952D01*
X171527976Y-60528571D01*
X171718452Y-60576190D01*
X171861309Y-60576190D01*
X172051785Y-60528571D01*
X172147023Y-60480952D01*
X172242261Y-60385714D01*
X172289880Y-60242857D01*
X172289880Y-60004761D01*
X172385119Y-60766666D02*
X172385119Y-61528571D01*
X171289880Y-62242857D02*
X171289880Y-61766666D01*
X171766071Y-61719047D01*
X171718452Y-61766666D01*
X171670833Y-61861904D01*
X171670833Y-62100000D01*
X171718452Y-62195238D01*
X171766071Y-62242857D01*
X171861309Y-62290476D01*
X172099404Y-62290476D01*
X172194642Y-62242857D01*
X172242261Y-62195238D01*
X172289880Y-62100000D01*
X172289880Y-61861904D01*
X172242261Y-61766666D01*
X172194642Y-61719047D01*
X171289880Y-63195238D02*
X171289880Y-62719047D01*
X171766071Y-62671428D01*
X171718452Y-62719047D01*
X171670833Y-62814285D01*
X171670833Y-63052380D01*
X171718452Y-63147619D01*
X171766071Y-63195238D01*
X171861309Y-63242857D01*
X172099404Y-63242857D01*
X172194642Y-63195238D01*
X172242261Y-63147619D01*
X172289880Y-63052380D01*
X172289880Y-62814285D01*
X172242261Y-62719047D01*
X172194642Y-62671428D01*
X191339880Y-60004761D02*
X190339880Y-60004761D01*
X190339880Y-60242857D01*
X190387500Y-60385714D01*
X190482738Y-60480952D01*
X190577976Y-60528571D01*
X190768452Y-60576190D01*
X190911309Y-60576190D01*
X191101785Y-60528571D01*
X191197023Y-60480952D01*
X191292261Y-60385714D01*
X191339880Y-60242857D01*
X191339880Y-60004761D01*
X191435119Y-60766666D02*
X191435119Y-61528571D01*
X190339880Y-62242857D02*
X190339880Y-61766666D01*
X190816071Y-61719047D01*
X190768452Y-61766666D01*
X190720833Y-61861904D01*
X190720833Y-62100000D01*
X190768452Y-62195238D01*
X190816071Y-62242857D01*
X190911309Y-62290476D01*
X191149404Y-62290476D01*
X191244642Y-62242857D01*
X191292261Y-62195238D01*
X191339880Y-62100000D01*
X191339880Y-61861904D01*
X191292261Y-61766666D01*
X191244642Y-61719047D01*
X190339880Y-63147619D02*
X190339880Y-62957142D01*
X190387500Y-62861904D01*
X190435119Y-62814285D01*
X190577976Y-62719047D01*
X190768452Y-62671428D01*
X191149404Y-62671428D01*
X191244642Y-62719047D01*
X191292261Y-62766666D01*
X191339880Y-62861904D01*
X191339880Y-63052380D01*
X191292261Y-63147619D01*
X191244642Y-63195238D01*
X191149404Y-63242857D01*
X190911309Y-63242857D01*
X190816071Y-63195238D01*
X190768452Y-63147619D01*
X190720833Y-63052380D01*
X190720833Y-62861904D01*
X190768452Y-62766666D01*
X190816071Y-62719047D01*
X190911309Y-62671428D01*
X210389880Y-60004761D02*
X209389880Y-60004761D01*
X209389880Y-60242857D01*
X209437500Y-60385714D01*
X209532738Y-60480952D01*
X209627976Y-60528571D01*
X209818452Y-60576190D01*
X209961309Y-60576190D01*
X210151785Y-60528571D01*
X210247023Y-60480952D01*
X210342261Y-60385714D01*
X210389880Y-60242857D01*
X210389880Y-60004761D01*
X210485119Y-60766666D02*
X210485119Y-61528571D01*
X209389880Y-62242857D02*
X209389880Y-61766666D01*
X209866071Y-61719047D01*
X209818452Y-61766666D01*
X209770833Y-61861904D01*
X209770833Y-62100000D01*
X209818452Y-62195238D01*
X209866071Y-62242857D01*
X209961309Y-62290476D01*
X210199404Y-62290476D01*
X210294642Y-62242857D01*
X210342261Y-62195238D01*
X210389880Y-62100000D01*
X210389880Y-61861904D01*
X210342261Y-61766666D01*
X210294642Y-61719047D01*
X209389880Y-62623809D02*
X209389880Y-63290476D01*
X210389880Y-62861904D01*
X229439880Y-60004761D02*
X228439880Y-60004761D01*
X228439880Y-60242857D01*
X228487500Y-60385714D01*
X228582738Y-60480952D01*
X228677976Y-60528571D01*
X228868452Y-60576190D01*
X229011309Y-60576190D01*
X229201785Y-60528571D01*
X229297023Y-60480952D01*
X229392261Y-60385714D01*
X229439880Y-60242857D01*
X229439880Y-60004761D01*
X229535119Y-60766666D02*
X229535119Y-61528571D01*
X228439880Y-62242857D02*
X228439880Y-61766666D01*
X228916071Y-61719047D01*
X228868452Y-61766666D01*
X228820833Y-61861904D01*
X228820833Y-62100000D01*
X228868452Y-62195238D01*
X228916071Y-62242857D01*
X229011309Y-62290476D01*
X229249404Y-62290476D01*
X229344642Y-62242857D01*
X229392261Y-62195238D01*
X229439880Y-62100000D01*
X229439880Y-61861904D01*
X229392261Y-61766666D01*
X229344642Y-61719047D01*
X228868452Y-62861904D02*
X228820833Y-62766666D01*
X228773214Y-62719047D01*
X228677976Y-62671428D01*
X228630357Y-62671428D01*
X228535119Y-62719047D01*
X228487500Y-62766666D01*
X228439880Y-62861904D01*
X228439880Y-63052380D01*
X228487500Y-63147619D01*
X228535119Y-63195238D01*
X228630357Y-63242857D01*
X228677976Y-63242857D01*
X228773214Y-63195238D01*
X228820833Y-63147619D01*
X228868452Y-63052380D01*
X228868452Y-62861904D01*
X228916071Y-62766666D01*
X228963690Y-62719047D01*
X229058928Y-62671428D01*
X229249404Y-62671428D01*
X229344642Y-62719047D01*
X229392261Y-62766666D01*
X229439880Y-62861904D01*
X229439880Y-63052380D01*
X229392261Y-63147619D01*
X229344642Y-63195238D01*
X229249404Y-63242857D01*
X229058928Y-63242857D01*
X228963690Y-63195238D01*
X228916071Y-63147619D01*
X228868452Y-63052380D01*
X255633630Y-60004761D02*
X254633630Y-60004761D01*
X254633630Y-60242857D01*
X254681250Y-60385714D01*
X254776488Y-60480952D01*
X254871726Y-60528571D01*
X255062202Y-60576190D01*
X255205059Y-60576190D01*
X255395535Y-60528571D01*
X255490773Y-60480952D01*
X255586011Y-60385714D01*
X255633630Y-60242857D01*
X255633630Y-60004761D01*
X255728869Y-60766666D02*
X255728869Y-61528571D01*
X254633630Y-62242857D02*
X254633630Y-61766666D01*
X255109821Y-61719047D01*
X255062202Y-61766666D01*
X255014583Y-61861904D01*
X255014583Y-62100000D01*
X255062202Y-62195238D01*
X255109821Y-62242857D01*
X255205059Y-62290476D01*
X255443154Y-62290476D01*
X255538392Y-62242857D01*
X255586011Y-62195238D01*
X255633630Y-62100000D01*
X255633630Y-61861904D01*
X255586011Y-61766666D01*
X255538392Y-61719047D01*
X255633630Y-62766666D02*
X255633630Y-62957142D01*
X255586011Y-63052380D01*
X255538392Y-63100000D01*
X255395535Y-63195238D01*
X255205059Y-63242857D01*
X254824107Y-63242857D01*
X254728869Y-63195238D01*
X254681250Y-63147619D01*
X254633630Y-63052380D01*
X254633630Y-62861904D01*
X254681250Y-62766666D01*
X254728869Y-62719047D01*
X254824107Y-62671428D01*
X255062202Y-62671428D01*
X255157440Y-62719047D01*
X255205059Y-62766666D01*
X255252678Y-62861904D01*
X255252678Y-63052380D01*
X255205059Y-63147619D01*
X255157440Y-63195238D01*
X255062202Y-63242857D01*
X29414880Y-79054761D02*
X28414880Y-79054761D01*
X28414880Y-79292857D01*
X28462500Y-79435714D01*
X28557738Y-79530952D01*
X28652976Y-79578571D01*
X28843452Y-79626190D01*
X28986309Y-79626190D01*
X29176785Y-79578571D01*
X29272023Y-79530952D01*
X29367261Y-79435714D01*
X29414880Y-79292857D01*
X29414880Y-79054761D01*
X29510119Y-79816666D02*
X29510119Y-80578571D01*
X28414880Y-81245238D02*
X28414880Y-81054761D01*
X28462500Y-80959523D01*
X28510119Y-80911904D01*
X28652976Y-80816666D01*
X28843452Y-80769047D01*
X29224404Y-80769047D01*
X29319642Y-80816666D01*
X29367261Y-80864285D01*
X29414880Y-80959523D01*
X29414880Y-81150000D01*
X29367261Y-81245238D01*
X29319642Y-81292857D01*
X29224404Y-81340476D01*
X28986309Y-81340476D01*
X28891071Y-81292857D01*
X28843452Y-81245238D01*
X28795833Y-81150000D01*
X28795833Y-80959523D01*
X28843452Y-80864285D01*
X28891071Y-80816666D01*
X28986309Y-80769047D01*
X28510119Y-81721428D02*
X28462500Y-81769047D01*
X28414880Y-81864285D01*
X28414880Y-82102380D01*
X28462500Y-82197619D01*
X28510119Y-82245238D01*
X28605357Y-82292857D01*
X28700595Y-82292857D01*
X28843452Y-82245238D01*
X29414880Y-81673809D01*
X29414880Y-82292857D01*
X48464880Y-79054761D02*
X47464880Y-79054761D01*
X47464880Y-79292857D01*
X47512500Y-79435714D01*
X47607738Y-79530952D01*
X47702976Y-79578571D01*
X47893452Y-79626190D01*
X48036309Y-79626190D01*
X48226785Y-79578571D01*
X48322023Y-79530952D01*
X48417261Y-79435714D01*
X48464880Y-79292857D01*
X48464880Y-79054761D01*
X48560119Y-79816666D02*
X48560119Y-80578571D01*
X47464880Y-81245238D02*
X47464880Y-81054761D01*
X47512500Y-80959523D01*
X47560119Y-80911904D01*
X47702976Y-80816666D01*
X47893452Y-80769047D01*
X48274404Y-80769047D01*
X48369642Y-80816666D01*
X48417261Y-80864285D01*
X48464880Y-80959523D01*
X48464880Y-81150000D01*
X48417261Y-81245238D01*
X48369642Y-81292857D01*
X48274404Y-81340476D01*
X48036309Y-81340476D01*
X47941071Y-81292857D01*
X47893452Y-81245238D01*
X47845833Y-81150000D01*
X47845833Y-80959523D01*
X47893452Y-80864285D01*
X47941071Y-80816666D01*
X48036309Y-80769047D01*
X47464880Y-81673809D02*
X47464880Y-82292857D01*
X47845833Y-81959523D01*
X47845833Y-82102380D01*
X47893452Y-82197619D01*
X47941071Y-82245238D01*
X48036309Y-82292857D01*
X48274404Y-82292857D01*
X48369642Y-82245238D01*
X48417261Y-82197619D01*
X48464880Y-82102380D01*
X48464880Y-81816666D01*
X48417261Y-81721428D01*
X48369642Y-81673809D01*
X67514880Y-79054761D02*
X66514880Y-79054761D01*
X66514880Y-79292857D01*
X66562500Y-79435714D01*
X66657738Y-79530952D01*
X66752976Y-79578571D01*
X66943452Y-79626190D01*
X67086309Y-79626190D01*
X67276785Y-79578571D01*
X67372023Y-79530952D01*
X67467261Y-79435714D01*
X67514880Y-79292857D01*
X67514880Y-79054761D01*
X67610119Y-79816666D02*
X67610119Y-80578571D01*
X66514880Y-81245238D02*
X66514880Y-81054761D01*
X66562500Y-80959523D01*
X66610119Y-80911904D01*
X66752976Y-80816666D01*
X66943452Y-80769047D01*
X67324404Y-80769047D01*
X67419642Y-80816666D01*
X67467261Y-80864285D01*
X67514880Y-80959523D01*
X67514880Y-81150000D01*
X67467261Y-81245238D01*
X67419642Y-81292857D01*
X67324404Y-81340476D01*
X67086309Y-81340476D01*
X66991071Y-81292857D01*
X66943452Y-81245238D01*
X66895833Y-81150000D01*
X66895833Y-80959523D01*
X66943452Y-80864285D01*
X66991071Y-80816666D01*
X67086309Y-80769047D01*
X66848214Y-82197619D02*
X67514880Y-82197619D01*
X66467261Y-81959523D02*
X67181547Y-81721428D01*
X67181547Y-82340476D01*
X116320238Y-80352380D02*
X116320238Y-79352380D01*
X116082142Y-79352380D01*
X115939285Y-79400000D01*
X115844047Y-79495238D01*
X115796428Y-79590476D01*
X115748809Y-79780952D01*
X115748809Y-79923809D01*
X115796428Y-80114285D01*
X115844047Y-80209523D01*
X115939285Y-80304761D01*
X116082142Y-80352380D01*
X116320238Y-80352380D01*
X115558333Y-80447619D02*
X114796428Y-80447619D01*
X114129761Y-79352380D02*
X114320238Y-79352380D01*
X114415476Y-79400000D01*
X114463095Y-79447619D01*
X114558333Y-79590476D01*
X114605952Y-79780952D01*
X114605952Y-80161904D01*
X114558333Y-80257142D01*
X114510714Y-80304761D01*
X114415476Y-80352380D01*
X114225000Y-80352380D01*
X114129761Y-80304761D01*
X114082142Y-80257142D01*
X114034523Y-80161904D01*
X114034523Y-79923809D01*
X114082142Y-79828571D01*
X114129761Y-79780952D01*
X114225000Y-79733333D01*
X114415476Y-79733333D01*
X114510714Y-79780952D01*
X114558333Y-79828571D01*
X114605952Y-79923809D01*
X113177380Y-79352380D02*
X113367857Y-79352380D01*
X113463095Y-79400000D01*
X113510714Y-79447619D01*
X113605952Y-79590476D01*
X113653571Y-79780952D01*
X113653571Y-80161904D01*
X113605952Y-80257142D01*
X113558333Y-80304761D01*
X113463095Y-80352380D01*
X113272619Y-80352380D01*
X113177380Y-80304761D01*
X113129761Y-80257142D01*
X113082142Y-80161904D01*
X113082142Y-79923809D01*
X113129761Y-79828571D01*
X113177380Y-79780952D01*
X113272619Y-79733333D01*
X113463095Y-79733333D01*
X113558333Y-79780952D01*
X113605952Y-79828571D01*
X113653571Y-79923809D01*
X152847885Y-80541877D02*
X152140778Y-79834771D01*
X151972419Y-80003129D01*
X151905076Y-80137816D01*
X151905076Y-80272503D01*
X151938748Y-80373519D01*
X152039763Y-80541877D01*
X152140778Y-80642893D01*
X152309137Y-80743908D01*
X152410152Y-80777580D01*
X152544839Y-80777580D01*
X152679526Y-80710236D01*
X152847885Y-80541877D01*
X152376480Y-81147969D02*
X151837732Y-81686717D01*
X150591877Y-81383671D02*
X150726564Y-81248984D01*
X150827580Y-81215312D01*
X150894923Y-81215312D01*
X151063282Y-81248984D01*
X151231641Y-81350000D01*
X151501015Y-81619374D01*
X151534687Y-81720389D01*
X151534687Y-81787732D01*
X151501015Y-81888748D01*
X151366328Y-82023435D01*
X151265312Y-82057106D01*
X151197969Y-82057106D01*
X151096954Y-82023435D01*
X150928595Y-81855076D01*
X150894923Y-81754061D01*
X150894923Y-81686717D01*
X150928595Y-81585702D01*
X151063282Y-81451015D01*
X151164297Y-81417343D01*
X151231641Y-81417343D01*
X151332656Y-81451015D01*
X150288832Y-81686717D02*
X149817427Y-82158122D01*
X150827580Y-82562183D01*
X181814880Y-79054761D02*
X180814880Y-79054761D01*
X180814880Y-79292857D01*
X180862500Y-79435714D01*
X180957738Y-79530952D01*
X181052976Y-79578571D01*
X181243452Y-79626190D01*
X181386309Y-79626190D01*
X181576785Y-79578571D01*
X181672023Y-79530952D01*
X181767261Y-79435714D01*
X181814880Y-79292857D01*
X181814880Y-79054761D01*
X181910119Y-79816666D02*
X181910119Y-80578571D01*
X180814880Y-81245238D02*
X180814880Y-81054761D01*
X180862500Y-80959523D01*
X180910119Y-80911904D01*
X181052976Y-80816666D01*
X181243452Y-80769047D01*
X181624404Y-80769047D01*
X181719642Y-80816666D01*
X181767261Y-80864285D01*
X181814880Y-80959523D01*
X181814880Y-81150000D01*
X181767261Y-81245238D01*
X181719642Y-81292857D01*
X181624404Y-81340476D01*
X181386309Y-81340476D01*
X181291071Y-81292857D01*
X181243452Y-81245238D01*
X181195833Y-81150000D01*
X181195833Y-80959523D01*
X181243452Y-80864285D01*
X181291071Y-80816666D01*
X181386309Y-80769047D01*
X181243452Y-81911904D02*
X181195833Y-81816666D01*
X181148214Y-81769047D01*
X181052976Y-81721428D01*
X181005357Y-81721428D01*
X180910119Y-81769047D01*
X180862500Y-81816666D01*
X180814880Y-81911904D01*
X180814880Y-82102380D01*
X180862500Y-82197619D01*
X180910119Y-82245238D01*
X181005357Y-82292857D01*
X181052976Y-82292857D01*
X181148214Y-82245238D01*
X181195833Y-82197619D01*
X181243452Y-82102380D01*
X181243452Y-81911904D01*
X181291071Y-81816666D01*
X181338690Y-81769047D01*
X181433928Y-81721428D01*
X181624404Y-81721428D01*
X181719642Y-81769047D01*
X181767261Y-81816666D01*
X181814880Y-81911904D01*
X181814880Y-82102380D01*
X181767261Y-82197619D01*
X181719642Y-82245238D01*
X181624404Y-82292857D01*
X181433928Y-82292857D01*
X181338690Y-82245238D01*
X181291071Y-82197619D01*
X181243452Y-82102380D01*
X200864880Y-79054761D02*
X199864880Y-79054761D01*
X199864880Y-79292857D01*
X199912500Y-79435714D01*
X200007738Y-79530952D01*
X200102976Y-79578571D01*
X200293452Y-79626190D01*
X200436309Y-79626190D01*
X200626785Y-79578571D01*
X200722023Y-79530952D01*
X200817261Y-79435714D01*
X200864880Y-79292857D01*
X200864880Y-79054761D01*
X200960119Y-79816666D02*
X200960119Y-80578571D01*
X199864880Y-81245238D02*
X199864880Y-81054761D01*
X199912500Y-80959523D01*
X199960119Y-80911904D01*
X200102976Y-80816666D01*
X200293452Y-80769047D01*
X200674404Y-80769047D01*
X200769642Y-80816666D01*
X200817261Y-80864285D01*
X200864880Y-80959523D01*
X200864880Y-81150000D01*
X200817261Y-81245238D01*
X200769642Y-81292857D01*
X200674404Y-81340476D01*
X200436309Y-81340476D01*
X200341071Y-81292857D01*
X200293452Y-81245238D01*
X200245833Y-81150000D01*
X200245833Y-80959523D01*
X200293452Y-80864285D01*
X200341071Y-80816666D01*
X200436309Y-80769047D01*
X200864880Y-81816666D02*
X200864880Y-82007142D01*
X200817261Y-82102380D01*
X200769642Y-82150000D01*
X200626785Y-82245238D01*
X200436309Y-82292857D01*
X200055357Y-82292857D01*
X199960119Y-82245238D01*
X199912500Y-82197619D01*
X199864880Y-82102380D01*
X199864880Y-81911904D01*
X199912500Y-81816666D01*
X199960119Y-81769047D01*
X200055357Y-81721428D01*
X200293452Y-81721428D01*
X200388690Y-81769047D01*
X200436309Y-81816666D01*
X200483928Y-81911904D01*
X200483928Y-82102380D01*
X200436309Y-82197619D01*
X200388690Y-82245238D01*
X200293452Y-82292857D01*
X219914880Y-79054761D02*
X218914880Y-79054761D01*
X218914880Y-79292857D01*
X218962500Y-79435714D01*
X219057738Y-79530952D01*
X219152976Y-79578571D01*
X219343452Y-79626190D01*
X219486309Y-79626190D01*
X219676785Y-79578571D01*
X219772023Y-79530952D01*
X219867261Y-79435714D01*
X219914880Y-79292857D01*
X219914880Y-79054761D01*
X220010119Y-79816666D02*
X220010119Y-80578571D01*
X218914880Y-80721428D02*
X218914880Y-81388095D01*
X219914880Y-80959523D01*
X218914880Y-81959523D02*
X218914880Y-82054761D01*
X218962500Y-82150000D01*
X219010119Y-82197619D01*
X219105357Y-82245238D01*
X219295833Y-82292857D01*
X219533928Y-82292857D01*
X219724404Y-82245238D01*
X219819642Y-82197619D01*
X219867261Y-82150000D01*
X219914880Y-82054761D01*
X219914880Y-81959523D01*
X219867261Y-81864285D01*
X219819642Y-81816666D01*
X219724404Y-81769047D01*
X219533928Y-81721428D01*
X219295833Y-81721428D01*
X219105357Y-81769047D01*
X219010119Y-81816666D01*
X218962500Y-81864285D01*
X218914880Y-81959523D01*
X241346130Y-79054761D02*
X240346130Y-79054761D01*
X240346130Y-79292857D01*
X240393750Y-79435714D01*
X240488988Y-79530952D01*
X240584226Y-79578571D01*
X240774702Y-79626190D01*
X240917559Y-79626190D01*
X241108035Y-79578571D01*
X241203273Y-79530952D01*
X241298511Y-79435714D01*
X241346130Y-79292857D01*
X241346130Y-79054761D01*
X241441369Y-79816666D02*
X241441369Y-80578571D01*
X240346130Y-80721428D02*
X240346130Y-81388095D01*
X241346130Y-80959523D01*
X241346130Y-82292857D02*
X241346130Y-81721428D01*
X241346130Y-82007142D02*
X240346130Y-82007142D01*
X240488988Y-81911904D01*
X240584226Y-81816666D01*
X240631845Y-81721428D01*
X262777380Y-79054761D02*
X261777380Y-79054761D01*
X261777380Y-79292857D01*
X261825000Y-79435714D01*
X261920238Y-79530952D01*
X262015476Y-79578571D01*
X262205952Y-79626190D01*
X262348809Y-79626190D01*
X262539285Y-79578571D01*
X262634523Y-79530952D01*
X262729761Y-79435714D01*
X262777380Y-79292857D01*
X262777380Y-79054761D01*
X262872619Y-79816666D02*
X262872619Y-80578571D01*
X261777380Y-80721428D02*
X261777380Y-81388095D01*
X262777380Y-80959523D01*
X261872619Y-81721428D02*
X261825000Y-81769047D01*
X261777380Y-81864285D01*
X261777380Y-82102380D01*
X261825000Y-82197619D01*
X261872619Y-82245238D01*
X261967857Y-82292857D01*
X262063095Y-82292857D01*
X262205952Y-82245238D01*
X262777380Y-81673809D01*
X262777380Y-82292857D01*
X300877380Y-79054761D02*
X299877380Y-79054761D01*
X299877380Y-79292857D01*
X299925000Y-79435714D01*
X300020238Y-79530952D01*
X300115476Y-79578571D01*
X300305952Y-79626190D01*
X300448809Y-79626190D01*
X300639285Y-79578571D01*
X300734523Y-79530952D01*
X300829761Y-79435714D01*
X300877380Y-79292857D01*
X300877380Y-79054761D01*
X300972619Y-79816666D02*
X300972619Y-80578571D01*
X299877380Y-80721428D02*
X299877380Y-81388095D01*
X300877380Y-80959523D01*
X300210714Y-82197619D02*
X300877380Y-82197619D01*
X299829761Y-81959523D02*
X300544047Y-81721428D01*
X300544047Y-82340476D01*
X2183333Y2571428D02*
X2516666Y2571428D01*
X2516666Y2047619D02*
X2516666Y3047619D01*
X2040476Y3047619D01*
X1135714Y2047619D02*
X1707142Y2047619D01*
X1421428Y2047619D02*
X1421428Y3047619D01*
X1516666Y2904761D01*
X1611904Y2809523D01*
X1707142Y2761904D01*
X1978571Y-2016666D02*
X1978571Y-1683333D01*
X2502380Y-1683333D02*
X1502380Y-1683333D01*
X1502380Y-2159523D01*
X1978571Y-2873809D02*
X2026190Y-3016666D01*
X2073809Y-3064285D01*
X2169047Y-3111904D01*
X2311904Y-3111904D01*
X2407142Y-3064285D01*
X2454761Y-3016666D01*
X2502380Y-2921428D01*
X2502380Y-2540476D01*
X1502380Y-2540476D01*
X1502380Y-2873809D01*
X1550000Y-2969047D01*
X1597619Y-3016666D01*
X1692857Y-3064285D01*
X1788095Y-3064285D01*
X1883333Y-3016666D01*
X1930952Y-2969047D01*
X1978571Y-2873809D01*
X1978571Y-2540476D01*
X2502380Y-4064285D02*
X2502380Y-3492857D01*
X2502380Y-3778571D02*
X1502380Y-3778571D01*
X1645238Y-3683333D01*
X1740476Y-3588095D01*
X1788095Y-3492857D01*
X143566666Y-74452380D02*
X143900000Y-73976190D01*
X144138095Y-74452380D02*
X144138095Y-73452380D01*
X143757142Y-73452380D01*
X143661904Y-73500000D01*
X143614285Y-73547619D01*
X143566666Y-73642857D01*
X143566666Y-73785714D01*
X143614285Y-73880952D01*
X143661904Y-73928571D01*
X143757142Y-73976190D01*
X144138095Y-73976190D01*
X142709523Y-73452380D02*
X142900000Y-73452380D01*
X142995238Y-73500000D01*
X143042857Y-73547619D01*
X143138095Y-73690476D01*
X143185714Y-73880952D01*
X143185714Y-74261904D01*
X143138095Y-74357142D01*
X143090476Y-74404761D01*
X142995238Y-74452380D01*
X142804761Y-74452380D01*
X142709523Y-74404761D01*
X142661904Y-74357142D01*
X142614285Y-74261904D01*
X142614285Y-74023809D01*
X142661904Y-73928571D01*
X142709523Y-73880952D01*
X142804761Y-73833333D01*
X142995238Y-73833333D01*
X143090476Y-73880952D01*
X143138095Y-73928571D01*
X143185714Y-74023809D01*
X24066666Y-29852380D02*
X24400000Y-29376190D01*
X24638095Y-29852380D02*
X24638095Y-28852380D01*
X24257142Y-28852380D01*
X24161904Y-28900000D01*
X24114285Y-28947619D01*
X24066666Y-29042857D01*
X24066666Y-29185714D01*
X24114285Y-29280952D01*
X24161904Y-29328571D01*
X24257142Y-29376190D01*
X24638095Y-29376190D01*
X23733333Y-28852380D02*
X23066666Y-28852380D01*
X23495238Y-29852380D01*
X12761904Y-4102380D02*
X12761904Y-4911904D01*
X12714285Y-5007142D01*
X12666666Y-5054761D01*
X12571428Y-5102380D01*
X12380952Y-5102380D01*
X12285714Y-5054761D01*
X12238095Y-5007142D01*
X12190476Y-4911904D01*
X12190476Y-4102380D01*
X11761904Y-4197619D02*
X11714285Y-4150000D01*
X11619047Y-4102380D01*
X11380952Y-4102380D01*
X11285714Y-4150000D01*
X11238095Y-4197619D01*
X11190476Y-4292857D01*
X11190476Y-4388095D01*
X11238095Y-4530952D01*
X11809523Y-5102380D01*
X11190476Y-5102380D01*
X7452380Y-533333D02*
X6976190Y-200000D01*
X7452380Y38095D02*
X6452380Y38095D01*
X6452380Y-342857D01*
X6500000Y-438095D01*
X6547619Y-485714D01*
X6642857Y-533333D01*
X6785714Y-533333D01*
X6880952Y-485714D01*
X6928571Y-438095D01*
X6976190Y-342857D01*
X6976190Y38095D01*
X6452380Y-866666D02*
X6452380Y-1485714D01*
X6833333Y-1152380D01*
X6833333Y-1295238D01*
X6880952Y-1390476D01*
X6928571Y-1438095D01*
X7023809Y-1485714D01*
X7261904Y-1485714D01*
X7357142Y-1438095D01*
X7404761Y-1390476D01*
X7452380Y-1295238D01*
X7452380Y-1009523D01*
X7404761Y-914285D01*
X7357142Y-866666D01*
X17702380Y-1383333D02*
X17226190Y-1050000D01*
X17702380Y-811904D02*
X16702380Y-811904D01*
X16702380Y-1192857D01*
X16750000Y-1288095D01*
X16797619Y-1335714D01*
X16892857Y-1383333D01*
X17035714Y-1383333D01*
X17130952Y-1335714D01*
X17178571Y-1288095D01*
X17226190Y-1192857D01*
X17226190Y-811904D01*
X17035714Y-2240476D02*
X17702380Y-2240476D01*
X16654761Y-2002380D02*
X17369047Y-1764285D01*
X17369047Y-2383333D01*
X7983630Y-79054761D02*
X6983630Y-79054761D01*
X6983630Y-79292857D01*
X7031250Y-79435714D01*
X7126488Y-79530952D01*
X7221726Y-79578571D01*
X7412202Y-79626190D01*
X7555059Y-79626190D01*
X7745535Y-79578571D01*
X7840773Y-79530952D01*
X7936011Y-79435714D01*
X7983630Y-79292857D01*
X7983630Y-79054761D01*
X8078869Y-79816666D02*
X8078869Y-80578571D01*
X6983630Y-81245238D02*
X6983630Y-81054761D01*
X7031250Y-80959523D01*
X7078869Y-80911904D01*
X7221726Y-80816666D01*
X7412202Y-80769047D01*
X7793154Y-80769047D01*
X7888392Y-80816666D01*
X7936011Y-80864285D01*
X7983630Y-80959523D01*
X7983630Y-81150000D01*
X7936011Y-81245238D01*
X7888392Y-81292857D01*
X7793154Y-81340476D01*
X7555059Y-81340476D01*
X7459821Y-81292857D01*
X7412202Y-81245238D01*
X7364583Y-81150000D01*
X7364583Y-80959523D01*
X7412202Y-80864285D01*
X7459821Y-80816666D01*
X7555059Y-80769047D01*
X7983630Y-82292857D02*
X7983630Y-81721428D01*
X7983630Y-82007142D02*
X6983630Y-82007142D01*
X7126488Y-81911904D01*
X7221726Y-81816666D01*
X7269345Y-81721428D01*
X132802380Y-79940476D02*
X133802380Y-80607142D01*
X132802380Y-80607142D02*
X133802380Y-79940476D01*
X133802380Y-81511904D02*
X133802380Y-80940476D01*
X133802380Y-81226190D02*
X132802380Y-81226190D01*
X132945238Y-81130952D01*
X133040476Y-81035714D01*
X133088095Y-80940476D01*
D10*
X12083333Y6297619D02*
X12083333Y5583333D01*
X12130952Y5440476D01*
X12226190Y5345238D01*
X12369047Y5297619D01*
X12464285Y5297619D01*
X11083333Y5297619D02*
X11654761Y5297619D01*
X11369047Y5297619D02*
X11369047Y6297619D01*
X11464285Y6154761D01*
X11559523Y6059523D01*
X11654761Y6011904D01*
D11*
X86564880Y-79054761D02*
X85564880Y-79054761D01*
X85564880Y-79292857D01*
X85612500Y-79435714D01*
X85707738Y-79530952D01*
X85802976Y-79578571D01*
X85993452Y-79626190D01*
X86136309Y-79626190D01*
X86326785Y-79578571D01*
X86422023Y-79530952D01*
X86517261Y-79435714D01*
X86564880Y-79292857D01*
X86564880Y-79054761D01*
X86660119Y-79816666D02*
X86660119Y-80578571D01*
X85564880Y-81245238D02*
X85564880Y-81054761D01*
X85612500Y-80959523D01*
X85660119Y-80911904D01*
X85802976Y-80816666D01*
X85993452Y-80769047D01*
X86374404Y-80769047D01*
X86469642Y-80816666D01*
X86517261Y-80864285D01*
X86564880Y-80959523D01*
X86564880Y-81150000D01*
X86517261Y-81245238D01*
X86469642Y-81292857D01*
X86374404Y-81340476D01*
X86136309Y-81340476D01*
X86041071Y-81292857D01*
X85993452Y-81245238D01*
X85945833Y-81150000D01*
X85945833Y-80959523D01*
X85993452Y-80864285D01*
X86041071Y-80816666D01*
X86136309Y-80769047D01*
X85564880Y-82245238D02*
X85564880Y-81769047D01*
X86041071Y-81721428D01*
X85993452Y-81769047D01*
X85945833Y-81864285D01*
X85945833Y-82102380D01*
X85993452Y-82197619D01*
X86041071Y-82245238D01*
X86136309Y-82292857D01*
X86374404Y-82292857D01*
X86469642Y-82245238D01*
X86517261Y-82197619D01*
X86564880Y-82102380D01*
X86564880Y-81864285D01*
X86517261Y-81769047D01*
X86469642Y-81721428D01*
X281827380Y-60004761D02*
X280827380Y-60004761D01*
X280827380Y-60242857D01*
X280875000Y-60385714D01*
X280970238Y-60480952D01*
X281065476Y-60528571D01*
X281255952Y-60576190D01*
X281398809Y-60576190D01*
X281589285Y-60528571D01*
X281684523Y-60480952D01*
X281779761Y-60385714D01*
X281827380Y-60242857D01*
X281827380Y-60004761D01*
X281922619Y-60766666D02*
X281922619Y-61528571D01*
X280827380Y-62195238D02*
X280827380Y-62004761D01*
X280875000Y-61909523D01*
X280922619Y-61861904D01*
X281065476Y-61766666D01*
X281255952Y-61719047D01*
X281636904Y-61719047D01*
X281732142Y-61766666D01*
X281779761Y-61814285D01*
X281827380Y-61909523D01*
X281827380Y-62100000D01*
X281779761Y-62195238D01*
X281732142Y-62242857D01*
X281636904Y-62290476D01*
X281398809Y-62290476D01*
X281303571Y-62242857D01*
X281255952Y-62195238D01*
X281208333Y-62100000D01*
X281208333Y-61909523D01*
X281255952Y-61814285D01*
X281303571Y-61766666D01*
X281398809Y-61719047D01*
X280827380Y-62909523D02*
X280827380Y-63004761D01*
X280875000Y-63100000D01*
X280922619Y-63147619D01*
X281017857Y-63195238D01*
X281208333Y-63242857D01*
X281446428Y-63242857D01*
X281636904Y-63195238D01*
X281732142Y-63147619D01*
X281779761Y-63100000D01*
X281827380Y-63004761D01*
X281827380Y-62909523D01*
X281779761Y-62814285D01*
X281732142Y-62766666D01*
X281636904Y-62719047D01*
X281446428Y-62671428D01*
X281208333Y-62671428D01*
X281017857Y-62719047D01*
X280922619Y-62766666D01*
X280875000Y-62814285D01*
X280827380Y-62909523D01*
X281827380Y-79054761D02*
X280827380Y-79054761D01*
X280827380Y-79292857D01*
X280875000Y-79435714D01*
X280970238Y-79530952D01*
X281065476Y-79578571D01*
X281255952Y-79626190D01*
X281398809Y-79626190D01*
X281589285Y-79578571D01*
X281684523Y-79530952D01*
X281779761Y-79435714D01*
X281827380Y-79292857D01*
X281827380Y-79054761D01*
X281922619Y-79816666D02*
X281922619Y-80578571D01*
X280827380Y-80721428D02*
X280827380Y-81388095D01*
X281827380Y-80959523D01*
X280827380Y-81673809D02*
X280827380Y-82292857D01*
X281208333Y-81959523D01*
X281208333Y-82102380D01*
X281255952Y-82197619D01*
X281303571Y-82245238D01*
X281398809Y-82292857D01*
X281636904Y-82292857D01*
X281732142Y-82245238D01*
X281779761Y-82197619D01*
X281827380Y-82102380D01*
X281827380Y-81816666D01*
X281779761Y-81721428D01*
X281732142Y-81673809D01*
X300877380Y-21904761D02*
X299877380Y-21904761D01*
X299877380Y-22142857D01*
X299925000Y-22285714D01*
X300020238Y-22380952D01*
X300115476Y-22428571D01*
X300305952Y-22476190D01*
X300448809Y-22476190D01*
X300639285Y-22428571D01*
X300734523Y-22380952D01*
X300829761Y-22285714D01*
X300877380Y-22142857D01*
X300877380Y-21904761D01*
X300972619Y-22666666D02*
X300972619Y-23428571D01*
X299877380Y-23571428D02*
X299877380Y-24190476D01*
X300258333Y-23857142D01*
X300258333Y-24000000D01*
X300305952Y-24095238D01*
X300353571Y-24142857D01*
X300448809Y-24190476D01*
X300686904Y-24190476D01*
X300782142Y-24142857D01*
X300829761Y-24095238D01*
X300877380Y-24000000D01*
X300877380Y-23714285D01*
X300829761Y-23619047D01*
X300782142Y-23571428D01*
X299972619Y-24571428D02*
X299925000Y-24619047D01*
X299877380Y-24714285D01*
X299877380Y-24952380D01*
X299925000Y-25047619D01*
X299972619Y-25095238D01*
X300067857Y-25142857D01*
X300163095Y-25142857D01*
X300305952Y-25095238D01*
X300877380Y-24523809D01*
X300877380Y-25142857D01*
M02*
