G04 #@! TF.GenerationSoftware,KiCad,Pcbnew,(5.1.8)-1*
G04 #@! TF.CreationDate,2021-02-07T11:47:01-08:00*
G04 #@! TF.ProjectId,Spritzgeback,53707269-747a-4676-9562-61636b2e6b69,rev?*
G04 #@! TF.SameCoordinates,Original*
G04 #@! TF.FileFunction,Soldermask,Top*
G04 #@! TF.FilePolarity,Negative*
%FSLAX46Y46*%
G04 Gerber Fmt 4.6, Leading zero omitted, Abs format (unit mm)*
G04 Created by KiCad (PCBNEW (5.1.8)-1) date 2021-02-07 11:47:01*
%MOMM*%
%LPD*%
G01*
G04 APERTURE LIST*
%ADD10C,4.462400*%
%ADD11C,2.032000*%
%ADD12C,5.000000*%
%ADD13C,1.701800*%
%ADD14C,0.700000*%
%ADD15O,1.050000X2.100000*%
G04 APERTURE END LIST*
D10*
X236925000Y-61450000D03*
X39300000Y-61450000D03*
X100400000Y-80500000D03*
X285750000Y-9525000D03*
X147637500Y-9525000D03*
X52387500Y-9525000D03*
D11*
X255031250Y-52000000D03*
X250031250Y-63050000D03*
X245031250Y-60950000D03*
D12*
X250031250Y-57150000D03*
D13*
X255531250Y-57150000D03*
X244531250Y-57150000D03*
D11*
X31193750Y-52000000D03*
X26193750Y-63050000D03*
X21193750Y-60950000D03*
D12*
X26193750Y-57150000D03*
D13*
X31693750Y-57150000D03*
X20693750Y-57150000D03*
D11*
X7381250Y-71050000D03*
X2381250Y-82100000D03*
X-2618750Y-80000000D03*
D12*
X2381250Y-76200000D03*
D13*
X7881250Y-76200000D03*
X-3118750Y-76200000D03*
D11*
X240743750Y-71050000D03*
X235743750Y-82100000D03*
X230743750Y-80000000D03*
D12*
X235743750Y-76200000D03*
D13*
X241243750Y-76200000D03*
X230243750Y-76200000D03*
D11*
X148050000Y-72800000D03*
X144050000Y-72800000D03*
G36*
G01*
X25325000Y-32993750D02*
X25325000Y-33906250D01*
G75*
G02*
X25081250Y-34150000I-243750J0D01*
G01*
X24593750Y-34150000D01*
G75*
G02*
X24350000Y-33906250I0J243750D01*
G01*
X24350000Y-32993750D01*
G75*
G02*
X24593750Y-32750000I243750J0D01*
G01*
X25081250Y-32750000D01*
G75*
G02*
X25325000Y-32993750I0J-243750D01*
G01*
G37*
G36*
G01*
X23450000Y-32993750D02*
X23450000Y-33906250D01*
G75*
G02*
X23206250Y-34150000I-243750J0D01*
G01*
X22718750Y-34150000D01*
G75*
G02*
X22475000Y-33906250I0J243750D01*
G01*
X22475000Y-32993750D01*
G75*
G02*
X22718750Y-32750000I243750J0D01*
G01*
X23206250Y-32750000D01*
G75*
G02*
X23450000Y-32993750I0J-243750D01*
G01*
G37*
D14*
X14790000Y3500000D03*
X9010000Y3500000D03*
D15*
X16220000Y7150000D03*
X7580000Y7150000D03*
X16220000Y2970000D03*
X7580000Y2970000D03*
D11*
X5000000Y5150000D03*
X0Y-5900000D03*
X-5000000Y-3800000D03*
D12*
X0Y0D03*
D13*
X5500000Y0D03*
X-5500000Y0D03*
X18312500Y0D03*
X29312500Y0D03*
D12*
X23812500Y0D03*
D11*
X18812500Y-3800000D03*
X23812500Y-5900000D03*
X28812500Y5150000D03*
X47862500Y5150000D03*
X42862500Y-5900000D03*
X37862500Y-3800000D03*
D12*
X42862500Y0D03*
D13*
X48362500Y0D03*
X37362500Y0D03*
X56412500Y0D03*
X67412500Y0D03*
D12*
X61912500Y0D03*
D11*
X56912500Y-3800000D03*
X61912500Y-5900000D03*
X66912500Y5150000D03*
X85962500Y5150000D03*
X80962500Y-5900000D03*
X75962500Y-3800000D03*
D12*
X80962500Y0D03*
D13*
X86462500Y0D03*
X75462500Y0D03*
D11*
X105012500Y5150000D03*
X100012500Y-5900000D03*
X95012500Y-3800000D03*
D12*
X100012500Y0D03*
D13*
X105512500Y0D03*
X94512500Y0D03*
D11*
X124062500Y5150000D03*
X119062500Y-5900000D03*
X114062500Y-3800000D03*
D12*
X119062500Y0D03*
D13*
X124562500Y0D03*
X113562500Y0D03*
X132612500Y0D03*
X143612500Y0D03*
D12*
X138112500Y0D03*
D11*
X133112500Y-3800000D03*
X138112500Y-5900000D03*
X143112500Y5150000D03*
X162162500Y5150000D03*
X157162500Y-5900000D03*
X152162500Y-3800000D03*
D12*
X157162500Y0D03*
D13*
X162662500Y0D03*
X151662500Y0D03*
X170712500Y0D03*
X181712500Y0D03*
D12*
X176212500Y0D03*
D11*
X171212500Y-3800000D03*
X176212500Y-5900000D03*
X181212500Y5150000D03*
X200262500Y5150000D03*
X195262500Y-5900000D03*
X190262500Y-3800000D03*
D12*
X195262500Y0D03*
D13*
X200762500Y0D03*
X189762500Y0D03*
D11*
X219312500Y5150000D03*
X214312500Y-5900000D03*
X209312500Y-3800000D03*
D12*
X214312500Y0D03*
D13*
X219812500Y0D03*
X208812500Y0D03*
X227862500Y0D03*
X238862500Y0D03*
D12*
X233362500Y0D03*
D11*
X228362500Y-3800000D03*
X233362500Y-5900000D03*
X238362500Y5150000D03*
X257412500Y5150000D03*
X252412500Y-5900000D03*
X247412500Y-3800000D03*
D12*
X252412500Y0D03*
D13*
X257912500Y0D03*
X246912500Y0D03*
X289775000Y0D03*
X300775000Y0D03*
D12*
X295275000Y0D03*
D11*
X290275000Y-3800000D03*
X295275000Y-5900000D03*
X300275000Y5150000D03*
X5000000Y-13900000D03*
X0Y-24950000D03*
X-5000000Y-22850000D03*
D12*
X0Y-19050000D03*
D13*
X5500000Y-19050000D03*
X-5500000Y-19050000D03*
X18312500Y-19050000D03*
X29312500Y-19050000D03*
D12*
X23812500Y-19050000D03*
D11*
X18812500Y-22850000D03*
X23812500Y-24950000D03*
X28812500Y-13900000D03*
X47862500Y-13900000D03*
X42862500Y-24950000D03*
X37862500Y-22850000D03*
D12*
X42862500Y-19050000D03*
D13*
X48362500Y-19050000D03*
X37362500Y-19050000D03*
X56412500Y-19050000D03*
X67412500Y-19050000D03*
D12*
X61912500Y-19050000D03*
D11*
X56912500Y-22850000D03*
X61912500Y-24950000D03*
X66912500Y-13900000D03*
D13*
X75462500Y-19050000D03*
X86462500Y-19050000D03*
D12*
X80962500Y-19050000D03*
D11*
X75962500Y-22850000D03*
X80962500Y-24950000D03*
X85962500Y-13900000D03*
D13*
X94512500Y-19050000D03*
X105512500Y-19050000D03*
D12*
X100012500Y-19050000D03*
D11*
X95012500Y-22850000D03*
X100012500Y-24950000D03*
X105012500Y-13900000D03*
X124062500Y-13900000D03*
X119062500Y-24950000D03*
X114062500Y-22850000D03*
D12*
X119062500Y-19050000D03*
D13*
X124562500Y-19050000D03*
X113562500Y-19050000D03*
X132612500Y-19050000D03*
X143612500Y-19050000D03*
D12*
X138112500Y-19050000D03*
D11*
X133112500Y-22850000D03*
X138112500Y-24950000D03*
X143112500Y-13900000D03*
X162162500Y-13900000D03*
X157162500Y-24950000D03*
X152162500Y-22850000D03*
D12*
X157162500Y-19050000D03*
D13*
X162662500Y-19050000D03*
X151662500Y-19050000D03*
X170712500Y-19050000D03*
X181712500Y-19050000D03*
D12*
X176212500Y-19050000D03*
D11*
X171212500Y-22850000D03*
X176212500Y-24950000D03*
X181212500Y-13900000D03*
X200262500Y-13900000D03*
X195262500Y-24950000D03*
X190262500Y-22850000D03*
D12*
X195262500Y-19050000D03*
D13*
X200762500Y-19050000D03*
X189762500Y-19050000D03*
X208812500Y-19050000D03*
X219812500Y-19050000D03*
D12*
X214312500Y-19050000D03*
D11*
X209312500Y-22850000D03*
X214312500Y-24950000D03*
X219312500Y-13900000D03*
X238362500Y-13900000D03*
X233362500Y-24950000D03*
X228362500Y-22850000D03*
D12*
X233362500Y-19050000D03*
D13*
X238862500Y-19050000D03*
X227862500Y-19050000D03*
X246912500Y-19050000D03*
X257912500Y-19050000D03*
D12*
X252412500Y-19050000D03*
D11*
X247412500Y-22850000D03*
X252412500Y-24950000D03*
X257412500Y-13900000D03*
X281225000Y5150000D03*
X276225000Y-5900000D03*
X271225000Y-3800000D03*
D12*
X276225000Y0D03*
D13*
X281725000Y0D03*
X270725000Y0D03*
X-5500000Y-38100000D03*
X5500000Y-38100000D03*
D12*
X0Y-38100000D03*
D11*
X-5000000Y-41900000D03*
X0Y-44000000D03*
X5000000Y-32950000D03*
D13*
X18312500Y-38100000D03*
X29312500Y-38100000D03*
D12*
X23812500Y-38100000D03*
D11*
X18812500Y-41900000D03*
X23812500Y-44000000D03*
X28812500Y-32950000D03*
X47862500Y-32950000D03*
X42862500Y-44000000D03*
X37862500Y-41900000D03*
D12*
X42862500Y-38100000D03*
D13*
X48362500Y-38100000D03*
X37362500Y-38100000D03*
D11*
X66912500Y-32950000D03*
X61912500Y-44000000D03*
X56912500Y-41900000D03*
D12*
X61912500Y-38100000D03*
D13*
X67412500Y-38100000D03*
X56412500Y-38100000D03*
D11*
X85962500Y-32950000D03*
X80962500Y-44000000D03*
X75962500Y-41900000D03*
D12*
X80962500Y-38100000D03*
D13*
X86462500Y-38100000D03*
X75462500Y-38100000D03*
X94512500Y-38100000D03*
X105512500Y-38100000D03*
D12*
X100012500Y-38100000D03*
D11*
X95012500Y-41900000D03*
X100012500Y-44000000D03*
X105012500Y-32950000D03*
X124062500Y-32950000D03*
X119062500Y-44000000D03*
X114062500Y-41900000D03*
D12*
X119062500Y-38100000D03*
D13*
X124562500Y-38100000D03*
X113562500Y-38100000D03*
X132612500Y-38100000D03*
X143612500Y-38100000D03*
D12*
X138112500Y-38100000D03*
D11*
X133112500Y-41900000D03*
X138112500Y-44000000D03*
X143112500Y-32950000D03*
X162162500Y-32950000D03*
X157162500Y-44000000D03*
X152162500Y-41900000D03*
D12*
X157162500Y-38100000D03*
D13*
X162662500Y-38100000D03*
X151662500Y-38100000D03*
X170712500Y-38100000D03*
X181712500Y-38100000D03*
D12*
X176212500Y-38100000D03*
D11*
X171212500Y-41900000D03*
X176212500Y-44000000D03*
X181212500Y-32950000D03*
D13*
X189762500Y-38100000D03*
X200762500Y-38100000D03*
D12*
X195262500Y-38100000D03*
D11*
X190262500Y-41900000D03*
X195262500Y-44000000D03*
X200262500Y-32950000D03*
X219312500Y-32950000D03*
X214312500Y-44000000D03*
X209312500Y-41900000D03*
D12*
X214312500Y-38100000D03*
D13*
X219812500Y-38100000D03*
X208812500Y-38100000D03*
D11*
X238362500Y-32950000D03*
X233362500Y-44000000D03*
X228362500Y-41900000D03*
D12*
X233362500Y-38100000D03*
D13*
X238862500Y-38100000D03*
X227862500Y-38100000D03*
X246912500Y-38100000D03*
X257912500Y-38100000D03*
D12*
X252412500Y-38100000D03*
D11*
X247412500Y-41900000D03*
X252412500Y-44000000D03*
X257412500Y-32950000D03*
X281225000Y-13900000D03*
X276225000Y-24950000D03*
X271225000Y-22850000D03*
D12*
X276225000Y-19050000D03*
D13*
X281725000Y-19050000D03*
X270725000Y-19050000D03*
X-5500000Y-57150000D03*
X5500000Y-57150000D03*
D12*
X0Y-57150000D03*
D11*
X-5000000Y-60950000D03*
X0Y-63050000D03*
X5000000Y-52000000D03*
X33575000Y-52000000D03*
X28575000Y-63050000D03*
X23575000Y-60950000D03*
D12*
X28575000Y-57150000D03*
D13*
X34075000Y-57150000D03*
X23075000Y-57150000D03*
D11*
X57387500Y-52000000D03*
X52387500Y-63050000D03*
X47387500Y-60950000D03*
D12*
X52387500Y-57150000D03*
D13*
X57887500Y-57150000D03*
X46887500Y-57150000D03*
D11*
X76437500Y-52000000D03*
X71437500Y-63050000D03*
X66437500Y-60950000D03*
D12*
X71437500Y-57150000D03*
D13*
X76937500Y-57150000D03*
X65937500Y-57150000D03*
X84987500Y-57150000D03*
X95987500Y-57150000D03*
D12*
X90487500Y-57150000D03*
D11*
X85487500Y-60950000D03*
X90487500Y-63050000D03*
X95487500Y-52000000D03*
X114537500Y-52000000D03*
X109537500Y-63050000D03*
X104537500Y-60950000D03*
D12*
X109537500Y-57150000D03*
D13*
X115037500Y-57150000D03*
X104037500Y-57150000D03*
D11*
X133587500Y-52000000D03*
X128587500Y-63050000D03*
X123587500Y-60950000D03*
D12*
X128587500Y-57150000D03*
D13*
X134087500Y-57150000D03*
X123087500Y-57150000D03*
X142137500Y-57150000D03*
X153137500Y-57150000D03*
D12*
X147637500Y-57150000D03*
D11*
X142637500Y-60950000D03*
X147637500Y-63050000D03*
X152637500Y-52000000D03*
D13*
X161187500Y-57150000D03*
X172187500Y-57150000D03*
D12*
X166687500Y-57150000D03*
D11*
X161687500Y-60950000D03*
X166687500Y-63050000D03*
X171687500Y-52000000D03*
D13*
X180237500Y-57150000D03*
X191237500Y-57150000D03*
D12*
X185737500Y-57150000D03*
D11*
X180737500Y-60950000D03*
X185737500Y-63050000D03*
X190737500Y-52000000D03*
X209787500Y-52000000D03*
X204787500Y-63050000D03*
X199787500Y-60950000D03*
D12*
X204787500Y-57150000D03*
D13*
X210287500Y-57150000D03*
X199287500Y-57150000D03*
X218337500Y-57150000D03*
X229337500Y-57150000D03*
D12*
X223837500Y-57150000D03*
D11*
X218837500Y-60950000D03*
X223837500Y-63050000D03*
X228837500Y-52000000D03*
D13*
X242150000Y-57150000D03*
X253150000Y-57150000D03*
D12*
X247650000Y-57150000D03*
D11*
X242650000Y-60950000D03*
X247650000Y-63050000D03*
X252650000Y-52000000D03*
D13*
X270725000Y-57150000D03*
X281725000Y-57150000D03*
D12*
X276225000Y-57150000D03*
D11*
X271225000Y-60950000D03*
X276225000Y-63050000D03*
X281225000Y-52000000D03*
D13*
X289775000Y-19050000D03*
X300775000Y-19050000D03*
D12*
X295275000Y-19050000D03*
D11*
X290275000Y-22850000D03*
X295275000Y-24950000D03*
X300275000Y-13900000D03*
D13*
X-5500000Y-76200000D03*
X5500000Y-76200000D03*
D12*
X0Y-76200000D03*
D11*
X-5000000Y-80000000D03*
X0Y-82100000D03*
X5000000Y-71050000D03*
X28812500Y-71050000D03*
X23812500Y-82100000D03*
X18812500Y-80000000D03*
D12*
X23812500Y-76200000D03*
D13*
X29312500Y-76200000D03*
X18312500Y-76200000D03*
X37362500Y-76200000D03*
X48362500Y-76200000D03*
D12*
X42862500Y-76200000D03*
D11*
X37862500Y-80000000D03*
X42862500Y-82100000D03*
X47862500Y-71050000D03*
X66912500Y-71050000D03*
X61912500Y-82100000D03*
X56912500Y-80000000D03*
D12*
X61912500Y-76200000D03*
D13*
X67412500Y-76200000D03*
X56412500Y-76200000D03*
D11*
X85962500Y-71050000D03*
X80962500Y-82100000D03*
X75962500Y-80000000D03*
D12*
X80962500Y-76200000D03*
D13*
X86462500Y-76200000D03*
X75462500Y-76200000D03*
D11*
X116125000Y-71050000D03*
X111125000Y-82100000D03*
X106125000Y-80000000D03*
D12*
X111125000Y-76200000D03*
D13*
X116625000Y-76200000D03*
X105625000Y-76200000D03*
X140550000Y-76200000D03*
X151550000Y-76200000D03*
D12*
X146050000Y-76200000D03*
D11*
X141050000Y-80000000D03*
X146050000Y-82100000D03*
X151050000Y-71050000D03*
D13*
X170712500Y-76200000D03*
X181712500Y-76200000D03*
D12*
X176212500Y-76200000D03*
D11*
X171212500Y-80000000D03*
X176212500Y-82100000D03*
X181212500Y-71050000D03*
D13*
X189762500Y-76200000D03*
X200762500Y-76200000D03*
D12*
X195262500Y-76200000D03*
D11*
X190262500Y-80000000D03*
X195262500Y-82100000D03*
X200262500Y-71050000D03*
X219312500Y-71050000D03*
X214312500Y-82100000D03*
X209312500Y-80000000D03*
D12*
X214312500Y-76200000D03*
D13*
X219812500Y-76200000D03*
X208812500Y-76200000D03*
X227862500Y-76200000D03*
X238862500Y-76200000D03*
D12*
X233362500Y-76200000D03*
D11*
X228362500Y-80000000D03*
X233362500Y-82100000D03*
X238362500Y-71050000D03*
X262175000Y-71050000D03*
X257175000Y-82100000D03*
X252175000Y-80000000D03*
D12*
X257175000Y-76200000D03*
D13*
X262675000Y-76200000D03*
X251675000Y-76200000D03*
X270725000Y-76200000D03*
X281725000Y-76200000D03*
D12*
X276225000Y-76200000D03*
D11*
X271225000Y-80000000D03*
X276225000Y-82100000D03*
X281225000Y-71050000D03*
X300275000Y-71050000D03*
X295275000Y-82100000D03*
X290275000Y-80000000D03*
D12*
X295275000Y-76200000D03*
D13*
X300775000Y-76200000D03*
X289775000Y-76200000D03*
M02*
