M48
; DRILL file {KiCad (5.1.8)-1} date 02/07/21 11:47:05
; FORMAT={-:-/ absolute / metric / decimal}
; #@! TF.CreationDate,2021-02-07T11:47:05-08:00
; #@! TF.GenerationSoftware,Kicad,Pcbnew,(5.1.8)-1
FMAT,2
METRIC
T1C0.400
T2C0.650
T3C1.270
T4C3.962
T5C0.700
T6C1.702
T7C5.000
%
G90
G05
T1
X6.55Y-7.15
X6.8Y-3.7
X15.6Y-4.2
X17.45Y-2.6
X19.05Y-10.8
X19.2Y-45.55
X19.2Y-47.15
X19.8Y-7.35
X19.8Y-12.75
X19.8Y-15.4
X19.828Y-16.95
X19.95Y-26.5
X19.95Y-28.05
X20.55Y-10.8
X21.45Y-32.55
X23.6Y-64.5
X23.6Y-66.7
X38.75Y-28.6
X39.55Y-11.65
X39.55Y-14.0
X43.1Y-47.15
X47.4Y-67.05
X57.85Y-9.1
X57.9Y-28.55
X62.15Y-47.15
X66.4Y-67.5
X76.0Y-45.6
X76.0Y-47.1
X76.95Y-9.1
X76.95Y-28.55
X85.5Y-64.55
X85.5Y-67.95
X95.05Y-45.6
X95.05Y-47.1
X95.85Y-28.55
X95.95Y-9.1
X104.1Y-64.55
X104.1Y-68.4
X114.05Y-45.6
X114.05Y-47.1
X115.0Y-7.55
X115.0Y-9.1
X115.05Y-26.55
X115.05Y-28.55
X117.15Y-72.75
X117.15Y-74.65
X118.1Y-58.65
X118.919Y-65.619
X121.75Y-62.8
X121.9Y-54.85
X122.2Y-46.35
X125.0Y-47.9
X125.4Y-27.3
X125.4Y-61.7
X125.6Y-74.65
X126.2Y-8.3
X126.9Y-61.7
X127.55Y-73.45
X127.6Y-71.45
X127.8Y-83.15
X129.7Y-78.0
X129.8Y-7.55
X129.8Y-9.05
X129.8Y-26.55
X129.8Y-28.05
X130.3Y-71.45
X131.0Y-50.05
X131.05Y-76.6
X132.55Y-72.75
X132.55Y-74.2
X132.95Y-27.25
X133.0Y-8.3
X133.7Y-61.45
X133.9Y-49.3
X134.1Y-7.5
X134.1Y-9.1
X134.15Y-26.45
X134.15Y-28.05
X135.4Y-50.8
X137.9Y-47.55
X138.2Y-80.85
X138.75Y-70.75
X139.25Y-66.9
X140.55Y-67.85
X142.0Y-77.1
X142.9Y-70.2
X143.35Y-82.3
X143.65Y-45.55
X143.65Y-47.15
X145.7Y-79.65
X153.1Y-9.1
X153.1Y-28.05
X153.1Y-78.85
X155.9Y-45.6
X157.45Y-47.15
X157.65Y-78.85
X165.95Y-64.65
X166.35Y-69.4
X172.15Y-9.1
X172.15Y-28.05
X176.4Y-47.15
X178.5Y-64.65
X178.5Y-68.875
X191.15Y-9.1
X191.2Y-28.05
X195.25Y-47.15
X197.55Y-64.65
X197.55Y-68.5
X210.1Y-9.1
X210.15Y-28.05
X214.5Y-47.15
X218.85Y-64.65
X218.85Y-67.7
X228.85Y-47.15
X229.2Y-9.1
X229.2Y-28.05
X242.65Y-64.65
X242.65Y-67.15
X248.25Y-9.1
X248.35Y-28.05
X250.075Y-47.125
X271.2Y-66.75
T3
X271.225Y-80.0
X276.225Y-82.1
X281.225Y-71.05
X171.213Y-80.0
X176.213Y-82.1
X181.213Y-71.05
X106.125Y-80.0
X111.125Y-82.1
X116.125Y-71.05
X199.787Y-60.95
X204.787Y-63.05
X209.787Y-52.0
X228.362Y-41.9
X233.362Y-44.0
X238.362Y-32.95
X75.962Y-22.85
X80.962Y-24.95
X85.962Y-13.9
X95.012Y-41.9
X100.012Y-44.0
X105.012Y-32.95
X133.112Y-41.9
X138.112Y-44.0
X143.112Y-32.95
X271.225Y-3.8
X276.225Y-5.9
X281.225Y5.15
X247.412Y-41.9
X252.412Y-44.0
X257.412Y-32.95
X75.962Y-3.8
X80.962Y-5.9
X85.962Y5.15
X290.275Y-80.0
X295.275Y-82.1
X300.275Y-71.05
X228.362Y-80.0
X233.362Y-82.1
X238.362Y-71.05
X56.912Y-80.0
X61.912Y-82.1
X66.912Y-71.05
X75.962Y-80.0
X80.962Y-82.1
X85.962Y-71.05
X142.637Y-60.95
X147.637Y-63.05
X152.637Y-52.0
X152.162Y-41.9
X157.162Y-44.0
X162.162Y-32.95
X18.812Y-22.85
X23.812Y-24.95
X28.812Y-13.9
X228.362Y-3.8
X233.362Y-5.9
X238.362Y5.15
X37.862Y-22.85
X42.862Y-24.95
X47.862Y-13.9
X228.362Y-22.85
X233.362Y-24.95
X238.362Y-13.9
X209.312Y-41.9
X214.312Y-44.0
X219.312Y-32.95
X37.862Y-3.8
X42.862Y-5.9
X47.862Y5.15
X85.487Y-60.95
X90.487Y-63.05
X95.487Y-52.0
X-5.0Y-80.0
X0.0Y-82.1
X5.0Y-71.05
X104.537Y-60.95
X109.537Y-63.05
X114.537Y-52.0
X75.962Y-41.9
X80.962Y-44.0
X85.962Y-32.95
X133.112Y-3.8
X138.112Y-5.9
X143.112Y5.15
X190.262Y-41.9
X195.262Y-44.0
X200.262Y-32.95
X230.744Y-80.0
X235.744Y-82.1
X240.744Y-71.05
X290.275Y-3.8
X295.275Y-5.9
X300.275Y5.15
X152.162Y-22.85
X157.162Y-24.95
X162.162Y-13.9
X114.062Y-41.9
X119.062Y-44.0
X124.062Y-32.95
X-2.619Y-80.0
X2.381Y-82.1
X7.381Y-71.05
X56.912Y-3.8
X61.912Y-5.9
X66.912Y5.15
X18.812Y-3.8
X23.812Y-5.9
X28.812Y5.15
X252.175Y-80.0
X257.175Y-82.1
X262.175Y-71.05
X161.688Y-60.95
X166.688Y-63.05
X171.688Y-52.0
X271.225Y-60.95
X276.225Y-63.05
X281.225Y-52.0
X47.387Y-60.95
X52.387Y-63.05
X57.387Y-52.0
X171.213Y-22.85
X176.213Y-24.95
X181.213Y-13.9
X95.012Y-3.8
X100.012Y-5.9
X105.012Y5.15
X247.412Y-3.8
X252.412Y-5.9
X257.412Y5.15
X56.912Y-41.9
X61.912Y-44.0
X66.912Y-32.95
X66.438Y-60.95
X71.438Y-63.05
X76.438Y-52.0
X190.262Y-22.85
X195.262Y-24.95
X200.262Y-13.9
X-5.0Y-3.8
X0.0Y-5.9
X5.0Y5.15
X209.312Y-80.0
X214.312Y-82.1
X219.312Y-71.05
X218.837Y-60.95
X223.837Y-63.05
X228.837Y-52.0
X18.812Y-80.0
X23.812Y-82.1
X28.812Y-71.05
X123.587Y-60.95
X128.588Y-63.05
X133.588Y-52.0
X23.575Y-60.95
X28.575Y-63.05
X33.575Y-52.0
X-5.0Y-22.85
X0.0Y-24.95
X5.0Y-13.9
X209.312Y-3.8
X214.312Y-5.9
X219.312Y5.15
X190.262Y-3.8
X195.262Y-5.9
X200.262Y5.15
X21.194Y-60.95
X26.194Y-63.05
X31.194Y-52.0
X-5.0Y-41.9
X0.0Y-44.0
X5.0Y-32.95
X37.862Y-41.9
X42.862Y-44.0
X47.862Y-32.95
X114.062Y-3.8
X119.062Y-5.9
X124.062Y5.15
X144.05Y-72.8
X148.05Y-72.8
X190.262Y-80.0
X195.262Y-82.1
X200.262Y-71.05
X37.862Y-80.0
X42.862Y-82.1
X47.862Y-71.05
X290.275Y-22.85
X295.275Y-24.95
X300.275Y-13.9
X-5.0Y-60.95
X0.0Y-63.05
X5.0Y-52.0
X133.112Y-22.85
X138.112Y-24.95
X143.112Y-13.9
X95.012Y-22.85
X100.012Y-24.95
X105.012Y-13.9
X152.162Y-3.8
X157.162Y-5.9
X162.162Y5.15
X245.031Y-60.95
X250.031Y-63.05
X255.031Y-52.0
X56.912Y-22.85
X61.912Y-24.95
X66.912Y-13.9
X247.412Y-22.85
X252.412Y-24.95
X257.412Y-13.9
X180.737Y-60.95
X185.737Y-63.05
X190.737Y-52.0
X141.05Y-80.0
X146.05Y-82.1
X151.05Y-71.05
X242.65Y-60.95
X247.65Y-63.05
X252.65Y-52.0
X271.225Y-22.85
X276.225Y-24.95
X281.225Y-13.9
X114.062Y-22.85
X119.062Y-24.95
X124.062Y-13.9
X18.812Y-41.9
X23.812Y-44.0
X28.812Y-32.95
X171.213Y-41.9
X176.213Y-44.0
X181.213Y-32.95
X171.213Y-3.8
X176.213Y-5.9
X181.213Y5.15
X209.312Y-22.85
X214.312Y-24.95
X219.312Y-13.9
T4
X236.925Y-61.45
X147.637Y-9.525
X39.3Y-61.45
X52.387Y-9.525
X285.75Y-9.525
X100.4Y-80.5
T5
X9.01Y3.5
X14.79Y3.5
T6
X-5.5Y-19.05
X5.5Y-19.05
X208.812Y0.0
X219.812Y0.0
X189.762Y0.0
X200.762Y0.0
X20.694Y-57.15
X31.694Y-57.15
X-5.5Y-38.1
X5.5Y-38.1
X37.362Y-38.1
X48.362Y-38.1
X113.562Y0.0
X124.562Y0.0
X189.762Y-76.2
X200.762Y-76.2
X37.362Y-76.2
X48.362Y-76.2
X289.775Y-19.05
X300.775Y-19.05
X-5.5Y-57.15
X5.5Y-57.15
X132.612Y-19.05
X143.612Y-19.05
X94.512Y-19.05
X105.512Y-19.05
X151.662Y0.0
X162.662Y0.0
X244.531Y-57.15
X255.531Y-57.15
X56.412Y-19.05
X67.412Y-19.05
X246.912Y-19.05
X257.912Y-19.05
X180.237Y-57.15
X191.237Y-57.15
X140.55Y-76.2
X151.55Y-76.2
X242.15Y-57.15
X253.15Y-57.15
X270.725Y-19.05
X281.725Y-19.05
X113.562Y-19.05
X124.562Y-19.05
X18.312Y-38.1
X29.312Y-38.1
X170.713Y-38.1
X181.713Y-38.1
X170.713Y0.0
X181.713Y0.0
X208.812Y-19.05
X219.812Y-19.05
X270.725Y-76.2
X281.725Y-76.2
X170.713Y-76.2
X181.713Y-76.2
X105.625Y-76.2
X116.625Y-76.2
X199.287Y-57.15
X210.287Y-57.15
X227.862Y-38.1
X238.862Y-38.1
X75.462Y-19.05
X86.462Y-19.05
X94.512Y-38.1
X105.512Y-38.1
X132.612Y-38.1
X143.612Y-38.1
X270.725Y0.0
X281.725Y0.0
X246.912Y-38.1
X257.912Y-38.1
X75.462Y0.0
X86.462Y0.0
X289.775Y-76.2
X300.775Y-76.2
X227.862Y-76.2
X238.862Y-76.2
X56.412Y-76.2
X67.412Y-76.2
X75.462Y-76.2
X86.462Y-76.2
X142.137Y-57.15
X153.137Y-57.15
X151.662Y-38.1
X162.662Y-38.1
X18.312Y-19.05
X29.312Y-19.05
X227.862Y0.0
X238.862Y0.0
X37.362Y-19.05
X48.362Y-19.05
X227.862Y-19.05
X238.862Y-19.05
X208.812Y-38.1
X219.812Y-38.1
X37.362Y0.0
X48.362Y0.0
X84.987Y-57.15
X95.987Y-57.15
X-5.5Y-76.2
X5.5Y-76.2
X104.037Y-57.15
X115.037Y-57.15
X75.462Y-38.1
X86.462Y-38.1
X132.612Y0.0
X143.612Y0.0
X189.762Y-38.1
X200.762Y-38.1
X230.244Y-76.2
X241.244Y-76.2
X289.775Y0.0
X300.775Y0.0
X151.662Y-19.05
X162.662Y-19.05
X113.562Y-38.1
X124.562Y-38.1
X-3.119Y-76.2
X7.881Y-76.2
X56.412Y0.0
X67.412Y0.0
X18.312Y0.0
X29.312Y0.0
X251.675Y-76.2
X262.675Y-76.2
X161.188Y-57.15
X172.188Y-57.15
X270.725Y-57.15
X281.725Y-57.15
X46.887Y-57.15
X57.887Y-57.15
X170.713Y-19.05
X181.713Y-19.05
X94.512Y0.0
X105.512Y0.0
X246.912Y0.0
X257.912Y0.0
X56.412Y-38.1
X67.412Y-38.1
X65.938Y-57.15
X76.938Y-57.15
X189.762Y-19.05
X200.762Y-19.05
X-5.5Y0.0
X5.5Y0.0
X208.812Y-76.2
X219.812Y-76.2
X218.337Y-57.15
X229.337Y-57.15
X18.312Y-76.2
X29.312Y-76.2
X123.087Y-57.15
X134.088Y-57.15
X23.075Y-57.15
X34.075Y-57.15
T7
X185.737Y-57.15
X146.05Y-76.2
X247.65Y-57.15
X276.225Y-19.05
X119.062Y-19.05
X23.812Y-38.1
X176.213Y-38.1
X176.213Y0.0
X214.312Y-19.05
X276.225Y-76.2
X176.213Y-76.2
X111.125Y-76.2
X204.787Y-57.15
X233.362Y-38.1
X80.962Y-19.05
X100.012Y-38.1
X138.112Y-38.1
X276.225Y0.0
X252.412Y-38.1
X80.962Y0.0
X295.275Y-76.2
X233.362Y-76.2
X61.912Y-76.2
X80.962Y-76.2
X147.637Y-57.15
X157.162Y-38.1
X23.812Y-19.05
X233.362Y0.0
X42.862Y-19.05
X233.362Y-19.05
X214.312Y-38.1
X42.862Y0.0
X90.487Y-57.15
X0.0Y-76.2
X109.537Y-57.15
X80.962Y-38.1
X138.112Y0.0
X195.262Y-38.1
X235.744Y-76.2
X295.275Y0.0
X157.162Y-19.05
X119.062Y-38.1
X2.381Y-76.2
X61.912Y0.0
X23.812Y0.0
X257.175Y-76.2
X166.688Y-57.15
X276.225Y-57.15
X52.387Y-57.15
X176.213Y-19.05
X100.012Y0.0
X252.412Y0.0
X61.912Y-38.1
X71.438Y-57.15
X195.262Y-19.05
X0.0Y0.0
X214.312Y-76.2
X223.837Y-57.15
X23.812Y-76.2
X128.588Y-57.15
X28.575Y-57.15
X0.0Y-19.05
X214.312Y0.0
X195.262Y0.0
X26.194Y-57.15
X0.0Y-38.1
X42.862Y-38.1
X119.062Y0.0
X195.262Y-76.2
X42.862Y-76.2
X295.275Y-19.05
X0.0Y-57.15
X138.112Y-19.05
X100.012Y-19.05
X157.162Y0.0
X250.031Y-57.15
X61.912Y-19.05
X252.412Y-19.05
T2
G00X7.58Y7.45
M15
G01X7.58Y6.85
M16
G05
G00X7.58Y3.52
M15
G01X7.58Y2.42
M16
G05
G00X16.22Y7.45
M15
G01X16.22Y6.85
M16
G05
G00X16.22Y3.52
M15
G01X16.22Y2.42
M16
G05
T0
M30
