G04 #@! TF.GenerationSoftware,KiCad,Pcbnew,(5.1.8)-1*
G04 #@! TF.CreationDate,2021-03-20T07:11:13-07:00*
G04 #@! TF.ProjectId,Spritzgeback,53707269-747a-4676-9562-61636b2e6b69,rev?*
G04 #@! TF.SameCoordinates,Original*
G04 #@! TF.FileFunction,Legend,Bot*
G04 #@! TF.FilePolarity,Positive*
%FSLAX46Y46*%
G04 Gerber Fmt 4.6, Leading zero omitted, Abs format (unit mm)*
G04 Created by KiCad (PCBNEW (5.1.8)-1) date 2021-03-20 07:11:13*
%MOMM*%
%LPD*%
G01*
G04 APERTURE LIST*
%ADD10C,0.100000*%
%ADD11C,0.150000*%
%ADD12C,0.120000*%
%ADD13C,0.200000*%
%ADD14C,0.127000*%
G04 APERTURE END LIST*
D10*
X9762868Y-7625000D02*
G75*
G03*
X9762868Y-7625000I-200000J0D01*
G01*
G36*
X271475000Y-6825000D02*
G01*
X271475000Y-10025000D01*
X270175000Y-8875000D01*
X270175000Y-5675000D01*
X271475000Y-6825000D01*
G37*
X271475000Y-6825000D02*
X271475000Y-10025000D01*
X270175000Y-8875000D01*
X270175000Y-5675000D01*
X271475000Y-6825000D01*
G36*
X270675000Y-6825000D02*
G01*
X270675000Y-10025000D01*
X269375000Y-8875000D01*
X269375000Y-5675000D01*
X270675000Y-6825000D01*
G37*
X270675000Y-6825000D02*
X270675000Y-10025000D01*
X269375000Y-8875000D01*
X269375000Y-5675000D01*
X270675000Y-6825000D01*
G36*
X269875000Y-6825000D02*
G01*
X269875000Y-10025000D01*
X268575000Y-8875000D01*
X268575000Y-5675000D01*
X269875000Y-6825000D01*
G37*
X269875000Y-6825000D02*
X269875000Y-10025000D01*
X268575000Y-8875000D01*
X268575000Y-5675000D01*
X269875000Y-6825000D01*
D11*
X270379761Y-12164285D02*
X270427380Y-12307142D01*
X270427380Y-12545238D01*
X270379761Y-12640476D01*
X270332142Y-12688095D01*
X270236904Y-12735714D01*
X270141666Y-12735714D01*
X270046428Y-12688095D01*
X269998809Y-12640476D01*
X269951190Y-12545238D01*
X269903571Y-12354761D01*
X269855952Y-12259523D01*
X269808333Y-12211904D01*
X269713095Y-12164285D01*
X269617857Y-12164285D01*
X269522619Y-12211904D01*
X269475000Y-12259523D01*
X269427380Y-12354761D01*
X269427380Y-12592857D01*
X269475000Y-12735714D01*
X269760714Y-13164285D02*
X270760714Y-13164285D01*
X269808333Y-13164285D02*
X269760714Y-13259523D01*
X269760714Y-13450000D01*
X269808333Y-13545238D01*
X269855952Y-13592857D01*
X269951190Y-13640476D01*
X270236904Y-13640476D01*
X270332142Y-13592857D01*
X270379761Y-13545238D01*
X270427380Y-13450000D01*
X270427380Y-13259523D01*
X270379761Y-13164285D01*
X270427380Y-14069047D02*
X269760714Y-14069047D01*
X269951190Y-14069047D02*
X269855952Y-14116666D01*
X269808333Y-14164285D01*
X269760714Y-14259523D01*
X269760714Y-14354761D01*
X270427380Y-14688095D02*
X269760714Y-14688095D01*
X269427380Y-14688095D02*
X269475000Y-14640476D01*
X269522619Y-14688095D01*
X269475000Y-14735714D01*
X269427380Y-14688095D01*
X269522619Y-14688095D01*
X269760714Y-15021428D02*
X269760714Y-15402380D01*
X269427380Y-15164285D02*
X270284523Y-15164285D01*
X270379761Y-15211904D01*
X270427380Y-15307142D01*
X270427380Y-15402380D01*
X269760714Y-15640476D02*
X269760714Y-16164285D01*
X270427380Y-15640476D01*
X270427380Y-16164285D01*
X269760714Y-16973809D02*
X270570238Y-16973809D01*
X270665476Y-16926190D01*
X270713095Y-16878571D01*
X270760714Y-16783333D01*
X270760714Y-16640476D01*
X270713095Y-16545238D01*
X270379761Y-16973809D02*
X270427380Y-16878571D01*
X270427380Y-16688095D01*
X270379761Y-16592857D01*
X270332142Y-16545238D01*
X270236904Y-16497619D01*
X269951190Y-16497619D01*
X269855952Y-16545238D01*
X269808333Y-16592857D01*
X269760714Y-16688095D01*
X269760714Y-16878571D01*
X269808333Y-16973809D01*
X270379761Y-17830952D02*
X270427380Y-17735714D01*
X270427380Y-17545238D01*
X270379761Y-17450000D01*
X270284523Y-17402380D01*
X269903571Y-17402380D01*
X269808333Y-17450000D01*
X269760714Y-17545238D01*
X269760714Y-17735714D01*
X269808333Y-17830952D01*
X269903571Y-17878571D01*
X269998809Y-17878571D01*
X270094047Y-17402380D01*
X270427380Y-18307142D02*
X269427380Y-18307142D01*
X269808333Y-18307142D02*
X269760714Y-18402380D01*
X269760714Y-18592857D01*
X269808333Y-18688095D01*
X269855952Y-18735714D01*
X269951190Y-18783333D01*
X270236904Y-18783333D01*
X270332142Y-18735714D01*
X270379761Y-18688095D01*
X270427380Y-18592857D01*
X270427380Y-18402380D01*
X270379761Y-18307142D01*
X270427380Y-19640476D02*
X269903571Y-19640476D01*
X269808333Y-19592857D01*
X269760714Y-19497619D01*
X269760714Y-19307142D01*
X269808333Y-19211904D01*
X270379761Y-19640476D02*
X270427380Y-19545238D01*
X270427380Y-19307142D01*
X270379761Y-19211904D01*
X270284523Y-19164285D01*
X270189285Y-19164285D01*
X270094047Y-19211904D01*
X270046428Y-19307142D01*
X270046428Y-19545238D01*
X269998809Y-19640476D01*
X270379761Y-20545238D02*
X270427380Y-20450000D01*
X270427380Y-20259523D01*
X270379761Y-20164285D01*
X270332142Y-20116666D01*
X270236904Y-20069047D01*
X269951190Y-20069047D01*
X269855952Y-20116666D01*
X269808333Y-20164285D01*
X269760714Y-20259523D01*
X269760714Y-20450000D01*
X269808333Y-20545238D01*
X270427380Y-20973809D02*
X269427380Y-20973809D01*
X270046428Y-21069047D02*
X270427380Y-21354761D01*
X269760714Y-21354761D02*
X270141666Y-20973809D01*
X270427380Y-22545238D02*
X269427380Y-22545238D01*
X269808333Y-22545238D02*
X269760714Y-22640476D01*
X269760714Y-22830952D01*
X269808333Y-22926190D01*
X269855952Y-22973809D01*
X269951190Y-23021428D01*
X270236904Y-23021428D01*
X270332142Y-22973809D01*
X270379761Y-22926190D01*
X270427380Y-22830952D01*
X270427380Y-22640476D01*
X270379761Y-22545238D01*
X269760714Y-23354761D02*
X270427380Y-23592857D01*
X269760714Y-23830952D02*
X270427380Y-23592857D01*
X270665476Y-23497619D01*
X270713095Y-23450000D01*
X270760714Y-23354761D01*
X269427380Y-25259523D02*
X270141666Y-25259523D01*
X270284523Y-25211904D01*
X270379761Y-25116666D01*
X270427380Y-24973809D01*
X270427380Y-24878571D01*
X270379761Y-26116666D02*
X270427380Y-26021428D01*
X270427380Y-25830952D01*
X270379761Y-25735714D01*
X270284523Y-25688095D01*
X269903571Y-25688095D01*
X269808333Y-25735714D01*
X269760714Y-25830952D01*
X269760714Y-26021428D01*
X269808333Y-26116666D01*
X269903571Y-26164285D01*
X269998809Y-26164285D01*
X270094047Y-25688095D01*
X270427380Y-26592857D02*
X269760714Y-26592857D01*
X269951190Y-26592857D02*
X269855952Y-26640476D01*
X269808333Y-26688095D01*
X269760714Y-26783333D01*
X269760714Y-26878571D01*
X270379761Y-27592857D02*
X270427380Y-27497619D01*
X270427380Y-27307142D01*
X270379761Y-27211904D01*
X270284523Y-27164285D01*
X269903571Y-27164285D01*
X269808333Y-27211904D01*
X269760714Y-27307142D01*
X269760714Y-27497619D01*
X269808333Y-27592857D01*
X269903571Y-27640476D01*
X269998809Y-27640476D01*
X270094047Y-27164285D01*
X270427380Y-28069047D02*
X269760714Y-28069047D01*
X269855952Y-28069047D02*
X269808333Y-28116666D01*
X269760714Y-28211904D01*
X269760714Y-28354761D01*
X269808333Y-28450000D01*
X269903571Y-28497619D01*
X270427380Y-28497619D01*
X269903571Y-28497619D02*
X269808333Y-28545238D01*
X269760714Y-28640476D01*
X269760714Y-28783333D01*
X269808333Y-28878571D01*
X269903571Y-28926190D01*
X270427380Y-28926190D01*
X269760714Y-29307142D02*
X270427380Y-29545238D01*
X269760714Y-29783333D02*
X270427380Y-29545238D01*
X270665476Y-29450000D01*
X270713095Y-29402380D01*
X270760714Y-29307142D01*
D12*
X120747231Y-66550000D02*
G75*
G03*
X120747231Y-66550000I-300000J0D01*
G01*
X123000000Y-52950000D02*
X123400000Y-52950000D01*
X123400000Y-52950000D02*
X123800000Y-52950000D01*
X123400000Y-52450000D02*
X123400000Y-52950000D01*
X134650000Y-48900000D02*
X132650000Y-48900000D01*
X132650000Y-48900000D02*
X132650000Y-45000000D01*
X134650000Y-48900000D02*
X134650000Y-45000000D01*
X134050000Y-46400000D02*
X133250000Y-46400000D01*
X133250000Y-46400000D02*
X133650000Y-47000000D01*
X133650000Y-47000000D02*
X134050000Y-46400000D01*
X133650000Y-46400000D02*
X133650000Y-46100000D01*
X133650000Y-47000000D02*
X134200000Y-47000000D01*
X133650000Y-47000000D02*
X133100000Y-47000000D01*
X133650000Y-47000000D02*
X133650000Y-47300000D01*
X-3383883Y-15248097D02*
X-4798097Y-13833883D01*
X-4798097Y-13833883D02*
X-2040381Y-11076167D01*
X-3383883Y-15248097D02*
X-626167Y-12490381D01*
X-2040381Y-13056066D02*
X-2606066Y-12490381D01*
X-2606066Y-12490381D02*
X-2747487Y-13197487D01*
X-2747487Y-13197487D02*
X-2040381Y-13056066D01*
X-2323223Y-12773223D02*
X-2111091Y-12561091D01*
X-2747487Y-13197487D02*
X-2358579Y-13586396D01*
X-2747487Y-13197487D02*
X-3136396Y-12808579D01*
X-2747487Y-13197487D02*
X-2959619Y-13409619D01*
X26650000Y-14900000D02*
X24650000Y-14900000D01*
X24650000Y-14900000D02*
X24650000Y-11000000D01*
X26650000Y-14900000D02*
X26650000Y-11000000D01*
X26050000Y-12400000D02*
X25250000Y-12400000D01*
X25250000Y-12400000D02*
X25650000Y-13000000D01*
X25650000Y-13000000D02*
X26050000Y-12400000D01*
X25650000Y-12400000D02*
X25650000Y-12100000D01*
X25650000Y-13000000D02*
X26200000Y-13000000D01*
X25650000Y-13000000D02*
X25100000Y-13000000D01*
X25650000Y-13000000D02*
X25650000Y-13300000D01*
X44650000Y-14900000D02*
X42650000Y-14900000D01*
X42650000Y-14900000D02*
X42650000Y-11000000D01*
X44650000Y-14900000D02*
X44650000Y-11000000D01*
X44050000Y-12400000D02*
X43250000Y-12400000D01*
X43250000Y-12400000D02*
X43650000Y-13000000D01*
X43650000Y-13000000D02*
X44050000Y-12400000D01*
X43650000Y-12400000D02*
X43650000Y-12100000D01*
X43650000Y-13000000D02*
X44200000Y-13000000D01*
X43650000Y-13000000D02*
X43100000Y-13000000D01*
X43650000Y-13000000D02*
X43650000Y-13300000D01*
X62650000Y-14900000D02*
X60650000Y-14900000D01*
X60650000Y-14900000D02*
X60650000Y-11000000D01*
X62650000Y-14900000D02*
X62650000Y-11000000D01*
X62050000Y-12400000D02*
X61250000Y-12400000D01*
X61250000Y-12400000D02*
X61650000Y-13000000D01*
X61650000Y-13000000D02*
X62050000Y-12400000D01*
X61650000Y-12400000D02*
X61650000Y-12100000D01*
X61650000Y-13000000D02*
X62200000Y-13000000D01*
X61650000Y-13000000D02*
X61100000Y-13000000D01*
X61650000Y-13000000D02*
X61650000Y-13300000D01*
X80650000Y-14900000D02*
X78650000Y-14900000D01*
X78650000Y-14900000D02*
X78650000Y-11000000D01*
X80650000Y-14900000D02*
X80650000Y-11000000D01*
X80050000Y-12400000D02*
X79250000Y-12400000D01*
X79250000Y-12400000D02*
X79650000Y-13000000D01*
X79650000Y-13000000D02*
X80050000Y-12400000D01*
X79650000Y-12400000D02*
X79650000Y-12100000D01*
X79650000Y-13000000D02*
X80200000Y-13000000D01*
X79650000Y-13000000D02*
X79100000Y-13000000D01*
X79650000Y-13000000D02*
X79650000Y-13300000D01*
X98650000Y-14900000D02*
X96650000Y-14900000D01*
X96650000Y-14900000D02*
X96650000Y-11000000D01*
X98650000Y-14900000D02*
X98650000Y-11000000D01*
X98050000Y-12400000D02*
X97250000Y-12400000D01*
X97250000Y-12400000D02*
X97650000Y-13000000D01*
X97650000Y-13000000D02*
X98050000Y-12400000D01*
X97650000Y-12400000D02*
X97650000Y-12100000D01*
X97650000Y-13000000D02*
X98200000Y-13000000D01*
X97650000Y-13000000D02*
X97100000Y-13000000D01*
X97650000Y-13000000D02*
X97650000Y-13300000D01*
X116650000Y-14900000D02*
X114650000Y-14900000D01*
X114650000Y-14900000D02*
X114650000Y-11000000D01*
X116650000Y-14900000D02*
X116650000Y-11000000D01*
X116050000Y-12400000D02*
X115250000Y-12400000D01*
X115250000Y-12400000D02*
X115650000Y-13000000D01*
X115650000Y-13000000D02*
X116050000Y-12400000D01*
X115650000Y-12400000D02*
X115650000Y-12100000D01*
X115650000Y-13000000D02*
X116200000Y-13000000D01*
X115650000Y-13000000D02*
X115100000Y-13000000D01*
X115650000Y-13000000D02*
X115650000Y-13300000D01*
X134650000Y-14900000D02*
X132650000Y-14900000D01*
X132650000Y-14900000D02*
X132650000Y-11000000D01*
X134650000Y-14900000D02*
X134650000Y-11000000D01*
X134050000Y-12400000D02*
X133250000Y-12400000D01*
X133250000Y-12400000D02*
X133650000Y-13000000D01*
X133650000Y-13000000D02*
X134050000Y-12400000D01*
X133650000Y-12400000D02*
X133650000Y-12100000D01*
X133650000Y-13000000D02*
X134200000Y-13000000D01*
X133650000Y-13000000D02*
X133100000Y-13000000D01*
X133650000Y-13000000D02*
X133650000Y-13300000D01*
X152650000Y-14900000D02*
X150650000Y-14900000D01*
X150650000Y-14900000D02*
X150650000Y-11000000D01*
X152650000Y-14900000D02*
X152650000Y-11000000D01*
X152050000Y-12400000D02*
X151250000Y-12400000D01*
X151250000Y-12400000D02*
X151650000Y-13000000D01*
X151650000Y-13000000D02*
X152050000Y-12400000D01*
X151650000Y-12400000D02*
X151650000Y-12100000D01*
X151650000Y-13000000D02*
X152200000Y-13000000D01*
X151650000Y-13000000D02*
X151100000Y-13000000D01*
X151650000Y-13000000D02*
X151650000Y-13300000D01*
X170650000Y-14900000D02*
X168650000Y-14900000D01*
X168650000Y-14900000D02*
X168650000Y-11000000D01*
X170650000Y-14900000D02*
X170650000Y-11000000D01*
X170050000Y-12400000D02*
X169250000Y-12400000D01*
X169250000Y-12400000D02*
X169650000Y-13000000D01*
X169650000Y-13000000D02*
X170050000Y-12400000D01*
X169650000Y-12400000D02*
X169650000Y-12100000D01*
X169650000Y-13000000D02*
X170200000Y-13000000D01*
X169650000Y-13000000D02*
X169100000Y-13000000D01*
X169650000Y-13000000D02*
X169650000Y-13300000D01*
X188650000Y-14900000D02*
X186650000Y-14900000D01*
X186650000Y-14900000D02*
X186650000Y-11000000D01*
X188650000Y-14900000D02*
X188650000Y-11000000D01*
X188050000Y-12400000D02*
X187250000Y-12400000D01*
X187250000Y-12400000D02*
X187650000Y-13000000D01*
X187650000Y-13000000D02*
X188050000Y-12400000D01*
X187650000Y-12400000D02*
X187650000Y-12100000D01*
X187650000Y-13000000D02*
X188200000Y-13000000D01*
X187650000Y-13000000D02*
X187100000Y-13000000D01*
X187650000Y-13000000D02*
X187650000Y-13300000D01*
X206650000Y-14900000D02*
X204650000Y-14900000D01*
X204650000Y-14900000D02*
X204650000Y-11000000D01*
X206650000Y-14900000D02*
X206650000Y-11000000D01*
X206050000Y-12400000D02*
X205250000Y-12400000D01*
X205250000Y-12400000D02*
X205650000Y-13000000D01*
X205650000Y-13000000D02*
X206050000Y-12400000D01*
X205650000Y-12400000D02*
X205650000Y-12100000D01*
X205650000Y-13000000D02*
X206200000Y-13000000D01*
X205650000Y-13000000D02*
X205100000Y-13000000D01*
X205650000Y-13000000D02*
X205650000Y-13300000D01*
X224650000Y-14900000D02*
X222650000Y-14900000D01*
X222650000Y-14900000D02*
X222650000Y-11000000D01*
X224650000Y-14900000D02*
X224650000Y-11000000D01*
X224050000Y-12400000D02*
X223250000Y-12400000D01*
X223250000Y-12400000D02*
X223650000Y-13000000D01*
X223650000Y-13000000D02*
X224050000Y-12400000D01*
X223650000Y-12400000D02*
X223650000Y-12100000D01*
X223650000Y-13000000D02*
X224200000Y-13000000D01*
X223650000Y-13000000D02*
X223100000Y-13000000D01*
X223650000Y-13000000D02*
X223650000Y-13300000D01*
X242650000Y-14900000D02*
X240650000Y-14900000D01*
X240650000Y-14900000D02*
X240650000Y-11000000D01*
X242650000Y-14900000D02*
X242650000Y-11000000D01*
X242050000Y-12400000D02*
X241250000Y-12400000D01*
X241250000Y-12400000D02*
X241650000Y-13000000D01*
X241650000Y-13000000D02*
X242050000Y-12400000D01*
X241650000Y-12400000D02*
X241650000Y-12100000D01*
X241650000Y-13000000D02*
X242200000Y-13000000D01*
X241650000Y-13000000D02*
X241100000Y-13000000D01*
X241650000Y-13000000D02*
X241650000Y-13300000D01*
X283150000Y-14900000D02*
X281150000Y-14900000D01*
X281150000Y-14900000D02*
X281150000Y-11000000D01*
X283150000Y-14900000D02*
X283150000Y-11000000D01*
X282550000Y-12400000D02*
X281750000Y-12400000D01*
X281750000Y-12400000D02*
X282150000Y-13000000D01*
X282150000Y-13000000D02*
X282550000Y-12400000D01*
X282150000Y-12400000D02*
X282150000Y-12100000D01*
X282150000Y-13000000D02*
X282700000Y-13000000D01*
X282150000Y-13000000D02*
X281600000Y-13000000D01*
X282150000Y-13000000D02*
X282150000Y-13300000D01*
X4150000Y-31900000D02*
X2150000Y-31900000D01*
X2150000Y-31900000D02*
X2150000Y-28000000D01*
X4150000Y-31900000D02*
X4150000Y-28000000D01*
X3550000Y-29400000D02*
X2750000Y-29400000D01*
X2750000Y-29400000D02*
X3150000Y-30000000D01*
X3150000Y-30000000D02*
X3550000Y-29400000D01*
X3150000Y-29400000D02*
X3150000Y-29100000D01*
X3150000Y-30000000D02*
X3700000Y-30000000D01*
X3150000Y-30000000D02*
X2600000Y-30000000D01*
X3150000Y-30000000D02*
X3150000Y-30300000D01*
X26650000Y-31900000D02*
X24650000Y-31900000D01*
X24650000Y-31900000D02*
X24650000Y-28000000D01*
X26650000Y-31900000D02*
X26650000Y-28000000D01*
X26050000Y-29400000D02*
X25250000Y-29400000D01*
X25250000Y-29400000D02*
X25650000Y-30000000D01*
X25650000Y-30000000D02*
X26050000Y-29400000D01*
X25650000Y-29400000D02*
X25650000Y-29100000D01*
X25650000Y-30000000D02*
X26200000Y-30000000D01*
X25650000Y-30000000D02*
X25100000Y-30000000D01*
X25650000Y-30000000D02*
X25650000Y-30300000D01*
X44650000Y-31900000D02*
X42650000Y-31900000D01*
X42650000Y-31900000D02*
X42650000Y-28000000D01*
X44650000Y-31900000D02*
X44650000Y-28000000D01*
X44050000Y-29400000D02*
X43250000Y-29400000D01*
X43250000Y-29400000D02*
X43650000Y-30000000D01*
X43650000Y-30000000D02*
X44050000Y-29400000D01*
X43650000Y-29400000D02*
X43650000Y-29100000D01*
X43650000Y-30000000D02*
X44200000Y-30000000D01*
X43650000Y-30000000D02*
X43100000Y-30000000D01*
X43650000Y-30000000D02*
X43650000Y-30300000D01*
X62650000Y-31900000D02*
X60650000Y-31900000D01*
X60650000Y-31900000D02*
X60650000Y-28000000D01*
X62650000Y-31900000D02*
X62650000Y-28000000D01*
X62050000Y-29400000D02*
X61250000Y-29400000D01*
X61250000Y-29400000D02*
X61650000Y-30000000D01*
X61650000Y-30000000D02*
X62050000Y-29400000D01*
X61650000Y-29400000D02*
X61650000Y-29100000D01*
X61650000Y-30000000D02*
X62200000Y-30000000D01*
X61650000Y-30000000D02*
X61100000Y-30000000D01*
X61650000Y-30000000D02*
X61650000Y-30300000D01*
X80650000Y-31900000D02*
X78650000Y-31900000D01*
X78650000Y-31900000D02*
X78650000Y-28000000D01*
X80650000Y-31900000D02*
X80650000Y-28000000D01*
X80050000Y-29400000D02*
X79250000Y-29400000D01*
X79250000Y-29400000D02*
X79650000Y-30000000D01*
X79650000Y-30000000D02*
X80050000Y-29400000D01*
X79650000Y-29400000D02*
X79650000Y-29100000D01*
X79650000Y-30000000D02*
X80200000Y-30000000D01*
X79650000Y-30000000D02*
X79100000Y-30000000D01*
X79650000Y-30000000D02*
X79650000Y-30300000D01*
X98650000Y-31900000D02*
X96650000Y-31900000D01*
X96650000Y-31900000D02*
X96650000Y-28000000D01*
X98650000Y-31900000D02*
X98650000Y-28000000D01*
X98050000Y-29400000D02*
X97250000Y-29400000D01*
X97250000Y-29400000D02*
X97650000Y-30000000D01*
X97650000Y-30000000D02*
X98050000Y-29400000D01*
X97650000Y-29400000D02*
X97650000Y-29100000D01*
X97650000Y-30000000D02*
X98200000Y-30000000D01*
X97650000Y-30000000D02*
X97100000Y-30000000D01*
X97650000Y-30000000D02*
X97650000Y-30300000D01*
X116650000Y-31900000D02*
X114650000Y-31900000D01*
X114650000Y-31900000D02*
X114650000Y-28000000D01*
X116650000Y-31900000D02*
X116650000Y-28000000D01*
X116050000Y-29400000D02*
X115250000Y-29400000D01*
X115250000Y-29400000D02*
X115650000Y-30000000D01*
X115650000Y-30000000D02*
X116050000Y-29400000D01*
X115650000Y-29400000D02*
X115650000Y-29100000D01*
X115650000Y-30000000D02*
X116200000Y-30000000D01*
X115650000Y-30000000D02*
X115100000Y-30000000D01*
X115650000Y-30000000D02*
X115650000Y-30300000D01*
X134650000Y-31900000D02*
X132650000Y-31900000D01*
X132650000Y-31900000D02*
X132650000Y-28000000D01*
X134650000Y-31900000D02*
X134650000Y-28000000D01*
X134050000Y-29400000D02*
X133250000Y-29400000D01*
X133250000Y-29400000D02*
X133650000Y-30000000D01*
X133650000Y-30000000D02*
X134050000Y-29400000D01*
X133650000Y-29400000D02*
X133650000Y-29100000D01*
X133650000Y-30000000D02*
X134200000Y-30000000D01*
X133650000Y-30000000D02*
X133100000Y-30000000D01*
X133650000Y-30000000D02*
X133650000Y-30300000D01*
X152650000Y-31900000D02*
X150650000Y-31900000D01*
X150650000Y-31900000D02*
X150650000Y-28000000D01*
X152650000Y-31900000D02*
X152650000Y-28000000D01*
X152050000Y-29400000D02*
X151250000Y-29400000D01*
X151250000Y-29400000D02*
X151650000Y-30000000D01*
X151650000Y-30000000D02*
X152050000Y-29400000D01*
X151650000Y-29400000D02*
X151650000Y-29100000D01*
X151650000Y-30000000D02*
X152200000Y-30000000D01*
X151650000Y-30000000D02*
X151100000Y-30000000D01*
X151650000Y-30000000D02*
X151650000Y-30300000D01*
X170650000Y-31900000D02*
X168650000Y-31900000D01*
X168650000Y-31900000D02*
X168650000Y-28000000D01*
X170650000Y-31900000D02*
X170650000Y-28000000D01*
X170050000Y-29400000D02*
X169250000Y-29400000D01*
X169250000Y-29400000D02*
X169650000Y-30000000D01*
X169650000Y-30000000D02*
X170050000Y-29400000D01*
X169650000Y-29400000D02*
X169650000Y-29100000D01*
X169650000Y-30000000D02*
X170200000Y-30000000D01*
X169650000Y-30000000D02*
X169100000Y-30000000D01*
X169650000Y-30000000D02*
X169650000Y-30300000D01*
X188650000Y-31900000D02*
X186650000Y-31900000D01*
X186650000Y-31900000D02*
X186650000Y-28000000D01*
X188650000Y-31900000D02*
X188650000Y-28000000D01*
X188050000Y-29400000D02*
X187250000Y-29400000D01*
X187250000Y-29400000D02*
X187650000Y-30000000D01*
X187650000Y-30000000D02*
X188050000Y-29400000D01*
X187650000Y-29400000D02*
X187650000Y-29100000D01*
X187650000Y-30000000D02*
X188200000Y-30000000D01*
X187650000Y-30000000D02*
X187100000Y-30000000D01*
X187650000Y-30000000D02*
X187650000Y-30300000D01*
X206650000Y-31900000D02*
X204650000Y-31900000D01*
X204650000Y-31900000D02*
X204650000Y-28000000D01*
X206650000Y-31900000D02*
X206650000Y-28000000D01*
X206050000Y-29400000D02*
X205250000Y-29400000D01*
X205250000Y-29400000D02*
X205650000Y-30000000D01*
X205650000Y-30000000D02*
X206050000Y-29400000D01*
X205650000Y-29400000D02*
X205650000Y-29100000D01*
X205650000Y-30000000D02*
X206200000Y-30000000D01*
X205650000Y-30000000D02*
X205100000Y-30000000D01*
X205650000Y-30000000D02*
X205650000Y-30300000D01*
X224650000Y-31900000D02*
X222650000Y-31900000D01*
X222650000Y-31900000D02*
X222650000Y-28000000D01*
X224650000Y-31900000D02*
X224650000Y-28000000D01*
X224050000Y-29400000D02*
X223250000Y-29400000D01*
X223250000Y-29400000D02*
X223650000Y-30000000D01*
X223650000Y-30000000D02*
X224050000Y-29400000D01*
X223650000Y-29400000D02*
X223650000Y-29100000D01*
X223650000Y-30000000D02*
X224200000Y-30000000D01*
X223650000Y-30000000D02*
X223100000Y-30000000D01*
X223650000Y-30000000D02*
X223650000Y-30300000D01*
X242650000Y-31900000D02*
X240650000Y-31900000D01*
X240650000Y-31900000D02*
X240650000Y-28000000D01*
X242650000Y-31900000D02*
X242650000Y-28000000D01*
X242050000Y-29400000D02*
X241250000Y-29400000D01*
X241250000Y-29400000D02*
X241650000Y-30000000D01*
X241650000Y-30000000D02*
X242050000Y-29400000D01*
X241650000Y-29400000D02*
X241650000Y-29100000D01*
X241650000Y-30000000D02*
X242200000Y-30000000D01*
X241650000Y-30000000D02*
X241100000Y-30000000D01*
X241650000Y-30000000D02*
X241650000Y-30300000D01*
X265150000Y-14900000D02*
X263150000Y-14900000D01*
X263150000Y-14900000D02*
X263150000Y-11000000D01*
X265150000Y-14900000D02*
X265150000Y-11000000D01*
X264550000Y-12400000D02*
X263750000Y-12400000D01*
X263750000Y-12400000D02*
X264150000Y-13000000D01*
X264150000Y-13000000D02*
X264550000Y-12400000D01*
X264150000Y-12400000D02*
X264150000Y-12100000D01*
X264150000Y-13000000D02*
X264700000Y-13000000D01*
X264150000Y-13000000D02*
X263600000Y-13000000D01*
X264150000Y-13000000D02*
X264150000Y-13300000D01*
X4150000Y-48900000D02*
X2150000Y-48900000D01*
X2150000Y-48900000D02*
X2150000Y-45000000D01*
X4150000Y-48900000D02*
X4150000Y-45000000D01*
X3550000Y-46400000D02*
X2750000Y-46400000D01*
X2750000Y-46400000D02*
X3150000Y-47000000D01*
X3150000Y-47000000D02*
X3550000Y-46400000D01*
X3150000Y-46400000D02*
X3150000Y-46100000D01*
X3150000Y-47000000D02*
X3700000Y-47000000D01*
X3150000Y-47000000D02*
X2600000Y-47000000D01*
X3150000Y-47000000D02*
X3150000Y-47300000D01*
X26650000Y-48900000D02*
X24650000Y-48900000D01*
X24650000Y-48900000D02*
X24650000Y-45000000D01*
X26650000Y-48900000D02*
X26650000Y-45000000D01*
X26050000Y-46400000D02*
X25250000Y-46400000D01*
X25250000Y-46400000D02*
X25650000Y-47000000D01*
X25650000Y-47000000D02*
X26050000Y-46400000D01*
X25650000Y-46400000D02*
X25650000Y-46100000D01*
X25650000Y-47000000D02*
X26200000Y-47000000D01*
X25650000Y-47000000D02*
X25100000Y-47000000D01*
X25650000Y-47000000D02*
X25650000Y-47300000D01*
X44650000Y-48900000D02*
X42650000Y-48900000D01*
X42650000Y-48900000D02*
X42650000Y-45000000D01*
X44650000Y-48900000D02*
X44650000Y-45000000D01*
X44050000Y-46400000D02*
X43250000Y-46400000D01*
X43250000Y-46400000D02*
X43650000Y-47000000D01*
X43650000Y-47000000D02*
X44050000Y-46400000D01*
X43650000Y-46400000D02*
X43650000Y-46100000D01*
X43650000Y-47000000D02*
X44200000Y-47000000D01*
X43650000Y-47000000D02*
X43100000Y-47000000D01*
X43650000Y-47000000D02*
X43650000Y-47300000D01*
X62650000Y-48900000D02*
X60650000Y-48900000D01*
X60650000Y-48900000D02*
X60650000Y-45000000D01*
X62650000Y-48900000D02*
X62650000Y-45000000D01*
X62050000Y-46400000D02*
X61250000Y-46400000D01*
X61250000Y-46400000D02*
X61650000Y-47000000D01*
X61650000Y-47000000D02*
X62050000Y-46400000D01*
X61650000Y-46400000D02*
X61650000Y-46100000D01*
X61650000Y-47000000D02*
X62200000Y-47000000D01*
X61650000Y-47000000D02*
X61100000Y-47000000D01*
X61650000Y-47000000D02*
X61650000Y-47300000D01*
X80650000Y-48900000D02*
X78650000Y-48900000D01*
X78650000Y-48900000D02*
X78650000Y-45000000D01*
X80650000Y-48900000D02*
X80650000Y-45000000D01*
X80050000Y-46400000D02*
X79250000Y-46400000D01*
X79250000Y-46400000D02*
X79650000Y-47000000D01*
X79650000Y-47000000D02*
X80050000Y-46400000D01*
X79650000Y-46400000D02*
X79650000Y-46100000D01*
X79650000Y-47000000D02*
X80200000Y-47000000D01*
X79650000Y-47000000D02*
X79100000Y-47000000D01*
X79650000Y-47000000D02*
X79650000Y-47300000D01*
X98650000Y-48900000D02*
X96650000Y-48900000D01*
X96650000Y-48900000D02*
X96650000Y-45000000D01*
X98650000Y-48900000D02*
X98650000Y-45000000D01*
X98050000Y-46400000D02*
X97250000Y-46400000D01*
X97250000Y-46400000D02*
X97650000Y-47000000D01*
X97650000Y-47000000D02*
X98050000Y-46400000D01*
X97650000Y-46400000D02*
X97650000Y-46100000D01*
X97650000Y-47000000D02*
X98200000Y-47000000D01*
X97650000Y-47000000D02*
X97100000Y-47000000D01*
X97650000Y-47000000D02*
X97650000Y-47300000D01*
X116650000Y-48900000D02*
X114650000Y-48900000D01*
X114650000Y-48900000D02*
X114650000Y-45000000D01*
X116650000Y-48900000D02*
X116650000Y-45000000D01*
X116050000Y-46400000D02*
X115250000Y-46400000D01*
X115250000Y-46400000D02*
X115650000Y-47000000D01*
X115650000Y-47000000D02*
X116050000Y-46400000D01*
X115650000Y-46400000D02*
X115650000Y-46100000D01*
X115650000Y-47000000D02*
X116200000Y-47000000D01*
X115650000Y-47000000D02*
X115100000Y-47000000D01*
X115650000Y-47000000D02*
X115650000Y-47300000D01*
X152650000Y-48900000D02*
X150650000Y-48900000D01*
X150650000Y-48900000D02*
X150650000Y-45000000D01*
X152650000Y-48900000D02*
X152650000Y-45000000D01*
X152050000Y-46400000D02*
X151250000Y-46400000D01*
X151250000Y-46400000D02*
X151650000Y-47000000D01*
X151650000Y-47000000D02*
X152050000Y-46400000D01*
X151650000Y-46400000D02*
X151650000Y-46100000D01*
X151650000Y-47000000D02*
X152200000Y-47000000D01*
X151650000Y-47000000D02*
X151100000Y-47000000D01*
X151650000Y-47000000D02*
X151650000Y-47300000D01*
X170650000Y-48900000D02*
X168650000Y-48900000D01*
X168650000Y-48900000D02*
X168650000Y-45000000D01*
X170650000Y-48900000D02*
X170650000Y-45000000D01*
X170050000Y-46400000D02*
X169250000Y-46400000D01*
X169250000Y-46400000D02*
X169650000Y-47000000D01*
X169650000Y-47000000D02*
X170050000Y-46400000D01*
X169650000Y-46400000D02*
X169650000Y-46100000D01*
X169650000Y-47000000D02*
X170200000Y-47000000D01*
X169650000Y-47000000D02*
X169100000Y-47000000D01*
X169650000Y-47000000D02*
X169650000Y-47300000D01*
X188650000Y-48900000D02*
X186650000Y-48900000D01*
X186650000Y-48900000D02*
X186650000Y-45000000D01*
X188650000Y-48900000D02*
X188650000Y-45000000D01*
X188050000Y-46400000D02*
X187250000Y-46400000D01*
X187250000Y-46400000D02*
X187650000Y-47000000D01*
X187650000Y-47000000D02*
X188050000Y-46400000D01*
X187650000Y-46400000D02*
X187650000Y-46100000D01*
X187650000Y-47000000D02*
X188200000Y-47000000D01*
X187650000Y-47000000D02*
X187100000Y-47000000D01*
X187650000Y-47000000D02*
X187650000Y-47300000D01*
X206650000Y-48900000D02*
X204650000Y-48900000D01*
X204650000Y-48900000D02*
X204650000Y-45000000D01*
X206650000Y-48900000D02*
X206650000Y-45000000D01*
X206050000Y-46400000D02*
X205250000Y-46400000D01*
X205250000Y-46400000D02*
X205650000Y-47000000D01*
X205650000Y-47000000D02*
X206050000Y-46400000D01*
X205650000Y-46400000D02*
X205650000Y-46100000D01*
X205650000Y-47000000D02*
X206200000Y-47000000D01*
X205650000Y-47000000D02*
X205100000Y-47000000D01*
X205650000Y-47000000D02*
X205650000Y-47300000D01*
X224650000Y-48900000D02*
X222650000Y-48900000D01*
X222650000Y-48900000D02*
X222650000Y-45000000D01*
X224650000Y-48900000D02*
X224650000Y-45000000D01*
X224050000Y-46400000D02*
X223250000Y-46400000D01*
X223250000Y-46400000D02*
X223650000Y-47000000D01*
X223650000Y-47000000D02*
X224050000Y-46400000D01*
X223650000Y-46400000D02*
X223650000Y-46100000D01*
X223650000Y-47000000D02*
X224200000Y-47000000D01*
X223650000Y-47000000D02*
X223100000Y-47000000D01*
X223650000Y-47000000D02*
X223650000Y-47300000D01*
X242650000Y-48900000D02*
X240650000Y-48900000D01*
X240650000Y-48900000D02*
X240650000Y-45000000D01*
X242650000Y-48900000D02*
X242650000Y-45000000D01*
X242050000Y-46400000D02*
X241250000Y-46400000D01*
X241250000Y-46400000D02*
X241650000Y-47000000D01*
X241650000Y-47000000D02*
X242050000Y-46400000D01*
X241650000Y-46400000D02*
X241650000Y-46100000D01*
X241650000Y-47000000D02*
X242200000Y-47000000D01*
X241650000Y-47000000D02*
X241100000Y-47000000D01*
X241650000Y-47000000D02*
X241650000Y-47300000D01*
X265150000Y-31900000D02*
X263150000Y-31900000D01*
X263150000Y-31900000D02*
X263150000Y-28000000D01*
X265150000Y-31900000D02*
X265150000Y-28000000D01*
X264550000Y-29400000D02*
X263750000Y-29400000D01*
X263750000Y-29400000D02*
X264150000Y-30000000D01*
X264150000Y-30000000D02*
X264550000Y-29400000D01*
X264150000Y-29400000D02*
X264150000Y-29100000D01*
X264150000Y-30000000D02*
X264700000Y-30000000D01*
X264150000Y-30000000D02*
X263600000Y-30000000D01*
X264150000Y-30000000D02*
X264150000Y-30300000D01*
X4150000Y-65900000D02*
X2150000Y-65900000D01*
X2150000Y-65900000D02*
X2150000Y-62000000D01*
X4150000Y-65900000D02*
X4150000Y-62000000D01*
X3550000Y-63400000D02*
X2750000Y-63400000D01*
X2750000Y-63400000D02*
X3150000Y-64000000D01*
X3150000Y-64000000D02*
X3550000Y-63400000D01*
X3150000Y-63400000D02*
X3150000Y-63100000D01*
X3150000Y-64000000D02*
X3700000Y-64000000D01*
X3150000Y-64000000D02*
X2600000Y-64000000D01*
X3150000Y-64000000D02*
X3150000Y-64300000D01*
X31150000Y-65900000D02*
X29150000Y-65900000D01*
X29150000Y-65900000D02*
X29150000Y-62000000D01*
X31150000Y-65900000D02*
X31150000Y-62000000D01*
X30550000Y-63400000D02*
X29750000Y-63400000D01*
X29750000Y-63400000D02*
X30150000Y-64000000D01*
X30150000Y-64000000D02*
X30550000Y-63400000D01*
X30150000Y-63400000D02*
X30150000Y-63100000D01*
X30150000Y-64000000D02*
X30700000Y-64000000D01*
X30150000Y-64000000D02*
X29600000Y-64000000D01*
X30150000Y-64000000D02*
X30150000Y-64300000D01*
X53650000Y-65900000D02*
X51650000Y-65900000D01*
X51650000Y-65900000D02*
X51650000Y-62000000D01*
X53650000Y-65900000D02*
X53650000Y-62000000D01*
X53050000Y-63400000D02*
X52250000Y-63400000D01*
X52250000Y-63400000D02*
X52650000Y-64000000D01*
X52650000Y-64000000D02*
X53050000Y-63400000D01*
X52650000Y-63400000D02*
X52650000Y-63100000D01*
X52650000Y-64000000D02*
X53200000Y-64000000D01*
X52650000Y-64000000D02*
X52100000Y-64000000D01*
X52650000Y-64000000D02*
X52650000Y-64300000D01*
X71650000Y-65900000D02*
X69650000Y-65900000D01*
X69650000Y-65900000D02*
X69650000Y-62000000D01*
X71650000Y-65900000D02*
X71650000Y-62000000D01*
X71050000Y-63400000D02*
X70250000Y-63400000D01*
X70250000Y-63400000D02*
X70650000Y-64000000D01*
X70650000Y-64000000D02*
X71050000Y-63400000D01*
X70650000Y-63400000D02*
X70650000Y-63100000D01*
X70650000Y-64000000D02*
X71200000Y-64000000D01*
X70650000Y-64000000D02*
X70100000Y-64000000D01*
X70650000Y-64000000D02*
X70650000Y-64300000D01*
X89650000Y-65900000D02*
X87650000Y-65900000D01*
X87650000Y-65900000D02*
X87650000Y-62000000D01*
X89650000Y-65900000D02*
X89650000Y-62000000D01*
X89050000Y-63400000D02*
X88250000Y-63400000D01*
X88250000Y-63400000D02*
X88650000Y-64000000D01*
X88650000Y-64000000D02*
X89050000Y-63400000D01*
X88650000Y-63400000D02*
X88650000Y-63100000D01*
X88650000Y-64000000D02*
X89200000Y-64000000D01*
X88650000Y-64000000D02*
X88100000Y-64000000D01*
X88650000Y-64000000D02*
X88650000Y-64300000D01*
X106650000Y-64000000D02*
X106650000Y-64300000D01*
X106650000Y-64000000D02*
X106100000Y-64000000D01*
X106650000Y-64000000D02*
X107200000Y-64000000D01*
X106650000Y-63400000D02*
X106650000Y-63100000D01*
X106650000Y-64000000D02*
X107050000Y-63400000D01*
X106250000Y-63400000D02*
X106650000Y-64000000D01*
X107050000Y-63400000D02*
X106250000Y-63400000D01*
X107650000Y-65900000D02*
X107650000Y-62000000D01*
X105650000Y-65900000D02*
X105650000Y-62000000D01*
X107650000Y-65900000D02*
X105650000Y-65900000D01*
X117400000Y-57600000D02*
X115400000Y-57600000D01*
X115400000Y-57600000D02*
X115400000Y-53700000D01*
X117400000Y-57600000D02*
X117400000Y-53700000D01*
X116800000Y-55100000D02*
X116000000Y-55100000D01*
X116000000Y-55100000D02*
X116400000Y-55700000D01*
X116400000Y-55700000D02*
X116800000Y-55100000D01*
X116400000Y-55100000D02*
X116400000Y-54800000D01*
X116400000Y-55700000D02*
X116950000Y-55700000D01*
X116400000Y-55700000D02*
X115850000Y-55700000D01*
X116400000Y-55700000D02*
X116400000Y-56000000D01*
X142650000Y-64000000D02*
X142650000Y-64300000D01*
X142650000Y-64000000D02*
X142100000Y-64000000D01*
X142650000Y-64000000D02*
X143200000Y-64000000D01*
X142650000Y-63400000D02*
X142650000Y-63100000D01*
X142650000Y-64000000D02*
X143050000Y-63400000D01*
X142250000Y-63400000D02*
X142650000Y-64000000D01*
X143050000Y-63400000D02*
X142250000Y-63400000D01*
X143650000Y-65900000D02*
X143650000Y-62000000D01*
X141650000Y-65900000D02*
X141650000Y-62000000D01*
X143650000Y-65900000D02*
X141650000Y-65900000D01*
X161650000Y-65900000D02*
X159650000Y-65900000D01*
X159650000Y-65900000D02*
X159650000Y-62000000D01*
X161650000Y-65900000D02*
X161650000Y-62000000D01*
X161050000Y-63400000D02*
X160250000Y-63400000D01*
X160250000Y-63400000D02*
X160650000Y-64000000D01*
X160650000Y-64000000D02*
X161050000Y-63400000D01*
X160650000Y-63400000D02*
X160650000Y-63100000D01*
X160650000Y-64000000D02*
X161200000Y-64000000D01*
X160650000Y-64000000D02*
X160100000Y-64000000D01*
X160650000Y-64000000D02*
X160650000Y-64300000D01*
X179650000Y-65900000D02*
X177650000Y-65900000D01*
X177650000Y-65900000D02*
X177650000Y-62000000D01*
X179650000Y-65900000D02*
X179650000Y-62000000D01*
X179050000Y-63400000D02*
X178250000Y-63400000D01*
X178250000Y-63400000D02*
X178650000Y-64000000D01*
X178650000Y-64000000D02*
X179050000Y-63400000D01*
X178650000Y-63400000D02*
X178650000Y-63100000D01*
X178650000Y-64000000D02*
X179200000Y-64000000D01*
X178650000Y-64000000D02*
X178100000Y-64000000D01*
X178650000Y-64000000D02*
X178650000Y-64300000D01*
X197650000Y-65900000D02*
X195650000Y-65900000D01*
X195650000Y-65900000D02*
X195650000Y-62000000D01*
X197650000Y-65900000D02*
X197650000Y-62000000D01*
X197050000Y-63400000D02*
X196250000Y-63400000D01*
X196250000Y-63400000D02*
X196650000Y-64000000D01*
X196650000Y-64000000D02*
X197050000Y-63400000D01*
X196650000Y-63400000D02*
X196650000Y-63100000D01*
X196650000Y-64000000D02*
X197200000Y-64000000D01*
X196650000Y-64000000D02*
X196100000Y-64000000D01*
X196650000Y-64000000D02*
X196650000Y-64300000D01*
X215650000Y-65900000D02*
X213650000Y-65900000D01*
X213650000Y-65900000D02*
X213650000Y-62000000D01*
X215650000Y-65900000D02*
X215650000Y-62000000D01*
X215050000Y-63400000D02*
X214250000Y-63400000D01*
X214250000Y-63400000D02*
X214650000Y-64000000D01*
X214650000Y-64000000D02*
X215050000Y-63400000D01*
X214650000Y-63400000D02*
X214650000Y-63100000D01*
X214650000Y-64000000D02*
X215200000Y-64000000D01*
X214650000Y-64000000D02*
X214100000Y-64000000D01*
X214650000Y-64000000D02*
X214650000Y-64300000D01*
X240400000Y-65900000D02*
X238400000Y-65900000D01*
X238400000Y-65900000D02*
X238400000Y-62000000D01*
X240400000Y-65900000D02*
X240400000Y-62000000D01*
X239800000Y-63400000D02*
X239000000Y-63400000D01*
X239000000Y-63400000D02*
X239400000Y-64000000D01*
X239400000Y-64000000D02*
X239800000Y-63400000D01*
X239400000Y-63400000D02*
X239400000Y-63100000D01*
X239400000Y-64000000D02*
X239950000Y-64000000D01*
X239400000Y-64000000D02*
X238850000Y-64000000D01*
X239400000Y-64000000D02*
X239400000Y-64300000D01*
X26650000Y-82900000D02*
X24650000Y-82900000D01*
X24650000Y-82900000D02*
X24650000Y-79000000D01*
X26650000Y-82900000D02*
X26650000Y-79000000D01*
X26050000Y-80400000D02*
X25250000Y-80400000D01*
X25250000Y-80400000D02*
X25650000Y-81000000D01*
X25650000Y-81000000D02*
X26050000Y-80400000D01*
X25650000Y-80400000D02*
X25650000Y-80100000D01*
X25650000Y-81000000D02*
X26200000Y-81000000D01*
X25650000Y-81000000D02*
X25100000Y-81000000D01*
X25650000Y-81000000D02*
X25650000Y-81300000D01*
X44650000Y-82900000D02*
X42650000Y-82900000D01*
X42650000Y-82900000D02*
X42650000Y-79000000D01*
X44650000Y-82900000D02*
X44650000Y-79000000D01*
X44050000Y-80400000D02*
X43250000Y-80400000D01*
X43250000Y-80400000D02*
X43650000Y-81000000D01*
X43650000Y-81000000D02*
X44050000Y-80400000D01*
X43650000Y-80400000D02*
X43650000Y-80100000D01*
X43650000Y-81000000D02*
X44200000Y-81000000D01*
X43650000Y-81000000D02*
X43100000Y-81000000D01*
X43650000Y-81000000D02*
X43650000Y-81300000D01*
X62650000Y-82900000D02*
X60650000Y-82900000D01*
X60650000Y-82900000D02*
X60650000Y-79000000D01*
X62650000Y-82900000D02*
X62650000Y-79000000D01*
X62050000Y-80400000D02*
X61250000Y-80400000D01*
X61250000Y-80400000D02*
X61650000Y-81000000D01*
X61650000Y-81000000D02*
X62050000Y-80400000D01*
X61650000Y-80400000D02*
X61650000Y-80100000D01*
X61650000Y-81000000D02*
X62200000Y-81000000D01*
X61650000Y-81000000D02*
X61100000Y-81000000D01*
X61650000Y-81000000D02*
X61650000Y-81300000D01*
X108950000Y-81900000D02*
X109250000Y-81900000D01*
X108950000Y-81900000D02*
X108950000Y-82450000D01*
X108950000Y-81900000D02*
X108950000Y-81350000D01*
X108350000Y-81900000D02*
X108050000Y-81900000D01*
X108950000Y-81900000D02*
X108350000Y-81500000D01*
X108350000Y-82300000D02*
X108950000Y-81900000D01*
X108350000Y-81500000D02*
X108350000Y-82300000D01*
X110850000Y-80900000D02*
X106950000Y-80900000D01*
X110850000Y-82900000D02*
X106950000Y-82900000D01*
X110850000Y-80900000D02*
X110850000Y-82900000D01*
X142047487Y-79802513D02*
X142259619Y-79590381D01*
X142047487Y-79802513D02*
X142436396Y-80191421D01*
X142047487Y-79802513D02*
X141658579Y-79413604D01*
X141623223Y-80226777D02*
X141411091Y-80438909D01*
X142047487Y-79802513D02*
X141340381Y-79943934D01*
X141906066Y-80509619D02*
X142047487Y-79802513D01*
X141340381Y-79943934D02*
X141906066Y-80509619D01*
X142683883Y-77751903D02*
X139926167Y-80509619D01*
X144098097Y-79166117D02*
X141340381Y-81923833D01*
X142683883Y-77751903D02*
X144098097Y-79166117D01*
X188650000Y-82900000D02*
X186650000Y-82900000D01*
X186650000Y-82900000D02*
X186650000Y-79000000D01*
X188650000Y-82900000D02*
X188650000Y-79000000D01*
X188050000Y-80400000D02*
X187250000Y-80400000D01*
X187250000Y-80400000D02*
X187650000Y-81000000D01*
X187650000Y-81000000D02*
X188050000Y-80400000D01*
X187650000Y-80400000D02*
X187650000Y-80100000D01*
X187650000Y-81000000D02*
X188200000Y-81000000D01*
X187650000Y-81000000D02*
X187100000Y-81000000D01*
X187650000Y-81000000D02*
X187650000Y-81300000D01*
X206650000Y-82900000D02*
X204650000Y-82900000D01*
X204650000Y-82900000D02*
X204650000Y-79000000D01*
X206650000Y-82900000D02*
X206650000Y-79000000D01*
X206050000Y-80400000D02*
X205250000Y-80400000D01*
X205250000Y-80400000D02*
X205650000Y-81000000D01*
X205650000Y-81000000D02*
X206050000Y-80400000D01*
X205650000Y-80400000D02*
X205650000Y-80100000D01*
X205650000Y-81000000D02*
X206200000Y-81000000D01*
X205650000Y-81000000D02*
X205100000Y-81000000D01*
X205650000Y-81000000D02*
X205650000Y-81300000D01*
X226900000Y-82900000D02*
X224900000Y-82900000D01*
X224900000Y-82900000D02*
X224900000Y-79000000D01*
X226900000Y-82900000D02*
X226900000Y-79000000D01*
X226300000Y-80400000D02*
X225500000Y-80400000D01*
X225500000Y-80400000D02*
X225900000Y-81000000D01*
X225900000Y-81000000D02*
X226300000Y-80400000D01*
X225900000Y-80400000D02*
X225900000Y-80100000D01*
X225900000Y-81000000D02*
X226450000Y-81000000D01*
X225900000Y-81000000D02*
X225350000Y-81000000D01*
X225900000Y-81000000D02*
X225900000Y-81300000D01*
X247150000Y-82900000D02*
X245150000Y-82900000D01*
X245150000Y-82900000D02*
X245150000Y-79000000D01*
X247150000Y-82900000D02*
X247150000Y-79000000D01*
X246550000Y-80400000D02*
X245750000Y-80400000D01*
X245750000Y-80400000D02*
X246150000Y-81000000D01*
X246150000Y-81000000D02*
X246550000Y-80400000D01*
X246150000Y-80400000D02*
X246150000Y-80100000D01*
X246150000Y-81000000D02*
X246700000Y-81000000D01*
X246150000Y-81000000D02*
X245600000Y-81000000D01*
X246150000Y-81000000D02*
X246150000Y-81300000D01*
X283150000Y-82900000D02*
X281150000Y-82900000D01*
X281150000Y-82900000D02*
X281150000Y-79000000D01*
X283150000Y-82900000D02*
X283150000Y-79000000D01*
X282550000Y-80400000D02*
X281750000Y-80400000D01*
X281750000Y-80400000D02*
X282150000Y-81000000D01*
X282150000Y-81000000D02*
X282550000Y-80400000D01*
X282150000Y-80400000D02*
X282150000Y-80100000D01*
X282150000Y-81000000D02*
X282700000Y-81000000D01*
X282150000Y-81000000D02*
X281600000Y-81000000D01*
X282150000Y-81000000D02*
X282150000Y-81300000D01*
X6531250Y-82900000D02*
X4531250Y-82900000D01*
X4531250Y-82900000D02*
X4531250Y-79000000D01*
X6531250Y-82900000D02*
X6531250Y-79000000D01*
X5931250Y-80400000D02*
X5131250Y-80400000D01*
X5131250Y-80400000D02*
X5531250Y-81000000D01*
X5531250Y-81000000D02*
X5931250Y-80400000D01*
X5531250Y-80400000D02*
X5531250Y-80100000D01*
X5531250Y-81000000D02*
X6081250Y-81000000D01*
X5531250Y-81000000D02*
X4981250Y-81000000D01*
X5531250Y-81000000D02*
X5531250Y-81300000D01*
X80650000Y-82900000D02*
X78650000Y-82900000D01*
X78650000Y-82900000D02*
X78650000Y-79000000D01*
X80650000Y-82900000D02*
X80650000Y-79000000D01*
X80050000Y-80400000D02*
X79250000Y-80400000D01*
X79250000Y-80400000D02*
X79650000Y-81000000D01*
X79650000Y-81000000D02*
X80050000Y-80400000D01*
X79650000Y-80400000D02*
X79650000Y-80100000D01*
X79650000Y-81000000D02*
X80200000Y-81000000D01*
X79650000Y-81000000D02*
X79100000Y-81000000D01*
X79650000Y-81000000D02*
X79650000Y-81300000D01*
X265150000Y-65900000D02*
X263150000Y-65900000D01*
X263150000Y-65900000D02*
X263150000Y-62000000D01*
X265150000Y-65900000D02*
X265150000Y-62000000D01*
X264550000Y-63400000D02*
X263750000Y-63400000D01*
X263750000Y-63400000D02*
X264150000Y-64000000D01*
X264150000Y-64000000D02*
X264550000Y-63400000D01*
X264150000Y-63400000D02*
X264150000Y-63100000D01*
X264150000Y-64000000D02*
X264700000Y-64000000D01*
X264150000Y-64000000D02*
X263600000Y-64000000D01*
X264150000Y-64000000D02*
X264150000Y-64300000D01*
X265150000Y-82900000D02*
X263150000Y-82900000D01*
X263150000Y-82900000D02*
X263150000Y-79000000D01*
X265150000Y-82900000D02*
X265150000Y-79000000D01*
X264550000Y-80400000D02*
X263750000Y-80400000D01*
X263750000Y-80400000D02*
X264150000Y-81000000D01*
X264150000Y-81000000D02*
X264550000Y-80400000D01*
X264150000Y-80400000D02*
X264150000Y-80100000D01*
X264150000Y-81000000D02*
X264700000Y-81000000D01*
X264150000Y-81000000D02*
X263600000Y-81000000D01*
X264150000Y-81000000D02*
X264150000Y-81300000D01*
X283150000Y-31900000D02*
X281150000Y-31900000D01*
X281150000Y-31900000D02*
X281150000Y-28000000D01*
X283150000Y-31900000D02*
X283150000Y-28000000D01*
X282550000Y-29400000D02*
X281750000Y-29400000D01*
X281750000Y-29400000D02*
X282150000Y-30000000D01*
X282150000Y-30000000D02*
X282550000Y-29400000D01*
X282150000Y-29400000D02*
X282150000Y-29100000D01*
X282150000Y-30000000D02*
X282700000Y-30000000D01*
X282150000Y-30000000D02*
X281600000Y-30000000D01*
X282150000Y-30000000D02*
X282150000Y-30300000D01*
X170650000Y-82900000D02*
X168650000Y-82900000D01*
X168650000Y-82900000D02*
X168650000Y-79000000D01*
X170650000Y-82900000D02*
X170650000Y-79000000D01*
X170050000Y-80400000D02*
X169250000Y-80400000D01*
X169250000Y-80400000D02*
X169650000Y-81000000D01*
X169650000Y-81000000D02*
X170050000Y-80400000D01*
X169650000Y-80400000D02*
X169650000Y-80100000D01*
X169650000Y-81000000D02*
X170200000Y-81000000D01*
X169650000Y-81000000D02*
X169100000Y-81000000D01*
X169650000Y-81000000D02*
X169650000Y-81300000D01*
X105785000Y-71277064D02*
X105785000Y-70822936D01*
X104315000Y-71277064D02*
X104315000Y-70822936D01*
X106265000Y-70788748D02*
X106265000Y-71311252D01*
X107735000Y-70788748D02*
X107735000Y-71311252D01*
X116711252Y-65885000D02*
X116188748Y-65885000D01*
X116711252Y-64415000D02*
X116188748Y-64415000D01*
X136054457Y-78665010D02*
X135684990Y-78295543D01*
X135015010Y-79704457D02*
X134645543Y-79334990D01*
X133211252Y-81565000D02*
X132688748Y-81565000D01*
X133211252Y-83035000D02*
X132688748Y-83035000D01*
X129638748Y-78385000D02*
X130161252Y-78385000D01*
X129638748Y-76915000D02*
X130161252Y-76915000D01*
X116745543Y-82734990D02*
X117115010Y-83104457D01*
X117784990Y-81695543D02*
X118154457Y-82065010D01*
X129145543Y-68315010D02*
X129515010Y-67945543D01*
X130184990Y-69354457D02*
X130554457Y-68984990D01*
X128784990Y-67954457D02*
X129154457Y-67584990D01*
X127745543Y-66915010D02*
X128115010Y-66545543D01*
X124684990Y-63854457D02*
X125054457Y-63484990D01*
X123645543Y-62815010D02*
X124015010Y-62445543D01*
X125069718Y-64140835D02*
X125390835Y-63819718D01*
X126109165Y-65180282D02*
X126430282Y-64859165D01*
X126419718Y-65490835D02*
X126740835Y-65169718D01*
X127459165Y-66530282D02*
X127780282Y-66209165D01*
D11*
X120410000Y-67041445D02*
X120816586Y-67448031D01*
X113091445Y-74360000D02*
X113568742Y-74837297D01*
X120410000Y-81678555D02*
X119932703Y-81201258D01*
X127728555Y-74360000D02*
X127251258Y-73882703D01*
X120410000Y-67041445D02*
X119932703Y-67518742D01*
X127728555Y-74360000D02*
X127251258Y-74837297D01*
X120410000Y-81678555D02*
X120887297Y-81201258D01*
X113091445Y-74360000D02*
X113568742Y-73882703D01*
X120816586Y-67448031D02*
X121718148Y-66546470D01*
D12*
X120085000Y-64311252D02*
X120085000Y-63788748D01*
X118615000Y-64311252D02*
X118615000Y-63788748D01*
X4961252Y-13415000D02*
X4438748Y-13415000D01*
X4961252Y-14885000D02*
X4438748Y-14885000D01*
X4472936Y-9515000D02*
X4927064Y-9515000D01*
X4472936Y-10985000D02*
X4927064Y-10985000D01*
X4927064Y-11465000D02*
X4472936Y-11465000D01*
X4927064Y-12935000D02*
X4472936Y-12935000D01*
X132777064Y-74435000D02*
X132322936Y-74435000D01*
X132777064Y-72965000D02*
X132322936Y-72965000D01*
X24565000Y-37377064D02*
X24565000Y-36922936D01*
X26035000Y-37377064D02*
X26035000Y-36922936D01*
X9715000Y-11200000D02*
X9715000Y-8750000D01*
X12935000Y-9400000D02*
X12935000Y-11200000D01*
X8810000Y-10777064D02*
X8810000Y-10322936D01*
X7340000Y-10777064D02*
X7340000Y-10322936D01*
X19235000Y-5072936D02*
X19235000Y-5527064D01*
X17765000Y-5072936D02*
X17765000Y-5527064D01*
X129350000Y-78750000D02*
X129350000Y-82750000D01*
X126050000Y-78750000D02*
X129350000Y-78750000D01*
D13*
X7925000Y-6725000D02*
G75*
G03*
X7925000Y-6725000I-100000J0D01*
G01*
D14*
X6755000Y2275000D02*
X6755000Y1045000D01*
X15695000Y2275000D02*
X6755000Y2275000D01*
X15695000Y1045000D02*
X15695000Y2275000D01*
X15695000Y-3135000D02*
X15695000Y-1695000D01*
X6755000Y-3135000D02*
X6755000Y-1695000D01*
D12*
X3130282Y-3990835D02*
X2809165Y-3669718D01*
X2090835Y-5030282D02*
X1769718Y-4709165D01*
D11*
X136102380Y-45054761D02*
X135102380Y-45054761D01*
X135102380Y-45292857D01*
X135150000Y-45435714D01*
X135245238Y-45530952D01*
X135340476Y-45578571D01*
X135530952Y-45626190D01*
X135673809Y-45626190D01*
X135864285Y-45578571D01*
X135959523Y-45530952D01*
X136054761Y-45435714D01*
X136102380Y-45292857D01*
X136102380Y-45054761D01*
X136197619Y-45816666D02*
X136197619Y-46578571D01*
X135435714Y-47245238D02*
X136102380Y-47245238D01*
X135054761Y-47007142D02*
X135769047Y-46769047D01*
X135769047Y-47388095D01*
X135102380Y-47959523D02*
X135102380Y-48054761D01*
X135150000Y-48150000D01*
X135197619Y-48197619D01*
X135292857Y-48245238D01*
X135483333Y-48292857D01*
X135721428Y-48292857D01*
X135911904Y-48245238D01*
X136007142Y-48197619D01*
X136054761Y-48150000D01*
X136102380Y-48054761D01*
X136102380Y-47959523D01*
X136054761Y-47864285D01*
X136007142Y-47816666D01*
X135911904Y-47769047D01*
X135721428Y-47721428D01*
X135483333Y-47721428D01*
X135292857Y-47769047D01*
X135197619Y-47816666D01*
X135150000Y-47864285D01*
X135102380Y-47959523D01*
X-4088832Y-15028595D02*
X-4795938Y-14321488D01*
X-4964297Y-14489847D01*
X-5031641Y-14624534D01*
X-5031641Y-14759221D01*
X-4997969Y-14860236D01*
X-4896954Y-15028595D01*
X-4795938Y-15129610D01*
X-4627580Y-15230625D01*
X-4526564Y-15264297D01*
X-4391877Y-15264297D01*
X-4257190Y-15196954D01*
X-4088832Y-15028595D01*
X-4560236Y-15634687D02*
X-5098984Y-16173435D01*
X-5705076Y-16644839D02*
X-5301015Y-16240778D01*
X-5503045Y-16442809D02*
X-6210152Y-15735702D01*
X-6041793Y-15769374D01*
X-5907106Y-15769374D01*
X-5806091Y-15735702D01*
X28102380Y-11530952D02*
X27102380Y-11530952D01*
X27102380Y-11769047D01*
X27150000Y-11911904D01*
X27245238Y-12007142D01*
X27340476Y-12054761D01*
X27530952Y-12102380D01*
X27673809Y-12102380D01*
X27864285Y-12054761D01*
X27959523Y-12007142D01*
X28054761Y-11911904D01*
X28102380Y-11769047D01*
X28102380Y-11530952D01*
X28197619Y-12292857D02*
X28197619Y-13054761D01*
X27197619Y-13245238D02*
X27150000Y-13292857D01*
X27102380Y-13388095D01*
X27102380Y-13626190D01*
X27150000Y-13721428D01*
X27197619Y-13769047D01*
X27292857Y-13816666D01*
X27388095Y-13816666D01*
X27530952Y-13769047D01*
X28102380Y-13197619D01*
X28102380Y-13816666D01*
X46102380Y-11530952D02*
X45102380Y-11530952D01*
X45102380Y-11769047D01*
X45150000Y-11911904D01*
X45245238Y-12007142D01*
X45340476Y-12054761D01*
X45530952Y-12102380D01*
X45673809Y-12102380D01*
X45864285Y-12054761D01*
X45959523Y-12007142D01*
X46054761Y-11911904D01*
X46102380Y-11769047D01*
X46102380Y-11530952D01*
X46197619Y-12292857D02*
X46197619Y-13054761D01*
X45102380Y-13197619D02*
X45102380Y-13816666D01*
X45483333Y-13483333D01*
X45483333Y-13626190D01*
X45530952Y-13721428D01*
X45578571Y-13769047D01*
X45673809Y-13816666D01*
X45911904Y-13816666D01*
X46007142Y-13769047D01*
X46054761Y-13721428D01*
X46102380Y-13626190D01*
X46102380Y-13340476D01*
X46054761Y-13245238D01*
X46007142Y-13197619D01*
X64102380Y-11530952D02*
X63102380Y-11530952D01*
X63102380Y-11769047D01*
X63150000Y-11911904D01*
X63245238Y-12007142D01*
X63340476Y-12054761D01*
X63530952Y-12102380D01*
X63673809Y-12102380D01*
X63864285Y-12054761D01*
X63959523Y-12007142D01*
X64054761Y-11911904D01*
X64102380Y-11769047D01*
X64102380Y-11530952D01*
X64197619Y-12292857D02*
X64197619Y-13054761D01*
X63435714Y-13721428D02*
X64102380Y-13721428D01*
X63054761Y-13483333D02*
X63769047Y-13245238D01*
X63769047Y-13864285D01*
X82102380Y-11530952D02*
X81102380Y-11530952D01*
X81102380Y-11769047D01*
X81150000Y-11911904D01*
X81245238Y-12007142D01*
X81340476Y-12054761D01*
X81530952Y-12102380D01*
X81673809Y-12102380D01*
X81864285Y-12054761D01*
X81959523Y-12007142D01*
X82054761Y-11911904D01*
X82102380Y-11769047D01*
X82102380Y-11530952D01*
X82197619Y-12292857D02*
X82197619Y-13054761D01*
X81102380Y-13769047D02*
X81102380Y-13292857D01*
X81578571Y-13245238D01*
X81530952Y-13292857D01*
X81483333Y-13388095D01*
X81483333Y-13626190D01*
X81530952Y-13721428D01*
X81578571Y-13769047D01*
X81673809Y-13816666D01*
X81911904Y-13816666D01*
X82007142Y-13769047D01*
X82054761Y-13721428D01*
X82102380Y-13626190D01*
X82102380Y-13388095D01*
X82054761Y-13292857D01*
X82007142Y-13245238D01*
X100102380Y-11530952D02*
X99102380Y-11530952D01*
X99102380Y-11769047D01*
X99150000Y-11911904D01*
X99245238Y-12007142D01*
X99340476Y-12054761D01*
X99530952Y-12102380D01*
X99673809Y-12102380D01*
X99864285Y-12054761D01*
X99959523Y-12007142D01*
X100054761Y-11911904D01*
X100102380Y-11769047D01*
X100102380Y-11530952D01*
X100197619Y-12292857D02*
X100197619Y-13054761D01*
X99102380Y-13721428D02*
X99102380Y-13530952D01*
X99150000Y-13435714D01*
X99197619Y-13388095D01*
X99340476Y-13292857D01*
X99530952Y-13245238D01*
X99911904Y-13245238D01*
X100007142Y-13292857D01*
X100054761Y-13340476D01*
X100102380Y-13435714D01*
X100102380Y-13626190D01*
X100054761Y-13721428D01*
X100007142Y-13769047D01*
X99911904Y-13816666D01*
X99673809Y-13816666D01*
X99578571Y-13769047D01*
X99530952Y-13721428D01*
X99483333Y-13626190D01*
X99483333Y-13435714D01*
X99530952Y-13340476D01*
X99578571Y-13292857D01*
X99673809Y-13245238D01*
X118102380Y-11530952D02*
X117102380Y-11530952D01*
X117102380Y-11769047D01*
X117150000Y-11911904D01*
X117245238Y-12007142D01*
X117340476Y-12054761D01*
X117530952Y-12102380D01*
X117673809Y-12102380D01*
X117864285Y-12054761D01*
X117959523Y-12007142D01*
X118054761Y-11911904D01*
X118102380Y-11769047D01*
X118102380Y-11530952D01*
X118197619Y-12292857D02*
X118197619Y-13054761D01*
X117102380Y-13197619D02*
X117102380Y-13864285D01*
X118102380Y-13435714D01*
X136102380Y-11530952D02*
X135102380Y-11530952D01*
X135102380Y-11769047D01*
X135150000Y-11911904D01*
X135245238Y-12007142D01*
X135340476Y-12054761D01*
X135530952Y-12102380D01*
X135673809Y-12102380D01*
X135864285Y-12054761D01*
X135959523Y-12007142D01*
X136054761Y-11911904D01*
X136102380Y-11769047D01*
X136102380Y-11530952D01*
X136197619Y-12292857D02*
X136197619Y-13054761D01*
X135530952Y-13435714D02*
X135483333Y-13340476D01*
X135435714Y-13292857D01*
X135340476Y-13245238D01*
X135292857Y-13245238D01*
X135197619Y-13292857D01*
X135150000Y-13340476D01*
X135102380Y-13435714D01*
X135102380Y-13626190D01*
X135150000Y-13721428D01*
X135197619Y-13769047D01*
X135292857Y-13816666D01*
X135340476Y-13816666D01*
X135435714Y-13769047D01*
X135483333Y-13721428D01*
X135530952Y-13626190D01*
X135530952Y-13435714D01*
X135578571Y-13340476D01*
X135626190Y-13292857D01*
X135721428Y-13245238D01*
X135911904Y-13245238D01*
X136007142Y-13292857D01*
X136054761Y-13340476D01*
X136102380Y-13435714D01*
X136102380Y-13626190D01*
X136054761Y-13721428D01*
X136007142Y-13769047D01*
X135911904Y-13816666D01*
X135721428Y-13816666D01*
X135626190Y-13769047D01*
X135578571Y-13721428D01*
X135530952Y-13626190D01*
X154102380Y-11530952D02*
X153102380Y-11530952D01*
X153102380Y-11769047D01*
X153150000Y-11911904D01*
X153245238Y-12007142D01*
X153340476Y-12054761D01*
X153530952Y-12102380D01*
X153673809Y-12102380D01*
X153864285Y-12054761D01*
X153959523Y-12007142D01*
X154054761Y-11911904D01*
X154102380Y-11769047D01*
X154102380Y-11530952D01*
X154197619Y-12292857D02*
X154197619Y-13054761D01*
X154102380Y-13340476D02*
X154102380Y-13530952D01*
X154054761Y-13626190D01*
X154007142Y-13673809D01*
X153864285Y-13769047D01*
X153673809Y-13816666D01*
X153292857Y-13816666D01*
X153197619Y-13769047D01*
X153150000Y-13721428D01*
X153102380Y-13626190D01*
X153102380Y-13435714D01*
X153150000Y-13340476D01*
X153197619Y-13292857D01*
X153292857Y-13245238D01*
X153530952Y-13245238D01*
X153626190Y-13292857D01*
X153673809Y-13340476D01*
X153721428Y-13435714D01*
X153721428Y-13626190D01*
X153673809Y-13721428D01*
X153626190Y-13769047D01*
X153530952Y-13816666D01*
X172102380Y-11054761D02*
X171102380Y-11054761D01*
X171102380Y-11292857D01*
X171150000Y-11435714D01*
X171245238Y-11530952D01*
X171340476Y-11578571D01*
X171530952Y-11626190D01*
X171673809Y-11626190D01*
X171864285Y-11578571D01*
X171959523Y-11530952D01*
X172054761Y-11435714D01*
X172102380Y-11292857D01*
X172102380Y-11054761D01*
X172197619Y-11816666D02*
X172197619Y-12578571D01*
X172102380Y-13340476D02*
X172102380Y-12769047D01*
X172102380Y-13054761D02*
X171102380Y-13054761D01*
X171245238Y-12959523D01*
X171340476Y-12864285D01*
X171388095Y-12769047D01*
X171102380Y-13959523D02*
X171102380Y-14054761D01*
X171150000Y-14150000D01*
X171197619Y-14197619D01*
X171292857Y-14245238D01*
X171483333Y-14292857D01*
X171721428Y-14292857D01*
X171911904Y-14245238D01*
X172007142Y-14197619D01*
X172054761Y-14150000D01*
X172102380Y-14054761D01*
X172102380Y-13959523D01*
X172054761Y-13864285D01*
X172007142Y-13816666D01*
X171911904Y-13769047D01*
X171721428Y-13721428D01*
X171483333Y-13721428D01*
X171292857Y-13769047D01*
X171197619Y-13816666D01*
X171150000Y-13864285D01*
X171102380Y-13959523D01*
X190102380Y-11054761D02*
X189102380Y-11054761D01*
X189102380Y-11292857D01*
X189150000Y-11435714D01*
X189245238Y-11530952D01*
X189340476Y-11578571D01*
X189530952Y-11626190D01*
X189673809Y-11626190D01*
X189864285Y-11578571D01*
X189959523Y-11530952D01*
X190054761Y-11435714D01*
X190102380Y-11292857D01*
X190102380Y-11054761D01*
X190197619Y-11816666D02*
X190197619Y-12578571D01*
X190102380Y-13340476D02*
X190102380Y-12769047D01*
X190102380Y-13054761D02*
X189102380Y-13054761D01*
X189245238Y-12959523D01*
X189340476Y-12864285D01*
X189388095Y-12769047D01*
X190102380Y-14292857D02*
X190102380Y-13721428D01*
X190102380Y-14007142D02*
X189102380Y-14007142D01*
X189245238Y-13911904D01*
X189340476Y-13816666D01*
X189388095Y-13721428D01*
X208102380Y-11054761D02*
X207102380Y-11054761D01*
X207102380Y-11292857D01*
X207150000Y-11435714D01*
X207245238Y-11530952D01*
X207340476Y-11578571D01*
X207530952Y-11626190D01*
X207673809Y-11626190D01*
X207864285Y-11578571D01*
X207959523Y-11530952D01*
X208054761Y-11435714D01*
X208102380Y-11292857D01*
X208102380Y-11054761D01*
X208197619Y-11816666D02*
X208197619Y-12578571D01*
X208102380Y-13340476D02*
X208102380Y-12769047D01*
X208102380Y-13054761D02*
X207102380Y-13054761D01*
X207245238Y-12959523D01*
X207340476Y-12864285D01*
X207388095Y-12769047D01*
X207197619Y-13721428D02*
X207150000Y-13769047D01*
X207102380Y-13864285D01*
X207102380Y-14102380D01*
X207150000Y-14197619D01*
X207197619Y-14245238D01*
X207292857Y-14292857D01*
X207388095Y-14292857D01*
X207530952Y-14245238D01*
X208102380Y-13673809D01*
X208102380Y-14292857D01*
X226102380Y-11054761D02*
X225102380Y-11054761D01*
X225102380Y-11292857D01*
X225150000Y-11435714D01*
X225245238Y-11530952D01*
X225340476Y-11578571D01*
X225530952Y-11626190D01*
X225673809Y-11626190D01*
X225864285Y-11578571D01*
X225959523Y-11530952D01*
X226054761Y-11435714D01*
X226102380Y-11292857D01*
X226102380Y-11054761D01*
X226197619Y-11816666D02*
X226197619Y-12578571D01*
X226102380Y-13340476D02*
X226102380Y-12769047D01*
X226102380Y-13054761D02*
X225102380Y-13054761D01*
X225245238Y-12959523D01*
X225340476Y-12864285D01*
X225388095Y-12769047D01*
X225102380Y-13673809D02*
X225102380Y-14292857D01*
X225483333Y-13959523D01*
X225483333Y-14102380D01*
X225530952Y-14197619D01*
X225578571Y-14245238D01*
X225673809Y-14292857D01*
X225911904Y-14292857D01*
X226007142Y-14245238D01*
X226054761Y-14197619D01*
X226102380Y-14102380D01*
X226102380Y-13816666D01*
X226054761Y-13721428D01*
X226007142Y-13673809D01*
X244102380Y-11054761D02*
X243102380Y-11054761D01*
X243102380Y-11292857D01*
X243150000Y-11435714D01*
X243245238Y-11530952D01*
X243340476Y-11578571D01*
X243530952Y-11626190D01*
X243673809Y-11626190D01*
X243864285Y-11578571D01*
X243959523Y-11530952D01*
X244054761Y-11435714D01*
X244102380Y-11292857D01*
X244102380Y-11054761D01*
X244197619Y-11816666D02*
X244197619Y-12578571D01*
X244102380Y-13340476D02*
X244102380Y-12769047D01*
X244102380Y-13054761D02*
X243102380Y-13054761D01*
X243245238Y-12959523D01*
X243340476Y-12864285D01*
X243388095Y-12769047D01*
X243435714Y-14197619D02*
X244102380Y-14197619D01*
X243054761Y-13959523D02*
X243769047Y-13721428D01*
X243769047Y-14340476D01*
X284602380Y-11054761D02*
X283602380Y-11054761D01*
X283602380Y-11292857D01*
X283650000Y-11435714D01*
X283745238Y-11530952D01*
X283840476Y-11578571D01*
X284030952Y-11626190D01*
X284173809Y-11626190D01*
X284364285Y-11578571D01*
X284459523Y-11530952D01*
X284554761Y-11435714D01*
X284602380Y-11292857D01*
X284602380Y-11054761D01*
X284697619Y-11816666D02*
X284697619Y-12578571D01*
X284602380Y-13340476D02*
X284602380Y-12769047D01*
X284602380Y-13054761D02*
X283602380Y-13054761D01*
X283745238Y-12959523D01*
X283840476Y-12864285D01*
X283888095Y-12769047D01*
X283602380Y-14197619D02*
X283602380Y-14007142D01*
X283650000Y-13911904D01*
X283697619Y-13864285D01*
X283840476Y-13769047D01*
X284030952Y-13721428D01*
X284411904Y-13721428D01*
X284507142Y-13769047D01*
X284554761Y-13816666D01*
X284602380Y-13911904D01*
X284602380Y-14102380D01*
X284554761Y-14197619D01*
X284507142Y-14245238D01*
X284411904Y-14292857D01*
X284173809Y-14292857D01*
X284078571Y-14245238D01*
X284030952Y-14197619D01*
X283983333Y-14102380D01*
X283983333Y-13911904D01*
X284030952Y-13816666D01*
X284078571Y-13769047D01*
X284173809Y-13721428D01*
X5602380Y-28054761D02*
X4602380Y-28054761D01*
X4602380Y-28292857D01*
X4650000Y-28435714D01*
X4745238Y-28530952D01*
X4840476Y-28578571D01*
X5030952Y-28626190D01*
X5173809Y-28626190D01*
X5364285Y-28578571D01*
X5459523Y-28530952D01*
X5554761Y-28435714D01*
X5602380Y-28292857D01*
X5602380Y-28054761D01*
X5697619Y-28816666D02*
X5697619Y-29578571D01*
X5602380Y-30340476D02*
X5602380Y-29769047D01*
X5602380Y-30054761D02*
X4602380Y-30054761D01*
X4745238Y-29959523D01*
X4840476Y-29864285D01*
X4888095Y-29769047D01*
X4602380Y-30673809D02*
X4602380Y-31340476D01*
X5602380Y-30911904D01*
X28102380Y-28054761D02*
X27102380Y-28054761D01*
X27102380Y-28292857D01*
X27150000Y-28435714D01*
X27245238Y-28530952D01*
X27340476Y-28578571D01*
X27530952Y-28626190D01*
X27673809Y-28626190D01*
X27864285Y-28578571D01*
X27959523Y-28530952D01*
X28054761Y-28435714D01*
X28102380Y-28292857D01*
X28102380Y-28054761D01*
X28197619Y-28816666D02*
X28197619Y-29578571D01*
X28102380Y-30340476D02*
X28102380Y-29769047D01*
X28102380Y-30054761D02*
X27102380Y-30054761D01*
X27245238Y-29959523D01*
X27340476Y-29864285D01*
X27388095Y-29769047D01*
X27530952Y-30911904D02*
X27483333Y-30816666D01*
X27435714Y-30769047D01*
X27340476Y-30721428D01*
X27292857Y-30721428D01*
X27197619Y-30769047D01*
X27150000Y-30816666D01*
X27102380Y-30911904D01*
X27102380Y-31102380D01*
X27150000Y-31197619D01*
X27197619Y-31245238D01*
X27292857Y-31292857D01*
X27340476Y-31292857D01*
X27435714Y-31245238D01*
X27483333Y-31197619D01*
X27530952Y-31102380D01*
X27530952Y-30911904D01*
X27578571Y-30816666D01*
X27626190Y-30769047D01*
X27721428Y-30721428D01*
X27911904Y-30721428D01*
X28007142Y-30769047D01*
X28054761Y-30816666D01*
X28102380Y-30911904D01*
X28102380Y-31102380D01*
X28054761Y-31197619D01*
X28007142Y-31245238D01*
X27911904Y-31292857D01*
X27721428Y-31292857D01*
X27626190Y-31245238D01*
X27578571Y-31197619D01*
X27530952Y-31102380D01*
X46102380Y-28054761D02*
X45102380Y-28054761D01*
X45102380Y-28292857D01*
X45150000Y-28435714D01*
X45245238Y-28530952D01*
X45340476Y-28578571D01*
X45530952Y-28626190D01*
X45673809Y-28626190D01*
X45864285Y-28578571D01*
X45959523Y-28530952D01*
X46054761Y-28435714D01*
X46102380Y-28292857D01*
X46102380Y-28054761D01*
X46197619Y-28816666D02*
X46197619Y-29578571D01*
X46102380Y-30340476D02*
X46102380Y-29769047D01*
X46102380Y-30054761D02*
X45102380Y-30054761D01*
X45245238Y-29959523D01*
X45340476Y-29864285D01*
X45388095Y-29769047D01*
X46102380Y-30816666D02*
X46102380Y-31007142D01*
X46054761Y-31102380D01*
X46007142Y-31150000D01*
X45864285Y-31245238D01*
X45673809Y-31292857D01*
X45292857Y-31292857D01*
X45197619Y-31245238D01*
X45150000Y-31197619D01*
X45102380Y-31102380D01*
X45102380Y-30911904D01*
X45150000Y-30816666D01*
X45197619Y-30769047D01*
X45292857Y-30721428D01*
X45530952Y-30721428D01*
X45626190Y-30769047D01*
X45673809Y-30816666D01*
X45721428Y-30911904D01*
X45721428Y-31102380D01*
X45673809Y-31197619D01*
X45626190Y-31245238D01*
X45530952Y-31292857D01*
X64102380Y-28054761D02*
X63102380Y-28054761D01*
X63102380Y-28292857D01*
X63150000Y-28435714D01*
X63245238Y-28530952D01*
X63340476Y-28578571D01*
X63530952Y-28626190D01*
X63673809Y-28626190D01*
X63864285Y-28578571D01*
X63959523Y-28530952D01*
X64054761Y-28435714D01*
X64102380Y-28292857D01*
X64102380Y-28054761D01*
X64197619Y-28816666D02*
X64197619Y-29578571D01*
X63197619Y-29769047D02*
X63150000Y-29816666D01*
X63102380Y-29911904D01*
X63102380Y-30150000D01*
X63150000Y-30245238D01*
X63197619Y-30292857D01*
X63292857Y-30340476D01*
X63388095Y-30340476D01*
X63530952Y-30292857D01*
X64102380Y-29721428D01*
X64102380Y-30340476D01*
X63102380Y-30959523D02*
X63102380Y-31054761D01*
X63150000Y-31150000D01*
X63197619Y-31197619D01*
X63292857Y-31245238D01*
X63483333Y-31292857D01*
X63721428Y-31292857D01*
X63911904Y-31245238D01*
X64007142Y-31197619D01*
X64054761Y-31150000D01*
X64102380Y-31054761D01*
X64102380Y-30959523D01*
X64054761Y-30864285D01*
X64007142Y-30816666D01*
X63911904Y-30769047D01*
X63721428Y-30721428D01*
X63483333Y-30721428D01*
X63292857Y-30769047D01*
X63197619Y-30816666D01*
X63150000Y-30864285D01*
X63102380Y-30959523D01*
X82102380Y-28054761D02*
X81102380Y-28054761D01*
X81102380Y-28292857D01*
X81150000Y-28435714D01*
X81245238Y-28530952D01*
X81340476Y-28578571D01*
X81530952Y-28626190D01*
X81673809Y-28626190D01*
X81864285Y-28578571D01*
X81959523Y-28530952D01*
X82054761Y-28435714D01*
X82102380Y-28292857D01*
X82102380Y-28054761D01*
X82197619Y-28816666D02*
X82197619Y-29578571D01*
X81197619Y-29769047D02*
X81150000Y-29816666D01*
X81102380Y-29911904D01*
X81102380Y-30150000D01*
X81150000Y-30245238D01*
X81197619Y-30292857D01*
X81292857Y-30340476D01*
X81388095Y-30340476D01*
X81530952Y-30292857D01*
X82102380Y-29721428D01*
X82102380Y-30340476D01*
X82102380Y-31292857D02*
X82102380Y-30721428D01*
X82102380Y-31007142D02*
X81102380Y-31007142D01*
X81245238Y-30911904D01*
X81340476Y-30816666D01*
X81388095Y-30721428D01*
X100102380Y-28054761D02*
X99102380Y-28054761D01*
X99102380Y-28292857D01*
X99150000Y-28435714D01*
X99245238Y-28530952D01*
X99340476Y-28578571D01*
X99530952Y-28626190D01*
X99673809Y-28626190D01*
X99864285Y-28578571D01*
X99959523Y-28530952D01*
X100054761Y-28435714D01*
X100102380Y-28292857D01*
X100102380Y-28054761D01*
X100197619Y-28816666D02*
X100197619Y-29578571D01*
X99197619Y-29769047D02*
X99150000Y-29816666D01*
X99102380Y-29911904D01*
X99102380Y-30150000D01*
X99150000Y-30245238D01*
X99197619Y-30292857D01*
X99292857Y-30340476D01*
X99388095Y-30340476D01*
X99530952Y-30292857D01*
X100102380Y-29721428D01*
X100102380Y-30340476D01*
X99197619Y-30721428D02*
X99150000Y-30769047D01*
X99102380Y-30864285D01*
X99102380Y-31102380D01*
X99150000Y-31197619D01*
X99197619Y-31245238D01*
X99292857Y-31292857D01*
X99388095Y-31292857D01*
X99530952Y-31245238D01*
X100102380Y-30673809D01*
X100102380Y-31292857D01*
X118102380Y-28054761D02*
X117102380Y-28054761D01*
X117102380Y-28292857D01*
X117150000Y-28435714D01*
X117245238Y-28530952D01*
X117340476Y-28578571D01*
X117530952Y-28626190D01*
X117673809Y-28626190D01*
X117864285Y-28578571D01*
X117959523Y-28530952D01*
X118054761Y-28435714D01*
X118102380Y-28292857D01*
X118102380Y-28054761D01*
X118197619Y-28816666D02*
X118197619Y-29578571D01*
X117197619Y-29769047D02*
X117150000Y-29816666D01*
X117102380Y-29911904D01*
X117102380Y-30150000D01*
X117150000Y-30245238D01*
X117197619Y-30292857D01*
X117292857Y-30340476D01*
X117388095Y-30340476D01*
X117530952Y-30292857D01*
X118102380Y-29721428D01*
X118102380Y-30340476D01*
X117102380Y-30673809D02*
X117102380Y-31292857D01*
X117483333Y-30959523D01*
X117483333Y-31102380D01*
X117530952Y-31197619D01*
X117578571Y-31245238D01*
X117673809Y-31292857D01*
X117911904Y-31292857D01*
X118007142Y-31245238D01*
X118054761Y-31197619D01*
X118102380Y-31102380D01*
X118102380Y-30816666D01*
X118054761Y-30721428D01*
X118007142Y-30673809D01*
X136102380Y-28054761D02*
X135102380Y-28054761D01*
X135102380Y-28292857D01*
X135150000Y-28435714D01*
X135245238Y-28530952D01*
X135340476Y-28578571D01*
X135530952Y-28626190D01*
X135673809Y-28626190D01*
X135864285Y-28578571D01*
X135959523Y-28530952D01*
X136054761Y-28435714D01*
X136102380Y-28292857D01*
X136102380Y-28054761D01*
X136197619Y-28816666D02*
X136197619Y-29578571D01*
X135197619Y-29769047D02*
X135150000Y-29816666D01*
X135102380Y-29911904D01*
X135102380Y-30150000D01*
X135150000Y-30245238D01*
X135197619Y-30292857D01*
X135292857Y-30340476D01*
X135388095Y-30340476D01*
X135530952Y-30292857D01*
X136102380Y-29721428D01*
X136102380Y-30340476D01*
X135435714Y-31197619D02*
X136102380Y-31197619D01*
X135054761Y-30959523D02*
X135769047Y-30721428D01*
X135769047Y-31340476D01*
X154102380Y-28054761D02*
X153102380Y-28054761D01*
X153102380Y-28292857D01*
X153150000Y-28435714D01*
X153245238Y-28530952D01*
X153340476Y-28578571D01*
X153530952Y-28626190D01*
X153673809Y-28626190D01*
X153864285Y-28578571D01*
X153959523Y-28530952D01*
X154054761Y-28435714D01*
X154102380Y-28292857D01*
X154102380Y-28054761D01*
X154197619Y-28816666D02*
X154197619Y-29578571D01*
X153197619Y-29769047D02*
X153150000Y-29816666D01*
X153102380Y-29911904D01*
X153102380Y-30150000D01*
X153150000Y-30245238D01*
X153197619Y-30292857D01*
X153292857Y-30340476D01*
X153388095Y-30340476D01*
X153530952Y-30292857D01*
X154102380Y-29721428D01*
X154102380Y-30340476D01*
X153102380Y-31245238D02*
X153102380Y-30769047D01*
X153578571Y-30721428D01*
X153530952Y-30769047D01*
X153483333Y-30864285D01*
X153483333Y-31102380D01*
X153530952Y-31197619D01*
X153578571Y-31245238D01*
X153673809Y-31292857D01*
X153911904Y-31292857D01*
X154007142Y-31245238D01*
X154054761Y-31197619D01*
X154102380Y-31102380D01*
X154102380Y-30864285D01*
X154054761Y-30769047D01*
X154007142Y-30721428D01*
X172102380Y-28054761D02*
X171102380Y-28054761D01*
X171102380Y-28292857D01*
X171150000Y-28435714D01*
X171245238Y-28530952D01*
X171340476Y-28578571D01*
X171530952Y-28626190D01*
X171673809Y-28626190D01*
X171864285Y-28578571D01*
X171959523Y-28530952D01*
X172054761Y-28435714D01*
X172102380Y-28292857D01*
X172102380Y-28054761D01*
X172197619Y-28816666D02*
X172197619Y-29578571D01*
X171197619Y-29769047D02*
X171150000Y-29816666D01*
X171102380Y-29911904D01*
X171102380Y-30150000D01*
X171150000Y-30245238D01*
X171197619Y-30292857D01*
X171292857Y-30340476D01*
X171388095Y-30340476D01*
X171530952Y-30292857D01*
X172102380Y-29721428D01*
X172102380Y-30340476D01*
X171102380Y-31197619D02*
X171102380Y-31007142D01*
X171150000Y-30911904D01*
X171197619Y-30864285D01*
X171340476Y-30769047D01*
X171530952Y-30721428D01*
X171911904Y-30721428D01*
X172007142Y-30769047D01*
X172054761Y-30816666D01*
X172102380Y-30911904D01*
X172102380Y-31102380D01*
X172054761Y-31197619D01*
X172007142Y-31245238D01*
X171911904Y-31292857D01*
X171673809Y-31292857D01*
X171578571Y-31245238D01*
X171530952Y-31197619D01*
X171483333Y-31102380D01*
X171483333Y-30911904D01*
X171530952Y-30816666D01*
X171578571Y-30769047D01*
X171673809Y-30721428D01*
X190102380Y-28054761D02*
X189102380Y-28054761D01*
X189102380Y-28292857D01*
X189150000Y-28435714D01*
X189245238Y-28530952D01*
X189340476Y-28578571D01*
X189530952Y-28626190D01*
X189673809Y-28626190D01*
X189864285Y-28578571D01*
X189959523Y-28530952D01*
X190054761Y-28435714D01*
X190102380Y-28292857D01*
X190102380Y-28054761D01*
X190197619Y-28816666D02*
X190197619Y-29578571D01*
X189197619Y-29769047D02*
X189150000Y-29816666D01*
X189102380Y-29911904D01*
X189102380Y-30150000D01*
X189150000Y-30245238D01*
X189197619Y-30292857D01*
X189292857Y-30340476D01*
X189388095Y-30340476D01*
X189530952Y-30292857D01*
X190102380Y-29721428D01*
X190102380Y-30340476D01*
X189102380Y-30673809D02*
X189102380Y-31340476D01*
X190102380Y-30911904D01*
X208102380Y-28054761D02*
X207102380Y-28054761D01*
X207102380Y-28292857D01*
X207150000Y-28435714D01*
X207245238Y-28530952D01*
X207340476Y-28578571D01*
X207530952Y-28626190D01*
X207673809Y-28626190D01*
X207864285Y-28578571D01*
X207959523Y-28530952D01*
X208054761Y-28435714D01*
X208102380Y-28292857D01*
X208102380Y-28054761D01*
X208197619Y-28816666D02*
X208197619Y-29578571D01*
X207197619Y-29769047D02*
X207150000Y-29816666D01*
X207102380Y-29911904D01*
X207102380Y-30150000D01*
X207150000Y-30245238D01*
X207197619Y-30292857D01*
X207292857Y-30340476D01*
X207388095Y-30340476D01*
X207530952Y-30292857D01*
X208102380Y-29721428D01*
X208102380Y-30340476D01*
X207530952Y-30911904D02*
X207483333Y-30816666D01*
X207435714Y-30769047D01*
X207340476Y-30721428D01*
X207292857Y-30721428D01*
X207197619Y-30769047D01*
X207150000Y-30816666D01*
X207102380Y-30911904D01*
X207102380Y-31102380D01*
X207150000Y-31197619D01*
X207197619Y-31245238D01*
X207292857Y-31292857D01*
X207340476Y-31292857D01*
X207435714Y-31245238D01*
X207483333Y-31197619D01*
X207530952Y-31102380D01*
X207530952Y-30911904D01*
X207578571Y-30816666D01*
X207626190Y-30769047D01*
X207721428Y-30721428D01*
X207911904Y-30721428D01*
X208007142Y-30769047D01*
X208054761Y-30816666D01*
X208102380Y-30911904D01*
X208102380Y-31102380D01*
X208054761Y-31197619D01*
X208007142Y-31245238D01*
X207911904Y-31292857D01*
X207721428Y-31292857D01*
X207626190Y-31245238D01*
X207578571Y-31197619D01*
X207530952Y-31102380D01*
X226102380Y-28054761D02*
X225102380Y-28054761D01*
X225102380Y-28292857D01*
X225150000Y-28435714D01*
X225245238Y-28530952D01*
X225340476Y-28578571D01*
X225530952Y-28626190D01*
X225673809Y-28626190D01*
X225864285Y-28578571D01*
X225959523Y-28530952D01*
X226054761Y-28435714D01*
X226102380Y-28292857D01*
X226102380Y-28054761D01*
X226197619Y-28816666D02*
X226197619Y-29578571D01*
X225197619Y-29769047D02*
X225150000Y-29816666D01*
X225102380Y-29911904D01*
X225102380Y-30150000D01*
X225150000Y-30245238D01*
X225197619Y-30292857D01*
X225292857Y-30340476D01*
X225388095Y-30340476D01*
X225530952Y-30292857D01*
X226102380Y-29721428D01*
X226102380Y-30340476D01*
X226102380Y-30816666D02*
X226102380Y-31007142D01*
X226054761Y-31102380D01*
X226007142Y-31150000D01*
X225864285Y-31245238D01*
X225673809Y-31292857D01*
X225292857Y-31292857D01*
X225197619Y-31245238D01*
X225150000Y-31197619D01*
X225102380Y-31102380D01*
X225102380Y-30911904D01*
X225150000Y-30816666D01*
X225197619Y-30769047D01*
X225292857Y-30721428D01*
X225530952Y-30721428D01*
X225626190Y-30769047D01*
X225673809Y-30816666D01*
X225721428Y-30911904D01*
X225721428Y-31102380D01*
X225673809Y-31197619D01*
X225626190Y-31245238D01*
X225530952Y-31292857D01*
X244102380Y-28054761D02*
X243102380Y-28054761D01*
X243102380Y-28292857D01*
X243150000Y-28435714D01*
X243245238Y-28530952D01*
X243340476Y-28578571D01*
X243530952Y-28626190D01*
X243673809Y-28626190D01*
X243864285Y-28578571D01*
X243959523Y-28530952D01*
X244054761Y-28435714D01*
X244102380Y-28292857D01*
X244102380Y-28054761D01*
X244197619Y-28816666D02*
X244197619Y-29578571D01*
X243102380Y-29721428D02*
X243102380Y-30340476D01*
X243483333Y-30007142D01*
X243483333Y-30150000D01*
X243530952Y-30245238D01*
X243578571Y-30292857D01*
X243673809Y-30340476D01*
X243911904Y-30340476D01*
X244007142Y-30292857D01*
X244054761Y-30245238D01*
X244102380Y-30150000D01*
X244102380Y-29864285D01*
X244054761Y-29769047D01*
X244007142Y-29721428D01*
X243102380Y-30959523D02*
X243102380Y-31054761D01*
X243150000Y-31150000D01*
X243197619Y-31197619D01*
X243292857Y-31245238D01*
X243483333Y-31292857D01*
X243721428Y-31292857D01*
X243911904Y-31245238D01*
X244007142Y-31197619D01*
X244054761Y-31150000D01*
X244102380Y-31054761D01*
X244102380Y-30959523D01*
X244054761Y-30864285D01*
X244007142Y-30816666D01*
X243911904Y-30769047D01*
X243721428Y-30721428D01*
X243483333Y-30721428D01*
X243292857Y-30769047D01*
X243197619Y-30816666D01*
X243150000Y-30864285D01*
X243102380Y-30959523D01*
X266602380Y-11054761D02*
X265602380Y-11054761D01*
X265602380Y-11292857D01*
X265650000Y-11435714D01*
X265745238Y-11530952D01*
X265840476Y-11578571D01*
X266030952Y-11626190D01*
X266173809Y-11626190D01*
X266364285Y-11578571D01*
X266459523Y-11530952D01*
X266554761Y-11435714D01*
X266602380Y-11292857D01*
X266602380Y-11054761D01*
X266697619Y-11816666D02*
X266697619Y-12578571D01*
X266602380Y-13340476D02*
X266602380Y-12769047D01*
X266602380Y-13054761D02*
X265602380Y-13054761D01*
X265745238Y-12959523D01*
X265840476Y-12864285D01*
X265888095Y-12769047D01*
X265602380Y-14245238D02*
X265602380Y-13769047D01*
X266078571Y-13721428D01*
X266030952Y-13769047D01*
X265983333Y-13864285D01*
X265983333Y-14102380D01*
X266030952Y-14197619D01*
X266078571Y-14245238D01*
X266173809Y-14292857D01*
X266411904Y-14292857D01*
X266507142Y-14245238D01*
X266554761Y-14197619D01*
X266602380Y-14102380D01*
X266602380Y-13864285D01*
X266554761Y-13769047D01*
X266507142Y-13721428D01*
X5602380Y-45054761D02*
X4602380Y-45054761D01*
X4602380Y-45292857D01*
X4650000Y-45435714D01*
X4745238Y-45530952D01*
X4840476Y-45578571D01*
X5030952Y-45626190D01*
X5173809Y-45626190D01*
X5364285Y-45578571D01*
X5459523Y-45530952D01*
X5554761Y-45435714D01*
X5602380Y-45292857D01*
X5602380Y-45054761D01*
X5697619Y-45816666D02*
X5697619Y-46578571D01*
X4602380Y-46721428D02*
X4602380Y-47340476D01*
X4983333Y-47007142D01*
X4983333Y-47150000D01*
X5030952Y-47245238D01*
X5078571Y-47292857D01*
X5173809Y-47340476D01*
X5411904Y-47340476D01*
X5507142Y-47292857D01*
X5554761Y-47245238D01*
X5602380Y-47150000D01*
X5602380Y-46864285D01*
X5554761Y-46769047D01*
X5507142Y-46721428D01*
X4602380Y-47673809D02*
X4602380Y-48292857D01*
X4983333Y-47959523D01*
X4983333Y-48102380D01*
X5030952Y-48197619D01*
X5078571Y-48245238D01*
X5173809Y-48292857D01*
X5411904Y-48292857D01*
X5507142Y-48245238D01*
X5554761Y-48197619D01*
X5602380Y-48102380D01*
X5602380Y-47816666D01*
X5554761Y-47721428D01*
X5507142Y-47673809D01*
X28102380Y-45054761D02*
X27102380Y-45054761D01*
X27102380Y-45292857D01*
X27150000Y-45435714D01*
X27245238Y-45530952D01*
X27340476Y-45578571D01*
X27530952Y-45626190D01*
X27673809Y-45626190D01*
X27864285Y-45578571D01*
X27959523Y-45530952D01*
X28054761Y-45435714D01*
X28102380Y-45292857D01*
X28102380Y-45054761D01*
X28197619Y-45816666D02*
X28197619Y-46578571D01*
X27102380Y-46721428D02*
X27102380Y-47340476D01*
X27483333Y-47007142D01*
X27483333Y-47150000D01*
X27530952Y-47245238D01*
X27578571Y-47292857D01*
X27673809Y-47340476D01*
X27911904Y-47340476D01*
X28007142Y-47292857D01*
X28054761Y-47245238D01*
X28102380Y-47150000D01*
X28102380Y-46864285D01*
X28054761Y-46769047D01*
X28007142Y-46721428D01*
X27435714Y-48197619D02*
X28102380Y-48197619D01*
X27054761Y-47959523D02*
X27769047Y-47721428D01*
X27769047Y-48340476D01*
X46102380Y-45054761D02*
X45102380Y-45054761D01*
X45102380Y-45292857D01*
X45150000Y-45435714D01*
X45245238Y-45530952D01*
X45340476Y-45578571D01*
X45530952Y-45626190D01*
X45673809Y-45626190D01*
X45864285Y-45578571D01*
X45959523Y-45530952D01*
X46054761Y-45435714D01*
X46102380Y-45292857D01*
X46102380Y-45054761D01*
X46197619Y-45816666D02*
X46197619Y-46578571D01*
X45102380Y-46721428D02*
X45102380Y-47340476D01*
X45483333Y-47007142D01*
X45483333Y-47150000D01*
X45530952Y-47245238D01*
X45578571Y-47292857D01*
X45673809Y-47340476D01*
X45911904Y-47340476D01*
X46007142Y-47292857D01*
X46054761Y-47245238D01*
X46102380Y-47150000D01*
X46102380Y-46864285D01*
X46054761Y-46769047D01*
X46007142Y-46721428D01*
X45102380Y-48245238D02*
X45102380Y-47769047D01*
X45578571Y-47721428D01*
X45530952Y-47769047D01*
X45483333Y-47864285D01*
X45483333Y-48102380D01*
X45530952Y-48197619D01*
X45578571Y-48245238D01*
X45673809Y-48292857D01*
X45911904Y-48292857D01*
X46007142Y-48245238D01*
X46054761Y-48197619D01*
X46102380Y-48102380D01*
X46102380Y-47864285D01*
X46054761Y-47769047D01*
X46007142Y-47721428D01*
X64102380Y-45054761D02*
X63102380Y-45054761D01*
X63102380Y-45292857D01*
X63150000Y-45435714D01*
X63245238Y-45530952D01*
X63340476Y-45578571D01*
X63530952Y-45626190D01*
X63673809Y-45626190D01*
X63864285Y-45578571D01*
X63959523Y-45530952D01*
X64054761Y-45435714D01*
X64102380Y-45292857D01*
X64102380Y-45054761D01*
X64197619Y-45816666D02*
X64197619Y-46578571D01*
X63102380Y-46721428D02*
X63102380Y-47340476D01*
X63483333Y-47007142D01*
X63483333Y-47150000D01*
X63530952Y-47245238D01*
X63578571Y-47292857D01*
X63673809Y-47340476D01*
X63911904Y-47340476D01*
X64007142Y-47292857D01*
X64054761Y-47245238D01*
X64102380Y-47150000D01*
X64102380Y-46864285D01*
X64054761Y-46769047D01*
X64007142Y-46721428D01*
X63102380Y-48197619D02*
X63102380Y-48007142D01*
X63150000Y-47911904D01*
X63197619Y-47864285D01*
X63340476Y-47769047D01*
X63530952Y-47721428D01*
X63911904Y-47721428D01*
X64007142Y-47769047D01*
X64054761Y-47816666D01*
X64102380Y-47911904D01*
X64102380Y-48102380D01*
X64054761Y-48197619D01*
X64007142Y-48245238D01*
X63911904Y-48292857D01*
X63673809Y-48292857D01*
X63578571Y-48245238D01*
X63530952Y-48197619D01*
X63483333Y-48102380D01*
X63483333Y-47911904D01*
X63530952Y-47816666D01*
X63578571Y-47769047D01*
X63673809Y-47721428D01*
X82102380Y-45054761D02*
X81102380Y-45054761D01*
X81102380Y-45292857D01*
X81150000Y-45435714D01*
X81245238Y-45530952D01*
X81340476Y-45578571D01*
X81530952Y-45626190D01*
X81673809Y-45626190D01*
X81864285Y-45578571D01*
X81959523Y-45530952D01*
X82054761Y-45435714D01*
X82102380Y-45292857D01*
X82102380Y-45054761D01*
X82197619Y-45816666D02*
X82197619Y-46578571D01*
X81102380Y-46721428D02*
X81102380Y-47340476D01*
X81483333Y-47007142D01*
X81483333Y-47150000D01*
X81530952Y-47245238D01*
X81578571Y-47292857D01*
X81673809Y-47340476D01*
X81911904Y-47340476D01*
X82007142Y-47292857D01*
X82054761Y-47245238D01*
X82102380Y-47150000D01*
X82102380Y-46864285D01*
X82054761Y-46769047D01*
X82007142Y-46721428D01*
X81102380Y-47673809D02*
X81102380Y-48340476D01*
X82102380Y-47911904D01*
X100102380Y-45054761D02*
X99102380Y-45054761D01*
X99102380Y-45292857D01*
X99150000Y-45435714D01*
X99245238Y-45530952D01*
X99340476Y-45578571D01*
X99530952Y-45626190D01*
X99673809Y-45626190D01*
X99864285Y-45578571D01*
X99959523Y-45530952D01*
X100054761Y-45435714D01*
X100102380Y-45292857D01*
X100102380Y-45054761D01*
X100197619Y-45816666D02*
X100197619Y-46578571D01*
X99102380Y-46721428D02*
X99102380Y-47340476D01*
X99483333Y-47007142D01*
X99483333Y-47150000D01*
X99530952Y-47245238D01*
X99578571Y-47292857D01*
X99673809Y-47340476D01*
X99911904Y-47340476D01*
X100007142Y-47292857D01*
X100054761Y-47245238D01*
X100102380Y-47150000D01*
X100102380Y-46864285D01*
X100054761Y-46769047D01*
X100007142Y-46721428D01*
X99530952Y-47911904D02*
X99483333Y-47816666D01*
X99435714Y-47769047D01*
X99340476Y-47721428D01*
X99292857Y-47721428D01*
X99197619Y-47769047D01*
X99150000Y-47816666D01*
X99102380Y-47911904D01*
X99102380Y-48102380D01*
X99150000Y-48197619D01*
X99197619Y-48245238D01*
X99292857Y-48292857D01*
X99340476Y-48292857D01*
X99435714Y-48245238D01*
X99483333Y-48197619D01*
X99530952Y-48102380D01*
X99530952Y-47911904D01*
X99578571Y-47816666D01*
X99626190Y-47769047D01*
X99721428Y-47721428D01*
X99911904Y-47721428D01*
X100007142Y-47769047D01*
X100054761Y-47816666D01*
X100102380Y-47911904D01*
X100102380Y-48102380D01*
X100054761Y-48197619D01*
X100007142Y-48245238D01*
X99911904Y-48292857D01*
X99721428Y-48292857D01*
X99626190Y-48245238D01*
X99578571Y-48197619D01*
X99530952Y-48102380D01*
X118102380Y-45054761D02*
X117102380Y-45054761D01*
X117102380Y-45292857D01*
X117150000Y-45435714D01*
X117245238Y-45530952D01*
X117340476Y-45578571D01*
X117530952Y-45626190D01*
X117673809Y-45626190D01*
X117864285Y-45578571D01*
X117959523Y-45530952D01*
X118054761Y-45435714D01*
X118102380Y-45292857D01*
X118102380Y-45054761D01*
X118197619Y-45816666D02*
X118197619Y-46578571D01*
X117102380Y-46721428D02*
X117102380Y-47340476D01*
X117483333Y-47007142D01*
X117483333Y-47150000D01*
X117530952Y-47245238D01*
X117578571Y-47292857D01*
X117673809Y-47340476D01*
X117911904Y-47340476D01*
X118007142Y-47292857D01*
X118054761Y-47245238D01*
X118102380Y-47150000D01*
X118102380Y-46864285D01*
X118054761Y-46769047D01*
X118007142Y-46721428D01*
X118102380Y-47816666D02*
X118102380Y-48007142D01*
X118054761Y-48102380D01*
X118007142Y-48150000D01*
X117864285Y-48245238D01*
X117673809Y-48292857D01*
X117292857Y-48292857D01*
X117197619Y-48245238D01*
X117150000Y-48197619D01*
X117102380Y-48102380D01*
X117102380Y-47911904D01*
X117150000Y-47816666D01*
X117197619Y-47769047D01*
X117292857Y-47721428D01*
X117530952Y-47721428D01*
X117626190Y-47769047D01*
X117673809Y-47816666D01*
X117721428Y-47911904D01*
X117721428Y-48102380D01*
X117673809Y-48197619D01*
X117626190Y-48245238D01*
X117530952Y-48292857D01*
X154102380Y-45054761D02*
X153102380Y-45054761D01*
X153102380Y-45292857D01*
X153150000Y-45435714D01*
X153245238Y-45530952D01*
X153340476Y-45578571D01*
X153530952Y-45626190D01*
X153673809Y-45626190D01*
X153864285Y-45578571D01*
X153959523Y-45530952D01*
X154054761Y-45435714D01*
X154102380Y-45292857D01*
X154102380Y-45054761D01*
X154197619Y-45816666D02*
X154197619Y-46578571D01*
X153435714Y-47245238D02*
X154102380Y-47245238D01*
X153054761Y-47007142D02*
X153769047Y-46769047D01*
X153769047Y-47388095D01*
X154102380Y-48292857D02*
X154102380Y-47721428D01*
X154102380Y-48007142D02*
X153102380Y-48007142D01*
X153245238Y-47911904D01*
X153340476Y-47816666D01*
X153388095Y-47721428D01*
X172102380Y-45054761D02*
X171102380Y-45054761D01*
X171102380Y-45292857D01*
X171150000Y-45435714D01*
X171245238Y-45530952D01*
X171340476Y-45578571D01*
X171530952Y-45626190D01*
X171673809Y-45626190D01*
X171864285Y-45578571D01*
X171959523Y-45530952D01*
X172054761Y-45435714D01*
X172102380Y-45292857D01*
X172102380Y-45054761D01*
X172197619Y-45816666D02*
X172197619Y-46578571D01*
X171435714Y-47245238D02*
X172102380Y-47245238D01*
X171054761Y-47007142D02*
X171769047Y-46769047D01*
X171769047Y-47388095D01*
X171197619Y-47721428D02*
X171150000Y-47769047D01*
X171102380Y-47864285D01*
X171102380Y-48102380D01*
X171150000Y-48197619D01*
X171197619Y-48245238D01*
X171292857Y-48292857D01*
X171388095Y-48292857D01*
X171530952Y-48245238D01*
X172102380Y-47673809D01*
X172102380Y-48292857D01*
X190102380Y-45054761D02*
X189102380Y-45054761D01*
X189102380Y-45292857D01*
X189150000Y-45435714D01*
X189245238Y-45530952D01*
X189340476Y-45578571D01*
X189530952Y-45626190D01*
X189673809Y-45626190D01*
X189864285Y-45578571D01*
X189959523Y-45530952D01*
X190054761Y-45435714D01*
X190102380Y-45292857D01*
X190102380Y-45054761D01*
X190197619Y-45816666D02*
X190197619Y-46578571D01*
X189435714Y-47245238D02*
X190102380Y-47245238D01*
X189054761Y-47007142D02*
X189769047Y-46769047D01*
X189769047Y-47388095D01*
X189102380Y-47673809D02*
X189102380Y-48292857D01*
X189483333Y-47959523D01*
X189483333Y-48102380D01*
X189530952Y-48197619D01*
X189578571Y-48245238D01*
X189673809Y-48292857D01*
X189911904Y-48292857D01*
X190007142Y-48245238D01*
X190054761Y-48197619D01*
X190102380Y-48102380D01*
X190102380Y-47816666D01*
X190054761Y-47721428D01*
X190007142Y-47673809D01*
X208102380Y-45054761D02*
X207102380Y-45054761D01*
X207102380Y-45292857D01*
X207150000Y-45435714D01*
X207245238Y-45530952D01*
X207340476Y-45578571D01*
X207530952Y-45626190D01*
X207673809Y-45626190D01*
X207864285Y-45578571D01*
X207959523Y-45530952D01*
X208054761Y-45435714D01*
X208102380Y-45292857D01*
X208102380Y-45054761D01*
X208197619Y-45816666D02*
X208197619Y-46578571D01*
X207435714Y-47245238D02*
X208102380Y-47245238D01*
X207054761Y-47007142D02*
X207769047Y-46769047D01*
X207769047Y-47388095D01*
X207435714Y-48197619D02*
X208102380Y-48197619D01*
X207054761Y-47959523D02*
X207769047Y-47721428D01*
X207769047Y-48340476D01*
X226102380Y-45054761D02*
X225102380Y-45054761D01*
X225102380Y-45292857D01*
X225150000Y-45435714D01*
X225245238Y-45530952D01*
X225340476Y-45578571D01*
X225530952Y-45626190D01*
X225673809Y-45626190D01*
X225864285Y-45578571D01*
X225959523Y-45530952D01*
X226054761Y-45435714D01*
X226102380Y-45292857D01*
X226102380Y-45054761D01*
X226197619Y-45816666D02*
X226197619Y-46578571D01*
X225435714Y-47245238D02*
X226102380Y-47245238D01*
X225054761Y-47007142D02*
X225769047Y-46769047D01*
X225769047Y-47388095D01*
X225102380Y-48245238D02*
X225102380Y-47769047D01*
X225578571Y-47721428D01*
X225530952Y-47769047D01*
X225483333Y-47864285D01*
X225483333Y-48102380D01*
X225530952Y-48197619D01*
X225578571Y-48245238D01*
X225673809Y-48292857D01*
X225911904Y-48292857D01*
X226007142Y-48245238D01*
X226054761Y-48197619D01*
X226102380Y-48102380D01*
X226102380Y-47864285D01*
X226054761Y-47769047D01*
X226007142Y-47721428D01*
X244102380Y-45054761D02*
X243102380Y-45054761D01*
X243102380Y-45292857D01*
X243150000Y-45435714D01*
X243245238Y-45530952D01*
X243340476Y-45578571D01*
X243530952Y-45626190D01*
X243673809Y-45626190D01*
X243864285Y-45578571D01*
X243959523Y-45530952D01*
X244054761Y-45435714D01*
X244102380Y-45292857D01*
X244102380Y-45054761D01*
X244197619Y-45816666D02*
X244197619Y-46578571D01*
X243435714Y-47245238D02*
X244102380Y-47245238D01*
X243054761Y-47007142D02*
X243769047Y-46769047D01*
X243769047Y-47388095D01*
X243102380Y-48197619D02*
X243102380Y-48007142D01*
X243150000Y-47911904D01*
X243197619Y-47864285D01*
X243340476Y-47769047D01*
X243530952Y-47721428D01*
X243911904Y-47721428D01*
X244007142Y-47769047D01*
X244054761Y-47816666D01*
X244102380Y-47911904D01*
X244102380Y-48102380D01*
X244054761Y-48197619D01*
X244007142Y-48245238D01*
X243911904Y-48292857D01*
X243673809Y-48292857D01*
X243578571Y-48245238D01*
X243530952Y-48197619D01*
X243483333Y-48102380D01*
X243483333Y-47911904D01*
X243530952Y-47816666D01*
X243578571Y-47769047D01*
X243673809Y-47721428D01*
X266602380Y-28054761D02*
X265602380Y-28054761D01*
X265602380Y-28292857D01*
X265650000Y-28435714D01*
X265745238Y-28530952D01*
X265840476Y-28578571D01*
X266030952Y-28626190D01*
X266173809Y-28626190D01*
X266364285Y-28578571D01*
X266459523Y-28530952D01*
X266554761Y-28435714D01*
X266602380Y-28292857D01*
X266602380Y-28054761D01*
X266697619Y-28816666D02*
X266697619Y-29578571D01*
X265602380Y-29721428D02*
X265602380Y-30340476D01*
X265983333Y-30007142D01*
X265983333Y-30150000D01*
X266030952Y-30245238D01*
X266078571Y-30292857D01*
X266173809Y-30340476D01*
X266411904Y-30340476D01*
X266507142Y-30292857D01*
X266554761Y-30245238D01*
X266602380Y-30150000D01*
X266602380Y-29864285D01*
X266554761Y-29769047D01*
X266507142Y-29721428D01*
X266602380Y-31292857D02*
X266602380Y-30721428D01*
X266602380Y-31007142D02*
X265602380Y-31007142D01*
X265745238Y-30911904D01*
X265840476Y-30816666D01*
X265888095Y-30721428D01*
X5602380Y-62054761D02*
X4602380Y-62054761D01*
X4602380Y-62292857D01*
X4650000Y-62435714D01*
X4745238Y-62530952D01*
X4840476Y-62578571D01*
X5030952Y-62626190D01*
X5173809Y-62626190D01*
X5364285Y-62578571D01*
X5459523Y-62530952D01*
X5554761Y-62435714D01*
X5602380Y-62292857D01*
X5602380Y-62054761D01*
X5697619Y-62816666D02*
X5697619Y-63578571D01*
X4935714Y-64245238D02*
X5602380Y-64245238D01*
X4554761Y-64007142D02*
X5269047Y-63769047D01*
X5269047Y-64388095D01*
X4602380Y-64673809D02*
X4602380Y-65340476D01*
X5602380Y-64911904D01*
X32602380Y-62054761D02*
X31602380Y-62054761D01*
X31602380Y-62292857D01*
X31650000Y-62435714D01*
X31745238Y-62530952D01*
X31840476Y-62578571D01*
X32030952Y-62626190D01*
X32173809Y-62626190D01*
X32364285Y-62578571D01*
X32459523Y-62530952D01*
X32554761Y-62435714D01*
X32602380Y-62292857D01*
X32602380Y-62054761D01*
X32697619Y-62816666D02*
X32697619Y-63578571D01*
X31935714Y-64245238D02*
X32602380Y-64245238D01*
X31554761Y-64007142D02*
X32269047Y-63769047D01*
X32269047Y-64388095D01*
X32030952Y-64911904D02*
X31983333Y-64816666D01*
X31935714Y-64769047D01*
X31840476Y-64721428D01*
X31792857Y-64721428D01*
X31697619Y-64769047D01*
X31650000Y-64816666D01*
X31602380Y-64911904D01*
X31602380Y-65102380D01*
X31650000Y-65197619D01*
X31697619Y-65245238D01*
X31792857Y-65292857D01*
X31840476Y-65292857D01*
X31935714Y-65245238D01*
X31983333Y-65197619D01*
X32030952Y-65102380D01*
X32030952Y-64911904D01*
X32078571Y-64816666D01*
X32126190Y-64769047D01*
X32221428Y-64721428D01*
X32411904Y-64721428D01*
X32507142Y-64769047D01*
X32554761Y-64816666D01*
X32602380Y-64911904D01*
X32602380Y-65102380D01*
X32554761Y-65197619D01*
X32507142Y-65245238D01*
X32411904Y-65292857D01*
X32221428Y-65292857D01*
X32126190Y-65245238D01*
X32078571Y-65197619D01*
X32030952Y-65102380D01*
X55102380Y-62054761D02*
X54102380Y-62054761D01*
X54102380Y-62292857D01*
X54150000Y-62435714D01*
X54245238Y-62530952D01*
X54340476Y-62578571D01*
X54530952Y-62626190D01*
X54673809Y-62626190D01*
X54864285Y-62578571D01*
X54959523Y-62530952D01*
X55054761Y-62435714D01*
X55102380Y-62292857D01*
X55102380Y-62054761D01*
X55197619Y-62816666D02*
X55197619Y-63578571D01*
X54435714Y-64245238D02*
X55102380Y-64245238D01*
X54054761Y-64007142D02*
X54769047Y-63769047D01*
X54769047Y-64388095D01*
X55102380Y-64816666D02*
X55102380Y-65007142D01*
X55054761Y-65102380D01*
X55007142Y-65150000D01*
X54864285Y-65245238D01*
X54673809Y-65292857D01*
X54292857Y-65292857D01*
X54197619Y-65245238D01*
X54150000Y-65197619D01*
X54102380Y-65102380D01*
X54102380Y-64911904D01*
X54150000Y-64816666D01*
X54197619Y-64769047D01*
X54292857Y-64721428D01*
X54530952Y-64721428D01*
X54626190Y-64769047D01*
X54673809Y-64816666D01*
X54721428Y-64911904D01*
X54721428Y-65102380D01*
X54673809Y-65197619D01*
X54626190Y-65245238D01*
X54530952Y-65292857D01*
X73102380Y-62054761D02*
X72102380Y-62054761D01*
X72102380Y-62292857D01*
X72150000Y-62435714D01*
X72245238Y-62530952D01*
X72340476Y-62578571D01*
X72530952Y-62626190D01*
X72673809Y-62626190D01*
X72864285Y-62578571D01*
X72959523Y-62530952D01*
X73054761Y-62435714D01*
X73102380Y-62292857D01*
X73102380Y-62054761D01*
X73197619Y-62816666D02*
X73197619Y-63578571D01*
X72102380Y-64292857D02*
X72102380Y-63816666D01*
X72578571Y-63769047D01*
X72530952Y-63816666D01*
X72483333Y-63911904D01*
X72483333Y-64150000D01*
X72530952Y-64245238D01*
X72578571Y-64292857D01*
X72673809Y-64340476D01*
X72911904Y-64340476D01*
X73007142Y-64292857D01*
X73054761Y-64245238D01*
X73102380Y-64150000D01*
X73102380Y-63911904D01*
X73054761Y-63816666D01*
X73007142Y-63769047D01*
X72102380Y-64959523D02*
X72102380Y-65054761D01*
X72150000Y-65150000D01*
X72197619Y-65197619D01*
X72292857Y-65245238D01*
X72483333Y-65292857D01*
X72721428Y-65292857D01*
X72911904Y-65245238D01*
X73007142Y-65197619D01*
X73054761Y-65150000D01*
X73102380Y-65054761D01*
X73102380Y-64959523D01*
X73054761Y-64864285D01*
X73007142Y-64816666D01*
X72911904Y-64769047D01*
X72721428Y-64721428D01*
X72483333Y-64721428D01*
X72292857Y-64769047D01*
X72197619Y-64816666D01*
X72150000Y-64864285D01*
X72102380Y-64959523D01*
X90103817Y-67213650D02*
X90103817Y-66213650D01*
X89865721Y-66213650D01*
X89722864Y-66261270D01*
X89627626Y-66356508D01*
X89580007Y-66451746D01*
X89532388Y-66642222D01*
X89532388Y-66785079D01*
X89580007Y-66975555D01*
X89627626Y-67070793D01*
X89722864Y-67166031D01*
X89865721Y-67213650D01*
X90103817Y-67213650D01*
X89341912Y-67308889D02*
X88580007Y-67308889D01*
X87865721Y-66213650D02*
X88341912Y-66213650D01*
X88389531Y-66689841D01*
X88341912Y-66642222D01*
X88246674Y-66594603D01*
X88008579Y-66594603D01*
X87913340Y-66642222D01*
X87865721Y-66689841D01*
X87818102Y-66785079D01*
X87818102Y-67023174D01*
X87865721Y-67118412D01*
X87913340Y-67166031D01*
X88008579Y-67213650D01*
X88246674Y-67213650D01*
X88341912Y-67166031D01*
X88389531Y-67118412D01*
X86865721Y-67213650D02*
X87437150Y-67213650D01*
X87151436Y-67213650D02*
X87151436Y-66213650D01*
X87246674Y-66356508D01*
X87341912Y-66451746D01*
X87437150Y-66499365D01*
X109102380Y-62054761D02*
X108102380Y-62054761D01*
X108102380Y-62292857D01*
X108150000Y-62435714D01*
X108245238Y-62530952D01*
X108340476Y-62578571D01*
X108530952Y-62626190D01*
X108673809Y-62626190D01*
X108864285Y-62578571D01*
X108959523Y-62530952D01*
X109054761Y-62435714D01*
X109102380Y-62292857D01*
X109102380Y-62054761D01*
X109197619Y-62816666D02*
X109197619Y-63578571D01*
X108102380Y-64292857D02*
X108102380Y-63816666D01*
X108578571Y-63769047D01*
X108530952Y-63816666D01*
X108483333Y-63911904D01*
X108483333Y-64150000D01*
X108530952Y-64245238D01*
X108578571Y-64292857D01*
X108673809Y-64340476D01*
X108911904Y-64340476D01*
X109007142Y-64292857D01*
X109054761Y-64245238D01*
X109102380Y-64150000D01*
X109102380Y-63911904D01*
X109054761Y-63816666D01*
X109007142Y-63769047D01*
X108197619Y-64721428D02*
X108150000Y-64769047D01*
X108102380Y-64864285D01*
X108102380Y-65102380D01*
X108150000Y-65197619D01*
X108197619Y-65245238D01*
X108292857Y-65292857D01*
X108388095Y-65292857D01*
X108530952Y-65245238D01*
X109102380Y-64673809D01*
X109102380Y-65292857D01*
X115002380Y-53854761D02*
X114002380Y-53854761D01*
X114002380Y-54092857D01*
X114050000Y-54235714D01*
X114145238Y-54330952D01*
X114240476Y-54378571D01*
X114430952Y-54426190D01*
X114573809Y-54426190D01*
X114764285Y-54378571D01*
X114859523Y-54330952D01*
X114954761Y-54235714D01*
X115002380Y-54092857D01*
X115002380Y-53854761D01*
X115097619Y-54616666D02*
X115097619Y-55378571D01*
X114002380Y-56092857D02*
X114002380Y-55616666D01*
X114478571Y-55569047D01*
X114430952Y-55616666D01*
X114383333Y-55711904D01*
X114383333Y-55950000D01*
X114430952Y-56045238D01*
X114478571Y-56092857D01*
X114573809Y-56140476D01*
X114811904Y-56140476D01*
X114907142Y-56092857D01*
X114954761Y-56045238D01*
X115002380Y-55950000D01*
X115002380Y-55711904D01*
X114954761Y-55616666D01*
X114907142Y-55569047D01*
X114002380Y-56473809D02*
X114002380Y-57092857D01*
X114383333Y-56759523D01*
X114383333Y-56902380D01*
X114430952Y-56997619D01*
X114478571Y-57045238D01*
X114573809Y-57092857D01*
X114811904Y-57092857D01*
X114907142Y-57045238D01*
X114954761Y-56997619D01*
X115002380Y-56902380D01*
X115002380Y-56616666D01*
X114954761Y-56521428D01*
X114907142Y-56473809D01*
X145102380Y-62054761D02*
X144102380Y-62054761D01*
X144102380Y-62292857D01*
X144150000Y-62435714D01*
X144245238Y-62530952D01*
X144340476Y-62578571D01*
X144530952Y-62626190D01*
X144673809Y-62626190D01*
X144864285Y-62578571D01*
X144959523Y-62530952D01*
X145054761Y-62435714D01*
X145102380Y-62292857D01*
X145102380Y-62054761D01*
X145197619Y-62816666D02*
X145197619Y-63578571D01*
X144102380Y-64292857D02*
X144102380Y-63816666D01*
X144578571Y-63769047D01*
X144530952Y-63816666D01*
X144483333Y-63911904D01*
X144483333Y-64150000D01*
X144530952Y-64245238D01*
X144578571Y-64292857D01*
X144673809Y-64340476D01*
X144911904Y-64340476D01*
X145007142Y-64292857D01*
X145054761Y-64245238D01*
X145102380Y-64150000D01*
X145102380Y-63911904D01*
X145054761Y-63816666D01*
X145007142Y-63769047D01*
X144435714Y-65197619D02*
X145102380Y-65197619D01*
X144054761Y-64959523D02*
X144769047Y-64721428D01*
X144769047Y-65340476D01*
X163102380Y-62054761D02*
X162102380Y-62054761D01*
X162102380Y-62292857D01*
X162150000Y-62435714D01*
X162245238Y-62530952D01*
X162340476Y-62578571D01*
X162530952Y-62626190D01*
X162673809Y-62626190D01*
X162864285Y-62578571D01*
X162959523Y-62530952D01*
X163054761Y-62435714D01*
X163102380Y-62292857D01*
X163102380Y-62054761D01*
X163197619Y-62816666D02*
X163197619Y-63578571D01*
X162102380Y-64292857D02*
X162102380Y-63816666D01*
X162578571Y-63769047D01*
X162530952Y-63816666D01*
X162483333Y-63911904D01*
X162483333Y-64150000D01*
X162530952Y-64245238D01*
X162578571Y-64292857D01*
X162673809Y-64340476D01*
X162911904Y-64340476D01*
X163007142Y-64292857D01*
X163054761Y-64245238D01*
X163102380Y-64150000D01*
X163102380Y-63911904D01*
X163054761Y-63816666D01*
X163007142Y-63769047D01*
X162102380Y-65245238D02*
X162102380Y-64769047D01*
X162578571Y-64721428D01*
X162530952Y-64769047D01*
X162483333Y-64864285D01*
X162483333Y-65102380D01*
X162530952Y-65197619D01*
X162578571Y-65245238D01*
X162673809Y-65292857D01*
X162911904Y-65292857D01*
X163007142Y-65245238D01*
X163054761Y-65197619D01*
X163102380Y-65102380D01*
X163102380Y-64864285D01*
X163054761Y-64769047D01*
X163007142Y-64721428D01*
X181102380Y-62054761D02*
X180102380Y-62054761D01*
X180102380Y-62292857D01*
X180150000Y-62435714D01*
X180245238Y-62530952D01*
X180340476Y-62578571D01*
X180530952Y-62626190D01*
X180673809Y-62626190D01*
X180864285Y-62578571D01*
X180959523Y-62530952D01*
X181054761Y-62435714D01*
X181102380Y-62292857D01*
X181102380Y-62054761D01*
X181197619Y-62816666D02*
X181197619Y-63578571D01*
X180102380Y-64292857D02*
X180102380Y-63816666D01*
X180578571Y-63769047D01*
X180530952Y-63816666D01*
X180483333Y-63911904D01*
X180483333Y-64150000D01*
X180530952Y-64245238D01*
X180578571Y-64292857D01*
X180673809Y-64340476D01*
X180911904Y-64340476D01*
X181007142Y-64292857D01*
X181054761Y-64245238D01*
X181102380Y-64150000D01*
X181102380Y-63911904D01*
X181054761Y-63816666D01*
X181007142Y-63769047D01*
X180102380Y-65197619D02*
X180102380Y-65007142D01*
X180150000Y-64911904D01*
X180197619Y-64864285D01*
X180340476Y-64769047D01*
X180530952Y-64721428D01*
X180911904Y-64721428D01*
X181007142Y-64769047D01*
X181054761Y-64816666D01*
X181102380Y-64911904D01*
X181102380Y-65102380D01*
X181054761Y-65197619D01*
X181007142Y-65245238D01*
X180911904Y-65292857D01*
X180673809Y-65292857D01*
X180578571Y-65245238D01*
X180530952Y-65197619D01*
X180483333Y-65102380D01*
X180483333Y-64911904D01*
X180530952Y-64816666D01*
X180578571Y-64769047D01*
X180673809Y-64721428D01*
X199102380Y-62054761D02*
X198102380Y-62054761D01*
X198102380Y-62292857D01*
X198150000Y-62435714D01*
X198245238Y-62530952D01*
X198340476Y-62578571D01*
X198530952Y-62626190D01*
X198673809Y-62626190D01*
X198864285Y-62578571D01*
X198959523Y-62530952D01*
X199054761Y-62435714D01*
X199102380Y-62292857D01*
X199102380Y-62054761D01*
X199197619Y-62816666D02*
X199197619Y-63578571D01*
X198102380Y-64292857D02*
X198102380Y-63816666D01*
X198578571Y-63769047D01*
X198530952Y-63816666D01*
X198483333Y-63911904D01*
X198483333Y-64150000D01*
X198530952Y-64245238D01*
X198578571Y-64292857D01*
X198673809Y-64340476D01*
X198911904Y-64340476D01*
X199007142Y-64292857D01*
X199054761Y-64245238D01*
X199102380Y-64150000D01*
X199102380Y-63911904D01*
X199054761Y-63816666D01*
X199007142Y-63769047D01*
X198102380Y-64673809D02*
X198102380Y-65340476D01*
X199102380Y-64911904D01*
X217102380Y-62054761D02*
X216102380Y-62054761D01*
X216102380Y-62292857D01*
X216150000Y-62435714D01*
X216245238Y-62530952D01*
X216340476Y-62578571D01*
X216530952Y-62626190D01*
X216673809Y-62626190D01*
X216864285Y-62578571D01*
X216959523Y-62530952D01*
X217054761Y-62435714D01*
X217102380Y-62292857D01*
X217102380Y-62054761D01*
X217197619Y-62816666D02*
X217197619Y-63578571D01*
X216102380Y-64292857D02*
X216102380Y-63816666D01*
X216578571Y-63769047D01*
X216530952Y-63816666D01*
X216483333Y-63911904D01*
X216483333Y-64150000D01*
X216530952Y-64245238D01*
X216578571Y-64292857D01*
X216673809Y-64340476D01*
X216911904Y-64340476D01*
X217007142Y-64292857D01*
X217054761Y-64245238D01*
X217102380Y-64150000D01*
X217102380Y-63911904D01*
X217054761Y-63816666D01*
X217007142Y-63769047D01*
X216530952Y-64911904D02*
X216483333Y-64816666D01*
X216435714Y-64769047D01*
X216340476Y-64721428D01*
X216292857Y-64721428D01*
X216197619Y-64769047D01*
X216150000Y-64816666D01*
X216102380Y-64911904D01*
X216102380Y-65102380D01*
X216150000Y-65197619D01*
X216197619Y-65245238D01*
X216292857Y-65292857D01*
X216340476Y-65292857D01*
X216435714Y-65245238D01*
X216483333Y-65197619D01*
X216530952Y-65102380D01*
X216530952Y-64911904D01*
X216578571Y-64816666D01*
X216626190Y-64769047D01*
X216721428Y-64721428D01*
X216911904Y-64721428D01*
X217007142Y-64769047D01*
X217054761Y-64816666D01*
X217102380Y-64911904D01*
X217102380Y-65102380D01*
X217054761Y-65197619D01*
X217007142Y-65245238D01*
X216911904Y-65292857D01*
X216721428Y-65292857D01*
X216626190Y-65245238D01*
X216578571Y-65197619D01*
X216530952Y-65102380D01*
X241852380Y-62054761D02*
X240852380Y-62054761D01*
X240852380Y-62292857D01*
X240900000Y-62435714D01*
X240995238Y-62530952D01*
X241090476Y-62578571D01*
X241280952Y-62626190D01*
X241423809Y-62626190D01*
X241614285Y-62578571D01*
X241709523Y-62530952D01*
X241804761Y-62435714D01*
X241852380Y-62292857D01*
X241852380Y-62054761D01*
X241947619Y-62816666D02*
X241947619Y-63578571D01*
X240852380Y-64292857D02*
X240852380Y-63816666D01*
X241328571Y-63769047D01*
X241280952Y-63816666D01*
X241233333Y-63911904D01*
X241233333Y-64150000D01*
X241280952Y-64245238D01*
X241328571Y-64292857D01*
X241423809Y-64340476D01*
X241661904Y-64340476D01*
X241757142Y-64292857D01*
X241804761Y-64245238D01*
X241852380Y-64150000D01*
X241852380Y-63911904D01*
X241804761Y-63816666D01*
X241757142Y-63769047D01*
X241852380Y-64816666D02*
X241852380Y-65007142D01*
X241804761Y-65102380D01*
X241757142Y-65150000D01*
X241614285Y-65245238D01*
X241423809Y-65292857D01*
X241042857Y-65292857D01*
X240947619Y-65245238D01*
X240900000Y-65197619D01*
X240852380Y-65102380D01*
X240852380Y-64911904D01*
X240900000Y-64816666D01*
X240947619Y-64769047D01*
X241042857Y-64721428D01*
X241280952Y-64721428D01*
X241376190Y-64769047D01*
X241423809Y-64816666D01*
X241471428Y-64911904D01*
X241471428Y-65102380D01*
X241423809Y-65197619D01*
X241376190Y-65245238D01*
X241280952Y-65292857D01*
X28102380Y-79054761D02*
X27102380Y-79054761D01*
X27102380Y-79292857D01*
X27150000Y-79435714D01*
X27245238Y-79530952D01*
X27340476Y-79578571D01*
X27530952Y-79626190D01*
X27673809Y-79626190D01*
X27864285Y-79578571D01*
X27959523Y-79530952D01*
X28054761Y-79435714D01*
X28102380Y-79292857D01*
X28102380Y-79054761D01*
X28197619Y-79816666D02*
X28197619Y-80578571D01*
X27102380Y-81245238D02*
X27102380Y-81054761D01*
X27150000Y-80959523D01*
X27197619Y-80911904D01*
X27340476Y-80816666D01*
X27530952Y-80769047D01*
X27911904Y-80769047D01*
X28007142Y-80816666D01*
X28054761Y-80864285D01*
X28102380Y-80959523D01*
X28102380Y-81150000D01*
X28054761Y-81245238D01*
X28007142Y-81292857D01*
X27911904Y-81340476D01*
X27673809Y-81340476D01*
X27578571Y-81292857D01*
X27530952Y-81245238D01*
X27483333Y-81150000D01*
X27483333Y-80959523D01*
X27530952Y-80864285D01*
X27578571Y-80816666D01*
X27673809Y-80769047D01*
X27197619Y-81721428D02*
X27150000Y-81769047D01*
X27102380Y-81864285D01*
X27102380Y-82102380D01*
X27150000Y-82197619D01*
X27197619Y-82245238D01*
X27292857Y-82292857D01*
X27388095Y-82292857D01*
X27530952Y-82245238D01*
X28102380Y-81673809D01*
X28102380Y-82292857D01*
X46102380Y-79054761D02*
X45102380Y-79054761D01*
X45102380Y-79292857D01*
X45150000Y-79435714D01*
X45245238Y-79530952D01*
X45340476Y-79578571D01*
X45530952Y-79626190D01*
X45673809Y-79626190D01*
X45864285Y-79578571D01*
X45959523Y-79530952D01*
X46054761Y-79435714D01*
X46102380Y-79292857D01*
X46102380Y-79054761D01*
X46197619Y-79816666D02*
X46197619Y-80578571D01*
X45102380Y-81245238D02*
X45102380Y-81054761D01*
X45150000Y-80959523D01*
X45197619Y-80911904D01*
X45340476Y-80816666D01*
X45530952Y-80769047D01*
X45911904Y-80769047D01*
X46007142Y-80816666D01*
X46054761Y-80864285D01*
X46102380Y-80959523D01*
X46102380Y-81150000D01*
X46054761Y-81245238D01*
X46007142Y-81292857D01*
X45911904Y-81340476D01*
X45673809Y-81340476D01*
X45578571Y-81292857D01*
X45530952Y-81245238D01*
X45483333Y-81150000D01*
X45483333Y-80959523D01*
X45530952Y-80864285D01*
X45578571Y-80816666D01*
X45673809Y-80769047D01*
X45102380Y-81673809D02*
X45102380Y-82292857D01*
X45483333Y-81959523D01*
X45483333Y-82102380D01*
X45530952Y-82197619D01*
X45578571Y-82245238D01*
X45673809Y-82292857D01*
X45911904Y-82292857D01*
X46007142Y-82245238D01*
X46054761Y-82197619D01*
X46102380Y-82102380D01*
X46102380Y-81816666D01*
X46054761Y-81721428D01*
X46007142Y-81673809D01*
X64102380Y-79054761D02*
X63102380Y-79054761D01*
X63102380Y-79292857D01*
X63150000Y-79435714D01*
X63245238Y-79530952D01*
X63340476Y-79578571D01*
X63530952Y-79626190D01*
X63673809Y-79626190D01*
X63864285Y-79578571D01*
X63959523Y-79530952D01*
X64054761Y-79435714D01*
X64102380Y-79292857D01*
X64102380Y-79054761D01*
X64197619Y-79816666D02*
X64197619Y-80578571D01*
X63102380Y-81245238D02*
X63102380Y-81054761D01*
X63150000Y-80959523D01*
X63197619Y-80911904D01*
X63340476Y-80816666D01*
X63530952Y-80769047D01*
X63911904Y-80769047D01*
X64007142Y-80816666D01*
X64054761Y-80864285D01*
X64102380Y-80959523D01*
X64102380Y-81150000D01*
X64054761Y-81245238D01*
X64007142Y-81292857D01*
X63911904Y-81340476D01*
X63673809Y-81340476D01*
X63578571Y-81292857D01*
X63530952Y-81245238D01*
X63483333Y-81150000D01*
X63483333Y-80959523D01*
X63530952Y-80864285D01*
X63578571Y-80816666D01*
X63673809Y-80769047D01*
X63435714Y-82197619D02*
X64102380Y-82197619D01*
X63054761Y-81959523D02*
X63769047Y-81721428D01*
X63769047Y-82340476D01*
X110195238Y-80352380D02*
X110195238Y-79352380D01*
X109957142Y-79352380D01*
X109814285Y-79400000D01*
X109719047Y-79495238D01*
X109671428Y-79590476D01*
X109623809Y-79780952D01*
X109623809Y-79923809D01*
X109671428Y-80114285D01*
X109719047Y-80209523D01*
X109814285Y-80304761D01*
X109957142Y-80352380D01*
X110195238Y-80352380D01*
X109433333Y-80447619D02*
X108671428Y-80447619D01*
X108004761Y-79352380D02*
X108195238Y-79352380D01*
X108290476Y-79400000D01*
X108338095Y-79447619D01*
X108433333Y-79590476D01*
X108480952Y-79780952D01*
X108480952Y-80161904D01*
X108433333Y-80257142D01*
X108385714Y-80304761D01*
X108290476Y-80352380D01*
X108100000Y-80352380D01*
X108004761Y-80304761D01*
X107957142Y-80257142D01*
X107909523Y-80161904D01*
X107909523Y-79923809D01*
X107957142Y-79828571D01*
X108004761Y-79780952D01*
X108100000Y-79733333D01*
X108290476Y-79733333D01*
X108385714Y-79780952D01*
X108433333Y-79828571D01*
X108480952Y-79923809D01*
X107052380Y-79352380D02*
X107242857Y-79352380D01*
X107338095Y-79400000D01*
X107385714Y-79447619D01*
X107480952Y-79590476D01*
X107528571Y-79780952D01*
X107528571Y-80161904D01*
X107480952Y-80257142D01*
X107433333Y-80304761D01*
X107338095Y-80352380D01*
X107147619Y-80352380D01*
X107052380Y-80304761D01*
X107004761Y-80257142D01*
X106957142Y-80161904D01*
X106957142Y-79923809D01*
X107004761Y-79828571D01*
X107052380Y-79780952D01*
X107147619Y-79733333D01*
X107338095Y-79733333D01*
X107433333Y-79780952D01*
X107480952Y-79828571D01*
X107528571Y-79923809D01*
X144747885Y-80541877D02*
X144040778Y-79834771D01*
X143872419Y-80003129D01*
X143805076Y-80137816D01*
X143805076Y-80272503D01*
X143838748Y-80373519D01*
X143939763Y-80541877D01*
X144040778Y-80642893D01*
X144209137Y-80743908D01*
X144310152Y-80777580D01*
X144444839Y-80777580D01*
X144579526Y-80710236D01*
X144747885Y-80541877D01*
X144276480Y-81147969D02*
X143737732Y-81686717D01*
X142491877Y-81383671D02*
X142626564Y-81248984D01*
X142727580Y-81215312D01*
X142794923Y-81215312D01*
X142963282Y-81248984D01*
X143131641Y-81350000D01*
X143401015Y-81619374D01*
X143434687Y-81720389D01*
X143434687Y-81787732D01*
X143401015Y-81888748D01*
X143266328Y-82023435D01*
X143165312Y-82057106D01*
X143097969Y-82057106D01*
X142996954Y-82023435D01*
X142828595Y-81855076D01*
X142794923Y-81754061D01*
X142794923Y-81686717D01*
X142828595Y-81585702D01*
X142963282Y-81451015D01*
X143064297Y-81417343D01*
X143131641Y-81417343D01*
X143232656Y-81451015D01*
X142188832Y-81686717D02*
X141717427Y-82158122D01*
X142727580Y-82562183D01*
X190102380Y-79054761D02*
X189102380Y-79054761D01*
X189102380Y-79292857D01*
X189150000Y-79435714D01*
X189245238Y-79530952D01*
X189340476Y-79578571D01*
X189530952Y-79626190D01*
X189673809Y-79626190D01*
X189864285Y-79578571D01*
X189959523Y-79530952D01*
X190054761Y-79435714D01*
X190102380Y-79292857D01*
X190102380Y-79054761D01*
X190197619Y-79816666D02*
X190197619Y-80578571D01*
X189102380Y-81245238D02*
X189102380Y-81054761D01*
X189150000Y-80959523D01*
X189197619Y-80911904D01*
X189340476Y-80816666D01*
X189530952Y-80769047D01*
X189911904Y-80769047D01*
X190007142Y-80816666D01*
X190054761Y-80864285D01*
X190102380Y-80959523D01*
X190102380Y-81150000D01*
X190054761Y-81245238D01*
X190007142Y-81292857D01*
X189911904Y-81340476D01*
X189673809Y-81340476D01*
X189578571Y-81292857D01*
X189530952Y-81245238D01*
X189483333Y-81150000D01*
X189483333Y-80959523D01*
X189530952Y-80864285D01*
X189578571Y-80816666D01*
X189673809Y-80769047D01*
X190102380Y-81816666D02*
X190102380Y-82007142D01*
X190054761Y-82102380D01*
X190007142Y-82150000D01*
X189864285Y-82245238D01*
X189673809Y-82292857D01*
X189292857Y-82292857D01*
X189197619Y-82245238D01*
X189150000Y-82197619D01*
X189102380Y-82102380D01*
X189102380Y-81911904D01*
X189150000Y-81816666D01*
X189197619Y-81769047D01*
X189292857Y-81721428D01*
X189530952Y-81721428D01*
X189626190Y-81769047D01*
X189673809Y-81816666D01*
X189721428Y-81911904D01*
X189721428Y-82102380D01*
X189673809Y-82197619D01*
X189626190Y-82245238D01*
X189530952Y-82292857D01*
X208102380Y-79054761D02*
X207102380Y-79054761D01*
X207102380Y-79292857D01*
X207150000Y-79435714D01*
X207245238Y-79530952D01*
X207340476Y-79578571D01*
X207530952Y-79626190D01*
X207673809Y-79626190D01*
X207864285Y-79578571D01*
X207959523Y-79530952D01*
X208054761Y-79435714D01*
X208102380Y-79292857D01*
X208102380Y-79054761D01*
X208197619Y-79816666D02*
X208197619Y-80578571D01*
X207102380Y-80721428D02*
X207102380Y-81388095D01*
X208102380Y-80959523D01*
X207102380Y-81959523D02*
X207102380Y-82054761D01*
X207150000Y-82150000D01*
X207197619Y-82197619D01*
X207292857Y-82245238D01*
X207483333Y-82292857D01*
X207721428Y-82292857D01*
X207911904Y-82245238D01*
X208007142Y-82197619D01*
X208054761Y-82150000D01*
X208102380Y-82054761D01*
X208102380Y-81959523D01*
X208054761Y-81864285D01*
X208007142Y-81816666D01*
X207911904Y-81769047D01*
X207721428Y-81721428D01*
X207483333Y-81721428D01*
X207292857Y-81769047D01*
X207197619Y-81816666D01*
X207150000Y-81864285D01*
X207102380Y-81959523D01*
X228352380Y-79054761D02*
X227352380Y-79054761D01*
X227352380Y-79292857D01*
X227400000Y-79435714D01*
X227495238Y-79530952D01*
X227590476Y-79578571D01*
X227780952Y-79626190D01*
X227923809Y-79626190D01*
X228114285Y-79578571D01*
X228209523Y-79530952D01*
X228304761Y-79435714D01*
X228352380Y-79292857D01*
X228352380Y-79054761D01*
X228447619Y-79816666D02*
X228447619Y-80578571D01*
X227352380Y-80721428D02*
X227352380Y-81388095D01*
X228352380Y-80959523D01*
X228352380Y-82292857D02*
X228352380Y-81721428D01*
X228352380Y-82007142D02*
X227352380Y-82007142D01*
X227495238Y-81911904D01*
X227590476Y-81816666D01*
X227638095Y-81721428D01*
X248602380Y-79054761D02*
X247602380Y-79054761D01*
X247602380Y-79292857D01*
X247650000Y-79435714D01*
X247745238Y-79530952D01*
X247840476Y-79578571D01*
X248030952Y-79626190D01*
X248173809Y-79626190D01*
X248364285Y-79578571D01*
X248459523Y-79530952D01*
X248554761Y-79435714D01*
X248602380Y-79292857D01*
X248602380Y-79054761D01*
X248697619Y-79816666D02*
X248697619Y-80578571D01*
X247602380Y-80721428D02*
X247602380Y-81388095D01*
X248602380Y-80959523D01*
X247697619Y-81721428D02*
X247650000Y-81769047D01*
X247602380Y-81864285D01*
X247602380Y-82102380D01*
X247650000Y-82197619D01*
X247697619Y-82245238D01*
X247792857Y-82292857D01*
X247888095Y-82292857D01*
X248030952Y-82245238D01*
X248602380Y-81673809D01*
X248602380Y-82292857D01*
X284602380Y-79054761D02*
X283602380Y-79054761D01*
X283602380Y-79292857D01*
X283650000Y-79435714D01*
X283745238Y-79530952D01*
X283840476Y-79578571D01*
X284030952Y-79626190D01*
X284173809Y-79626190D01*
X284364285Y-79578571D01*
X284459523Y-79530952D01*
X284554761Y-79435714D01*
X284602380Y-79292857D01*
X284602380Y-79054761D01*
X284697619Y-79816666D02*
X284697619Y-80578571D01*
X283602380Y-80721428D02*
X283602380Y-81388095D01*
X284602380Y-80959523D01*
X283935714Y-82197619D02*
X284602380Y-82197619D01*
X283554761Y-81959523D02*
X284269047Y-81721428D01*
X284269047Y-82340476D01*
X7983630Y-79054761D02*
X6983630Y-79054761D01*
X6983630Y-79292857D01*
X7031250Y-79435714D01*
X7126488Y-79530952D01*
X7221726Y-79578571D01*
X7412202Y-79626190D01*
X7555059Y-79626190D01*
X7745535Y-79578571D01*
X7840773Y-79530952D01*
X7936011Y-79435714D01*
X7983630Y-79292857D01*
X7983630Y-79054761D01*
X8078869Y-79816666D02*
X8078869Y-80578571D01*
X6983630Y-81245238D02*
X6983630Y-81054761D01*
X7031250Y-80959523D01*
X7078869Y-80911904D01*
X7221726Y-80816666D01*
X7412202Y-80769047D01*
X7793154Y-80769047D01*
X7888392Y-80816666D01*
X7936011Y-80864285D01*
X7983630Y-80959523D01*
X7983630Y-81150000D01*
X7936011Y-81245238D01*
X7888392Y-81292857D01*
X7793154Y-81340476D01*
X7555059Y-81340476D01*
X7459821Y-81292857D01*
X7412202Y-81245238D01*
X7364583Y-81150000D01*
X7364583Y-80959523D01*
X7412202Y-80864285D01*
X7459821Y-80816666D01*
X7555059Y-80769047D01*
X7983630Y-82292857D02*
X7983630Y-81721428D01*
X7983630Y-82007142D02*
X6983630Y-82007142D01*
X7126488Y-81911904D01*
X7221726Y-81816666D01*
X7269345Y-81721428D01*
X82102380Y-79054761D02*
X81102380Y-79054761D01*
X81102380Y-79292857D01*
X81150000Y-79435714D01*
X81245238Y-79530952D01*
X81340476Y-79578571D01*
X81530952Y-79626190D01*
X81673809Y-79626190D01*
X81864285Y-79578571D01*
X81959523Y-79530952D01*
X82054761Y-79435714D01*
X82102380Y-79292857D01*
X82102380Y-79054761D01*
X82197619Y-79816666D02*
X82197619Y-80578571D01*
X81102380Y-81245238D02*
X81102380Y-81054761D01*
X81150000Y-80959523D01*
X81197619Y-80911904D01*
X81340476Y-80816666D01*
X81530952Y-80769047D01*
X81911904Y-80769047D01*
X82007142Y-80816666D01*
X82054761Y-80864285D01*
X82102380Y-80959523D01*
X82102380Y-81150000D01*
X82054761Y-81245238D01*
X82007142Y-81292857D01*
X81911904Y-81340476D01*
X81673809Y-81340476D01*
X81578571Y-81292857D01*
X81530952Y-81245238D01*
X81483333Y-81150000D01*
X81483333Y-80959523D01*
X81530952Y-80864285D01*
X81578571Y-80816666D01*
X81673809Y-80769047D01*
X81102380Y-82245238D02*
X81102380Y-81769047D01*
X81578571Y-81721428D01*
X81530952Y-81769047D01*
X81483333Y-81864285D01*
X81483333Y-82102380D01*
X81530952Y-82197619D01*
X81578571Y-82245238D01*
X81673809Y-82292857D01*
X81911904Y-82292857D01*
X82007142Y-82245238D01*
X82054761Y-82197619D01*
X82102380Y-82102380D01*
X82102380Y-81864285D01*
X82054761Y-81769047D01*
X82007142Y-81721428D01*
X266602380Y-62054761D02*
X265602380Y-62054761D01*
X265602380Y-62292857D01*
X265650000Y-62435714D01*
X265745238Y-62530952D01*
X265840476Y-62578571D01*
X266030952Y-62626190D01*
X266173809Y-62626190D01*
X266364285Y-62578571D01*
X266459523Y-62530952D01*
X266554761Y-62435714D01*
X266602380Y-62292857D01*
X266602380Y-62054761D01*
X266697619Y-62816666D02*
X266697619Y-63578571D01*
X265602380Y-64245238D02*
X265602380Y-64054761D01*
X265650000Y-63959523D01*
X265697619Y-63911904D01*
X265840476Y-63816666D01*
X266030952Y-63769047D01*
X266411904Y-63769047D01*
X266507142Y-63816666D01*
X266554761Y-63864285D01*
X266602380Y-63959523D01*
X266602380Y-64150000D01*
X266554761Y-64245238D01*
X266507142Y-64292857D01*
X266411904Y-64340476D01*
X266173809Y-64340476D01*
X266078571Y-64292857D01*
X266030952Y-64245238D01*
X265983333Y-64150000D01*
X265983333Y-63959523D01*
X266030952Y-63864285D01*
X266078571Y-63816666D01*
X266173809Y-63769047D01*
X265602380Y-64959523D02*
X265602380Y-65054761D01*
X265650000Y-65150000D01*
X265697619Y-65197619D01*
X265792857Y-65245238D01*
X265983333Y-65292857D01*
X266221428Y-65292857D01*
X266411904Y-65245238D01*
X266507142Y-65197619D01*
X266554761Y-65150000D01*
X266602380Y-65054761D01*
X266602380Y-64959523D01*
X266554761Y-64864285D01*
X266507142Y-64816666D01*
X266411904Y-64769047D01*
X266221428Y-64721428D01*
X265983333Y-64721428D01*
X265792857Y-64769047D01*
X265697619Y-64816666D01*
X265650000Y-64864285D01*
X265602380Y-64959523D01*
X266602380Y-79054761D02*
X265602380Y-79054761D01*
X265602380Y-79292857D01*
X265650000Y-79435714D01*
X265745238Y-79530952D01*
X265840476Y-79578571D01*
X266030952Y-79626190D01*
X266173809Y-79626190D01*
X266364285Y-79578571D01*
X266459523Y-79530952D01*
X266554761Y-79435714D01*
X266602380Y-79292857D01*
X266602380Y-79054761D01*
X266697619Y-79816666D02*
X266697619Y-80578571D01*
X265602380Y-80721428D02*
X265602380Y-81388095D01*
X266602380Y-80959523D01*
X265602380Y-81673809D02*
X265602380Y-82292857D01*
X265983333Y-81959523D01*
X265983333Y-82102380D01*
X266030952Y-82197619D01*
X266078571Y-82245238D01*
X266173809Y-82292857D01*
X266411904Y-82292857D01*
X266507142Y-82245238D01*
X266554761Y-82197619D01*
X266602380Y-82102380D01*
X266602380Y-81816666D01*
X266554761Y-81721428D01*
X266507142Y-81673809D01*
X284602380Y-28054761D02*
X283602380Y-28054761D01*
X283602380Y-28292857D01*
X283650000Y-28435714D01*
X283745238Y-28530952D01*
X283840476Y-28578571D01*
X284030952Y-28626190D01*
X284173809Y-28626190D01*
X284364285Y-28578571D01*
X284459523Y-28530952D01*
X284554761Y-28435714D01*
X284602380Y-28292857D01*
X284602380Y-28054761D01*
X284697619Y-28816666D02*
X284697619Y-29578571D01*
X283602380Y-29721428D02*
X283602380Y-30340476D01*
X283983333Y-30007142D01*
X283983333Y-30150000D01*
X284030952Y-30245238D01*
X284078571Y-30292857D01*
X284173809Y-30340476D01*
X284411904Y-30340476D01*
X284507142Y-30292857D01*
X284554761Y-30245238D01*
X284602380Y-30150000D01*
X284602380Y-29864285D01*
X284554761Y-29769047D01*
X284507142Y-29721428D01*
X283697619Y-30721428D02*
X283650000Y-30769047D01*
X283602380Y-30864285D01*
X283602380Y-31102380D01*
X283650000Y-31197619D01*
X283697619Y-31245238D01*
X283792857Y-31292857D01*
X283888095Y-31292857D01*
X284030952Y-31245238D01*
X284602380Y-30673809D01*
X284602380Y-31292857D01*
X172102380Y-79054761D02*
X171102380Y-79054761D01*
X171102380Y-79292857D01*
X171150000Y-79435714D01*
X171245238Y-79530952D01*
X171340476Y-79578571D01*
X171530952Y-79626190D01*
X171673809Y-79626190D01*
X171864285Y-79578571D01*
X171959523Y-79530952D01*
X172054761Y-79435714D01*
X172102380Y-79292857D01*
X172102380Y-79054761D01*
X172197619Y-79816666D02*
X172197619Y-80578571D01*
X171102380Y-81245238D02*
X171102380Y-81054761D01*
X171150000Y-80959523D01*
X171197619Y-80911904D01*
X171340476Y-80816666D01*
X171530952Y-80769047D01*
X171911904Y-80769047D01*
X172007142Y-80816666D01*
X172054761Y-80864285D01*
X172102380Y-80959523D01*
X172102380Y-81150000D01*
X172054761Y-81245238D01*
X172007142Y-81292857D01*
X171911904Y-81340476D01*
X171673809Y-81340476D01*
X171578571Y-81292857D01*
X171530952Y-81245238D01*
X171483333Y-81150000D01*
X171483333Y-80959523D01*
X171530952Y-80864285D01*
X171578571Y-80816666D01*
X171673809Y-80769047D01*
X171530952Y-81911904D02*
X171483333Y-81816666D01*
X171435714Y-81769047D01*
X171340476Y-81721428D01*
X171292857Y-81721428D01*
X171197619Y-81769047D01*
X171150000Y-81816666D01*
X171102380Y-81911904D01*
X171102380Y-82102380D01*
X171150000Y-82197619D01*
X171197619Y-82245238D01*
X171292857Y-82292857D01*
X171340476Y-82292857D01*
X171435714Y-82245238D01*
X171483333Y-82197619D01*
X171530952Y-82102380D01*
X171530952Y-81911904D01*
X171578571Y-81816666D01*
X171626190Y-81769047D01*
X171721428Y-81721428D01*
X171911904Y-81721428D01*
X172007142Y-81769047D01*
X172054761Y-81816666D01*
X172102380Y-81911904D01*
X172102380Y-82102380D01*
X172054761Y-82197619D01*
X172007142Y-82245238D01*
X171911904Y-82292857D01*
X171721428Y-82292857D01*
X171626190Y-82245238D01*
X171578571Y-82197619D01*
X171530952Y-82102380D01*
X105602380Y-68083333D02*
X105126190Y-67750000D01*
X105602380Y-67511904D02*
X104602380Y-67511904D01*
X104602380Y-67892857D01*
X104650000Y-67988095D01*
X104697619Y-68035714D01*
X104792857Y-68083333D01*
X104935714Y-68083333D01*
X105030952Y-68035714D01*
X105078571Y-67988095D01*
X105126190Y-67892857D01*
X105126190Y-67511904D01*
X104602380Y-68988095D02*
X104602380Y-68511904D01*
X105078571Y-68464285D01*
X105030952Y-68511904D01*
X104983333Y-68607142D01*
X104983333Y-68845238D01*
X105030952Y-68940476D01*
X105078571Y-68988095D01*
X105173809Y-69035714D01*
X105411904Y-69035714D01*
X105507142Y-68988095D01*
X105554761Y-68940476D01*
X105602380Y-68845238D01*
X105602380Y-68607142D01*
X105554761Y-68511904D01*
X105507142Y-68464285D01*
X149004761Y-71166666D02*
X149052380Y-71309523D01*
X149052380Y-71547619D01*
X149004761Y-71642857D01*
X148957142Y-71690476D01*
X148861904Y-71738095D01*
X148766666Y-71738095D01*
X148671428Y-71690476D01*
X148623809Y-71642857D01*
X148576190Y-71547619D01*
X148528571Y-71357142D01*
X148480952Y-71261904D01*
X148433333Y-71214285D01*
X148338095Y-71166666D01*
X148242857Y-71166666D01*
X148147619Y-71214285D01*
X148100000Y-71261904D01*
X148052380Y-71357142D01*
X148052380Y-71595238D01*
X148100000Y-71738095D01*
X148052380Y-72071428D02*
X149052380Y-72309523D01*
X148338095Y-72500000D01*
X149052380Y-72690476D01*
X148052380Y-72928571D01*
X149052380Y-73833333D02*
X149052380Y-73261904D01*
X149052380Y-73547619D02*
X148052380Y-73547619D01*
X148195238Y-73452380D01*
X148290476Y-73357142D01*
X148338095Y-73261904D01*
X107407142Y-68083333D02*
X107454761Y-68035714D01*
X107502380Y-67892857D01*
X107502380Y-67797619D01*
X107454761Y-67654761D01*
X107359523Y-67559523D01*
X107264285Y-67511904D01*
X107073809Y-67464285D01*
X106930952Y-67464285D01*
X106740476Y-67511904D01*
X106645238Y-67559523D01*
X106550000Y-67654761D01*
X106502380Y-67797619D01*
X106502380Y-67892857D01*
X106550000Y-68035714D01*
X106597619Y-68083333D01*
X106502380Y-68988095D02*
X106502380Y-68511904D01*
X106978571Y-68464285D01*
X106930952Y-68511904D01*
X106883333Y-68607142D01*
X106883333Y-68845238D01*
X106930952Y-68940476D01*
X106978571Y-68988095D01*
X107073809Y-69035714D01*
X107311904Y-69035714D01*
X107407142Y-68988095D01*
X107454761Y-68940476D01*
X107502380Y-68845238D01*
X107502380Y-68607142D01*
X107454761Y-68511904D01*
X107407142Y-68464285D01*
X116466666Y-67107142D02*
X116514285Y-67154761D01*
X116657142Y-67202380D01*
X116752380Y-67202380D01*
X116895238Y-67154761D01*
X116990476Y-67059523D01*
X117038095Y-66964285D01*
X117085714Y-66773809D01*
X117085714Y-66630952D01*
X117038095Y-66440476D01*
X116990476Y-66345238D01*
X116895238Y-66250000D01*
X116752380Y-66202380D01*
X116657142Y-66202380D01*
X116514285Y-66250000D01*
X116466666Y-66297619D01*
X116133333Y-66202380D02*
X115466666Y-66202380D01*
X115895238Y-67202380D01*
X134865313Y-81270389D02*
X134865313Y-81337732D01*
X134932657Y-81472419D01*
X135000001Y-81539763D01*
X135134688Y-81607106D01*
X135269375Y-81607106D01*
X135370390Y-81573435D01*
X135538749Y-81472419D01*
X135639764Y-81371404D01*
X135740779Y-81203045D01*
X135774451Y-81102030D01*
X135774451Y-80967343D01*
X135707107Y-80832656D01*
X135639764Y-80765312D01*
X135505077Y-80697969D01*
X135437733Y-80697969D01*
X134124535Y-80664297D02*
X134528596Y-81068358D01*
X134326565Y-80866328D02*
X135033672Y-80159221D01*
X135000001Y-80327580D01*
X135000001Y-80462267D01*
X135033672Y-80563282D01*
X133154166Y-84307142D02*
X133201785Y-84354761D01*
X133344642Y-84402380D01*
X133439880Y-84402380D01*
X133582738Y-84354761D01*
X133677976Y-84259523D01*
X133725595Y-84164285D01*
X133773214Y-83973809D01*
X133773214Y-83830952D01*
X133725595Y-83640476D01*
X133677976Y-83545238D01*
X133582738Y-83450000D01*
X133439880Y-83402380D01*
X133344642Y-83402380D01*
X133201785Y-83450000D01*
X133154166Y-83497619D01*
X132773214Y-83497619D02*
X132725595Y-83450000D01*
X132630357Y-83402380D01*
X132392261Y-83402380D01*
X132297023Y-83450000D01*
X132249404Y-83497619D01*
X132201785Y-83592857D01*
X132201785Y-83688095D01*
X132249404Y-83830952D01*
X132820833Y-84402380D01*
X132201785Y-84402380D01*
X130116666Y-76457142D02*
X130164285Y-76504761D01*
X130307142Y-76552380D01*
X130402380Y-76552380D01*
X130545238Y-76504761D01*
X130640476Y-76409523D01*
X130688095Y-76314285D01*
X130735714Y-76123809D01*
X130735714Y-75980952D01*
X130688095Y-75790476D01*
X130640476Y-75695238D01*
X130545238Y-75600000D01*
X130402380Y-75552380D01*
X130307142Y-75552380D01*
X130164285Y-75600000D01*
X130116666Y-75647619D01*
X129783333Y-75552380D02*
X129164285Y-75552380D01*
X129497619Y-75933333D01*
X129354761Y-75933333D01*
X129259523Y-75980952D01*
X129211904Y-76028571D01*
X129164285Y-76123809D01*
X129164285Y-76361904D01*
X129211904Y-76457142D01*
X129259523Y-76504761D01*
X129354761Y-76552380D01*
X129640476Y-76552380D01*
X129735714Y-76504761D01*
X129783333Y-76457142D01*
X116113230Y-83901760D02*
X116113230Y-83969103D01*
X116180574Y-84103790D01*
X116247918Y-84171134D01*
X116382605Y-84238477D01*
X116517292Y-84238477D01*
X116618307Y-84204806D01*
X116786666Y-84103790D01*
X116887681Y-84002775D01*
X116988696Y-83834416D01*
X117022368Y-83733401D01*
X117022368Y-83598714D01*
X116955024Y-83464027D01*
X116887681Y-83396683D01*
X116752994Y-83329340D01*
X116685650Y-83329340D01*
X115911200Y-82891607D02*
X115439795Y-83363012D01*
X116348933Y-82790592D02*
X116012215Y-83464027D01*
X115574482Y-83026294D01*
X133020389Y-66034687D02*
X133087732Y-66034687D01*
X133222419Y-65967343D01*
X133289763Y-65900000D01*
X133357106Y-65765312D01*
X133357106Y-65630625D01*
X133323435Y-65529610D01*
X133222419Y-65361251D01*
X133121404Y-65260236D01*
X132953045Y-65159221D01*
X132852030Y-65125549D01*
X132717343Y-65125549D01*
X132582656Y-65192893D01*
X132515312Y-65260236D01*
X132447969Y-65394923D01*
X132447969Y-65462267D01*
X131774534Y-66001015D02*
X131909221Y-65866328D01*
X132010236Y-65832656D01*
X132077580Y-65832656D01*
X132245938Y-65866328D01*
X132414297Y-65967343D01*
X132683671Y-66236717D01*
X132717343Y-66337732D01*
X132717343Y-66405076D01*
X132683671Y-66506091D01*
X132548984Y-66640778D01*
X132447969Y-66674450D01*
X132380625Y-66674450D01*
X132279610Y-66640778D01*
X132111251Y-66472419D01*
X132077580Y-66371404D01*
X132077580Y-66304061D01*
X132111251Y-66203045D01*
X132245938Y-66068358D01*
X132346954Y-66034687D01*
X132414297Y-66034687D01*
X132515312Y-66068358D01*
X131720389Y-64584687D02*
X131787732Y-64584687D01*
X131922419Y-64517343D01*
X131989763Y-64450000D01*
X132057106Y-64315312D01*
X132057106Y-64180625D01*
X132023435Y-64079610D01*
X131922419Y-63911251D01*
X131821404Y-63810236D01*
X131653045Y-63709221D01*
X131552030Y-63675549D01*
X131417343Y-63675549D01*
X131282656Y-63742893D01*
X131215312Y-63810236D01*
X131147969Y-63944923D01*
X131147969Y-64012267D01*
X130979610Y-64652030D02*
X131013282Y-64551015D01*
X131013282Y-64483671D01*
X130979610Y-64382656D01*
X130945938Y-64348984D01*
X130844923Y-64315312D01*
X130777580Y-64315312D01*
X130676564Y-64348984D01*
X130541877Y-64483671D01*
X130508206Y-64584687D01*
X130508206Y-64652030D01*
X130541877Y-64753045D01*
X130575549Y-64786717D01*
X130676564Y-64820389D01*
X130743908Y-64820389D01*
X130844923Y-64786717D01*
X130979610Y-64652030D01*
X131080625Y-64618358D01*
X131147969Y-64618358D01*
X131248984Y-64652030D01*
X131383671Y-64786717D01*
X131417343Y-64887732D01*
X131417343Y-64955076D01*
X131383671Y-65056091D01*
X131248984Y-65190778D01*
X131147969Y-65224450D01*
X131080625Y-65224450D01*
X130979610Y-65190778D01*
X130844923Y-65056091D01*
X130811251Y-64955076D01*
X130811251Y-64887732D01*
X130844923Y-64786717D01*
X123620389Y-62184687D02*
X123687732Y-62184687D01*
X123822419Y-62117343D01*
X123889763Y-62050000D01*
X123957106Y-61915312D01*
X123957106Y-61780625D01*
X123923435Y-61679610D01*
X123822419Y-61511251D01*
X123721404Y-61410236D01*
X123553045Y-61309221D01*
X123452030Y-61275549D01*
X123317343Y-61275549D01*
X123182656Y-61342893D01*
X123115312Y-61410236D01*
X123047969Y-61544923D01*
X123047969Y-61612267D01*
X123351015Y-62588748D02*
X123216328Y-62723435D01*
X123115312Y-62757106D01*
X123047969Y-62757106D01*
X122879610Y-62723435D01*
X122711251Y-62622419D01*
X122441877Y-62353045D01*
X122408206Y-62252030D01*
X122408206Y-62184687D01*
X122441877Y-62083671D01*
X122576564Y-61948984D01*
X122677580Y-61915312D01*
X122744923Y-61915312D01*
X122845938Y-61948984D01*
X123014297Y-62117343D01*
X123047969Y-62218358D01*
X123047969Y-62285702D01*
X123014297Y-62386717D01*
X122879610Y-62521404D01*
X122778595Y-62555076D01*
X122711251Y-62555076D01*
X122610236Y-62521404D01*
X128987732Y-62002030D02*
X128886717Y-61429610D01*
X129391793Y-61597969D02*
X128684687Y-60890862D01*
X128415312Y-61160236D01*
X128381641Y-61261251D01*
X128381641Y-61328595D01*
X128415312Y-61429610D01*
X128516328Y-61530625D01*
X128617343Y-61564297D01*
X128684687Y-61564297D01*
X128785702Y-61530625D01*
X129055076Y-61261251D01*
X128314297Y-62675465D02*
X128718358Y-62271404D01*
X128516328Y-62473435D02*
X127809221Y-61766328D01*
X127977580Y-61800000D01*
X128112267Y-61800000D01*
X128213282Y-61766328D01*
X130387732Y-63302030D02*
X130286717Y-62729610D01*
X130791793Y-62897969D02*
X130084687Y-62190862D01*
X129815312Y-62460236D01*
X129781641Y-62561251D01*
X129781641Y-62628595D01*
X129815312Y-62729610D01*
X129916328Y-62830625D01*
X130017343Y-62864297D01*
X130084687Y-62864297D01*
X130185702Y-62830625D01*
X130455076Y-62561251D01*
X129478595Y-62931641D02*
X129411251Y-62931641D01*
X129310236Y-62965312D01*
X129141877Y-63133671D01*
X129108206Y-63234687D01*
X129108206Y-63302030D01*
X129141877Y-63403045D01*
X129209221Y-63470389D01*
X129343908Y-63537732D01*
X130152030Y-63537732D01*
X129714297Y-63975465D01*
X120651522Y-73474026D02*
X121223942Y-74046446D01*
X121257614Y-74147461D01*
X121257614Y-74214805D01*
X121223942Y-74315820D01*
X121089255Y-74450507D01*
X120988240Y-74484179D01*
X120920896Y-74484179D01*
X120819881Y-74450507D01*
X120247461Y-73878087D01*
X120247461Y-75292301D02*
X120651522Y-74888240D01*
X120449492Y-75090270D02*
X119742385Y-74383164D01*
X119910744Y-74416835D01*
X120045431Y-74416835D01*
X120146446Y-74383164D01*
X118952030Y-61757106D02*
X118952030Y-61824450D01*
X119019374Y-61959137D01*
X119086717Y-62026480D01*
X119221404Y-62093824D01*
X119356091Y-62093824D01*
X119457106Y-62060152D01*
X119625465Y-61959137D01*
X119726480Y-61858122D01*
X119827496Y-61689763D01*
X119861167Y-61588748D01*
X119861167Y-61454061D01*
X119793824Y-61319374D01*
X119726480Y-61252030D01*
X119591793Y-61184687D01*
X119524450Y-61184687D01*
X118211251Y-61151015D02*
X118615312Y-61555076D01*
X118413282Y-61353045D02*
X119120389Y-60645938D01*
X119086717Y-60814297D01*
X119086717Y-60948984D01*
X119120389Y-61050000D01*
X117537816Y-60477580D02*
X117941877Y-60881641D01*
X117739847Y-60679610D02*
X118446954Y-59972503D01*
X118413282Y-60140862D01*
X118413282Y-60275549D01*
X118446954Y-60376564D01*
X5542857Y-16157142D02*
X5590476Y-16204761D01*
X5733333Y-16252380D01*
X5828571Y-16252380D01*
X5971428Y-16204761D01*
X6066666Y-16109523D01*
X6114285Y-16014285D01*
X6161904Y-15823809D01*
X6161904Y-15680952D01*
X6114285Y-15490476D01*
X6066666Y-15395238D01*
X5971428Y-15300000D01*
X5828571Y-15252380D01*
X5733333Y-15252380D01*
X5590476Y-15300000D01*
X5542857Y-15347619D01*
X4590476Y-16252380D02*
X5161904Y-16252380D01*
X4876190Y-16252380D02*
X4876190Y-15252380D01*
X4971428Y-15395238D01*
X5066666Y-15490476D01*
X5161904Y-15538095D01*
X3971428Y-15252380D02*
X3876190Y-15252380D01*
X3780952Y-15300000D01*
X3733333Y-15347619D01*
X3685714Y-15442857D01*
X3638095Y-15633333D01*
X3638095Y-15871428D01*
X3685714Y-16061904D01*
X3733333Y-16157142D01*
X3780952Y-16204761D01*
X3876190Y-16252380D01*
X3971428Y-16252380D01*
X4066666Y-16204761D01*
X4114285Y-16157142D01*
X4161904Y-16061904D01*
X4209523Y-15871428D01*
X4209523Y-15633333D01*
X4161904Y-15442857D01*
X4114285Y-15347619D01*
X4066666Y-15300000D01*
X3971428Y-15252380D01*
X3883333Y-8628571D02*
X4216666Y-8628571D01*
X4216666Y-9152380D02*
X4216666Y-8152380D01*
X3740476Y-8152380D01*
X2835714Y-9152380D02*
X3407142Y-9152380D01*
X3121428Y-9152380D02*
X3121428Y-8152380D01*
X3216666Y-8295238D01*
X3311904Y-8390476D01*
X3407142Y-8438095D01*
X2483333Y-11628571D02*
X2816666Y-11628571D01*
X2816666Y-12152380D02*
X2816666Y-11152380D01*
X2340476Y-11152380D01*
X1626190Y-11628571D02*
X1483333Y-11676190D01*
X1435714Y-11723809D01*
X1388095Y-11819047D01*
X1388095Y-11961904D01*
X1435714Y-12057142D01*
X1483333Y-12104761D01*
X1578571Y-12152380D01*
X1959523Y-12152380D01*
X1959523Y-11152380D01*
X1626190Y-11152380D01*
X1530952Y-11200000D01*
X1483333Y-11247619D01*
X1435714Y-11342857D01*
X1435714Y-11438095D01*
X1483333Y-11533333D01*
X1530952Y-11580952D01*
X1626190Y-11628571D01*
X1959523Y-11628571D01*
X435714Y-12152380D02*
X1007142Y-12152380D01*
X721428Y-12152380D02*
X721428Y-11152380D01*
X816666Y-11295238D01*
X911904Y-11390476D01*
X1007142Y-11438095D01*
X133766666Y-72652380D02*
X134100000Y-72176190D01*
X134338095Y-72652380D02*
X134338095Y-71652380D01*
X133957142Y-71652380D01*
X133861904Y-71700000D01*
X133814285Y-71747619D01*
X133766666Y-71842857D01*
X133766666Y-71985714D01*
X133814285Y-72080952D01*
X133861904Y-72128571D01*
X133957142Y-72176190D01*
X134338095Y-72176190D01*
X132909523Y-71652380D02*
X133100000Y-71652380D01*
X133195238Y-71700000D01*
X133242857Y-71747619D01*
X133338095Y-71890476D01*
X133385714Y-72080952D01*
X133385714Y-72461904D01*
X133338095Y-72557142D01*
X133290476Y-72604761D01*
X133195238Y-72652380D01*
X133004761Y-72652380D01*
X132909523Y-72604761D01*
X132861904Y-72557142D01*
X132814285Y-72461904D01*
X132814285Y-72223809D01*
X132861904Y-72128571D01*
X132909523Y-72080952D01*
X133004761Y-72033333D01*
X133195238Y-72033333D01*
X133290476Y-72080952D01*
X133338095Y-72128571D01*
X133385714Y-72223809D01*
X23702380Y-37083333D02*
X23226190Y-36750000D01*
X23702380Y-36511904D02*
X22702380Y-36511904D01*
X22702380Y-36892857D01*
X22750000Y-36988095D01*
X22797619Y-37035714D01*
X22892857Y-37083333D01*
X23035714Y-37083333D01*
X23130952Y-37035714D01*
X23178571Y-36988095D01*
X23226190Y-36892857D01*
X23226190Y-36511904D01*
X22702380Y-37416666D02*
X22702380Y-38083333D01*
X23702380Y-37654761D01*
X12186904Y-12302380D02*
X12186904Y-13111904D01*
X12139285Y-13207142D01*
X12091666Y-13254761D01*
X11996428Y-13302380D01*
X11805952Y-13302380D01*
X11710714Y-13254761D01*
X11663095Y-13207142D01*
X11615476Y-13111904D01*
X11615476Y-12302380D01*
X11186904Y-12397619D02*
X11139285Y-12350000D01*
X11044047Y-12302380D01*
X10805952Y-12302380D01*
X10710714Y-12350000D01*
X10663095Y-12397619D01*
X10615476Y-12492857D01*
X10615476Y-12588095D01*
X10663095Y-12730952D01*
X11234523Y-13302380D01*
X10615476Y-13302380D01*
X9277380Y-12983333D02*
X8801190Y-12650000D01*
X9277380Y-12411904D02*
X8277380Y-12411904D01*
X8277380Y-12792857D01*
X8325000Y-12888095D01*
X8372619Y-12935714D01*
X8467857Y-12983333D01*
X8610714Y-12983333D01*
X8705952Y-12935714D01*
X8753571Y-12888095D01*
X8801190Y-12792857D01*
X8801190Y-12411904D01*
X8277380Y-13316666D02*
X8277380Y-13935714D01*
X8658333Y-13602380D01*
X8658333Y-13745238D01*
X8705952Y-13840476D01*
X8753571Y-13888095D01*
X8848809Y-13935714D01*
X9086904Y-13935714D01*
X9182142Y-13888095D01*
X9229761Y-13840476D01*
X9277380Y-13745238D01*
X9277380Y-13459523D01*
X9229761Y-13364285D01*
X9182142Y-13316666D01*
X17302380Y-5333333D02*
X16826190Y-5000000D01*
X17302380Y-4761904D02*
X16302380Y-4761904D01*
X16302380Y-5142857D01*
X16350000Y-5238095D01*
X16397619Y-5285714D01*
X16492857Y-5333333D01*
X16635714Y-5333333D01*
X16730952Y-5285714D01*
X16778571Y-5238095D01*
X16826190Y-5142857D01*
X16826190Y-4761904D01*
X16635714Y-6190476D02*
X17302380Y-6190476D01*
X16254761Y-5952380D02*
X16969047Y-5714285D01*
X16969047Y-6333333D01*
X124602380Y-80990476D02*
X125602380Y-81657142D01*
X124602380Y-81657142D02*
X125602380Y-80990476D01*
X125602380Y-82561904D02*
X125602380Y-81990476D01*
X125602380Y-82276190D02*
X124602380Y-82276190D01*
X124745238Y-82180952D01*
X124840476Y-82085714D01*
X124888095Y-81990476D01*
D10*
X11408333Y-1177380D02*
X11408333Y-1891666D01*
X11455952Y-2034523D01*
X11551190Y-2129761D01*
X11694047Y-2177380D01*
X11789285Y-2177380D01*
X10408333Y-2177380D02*
X10979761Y-2177380D01*
X10694047Y-2177380D02*
X10694047Y-1177380D01*
X10789285Y-1320238D01*
X10884523Y-1415476D01*
X10979761Y-1463095D01*
D11*
X3258333Y-1878571D02*
X3591666Y-1878571D01*
X3591666Y-2402380D02*
X3591666Y-1402380D01*
X3115476Y-1402380D01*
X2401190Y-1878571D02*
X2258333Y-1926190D01*
X2210714Y-1973809D01*
X2163095Y-2069047D01*
X2163095Y-2211904D01*
X2210714Y-2307142D01*
X2258333Y-2354761D01*
X2353571Y-2402380D01*
X2734523Y-2402380D01*
X2734523Y-1402380D01*
X2401190Y-1402380D01*
X2305952Y-1450000D01*
X2258333Y-1497619D01*
X2210714Y-1592857D01*
X2210714Y-1688095D01*
X2258333Y-1783333D01*
X2305952Y-1830952D01*
X2401190Y-1878571D01*
X2734523Y-1878571D01*
X1782142Y-1497619D02*
X1734523Y-1450000D01*
X1639285Y-1402380D01*
X1401190Y-1402380D01*
X1305952Y-1450000D01*
X1258333Y-1497619D01*
X1210714Y-1592857D01*
X1210714Y-1688095D01*
X1258333Y-1830952D01*
X1829761Y-2402380D01*
X1210714Y-2402380D01*
M02*
