G04 #@! TF.GenerationSoftware,KiCad,Pcbnew,(5.1.8)-1*
G04 #@! TF.CreationDate,2021-03-20T07:11:13-07:00*
G04 #@! TF.ProjectId,Spritzgeback,53707269-747a-4676-9562-61636b2e6b69,rev?*
G04 #@! TF.SameCoordinates,Original*
G04 #@! TF.FileFunction,Profile,NP*
%FSLAX46Y46*%
G04 Gerber Fmt 4.6, Leading zero omitted, Abs format (unit mm)*
G04 Created by KiCad (PCBNEW (5.1.8)-1) date 2021-03-20 07:11:13*
%MOMM*%
%LPD*%
G01*
G04 APERTURE LIST*
G04 #@! TA.AperFunction,Profile*
%ADD10C,0.050000*%
G04 #@! TD*
G04 APERTURE END LIST*
D10*
X141321804Y1825458D02*
G75*
G02*
X137678001Y1824999I-1821804J-775458D01*
G01*
X83709581Y-85724017D02*
G75*
G02*
X87350000Y-85725000I1820419J774017D01*
G01*
X191649581Y-85724017D02*
G75*
G02*
X195290000Y-85725000I1820419J774017D01*
G01*
X141322000Y1825000D02*
X287850000Y1825000D01*
X195290000Y-85725000D02*
X287850000Y-85725000D01*
X87350000Y-85725000D02*
X191650000Y-85725000D01*
X289850000Y-74780000D02*
X289850000Y-83725000D01*
X289850000Y-13580000D02*
X289850000Y-70820000D01*
X-10850000Y-83725000D02*
X-10850000Y-74780000D01*
X-10850000Y-70820000D02*
X-10850000Y-13580000D01*
X-10850000Y-74780000D02*
G75*
G03*
X-10850000Y-70820000I0J1980000D01*
G01*
X-10850000Y-13580000D02*
G75*
G03*
X-10850000Y-9620000I0J1980000D01*
G01*
X289850000Y-74780000D02*
G75*
G02*
X289850000Y-70820000I0J1980000D01*
G01*
X289850000Y-13580000D02*
G75*
G02*
X289850000Y-9620000I0J1980000D01*
G01*
X-10850000Y-83725000D02*
G75*
G03*
X-8850000Y-85725000I2000000J0D01*
G01*
X287850000Y-85725000D02*
G75*
G03*
X289850000Y-83725000I0J2000000D01*
G01*
X289850000Y-175000D02*
G75*
G03*
X287850000Y1825000I-2000000J0D01*
G01*
X-10850000Y-175000D02*
G75*
G02*
X-8850000Y1825000I2000000J0D01*
G01*
X-10850000Y-9620000D02*
X-10850000Y-175000D01*
X83710000Y-85725000D02*
X-8850000Y-85725000D01*
X289850000Y-175000D02*
X289850000Y-9620000D01*
X-8850000Y1825000D02*
X137678000Y1825000D01*
M02*
