G04 #@! TF.GenerationSoftware,KiCad,Pcbnew,(5.1.8)-1*
G04 #@! TF.CreationDate,2021-03-20T07:11:13-07:00*
G04 #@! TF.ProjectId,Spritzgeback,53707269-747a-4676-9562-61636b2e6b69,rev?*
G04 #@! TF.SameCoordinates,Original*
G04 #@! TF.FileFunction,Soldermask,Top*
G04 #@! TF.FilePolarity,Negative*
%FSLAX46Y46*%
G04 Gerber Fmt 4.6, Leading zero omitted, Abs format (unit mm)*
G04 Created by KiCad (PCBNEW (5.1.8)-1) date 2021-03-20 07:11:13*
%MOMM*%
%LPD*%
G01*
G04 APERTURE LIST*
%ADD10C,4.562400*%
%ADD11C,2.032000*%
%ADD12C,5.000000*%
%ADD13C,1.701800*%
%ADD14C,0.700000*%
%ADD15O,1.050000X2.100000*%
G04 APERTURE END LIST*
D10*
X37500000Y-54900000D03*
X223500000Y-54900000D03*
D11*
X5000000Y-3050000D03*
X0Y-14100000D03*
X-5000000Y-12000000D03*
D12*
X0Y-8200000D03*
D13*
X5500000Y-8200000D03*
X-5500000Y-8200000D03*
D11*
X27500000Y-3050000D03*
X22500000Y-14100000D03*
X17500000Y-12000000D03*
D12*
X22500000Y-8200000D03*
D13*
X28000000Y-8200000D03*
X17000000Y-8200000D03*
D11*
X45500000Y-3050000D03*
X40500000Y-14100000D03*
X35500000Y-12000000D03*
D12*
X40500000Y-8200000D03*
D13*
X46000000Y-8200000D03*
X35000000Y-8200000D03*
D11*
X63500000Y-3050000D03*
X58500000Y-14100000D03*
X53500000Y-12000000D03*
D12*
X58500000Y-8200000D03*
D13*
X64000000Y-8200000D03*
X53000000Y-8200000D03*
D11*
X81500000Y-3050000D03*
X76500000Y-14100000D03*
X71500000Y-12000000D03*
D12*
X76500000Y-8200000D03*
D13*
X82000000Y-8200000D03*
X71000000Y-8200000D03*
D11*
X99500000Y-3050000D03*
X94500000Y-14100000D03*
X89500000Y-12000000D03*
D12*
X94500000Y-8200000D03*
D13*
X100000000Y-8200000D03*
X89000000Y-8200000D03*
D11*
X117500000Y-3050000D03*
X112500000Y-14100000D03*
X107500000Y-12000000D03*
D12*
X112500000Y-8200000D03*
D13*
X118000000Y-8200000D03*
X107000000Y-8200000D03*
D11*
X135500000Y-3050000D03*
X130500000Y-14100000D03*
X125500000Y-12000000D03*
D12*
X130500000Y-8200000D03*
D13*
X136000000Y-8200000D03*
X125000000Y-8200000D03*
D11*
X153500000Y-3050000D03*
X148500000Y-14100000D03*
X143500000Y-12000000D03*
D12*
X148500000Y-8200000D03*
D13*
X154000000Y-8200000D03*
X143000000Y-8200000D03*
D11*
X171500000Y-3050000D03*
X166500000Y-14100000D03*
X161500000Y-12000000D03*
D12*
X166500000Y-8200000D03*
D13*
X172000000Y-8200000D03*
X161000000Y-8200000D03*
D11*
X189500000Y-3050000D03*
X184500000Y-14100000D03*
X179500000Y-12000000D03*
D12*
X184500000Y-8200000D03*
D13*
X190000000Y-8200000D03*
X179000000Y-8200000D03*
D11*
X207500000Y-3050000D03*
X202500000Y-14100000D03*
X197500000Y-12000000D03*
D12*
X202500000Y-8200000D03*
D13*
X208000000Y-8200000D03*
X197000000Y-8200000D03*
D11*
X225500000Y-3050000D03*
X220500000Y-14100000D03*
X215500000Y-12000000D03*
D12*
X220500000Y-8200000D03*
D13*
X226000000Y-8200000D03*
X215000000Y-8200000D03*
D11*
X243500000Y-3050000D03*
X238500000Y-14100000D03*
X233500000Y-12000000D03*
D12*
X238500000Y-8200000D03*
D13*
X244000000Y-8200000D03*
X233000000Y-8200000D03*
D11*
X266000000Y-3050000D03*
X261000000Y-14100000D03*
X256000000Y-12000000D03*
D12*
X261000000Y-8200000D03*
D13*
X266500000Y-8200000D03*
X255500000Y-8200000D03*
D11*
X284000000Y-3050000D03*
X279000000Y-14100000D03*
X274000000Y-12000000D03*
D12*
X279000000Y-8200000D03*
D13*
X284500000Y-8200000D03*
X273500000Y-8200000D03*
D11*
X5000000Y-20050000D03*
X0Y-31100000D03*
X-5000000Y-29000000D03*
D12*
X0Y-25200000D03*
D13*
X5500000Y-25200000D03*
X-5500000Y-25200000D03*
D11*
X27500000Y-20050000D03*
X22500000Y-31100000D03*
X17500000Y-29000000D03*
D12*
X22500000Y-25200000D03*
D13*
X28000000Y-25200000D03*
X17000000Y-25200000D03*
D11*
X45500000Y-20050000D03*
X40500000Y-31100000D03*
X35500000Y-29000000D03*
D12*
X40500000Y-25200000D03*
D13*
X46000000Y-25200000D03*
X35000000Y-25200000D03*
D11*
X63500000Y-20050000D03*
X58500000Y-31100000D03*
X53500000Y-29000000D03*
D12*
X58500000Y-25200000D03*
D13*
X64000000Y-25200000D03*
X53000000Y-25200000D03*
D11*
X81500000Y-20050000D03*
X76500000Y-31100000D03*
X71500000Y-29000000D03*
D12*
X76500000Y-25200000D03*
D13*
X82000000Y-25200000D03*
X71000000Y-25200000D03*
D11*
X99500000Y-20050000D03*
X94500000Y-31100000D03*
X89500000Y-29000000D03*
D12*
X94500000Y-25200000D03*
D13*
X100000000Y-25200000D03*
X89000000Y-25200000D03*
D11*
X117500000Y-20050000D03*
X112500000Y-31100000D03*
X107500000Y-29000000D03*
D12*
X112500000Y-25200000D03*
D13*
X118000000Y-25200000D03*
X107000000Y-25200000D03*
D11*
X135500000Y-20050000D03*
X130500000Y-31100000D03*
X125500000Y-29000000D03*
D12*
X130500000Y-25200000D03*
D13*
X136000000Y-25200000D03*
X125000000Y-25200000D03*
D11*
X153500000Y-20050000D03*
X148500000Y-31100000D03*
X143500000Y-29000000D03*
D12*
X148500000Y-25200000D03*
D13*
X154000000Y-25200000D03*
X143000000Y-25200000D03*
D11*
X171500000Y-20050000D03*
X166500000Y-31100000D03*
X161500000Y-29000000D03*
D12*
X166500000Y-25200000D03*
D13*
X172000000Y-25200000D03*
X161000000Y-25200000D03*
D11*
X189500000Y-20050000D03*
X184500000Y-31100000D03*
X179500000Y-29000000D03*
D12*
X184500000Y-25200000D03*
D13*
X190000000Y-25200000D03*
X179000000Y-25200000D03*
D11*
X207500000Y-20050000D03*
X202500000Y-31100000D03*
X197500000Y-29000000D03*
D12*
X202500000Y-25200000D03*
D13*
X208000000Y-25200000D03*
X197000000Y-25200000D03*
D11*
X225500000Y-20050000D03*
X220500000Y-31100000D03*
X215500000Y-29000000D03*
D12*
X220500000Y-25200000D03*
D13*
X226000000Y-25200000D03*
X215000000Y-25200000D03*
D11*
X243500000Y-20050000D03*
X238500000Y-31100000D03*
X233500000Y-29000000D03*
D12*
X238500000Y-25200000D03*
D13*
X244000000Y-25200000D03*
X233000000Y-25200000D03*
D11*
X266000000Y-20050000D03*
X261000000Y-31100000D03*
X256000000Y-29000000D03*
D12*
X261000000Y-25200000D03*
D13*
X266500000Y-25200000D03*
X255500000Y-25200000D03*
D11*
X284000000Y-20050000D03*
X279000000Y-31100000D03*
X274000000Y-29000000D03*
D12*
X279000000Y-25200000D03*
D13*
X284500000Y-25200000D03*
X273500000Y-25200000D03*
D11*
X5000000Y-37050000D03*
X0Y-48100000D03*
X-5000000Y-46000000D03*
D12*
X0Y-42200000D03*
D13*
X5500000Y-42200000D03*
X-5500000Y-42200000D03*
D11*
X27500000Y-37050000D03*
X22500000Y-48100000D03*
X17500000Y-46000000D03*
D12*
X22500000Y-42200000D03*
D13*
X28000000Y-42200000D03*
X17000000Y-42200000D03*
D11*
X45500000Y-37050000D03*
X40500000Y-48100000D03*
X35500000Y-46000000D03*
D12*
X40500000Y-42200000D03*
D13*
X46000000Y-42200000D03*
X35000000Y-42200000D03*
D11*
X63500000Y-37050000D03*
X58500000Y-48100000D03*
X53500000Y-46000000D03*
D12*
X58500000Y-42200000D03*
D13*
X64000000Y-42200000D03*
X53000000Y-42200000D03*
D11*
X81500000Y-37050000D03*
X76500000Y-48100000D03*
X71500000Y-46000000D03*
D12*
X76500000Y-42200000D03*
D13*
X82000000Y-42200000D03*
X71000000Y-42200000D03*
D11*
X99500000Y-37050000D03*
X94500000Y-48100000D03*
X89500000Y-46000000D03*
D12*
X94500000Y-42200000D03*
D13*
X100000000Y-42200000D03*
X89000000Y-42200000D03*
D11*
X117500000Y-37050000D03*
X112500000Y-48100000D03*
X107500000Y-46000000D03*
D12*
X112500000Y-42200000D03*
D13*
X118000000Y-42200000D03*
X107000000Y-42200000D03*
D11*
X135500000Y-37050000D03*
X130500000Y-48100000D03*
X125500000Y-46000000D03*
D12*
X130500000Y-42200000D03*
D13*
X136000000Y-42200000D03*
X125000000Y-42200000D03*
D11*
X153500000Y-37050000D03*
X148500000Y-48100000D03*
X143500000Y-46000000D03*
D12*
X148500000Y-42200000D03*
D13*
X154000000Y-42200000D03*
X143000000Y-42200000D03*
D11*
X171500000Y-37050000D03*
X166500000Y-48100000D03*
X161500000Y-46000000D03*
D12*
X166500000Y-42200000D03*
D13*
X172000000Y-42200000D03*
X161000000Y-42200000D03*
D11*
X189500000Y-37050000D03*
X184500000Y-48100000D03*
X179500000Y-46000000D03*
D12*
X184500000Y-42200000D03*
D13*
X190000000Y-42200000D03*
X179000000Y-42200000D03*
D11*
X207500000Y-37050000D03*
X202500000Y-48100000D03*
X197500000Y-46000000D03*
D12*
X202500000Y-42200000D03*
D13*
X208000000Y-42200000D03*
X197000000Y-42200000D03*
D11*
X225500000Y-37050000D03*
X220500000Y-48100000D03*
X215500000Y-46000000D03*
D12*
X220500000Y-42200000D03*
D13*
X226000000Y-42200000D03*
X215000000Y-42200000D03*
D11*
X243500000Y-37050000D03*
X238500000Y-48100000D03*
X233500000Y-46000000D03*
D12*
X238500000Y-42200000D03*
D13*
X244000000Y-42200000D03*
X233000000Y-42200000D03*
D11*
X5000000Y-54050000D03*
X0Y-65100000D03*
X-5000000Y-63000000D03*
D12*
X0Y-59200000D03*
D13*
X5500000Y-59200000D03*
X-5500000Y-59200000D03*
D11*
X32000000Y-54050000D03*
X27000000Y-65100000D03*
X22000000Y-63000000D03*
D12*
X27000000Y-59200000D03*
D13*
X32500000Y-59200000D03*
X21500000Y-59200000D03*
D11*
X54500000Y-54050000D03*
X49500000Y-65100000D03*
X44500000Y-63000000D03*
D12*
X49500000Y-59200000D03*
D13*
X55000000Y-59200000D03*
X44000000Y-59200000D03*
D11*
X72500000Y-54050000D03*
X67500000Y-65100000D03*
X62500000Y-63000000D03*
D12*
X67500000Y-59200000D03*
D13*
X73000000Y-59200000D03*
X62000000Y-59200000D03*
D11*
X90500000Y-54050000D03*
X85500000Y-65100000D03*
X80500000Y-63000000D03*
D12*
X85500000Y-59200000D03*
D13*
X91000000Y-59200000D03*
X80000000Y-59200000D03*
D11*
X108500000Y-54050000D03*
X103500000Y-65100000D03*
X98500000Y-63000000D03*
D12*
X103500000Y-59200000D03*
D13*
X109000000Y-59200000D03*
X98000000Y-59200000D03*
D11*
X126500000Y-54050000D03*
X121500000Y-65100000D03*
X116500000Y-63000000D03*
D12*
X121500000Y-59200000D03*
D13*
X127000000Y-59200000D03*
X116000000Y-59200000D03*
D11*
X144500000Y-54050000D03*
X139500000Y-65100000D03*
X134500000Y-63000000D03*
D12*
X139500000Y-59200000D03*
D13*
X145000000Y-59200000D03*
X134000000Y-59200000D03*
D11*
X162500000Y-54050000D03*
X157500000Y-65100000D03*
X152500000Y-63000000D03*
D12*
X157500000Y-59200000D03*
D13*
X163000000Y-59200000D03*
X152000000Y-59200000D03*
D11*
X180500000Y-54050000D03*
X175500000Y-65100000D03*
X170500000Y-63000000D03*
D12*
X175500000Y-59200000D03*
D13*
X181000000Y-59200000D03*
X170000000Y-59200000D03*
D11*
X198500000Y-54050000D03*
X193500000Y-65100000D03*
X188500000Y-63000000D03*
D12*
X193500000Y-59200000D03*
D13*
X199000000Y-59200000D03*
X188000000Y-59200000D03*
D11*
X216500000Y-54050000D03*
X211500000Y-65100000D03*
X206500000Y-63000000D03*
D12*
X211500000Y-59200000D03*
D13*
X217000000Y-59200000D03*
X206000000Y-59200000D03*
D11*
X239000000Y-54050000D03*
X234000000Y-65100000D03*
X229000000Y-63000000D03*
D12*
X234000000Y-59200000D03*
D13*
X239500000Y-59200000D03*
X228500000Y-59200000D03*
D11*
X266000000Y-54050000D03*
X261000000Y-65100000D03*
X256000000Y-63000000D03*
D12*
X261000000Y-59200000D03*
D13*
X266500000Y-59200000D03*
X255500000Y-59200000D03*
D11*
X5000000Y-71050000D03*
X0Y-82100000D03*
X-5000000Y-80000000D03*
D12*
X0Y-76200000D03*
D13*
X5500000Y-76200000D03*
X-5500000Y-76200000D03*
D11*
X27500000Y-71050000D03*
X22500000Y-82100000D03*
X17500000Y-80000000D03*
D12*
X22500000Y-76200000D03*
D13*
X28000000Y-76200000D03*
X17000000Y-76200000D03*
D11*
X45500000Y-71050000D03*
X40500000Y-82100000D03*
X35500000Y-80000000D03*
D12*
X40500000Y-76200000D03*
D13*
X46000000Y-76200000D03*
X35000000Y-76200000D03*
D11*
X63500000Y-71050000D03*
X58500000Y-82100000D03*
X53500000Y-80000000D03*
D12*
X58500000Y-76200000D03*
D13*
X64000000Y-76200000D03*
X53000000Y-76200000D03*
D11*
X81500000Y-71050000D03*
X76500000Y-82100000D03*
X71500000Y-80000000D03*
D12*
X76500000Y-76200000D03*
D13*
X82000000Y-76200000D03*
X71000000Y-76200000D03*
D11*
X110000000Y-71050000D03*
X105000000Y-82100000D03*
X100000000Y-80000000D03*
D12*
X105000000Y-76200000D03*
D13*
X110500000Y-76200000D03*
X99500000Y-76200000D03*
D11*
X143000000Y-71050000D03*
X138000000Y-82100000D03*
X133000000Y-80000000D03*
D12*
X138000000Y-76200000D03*
D13*
X143500000Y-76200000D03*
X132500000Y-76200000D03*
D11*
X171500000Y-71050000D03*
X166500000Y-82100000D03*
X161500000Y-80000000D03*
D12*
X166500000Y-76200000D03*
D13*
X172000000Y-76200000D03*
X161000000Y-76200000D03*
D11*
X189500000Y-71050000D03*
X184500000Y-82100000D03*
X179500000Y-80000000D03*
D12*
X184500000Y-76200000D03*
D13*
X190000000Y-76200000D03*
X179000000Y-76200000D03*
D11*
X207500000Y-71050000D03*
X202500000Y-82100000D03*
X197500000Y-80000000D03*
D12*
X202500000Y-76200000D03*
D13*
X208000000Y-76200000D03*
X197000000Y-76200000D03*
D11*
X225500000Y-71050000D03*
X220500000Y-82100000D03*
X215500000Y-80000000D03*
D12*
X220500000Y-76200000D03*
D13*
X226000000Y-76200000D03*
X215000000Y-76200000D03*
D11*
X248000000Y-71050000D03*
X243000000Y-82100000D03*
X238000000Y-80000000D03*
D12*
X243000000Y-76200000D03*
D13*
X248500000Y-76200000D03*
X237500000Y-76200000D03*
D11*
X266000000Y-71050000D03*
X261000000Y-82100000D03*
X256000000Y-80000000D03*
D12*
X261000000Y-76200000D03*
D13*
X266500000Y-76200000D03*
X255500000Y-76200000D03*
D11*
X284000000Y-71050000D03*
X279000000Y-82100000D03*
X274000000Y-80000000D03*
D12*
X279000000Y-76200000D03*
D13*
X284500000Y-76200000D03*
X273500000Y-76200000D03*
D11*
X241250000Y-54050000D03*
X236250000Y-65100000D03*
X231250000Y-63000000D03*
D12*
X236250000Y-59200000D03*
D13*
X241750000Y-59200000D03*
X230750000Y-59200000D03*
D11*
X29750000Y-54050000D03*
X24750000Y-65100000D03*
X19750000Y-63000000D03*
D12*
X24750000Y-59200000D03*
D13*
X30250000Y-59200000D03*
X19250000Y-59200000D03*
D11*
X7250000Y-71050000D03*
X2250000Y-82100000D03*
X-2750000Y-80000000D03*
D12*
X2250000Y-76200000D03*
D13*
X7750000Y-76200000D03*
X-3250000Y-76200000D03*
D11*
X227750000Y-71050000D03*
X222750000Y-82100000D03*
X217750000Y-80000000D03*
D12*
X222750000Y-76200000D03*
D13*
X228250000Y-76200000D03*
X217250000Y-76200000D03*
D11*
X146650000Y-70500000D03*
X146650000Y-74500000D03*
G36*
G01*
X21075000Y-37956250D02*
X21075000Y-37043750D01*
G75*
G02*
X21318750Y-36800000I243750J0D01*
G01*
X21806250Y-36800000D01*
G75*
G02*
X22050000Y-37043750I0J-243750D01*
G01*
X22050000Y-37956250D01*
G75*
G02*
X21806250Y-38200000I-243750J0D01*
G01*
X21318750Y-38200000D01*
G75*
G02*
X21075000Y-37956250I0J243750D01*
G01*
G37*
G36*
G01*
X22950000Y-37956250D02*
X22950000Y-37043750D01*
G75*
G02*
X23193750Y-36800000I243750J0D01*
G01*
X23681250Y-36800000D01*
G75*
G02*
X23925000Y-37043750I0J-243750D01*
G01*
X23925000Y-37956250D01*
G75*
G02*
X23681250Y-38200000I-243750J0D01*
G01*
X23193750Y-38200000D01*
G75*
G02*
X22950000Y-37956250I0J243750D01*
G01*
G37*
D14*
X14115000Y-3975000D03*
X8335000Y-3975000D03*
D15*
X15545000Y-325000D03*
X6905000Y-325000D03*
X15545000Y-4505000D03*
X6905000Y-4505000D03*
M02*
