G04 #@! TF.GenerationSoftware,KiCad,Pcbnew,(5.1.8)-1*
G04 #@! TF.CreationDate,2021-03-20T07:11:13-07:00*
G04 #@! TF.ProjectId,Spritzgeback,53707269-747a-4676-9562-61636b2e6b69,rev?*
G04 #@! TF.SameCoordinates,Original*
G04 #@! TF.FileFunction,Soldermask,Bot*
G04 #@! TF.FilePolarity,Negative*
%FSLAX46Y46*%
G04 Gerber Fmt 4.6, Leading zero omitted, Abs format (unit mm)*
G04 Created by KiCad (PCBNEW (5.1.8)-1) date 2021-03-20 07:11:13*
%MOMM*%
%LPD*%
G01*
G04 APERTURE LIST*
%ADD10C,4.562400*%
%ADD11C,2.032000*%
%ADD12C,5.000000*%
%ADD13C,1.701800*%
%ADD14R,1.200000X0.900000*%
%ADD15C,0.100000*%
%ADD16R,0.900000X1.200000*%
%ADD17R,0.650000X1.060000*%
%ADD18R,1.200000X1.400000*%
%ADD19C,0.700000*%
%ADD20O,1.050000X2.100000*%
%ADD21R,0.600000X1.450000*%
%ADD22R,0.300000X1.450000*%
G04 APERTURE END LIST*
D10*
X37500000Y-54900000D03*
X223500000Y-54900000D03*
D11*
X5000000Y-3050000D03*
X0Y-14100000D03*
X-5000000Y-12000000D03*
D12*
X0Y-8200000D03*
D13*
X5500000Y-8200000D03*
X-5500000Y-8200000D03*
D11*
X27500000Y-3050000D03*
X22500000Y-14100000D03*
X17500000Y-12000000D03*
D12*
X22500000Y-8200000D03*
D13*
X28000000Y-8200000D03*
X17000000Y-8200000D03*
D11*
X45500000Y-3050000D03*
X40500000Y-14100000D03*
X35500000Y-12000000D03*
D12*
X40500000Y-8200000D03*
D13*
X46000000Y-8200000D03*
X35000000Y-8200000D03*
D11*
X63500000Y-3050000D03*
X58500000Y-14100000D03*
X53500000Y-12000000D03*
D12*
X58500000Y-8200000D03*
D13*
X64000000Y-8200000D03*
X53000000Y-8200000D03*
D11*
X81500000Y-3050000D03*
X76500000Y-14100000D03*
X71500000Y-12000000D03*
D12*
X76500000Y-8200000D03*
D13*
X82000000Y-8200000D03*
X71000000Y-8200000D03*
D11*
X99500000Y-3050000D03*
X94500000Y-14100000D03*
X89500000Y-12000000D03*
D12*
X94500000Y-8200000D03*
D13*
X100000000Y-8200000D03*
X89000000Y-8200000D03*
D11*
X117500000Y-3050000D03*
X112500000Y-14100000D03*
X107500000Y-12000000D03*
D12*
X112500000Y-8200000D03*
D13*
X118000000Y-8200000D03*
X107000000Y-8200000D03*
D11*
X135500000Y-3050000D03*
X130500000Y-14100000D03*
X125500000Y-12000000D03*
D12*
X130500000Y-8200000D03*
D13*
X136000000Y-8200000D03*
X125000000Y-8200000D03*
D11*
X153500000Y-3050000D03*
X148500000Y-14100000D03*
X143500000Y-12000000D03*
D12*
X148500000Y-8200000D03*
D13*
X154000000Y-8200000D03*
X143000000Y-8200000D03*
D11*
X171500000Y-3050000D03*
X166500000Y-14100000D03*
X161500000Y-12000000D03*
D12*
X166500000Y-8200000D03*
D13*
X172000000Y-8200000D03*
X161000000Y-8200000D03*
D11*
X189500000Y-3050000D03*
X184500000Y-14100000D03*
X179500000Y-12000000D03*
D12*
X184500000Y-8200000D03*
D13*
X190000000Y-8200000D03*
X179000000Y-8200000D03*
D11*
X207500000Y-3050000D03*
X202500000Y-14100000D03*
X197500000Y-12000000D03*
D12*
X202500000Y-8200000D03*
D13*
X208000000Y-8200000D03*
X197000000Y-8200000D03*
D11*
X225500000Y-3050000D03*
X220500000Y-14100000D03*
X215500000Y-12000000D03*
D12*
X220500000Y-8200000D03*
D13*
X226000000Y-8200000D03*
X215000000Y-8200000D03*
D11*
X243500000Y-3050000D03*
X238500000Y-14100000D03*
X233500000Y-12000000D03*
D12*
X238500000Y-8200000D03*
D13*
X244000000Y-8200000D03*
X233000000Y-8200000D03*
D11*
X266000000Y-3050000D03*
X261000000Y-14100000D03*
X256000000Y-12000000D03*
D12*
X261000000Y-8200000D03*
D13*
X266500000Y-8200000D03*
X255500000Y-8200000D03*
D11*
X284000000Y-3050000D03*
X279000000Y-14100000D03*
X274000000Y-12000000D03*
D12*
X279000000Y-8200000D03*
D13*
X284500000Y-8200000D03*
X273500000Y-8200000D03*
D11*
X5000000Y-20050000D03*
X0Y-31100000D03*
X-5000000Y-29000000D03*
D12*
X0Y-25200000D03*
D13*
X5500000Y-25200000D03*
X-5500000Y-25200000D03*
D11*
X27500000Y-20050000D03*
X22500000Y-31100000D03*
X17500000Y-29000000D03*
D12*
X22500000Y-25200000D03*
D13*
X28000000Y-25200000D03*
X17000000Y-25200000D03*
D11*
X45500000Y-20050000D03*
X40500000Y-31100000D03*
X35500000Y-29000000D03*
D12*
X40500000Y-25200000D03*
D13*
X46000000Y-25200000D03*
X35000000Y-25200000D03*
D11*
X63500000Y-20050000D03*
X58500000Y-31100000D03*
X53500000Y-29000000D03*
D12*
X58500000Y-25200000D03*
D13*
X64000000Y-25200000D03*
X53000000Y-25200000D03*
D11*
X81500000Y-20050000D03*
X76500000Y-31100000D03*
X71500000Y-29000000D03*
D12*
X76500000Y-25200000D03*
D13*
X82000000Y-25200000D03*
X71000000Y-25200000D03*
D11*
X99500000Y-20050000D03*
X94500000Y-31100000D03*
X89500000Y-29000000D03*
D12*
X94500000Y-25200000D03*
D13*
X100000000Y-25200000D03*
X89000000Y-25200000D03*
D11*
X117500000Y-20050000D03*
X112500000Y-31100000D03*
X107500000Y-29000000D03*
D12*
X112500000Y-25200000D03*
D13*
X118000000Y-25200000D03*
X107000000Y-25200000D03*
D11*
X135500000Y-20050000D03*
X130500000Y-31100000D03*
X125500000Y-29000000D03*
D12*
X130500000Y-25200000D03*
D13*
X136000000Y-25200000D03*
X125000000Y-25200000D03*
D11*
X153500000Y-20050000D03*
X148500000Y-31100000D03*
X143500000Y-29000000D03*
D12*
X148500000Y-25200000D03*
D13*
X154000000Y-25200000D03*
X143000000Y-25200000D03*
D11*
X171500000Y-20050000D03*
X166500000Y-31100000D03*
X161500000Y-29000000D03*
D12*
X166500000Y-25200000D03*
D13*
X172000000Y-25200000D03*
X161000000Y-25200000D03*
D11*
X189500000Y-20050000D03*
X184500000Y-31100000D03*
X179500000Y-29000000D03*
D12*
X184500000Y-25200000D03*
D13*
X190000000Y-25200000D03*
X179000000Y-25200000D03*
D11*
X207500000Y-20050000D03*
X202500000Y-31100000D03*
X197500000Y-29000000D03*
D12*
X202500000Y-25200000D03*
D13*
X208000000Y-25200000D03*
X197000000Y-25200000D03*
D11*
X225500000Y-20050000D03*
X220500000Y-31100000D03*
X215500000Y-29000000D03*
D12*
X220500000Y-25200000D03*
D13*
X226000000Y-25200000D03*
X215000000Y-25200000D03*
D11*
X243500000Y-20050000D03*
X238500000Y-31100000D03*
X233500000Y-29000000D03*
D12*
X238500000Y-25200000D03*
D13*
X244000000Y-25200000D03*
X233000000Y-25200000D03*
D11*
X266000000Y-20050000D03*
X261000000Y-31100000D03*
X256000000Y-29000000D03*
D12*
X261000000Y-25200000D03*
D13*
X266500000Y-25200000D03*
X255500000Y-25200000D03*
D11*
X284000000Y-20050000D03*
X279000000Y-31100000D03*
X274000000Y-29000000D03*
D12*
X279000000Y-25200000D03*
D13*
X284500000Y-25200000D03*
X273500000Y-25200000D03*
D11*
X5000000Y-37050000D03*
X0Y-48100000D03*
X-5000000Y-46000000D03*
D12*
X0Y-42200000D03*
D13*
X5500000Y-42200000D03*
X-5500000Y-42200000D03*
D11*
X27500000Y-37050000D03*
X22500000Y-48100000D03*
X17500000Y-46000000D03*
D12*
X22500000Y-42200000D03*
D13*
X28000000Y-42200000D03*
X17000000Y-42200000D03*
D11*
X45500000Y-37050000D03*
X40500000Y-48100000D03*
X35500000Y-46000000D03*
D12*
X40500000Y-42200000D03*
D13*
X46000000Y-42200000D03*
X35000000Y-42200000D03*
D11*
X63500000Y-37050000D03*
X58500000Y-48100000D03*
X53500000Y-46000000D03*
D12*
X58500000Y-42200000D03*
D13*
X64000000Y-42200000D03*
X53000000Y-42200000D03*
D11*
X81500000Y-37050000D03*
X76500000Y-48100000D03*
X71500000Y-46000000D03*
D12*
X76500000Y-42200000D03*
D13*
X82000000Y-42200000D03*
X71000000Y-42200000D03*
D11*
X99500000Y-37050000D03*
X94500000Y-48100000D03*
X89500000Y-46000000D03*
D12*
X94500000Y-42200000D03*
D13*
X100000000Y-42200000D03*
X89000000Y-42200000D03*
D11*
X117500000Y-37050000D03*
X112500000Y-48100000D03*
X107500000Y-46000000D03*
D12*
X112500000Y-42200000D03*
D13*
X118000000Y-42200000D03*
X107000000Y-42200000D03*
D11*
X135500000Y-37050000D03*
X130500000Y-48100000D03*
X125500000Y-46000000D03*
D12*
X130500000Y-42200000D03*
D13*
X136000000Y-42200000D03*
X125000000Y-42200000D03*
D11*
X153500000Y-37050000D03*
X148500000Y-48100000D03*
X143500000Y-46000000D03*
D12*
X148500000Y-42200000D03*
D13*
X154000000Y-42200000D03*
X143000000Y-42200000D03*
D11*
X171500000Y-37050000D03*
X166500000Y-48100000D03*
X161500000Y-46000000D03*
D12*
X166500000Y-42200000D03*
D13*
X172000000Y-42200000D03*
X161000000Y-42200000D03*
D11*
X189500000Y-37050000D03*
X184500000Y-48100000D03*
X179500000Y-46000000D03*
D12*
X184500000Y-42200000D03*
D13*
X190000000Y-42200000D03*
X179000000Y-42200000D03*
D11*
X207500000Y-37050000D03*
X202500000Y-48100000D03*
X197500000Y-46000000D03*
D12*
X202500000Y-42200000D03*
D13*
X208000000Y-42200000D03*
X197000000Y-42200000D03*
D11*
X225500000Y-37050000D03*
X220500000Y-48100000D03*
X215500000Y-46000000D03*
D12*
X220500000Y-42200000D03*
D13*
X226000000Y-42200000D03*
X215000000Y-42200000D03*
D11*
X243500000Y-37050000D03*
X238500000Y-48100000D03*
X233500000Y-46000000D03*
D12*
X238500000Y-42200000D03*
D13*
X244000000Y-42200000D03*
X233000000Y-42200000D03*
D11*
X5000000Y-54050000D03*
X0Y-65100000D03*
X-5000000Y-63000000D03*
D12*
X0Y-59200000D03*
D13*
X5500000Y-59200000D03*
X-5500000Y-59200000D03*
D11*
X32000000Y-54050000D03*
X27000000Y-65100000D03*
X22000000Y-63000000D03*
D12*
X27000000Y-59200000D03*
D13*
X32500000Y-59200000D03*
X21500000Y-59200000D03*
D11*
X54500000Y-54050000D03*
X49500000Y-65100000D03*
X44500000Y-63000000D03*
D12*
X49500000Y-59200000D03*
D13*
X55000000Y-59200000D03*
X44000000Y-59200000D03*
D11*
X72500000Y-54050000D03*
X67500000Y-65100000D03*
X62500000Y-63000000D03*
D12*
X67500000Y-59200000D03*
D13*
X73000000Y-59200000D03*
X62000000Y-59200000D03*
D11*
X90500000Y-54050000D03*
X85500000Y-65100000D03*
X80500000Y-63000000D03*
D12*
X85500000Y-59200000D03*
D13*
X91000000Y-59200000D03*
X80000000Y-59200000D03*
D11*
X108500000Y-54050000D03*
X103500000Y-65100000D03*
X98500000Y-63000000D03*
D12*
X103500000Y-59200000D03*
D13*
X109000000Y-59200000D03*
X98000000Y-59200000D03*
D11*
X126500000Y-54050000D03*
X121500000Y-65100000D03*
X116500000Y-63000000D03*
D12*
X121500000Y-59200000D03*
D13*
X127000000Y-59200000D03*
X116000000Y-59200000D03*
D11*
X144500000Y-54050000D03*
X139500000Y-65100000D03*
X134500000Y-63000000D03*
D12*
X139500000Y-59200000D03*
D13*
X145000000Y-59200000D03*
X134000000Y-59200000D03*
D11*
X162500000Y-54050000D03*
X157500000Y-65100000D03*
X152500000Y-63000000D03*
D12*
X157500000Y-59200000D03*
D13*
X163000000Y-59200000D03*
X152000000Y-59200000D03*
D11*
X180500000Y-54050000D03*
X175500000Y-65100000D03*
X170500000Y-63000000D03*
D12*
X175500000Y-59200000D03*
D13*
X181000000Y-59200000D03*
X170000000Y-59200000D03*
D11*
X198500000Y-54050000D03*
X193500000Y-65100000D03*
X188500000Y-63000000D03*
D12*
X193500000Y-59200000D03*
D13*
X199000000Y-59200000D03*
X188000000Y-59200000D03*
D11*
X216500000Y-54050000D03*
X211500000Y-65100000D03*
X206500000Y-63000000D03*
D12*
X211500000Y-59200000D03*
D13*
X217000000Y-59200000D03*
X206000000Y-59200000D03*
D11*
X239000000Y-54050000D03*
X234000000Y-65100000D03*
X229000000Y-63000000D03*
D12*
X234000000Y-59200000D03*
D13*
X239500000Y-59200000D03*
X228500000Y-59200000D03*
D11*
X266000000Y-54050000D03*
X261000000Y-65100000D03*
X256000000Y-63000000D03*
D12*
X261000000Y-59200000D03*
D13*
X266500000Y-59200000D03*
X255500000Y-59200000D03*
D11*
X5000000Y-71050000D03*
X0Y-82100000D03*
X-5000000Y-80000000D03*
D12*
X0Y-76200000D03*
D13*
X5500000Y-76200000D03*
X-5500000Y-76200000D03*
D11*
X27500000Y-71050000D03*
X22500000Y-82100000D03*
X17500000Y-80000000D03*
D12*
X22500000Y-76200000D03*
D13*
X28000000Y-76200000D03*
X17000000Y-76200000D03*
D11*
X45500000Y-71050000D03*
X40500000Y-82100000D03*
X35500000Y-80000000D03*
D12*
X40500000Y-76200000D03*
D13*
X46000000Y-76200000D03*
X35000000Y-76200000D03*
D11*
X63500000Y-71050000D03*
X58500000Y-82100000D03*
X53500000Y-80000000D03*
D12*
X58500000Y-76200000D03*
D13*
X64000000Y-76200000D03*
X53000000Y-76200000D03*
D11*
X81500000Y-71050000D03*
X76500000Y-82100000D03*
X71500000Y-80000000D03*
D12*
X76500000Y-76200000D03*
D13*
X82000000Y-76200000D03*
X71000000Y-76200000D03*
D11*
X110000000Y-71050000D03*
X105000000Y-82100000D03*
X100000000Y-80000000D03*
D12*
X105000000Y-76200000D03*
D13*
X110500000Y-76200000D03*
X99500000Y-76200000D03*
D11*
X143000000Y-71050000D03*
X138000000Y-82100000D03*
X133000000Y-80000000D03*
D12*
X138000000Y-76200000D03*
D13*
X143500000Y-76200000D03*
X132500000Y-76200000D03*
D11*
X171500000Y-71050000D03*
X166500000Y-82100000D03*
X161500000Y-80000000D03*
D12*
X166500000Y-76200000D03*
D13*
X172000000Y-76200000D03*
X161000000Y-76200000D03*
D11*
X189500000Y-71050000D03*
X184500000Y-82100000D03*
X179500000Y-80000000D03*
D12*
X184500000Y-76200000D03*
D13*
X190000000Y-76200000D03*
X179000000Y-76200000D03*
D11*
X207500000Y-71050000D03*
X202500000Y-82100000D03*
X197500000Y-80000000D03*
D12*
X202500000Y-76200000D03*
D13*
X208000000Y-76200000D03*
X197000000Y-76200000D03*
D11*
X225500000Y-71050000D03*
X220500000Y-82100000D03*
X215500000Y-80000000D03*
D12*
X220500000Y-76200000D03*
D13*
X226000000Y-76200000D03*
X215000000Y-76200000D03*
D11*
X248000000Y-71050000D03*
X243000000Y-82100000D03*
X238000000Y-80000000D03*
D12*
X243000000Y-76200000D03*
D13*
X248500000Y-76200000D03*
X237500000Y-76200000D03*
D11*
X266000000Y-71050000D03*
X261000000Y-82100000D03*
X256000000Y-80000000D03*
D12*
X261000000Y-76200000D03*
D13*
X266500000Y-76200000D03*
X255500000Y-76200000D03*
D11*
X284000000Y-71050000D03*
X279000000Y-82100000D03*
X274000000Y-80000000D03*
D12*
X279000000Y-76200000D03*
D13*
X284500000Y-76200000D03*
X273500000Y-76200000D03*
D11*
X241250000Y-54050000D03*
X236250000Y-65100000D03*
X231250000Y-63000000D03*
D12*
X236250000Y-59200000D03*
D13*
X241750000Y-59200000D03*
X230750000Y-59200000D03*
D11*
X29750000Y-54050000D03*
X24750000Y-65100000D03*
X19750000Y-63000000D03*
D12*
X24750000Y-59200000D03*
D13*
X30250000Y-59200000D03*
X19250000Y-59200000D03*
D11*
X7250000Y-71050000D03*
X2250000Y-82100000D03*
X-2750000Y-80000000D03*
D12*
X2250000Y-76200000D03*
D13*
X7750000Y-76200000D03*
X-3250000Y-76200000D03*
D11*
X227750000Y-71050000D03*
X222750000Y-82100000D03*
X217750000Y-80000000D03*
D12*
X222750000Y-76200000D03*
D13*
X228250000Y-76200000D03*
X217250000Y-76200000D03*
D14*
X133650000Y-45000000D03*
X133650000Y-48300000D03*
D15*
G36*
X-1227208Y-12525736D02*
G01*
X-2075736Y-11677208D01*
X-1439340Y-11040812D01*
X-590812Y-11889340D01*
X-1227208Y-12525736D01*
G37*
G36*
X-3560660Y-14859188D02*
G01*
X-4409188Y-14010660D01*
X-3772792Y-13374264D01*
X-2924264Y-14222792D01*
X-3560660Y-14859188D01*
G37*
D14*
X25650000Y-11000000D03*
X25650000Y-14300000D03*
X43650000Y-11000000D03*
X43650000Y-14300000D03*
X61650000Y-11000000D03*
X61650000Y-14300000D03*
X79650000Y-11000000D03*
X79650000Y-14300000D03*
X97650000Y-11000000D03*
X97650000Y-14300000D03*
X115650000Y-11000000D03*
X115650000Y-14300000D03*
X133650000Y-11000000D03*
X133650000Y-14300000D03*
X151650000Y-11000000D03*
X151650000Y-14300000D03*
X169650000Y-11000000D03*
X169650000Y-14300000D03*
X187650000Y-11000000D03*
X187650000Y-14300000D03*
X205650000Y-11000000D03*
X205650000Y-14300000D03*
X223650000Y-11000000D03*
X223650000Y-14300000D03*
X241650000Y-11000000D03*
X241650000Y-14300000D03*
X282150000Y-11000000D03*
X282150000Y-14300000D03*
X3150000Y-28000000D03*
X3150000Y-31300000D03*
X25650000Y-28000000D03*
X25650000Y-31300000D03*
X43650000Y-28000000D03*
X43650000Y-31300000D03*
X61650000Y-28000000D03*
X61650000Y-31300000D03*
X79650000Y-28000000D03*
X79650000Y-31300000D03*
X97650000Y-28000000D03*
X97650000Y-31300000D03*
X115650000Y-28000000D03*
X115650000Y-31300000D03*
X133650000Y-28000000D03*
X133650000Y-31300000D03*
X151650000Y-28000000D03*
X151650000Y-31300000D03*
X169650000Y-28000000D03*
X169650000Y-31300000D03*
X187650000Y-28000000D03*
X187650000Y-31300000D03*
X205650000Y-28000000D03*
X205650000Y-31300000D03*
X223650000Y-28000000D03*
X223650000Y-31300000D03*
X241650000Y-28000000D03*
X241650000Y-31300000D03*
X264150000Y-11000000D03*
X264150000Y-14300000D03*
X3150000Y-45000000D03*
X3150000Y-48300000D03*
X25650000Y-45000000D03*
X25650000Y-48300000D03*
X43650000Y-45000000D03*
X43650000Y-48300000D03*
X61650000Y-45000000D03*
X61650000Y-48300000D03*
X79650000Y-45000000D03*
X79650000Y-48300000D03*
X97650000Y-45000000D03*
X97650000Y-48300000D03*
X115650000Y-45000000D03*
X115650000Y-48300000D03*
X151650000Y-45000000D03*
X151650000Y-48300000D03*
X169650000Y-45000000D03*
X169650000Y-48300000D03*
X187650000Y-45000000D03*
X187650000Y-48300000D03*
X205650000Y-45000000D03*
X205650000Y-48300000D03*
X223650000Y-45000000D03*
X223650000Y-48300000D03*
X241650000Y-45000000D03*
X241650000Y-48300000D03*
X264150000Y-28000000D03*
X264150000Y-31300000D03*
X3150000Y-62000000D03*
X3150000Y-65300000D03*
X30150000Y-62000000D03*
X30150000Y-65300000D03*
X52650000Y-62000000D03*
X52650000Y-65300000D03*
X70650000Y-62000000D03*
X70650000Y-65300000D03*
X88650000Y-62000000D03*
X88650000Y-65300000D03*
X106650000Y-65300000D03*
X106650000Y-62000000D03*
X116400000Y-53700000D03*
X116400000Y-57000000D03*
X142650000Y-65300000D03*
X142650000Y-62000000D03*
X160650000Y-62000000D03*
X160650000Y-65300000D03*
X178650000Y-62000000D03*
X178650000Y-65300000D03*
X196650000Y-62000000D03*
X196650000Y-65300000D03*
X214650000Y-62000000D03*
X214650000Y-65300000D03*
X239400000Y-62000000D03*
X239400000Y-65300000D03*
X25650000Y-79000000D03*
X25650000Y-82300000D03*
X43650000Y-79000000D03*
X43650000Y-82300000D03*
X61650000Y-79000000D03*
X61650000Y-82300000D03*
D16*
X110250000Y-81900000D03*
X106950000Y-81900000D03*
D15*
G36*
X142860660Y-78140812D02*
G01*
X143709188Y-78989340D01*
X143072792Y-79625736D01*
X142224264Y-78777208D01*
X142860660Y-78140812D01*
G37*
G36*
X140527208Y-80474264D02*
G01*
X141375736Y-81322792D01*
X140739340Y-81959188D01*
X139890812Y-81110660D01*
X140527208Y-80474264D01*
G37*
D14*
X187650000Y-79000000D03*
X187650000Y-82300000D03*
X205650000Y-79000000D03*
X205650000Y-82300000D03*
X225900000Y-79000000D03*
X225900000Y-82300000D03*
X246150000Y-79000000D03*
X246150000Y-82300000D03*
X282150000Y-79000000D03*
X282150000Y-82300000D03*
X5531250Y-79000000D03*
X5531250Y-82300000D03*
X79650000Y-79000000D03*
X79650000Y-82300000D03*
X264150000Y-62000000D03*
X264150000Y-65300000D03*
X264150000Y-79000000D03*
X264150000Y-82300000D03*
X282150000Y-28000000D03*
X282150000Y-31300000D03*
X169650000Y-79000000D03*
X169650000Y-82300000D03*
G36*
G01*
X105500001Y-72650000D02*
X104599999Y-72650000D01*
G75*
G02*
X104350000Y-72400001I0J249999D01*
G01*
X104350000Y-71699999D01*
G75*
G02*
X104599999Y-71450000I249999J0D01*
G01*
X105500001Y-71450000D01*
G75*
G02*
X105750000Y-71699999I0J-249999D01*
G01*
X105750000Y-72400001D01*
G75*
G02*
X105500001Y-72650000I-249999J0D01*
G01*
G37*
G36*
G01*
X105500001Y-70650000D02*
X104599999Y-70650000D01*
G75*
G02*
X104350000Y-70400001I0J249999D01*
G01*
X104350000Y-69699999D01*
G75*
G02*
X104599999Y-69450000I249999J0D01*
G01*
X105500001Y-69450000D01*
G75*
G02*
X105750000Y-69699999I0J-249999D01*
G01*
X105750000Y-70400001D01*
G75*
G02*
X105500001Y-70650000I-249999J0D01*
G01*
G37*
D11*
X146650000Y-70500000D03*
X146650000Y-74500000D03*
G36*
G01*
X106525000Y-69425000D02*
X107475000Y-69425000D01*
G75*
G02*
X107725000Y-69675000I0J-250000D01*
G01*
X107725000Y-70350000D01*
G75*
G02*
X107475000Y-70600000I-250000J0D01*
G01*
X106525000Y-70600000D01*
G75*
G02*
X106275000Y-70350000I0J250000D01*
G01*
X106275000Y-69675000D01*
G75*
G02*
X106525000Y-69425000I250000J0D01*
G01*
G37*
G36*
G01*
X106525000Y-71500000D02*
X107475000Y-71500000D01*
G75*
G02*
X107725000Y-71750000I0J-250000D01*
G01*
X107725000Y-72425000D01*
G75*
G02*
X107475000Y-72675000I-250000J0D01*
G01*
X106525000Y-72675000D01*
G75*
G02*
X106275000Y-72425000I0J250000D01*
G01*
X106275000Y-71750000D01*
G75*
G02*
X106525000Y-71500000I250000J0D01*
G01*
G37*
G36*
G01*
X116000000Y-64675000D02*
X116000000Y-65625000D01*
G75*
G02*
X115750000Y-65875000I-250000J0D01*
G01*
X115075000Y-65875000D01*
G75*
G02*
X114825000Y-65625000I0J250000D01*
G01*
X114825000Y-64675000D01*
G75*
G02*
X115075000Y-64425000I250000J0D01*
G01*
X115750000Y-64425000D01*
G75*
G02*
X116000000Y-64675000I0J-250000D01*
G01*
G37*
G36*
G01*
X118075000Y-64675000D02*
X118075000Y-65625000D01*
G75*
G02*
X117825000Y-65875000I-250000J0D01*
G01*
X117150000Y-65875000D01*
G75*
G02*
X116900000Y-65625000I0J250000D01*
G01*
X116900000Y-64675000D01*
G75*
G02*
X117150000Y-64425000I250000J0D01*
G01*
X117825000Y-64425000D01*
G75*
G02*
X118075000Y-64675000I0J-250000D01*
G01*
G37*
G36*
G01*
X136834924Y-79813173D02*
X136163173Y-80484924D01*
G75*
G02*
X135809619Y-80484924I-176777J176777D01*
G01*
X135332322Y-80007627D01*
G75*
G02*
X135332322Y-79654073I176777J176777D01*
G01*
X136004073Y-78982322D01*
G75*
G02*
X136357627Y-78982322I176777J-176777D01*
G01*
X136834924Y-79459619D01*
G75*
G02*
X136834924Y-79813173I-176777J-176777D01*
G01*
G37*
G36*
G01*
X135367678Y-78345927D02*
X134695927Y-79017678D01*
G75*
G02*
X134342373Y-79017678I-176777J176777D01*
G01*
X133865076Y-78540381D01*
G75*
G02*
X133865076Y-78186827I176777J176777D01*
G01*
X134536827Y-77515076D01*
G75*
G02*
X134890381Y-77515076I176777J-176777D01*
G01*
X135367678Y-77992373D01*
G75*
G02*
X135367678Y-78345927I-176777J-176777D01*
G01*
G37*
G36*
G01*
X134575000Y-81825000D02*
X134575000Y-82775000D01*
G75*
G02*
X134325000Y-83025000I-250000J0D01*
G01*
X133650000Y-83025000D01*
G75*
G02*
X133400000Y-82775000I0J250000D01*
G01*
X133400000Y-81825000D01*
G75*
G02*
X133650000Y-81575000I250000J0D01*
G01*
X134325000Y-81575000D01*
G75*
G02*
X134575000Y-81825000I0J-250000D01*
G01*
G37*
G36*
G01*
X132500000Y-81825000D02*
X132500000Y-82775000D01*
G75*
G02*
X132250000Y-83025000I-250000J0D01*
G01*
X131575000Y-83025000D01*
G75*
G02*
X131325000Y-82775000I0J250000D01*
G01*
X131325000Y-81825000D01*
G75*
G02*
X131575000Y-81575000I250000J0D01*
G01*
X132250000Y-81575000D01*
G75*
G02*
X132500000Y-81825000I0J-250000D01*
G01*
G37*
G36*
G01*
X128275000Y-78125000D02*
X128275000Y-77175000D01*
G75*
G02*
X128525000Y-76925000I250000J0D01*
G01*
X129200000Y-76925000D01*
G75*
G02*
X129450000Y-77175000I0J-250000D01*
G01*
X129450000Y-78125000D01*
G75*
G02*
X129200000Y-78375000I-250000J0D01*
G01*
X128525000Y-78375000D01*
G75*
G02*
X128275000Y-78125000I0J250000D01*
G01*
G37*
G36*
G01*
X130350000Y-78125000D02*
X130350000Y-77175000D01*
G75*
G02*
X130600000Y-76925000I250000J0D01*
G01*
X131275000Y-76925000D01*
G75*
G02*
X131525000Y-77175000I0J-250000D01*
G01*
X131525000Y-78125000D01*
G75*
G02*
X131275000Y-78375000I-250000J0D01*
G01*
X130600000Y-78375000D01*
G75*
G02*
X130350000Y-78125000I0J250000D01*
G01*
G37*
G36*
G01*
X115965076Y-81586827D02*
X116636827Y-80915076D01*
G75*
G02*
X116990381Y-80915076I176777J-176777D01*
G01*
X117467678Y-81392373D01*
G75*
G02*
X117467678Y-81745927I-176777J-176777D01*
G01*
X116795927Y-82417678D01*
G75*
G02*
X116442373Y-82417678I-176777J176777D01*
G01*
X115965076Y-81940381D01*
G75*
G02*
X115965076Y-81586827I176777J176777D01*
G01*
G37*
G36*
G01*
X117432322Y-83054073D02*
X118104073Y-82382322D01*
G75*
G02*
X118457627Y-82382322I176777J-176777D01*
G01*
X118934924Y-82859619D01*
G75*
G02*
X118934924Y-83213173I-176777J-176777D01*
G01*
X118263173Y-83884924D01*
G75*
G02*
X117909619Y-83884924I-176777J176777D01*
G01*
X117432322Y-83407627D01*
G75*
G02*
X117432322Y-83054073I176777J176777D01*
G01*
G37*
G36*
G01*
X130504073Y-68667678D02*
X129832322Y-67995927D01*
G75*
G02*
X129832322Y-67642373I176777J176777D01*
G01*
X130309619Y-67165076D01*
G75*
G02*
X130663173Y-67165076I176777J-176777D01*
G01*
X131334924Y-67836827D01*
G75*
G02*
X131334924Y-68190381I-176777J-176777D01*
G01*
X130857627Y-68667678D01*
G75*
G02*
X130504073Y-68667678I-176777J176777D01*
G01*
G37*
G36*
G01*
X129036827Y-70134924D02*
X128365076Y-69463173D01*
G75*
G02*
X128365076Y-69109619I176777J176777D01*
G01*
X128842373Y-68632322D01*
G75*
G02*
X129195927Y-68632322I176777J-176777D01*
G01*
X129867678Y-69304073D01*
G75*
G02*
X129867678Y-69657627I-176777J-176777D01*
G01*
X129390381Y-70134924D01*
G75*
G02*
X129036827Y-70134924I-176777J176777D01*
G01*
G37*
G36*
G01*
X127636827Y-68734924D02*
X126965076Y-68063173D01*
G75*
G02*
X126965076Y-67709619I176777J176777D01*
G01*
X127442373Y-67232322D01*
G75*
G02*
X127795927Y-67232322I176777J-176777D01*
G01*
X128467678Y-67904073D01*
G75*
G02*
X128467678Y-68257627I-176777J-176777D01*
G01*
X127990381Y-68734924D01*
G75*
G02*
X127636827Y-68734924I-176777J176777D01*
G01*
G37*
G36*
G01*
X129104073Y-67267678D02*
X128432322Y-66595927D01*
G75*
G02*
X128432322Y-66242373I176777J176777D01*
G01*
X128909619Y-65765076D01*
G75*
G02*
X129263173Y-65765076I176777J-176777D01*
G01*
X129934924Y-66436827D01*
G75*
G02*
X129934924Y-66790381I-176777J-176777D01*
G01*
X129457627Y-67267678D01*
G75*
G02*
X129104073Y-67267678I-176777J176777D01*
G01*
G37*
G36*
G01*
X123536827Y-64634924D02*
X122865076Y-63963173D01*
G75*
G02*
X122865076Y-63609619I176777J176777D01*
G01*
X123342373Y-63132322D01*
G75*
G02*
X123695927Y-63132322I176777J-176777D01*
G01*
X124367678Y-63804073D01*
G75*
G02*
X124367678Y-64157627I-176777J-176777D01*
G01*
X123890381Y-64634924D01*
G75*
G02*
X123536827Y-64634924I-176777J176777D01*
G01*
G37*
G36*
G01*
X125004073Y-63167678D02*
X124332322Y-62495927D01*
G75*
G02*
X124332322Y-62142373I176777J176777D01*
G01*
X124809619Y-61665076D01*
G75*
G02*
X125163173Y-61665076I176777J-176777D01*
G01*
X125834924Y-62336827D01*
G75*
G02*
X125834924Y-62690381I-176777J-176777D01*
G01*
X125357627Y-63167678D01*
G75*
G02*
X125004073Y-63167678I-176777J176777D01*
G01*
G37*
G36*
G01*
X126351042Y-64535356D02*
X125714644Y-63898958D01*
G75*
G02*
X125714644Y-63545406I176776J176776D01*
G01*
X126209620Y-63050430D01*
G75*
G02*
X126563172Y-63050430I176776J-176776D01*
G01*
X127199570Y-63686828D01*
G75*
G02*
X127199570Y-64040380I-176776J-176776D01*
G01*
X126704594Y-64535356D01*
G75*
G02*
X126351042Y-64535356I-176776J176776D01*
G01*
G37*
G36*
G01*
X124936828Y-65949570D02*
X124300430Y-65313172D01*
G75*
G02*
X124300430Y-64959620I176776J176776D01*
G01*
X124795406Y-64464644D01*
G75*
G02*
X125148958Y-64464644I176776J-176776D01*
G01*
X125785356Y-65101042D01*
G75*
G02*
X125785356Y-65454594I-176776J-176776D01*
G01*
X125290380Y-65949570D01*
G75*
G02*
X124936828Y-65949570I-176776J176776D01*
G01*
G37*
G36*
G01*
X127701042Y-65885356D02*
X127064644Y-65248958D01*
G75*
G02*
X127064644Y-64895406I176776J176776D01*
G01*
X127559620Y-64400430D01*
G75*
G02*
X127913172Y-64400430I176776J-176776D01*
G01*
X128549570Y-65036828D01*
G75*
G02*
X128549570Y-65390380I-176776J-176776D01*
G01*
X128054594Y-65885356D01*
G75*
G02*
X127701042Y-65885356I-176776J176776D01*
G01*
G37*
G36*
G01*
X126286828Y-67299570D02*
X125650430Y-66663172D01*
G75*
G02*
X125650430Y-66309620I176776J176776D01*
G01*
X126145406Y-65814644D01*
G75*
G02*
X126498958Y-65814644I176776J-176776D01*
G01*
X127135356Y-66451042D01*
G75*
G02*
X127135356Y-66804594I-176776J-176776D01*
G01*
X126640380Y-67299570D01*
G75*
G02*
X126286828Y-67299570I-176776J176776D01*
G01*
G37*
D15*
G36*
X121947958Y-66776280D02*
G01*
X122336866Y-67165188D01*
X121276206Y-68225848D01*
X120887298Y-67836940D01*
X121947958Y-66776280D01*
G37*
G36*
X122513643Y-67341966D02*
G01*
X122902551Y-67730874D01*
X121841891Y-68791534D01*
X121452983Y-68402626D01*
X122513643Y-67341966D01*
G37*
G36*
X123079328Y-67907651D02*
G01*
X123468236Y-68296559D01*
X122407576Y-69357219D01*
X122018668Y-68968311D01*
X123079328Y-67907651D01*
G37*
G36*
X123645014Y-68473336D02*
G01*
X124033922Y-68862244D01*
X122973262Y-69922904D01*
X122584354Y-69533996D01*
X123645014Y-68473336D01*
G37*
G36*
X124210699Y-69039022D02*
G01*
X124599607Y-69427930D01*
X123538947Y-70488590D01*
X123150039Y-70099682D01*
X124210699Y-69039022D01*
G37*
G36*
X124776385Y-69604707D02*
G01*
X125165293Y-69993615D01*
X124104633Y-71054275D01*
X123715725Y-70665367D01*
X124776385Y-69604707D01*
G37*
G36*
X125342070Y-70170393D02*
G01*
X125730978Y-70559301D01*
X124670318Y-71619961D01*
X124281410Y-71231053D01*
X125342070Y-70170393D01*
G37*
G36*
X125907756Y-70736078D02*
G01*
X126296664Y-71124986D01*
X125236004Y-72185646D01*
X124847096Y-71796738D01*
X125907756Y-70736078D01*
G37*
G36*
X126473441Y-71301764D02*
G01*
X126862349Y-71690672D01*
X125801689Y-72751332D01*
X125412781Y-72362424D01*
X126473441Y-71301764D01*
G37*
G36*
X127039126Y-71867449D02*
G01*
X127428034Y-72256357D01*
X126367374Y-73317017D01*
X125978466Y-72928109D01*
X127039126Y-71867449D01*
G37*
G36*
X127604812Y-72433134D02*
G01*
X127993720Y-72822042D01*
X126933060Y-73882702D01*
X126544152Y-73493794D01*
X127604812Y-72433134D01*
G37*
G36*
X127993720Y-75897958D02*
G01*
X127604812Y-76286866D01*
X126544152Y-75226206D01*
X126933060Y-74837298D01*
X127993720Y-75897958D01*
G37*
G36*
X127428034Y-76463643D02*
G01*
X127039126Y-76852551D01*
X125978466Y-75791891D01*
X126367374Y-75402983D01*
X127428034Y-76463643D01*
G37*
G36*
X126862349Y-77029328D02*
G01*
X126473441Y-77418236D01*
X125412781Y-76357576D01*
X125801689Y-75968668D01*
X126862349Y-77029328D01*
G37*
G36*
X126296664Y-77595014D02*
G01*
X125907756Y-77983922D01*
X124847096Y-76923262D01*
X125236004Y-76534354D01*
X126296664Y-77595014D01*
G37*
G36*
X125730978Y-78160699D02*
G01*
X125342070Y-78549607D01*
X124281410Y-77488947D01*
X124670318Y-77100039D01*
X125730978Y-78160699D01*
G37*
G36*
X125165293Y-78726385D02*
G01*
X124776385Y-79115293D01*
X123715725Y-78054633D01*
X124104633Y-77665725D01*
X125165293Y-78726385D01*
G37*
G36*
X124599607Y-79292070D02*
G01*
X124210699Y-79680978D01*
X123150039Y-78620318D01*
X123538947Y-78231410D01*
X124599607Y-79292070D01*
G37*
G36*
X124033922Y-79857756D02*
G01*
X123645014Y-80246664D01*
X122584354Y-79186004D01*
X122973262Y-78797096D01*
X124033922Y-79857756D01*
G37*
G36*
X123468236Y-80423441D02*
G01*
X123079328Y-80812349D01*
X122018668Y-79751689D01*
X122407576Y-79362781D01*
X123468236Y-80423441D01*
G37*
G36*
X122902551Y-80989126D02*
G01*
X122513643Y-81378034D01*
X121452983Y-80317374D01*
X121841891Y-79928466D01*
X122902551Y-80989126D01*
G37*
G36*
X122336866Y-81554812D02*
G01*
X121947958Y-81943720D01*
X120887298Y-80883060D01*
X121276206Y-80494152D01*
X122336866Y-81554812D01*
G37*
G36*
X119543794Y-80494152D02*
G01*
X119932702Y-80883060D01*
X118872042Y-81943720D01*
X118483134Y-81554812D01*
X119543794Y-80494152D01*
G37*
G36*
X118978109Y-79928466D02*
G01*
X119367017Y-80317374D01*
X118306357Y-81378034D01*
X117917449Y-80989126D01*
X118978109Y-79928466D01*
G37*
G36*
X118412424Y-79362781D02*
G01*
X118801332Y-79751689D01*
X117740672Y-80812349D01*
X117351764Y-80423441D01*
X118412424Y-79362781D01*
G37*
G36*
X117846738Y-78797096D02*
G01*
X118235646Y-79186004D01*
X117174986Y-80246664D01*
X116786078Y-79857756D01*
X117846738Y-78797096D01*
G37*
G36*
X117281053Y-78231410D02*
G01*
X117669961Y-78620318D01*
X116609301Y-79680978D01*
X116220393Y-79292070D01*
X117281053Y-78231410D01*
G37*
G36*
X116715367Y-77665725D02*
G01*
X117104275Y-78054633D01*
X116043615Y-79115293D01*
X115654707Y-78726385D01*
X116715367Y-77665725D01*
G37*
G36*
X116149682Y-77100039D02*
G01*
X116538590Y-77488947D01*
X115477930Y-78549607D01*
X115089022Y-78160699D01*
X116149682Y-77100039D01*
G37*
G36*
X115583996Y-76534354D02*
G01*
X115972904Y-76923262D01*
X114912244Y-77983922D01*
X114523336Y-77595014D01*
X115583996Y-76534354D01*
G37*
G36*
X115018311Y-75968668D02*
G01*
X115407219Y-76357576D01*
X114346559Y-77418236D01*
X113957651Y-77029328D01*
X115018311Y-75968668D01*
G37*
G36*
X114452626Y-75402983D02*
G01*
X114841534Y-75791891D01*
X113780874Y-76852551D01*
X113391966Y-76463643D01*
X114452626Y-75402983D01*
G37*
G36*
X113886940Y-74837298D02*
G01*
X114275848Y-75226206D01*
X113215188Y-76286866D01*
X112826280Y-75897958D01*
X113886940Y-74837298D01*
G37*
G36*
X114275848Y-73493794D02*
G01*
X113886940Y-73882702D01*
X112826280Y-72822042D01*
X113215188Y-72433134D01*
X114275848Y-73493794D01*
G37*
G36*
X114841534Y-72928109D02*
G01*
X114452626Y-73317017D01*
X113391966Y-72256357D01*
X113780874Y-71867449D01*
X114841534Y-72928109D01*
G37*
G36*
X115407219Y-72362424D02*
G01*
X115018311Y-72751332D01*
X113957651Y-71690672D01*
X114346559Y-71301764D01*
X115407219Y-72362424D01*
G37*
G36*
X115972904Y-71796738D02*
G01*
X115583996Y-72185646D01*
X114523336Y-71124986D01*
X114912244Y-70736078D01*
X115972904Y-71796738D01*
G37*
G36*
X116538590Y-71231053D02*
G01*
X116149682Y-71619961D01*
X115089022Y-70559301D01*
X115477930Y-70170393D01*
X116538590Y-71231053D01*
G37*
G36*
X117104275Y-70665367D02*
G01*
X116715367Y-71054275D01*
X115654707Y-69993615D01*
X116043615Y-69604707D01*
X117104275Y-70665367D01*
G37*
G36*
X117669961Y-70099682D02*
G01*
X117281053Y-70488590D01*
X116220393Y-69427930D01*
X116609301Y-69039022D01*
X117669961Y-70099682D01*
G37*
G36*
X118235646Y-69533996D02*
G01*
X117846738Y-69922904D01*
X116786078Y-68862244D01*
X117174986Y-68473336D01*
X118235646Y-69533996D01*
G37*
G36*
X118801332Y-68968311D02*
G01*
X118412424Y-69357219D01*
X117351764Y-68296559D01*
X117740672Y-67907651D01*
X118801332Y-68968311D01*
G37*
G36*
X119367017Y-68402626D02*
G01*
X118978109Y-68791534D01*
X117917449Y-67730874D01*
X118306357Y-67341966D01*
X119367017Y-68402626D01*
G37*
G36*
X119932702Y-67836940D02*
G01*
X119543794Y-68225848D01*
X118483134Y-67165188D01*
X118872042Y-66776280D01*
X119932702Y-67836940D01*
G37*
G36*
G01*
X119825000Y-65675000D02*
X118875000Y-65675000D01*
G75*
G02*
X118625000Y-65425000I0J250000D01*
G01*
X118625000Y-64750000D01*
G75*
G02*
X118875000Y-64500000I250000J0D01*
G01*
X119825000Y-64500000D01*
G75*
G02*
X120075000Y-64750000I0J-250000D01*
G01*
X120075000Y-65425000D01*
G75*
G02*
X119825000Y-65675000I-250000J0D01*
G01*
G37*
G36*
G01*
X119825000Y-63600000D02*
X118875000Y-63600000D01*
G75*
G02*
X118625000Y-63350000I0J250000D01*
G01*
X118625000Y-62675000D01*
G75*
G02*
X118875000Y-62425000I250000J0D01*
G01*
X119825000Y-62425000D01*
G75*
G02*
X120075000Y-62675000I0J-250000D01*
G01*
X120075000Y-63350000D01*
G75*
G02*
X119825000Y-63600000I-250000J0D01*
G01*
G37*
G36*
G01*
X6325000Y-13675000D02*
X6325000Y-14625000D01*
G75*
G02*
X6075000Y-14875000I-250000J0D01*
G01*
X5400000Y-14875000D01*
G75*
G02*
X5150000Y-14625000I0J250000D01*
G01*
X5150000Y-13675000D01*
G75*
G02*
X5400000Y-13425000I250000J0D01*
G01*
X6075000Y-13425000D01*
G75*
G02*
X6325000Y-13675000I0J-250000D01*
G01*
G37*
G36*
G01*
X4250000Y-13675000D02*
X4250000Y-14625000D01*
G75*
G02*
X4000000Y-14875000I-250000J0D01*
G01*
X3325000Y-14875000D01*
G75*
G02*
X3075000Y-14625000I0J250000D01*
G01*
X3075000Y-13675000D01*
G75*
G02*
X3325000Y-13425000I250000J0D01*
G01*
X4000000Y-13425000D01*
G75*
G02*
X4250000Y-13675000I0J-250000D01*
G01*
G37*
G36*
G01*
X5100000Y-10700002D02*
X5100000Y-9799998D01*
G75*
G02*
X5349998Y-9550000I249998J0D01*
G01*
X5875002Y-9550000D01*
G75*
G02*
X6125000Y-9799998I0J-249998D01*
G01*
X6125000Y-10700002D01*
G75*
G02*
X5875002Y-10950000I-249998J0D01*
G01*
X5349998Y-10950000D01*
G75*
G02*
X5100000Y-10700002I0J249998D01*
G01*
G37*
G36*
G01*
X3275000Y-10700002D02*
X3275000Y-9799998D01*
G75*
G02*
X3524998Y-9550000I249998J0D01*
G01*
X4050002Y-9550000D01*
G75*
G02*
X4300000Y-9799998I0J-249998D01*
G01*
X4300000Y-10700002D01*
G75*
G02*
X4050002Y-10950000I-249998J0D01*
G01*
X3524998Y-10950000D01*
G75*
G02*
X3275000Y-10700002I0J249998D01*
G01*
G37*
G36*
G01*
X6125000Y-11749998D02*
X6125000Y-12650002D01*
G75*
G02*
X5875002Y-12900000I-249998J0D01*
G01*
X5349998Y-12900000D01*
G75*
G02*
X5100000Y-12650002I0J249998D01*
G01*
X5100000Y-11749998D01*
G75*
G02*
X5349998Y-11500000I249998J0D01*
G01*
X5875002Y-11500000D01*
G75*
G02*
X6125000Y-11749998I0J-249998D01*
G01*
G37*
G36*
G01*
X4300000Y-11749998D02*
X4300000Y-12650002D01*
G75*
G02*
X4050002Y-12900000I-249998J0D01*
G01*
X3524998Y-12900000D01*
G75*
G02*
X3275000Y-12650002I0J249998D01*
G01*
X3275000Y-11749998D01*
G75*
G02*
X3524998Y-11500000I249998J0D01*
G01*
X4050002Y-11500000D01*
G75*
G02*
X4300000Y-11749998I0J-249998D01*
G01*
G37*
G36*
G01*
X132150000Y-73249999D02*
X132150000Y-74150001D01*
G75*
G02*
X131900001Y-74400000I-249999J0D01*
G01*
X131199999Y-74400000D01*
G75*
G02*
X130950000Y-74150001I0J249999D01*
G01*
X130950000Y-73249999D01*
G75*
G02*
X131199999Y-73000000I249999J0D01*
G01*
X131900001Y-73000000D01*
G75*
G02*
X132150000Y-73249999I0J-249999D01*
G01*
G37*
G36*
G01*
X134150000Y-73249999D02*
X134150000Y-74150001D01*
G75*
G02*
X133900001Y-74400000I-249999J0D01*
G01*
X133199999Y-74400000D01*
G75*
G02*
X132950000Y-74150001I0J249999D01*
G01*
X132950000Y-73249999D01*
G75*
G02*
X133199999Y-73000000I249999J0D01*
G01*
X133900001Y-73000000D01*
G75*
G02*
X134150000Y-73249999I0J-249999D01*
G01*
G37*
G36*
G01*
X25750001Y-36750000D02*
X24849999Y-36750000D01*
G75*
G02*
X24600000Y-36500001I0J249999D01*
G01*
X24600000Y-35799999D01*
G75*
G02*
X24849999Y-35550000I249999J0D01*
G01*
X25750001Y-35550000D01*
G75*
G02*
X26000000Y-35799999I0J-249999D01*
G01*
X26000000Y-36500001D01*
G75*
G02*
X25750001Y-36750000I-249999J0D01*
G01*
G37*
G36*
G01*
X25750001Y-38750000D02*
X24849999Y-38750000D01*
G75*
G02*
X24600000Y-38500001I0J249999D01*
G01*
X24600000Y-37799999D01*
G75*
G02*
X24849999Y-37550000I249999J0D01*
G01*
X25750001Y-37550000D01*
G75*
G02*
X26000000Y-37799999I0J-249999D01*
G01*
X26000000Y-38500001D01*
G75*
G02*
X25750001Y-38750000I-249999J0D01*
G01*
G37*
D17*
X11325000Y-11400000D03*
X10375000Y-11400000D03*
X12275000Y-11400000D03*
X12275000Y-9200000D03*
X11325000Y-9200000D03*
X10375000Y-9200000D03*
G36*
G01*
X8525002Y-10150000D02*
X7624998Y-10150000D01*
G75*
G02*
X7375000Y-9900002I0J249998D01*
G01*
X7375000Y-9374998D01*
G75*
G02*
X7624998Y-9125000I249998J0D01*
G01*
X8525002Y-9125000D01*
G75*
G02*
X8775000Y-9374998I0J-249998D01*
G01*
X8775000Y-9900002D01*
G75*
G02*
X8525002Y-10150000I-249998J0D01*
G01*
G37*
G36*
G01*
X8525002Y-11975000D02*
X7624998Y-11975000D01*
G75*
G02*
X7375000Y-11725002I0J249998D01*
G01*
X7375000Y-11199998D01*
G75*
G02*
X7624998Y-10950000I249998J0D01*
G01*
X8525002Y-10950000D01*
G75*
G02*
X8775000Y-11199998I0J-249998D01*
G01*
X8775000Y-11725002D01*
G75*
G02*
X8525002Y-11975000I-249998J0D01*
G01*
G37*
G36*
G01*
X18049998Y-3875000D02*
X18950002Y-3875000D01*
G75*
G02*
X19200000Y-4124998I0J-249998D01*
G01*
X19200000Y-4650002D01*
G75*
G02*
X18950002Y-4900000I-249998J0D01*
G01*
X18049998Y-4900000D01*
G75*
G02*
X17800000Y-4650002I0J249998D01*
G01*
X17800000Y-4124998D01*
G75*
G02*
X18049998Y-3875000I249998J0D01*
G01*
G37*
G36*
G01*
X18049998Y-5700000D02*
X18950002Y-5700000D01*
G75*
G02*
X19200000Y-5949998I0J-249998D01*
G01*
X19200000Y-6475002D01*
G75*
G02*
X18950002Y-6725000I-249998J0D01*
G01*
X18049998Y-6725000D01*
G75*
G02*
X17800000Y-6475002I0J249998D01*
G01*
X17800000Y-5949998D01*
G75*
G02*
X18049998Y-5700000I249998J0D01*
G01*
G37*
D18*
X126850000Y-79650000D03*
X126850000Y-81850000D03*
X128550000Y-81850000D03*
X128550000Y-79650000D03*
D19*
X14115000Y-3975000D03*
X8335000Y-3975000D03*
D20*
X15545000Y-325000D03*
X6905000Y-325000D03*
X15545000Y-4505000D03*
X6905000Y-4505000D03*
D21*
X14475000Y-5420000D03*
X13675000Y-5420000D03*
D22*
X12975000Y-5420000D03*
X12475000Y-5420000D03*
X11975000Y-5420000D03*
X11475000Y-5420000D03*
X9475000Y-5420000D03*
X9975000Y-5420000D03*
X10475000Y-5420000D03*
X10975000Y-5420000D03*
D21*
X8775000Y-5420000D03*
X7975000Y-5420000D03*
G36*
G01*
X3775826Y-5039428D02*
X3139428Y-5675826D01*
G75*
G02*
X2785876Y-5675826I-176776J176776D01*
G01*
X2414644Y-5304594D01*
G75*
G02*
X2414644Y-4951042I176776J176776D01*
G01*
X3051042Y-4314644D01*
G75*
G02*
X3404594Y-4314644I176776J-176776D01*
G01*
X3775826Y-4685876D01*
G75*
G02*
X3775826Y-5039428I-176776J-176776D01*
G01*
G37*
G36*
G01*
X2485356Y-3748958D02*
X1848958Y-4385356D01*
G75*
G02*
X1495406Y-4385356I-176776J176776D01*
G01*
X1124174Y-4014124D01*
G75*
G02*
X1124174Y-3660572I176776J176776D01*
G01*
X1760572Y-3024174D01*
G75*
G02*
X2114124Y-3024174I176776J-176776D01*
G01*
X2485356Y-3395406D01*
G75*
G02*
X2485356Y-3748958I-176776J-176776D01*
G01*
G37*
M02*
