G04 #@! TF.GenerationSoftware,KiCad,Pcbnew,(5.1.8)-1*
G04 #@! TF.CreationDate,2021-03-20T07:11:13-07:00*
G04 #@! TF.ProjectId,Spritzgeback,53707269-747a-4676-9562-61636b2e6b69,rev?*
G04 #@! TF.SameCoordinates,Original*
G04 #@! TF.FileFunction,Legend,Top*
G04 #@! TF.FilePolarity,Positive*
%FSLAX46Y46*%
G04 Gerber Fmt 4.6, Leading zero omitted, Abs format (unit mm)*
G04 Created by KiCad (PCBNEW (5.1.8)-1) date 2021-03-20 07:11:13*
%MOMM*%
%LPD*%
G01*
G04 APERTURE LIST*
%ADD10C,0.150000*%
%ADD11C,0.120000*%
G04 APERTURE END LIST*
D10*
X7000000Y-1200000D02*
X7000000Y-2200000D01*
X6000000Y-15200000D02*
X7000000Y-15200000D01*
X7000000Y-1200000D02*
X6000000Y-1200000D01*
X7000000Y-14200000D02*
X7000000Y-15200000D01*
X-7000000Y-15200000D02*
X-7000000Y-14200000D01*
X-6000000Y-1200000D02*
X-7000000Y-1200000D01*
X-7000000Y-15200000D02*
X-6000000Y-15200000D01*
X-7000000Y-2200000D02*
X-7000000Y-1200000D01*
X29500000Y-1200000D02*
X29500000Y-2200000D01*
X28500000Y-15200000D02*
X29500000Y-15200000D01*
X29500000Y-1200000D02*
X28500000Y-1200000D01*
X29500000Y-14200000D02*
X29500000Y-15200000D01*
X15500000Y-15200000D02*
X15500000Y-14200000D01*
X16500000Y-1200000D02*
X15500000Y-1200000D01*
X15500000Y-15200000D02*
X16500000Y-15200000D01*
X15500000Y-2200000D02*
X15500000Y-1200000D01*
X47500000Y-1200000D02*
X47500000Y-2200000D01*
X46500000Y-15200000D02*
X47500000Y-15200000D01*
X47500000Y-1200000D02*
X46500000Y-1200000D01*
X47500000Y-14200000D02*
X47500000Y-15200000D01*
X33500000Y-15200000D02*
X33500000Y-14200000D01*
X34500000Y-1200000D02*
X33500000Y-1200000D01*
X33500000Y-15200000D02*
X34500000Y-15200000D01*
X33500000Y-2200000D02*
X33500000Y-1200000D01*
X65500000Y-1200000D02*
X65500000Y-2200000D01*
X64500000Y-15200000D02*
X65500000Y-15200000D01*
X65500000Y-1200000D02*
X64500000Y-1200000D01*
X65500000Y-14200000D02*
X65500000Y-15200000D01*
X51500000Y-15200000D02*
X51500000Y-14200000D01*
X52500000Y-1200000D02*
X51500000Y-1200000D01*
X51500000Y-15200000D02*
X52500000Y-15200000D01*
X51500000Y-2200000D02*
X51500000Y-1200000D01*
X83500000Y-1200000D02*
X83500000Y-2200000D01*
X82500000Y-15200000D02*
X83500000Y-15200000D01*
X83500000Y-1200000D02*
X82500000Y-1200000D01*
X83500000Y-14200000D02*
X83500000Y-15200000D01*
X69500000Y-15200000D02*
X69500000Y-14200000D01*
X70500000Y-1200000D02*
X69500000Y-1200000D01*
X69500000Y-15200000D02*
X70500000Y-15200000D01*
X69500000Y-2200000D02*
X69500000Y-1200000D01*
X101500000Y-1200000D02*
X101500000Y-2200000D01*
X100500000Y-15200000D02*
X101500000Y-15200000D01*
X101500000Y-1200000D02*
X100500000Y-1200000D01*
X101500000Y-14200000D02*
X101500000Y-15200000D01*
X87500000Y-15200000D02*
X87500000Y-14200000D01*
X88500000Y-1200000D02*
X87500000Y-1200000D01*
X87500000Y-15200000D02*
X88500000Y-15200000D01*
X87500000Y-2200000D02*
X87500000Y-1200000D01*
X119500000Y-1200000D02*
X119500000Y-2200000D01*
X118500000Y-15200000D02*
X119500000Y-15200000D01*
X119500000Y-1200000D02*
X118500000Y-1200000D01*
X119500000Y-14200000D02*
X119500000Y-15200000D01*
X105500000Y-15200000D02*
X105500000Y-14200000D01*
X106500000Y-1200000D02*
X105500000Y-1200000D01*
X105500000Y-15200000D02*
X106500000Y-15200000D01*
X105500000Y-2200000D02*
X105500000Y-1200000D01*
X137500000Y-1200000D02*
X137500000Y-2200000D01*
X136500000Y-15200000D02*
X137500000Y-15200000D01*
X137500000Y-1200000D02*
X136500000Y-1200000D01*
X137500000Y-14200000D02*
X137500000Y-15200000D01*
X123500000Y-15200000D02*
X123500000Y-14200000D01*
X124500000Y-1200000D02*
X123500000Y-1200000D01*
X123500000Y-15200000D02*
X124500000Y-15200000D01*
X123500000Y-2200000D02*
X123500000Y-1200000D01*
X155500000Y-1200000D02*
X155500000Y-2200000D01*
X154500000Y-15200000D02*
X155500000Y-15200000D01*
X155500000Y-1200000D02*
X154500000Y-1200000D01*
X155500000Y-14200000D02*
X155500000Y-15200000D01*
X141500000Y-15200000D02*
X141500000Y-14200000D01*
X142500000Y-1200000D02*
X141500000Y-1200000D01*
X141500000Y-15200000D02*
X142500000Y-15200000D01*
X141500000Y-2200000D02*
X141500000Y-1200000D01*
X173500000Y-1200000D02*
X173500000Y-2200000D01*
X172500000Y-15200000D02*
X173500000Y-15200000D01*
X173500000Y-1200000D02*
X172500000Y-1200000D01*
X173500000Y-14200000D02*
X173500000Y-15200000D01*
X159500000Y-15200000D02*
X159500000Y-14200000D01*
X160500000Y-1200000D02*
X159500000Y-1200000D01*
X159500000Y-15200000D02*
X160500000Y-15200000D01*
X159500000Y-2200000D02*
X159500000Y-1200000D01*
X191500000Y-1200000D02*
X191500000Y-2200000D01*
X190500000Y-15200000D02*
X191500000Y-15200000D01*
X191500000Y-1200000D02*
X190500000Y-1200000D01*
X191500000Y-14200000D02*
X191500000Y-15200000D01*
X177500000Y-15200000D02*
X177500000Y-14200000D01*
X178500000Y-1200000D02*
X177500000Y-1200000D01*
X177500000Y-15200000D02*
X178500000Y-15200000D01*
X177500000Y-2200000D02*
X177500000Y-1200000D01*
X209500000Y-1200000D02*
X209500000Y-2200000D01*
X208500000Y-15200000D02*
X209500000Y-15200000D01*
X209500000Y-1200000D02*
X208500000Y-1200000D01*
X209500000Y-14200000D02*
X209500000Y-15200000D01*
X195500000Y-15200000D02*
X195500000Y-14200000D01*
X196500000Y-1200000D02*
X195500000Y-1200000D01*
X195500000Y-15200000D02*
X196500000Y-15200000D01*
X195500000Y-2200000D02*
X195500000Y-1200000D01*
X227500000Y-1200000D02*
X227500000Y-2200000D01*
X226500000Y-15200000D02*
X227500000Y-15200000D01*
X227500000Y-1200000D02*
X226500000Y-1200000D01*
X227500000Y-14200000D02*
X227500000Y-15200000D01*
X213500000Y-15200000D02*
X213500000Y-14200000D01*
X214500000Y-1200000D02*
X213500000Y-1200000D01*
X213500000Y-15200000D02*
X214500000Y-15200000D01*
X213500000Y-2200000D02*
X213500000Y-1200000D01*
X245500000Y-1200000D02*
X245500000Y-2200000D01*
X244500000Y-15200000D02*
X245500000Y-15200000D01*
X245500000Y-1200000D02*
X244500000Y-1200000D01*
X245500000Y-14200000D02*
X245500000Y-15200000D01*
X231500000Y-15200000D02*
X231500000Y-14200000D01*
X232500000Y-1200000D02*
X231500000Y-1200000D01*
X231500000Y-15200000D02*
X232500000Y-15200000D01*
X231500000Y-2200000D02*
X231500000Y-1200000D01*
X268000000Y-1200000D02*
X268000000Y-2200000D01*
X267000000Y-15200000D02*
X268000000Y-15200000D01*
X268000000Y-1200000D02*
X267000000Y-1200000D01*
X268000000Y-14200000D02*
X268000000Y-15200000D01*
X254000000Y-15200000D02*
X254000000Y-14200000D01*
X255000000Y-1200000D02*
X254000000Y-1200000D01*
X254000000Y-15200000D02*
X255000000Y-15200000D01*
X254000000Y-2200000D02*
X254000000Y-1200000D01*
X286000000Y-1200000D02*
X286000000Y-2200000D01*
X285000000Y-15200000D02*
X286000000Y-15200000D01*
X286000000Y-1200000D02*
X285000000Y-1200000D01*
X286000000Y-14200000D02*
X286000000Y-15200000D01*
X272000000Y-15200000D02*
X272000000Y-14200000D01*
X273000000Y-1200000D02*
X272000000Y-1200000D01*
X272000000Y-15200000D02*
X273000000Y-15200000D01*
X272000000Y-2200000D02*
X272000000Y-1200000D01*
X7000000Y-18200000D02*
X7000000Y-19200000D01*
X6000000Y-32200000D02*
X7000000Y-32200000D01*
X7000000Y-18200000D02*
X6000000Y-18200000D01*
X7000000Y-31200000D02*
X7000000Y-32200000D01*
X-7000000Y-32200000D02*
X-7000000Y-31200000D01*
X-6000000Y-18200000D02*
X-7000000Y-18200000D01*
X-7000000Y-32200000D02*
X-6000000Y-32200000D01*
X-7000000Y-19200000D02*
X-7000000Y-18200000D01*
X29500000Y-18200000D02*
X29500000Y-19200000D01*
X28500000Y-32200000D02*
X29500000Y-32200000D01*
X29500000Y-18200000D02*
X28500000Y-18200000D01*
X29500000Y-31200000D02*
X29500000Y-32200000D01*
X15500000Y-32200000D02*
X15500000Y-31200000D01*
X16500000Y-18200000D02*
X15500000Y-18200000D01*
X15500000Y-32200000D02*
X16500000Y-32200000D01*
X15500000Y-19200000D02*
X15500000Y-18200000D01*
X47500000Y-18200000D02*
X47500000Y-19200000D01*
X46500000Y-32200000D02*
X47500000Y-32200000D01*
X47500000Y-18200000D02*
X46500000Y-18200000D01*
X47500000Y-31200000D02*
X47500000Y-32200000D01*
X33500000Y-32200000D02*
X33500000Y-31200000D01*
X34500000Y-18200000D02*
X33500000Y-18200000D01*
X33500000Y-32200000D02*
X34500000Y-32200000D01*
X33500000Y-19200000D02*
X33500000Y-18200000D01*
X65500000Y-18200000D02*
X65500000Y-19200000D01*
X64500000Y-32200000D02*
X65500000Y-32200000D01*
X65500000Y-18200000D02*
X64500000Y-18200000D01*
X65500000Y-31200000D02*
X65500000Y-32200000D01*
X51500000Y-32200000D02*
X51500000Y-31200000D01*
X52500000Y-18200000D02*
X51500000Y-18200000D01*
X51500000Y-32200000D02*
X52500000Y-32200000D01*
X51500000Y-19200000D02*
X51500000Y-18200000D01*
X83500000Y-18200000D02*
X83500000Y-19200000D01*
X82500000Y-32200000D02*
X83500000Y-32200000D01*
X83500000Y-18200000D02*
X82500000Y-18200000D01*
X83500000Y-31200000D02*
X83500000Y-32200000D01*
X69500000Y-32200000D02*
X69500000Y-31200000D01*
X70500000Y-18200000D02*
X69500000Y-18200000D01*
X69500000Y-32200000D02*
X70500000Y-32200000D01*
X69500000Y-19200000D02*
X69500000Y-18200000D01*
X101500000Y-18200000D02*
X101500000Y-19200000D01*
X100500000Y-32200000D02*
X101500000Y-32200000D01*
X101500000Y-18200000D02*
X100500000Y-18200000D01*
X101500000Y-31200000D02*
X101500000Y-32200000D01*
X87500000Y-32200000D02*
X87500000Y-31200000D01*
X88500000Y-18200000D02*
X87500000Y-18200000D01*
X87500000Y-32200000D02*
X88500000Y-32200000D01*
X87500000Y-19200000D02*
X87500000Y-18200000D01*
X119500000Y-18200000D02*
X119500000Y-19200000D01*
X118500000Y-32200000D02*
X119500000Y-32200000D01*
X119500000Y-18200000D02*
X118500000Y-18200000D01*
X119500000Y-31200000D02*
X119500000Y-32200000D01*
X105500000Y-32200000D02*
X105500000Y-31200000D01*
X106500000Y-18200000D02*
X105500000Y-18200000D01*
X105500000Y-32200000D02*
X106500000Y-32200000D01*
X105500000Y-19200000D02*
X105500000Y-18200000D01*
X137500000Y-18200000D02*
X137500000Y-19200000D01*
X136500000Y-32200000D02*
X137500000Y-32200000D01*
X137500000Y-18200000D02*
X136500000Y-18200000D01*
X137500000Y-31200000D02*
X137500000Y-32200000D01*
X123500000Y-32200000D02*
X123500000Y-31200000D01*
X124500000Y-18200000D02*
X123500000Y-18200000D01*
X123500000Y-32200000D02*
X124500000Y-32200000D01*
X123500000Y-19200000D02*
X123500000Y-18200000D01*
X155500000Y-18200000D02*
X155500000Y-19200000D01*
X154500000Y-32200000D02*
X155500000Y-32200000D01*
X155500000Y-18200000D02*
X154500000Y-18200000D01*
X155500000Y-31200000D02*
X155500000Y-32200000D01*
X141500000Y-32200000D02*
X141500000Y-31200000D01*
X142500000Y-18200000D02*
X141500000Y-18200000D01*
X141500000Y-32200000D02*
X142500000Y-32200000D01*
X141500000Y-19200000D02*
X141500000Y-18200000D01*
X173500000Y-18200000D02*
X173500000Y-19200000D01*
X172500000Y-32200000D02*
X173500000Y-32200000D01*
X173500000Y-18200000D02*
X172500000Y-18200000D01*
X173500000Y-31200000D02*
X173500000Y-32200000D01*
X159500000Y-32200000D02*
X159500000Y-31200000D01*
X160500000Y-18200000D02*
X159500000Y-18200000D01*
X159500000Y-32200000D02*
X160500000Y-32200000D01*
X159500000Y-19200000D02*
X159500000Y-18200000D01*
X191500000Y-18200000D02*
X191500000Y-19200000D01*
X190500000Y-32200000D02*
X191500000Y-32200000D01*
X191500000Y-18200000D02*
X190500000Y-18200000D01*
X191500000Y-31200000D02*
X191500000Y-32200000D01*
X177500000Y-32200000D02*
X177500000Y-31200000D01*
X178500000Y-18200000D02*
X177500000Y-18200000D01*
X177500000Y-32200000D02*
X178500000Y-32200000D01*
X177500000Y-19200000D02*
X177500000Y-18200000D01*
X209500000Y-18200000D02*
X209500000Y-19200000D01*
X208500000Y-32200000D02*
X209500000Y-32200000D01*
X209500000Y-18200000D02*
X208500000Y-18200000D01*
X209500000Y-31200000D02*
X209500000Y-32200000D01*
X195500000Y-32200000D02*
X195500000Y-31200000D01*
X196500000Y-18200000D02*
X195500000Y-18200000D01*
X195500000Y-32200000D02*
X196500000Y-32200000D01*
X195500000Y-19200000D02*
X195500000Y-18200000D01*
X227500000Y-18200000D02*
X227500000Y-19200000D01*
X226500000Y-32200000D02*
X227500000Y-32200000D01*
X227500000Y-18200000D02*
X226500000Y-18200000D01*
X227500000Y-31200000D02*
X227500000Y-32200000D01*
X213500000Y-32200000D02*
X213500000Y-31200000D01*
X214500000Y-18200000D02*
X213500000Y-18200000D01*
X213500000Y-32200000D02*
X214500000Y-32200000D01*
X213500000Y-19200000D02*
X213500000Y-18200000D01*
X245500000Y-18200000D02*
X245500000Y-19200000D01*
X244500000Y-32200000D02*
X245500000Y-32200000D01*
X245500000Y-18200000D02*
X244500000Y-18200000D01*
X245500000Y-31200000D02*
X245500000Y-32200000D01*
X231500000Y-32200000D02*
X231500000Y-31200000D01*
X232500000Y-18200000D02*
X231500000Y-18200000D01*
X231500000Y-32200000D02*
X232500000Y-32200000D01*
X231500000Y-19200000D02*
X231500000Y-18200000D01*
X268000000Y-18200000D02*
X268000000Y-19200000D01*
X267000000Y-32200000D02*
X268000000Y-32200000D01*
X268000000Y-18200000D02*
X267000000Y-18200000D01*
X268000000Y-31200000D02*
X268000000Y-32200000D01*
X254000000Y-32200000D02*
X254000000Y-31200000D01*
X255000000Y-18200000D02*
X254000000Y-18200000D01*
X254000000Y-32200000D02*
X255000000Y-32200000D01*
X254000000Y-19200000D02*
X254000000Y-18200000D01*
X286000000Y-18200000D02*
X286000000Y-19200000D01*
X285000000Y-32200000D02*
X286000000Y-32200000D01*
X286000000Y-18200000D02*
X285000000Y-18200000D01*
X286000000Y-31200000D02*
X286000000Y-32200000D01*
X272000000Y-32200000D02*
X272000000Y-31200000D01*
X273000000Y-18200000D02*
X272000000Y-18200000D01*
X272000000Y-32200000D02*
X273000000Y-32200000D01*
X272000000Y-19200000D02*
X272000000Y-18200000D01*
X7000000Y-35200000D02*
X7000000Y-36200000D01*
X6000000Y-49200000D02*
X7000000Y-49200000D01*
X7000000Y-35200000D02*
X6000000Y-35200000D01*
X7000000Y-48200000D02*
X7000000Y-49200000D01*
X-7000000Y-49200000D02*
X-7000000Y-48200000D01*
X-6000000Y-35200000D02*
X-7000000Y-35200000D01*
X-7000000Y-49200000D02*
X-6000000Y-49200000D01*
X-7000000Y-36200000D02*
X-7000000Y-35200000D01*
X29500000Y-35200000D02*
X29500000Y-36200000D01*
X28500000Y-49200000D02*
X29500000Y-49200000D01*
X29500000Y-35200000D02*
X28500000Y-35200000D01*
X29500000Y-48200000D02*
X29500000Y-49200000D01*
X15500000Y-49200000D02*
X15500000Y-48200000D01*
X16500000Y-35200000D02*
X15500000Y-35200000D01*
X15500000Y-49200000D02*
X16500000Y-49200000D01*
X15500000Y-36200000D02*
X15500000Y-35200000D01*
X47500000Y-35200000D02*
X47500000Y-36200000D01*
X46500000Y-49200000D02*
X47500000Y-49200000D01*
X47500000Y-35200000D02*
X46500000Y-35200000D01*
X47500000Y-48200000D02*
X47500000Y-49200000D01*
X33500000Y-49200000D02*
X33500000Y-48200000D01*
X34500000Y-35200000D02*
X33500000Y-35200000D01*
X33500000Y-49200000D02*
X34500000Y-49200000D01*
X33500000Y-36200000D02*
X33500000Y-35200000D01*
X65500000Y-35200000D02*
X65500000Y-36200000D01*
X64500000Y-49200000D02*
X65500000Y-49200000D01*
X65500000Y-35200000D02*
X64500000Y-35200000D01*
X65500000Y-48200000D02*
X65500000Y-49200000D01*
X51500000Y-49200000D02*
X51500000Y-48200000D01*
X52500000Y-35200000D02*
X51500000Y-35200000D01*
X51500000Y-49200000D02*
X52500000Y-49200000D01*
X51500000Y-36200000D02*
X51500000Y-35200000D01*
X83500000Y-35200000D02*
X83500000Y-36200000D01*
X82500000Y-49200000D02*
X83500000Y-49200000D01*
X83500000Y-35200000D02*
X82500000Y-35200000D01*
X83500000Y-48200000D02*
X83500000Y-49200000D01*
X69500000Y-49200000D02*
X69500000Y-48200000D01*
X70500000Y-35200000D02*
X69500000Y-35200000D01*
X69500000Y-49200000D02*
X70500000Y-49200000D01*
X69500000Y-36200000D02*
X69500000Y-35200000D01*
X101500000Y-35200000D02*
X101500000Y-36200000D01*
X100500000Y-49200000D02*
X101500000Y-49200000D01*
X101500000Y-35200000D02*
X100500000Y-35200000D01*
X101500000Y-48200000D02*
X101500000Y-49200000D01*
X87500000Y-49200000D02*
X87500000Y-48200000D01*
X88500000Y-35200000D02*
X87500000Y-35200000D01*
X87500000Y-49200000D02*
X88500000Y-49200000D01*
X87500000Y-36200000D02*
X87500000Y-35200000D01*
X119500000Y-35200000D02*
X119500000Y-36200000D01*
X118500000Y-49200000D02*
X119500000Y-49200000D01*
X119500000Y-35200000D02*
X118500000Y-35200000D01*
X119500000Y-48200000D02*
X119500000Y-49200000D01*
X105500000Y-49200000D02*
X105500000Y-48200000D01*
X106500000Y-35200000D02*
X105500000Y-35200000D01*
X105500000Y-49200000D02*
X106500000Y-49200000D01*
X105500000Y-36200000D02*
X105500000Y-35200000D01*
X137500000Y-35200000D02*
X137500000Y-36200000D01*
X136500000Y-49200000D02*
X137500000Y-49200000D01*
X137500000Y-35200000D02*
X136500000Y-35200000D01*
X137500000Y-48200000D02*
X137500000Y-49200000D01*
X123500000Y-49200000D02*
X123500000Y-48200000D01*
X124500000Y-35200000D02*
X123500000Y-35200000D01*
X123500000Y-49200000D02*
X124500000Y-49200000D01*
X123500000Y-36200000D02*
X123500000Y-35200000D01*
X155500000Y-35200000D02*
X155500000Y-36200000D01*
X154500000Y-49200000D02*
X155500000Y-49200000D01*
X155500000Y-35200000D02*
X154500000Y-35200000D01*
X155500000Y-48200000D02*
X155500000Y-49200000D01*
X141500000Y-49200000D02*
X141500000Y-48200000D01*
X142500000Y-35200000D02*
X141500000Y-35200000D01*
X141500000Y-49200000D02*
X142500000Y-49200000D01*
X141500000Y-36200000D02*
X141500000Y-35200000D01*
X173500000Y-35200000D02*
X173500000Y-36200000D01*
X172500000Y-49200000D02*
X173500000Y-49200000D01*
X173500000Y-35200000D02*
X172500000Y-35200000D01*
X173500000Y-48200000D02*
X173500000Y-49200000D01*
X159500000Y-49200000D02*
X159500000Y-48200000D01*
X160500000Y-35200000D02*
X159500000Y-35200000D01*
X159500000Y-49200000D02*
X160500000Y-49200000D01*
X159500000Y-36200000D02*
X159500000Y-35200000D01*
X191500000Y-35200000D02*
X191500000Y-36200000D01*
X190500000Y-49200000D02*
X191500000Y-49200000D01*
X191500000Y-35200000D02*
X190500000Y-35200000D01*
X191500000Y-48200000D02*
X191500000Y-49200000D01*
X177500000Y-49200000D02*
X177500000Y-48200000D01*
X178500000Y-35200000D02*
X177500000Y-35200000D01*
X177500000Y-49200000D02*
X178500000Y-49200000D01*
X177500000Y-36200000D02*
X177500000Y-35200000D01*
X209500000Y-35200000D02*
X209500000Y-36200000D01*
X208500000Y-49200000D02*
X209500000Y-49200000D01*
X209500000Y-35200000D02*
X208500000Y-35200000D01*
X209500000Y-48200000D02*
X209500000Y-49200000D01*
X195500000Y-49200000D02*
X195500000Y-48200000D01*
X196500000Y-35200000D02*
X195500000Y-35200000D01*
X195500000Y-49200000D02*
X196500000Y-49200000D01*
X195500000Y-36200000D02*
X195500000Y-35200000D01*
X227500000Y-35200000D02*
X227500000Y-36200000D01*
X226500000Y-49200000D02*
X227500000Y-49200000D01*
X227500000Y-35200000D02*
X226500000Y-35200000D01*
X227500000Y-48200000D02*
X227500000Y-49200000D01*
X213500000Y-49200000D02*
X213500000Y-48200000D01*
X214500000Y-35200000D02*
X213500000Y-35200000D01*
X213500000Y-49200000D02*
X214500000Y-49200000D01*
X213500000Y-36200000D02*
X213500000Y-35200000D01*
X245500000Y-35200000D02*
X245500000Y-36200000D01*
X244500000Y-49200000D02*
X245500000Y-49200000D01*
X245500000Y-35200000D02*
X244500000Y-35200000D01*
X245500000Y-48200000D02*
X245500000Y-49200000D01*
X231500000Y-49200000D02*
X231500000Y-48200000D01*
X232500000Y-35200000D02*
X231500000Y-35200000D01*
X231500000Y-49200000D02*
X232500000Y-49200000D01*
X231500000Y-36200000D02*
X231500000Y-35200000D01*
X7000000Y-52200000D02*
X7000000Y-53200000D01*
X6000000Y-66200000D02*
X7000000Y-66200000D01*
X7000000Y-52200000D02*
X6000000Y-52200000D01*
X7000000Y-65200000D02*
X7000000Y-66200000D01*
X-7000000Y-66200000D02*
X-7000000Y-65200000D01*
X-6000000Y-52200000D02*
X-7000000Y-52200000D01*
X-7000000Y-66200000D02*
X-6000000Y-66200000D01*
X-7000000Y-53200000D02*
X-7000000Y-52200000D01*
X34000000Y-52200000D02*
X34000000Y-53200000D01*
X33000000Y-66200000D02*
X34000000Y-66200000D01*
X34000000Y-52200000D02*
X33000000Y-52200000D01*
X34000000Y-65200000D02*
X34000000Y-66200000D01*
X20000000Y-66200000D02*
X20000000Y-65200000D01*
X21000000Y-52200000D02*
X20000000Y-52200000D01*
X20000000Y-66200000D02*
X21000000Y-66200000D01*
X20000000Y-53200000D02*
X20000000Y-52200000D01*
X56500000Y-52200000D02*
X56500000Y-53200000D01*
X55500000Y-66200000D02*
X56500000Y-66200000D01*
X56500000Y-52200000D02*
X55500000Y-52200000D01*
X56500000Y-65200000D02*
X56500000Y-66200000D01*
X42500000Y-66200000D02*
X42500000Y-65200000D01*
X43500000Y-52200000D02*
X42500000Y-52200000D01*
X42500000Y-66200000D02*
X43500000Y-66200000D01*
X42500000Y-53200000D02*
X42500000Y-52200000D01*
X74500000Y-52200000D02*
X74500000Y-53200000D01*
X73500000Y-66200000D02*
X74500000Y-66200000D01*
X74500000Y-52200000D02*
X73500000Y-52200000D01*
X74500000Y-65200000D02*
X74500000Y-66200000D01*
X60500000Y-66200000D02*
X60500000Y-65200000D01*
X61500000Y-52200000D02*
X60500000Y-52200000D01*
X60500000Y-66200000D02*
X61500000Y-66200000D01*
X60500000Y-53200000D02*
X60500000Y-52200000D01*
X92500000Y-52200000D02*
X92500000Y-53200000D01*
X91500000Y-66200000D02*
X92500000Y-66200000D01*
X92500000Y-52200000D02*
X91500000Y-52200000D01*
X92500000Y-65200000D02*
X92500000Y-66200000D01*
X78500000Y-66200000D02*
X78500000Y-65200000D01*
X79500000Y-52200000D02*
X78500000Y-52200000D01*
X78500000Y-66200000D02*
X79500000Y-66200000D01*
X78500000Y-53200000D02*
X78500000Y-52200000D01*
X110500000Y-52200000D02*
X110500000Y-53200000D01*
X109500000Y-66200000D02*
X110500000Y-66200000D01*
X110500000Y-52200000D02*
X109500000Y-52200000D01*
X110500000Y-65200000D02*
X110500000Y-66200000D01*
X96500000Y-66200000D02*
X96500000Y-65200000D01*
X97500000Y-52200000D02*
X96500000Y-52200000D01*
X96500000Y-66200000D02*
X97500000Y-66200000D01*
X96500000Y-53200000D02*
X96500000Y-52200000D01*
X128500000Y-52200000D02*
X128500000Y-53200000D01*
X127500000Y-66200000D02*
X128500000Y-66200000D01*
X128500000Y-52200000D02*
X127500000Y-52200000D01*
X128500000Y-65200000D02*
X128500000Y-66200000D01*
X114500000Y-66200000D02*
X114500000Y-65200000D01*
X115500000Y-52200000D02*
X114500000Y-52200000D01*
X114500000Y-66200000D02*
X115500000Y-66200000D01*
X114500000Y-53200000D02*
X114500000Y-52200000D01*
X146500000Y-52200000D02*
X146500000Y-53200000D01*
X145500000Y-66200000D02*
X146500000Y-66200000D01*
X146500000Y-52200000D02*
X145500000Y-52200000D01*
X146500000Y-65200000D02*
X146500000Y-66200000D01*
X132500000Y-66200000D02*
X132500000Y-65200000D01*
X133500000Y-52200000D02*
X132500000Y-52200000D01*
X132500000Y-66200000D02*
X133500000Y-66200000D01*
X132500000Y-53200000D02*
X132500000Y-52200000D01*
X164500000Y-52200000D02*
X164500000Y-53200000D01*
X163500000Y-66200000D02*
X164500000Y-66200000D01*
X164500000Y-52200000D02*
X163500000Y-52200000D01*
X164500000Y-65200000D02*
X164500000Y-66200000D01*
X150500000Y-66200000D02*
X150500000Y-65200000D01*
X151500000Y-52200000D02*
X150500000Y-52200000D01*
X150500000Y-66200000D02*
X151500000Y-66200000D01*
X150500000Y-53200000D02*
X150500000Y-52200000D01*
X182500000Y-52200000D02*
X182500000Y-53200000D01*
X181500000Y-66200000D02*
X182500000Y-66200000D01*
X182500000Y-52200000D02*
X181500000Y-52200000D01*
X182500000Y-65200000D02*
X182500000Y-66200000D01*
X168500000Y-66200000D02*
X168500000Y-65200000D01*
X169500000Y-52200000D02*
X168500000Y-52200000D01*
X168500000Y-66200000D02*
X169500000Y-66200000D01*
X168500000Y-53200000D02*
X168500000Y-52200000D01*
X200500000Y-52200000D02*
X200500000Y-53200000D01*
X199500000Y-66200000D02*
X200500000Y-66200000D01*
X200500000Y-52200000D02*
X199500000Y-52200000D01*
X200500000Y-65200000D02*
X200500000Y-66200000D01*
X186500000Y-66200000D02*
X186500000Y-65200000D01*
X187500000Y-52200000D02*
X186500000Y-52200000D01*
X186500000Y-66200000D02*
X187500000Y-66200000D01*
X186500000Y-53200000D02*
X186500000Y-52200000D01*
X218500000Y-52200000D02*
X218500000Y-53200000D01*
X217500000Y-66200000D02*
X218500000Y-66200000D01*
X218500000Y-52200000D02*
X217500000Y-52200000D01*
X218500000Y-65200000D02*
X218500000Y-66200000D01*
X204500000Y-66200000D02*
X204500000Y-65200000D01*
X205500000Y-52200000D02*
X204500000Y-52200000D01*
X204500000Y-66200000D02*
X205500000Y-66200000D01*
X204500000Y-53200000D02*
X204500000Y-52200000D01*
X241000000Y-52200000D02*
X241000000Y-53200000D01*
X240000000Y-66200000D02*
X241000000Y-66200000D01*
X241000000Y-52200000D02*
X240000000Y-52200000D01*
X241000000Y-65200000D02*
X241000000Y-66200000D01*
X227000000Y-66200000D02*
X227000000Y-65200000D01*
X228000000Y-52200000D02*
X227000000Y-52200000D01*
X227000000Y-66200000D02*
X228000000Y-66200000D01*
X227000000Y-53200000D02*
X227000000Y-52200000D01*
X268000000Y-52200000D02*
X268000000Y-53200000D01*
X267000000Y-66200000D02*
X268000000Y-66200000D01*
X268000000Y-52200000D02*
X267000000Y-52200000D01*
X268000000Y-65200000D02*
X268000000Y-66200000D01*
X254000000Y-66200000D02*
X254000000Y-65200000D01*
X255000000Y-52200000D02*
X254000000Y-52200000D01*
X254000000Y-66200000D02*
X255000000Y-66200000D01*
X254000000Y-53200000D02*
X254000000Y-52200000D01*
X7000000Y-69200000D02*
X7000000Y-70200000D01*
X6000000Y-83200000D02*
X7000000Y-83200000D01*
X7000000Y-69200000D02*
X6000000Y-69200000D01*
X7000000Y-82200000D02*
X7000000Y-83200000D01*
X-7000000Y-83200000D02*
X-7000000Y-82200000D01*
X-6000000Y-69200000D02*
X-7000000Y-69200000D01*
X-7000000Y-83200000D02*
X-6000000Y-83200000D01*
X-7000000Y-70200000D02*
X-7000000Y-69200000D01*
X29500000Y-69200000D02*
X29500000Y-70200000D01*
X28500000Y-83200000D02*
X29500000Y-83200000D01*
X29500000Y-69200000D02*
X28500000Y-69200000D01*
X29500000Y-82200000D02*
X29500000Y-83200000D01*
X15500000Y-83200000D02*
X15500000Y-82200000D01*
X16500000Y-69200000D02*
X15500000Y-69200000D01*
X15500000Y-83200000D02*
X16500000Y-83200000D01*
X15500000Y-70200000D02*
X15500000Y-69200000D01*
X47500000Y-69200000D02*
X47500000Y-70200000D01*
X46500000Y-83200000D02*
X47500000Y-83200000D01*
X47500000Y-69200000D02*
X46500000Y-69200000D01*
X47500000Y-82200000D02*
X47500000Y-83200000D01*
X33500000Y-83200000D02*
X33500000Y-82200000D01*
X34500000Y-69200000D02*
X33500000Y-69200000D01*
X33500000Y-83200000D02*
X34500000Y-83200000D01*
X33500000Y-70200000D02*
X33500000Y-69200000D01*
X65500000Y-69200000D02*
X65500000Y-70200000D01*
X64500000Y-83200000D02*
X65500000Y-83200000D01*
X65500000Y-69200000D02*
X64500000Y-69200000D01*
X65500000Y-82200000D02*
X65500000Y-83200000D01*
X51500000Y-83200000D02*
X51500000Y-82200000D01*
X52500000Y-69200000D02*
X51500000Y-69200000D01*
X51500000Y-83200000D02*
X52500000Y-83200000D01*
X51500000Y-70200000D02*
X51500000Y-69200000D01*
X83500000Y-69200000D02*
X83500000Y-70200000D01*
X82500000Y-83200000D02*
X83500000Y-83200000D01*
X83500000Y-69200000D02*
X82500000Y-69200000D01*
X83500000Y-82200000D02*
X83500000Y-83200000D01*
X69500000Y-83200000D02*
X69500000Y-82200000D01*
X70500000Y-69200000D02*
X69500000Y-69200000D01*
X69500000Y-83200000D02*
X70500000Y-83200000D01*
X69500000Y-70200000D02*
X69500000Y-69200000D01*
X112000000Y-69200000D02*
X112000000Y-70200000D01*
X111000000Y-83200000D02*
X112000000Y-83200000D01*
X112000000Y-69200000D02*
X111000000Y-69200000D01*
X112000000Y-82200000D02*
X112000000Y-83200000D01*
X98000000Y-83200000D02*
X98000000Y-82200000D01*
X99000000Y-69200000D02*
X98000000Y-69200000D01*
X98000000Y-83200000D02*
X99000000Y-83200000D01*
X98000000Y-70200000D02*
X98000000Y-69200000D01*
X145000000Y-69200000D02*
X145000000Y-70200000D01*
X144000000Y-83200000D02*
X145000000Y-83200000D01*
X145000000Y-69200000D02*
X144000000Y-69200000D01*
X145000000Y-82200000D02*
X145000000Y-83200000D01*
X131000000Y-83200000D02*
X131000000Y-82200000D01*
X132000000Y-69200000D02*
X131000000Y-69200000D01*
X131000000Y-83200000D02*
X132000000Y-83200000D01*
X131000000Y-70200000D02*
X131000000Y-69200000D01*
X173500000Y-69200000D02*
X173500000Y-70200000D01*
X172500000Y-83200000D02*
X173500000Y-83200000D01*
X173500000Y-69200000D02*
X172500000Y-69200000D01*
X173500000Y-82200000D02*
X173500000Y-83200000D01*
X159500000Y-83200000D02*
X159500000Y-82200000D01*
X160500000Y-69200000D02*
X159500000Y-69200000D01*
X159500000Y-83200000D02*
X160500000Y-83200000D01*
X159500000Y-70200000D02*
X159500000Y-69200000D01*
X191500000Y-69200000D02*
X191500000Y-70200000D01*
X190500000Y-83200000D02*
X191500000Y-83200000D01*
X191500000Y-69200000D02*
X190500000Y-69200000D01*
X191500000Y-82200000D02*
X191500000Y-83200000D01*
X177500000Y-83200000D02*
X177500000Y-82200000D01*
X178500000Y-69200000D02*
X177500000Y-69200000D01*
X177500000Y-83200000D02*
X178500000Y-83200000D01*
X177500000Y-70200000D02*
X177500000Y-69200000D01*
X209500000Y-69200000D02*
X209500000Y-70200000D01*
X208500000Y-83200000D02*
X209500000Y-83200000D01*
X209500000Y-69200000D02*
X208500000Y-69200000D01*
X209500000Y-82200000D02*
X209500000Y-83200000D01*
X195500000Y-83200000D02*
X195500000Y-82200000D01*
X196500000Y-69200000D02*
X195500000Y-69200000D01*
X195500000Y-83200000D02*
X196500000Y-83200000D01*
X195500000Y-70200000D02*
X195500000Y-69200000D01*
X227500000Y-69200000D02*
X227500000Y-70200000D01*
X226500000Y-83200000D02*
X227500000Y-83200000D01*
X227500000Y-69200000D02*
X226500000Y-69200000D01*
X227500000Y-82200000D02*
X227500000Y-83200000D01*
X213500000Y-83200000D02*
X213500000Y-82200000D01*
X214500000Y-69200000D02*
X213500000Y-69200000D01*
X213500000Y-83200000D02*
X214500000Y-83200000D01*
X213500000Y-70200000D02*
X213500000Y-69200000D01*
X250000000Y-69200000D02*
X250000000Y-70200000D01*
X249000000Y-83200000D02*
X250000000Y-83200000D01*
X250000000Y-69200000D02*
X249000000Y-69200000D01*
X250000000Y-82200000D02*
X250000000Y-83200000D01*
X236000000Y-83200000D02*
X236000000Y-82200000D01*
X237000000Y-69200000D02*
X236000000Y-69200000D01*
X236000000Y-83200000D02*
X237000000Y-83200000D01*
X236000000Y-70200000D02*
X236000000Y-69200000D01*
X268000000Y-69200000D02*
X268000000Y-70200000D01*
X267000000Y-83200000D02*
X268000000Y-83200000D01*
X268000000Y-69200000D02*
X267000000Y-69200000D01*
X268000000Y-82200000D02*
X268000000Y-83200000D01*
X254000000Y-83200000D02*
X254000000Y-82200000D01*
X255000000Y-69200000D02*
X254000000Y-69200000D01*
X254000000Y-83200000D02*
X255000000Y-83200000D01*
X254000000Y-70200000D02*
X254000000Y-69200000D01*
X286000000Y-69200000D02*
X286000000Y-70200000D01*
X285000000Y-83200000D02*
X286000000Y-83200000D01*
X286000000Y-69200000D02*
X285000000Y-69200000D01*
X286000000Y-82200000D02*
X286000000Y-83200000D01*
X272000000Y-83200000D02*
X272000000Y-82200000D01*
X273000000Y-69200000D02*
X272000000Y-69200000D01*
X272000000Y-83200000D02*
X273000000Y-83200000D01*
X272000000Y-70200000D02*
X272000000Y-69200000D01*
X243250000Y-52200000D02*
X243250000Y-53200000D01*
X242250000Y-66200000D02*
X243250000Y-66200000D01*
X243250000Y-52200000D02*
X242250000Y-52200000D01*
X243250000Y-65200000D02*
X243250000Y-66200000D01*
X229250000Y-66200000D02*
X229250000Y-65200000D01*
X230250000Y-52200000D02*
X229250000Y-52200000D01*
X229250000Y-66200000D02*
X230250000Y-66200000D01*
X229250000Y-53200000D02*
X229250000Y-52200000D01*
X31750000Y-52200000D02*
X31750000Y-53200000D01*
X30750000Y-66200000D02*
X31750000Y-66200000D01*
X31750000Y-52200000D02*
X30750000Y-52200000D01*
X31750000Y-65200000D02*
X31750000Y-66200000D01*
X17750000Y-66200000D02*
X17750000Y-65200000D01*
X18750000Y-52200000D02*
X17750000Y-52200000D01*
X17750000Y-66200000D02*
X18750000Y-66200000D01*
X17750000Y-53200000D02*
X17750000Y-52200000D01*
X9250000Y-69200000D02*
X9250000Y-70200000D01*
X8250000Y-83200000D02*
X9250000Y-83200000D01*
X9250000Y-69200000D02*
X8250000Y-69200000D01*
X9250000Y-82200000D02*
X9250000Y-83200000D01*
X-4750000Y-83200000D02*
X-4750000Y-82200000D01*
X-3750000Y-69200000D02*
X-4750000Y-69200000D01*
X-4750000Y-83200000D02*
X-3750000Y-83200000D01*
X-4750000Y-70200000D02*
X-4750000Y-69200000D01*
X229750000Y-69200000D02*
X229750000Y-70200000D01*
X228750000Y-83200000D02*
X229750000Y-83200000D01*
X229750000Y-69200000D02*
X228750000Y-69200000D01*
X229750000Y-82200000D02*
X229750000Y-83200000D01*
X215750000Y-83200000D02*
X215750000Y-82200000D01*
X216750000Y-69200000D02*
X215750000Y-69200000D01*
X215750000Y-83200000D02*
X216750000Y-83200000D01*
X215750000Y-70200000D02*
X215750000Y-69200000D01*
D11*
X23500000Y-36540000D02*
X20815000Y-36540000D01*
X20815000Y-36540000D02*
X20815000Y-38460000D01*
X20815000Y-38460000D02*
X23500000Y-38460000D01*
D10*
X-1142857Y-3524761D02*
X-1000000Y-3572380D01*
X-761904Y-3572380D01*
X-666666Y-3524761D01*
X-619047Y-3477142D01*
X-571428Y-3381904D01*
X-571428Y-3286666D01*
X-619047Y-3191428D01*
X-666666Y-3143809D01*
X-761904Y-3096190D01*
X-952380Y-3048571D01*
X-1047619Y-3000952D01*
X-1095238Y-2953333D01*
X-1142857Y-2858095D01*
X-1142857Y-2762857D01*
X-1095238Y-2667619D01*
X-1047619Y-2620000D01*
X-952380Y-2572380D01*
X-714285Y-2572380D01*
X-571428Y-2620000D01*
X-380952Y-3667619D02*
X380952Y-3667619D01*
X1142857Y-3572380D02*
X571428Y-3572380D01*
X857142Y-3572380D02*
X857142Y-2572380D01*
X761904Y-2715238D01*
X666666Y-2810476D01*
X571428Y-2858095D01*
X21357142Y-3524761D02*
X21500000Y-3572380D01*
X21738095Y-3572380D01*
X21833333Y-3524761D01*
X21880952Y-3477142D01*
X21928571Y-3381904D01*
X21928571Y-3286666D01*
X21880952Y-3191428D01*
X21833333Y-3143809D01*
X21738095Y-3096190D01*
X21547619Y-3048571D01*
X21452380Y-3000952D01*
X21404761Y-2953333D01*
X21357142Y-2858095D01*
X21357142Y-2762857D01*
X21404761Y-2667619D01*
X21452380Y-2620000D01*
X21547619Y-2572380D01*
X21785714Y-2572380D01*
X21928571Y-2620000D01*
X22119047Y-3667619D02*
X22880952Y-3667619D01*
X23071428Y-2667619D02*
X23119047Y-2620000D01*
X23214285Y-2572380D01*
X23452380Y-2572380D01*
X23547619Y-2620000D01*
X23595238Y-2667619D01*
X23642857Y-2762857D01*
X23642857Y-2858095D01*
X23595238Y-3000952D01*
X23023809Y-3572380D01*
X23642857Y-3572380D01*
X39357142Y-3524761D02*
X39500000Y-3572380D01*
X39738095Y-3572380D01*
X39833333Y-3524761D01*
X39880952Y-3477142D01*
X39928571Y-3381904D01*
X39928571Y-3286666D01*
X39880952Y-3191428D01*
X39833333Y-3143809D01*
X39738095Y-3096190D01*
X39547619Y-3048571D01*
X39452380Y-3000952D01*
X39404761Y-2953333D01*
X39357142Y-2858095D01*
X39357142Y-2762857D01*
X39404761Y-2667619D01*
X39452380Y-2620000D01*
X39547619Y-2572380D01*
X39785714Y-2572380D01*
X39928571Y-2620000D01*
X40119047Y-3667619D02*
X40880952Y-3667619D01*
X41023809Y-2572380D02*
X41642857Y-2572380D01*
X41309523Y-2953333D01*
X41452380Y-2953333D01*
X41547619Y-3000952D01*
X41595238Y-3048571D01*
X41642857Y-3143809D01*
X41642857Y-3381904D01*
X41595238Y-3477142D01*
X41547619Y-3524761D01*
X41452380Y-3572380D01*
X41166666Y-3572380D01*
X41071428Y-3524761D01*
X41023809Y-3477142D01*
X57357142Y-3524761D02*
X57500000Y-3572380D01*
X57738095Y-3572380D01*
X57833333Y-3524761D01*
X57880952Y-3477142D01*
X57928571Y-3381904D01*
X57928571Y-3286666D01*
X57880952Y-3191428D01*
X57833333Y-3143809D01*
X57738095Y-3096190D01*
X57547619Y-3048571D01*
X57452380Y-3000952D01*
X57404761Y-2953333D01*
X57357142Y-2858095D01*
X57357142Y-2762857D01*
X57404761Y-2667619D01*
X57452380Y-2620000D01*
X57547619Y-2572380D01*
X57785714Y-2572380D01*
X57928571Y-2620000D01*
X58119047Y-3667619D02*
X58880952Y-3667619D01*
X59547619Y-2905714D02*
X59547619Y-3572380D01*
X59309523Y-2524761D02*
X59071428Y-3239047D01*
X59690476Y-3239047D01*
X75357142Y-3524761D02*
X75500000Y-3572380D01*
X75738095Y-3572380D01*
X75833333Y-3524761D01*
X75880952Y-3477142D01*
X75928571Y-3381904D01*
X75928571Y-3286666D01*
X75880952Y-3191428D01*
X75833333Y-3143809D01*
X75738095Y-3096190D01*
X75547619Y-3048571D01*
X75452380Y-3000952D01*
X75404761Y-2953333D01*
X75357142Y-2858095D01*
X75357142Y-2762857D01*
X75404761Y-2667619D01*
X75452380Y-2620000D01*
X75547619Y-2572380D01*
X75785714Y-2572380D01*
X75928571Y-2620000D01*
X76119047Y-3667619D02*
X76880952Y-3667619D01*
X77595238Y-2572380D02*
X77119047Y-2572380D01*
X77071428Y-3048571D01*
X77119047Y-3000952D01*
X77214285Y-2953333D01*
X77452380Y-2953333D01*
X77547619Y-3000952D01*
X77595238Y-3048571D01*
X77642857Y-3143809D01*
X77642857Y-3381904D01*
X77595238Y-3477142D01*
X77547619Y-3524761D01*
X77452380Y-3572380D01*
X77214285Y-3572380D01*
X77119047Y-3524761D01*
X77071428Y-3477142D01*
X93357142Y-3524761D02*
X93500000Y-3572380D01*
X93738095Y-3572380D01*
X93833333Y-3524761D01*
X93880952Y-3477142D01*
X93928571Y-3381904D01*
X93928571Y-3286666D01*
X93880952Y-3191428D01*
X93833333Y-3143809D01*
X93738095Y-3096190D01*
X93547619Y-3048571D01*
X93452380Y-3000952D01*
X93404761Y-2953333D01*
X93357142Y-2858095D01*
X93357142Y-2762857D01*
X93404761Y-2667619D01*
X93452380Y-2620000D01*
X93547619Y-2572380D01*
X93785714Y-2572380D01*
X93928571Y-2620000D01*
X94119047Y-3667619D02*
X94880952Y-3667619D01*
X95547619Y-2572380D02*
X95357142Y-2572380D01*
X95261904Y-2620000D01*
X95214285Y-2667619D01*
X95119047Y-2810476D01*
X95071428Y-3000952D01*
X95071428Y-3381904D01*
X95119047Y-3477142D01*
X95166666Y-3524761D01*
X95261904Y-3572380D01*
X95452380Y-3572380D01*
X95547619Y-3524761D01*
X95595238Y-3477142D01*
X95642857Y-3381904D01*
X95642857Y-3143809D01*
X95595238Y-3048571D01*
X95547619Y-3000952D01*
X95452380Y-2953333D01*
X95261904Y-2953333D01*
X95166666Y-3000952D01*
X95119047Y-3048571D01*
X95071428Y-3143809D01*
X111357142Y-3524761D02*
X111500000Y-3572380D01*
X111738095Y-3572380D01*
X111833333Y-3524761D01*
X111880952Y-3477142D01*
X111928571Y-3381904D01*
X111928571Y-3286666D01*
X111880952Y-3191428D01*
X111833333Y-3143809D01*
X111738095Y-3096190D01*
X111547619Y-3048571D01*
X111452380Y-3000952D01*
X111404761Y-2953333D01*
X111357142Y-2858095D01*
X111357142Y-2762857D01*
X111404761Y-2667619D01*
X111452380Y-2620000D01*
X111547619Y-2572380D01*
X111785714Y-2572380D01*
X111928571Y-2620000D01*
X112119047Y-3667619D02*
X112880952Y-3667619D01*
X113023809Y-2572380D02*
X113690476Y-2572380D01*
X113261904Y-3572380D01*
X129357142Y-3524761D02*
X129500000Y-3572380D01*
X129738095Y-3572380D01*
X129833333Y-3524761D01*
X129880952Y-3477142D01*
X129928571Y-3381904D01*
X129928571Y-3286666D01*
X129880952Y-3191428D01*
X129833333Y-3143809D01*
X129738095Y-3096190D01*
X129547619Y-3048571D01*
X129452380Y-3000952D01*
X129404761Y-2953333D01*
X129357142Y-2858095D01*
X129357142Y-2762857D01*
X129404761Y-2667619D01*
X129452380Y-2620000D01*
X129547619Y-2572380D01*
X129785714Y-2572380D01*
X129928571Y-2620000D01*
X130119047Y-3667619D02*
X130880952Y-3667619D01*
X131261904Y-3000952D02*
X131166666Y-2953333D01*
X131119047Y-2905714D01*
X131071428Y-2810476D01*
X131071428Y-2762857D01*
X131119047Y-2667619D01*
X131166666Y-2620000D01*
X131261904Y-2572380D01*
X131452380Y-2572380D01*
X131547619Y-2620000D01*
X131595238Y-2667619D01*
X131642857Y-2762857D01*
X131642857Y-2810476D01*
X131595238Y-2905714D01*
X131547619Y-2953333D01*
X131452380Y-3000952D01*
X131261904Y-3000952D01*
X131166666Y-3048571D01*
X131119047Y-3096190D01*
X131071428Y-3191428D01*
X131071428Y-3381904D01*
X131119047Y-3477142D01*
X131166666Y-3524761D01*
X131261904Y-3572380D01*
X131452380Y-3572380D01*
X131547619Y-3524761D01*
X131595238Y-3477142D01*
X131642857Y-3381904D01*
X131642857Y-3191428D01*
X131595238Y-3096190D01*
X131547619Y-3048571D01*
X131452380Y-3000952D01*
X147357142Y-3524761D02*
X147500000Y-3572380D01*
X147738095Y-3572380D01*
X147833333Y-3524761D01*
X147880952Y-3477142D01*
X147928571Y-3381904D01*
X147928571Y-3286666D01*
X147880952Y-3191428D01*
X147833333Y-3143809D01*
X147738095Y-3096190D01*
X147547619Y-3048571D01*
X147452380Y-3000952D01*
X147404761Y-2953333D01*
X147357142Y-2858095D01*
X147357142Y-2762857D01*
X147404761Y-2667619D01*
X147452380Y-2620000D01*
X147547619Y-2572380D01*
X147785714Y-2572380D01*
X147928571Y-2620000D01*
X148119047Y-3667619D02*
X148880952Y-3667619D01*
X149166666Y-3572380D02*
X149357142Y-3572380D01*
X149452380Y-3524761D01*
X149500000Y-3477142D01*
X149595238Y-3334285D01*
X149642857Y-3143809D01*
X149642857Y-2762857D01*
X149595238Y-2667619D01*
X149547619Y-2620000D01*
X149452380Y-2572380D01*
X149261904Y-2572380D01*
X149166666Y-2620000D01*
X149119047Y-2667619D01*
X149071428Y-2762857D01*
X149071428Y-3000952D01*
X149119047Y-3096190D01*
X149166666Y-3143809D01*
X149261904Y-3191428D01*
X149452380Y-3191428D01*
X149547619Y-3143809D01*
X149595238Y-3096190D01*
X149642857Y-3000952D01*
X164880952Y-3524761D02*
X165023809Y-3572380D01*
X165261904Y-3572380D01*
X165357142Y-3524761D01*
X165404761Y-3477142D01*
X165452380Y-3381904D01*
X165452380Y-3286666D01*
X165404761Y-3191428D01*
X165357142Y-3143809D01*
X165261904Y-3096190D01*
X165071428Y-3048571D01*
X164976190Y-3000952D01*
X164928571Y-2953333D01*
X164880952Y-2858095D01*
X164880952Y-2762857D01*
X164928571Y-2667619D01*
X164976190Y-2620000D01*
X165071428Y-2572380D01*
X165309523Y-2572380D01*
X165452380Y-2620000D01*
X165642857Y-3667619D02*
X166404761Y-3667619D01*
X167166666Y-3572380D02*
X166595238Y-3572380D01*
X166880952Y-3572380D02*
X166880952Y-2572380D01*
X166785714Y-2715238D01*
X166690476Y-2810476D01*
X166595238Y-2858095D01*
X167785714Y-2572380D02*
X167880952Y-2572380D01*
X167976190Y-2620000D01*
X168023809Y-2667619D01*
X168071428Y-2762857D01*
X168119047Y-2953333D01*
X168119047Y-3191428D01*
X168071428Y-3381904D01*
X168023809Y-3477142D01*
X167976190Y-3524761D01*
X167880952Y-3572380D01*
X167785714Y-3572380D01*
X167690476Y-3524761D01*
X167642857Y-3477142D01*
X167595238Y-3381904D01*
X167547619Y-3191428D01*
X167547619Y-2953333D01*
X167595238Y-2762857D01*
X167642857Y-2667619D01*
X167690476Y-2620000D01*
X167785714Y-2572380D01*
X182880952Y-3524761D02*
X183023809Y-3572380D01*
X183261904Y-3572380D01*
X183357142Y-3524761D01*
X183404761Y-3477142D01*
X183452380Y-3381904D01*
X183452380Y-3286666D01*
X183404761Y-3191428D01*
X183357142Y-3143809D01*
X183261904Y-3096190D01*
X183071428Y-3048571D01*
X182976190Y-3000952D01*
X182928571Y-2953333D01*
X182880952Y-2858095D01*
X182880952Y-2762857D01*
X182928571Y-2667619D01*
X182976190Y-2620000D01*
X183071428Y-2572380D01*
X183309523Y-2572380D01*
X183452380Y-2620000D01*
X183642857Y-3667619D02*
X184404761Y-3667619D01*
X185166666Y-3572380D02*
X184595238Y-3572380D01*
X184880952Y-3572380D02*
X184880952Y-2572380D01*
X184785714Y-2715238D01*
X184690476Y-2810476D01*
X184595238Y-2858095D01*
X186119047Y-3572380D02*
X185547619Y-3572380D01*
X185833333Y-3572380D02*
X185833333Y-2572380D01*
X185738095Y-2715238D01*
X185642857Y-2810476D01*
X185547619Y-2858095D01*
X200880952Y-3524761D02*
X201023809Y-3572380D01*
X201261904Y-3572380D01*
X201357142Y-3524761D01*
X201404761Y-3477142D01*
X201452380Y-3381904D01*
X201452380Y-3286666D01*
X201404761Y-3191428D01*
X201357142Y-3143809D01*
X201261904Y-3096190D01*
X201071428Y-3048571D01*
X200976190Y-3000952D01*
X200928571Y-2953333D01*
X200880952Y-2858095D01*
X200880952Y-2762857D01*
X200928571Y-2667619D01*
X200976190Y-2620000D01*
X201071428Y-2572380D01*
X201309523Y-2572380D01*
X201452380Y-2620000D01*
X201642857Y-3667619D02*
X202404761Y-3667619D01*
X203166666Y-3572380D02*
X202595238Y-3572380D01*
X202880952Y-3572380D02*
X202880952Y-2572380D01*
X202785714Y-2715238D01*
X202690476Y-2810476D01*
X202595238Y-2858095D01*
X203547619Y-2667619D02*
X203595238Y-2620000D01*
X203690476Y-2572380D01*
X203928571Y-2572380D01*
X204023809Y-2620000D01*
X204071428Y-2667619D01*
X204119047Y-2762857D01*
X204119047Y-2858095D01*
X204071428Y-3000952D01*
X203500000Y-3572380D01*
X204119047Y-3572380D01*
X218880952Y-3524761D02*
X219023809Y-3572380D01*
X219261904Y-3572380D01*
X219357142Y-3524761D01*
X219404761Y-3477142D01*
X219452380Y-3381904D01*
X219452380Y-3286666D01*
X219404761Y-3191428D01*
X219357142Y-3143809D01*
X219261904Y-3096190D01*
X219071428Y-3048571D01*
X218976190Y-3000952D01*
X218928571Y-2953333D01*
X218880952Y-2858095D01*
X218880952Y-2762857D01*
X218928571Y-2667619D01*
X218976190Y-2620000D01*
X219071428Y-2572380D01*
X219309523Y-2572380D01*
X219452380Y-2620000D01*
X219642857Y-3667619D02*
X220404761Y-3667619D01*
X221166666Y-3572380D02*
X220595238Y-3572380D01*
X220880952Y-3572380D02*
X220880952Y-2572380D01*
X220785714Y-2715238D01*
X220690476Y-2810476D01*
X220595238Y-2858095D01*
X221500000Y-2572380D02*
X222119047Y-2572380D01*
X221785714Y-2953333D01*
X221928571Y-2953333D01*
X222023809Y-3000952D01*
X222071428Y-3048571D01*
X222119047Y-3143809D01*
X222119047Y-3381904D01*
X222071428Y-3477142D01*
X222023809Y-3524761D01*
X221928571Y-3572380D01*
X221642857Y-3572380D01*
X221547619Y-3524761D01*
X221500000Y-3477142D01*
X236880952Y-3524761D02*
X237023809Y-3572380D01*
X237261904Y-3572380D01*
X237357142Y-3524761D01*
X237404761Y-3477142D01*
X237452380Y-3381904D01*
X237452380Y-3286666D01*
X237404761Y-3191428D01*
X237357142Y-3143809D01*
X237261904Y-3096190D01*
X237071428Y-3048571D01*
X236976190Y-3000952D01*
X236928571Y-2953333D01*
X236880952Y-2858095D01*
X236880952Y-2762857D01*
X236928571Y-2667619D01*
X236976190Y-2620000D01*
X237071428Y-2572380D01*
X237309523Y-2572380D01*
X237452380Y-2620000D01*
X237642857Y-3667619D02*
X238404761Y-3667619D01*
X239166666Y-3572380D02*
X238595238Y-3572380D01*
X238880952Y-3572380D02*
X238880952Y-2572380D01*
X238785714Y-2715238D01*
X238690476Y-2810476D01*
X238595238Y-2858095D01*
X240023809Y-2905714D02*
X240023809Y-3572380D01*
X239785714Y-2524761D02*
X239547619Y-3239047D01*
X240166666Y-3239047D01*
X259380952Y-3524761D02*
X259523809Y-3572380D01*
X259761904Y-3572380D01*
X259857142Y-3524761D01*
X259904761Y-3477142D01*
X259952380Y-3381904D01*
X259952380Y-3286666D01*
X259904761Y-3191428D01*
X259857142Y-3143809D01*
X259761904Y-3096190D01*
X259571428Y-3048571D01*
X259476190Y-3000952D01*
X259428571Y-2953333D01*
X259380952Y-2858095D01*
X259380952Y-2762857D01*
X259428571Y-2667619D01*
X259476190Y-2620000D01*
X259571428Y-2572380D01*
X259809523Y-2572380D01*
X259952380Y-2620000D01*
X260142857Y-3667619D02*
X260904761Y-3667619D01*
X261666666Y-3572380D02*
X261095238Y-3572380D01*
X261380952Y-3572380D02*
X261380952Y-2572380D01*
X261285714Y-2715238D01*
X261190476Y-2810476D01*
X261095238Y-2858095D01*
X262571428Y-2572380D02*
X262095238Y-2572380D01*
X262047619Y-3048571D01*
X262095238Y-3000952D01*
X262190476Y-2953333D01*
X262428571Y-2953333D01*
X262523809Y-3000952D01*
X262571428Y-3048571D01*
X262619047Y-3143809D01*
X262619047Y-3381904D01*
X262571428Y-3477142D01*
X262523809Y-3524761D01*
X262428571Y-3572380D01*
X262190476Y-3572380D01*
X262095238Y-3524761D01*
X262047619Y-3477142D01*
X277380952Y-3524761D02*
X277523809Y-3572380D01*
X277761904Y-3572380D01*
X277857142Y-3524761D01*
X277904761Y-3477142D01*
X277952380Y-3381904D01*
X277952380Y-3286666D01*
X277904761Y-3191428D01*
X277857142Y-3143809D01*
X277761904Y-3096190D01*
X277571428Y-3048571D01*
X277476190Y-3000952D01*
X277428571Y-2953333D01*
X277380952Y-2858095D01*
X277380952Y-2762857D01*
X277428571Y-2667619D01*
X277476190Y-2620000D01*
X277571428Y-2572380D01*
X277809523Y-2572380D01*
X277952380Y-2620000D01*
X278142857Y-3667619D02*
X278904761Y-3667619D01*
X279666666Y-3572380D02*
X279095238Y-3572380D01*
X279380952Y-3572380D02*
X279380952Y-2572380D01*
X279285714Y-2715238D01*
X279190476Y-2810476D01*
X279095238Y-2858095D01*
X280523809Y-2572380D02*
X280333333Y-2572380D01*
X280238095Y-2620000D01*
X280190476Y-2667619D01*
X280095238Y-2810476D01*
X280047619Y-3000952D01*
X280047619Y-3381904D01*
X280095238Y-3477142D01*
X280142857Y-3524761D01*
X280238095Y-3572380D01*
X280428571Y-3572380D01*
X280523809Y-3524761D01*
X280571428Y-3477142D01*
X280619047Y-3381904D01*
X280619047Y-3143809D01*
X280571428Y-3048571D01*
X280523809Y-3000952D01*
X280428571Y-2953333D01*
X280238095Y-2953333D01*
X280142857Y-3000952D01*
X280095238Y-3048571D01*
X280047619Y-3143809D01*
X-1619047Y-20524761D02*
X-1476190Y-20572380D01*
X-1238095Y-20572380D01*
X-1142857Y-20524761D01*
X-1095238Y-20477142D01*
X-1047619Y-20381904D01*
X-1047619Y-20286666D01*
X-1095238Y-20191428D01*
X-1142857Y-20143809D01*
X-1238095Y-20096190D01*
X-1428571Y-20048571D01*
X-1523809Y-20000952D01*
X-1571428Y-19953333D01*
X-1619047Y-19858095D01*
X-1619047Y-19762857D01*
X-1571428Y-19667619D01*
X-1523809Y-19620000D01*
X-1428571Y-19572380D01*
X-1190476Y-19572380D01*
X-1047619Y-19620000D01*
X-857142Y-20667619D02*
X-95238Y-20667619D01*
X666666Y-20572380D02*
X95238Y-20572380D01*
X380952Y-20572380D02*
X380952Y-19572380D01*
X285714Y-19715238D01*
X190476Y-19810476D01*
X95238Y-19858095D01*
X1000000Y-19572380D02*
X1666666Y-19572380D01*
X1238095Y-20572380D01*
X20880952Y-20524761D02*
X21023809Y-20572380D01*
X21261904Y-20572380D01*
X21357142Y-20524761D01*
X21404761Y-20477142D01*
X21452380Y-20381904D01*
X21452380Y-20286666D01*
X21404761Y-20191428D01*
X21357142Y-20143809D01*
X21261904Y-20096190D01*
X21071428Y-20048571D01*
X20976190Y-20000952D01*
X20928571Y-19953333D01*
X20880952Y-19858095D01*
X20880952Y-19762857D01*
X20928571Y-19667619D01*
X20976190Y-19620000D01*
X21071428Y-19572380D01*
X21309523Y-19572380D01*
X21452380Y-19620000D01*
X21642857Y-20667619D02*
X22404761Y-20667619D01*
X23166666Y-20572380D02*
X22595238Y-20572380D01*
X22880952Y-20572380D02*
X22880952Y-19572380D01*
X22785714Y-19715238D01*
X22690476Y-19810476D01*
X22595238Y-19858095D01*
X23738095Y-20000952D02*
X23642857Y-19953333D01*
X23595238Y-19905714D01*
X23547619Y-19810476D01*
X23547619Y-19762857D01*
X23595238Y-19667619D01*
X23642857Y-19620000D01*
X23738095Y-19572380D01*
X23928571Y-19572380D01*
X24023809Y-19620000D01*
X24071428Y-19667619D01*
X24119047Y-19762857D01*
X24119047Y-19810476D01*
X24071428Y-19905714D01*
X24023809Y-19953333D01*
X23928571Y-20000952D01*
X23738095Y-20000952D01*
X23642857Y-20048571D01*
X23595238Y-20096190D01*
X23547619Y-20191428D01*
X23547619Y-20381904D01*
X23595238Y-20477142D01*
X23642857Y-20524761D01*
X23738095Y-20572380D01*
X23928571Y-20572380D01*
X24023809Y-20524761D01*
X24071428Y-20477142D01*
X24119047Y-20381904D01*
X24119047Y-20191428D01*
X24071428Y-20096190D01*
X24023809Y-20048571D01*
X23928571Y-20000952D01*
X38880952Y-20524761D02*
X39023809Y-20572380D01*
X39261904Y-20572380D01*
X39357142Y-20524761D01*
X39404761Y-20477142D01*
X39452380Y-20381904D01*
X39452380Y-20286666D01*
X39404761Y-20191428D01*
X39357142Y-20143809D01*
X39261904Y-20096190D01*
X39071428Y-20048571D01*
X38976190Y-20000952D01*
X38928571Y-19953333D01*
X38880952Y-19858095D01*
X38880952Y-19762857D01*
X38928571Y-19667619D01*
X38976190Y-19620000D01*
X39071428Y-19572380D01*
X39309523Y-19572380D01*
X39452380Y-19620000D01*
X39642857Y-20667619D02*
X40404761Y-20667619D01*
X41166666Y-20572380D02*
X40595238Y-20572380D01*
X40880952Y-20572380D02*
X40880952Y-19572380D01*
X40785714Y-19715238D01*
X40690476Y-19810476D01*
X40595238Y-19858095D01*
X41642857Y-20572380D02*
X41833333Y-20572380D01*
X41928571Y-20524761D01*
X41976190Y-20477142D01*
X42071428Y-20334285D01*
X42119047Y-20143809D01*
X42119047Y-19762857D01*
X42071428Y-19667619D01*
X42023809Y-19620000D01*
X41928571Y-19572380D01*
X41738095Y-19572380D01*
X41642857Y-19620000D01*
X41595238Y-19667619D01*
X41547619Y-19762857D01*
X41547619Y-20000952D01*
X41595238Y-20096190D01*
X41642857Y-20143809D01*
X41738095Y-20191428D01*
X41928571Y-20191428D01*
X42023809Y-20143809D01*
X42071428Y-20096190D01*
X42119047Y-20000952D01*
X56880952Y-20524761D02*
X57023809Y-20572380D01*
X57261904Y-20572380D01*
X57357142Y-20524761D01*
X57404761Y-20477142D01*
X57452380Y-20381904D01*
X57452380Y-20286666D01*
X57404761Y-20191428D01*
X57357142Y-20143809D01*
X57261904Y-20096190D01*
X57071428Y-20048571D01*
X56976190Y-20000952D01*
X56928571Y-19953333D01*
X56880952Y-19858095D01*
X56880952Y-19762857D01*
X56928571Y-19667619D01*
X56976190Y-19620000D01*
X57071428Y-19572380D01*
X57309523Y-19572380D01*
X57452380Y-19620000D01*
X57642857Y-20667619D02*
X58404761Y-20667619D01*
X58595238Y-19667619D02*
X58642857Y-19620000D01*
X58738095Y-19572380D01*
X58976190Y-19572380D01*
X59071428Y-19620000D01*
X59119047Y-19667619D01*
X59166666Y-19762857D01*
X59166666Y-19858095D01*
X59119047Y-20000952D01*
X58547619Y-20572380D01*
X59166666Y-20572380D01*
X59785714Y-19572380D02*
X59880952Y-19572380D01*
X59976190Y-19620000D01*
X60023809Y-19667619D01*
X60071428Y-19762857D01*
X60119047Y-19953333D01*
X60119047Y-20191428D01*
X60071428Y-20381904D01*
X60023809Y-20477142D01*
X59976190Y-20524761D01*
X59880952Y-20572380D01*
X59785714Y-20572380D01*
X59690476Y-20524761D01*
X59642857Y-20477142D01*
X59595238Y-20381904D01*
X59547619Y-20191428D01*
X59547619Y-19953333D01*
X59595238Y-19762857D01*
X59642857Y-19667619D01*
X59690476Y-19620000D01*
X59785714Y-19572380D01*
X74880952Y-20524761D02*
X75023809Y-20572380D01*
X75261904Y-20572380D01*
X75357142Y-20524761D01*
X75404761Y-20477142D01*
X75452380Y-20381904D01*
X75452380Y-20286666D01*
X75404761Y-20191428D01*
X75357142Y-20143809D01*
X75261904Y-20096190D01*
X75071428Y-20048571D01*
X74976190Y-20000952D01*
X74928571Y-19953333D01*
X74880952Y-19858095D01*
X74880952Y-19762857D01*
X74928571Y-19667619D01*
X74976190Y-19620000D01*
X75071428Y-19572380D01*
X75309523Y-19572380D01*
X75452380Y-19620000D01*
X75642857Y-20667619D02*
X76404761Y-20667619D01*
X76595238Y-19667619D02*
X76642857Y-19620000D01*
X76738095Y-19572380D01*
X76976190Y-19572380D01*
X77071428Y-19620000D01*
X77119047Y-19667619D01*
X77166666Y-19762857D01*
X77166666Y-19858095D01*
X77119047Y-20000952D01*
X76547619Y-20572380D01*
X77166666Y-20572380D01*
X78119047Y-20572380D02*
X77547619Y-20572380D01*
X77833333Y-20572380D02*
X77833333Y-19572380D01*
X77738095Y-19715238D01*
X77642857Y-19810476D01*
X77547619Y-19858095D01*
X92880952Y-20524761D02*
X93023809Y-20572380D01*
X93261904Y-20572380D01*
X93357142Y-20524761D01*
X93404761Y-20477142D01*
X93452380Y-20381904D01*
X93452380Y-20286666D01*
X93404761Y-20191428D01*
X93357142Y-20143809D01*
X93261904Y-20096190D01*
X93071428Y-20048571D01*
X92976190Y-20000952D01*
X92928571Y-19953333D01*
X92880952Y-19858095D01*
X92880952Y-19762857D01*
X92928571Y-19667619D01*
X92976190Y-19620000D01*
X93071428Y-19572380D01*
X93309523Y-19572380D01*
X93452380Y-19620000D01*
X93642857Y-20667619D02*
X94404761Y-20667619D01*
X94595238Y-19667619D02*
X94642857Y-19620000D01*
X94738095Y-19572380D01*
X94976190Y-19572380D01*
X95071428Y-19620000D01*
X95119047Y-19667619D01*
X95166666Y-19762857D01*
X95166666Y-19858095D01*
X95119047Y-20000952D01*
X94547619Y-20572380D01*
X95166666Y-20572380D01*
X95547619Y-19667619D02*
X95595238Y-19620000D01*
X95690476Y-19572380D01*
X95928571Y-19572380D01*
X96023809Y-19620000D01*
X96071428Y-19667619D01*
X96119047Y-19762857D01*
X96119047Y-19858095D01*
X96071428Y-20000952D01*
X95500000Y-20572380D01*
X96119047Y-20572380D01*
X110880952Y-20524761D02*
X111023809Y-20572380D01*
X111261904Y-20572380D01*
X111357142Y-20524761D01*
X111404761Y-20477142D01*
X111452380Y-20381904D01*
X111452380Y-20286666D01*
X111404761Y-20191428D01*
X111357142Y-20143809D01*
X111261904Y-20096190D01*
X111071428Y-20048571D01*
X110976190Y-20000952D01*
X110928571Y-19953333D01*
X110880952Y-19858095D01*
X110880952Y-19762857D01*
X110928571Y-19667619D01*
X110976190Y-19620000D01*
X111071428Y-19572380D01*
X111309523Y-19572380D01*
X111452380Y-19620000D01*
X111642857Y-20667619D02*
X112404761Y-20667619D01*
X112595238Y-19667619D02*
X112642857Y-19620000D01*
X112738095Y-19572380D01*
X112976190Y-19572380D01*
X113071428Y-19620000D01*
X113119047Y-19667619D01*
X113166666Y-19762857D01*
X113166666Y-19858095D01*
X113119047Y-20000952D01*
X112547619Y-20572380D01*
X113166666Y-20572380D01*
X113500000Y-19572380D02*
X114119047Y-19572380D01*
X113785714Y-19953333D01*
X113928571Y-19953333D01*
X114023809Y-20000952D01*
X114071428Y-20048571D01*
X114119047Y-20143809D01*
X114119047Y-20381904D01*
X114071428Y-20477142D01*
X114023809Y-20524761D01*
X113928571Y-20572380D01*
X113642857Y-20572380D01*
X113547619Y-20524761D01*
X113500000Y-20477142D01*
X128880952Y-20524761D02*
X129023809Y-20572380D01*
X129261904Y-20572380D01*
X129357142Y-20524761D01*
X129404761Y-20477142D01*
X129452380Y-20381904D01*
X129452380Y-20286666D01*
X129404761Y-20191428D01*
X129357142Y-20143809D01*
X129261904Y-20096190D01*
X129071428Y-20048571D01*
X128976190Y-20000952D01*
X128928571Y-19953333D01*
X128880952Y-19858095D01*
X128880952Y-19762857D01*
X128928571Y-19667619D01*
X128976190Y-19620000D01*
X129071428Y-19572380D01*
X129309523Y-19572380D01*
X129452380Y-19620000D01*
X129642857Y-20667619D02*
X130404761Y-20667619D01*
X130595238Y-19667619D02*
X130642857Y-19620000D01*
X130738095Y-19572380D01*
X130976190Y-19572380D01*
X131071428Y-19620000D01*
X131119047Y-19667619D01*
X131166666Y-19762857D01*
X131166666Y-19858095D01*
X131119047Y-20000952D01*
X130547619Y-20572380D01*
X131166666Y-20572380D01*
X132023809Y-19905714D02*
X132023809Y-20572380D01*
X131785714Y-19524761D02*
X131547619Y-20239047D01*
X132166666Y-20239047D01*
X146880952Y-20524761D02*
X147023809Y-20572380D01*
X147261904Y-20572380D01*
X147357142Y-20524761D01*
X147404761Y-20477142D01*
X147452380Y-20381904D01*
X147452380Y-20286666D01*
X147404761Y-20191428D01*
X147357142Y-20143809D01*
X147261904Y-20096190D01*
X147071428Y-20048571D01*
X146976190Y-20000952D01*
X146928571Y-19953333D01*
X146880952Y-19858095D01*
X146880952Y-19762857D01*
X146928571Y-19667619D01*
X146976190Y-19620000D01*
X147071428Y-19572380D01*
X147309523Y-19572380D01*
X147452380Y-19620000D01*
X147642857Y-20667619D02*
X148404761Y-20667619D01*
X148595238Y-19667619D02*
X148642857Y-19620000D01*
X148738095Y-19572380D01*
X148976190Y-19572380D01*
X149071428Y-19620000D01*
X149119047Y-19667619D01*
X149166666Y-19762857D01*
X149166666Y-19858095D01*
X149119047Y-20000952D01*
X148547619Y-20572380D01*
X149166666Y-20572380D01*
X150071428Y-19572380D02*
X149595238Y-19572380D01*
X149547619Y-20048571D01*
X149595238Y-20000952D01*
X149690476Y-19953333D01*
X149928571Y-19953333D01*
X150023809Y-20000952D01*
X150071428Y-20048571D01*
X150119047Y-20143809D01*
X150119047Y-20381904D01*
X150071428Y-20477142D01*
X150023809Y-20524761D01*
X149928571Y-20572380D01*
X149690476Y-20572380D01*
X149595238Y-20524761D01*
X149547619Y-20477142D01*
X164880952Y-20524761D02*
X165023809Y-20572380D01*
X165261904Y-20572380D01*
X165357142Y-20524761D01*
X165404761Y-20477142D01*
X165452380Y-20381904D01*
X165452380Y-20286666D01*
X165404761Y-20191428D01*
X165357142Y-20143809D01*
X165261904Y-20096190D01*
X165071428Y-20048571D01*
X164976190Y-20000952D01*
X164928571Y-19953333D01*
X164880952Y-19858095D01*
X164880952Y-19762857D01*
X164928571Y-19667619D01*
X164976190Y-19620000D01*
X165071428Y-19572380D01*
X165309523Y-19572380D01*
X165452380Y-19620000D01*
X165642857Y-20667619D02*
X166404761Y-20667619D01*
X166595238Y-19667619D02*
X166642857Y-19620000D01*
X166738095Y-19572380D01*
X166976190Y-19572380D01*
X167071428Y-19620000D01*
X167119047Y-19667619D01*
X167166666Y-19762857D01*
X167166666Y-19858095D01*
X167119047Y-20000952D01*
X166547619Y-20572380D01*
X167166666Y-20572380D01*
X168023809Y-19572380D02*
X167833333Y-19572380D01*
X167738095Y-19620000D01*
X167690476Y-19667619D01*
X167595238Y-19810476D01*
X167547619Y-20000952D01*
X167547619Y-20381904D01*
X167595238Y-20477142D01*
X167642857Y-20524761D01*
X167738095Y-20572380D01*
X167928571Y-20572380D01*
X168023809Y-20524761D01*
X168071428Y-20477142D01*
X168119047Y-20381904D01*
X168119047Y-20143809D01*
X168071428Y-20048571D01*
X168023809Y-20000952D01*
X167928571Y-19953333D01*
X167738095Y-19953333D01*
X167642857Y-20000952D01*
X167595238Y-20048571D01*
X167547619Y-20143809D01*
X182880952Y-20524761D02*
X183023809Y-20572380D01*
X183261904Y-20572380D01*
X183357142Y-20524761D01*
X183404761Y-20477142D01*
X183452380Y-20381904D01*
X183452380Y-20286666D01*
X183404761Y-20191428D01*
X183357142Y-20143809D01*
X183261904Y-20096190D01*
X183071428Y-20048571D01*
X182976190Y-20000952D01*
X182928571Y-19953333D01*
X182880952Y-19858095D01*
X182880952Y-19762857D01*
X182928571Y-19667619D01*
X182976190Y-19620000D01*
X183071428Y-19572380D01*
X183309523Y-19572380D01*
X183452380Y-19620000D01*
X183642857Y-20667619D02*
X184404761Y-20667619D01*
X184595238Y-19667619D02*
X184642857Y-19620000D01*
X184738095Y-19572380D01*
X184976190Y-19572380D01*
X185071428Y-19620000D01*
X185119047Y-19667619D01*
X185166666Y-19762857D01*
X185166666Y-19858095D01*
X185119047Y-20000952D01*
X184547619Y-20572380D01*
X185166666Y-20572380D01*
X185500000Y-19572380D02*
X186166666Y-19572380D01*
X185738095Y-20572380D01*
X200880952Y-20524761D02*
X201023809Y-20572380D01*
X201261904Y-20572380D01*
X201357142Y-20524761D01*
X201404761Y-20477142D01*
X201452380Y-20381904D01*
X201452380Y-20286666D01*
X201404761Y-20191428D01*
X201357142Y-20143809D01*
X201261904Y-20096190D01*
X201071428Y-20048571D01*
X200976190Y-20000952D01*
X200928571Y-19953333D01*
X200880952Y-19858095D01*
X200880952Y-19762857D01*
X200928571Y-19667619D01*
X200976190Y-19620000D01*
X201071428Y-19572380D01*
X201309523Y-19572380D01*
X201452380Y-19620000D01*
X201642857Y-20667619D02*
X202404761Y-20667619D01*
X202595238Y-19667619D02*
X202642857Y-19620000D01*
X202738095Y-19572380D01*
X202976190Y-19572380D01*
X203071428Y-19620000D01*
X203119047Y-19667619D01*
X203166666Y-19762857D01*
X203166666Y-19858095D01*
X203119047Y-20000952D01*
X202547619Y-20572380D01*
X203166666Y-20572380D01*
X203738095Y-20000952D02*
X203642857Y-19953333D01*
X203595238Y-19905714D01*
X203547619Y-19810476D01*
X203547619Y-19762857D01*
X203595238Y-19667619D01*
X203642857Y-19620000D01*
X203738095Y-19572380D01*
X203928571Y-19572380D01*
X204023809Y-19620000D01*
X204071428Y-19667619D01*
X204119047Y-19762857D01*
X204119047Y-19810476D01*
X204071428Y-19905714D01*
X204023809Y-19953333D01*
X203928571Y-20000952D01*
X203738095Y-20000952D01*
X203642857Y-20048571D01*
X203595238Y-20096190D01*
X203547619Y-20191428D01*
X203547619Y-20381904D01*
X203595238Y-20477142D01*
X203642857Y-20524761D01*
X203738095Y-20572380D01*
X203928571Y-20572380D01*
X204023809Y-20524761D01*
X204071428Y-20477142D01*
X204119047Y-20381904D01*
X204119047Y-20191428D01*
X204071428Y-20096190D01*
X204023809Y-20048571D01*
X203928571Y-20000952D01*
X218880952Y-20524761D02*
X219023809Y-20572380D01*
X219261904Y-20572380D01*
X219357142Y-20524761D01*
X219404761Y-20477142D01*
X219452380Y-20381904D01*
X219452380Y-20286666D01*
X219404761Y-20191428D01*
X219357142Y-20143809D01*
X219261904Y-20096190D01*
X219071428Y-20048571D01*
X218976190Y-20000952D01*
X218928571Y-19953333D01*
X218880952Y-19858095D01*
X218880952Y-19762857D01*
X218928571Y-19667619D01*
X218976190Y-19620000D01*
X219071428Y-19572380D01*
X219309523Y-19572380D01*
X219452380Y-19620000D01*
X219642857Y-20667619D02*
X220404761Y-20667619D01*
X220595238Y-19667619D02*
X220642857Y-19620000D01*
X220738095Y-19572380D01*
X220976190Y-19572380D01*
X221071428Y-19620000D01*
X221119047Y-19667619D01*
X221166666Y-19762857D01*
X221166666Y-19858095D01*
X221119047Y-20000952D01*
X220547619Y-20572380D01*
X221166666Y-20572380D01*
X221642857Y-20572380D02*
X221833333Y-20572380D01*
X221928571Y-20524761D01*
X221976190Y-20477142D01*
X222071428Y-20334285D01*
X222119047Y-20143809D01*
X222119047Y-19762857D01*
X222071428Y-19667619D01*
X222023809Y-19620000D01*
X221928571Y-19572380D01*
X221738095Y-19572380D01*
X221642857Y-19620000D01*
X221595238Y-19667619D01*
X221547619Y-19762857D01*
X221547619Y-20000952D01*
X221595238Y-20096190D01*
X221642857Y-20143809D01*
X221738095Y-20191428D01*
X221928571Y-20191428D01*
X222023809Y-20143809D01*
X222071428Y-20096190D01*
X222119047Y-20000952D01*
X236880952Y-20524761D02*
X237023809Y-20572380D01*
X237261904Y-20572380D01*
X237357142Y-20524761D01*
X237404761Y-20477142D01*
X237452380Y-20381904D01*
X237452380Y-20286666D01*
X237404761Y-20191428D01*
X237357142Y-20143809D01*
X237261904Y-20096190D01*
X237071428Y-20048571D01*
X236976190Y-20000952D01*
X236928571Y-19953333D01*
X236880952Y-19858095D01*
X236880952Y-19762857D01*
X236928571Y-19667619D01*
X236976190Y-19620000D01*
X237071428Y-19572380D01*
X237309523Y-19572380D01*
X237452380Y-19620000D01*
X237642857Y-20667619D02*
X238404761Y-20667619D01*
X238547619Y-19572380D02*
X239166666Y-19572380D01*
X238833333Y-19953333D01*
X238976190Y-19953333D01*
X239071428Y-20000952D01*
X239119047Y-20048571D01*
X239166666Y-20143809D01*
X239166666Y-20381904D01*
X239119047Y-20477142D01*
X239071428Y-20524761D01*
X238976190Y-20572380D01*
X238690476Y-20572380D01*
X238595238Y-20524761D01*
X238547619Y-20477142D01*
X239785714Y-19572380D02*
X239880952Y-19572380D01*
X239976190Y-19620000D01*
X240023809Y-19667619D01*
X240071428Y-19762857D01*
X240119047Y-19953333D01*
X240119047Y-20191428D01*
X240071428Y-20381904D01*
X240023809Y-20477142D01*
X239976190Y-20524761D01*
X239880952Y-20572380D01*
X239785714Y-20572380D01*
X239690476Y-20524761D01*
X239642857Y-20477142D01*
X239595238Y-20381904D01*
X239547619Y-20191428D01*
X239547619Y-19953333D01*
X239595238Y-19762857D01*
X239642857Y-19667619D01*
X239690476Y-19620000D01*
X239785714Y-19572380D01*
X259380952Y-20524761D02*
X259523809Y-20572380D01*
X259761904Y-20572380D01*
X259857142Y-20524761D01*
X259904761Y-20477142D01*
X259952380Y-20381904D01*
X259952380Y-20286666D01*
X259904761Y-20191428D01*
X259857142Y-20143809D01*
X259761904Y-20096190D01*
X259571428Y-20048571D01*
X259476190Y-20000952D01*
X259428571Y-19953333D01*
X259380952Y-19858095D01*
X259380952Y-19762857D01*
X259428571Y-19667619D01*
X259476190Y-19620000D01*
X259571428Y-19572380D01*
X259809523Y-19572380D01*
X259952380Y-19620000D01*
X260142857Y-20667619D02*
X260904761Y-20667619D01*
X261047619Y-19572380D02*
X261666666Y-19572380D01*
X261333333Y-19953333D01*
X261476190Y-19953333D01*
X261571428Y-20000952D01*
X261619047Y-20048571D01*
X261666666Y-20143809D01*
X261666666Y-20381904D01*
X261619047Y-20477142D01*
X261571428Y-20524761D01*
X261476190Y-20572380D01*
X261190476Y-20572380D01*
X261095238Y-20524761D01*
X261047619Y-20477142D01*
X262619047Y-20572380D02*
X262047619Y-20572380D01*
X262333333Y-20572380D02*
X262333333Y-19572380D01*
X262238095Y-19715238D01*
X262142857Y-19810476D01*
X262047619Y-19858095D01*
X277380952Y-20524761D02*
X277523809Y-20572380D01*
X277761904Y-20572380D01*
X277857142Y-20524761D01*
X277904761Y-20477142D01*
X277952380Y-20381904D01*
X277952380Y-20286666D01*
X277904761Y-20191428D01*
X277857142Y-20143809D01*
X277761904Y-20096190D01*
X277571428Y-20048571D01*
X277476190Y-20000952D01*
X277428571Y-19953333D01*
X277380952Y-19858095D01*
X277380952Y-19762857D01*
X277428571Y-19667619D01*
X277476190Y-19620000D01*
X277571428Y-19572380D01*
X277809523Y-19572380D01*
X277952380Y-19620000D01*
X278142857Y-20667619D02*
X278904761Y-20667619D01*
X279047619Y-19572380D02*
X279666666Y-19572380D01*
X279333333Y-19953333D01*
X279476190Y-19953333D01*
X279571428Y-20000952D01*
X279619047Y-20048571D01*
X279666666Y-20143809D01*
X279666666Y-20381904D01*
X279619047Y-20477142D01*
X279571428Y-20524761D01*
X279476190Y-20572380D01*
X279190476Y-20572380D01*
X279095238Y-20524761D01*
X279047619Y-20477142D01*
X280047619Y-19667619D02*
X280095238Y-19620000D01*
X280190476Y-19572380D01*
X280428571Y-19572380D01*
X280523809Y-19620000D01*
X280571428Y-19667619D01*
X280619047Y-19762857D01*
X280619047Y-19858095D01*
X280571428Y-20000952D01*
X280000000Y-20572380D01*
X280619047Y-20572380D01*
X-1619047Y-37524761D02*
X-1476190Y-37572380D01*
X-1238095Y-37572380D01*
X-1142857Y-37524761D01*
X-1095238Y-37477142D01*
X-1047619Y-37381904D01*
X-1047619Y-37286666D01*
X-1095238Y-37191428D01*
X-1142857Y-37143809D01*
X-1238095Y-37096190D01*
X-1428571Y-37048571D01*
X-1523809Y-37000952D01*
X-1571428Y-36953333D01*
X-1619047Y-36858095D01*
X-1619047Y-36762857D01*
X-1571428Y-36667619D01*
X-1523809Y-36620000D01*
X-1428571Y-36572380D01*
X-1190476Y-36572380D01*
X-1047619Y-36620000D01*
X-857142Y-37667619D02*
X-95238Y-37667619D01*
X47619Y-36572380D02*
X666666Y-36572380D01*
X333333Y-36953333D01*
X476190Y-36953333D01*
X571428Y-37000952D01*
X619047Y-37048571D01*
X666666Y-37143809D01*
X666666Y-37381904D01*
X619047Y-37477142D01*
X571428Y-37524761D01*
X476190Y-37572380D01*
X190476Y-37572380D01*
X95238Y-37524761D01*
X47619Y-37477142D01*
X1000000Y-36572380D02*
X1619047Y-36572380D01*
X1285714Y-36953333D01*
X1428571Y-36953333D01*
X1523809Y-37000952D01*
X1571428Y-37048571D01*
X1619047Y-37143809D01*
X1619047Y-37381904D01*
X1571428Y-37477142D01*
X1523809Y-37524761D01*
X1428571Y-37572380D01*
X1142857Y-37572380D01*
X1047619Y-37524761D01*
X1000000Y-37477142D01*
X16880952Y-40354761D02*
X17023809Y-40402380D01*
X17261904Y-40402380D01*
X17357142Y-40354761D01*
X17404761Y-40307142D01*
X17452380Y-40211904D01*
X17452380Y-40116666D01*
X17404761Y-40021428D01*
X17357142Y-39973809D01*
X17261904Y-39926190D01*
X17071428Y-39878571D01*
X16976190Y-39830952D01*
X16928571Y-39783333D01*
X16880952Y-39688095D01*
X16880952Y-39592857D01*
X16928571Y-39497619D01*
X16976190Y-39450000D01*
X17071428Y-39402380D01*
X17309523Y-39402380D01*
X17452380Y-39450000D01*
X17642857Y-40497619D02*
X18404761Y-40497619D01*
X18547619Y-39402380D02*
X19166666Y-39402380D01*
X18833333Y-39783333D01*
X18976190Y-39783333D01*
X19071428Y-39830952D01*
X19119047Y-39878571D01*
X19166666Y-39973809D01*
X19166666Y-40211904D01*
X19119047Y-40307142D01*
X19071428Y-40354761D01*
X18976190Y-40402380D01*
X18690476Y-40402380D01*
X18595238Y-40354761D01*
X18547619Y-40307142D01*
X20023809Y-39735714D02*
X20023809Y-40402380D01*
X19785714Y-39354761D02*
X19547619Y-40069047D01*
X20166666Y-40069047D01*
X38880952Y-37524761D02*
X39023809Y-37572380D01*
X39261904Y-37572380D01*
X39357142Y-37524761D01*
X39404761Y-37477142D01*
X39452380Y-37381904D01*
X39452380Y-37286666D01*
X39404761Y-37191428D01*
X39357142Y-37143809D01*
X39261904Y-37096190D01*
X39071428Y-37048571D01*
X38976190Y-37000952D01*
X38928571Y-36953333D01*
X38880952Y-36858095D01*
X38880952Y-36762857D01*
X38928571Y-36667619D01*
X38976190Y-36620000D01*
X39071428Y-36572380D01*
X39309523Y-36572380D01*
X39452380Y-36620000D01*
X39642857Y-37667619D02*
X40404761Y-37667619D01*
X40547619Y-36572380D02*
X41166666Y-36572380D01*
X40833333Y-36953333D01*
X40976190Y-36953333D01*
X41071428Y-37000952D01*
X41119047Y-37048571D01*
X41166666Y-37143809D01*
X41166666Y-37381904D01*
X41119047Y-37477142D01*
X41071428Y-37524761D01*
X40976190Y-37572380D01*
X40690476Y-37572380D01*
X40595238Y-37524761D01*
X40547619Y-37477142D01*
X42071428Y-36572380D02*
X41595238Y-36572380D01*
X41547619Y-37048571D01*
X41595238Y-37000952D01*
X41690476Y-36953333D01*
X41928571Y-36953333D01*
X42023809Y-37000952D01*
X42071428Y-37048571D01*
X42119047Y-37143809D01*
X42119047Y-37381904D01*
X42071428Y-37477142D01*
X42023809Y-37524761D01*
X41928571Y-37572380D01*
X41690476Y-37572380D01*
X41595238Y-37524761D01*
X41547619Y-37477142D01*
X56880952Y-37524761D02*
X57023809Y-37572380D01*
X57261904Y-37572380D01*
X57357142Y-37524761D01*
X57404761Y-37477142D01*
X57452380Y-37381904D01*
X57452380Y-37286666D01*
X57404761Y-37191428D01*
X57357142Y-37143809D01*
X57261904Y-37096190D01*
X57071428Y-37048571D01*
X56976190Y-37000952D01*
X56928571Y-36953333D01*
X56880952Y-36858095D01*
X56880952Y-36762857D01*
X56928571Y-36667619D01*
X56976190Y-36620000D01*
X57071428Y-36572380D01*
X57309523Y-36572380D01*
X57452380Y-36620000D01*
X57642857Y-37667619D02*
X58404761Y-37667619D01*
X58547619Y-36572380D02*
X59166666Y-36572380D01*
X58833333Y-36953333D01*
X58976190Y-36953333D01*
X59071428Y-37000952D01*
X59119047Y-37048571D01*
X59166666Y-37143809D01*
X59166666Y-37381904D01*
X59119047Y-37477142D01*
X59071428Y-37524761D01*
X58976190Y-37572380D01*
X58690476Y-37572380D01*
X58595238Y-37524761D01*
X58547619Y-37477142D01*
X60023809Y-36572380D02*
X59833333Y-36572380D01*
X59738095Y-36620000D01*
X59690476Y-36667619D01*
X59595238Y-36810476D01*
X59547619Y-37000952D01*
X59547619Y-37381904D01*
X59595238Y-37477142D01*
X59642857Y-37524761D01*
X59738095Y-37572380D01*
X59928571Y-37572380D01*
X60023809Y-37524761D01*
X60071428Y-37477142D01*
X60119047Y-37381904D01*
X60119047Y-37143809D01*
X60071428Y-37048571D01*
X60023809Y-37000952D01*
X59928571Y-36953333D01*
X59738095Y-36953333D01*
X59642857Y-37000952D01*
X59595238Y-37048571D01*
X59547619Y-37143809D01*
X74880952Y-37524761D02*
X75023809Y-37572380D01*
X75261904Y-37572380D01*
X75357142Y-37524761D01*
X75404761Y-37477142D01*
X75452380Y-37381904D01*
X75452380Y-37286666D01*
X75404761Y-37191428D01*
X75357142Y-37143809D01*
X75261904Y-37096190D01*
X75071428Y-37048571D01*
X74976190Y-37000952D01*
X74928571Y-36953333D01*
X74880952Y-36858095D01*
X74880952Y-36762857D01*
X74928571Y-36667619D01*
X74976190Y-36620000D01*
X75071428Y-36572380D01*
X75309523Y-36572380D01*
X75452380Y-36620000D01*
X75642857Y-37667619D02*
X76404761Y-37667619D01*
X76547619Y-36572380D02*
X77166666Y-36572380D01*
X76833333Y-36953333D01*
X76976190Y-36953333D01*
X77071428Y-37000952D01*
X77119047Y-37048571D01*
X77166666Y-37143809D01*
X77166666Y-37381904D01*
X77119047Y-37477142D01*
X77071428Y-37524761D01*
X76976190Y-37572380D01*
X76690476Y-37572380D01*
X76595238Y-37524761D01*
X76547619Y-37477142D01*
X77500000Y-36572380D02*
X78166666Y-36572380D01*
X77738095Y-37572380D01*
X92880952Y-37524761D02*
X93023809Y-37572380D01*
X93261904Y-37572380D01*
X93357142Y-37524761D01*
X93404761Y-37477142D01*
X93452380Y-37381904D01*
X93452380Y-37286666D01*
X93404761Y-37191428D01*
X93357142Y-37143809D01*
X93261904Y-37096190D01*
X93071428Y-37048571D01*
X92976190Y-37000952D01*
X92928571Y-36953333D01*
X92880952Y-36858095D01*
X92880952Y-36762857D01*
X92928571Y-36667619D01*
X92976190Y-36620000D01*
X93071428Y-36572380D01*
X93309523Y-36572380D01*
X93452380Y-36620000D01*
X93642857Y-37667619D02*
X94404761Y-37667619D01*
X94547619Y-36572380D02*
X95166666Y-36572380D01*
X94833333Y-36953333D01*
X94976190Y-36953333D01*
X95071428Y-37000952D01*
X95119047Y-37048571D01*
X95166666Y-37143809D01*
X95166666Y-37381904D01*
X95119047Y-37477142D01*
X95071428Y-37524761D01*
X94976190Y-37572380D01*
X94690476Y-37572380D01*
X94595238Y-37524761D01*
X94547619Y-37477142D01*
X95738095Y-37000952D02*
X95642857Y-36953333D01*
X95595238Y-36905714D01*
X95547619Y-36810476D01*
X95547619Y-36762857D01*
X95595238Y-36667619D01*
X95642857Y-36620000D01*
X95738095Y-36572380D01*
X95928571Y-36572380D01*
X96023809Y-36620000D01*
X96071428Y-36667619D01*
X96119047Y-36762857D01*
X96119047Y-36810476D01*
X96071428Y-36905714D01*
X96023809Y-36953333D01*
X95928571Y-37000952D01*
X95738095Y-37000952D01*
X95642857Y-37048571D01*
X95595238Y-37096190D01*
X95547619Y-37191428D01*
X95547619Y-37381904D01*
X95595238Y-37477142D01*
X95642857Y-37524761D01*
X95738095Y-37572380D01*
X95928571Y-37572380D01*
X96023809Y-37524761D01*
X96071428Y-37477142D01*
X96119047Y-37381904D01*
X96119047Y-37191428D01*
X96071428Y-37096190D01*
X96023809Y-37048571D01*
X95928571Y-37000952D01*
X110880952Y-37524761D02*
X111023809Y-37572380D01*
X111261904Y-37572380D01*
X111357142Y-37524761D01*
X111404761Y-37477142D01*
X111452380Y-37381904D01*
X111452380Y-37286666D01*
X111404761Y-37191428D01*
X111357142Y-37143809D01*
X111261904Y-37096190D01*
X111071428Y-37048571D01*
X110976190Y-37000952D01*
X110928571Y-36953333D01*
X110880952Y-36858095D01*
X110880952Y-36762857D01*
X110928571Y-36667619D01*
X110976190Y-36620000D01*
X111071428Y-36572380D01*
X111309523Y-36572380D01*
X111452380Y-36620000D01*
X111642857Y-37667619D02*
X112404761Y-37667619D01*
X112547619Y-36572380D02*
X113166666Y-36572380D01*
X112833333Y-36953333D01*
X112976190Y-36953333D01*
X113071428Y-37000952D01*
X113119047Y-37048571D01*
X113166666Y-37143809D01*
X113166666Y-37381904D01*
X113119047Y-37477142D01*
X113071428Y-37524761D01*
X112976190Y-37572380D01*
X112690476Y-37572380D01*
X112595238Y-37524761D01*
X112547619Y-37477142D01*
X113642857Y-37572380D02*
X113833333Y-37572380D01*
X113928571Y-37524761D01*
X113976190Y-37477142D01*
X114071428Y-37334285D01*
X114119047Y-37143809D01*
X114119047Y-36762857D01*
X114071428Y-36667619D01*
X114023809Y-36620000D01*
X113928571Y-36572380D01*
X113738095Y-36572380D01*
X113642857Y-36620000D01*
X113595238Y-36667619D01*
X113547619Y-36762857D01*
X113547619Y-37000952D01*
X113595238Y-37096190D01*
X113642857Y-37143809D01*
X113738095Y-37191428D01*
X113928571Y-37191428D01*
X114023809Y-37143809D01*
X114071428Y-37096190D01*
X114119047Y-37000952D01*
X128880952Y-37524761D02*
X129023809Y-37572380D01*
X129261904Y-37572380D01*
X129357142Y-37524761D01*
X129404761Y-37477142D01*
X129452380Y-37381904D01*
X129452380Y-37286666D01*
X129404761Y-37191428D01*
X129357142Y-37143809D01*
X129261904Y-37096190D01*
X129071428Y-37048571D01*
X128976190Y-37000952D01*
X128928571Y-36953333D01*
X128880952Y-36858095D01*
X128880952Y-36762857D01*
X128928571Y-36667619D01*
X128976190Y-36620000D01*
X129071428Y-36572380D01*
X129309523Y-36572380D01*
X129452380Y-36620000D01*
X129642857Y-37667619D02*
X130404761Y-37667619D01*
X131071428Y-36905714D02*
X131071428Y-37572380D01*
X130833333Y-36524761D02*
X130595238Y-37239047D01*
X131214285Y-37239047D01*
X131785714Y-36572380D02*
X131880952Y-36572380D01*
X131976190Y-36620000D01*
X132023809Y-36667619D01*
X132071428Y-36762857D01*
X132119047Y-36953333D01*
X132119047Y-37191428D01*
X132071428Y-37381904D01*
X132023809Y-37477142D01*
X131976190Y-37524761D01*
X131880952Y-37572380D01*
X131785714Y-37572380D01*
X131690476Y-37524761D01*
X131642857Y-37477142D01*
X131595238Y-37381904D01*
X131547619Y-37191428D01*
X131547619Y-36953333D01*
X131595238Y-36762857D01*
X131642857Y-36667619D01*
X131690476Y-36620000D01*
X131785714Y-36572380D01*
X146880952Y-37524761D02*
X147023809Y-37572380D01*
X147261904Y-37572380D01*
X147357142Y-37524761D01*
X147404761Y-37477142D01*
X147452380Y-37381904D01*
X147452380Y-37286666D01*
X147404761Y-37191428D01*
X147357142Y-37143809D01*
X147261904Y-37096190D01*
X147071428Y-37048571D01*
X146976190Y-37000952D01*
X146928571Y-36953333D01*
X146880952Y-36858095D01*
X146880952Y-36762857D01*
X146928571Y-36667619D01*
X146976190Y-36620000D01*
X147071428Y-36572380D01*
X147309523Y-36572380D01*
X147452380Y-36620000D01*
X147642857Y-37667619D02*
X148404761Y-37667619D01*
X149071428Y-36905714D02*
X149071428Y-37572380D01*
X148833333Y-36524761D02*
X148595238Y-37239047D01*
X149214285Y-37239047D01*
X150119047Y-37572380D02*
X149547619Y-37572380D01*
X149833333Y-37572380D02*
X149833333Y-36572380D01*
X149738095Y-36715238D01*
X149642857Y-36810476D01*
X149547619Y-36858095D01*
X164880952Y-37524761D02*
X165023809Y-37572380D01*
X165261904Y-37572380D01*
X165357142Y-37524761D01*
X165404761Y-37477142D01*
X165452380Y-37381904D01*
X165452380Y-37286666D01*
X165404761Y-37191428D01*
X165357142Y-37143809D01*
X165261904Y-37096190D01*
X165071428Y-37048571D01*
X164976190Y-37000952D01*
X164928571Y-36953333D01*
X164880952Y-36858095D01*
X164880952Y-36762857D01*
X164928571Y-36667619D01*
X164976190Y-36620000D01*
X165071428Y-36572380D01*
X165309523Y-36572380D01*
X165452380Y-36620000D01*
X165642857Y-37667619D02*
X166404761Y-37667619D01*
X167071428Y-36905714D02*
X167071428Y-37572380D01*
X166833333Y-36524761D02*
X166595238Y-37239047D01*
X167214285Y-37239047D01*
X167547619Y-36667619D02*
X167595238Y-36620000D01*
X167690476Y-36572380D01*
X167928571Y-36572380D01*
X168023809Y-36620000D01*
X168071428Y-36667619D01*
X168119047Y-36762857D01*
X168119047Y-36858095D01*
X168071428Y-37000952D01*
X167500000Y-37572380D01*
X168119047Y-37572380D01*
X182880952Y-37524761D02*
X183023809Y-37572380D01*
X183261904Y-37572380D01*
X183357142Y-37524761D01*
X183404761Y-37477142D01*
X183452380Y-37381904D01*
X183452380Y-37286666D01*
X183404761Y-37191428D01*
X183357142Y-37143809D01*
X183261904Y-37096190D01*
X183071428Y-37048571D01*
X182976190Y-37000952D01*
X182928571Y-36953333D01*
X182880952Y-36858095D01*
X182880952Y-36762857D01*
X182928571Y-36667619D01*
X182976190Y-36620000D01*
X183071428Y-36572380D01*
X183309523Y-36572380D01*
X183452380Y-36620000D01*
X183642857Y-37667619D02*
X184404761Y-37667619D01*
X185071428Y-36905714D02*
X185071428Y-37572380D01*
X184833333Y-36524761D02*
X184595238Y-37239047D01*
X185214285Y-37239047D01*
X185500000Y-36572380D02*
X186119047Y-36572380D01*
X185785714Y-36953333D01*
X185928571Y-36953333D01*
X186023809Y-37000952D01*
X186071428Y-37048571D01*
X186119047Y-37143809D01*
X186119047Y-37381904D01*
X186071428Y-37477142D01*
X186023809Y-37524761D01*
X185928571Y-37572380D01*
X185642857Y-37572380D01*
X185547619Y-37524761D01*
X185500000Y-37477142D01*
X200880952Y-37524761D02*
X201023809Y-37572380D01*
X201261904Y-37572380D01*
X201357142Y-37524761D01*
X201404761Y-37477142D01*
X201452380Y-37381904D01*
X201452380Y-37286666D01*
X201404761Y-37191428D01*
X201357142Y-37143809D01*
X201261904Y-37096190D01*
X201071428Y-37048571D01*
X200976190Y-37000952D01*
X200928571Y-36953333D01*
X200880952Y-36858095D01*
X200880952Y-36762857D01*
X200928571Y-36667619D01*
X200976190Y-36620000D01*
X201071428Y-36572380D01*
X201309523Y-36572380D01*
X201452380Y-36620000D01*
X201642857Y-37667619D02*
X202404761Y-37667619D01*
X203071428Y-36905714D02*
X203071428Y-37572380D01*
X202833333Y-36524761D02*
X202595238Y-37239047D01*
X203214285Y-37239047D01*
X204023809Y-36905714D02*
X204023809Y-37572380D01*
X203785714Y-36524761D02*
X203547619Y-37239047D01*
X204166666Y-37239047D01*
X218880952Y-37524761D02*
X219023809Y-37572380D01*
X219261904Y-37572380D01*
X219357142Y-37524761D01*
X219404761Y-37477142D01*
X219452380Y-37381904D01*
X219452380Y-37286666D01*
X219404761Y-37191428D01*
X219357142Y-37143809D01*
X219261904Y-37096190D01*
X219071428Y-37048571D01*
X218976190Y-37000952D01*
X218928571Y-36953333D01*
X218880952Y-36858095D01*
X218880952Y-36762857D01*
X218928571Y-36667619D01*
X218976190Y-36620000D01*
X219071428Y-36572380D01*
X219309523Y-36572380D01*
X219452380Y-36620000D01*
X219642857Y-37667619D02*
X220404761Y-37667619D01*
X221071428Y-36905714D02*
X221071428Y-37572380D01*
X220833333Y-36524761D02*
X220595238Y-37239047D01*
X221214285Y-37239047D01*
X222071428Y-36572380D02*
X221595238Y-36572380D01*
X221547619Y-37048571D01*
X221595238Y-37000952D01*
X221690476Y-36953333D01*
X221928571Y-36953333D01*
X222023809Y-37000952D01*
X222071428Y-37048571D01*
X222119047Y-37143809D01*
X222119047Y-37381904D01*
X222071428Y-37477142D01*
X222023809Y-37524761D01*
X221928571Y-37572380D01*
X221690476Y-37572380D01*
X221595238Y-37524761D01*
X221547619Y-37477142D01*
X236880952Y-37524761D02*
X237023809Y-37572380D01*
X237261904Y-37572380D01*
X237357142Y-37524761D01*
X237404761Y-37477142D01*
X237452380Y-37381904D01*
X237452380Y-37286666D01*
X237404761Y-37191428D01*
X237357142Y-37143809D01*
X237261904Y-37096190D01*
X237071428Y-37048571D01*
X236976190Y-37000952D01*
X236928571Y-36953333D01*
X236880952Y-36858095D01*
X236880952Y-36762857D01*
X236928571Y-36667619D01*
X236976190Y-36620000D01*
X237071428Y-36572380D01*
X237309523Y-36572380D01*
X237452380Y-36620000D01*
X237642857Y-37667619D02*
X238404761Y-37667619D01*
X239071428Y-36905714D02*
X239071428Y-37572380D01*
X238833333Y-36524761D02*
X238595238Y-37239047D01*
X239214285Y-37239047D01*
X240023809Y-36572380D02*
X239833333Y-36572380D01*
X239738095Y-36620000D01*
X239690476Y-36667619D01*
X239595238Y-36810476D01*
X239547619Y-37000952D01*
X239547619Y-37381904D01*
X239595238Y-37477142D01*
X239642857Y-37524761D01*
X239738095Y-37572380D01*
X239928571Y-37572380D01*
X240023809Y-37524761D01*
X240071428Y-37477142D01*
X240119047Y-37381904D01*
X240119047Y-37143809D01*
X240071428Y-37048571D01*
X240023809Y-37000952D01*
X239928571Y-36953333D01*
X239738095Y-36953333D01*
X239642857Y-37000952D01*
X239595238Y-37048571D01*
X239547619Y-37143809D01*
X-1619047Y-54524761D02*
X-1476190Y-54572380D01*
X-1238095Y-54572380D01*
X-1142857Y-54524761D01*
X-1095238Y-54477142D01*
X-1047619Y-54381904D01*
X-1047619Y-54286666D01*
X-1095238Y-54191428D01*
X-1142857Y-54143809D01*
X-1238095Y-54096190D01*
X-1428571Y-54048571D01*
X-1523809Y-54000952D01*
X-1571428Y-53953333D01*
X-1619047Y-53858095D01*
X-1619047Y-53762857D01*
X-1571428Y-53667619D01*
X-1523809Y-53620000D01*
X-1428571Y-53572380D01*
X-1190476Y-53572380D01*
X-1047619Y-53620000D01*
X-857142Y-54667619D02*
X-95238Y-54667619D01*
X571428Y-53905714D02*
X571428Y-54572380D01*
X333333Y-53524761D02*
X95238Y-54239047D01*
X714285Y-54239047D01*
X1000000Y-53572380D02*
X1666666Y-53572380D01*
X1238095Y-54572380D01*
X24280952Y-54524761D02*
X24423809Y-54572380D01*
X24661904Y-54572380D01*
X24757142Y-54524761D01*
X24804761Y-54477142D01*
X24852380Y-54381904D01*
X24852380Y-54286666D01*
X24804761Y-54191428D01*
X24757142Y-54143809D01*
X24661904Y-54096190D01*
X24471428Y-54048571D01*
X24376190Y-54000952D01*
X24328571Y-53953333D01*
X24280952Y-53858095D01*
X24280952Y-53762857D01*
X24328571Y-53667619D01*
X24376190Y-53620000D01*
X24471428Y-53572380D01*
X24709523Y-53572380D01*
X24852380Y-53620000D01*
X25042857Y-54667619D02*
X25804761Y-54667619D01*
X26471428Y-53905714D02*
X26471428Y-54572380D01*
X26233333Y-53524761D02*
X25995238Y-54239047D01*
X26614285Y-54239047D01*
X27138095Y-54000952D02*
X27042857Y-53953333D01*
X26995238Y-53905714D01*
X26947619Y-53810476D01*
X26947619Y-53762857D01*
X26995238Y-53667619D01*
X27042857Y-53620000D01*
X27138095Y-53572380D01*
X27328571Y-53572380D01*
X27423809Y-53620000D01*
X27471428Y-53667619D01*
X27519047Y-53762857D01*
X27519047Y-53810476D01*
X27471428Y-53905714D01*
X27423809Y-53953333D01*
X27328571Y-54000952D01*
X27138095Y-54000952D01*
X27042857Y-54048571D01*
X26995238Y-54096190D01*
X26947619Y-54191428D01*
X26947619Y-54381904D01*
X26995238Y-54477142D01*
X27042857Y-54524761D01*
X27138095Y-54572380D01*
X27328571Y-54572380D01*
X27423809Y-54524761D01*
X27471428Y-54477142D01*
X27519047Y-54381904D01*
X27519047Y-54191428D01*
X27471428Y-54096190D01*
X27423809Y-54048571D01*
X27328571Y-54000952D01*
X47880952Y-54524761D02*
X48023809Y-54572380D01*
X48261904Y-54572380D01*
X48357142Y-54524761D01*
X48404761Y-54477142D01*
X48452380Y-54381904D01*
X48452380Y-54286666D01*
X48404761Y-54191428D01*
X48357142Y-54143809D01*
X48261904Y-54096190D01*
X48071428Y-54048571D01*
X47976190Y-54000952D01*
X47928571Y-53953333D01*
X47880952Y-53858095D01*
X47880952Y-53762857D01*
X47928571Y-53667619D01*
X47976190Y-53620000D01*
X48071428Y-53572380D01*
X48309523Y-53572380D01*
X48452380Y-53620000D01*
X48642857Y-54667619D02*
X49404761Y-54667619D01*
X50071428Y-53905714D02*
X50071428Y-54572380D01*
X49833333Y-53524761D02*
X49595238Y-54239047D01*
X50214285Y-54239047D01*
X50642857Y-54572380D02*
X50833333Y-54572380D01*
X50928571Y-54524761D01*
X50976190Y-54477142D01*
X51071428Y-54334285D01*
X51119047Y-54143809D01*
X51119047Y-53762857D01*
X51071428Y-53667619D01*
X51023809Y-53620000D01*
X50928571Y-53572380D01*
X50738095Y-53572380D01*
X50642857Y-53620000D01*
X50595238Y-53667619D01*
X50547619Y-53762857D01*
X50547619Y-54000952D01*
X50595238Y-54096190D01*
X50642857Y-54143809D01*
X50738095Y-54191428D01*
X50928571Y-54191428D01*
X51023809Y-54143809D01*
X51071428Y-54096190D01*
X51119047Y-54000952D01*
X65880952Y-54524761D02*
X66023809Y-54572380D01*
X66261904Y-54572380D01*
X66357142Y-54524761D01*
X66404761Y-54477142D01*
X66452380Y-54381904D01*
X66452380Y-54286666D01*
X66404761Y-54191428D01*
X66357142Y-54143809D01*
X66261904Y-54096190D01*
X66071428Y-54048571D01*
X65976190Y-54000952D01*
X65928571Y-53953333D01*
X65880952Y-53858095D01*
X65880952Y-53762857D01*
X65928571Y-53667619D01*
X65976190Y-53620000D01*
X66071428Y-53572380D01*
X66309523Y-53572380D01*
X66452380Y-53620000D01*
X66642857Y-54667619D02*
X67404761Y-54667619D01*
X68119047Y-53572380D02*
X67642857Y-53572380D01*
X67595238Y-54048571D01*
X67642857Y-54000952D01*
X67738095Y-53953333D01*
X67976190Y-53953333D01*
X68071428Y-54000952D01*
X68119047Y-54048571D01*
X68166666Y-54143809D01*
X68166666Y-54381904D01*
X68119047Y-54477142D01*
X68071428Y-54524761D01*
X67976190Y-54572380D01*
X67738095Y-54572380D01*
X67642857Y-54524761D01*
X67595238Y-54477142D01*
X68785714Y-53572380D02*
X68880952Y-53572380D01*
X68976190Y-53620000D01*
X69023809Y-53667619D01*
X69071428Y-53762857D01*
X69119047Y-53953333D01*
X69119047Y-54191428D01*
X69071428Y-54381904D01*
X69023809Y-54477142D01*
X68976190Y-54524761D01*
X68880952Y-54572380D01*
X68785714Y-54572380D01*
X68690476Y-54524761D01*
X68642857Y-54477142D01*
X68595238Y-54381904D01*
X68547619Y-54191428D01*
X68547619Y-53953333D01*
X68595238Y-53762857D01*
X68642857Y-53667619D01*
X68690476Y-53620000D01*
X68785714Y-53572380D01*
X83880952Y-54524761D02*
X84023809Y-54572380D01*
X84261904Y-54572380D01*
X84357142Y-54524761D01*
X84404761Y-54477142D01*
X84452380Y-54381904D01*
X84452380Y-54286666D01*
X84404761Y-54191428D01*
X84357142Y-54143809D01*
X84261904Y-54096190D01*
X84071428Y-54048571D01*
X83976190Y-54000952D01*
X83928571Y-53953333D01*
X83880952Y-53858095D01*
X83880952Y-53762857D01*
X83928571Y-53667619D01*
X83976190Y-53620000D01*
X84071428Y-53572380D01*
X84309523Y-53572380D01*
X84452380Y-53620000D01*
X84642857Y-54667619D02*
X85404761Y-54667619D01*
X86119047Y-53572380D02*
X85642857Y-53572380D01*
X85595238Y-54048571D01*
X85642857Y-54000952D01*
X85738095Y-53953333D01*
X85976190Y-53953333D01*
X86071428Y-54000952D01*
X86119047Y-54048571D01*
X86166666Y-54143809D01*
X86166666Y-54381904D01*
X86119047Y-54477142D01*
X86071428Y-54524761D01*
X85976190Y-54572380D01*
X85738095Y-54572380D01*
X85642857Y-54524761D01*
X85595238Y-54477142D01*
X87119047Y-54572380D02*
X86547619Y-54572380D01*
X86833333Y-54572380D02*
X86833333Y-53572380D01*
X86738095Y-53715238D01*
X86642857Y-53810476D01*
X86547619Y-53858095D01*
X101880952Y-54524761D02*
X102023809Y-54572380D01*
X102261904Y-54572380D01*
X102357142Y-54524761D01*
X102404761Y-54477142D01*
X102452380Y-54381904D01*
X102452380Y-54286666D01*
X102404761Y-54191428D01*
X102357142Y-54143809D01*
X102261904Y-54096190D01*
X102071428Y-54048571D01*
X101976190Y-54000952D01*
X101928571Y-53953333D01*
X101880952Y-53858095D01*
X101880952Y-53762857D01*
X101928571Y-53667619D01*
X101976190Y-53620000D01*
X102071428Y-53572380D01*
X102309523Y-53572380D01*
X102452380Y-53620000D01*
X102642857Y-54667619D02*
X103404761Y-54667619D01*
X104119047Y-53572380D02*
X103642857Y-53572380D01*
X103595238Y-54048571D01*
X103642857Y-54000952D01*
X103738095Y-53953333D01*
X103976190Y-53953333D01*
X104071428Y-54000952D01*
X104119047Y-54048571D01*
X104166666Y-54143809D01*
X104166666Y-54381904D01*
X104119047Y-54477142D01*
X104071428Y-54524761D01*
X103976190Y-54572380D01*
X103738095Y-54572380D01*
X103642857Y-54524761D01*
X103595238Y-54477142D01*
X104547619Y-53667619D02*
X104595238Y-53620000D01*
X104690476Y-53572380D01*
X104928571Y-53572380D01*
X105023809Y-53620000D01*
X105071428Y-53667619D01*
X105119047Y-53762857D01*
X105119047Y-53858095D01*
X105071428Y-54000952D01*
X104500000Y-54572380D01*
X105119047Y-54572380D01*
X119880952Y-54524761D02*
X120023809Y-54572380D01*
X120261904Y-54572380D01*
X120357142Y-54524761D01*
X120404761Y-54477142D01*
X120452380Y-54381904D01*
X120452380Y-54286666D01*
X120404761Y-54191428D01*
X120357142Y-54143809D01*
X120261904Y-54096190D01*
X120071428Y-54048571D01*
X119976190Y-54000952D01*
X119928571Y-53953333D01*
X119880952Y-53858095D01*
X119880952Y-53762857D01*
X119928571Y-53667619D01*
X119976190Y-53620000D01*
X120071428Y-53572380D01*
X120309523Y-53572380D01*
X120452380Y-53620000D01*
X120642857Y-54667619D02*
X121404761Y-54667619D01*
X122119047Y-53572380D02*
X121642857Y-53572380D01*
X121595238Y-54048571D01*
X121642857Y-54000952D01*
X121738095Y-53953333D01*
X121976190Y-53953333D01*
X122071428Y-54000952D01*
X122119047Y-54048571D01*
X122166666Y-54143809D01*
X122166666Y-54381904D01*
X122119047Y-54477142D01*
X122071428Y-54524761D01*
X121976190Y-54572380D01*
X121738095Y-54572380D01*
X121642857Y-54524761D01*
X121595238Y-54477142D01*
X122500000Y-53572380D02*
X123119047Y-53572380D01*
X122785714Y-53953333D01*
X122928571Y-53953333D01*
X123023809Y-54000952D01*
X123071428Y-54048571D01*
X123119047Y-54143809D01*
X123119047Y-54381904D01*
X123071428Y-54477142D01*
X123023809Y-54524761D01*
X122928571Y-54572380D01*
X122642857Y-54572380D01*
X122547619Y-54524761D01*
X122500000Y-54477142D01*
X137880952Y-54524761D02*
X138023809Y-54572380D01*
X138261904Y-54572380D01*
X138357142Y-54524761D01*
X138404761Y-54477142D01*
X138452380Y-54381904D01*
X138452380Y-54286666D01*
X138404761Y-54191428D01*
X138357142Y-54143809D01*
X138261904Y-54096190D01*
X138071428Y-54048571D01*
X137976190Y-54000952D01*
X137928571Y-53953333D01*
X137880952Y-53858095D01*
X137880952Y-53762857D01*
X137928571Y-53667619D01*
X137976190Y-53620000D01*
X138071428Y-53572380D01*
X138309523Y-53572380D01*
X138452380Y-53620000D01*
X138642857Y-54667619D02*
X139404761Y-54667619D01*
X140119047Y-53572380D02*
X139642857Y-53572380D01*
X139595238Y-54048571D01*
X139642857Y-54000952D01*
X139738095Y-53953333D01*
X139976190Y-53953333D01*
X140071428Y-54000952D01*
X140119047Y-54048571D01*
X140166666Y-54143809D01*
X140166666Y-54381904D01*
X140119047Y-54477142D01*
X140071428Y-54524761D01*
X139976190Y-54572380D01*
X139738095Y-54572380D01*
X139642857Y-54524761D01*
X139595238Y-54477142D01*
X141023809Y-53905714D02*
X141023809Y-54572380D01*
X140785714Y-53524761D02*
X140547619Y-54239047D01*
X141166666Y-54239047D01*
X155880952Y-54524761D02*
X156023809Y-54572380D01*
X156261904Y-54572380D01*
X156357142Y-54524761D01*
X156404761Y-54477142D01*
X156452380Y-54381904D01*
X156452380Y-54286666D01*
X156404761Y-54191428D01*
X156357142Y-54143809D01*
X156261904Y-54096190D01*
X156071428Y-54048571D01*
X155976190Y-54000952D01*
X155928571Y-53953333D01*
X155880952Y-53858095D01*
X155880952Y-53762857D01*
X155928571Y-53667619D01*
X155976190Y-53620000D01*
X156071428Y-53572380D01*
X156309523Y-53572380D01*
X156452380Y-53620000D01*
X156642857Y-54667619D02*
X157404761Y-54667619D01*
X158119047Y-53572380D02*
X157642857Y-53572380D01*
X157595238Y-54048571D01*
X157642857Y-54000952D01*
X157738095Y-53953333D01*
X157976190Y-53953333D01*
X158071428Y-54000952D01*
X158119047Y-54048571D01*
X158166666Y-54143809D01*
X158166666Y-54381904D01*
X158119047Y-54477142D01*
X158071428Y-54524761D01*
X157976190Y-54572380D01*
X157738095Y-54572380D01*
X157642857Y-54524761D01*
X157595238Y-54477142D01*
X159071428Y-53572380D02*
X158595238Y-53572380D01*
X158547619Y-54048571D01*
X158595238Y-54000952D01*
X158690476Y-53953333D01*
X158928571Y-53953333D01*
X159023809Y-54000952D01*
X159071428Y-54048571D01*
X159119047Y-54143809D01*
X159119047Y-54381904D01*
X159071428Y-54477142D01*
X159023809Y-54524761D01*
X158928571Y-54572380D01*
X158690476Y-54572380D01*
X158595238Y-54524761D01*
X158547619Y-54477142D01*
X173880952Y-54524761D02*
X174023809Y-54572380D01*
X174261904Y-54572380D01*
X174357142Y-54524761D01*
X174404761Y-54477142D01*
X174452380Y-54381904D01*
X174452380Y-54286666D01*
X174404761Y-54191428D01*
X174357142Y-54143809D01*
X174261904Y-54096190D01*
X174071428Y-54048571D01*
X173976190Y-54000952D01*
X173928571Y-53953333D01*
X173880952Y-53858095D01*
X173880952Y-53762857D01*
X173928571Y-53667619D01*
X173976190Y-53620000D01*
X174071428Y-53572380D01*
X174309523Y-53572380D01*
X174452380Y-53620000D01*
X174642857Y-54667619D02*
X175404761Y-54667619D01*
X176119047Y-53572380D02*
X175642857Y-53572380D01*
X175595238Y-54048571D01*
X175642857Y-54000952D01*
X175738095Y-53953333D01*
X175976190Y-53953333D01*
X176071428Y-54000952D01*
X176119047Y-54048571D01*
X176166666Y-54143809D01*
X176166666Y-54381904D01*
X176119047Y-54477142D01*
X176071428Y-54524761D01*
X175976190Y-54572380D01*
X175738095Y-54572380D01*
X175642857Y-54524761D01*
X175595238Y-54477142D01*
X177023809Y-53572380D02*
X176833333Y-53572380D01*
X176738095Y-53620000D01*
X176690476Y-53667619D01*
X176595238Y-53810476D01*
X176547619Y-54000952D01*
X176547619Y-54381904D01*
X176595238Y-54477142D01*
X176642857Y-54524761D01*
X176738095Y-54572380D01*
X176928571Y-54572380D01*
X177023809Y-54524761D01*
X177071428Y-54477142D01*
X177119047Y-54381904D01*
X177119047Y-54143809D01*
X177071428Y-54048571D01*
X177023809Y-54000952D01*
X176928571Y-53953333D01*
X176738095Y-53953333D01*
X176642857Y-54000952D01*
X176595238Y-54048571D01*
X176547619Y-54143809D01*
X191880952Y-54524761D02*
X192023809Y-54572380D01*
X192261904Y-54572380D01*
X192357142Y-54524761D01*
X192404761Y-54477142D01*
X192452380Y-54381904D01*
X192452380Y-54286666D01*
X192404761Y-54191428D01*
X192357142Y-54143809D01*
X192261904Y-54096190D01*
X192071428Y-54048571D01*
X191976190Y-54000952D01*
X191928571Y-53953333D01*
X191880952Y-53858095D01*
X191880952Y-53762857D01*
X191928571Y-53667619D01*
X191976190Y-53620000D01*
X192071428Y-53572380D01*
X192309523Y-53572380D01*
X192452380Y-53620000D01*
X192642857Y-54667619D02*
X193404761Y-54667619D01*
X194119047Y-53572380D02*
X193642857Y-53572380D01*
X193595238Y-54048571D01*
X193642857Y-54000952D01*
X193738095Y-53953333D01*
X193976190Y-53953333D01*
X194071428Y-54000952D01*
X194119047Y-54048571D01*
X194166666Y-54143809D01*
X194166666Y-54381904D01*
X194119047Y-54477142D01*
X194071428Y-54524761D01*
X193976190Y-54572380D01*
X193738095Y-54572380D01*
X193642857Y-54524761D01*
X193595238Y-54477142D01*
X194500000Y-53572380D02*
X195166666Y-53572380D01*
X194738095Y-54572380D01*
X209880952Y-54524761D02*
X210023809Y-54572380D01*
X210261904Y-54572380D01*
X210357142Y-54524761D01*
X210404761Y-54477142D01*
X210452380Y-54381904D01*
X210452380Y-54286666D01*
X210404761Y-54191428D01*
X210357142Y-54143809D01*
X210261904Y-54096190D01*
X210071428Y-54048571D01*
X209976190Y-54000952D01*
X209928571Y-53953333D01*
X209880952Y-53858095D01*
X209880952Y-53762857D01*
X209928571Y-53667619D01*
X209976190Y-53620000D01*
X210071428Y-53572380D01*
X210309523Y-53572380D01*
X210452380Y-53620000D01*
X210642857Y-54667619D02*
X211404761Y-54667619D01*
X212119047Y-53572380D02*
X211642857Y-53572380D01*
X211595238Y-54048571D01*
X211642857Y-54000952D01*
X211738095Y-53953333D01*
X211976190Y-53953333D01*
X212071428Y-54000952D01*
X212119047Y-54048571D01*
X212166666Y-54143809D01*
X212166666Y-54381904D01*
X212119047Y-54477142D01*
X212071428Y-54524761D01*
X211976190Y-54572380D01*
X211738095Y-54572380D01*
X211642857Y-54524761D01*
X211595238Y-54477142D01*
X212738095Y-54000952D02*
X212642857Y-53953333D01*
X212595238Y-53905714D01*
X212547619Y-53810476D01*
X212547619Y-53762857D01*
X212595238Y-53667619D01*
X212642857Y-53620000D01*
X212738095Y-53572380D01*
X212928571Y-53572380D01*
X213023809Y-53620000D01*
X213071428Y-53667619D01*
X213119047Y-53762857D01*
X213119047Y-53810476D01*
X213071428Y-53905714D01*
X213023809Y-53953333D01*
X212928571Y-54000952D01*
X212738095Y-54000952D01*
X212642857Y-54048571D01*
X212595238Y-54096190D01*
X212547619Y-54191428D01*
X212547619Y-54381904D01*
X212595238Y-54477142D01*
X212642857Y-54524761D01*
X212738095Y-54572380D01*
X212928571Y-54572380D01*
X213023809Y-54524761D01*
X213071428Y-54477142D01*
X213119047Y-54381904D01*
X213119047Y-54191428D01*
X213071428Y-54096190D01*
X213023809Y-54048571D01*
X212928571Y-54000952D01*
X233530952Y-54524761D02*
X233673809Y-54572380D01*
X233911904Y-54572380D01*
X234007142Y-54524761D01*
X234054761Y-54477142D01*
X234102380Y-54381904D01*
X234102380Y-54286666D01*
X234054761Y-54191428D01*
X234007142Y-54143809D01*
X233911904Y-54096190D01*
X233721428Y-54048571D01*
X233626190Y-54000952D01*
X233578571Y-53953333D01*
X233530952Y-53858095D01*
X233530952Y-53762857D01*
X233578571Y-53667619D01*
X233626190Y-53620000D01*
X233721428Y-53572380D01*
X233959523Y-53572380D01*
X234102380Y-53620000D01*
X234292857Y-54667619D02*
X235054761Y-54667619D01*
X235769047Y-53572380D02*
X235292857Y-53572380D01*
X235245238Y-54048571D01*
X235292857Y-54000952D01*
X235388095Y-53953333D01*
X235626190Y-53953333D01*
X235721428Y-54000952D01*
X235769047Y-54048571D01*
X235816666Y-54143809D01*
X235816666Y-54381904D01*
X235769047Y-54477142D01*
X235721428Y-54524761D01*
X235626190Y-54572380D01*
X235388095Y-54572380D01*
X235292857Y-54524761D01*
X235245238Y-54477142D01*
X236292857Y-54572380D02*
X236483333Y-54572380D01*
X236578571Y-54524761D01*
X236626190Y-54477142D01*
X236721428Y-54334285D01*
X236769047Y-54143809D01*
X236769047Y-53762857D01*
X236721428Y-53667619D01*
X236673809Y-53620000D01*
X236578571Y-53572380D01*
X236388095Y-53572380D01*
X236292857Y-53620000D01*
X236245238Y-53667619D01*
X236197619Y-53762857D01*
X236197619Y-54000952D01*
X236245238Y-54096190D01*
X236292857Y-54143809D01*
X236388095Y-54191428D01*
X236578571Y-54191428D01*
X236673809Y-54143809D01*
X236721428Y-54096190D01*
X236769047Y-54000952D01*
X259380952Y-54524761D02*
X259523809Y-54572380D01*
X259761904Y-54572380D01*
X259857142Y-54524761D01*
X259904761Y-54477142D01*
X259952380Y-54381904D01*
X259952380Y-54286666D01*
X259904761Y-54191428D01*
X259857142Y-54143809D01*
X259761904Y-54096190D01*
X259571428Y-54048571D01*
X259476190Y-54000952D01*
X259428571Y-53953333D01*
X259380952Y-53858095D01*
X259380952Y-53762857D01*
X259428571Y-53667619D01*
X259476190Y-53620000D01*
X259571428Y-53572380D01*
X259809523Y-53572380D01*
X259952380Y-53620000D01*
X260142857Y-54667619D02*
X260904761Y-54667619D01*
X261571428Y-53572380D02*
X261380952Y-53572380D01*
X261285714Y-53620000D01*
X261238095Y-53667619D01*
X261142857Y-53810476D01*
X261095238Y-54000952D01*
X261095238Y-54381904D01*
X261142857Y-54477142D01*
X261190476Y-54524761D01*
X261285714Y-54572380D01*
X261476190Y-54572380D01*
X261571428Y-54524761D01*
X261619047Y-54477142D01*
X261666666Y-54381904D01*
X261666666Y-54143809D01*
X261619047Y-54048571D01*
X261571428Y-54000952D01*
X261476190Y-53953333D01*
X261285714Y-53953333D01*
X261190476Y-54000952D01*
X261142857Y-54048571D01*
X261095238Y-54143809D01*
X262285714Y-53572380D02*
X262380952Y-53572380D01*
X262476190Y-53620000D01*
X262523809Y-53667619D01*
X262571428Y-53762857D01*
X262619047Y-53953333D01*
X262619047Y-54191428D01*
X262571428Y-54381904D01*
X262523809Y-54477142D01*
X262476190Y-54524761D01*
X262380952Y-54572380D01*
X262285714Y-54572380D01*
X262190476Y-54524761D01*
X262142857Y-54477142D01*
X262095238Y-54381904D01*
X262047619Y-54191428D01*
X262047619Y-53953333D01*
X262095238Y-53762857D01*
X262142857Y-53667619D01*
X262190476Y-53620000D01*
X262285714Y-53572380D01*
X-469047Y-71524761D02*
X-326190Y-71572380D01*
X-88095Y-71572380D01*
X7142Y-71524761D01*
X54761Y-71477142D01*
X102380Y-71381904D01*
X102380Y-71286666D01*
X54761Y-71191428D01*
X7142Y-71143809D01*
X-88095Y-71096190D01*
X-278571Y-71048571D01*
X-373809Y-71000952D01*
X-421428Y-70953333D01*
X-469047Y-70858095D01*
X-469047Y-70762857D01*
X-421428Y-70667619D01*
X-373809Y-70620000D01*
X-278571Y-70572380D01*
X-40476Y-70572380D01*
X102380Y-70620000D01*
X292857Y-71667619D02*
X1054761Y-71667619D01*
X1721428Y-70572380D02*
X1530952Y-70572380D01*
X1435714Y-70620000D01*
X1388095Y-70667619D01*
X1292857Y-70810476D01*
X1245238Y-71000952D01*
X1245238Y-71381904D01*
X1292857Y-71477142D01*
X1340476Y-71524761D01*
X1435714Y-71572380D01*
X1626190Y-71572380D01*
X1721428Y-71524761D01*
X1769047Y-71477142D01*
X1816666Y-71381904D01*
X1816666Y-71143809D01*
X1769047Y-71048571D01*
X1721428Y-71000952D01*
X1626190Y-70953333D01*
X1435714Y-70953333D01*
X1340476Y-71000952D01*
X1292857Y-71048571D01*
X1245238Y-71143809D01*
X2769047Y-71572380D02*
X2197619Y-71572380D01*
X2483333Y-71572380D02*
X2483333Y-70572380D01*
X2388095Y-70715238D01*
X2292857Y-70810476D01*
X2197619Y-70858095D01*
X20880952Y-71524761D02*
X21023809Y-71572380D01*
X21261904Y-71572380D01*
X21357142Y-71524761D01*
X21404761Y-71477142D01*
X21452380Y-71381904D01*
X21452380Y-71286666D01*
X21404761Y-71191428D01*
X21357142Y-71143809D01*
X21261904Y-71096190D01*
X21071428Y-71048571D01*
X20976190Y-71000952D01*
X20928571Y-70953333D01*
X20880952Y-70858095D01*
X20880952Y-70762857D01*
X20928571Y-70667619D01*
X20976190Y-70620000D01*
X21071428Y-70572380D01*
X21309523Y-70572380D01*
X21452380Y-70620000D01*
X21642857Y-71667619D02*
X22404761Y-71667619D01*
X23071428Y-70572380D02*
X22880952Y-70572380D01*
X22785714Y-70620000D01*
X22738095Y-70667619D01*
X22642857Y-70810476D01*
X22595238Y-71000952D01*
X22595238Y-71381904D01*
X22642857Y-71477142D01*
X22690476Y-71524761D01*
X22785714Y-71572380D01*
X22976190Y-71572380D01*
X23071428Y-71524761D01*
X23119047Y-71477142D01*
X23166666Y-71381904D01*
X23166666Y-71143809D01*
X23119047Y-71048571D01*
X23071428Y-71000952D01*
X22976190Y-70953333D01*
X22785714Y-70953333D01*
X22690476Y-71000952D01*
X22642857Y-71048571D01*
X22595238Y-71143809D01*
X23547619Y-70667619D02*
X23595238Y-70620000D01*
X23690476Y-70572380D01*
X23928571Y-70572380D01*
X24023809Y-70620000D01*
X24071428Y-70667619D01*
X24119047Y-70762857D01*
X24119047Y-70858095D01*
X24071428Y-71000952D01*
X23500000Y-71572380D01*
X24119047Y-71572380D01*
X38880952Y-71524761D02*
X39023809Y-71572380D01*
X39261904Y-71572380D01*
X39357142Y-71524761D01*
X39404761Y-71477142D01*
X39452380Y-71381904D01*
X39452380Y-71286666D01*
X39404761Y-71191428D01*
X39357142Y-71143809D01*
X39261904Y-71096190D01*
X39071428Y-71048571D01*
X38976190Y-71000952D01*
X38928571Y-70953333D01*
X38880952Y-70858095D01*
X38880952Y-70762857D01*
X38928571Y-70667619D01*
X38976190Y-70620000D01*
X39071428Y-70572380D01*
X39309523Y-70572380D01*
X39452380Y-70620000D01*
X39642857Y-71667619D02*
X40404761Y-71667619D01*
X41071428Y-70572380D02*
X40880952Y-70572380D01*
X40785714Y-70620000D01*
X40738095Y-70667619D01*
X40642857Y-70810476D01*
X40595238Y-71000952D01*
X40595238Y-71381904D01*
X40642857Y-71477142D01*
X40690476Y-71524761D01*
X40785714Y-71572380D01*
X40976190Y-71572380D01*
X41071428Y-71524761D01*
X41119047Y-71477142D01*
X41166666Y-71381904D01*
X41166666Y-71143809D01*
X41119047Y-71048571D01*
X41071428Y-71000952D01*
X40976190Y-70953333D01*
X40785714Y-70953333D01*
X40690476Y-71000952D01*
X40642857Y-71048571D01*
X40595238Y-71143809D01*
X41500000Y-70572380D02*
X42119047Y-70572380D01*
X41785714Y-70953333D01*
X41928571Y-70953333D01*
X42023809Y-71000952D01*
X42071428Y-71048571D01*
X42119047Y-71143809D01*
X42119047Y-71381904D01*
X42071428Y-71477142D01*
X42023809Y-71524761D01*
X41928571Y-71572380D01*
X41642857Y-71572380D01*
X41547619Y-71524761D01*
X41500000Y-71477142D01*
X56880952Y-71524761D02*
X57023809Y-71572380D01*
X57261904Y-71572380D01*
X57357142Y-71524761D01*
X57404761Y-71477142D01*
X57452380Y-71381904D01*
X57452380Y-71286666D01*
X57404761Y-71191428D01*
X57357142Y-71143809D01*
X57261904Y-71096190D01*
X57071428Y-71048571D01*
X56976190Y-71000952D01*
X56928571Y-70953333D01*
X56880952Y-70858095D01*
X56880952Y-70762857D01*
X56928571Y-70667619D01*
X56976190Y-70620000D01*
X57071428Y-70572380D01*
X57309523Y-70572380D01*
X57452380Y-70620000D01*
X57642857Y-71667619D02*
X58404761Y-71667619D01*
X59071428Y-70572380D02*
X58880952Y-70572380D01*
X58785714Y-70620000D01*
X58738095Y-70667619D01*
X58642857Y-70810476D01*
X58595238Y-71000952D01*
X58595238Y-71381904D01*
X58642857Y-71477142D01*
X58690476Y-71524761D01*
X58785714Y-71572380D01*
X58976190Y-71572380D01*
X59071428Y-71524761D01*
X59119047Y-71477142D01*
X59166666Y-71381904D01*
X59166666Y-71143809D01*
X59119047Y-71048571D01*
X59071428Y-71000952D01*
X58976190Y-70953333D01*
X58785714Y-70953333D01*
X58690476Y-71000952D01*
X58642857Y-71048571D01*
X58595238Y-71143809D01*
X60023809Y-70905714D02*
X60023809Y-71572380D01*
X59785714Y-70524761D02*
X59547619Y-71239047D01*
X60166666Y-71239047D01*
X74880952Y-71524761D02*
X75023809Y-71572380D01*
X75261904Y-71572380D01*
X75357142Y-71524761D01*
X75404761Y-71477142D01*
X75452380Y-71381904D01*
X75452380Y-71286666D01*
X75404761Y-71191428D01*
X75357142Y-71143809D01*
X75261904Y-71096190D01*
X75071428Y-71048571D01*
X74976190Y-71000952D01*
X74928571Y-70953333D01*
X74880952Y-70858095D01*
X74880952Y-70762857D01*
X74928571Y-70667619D01*
X74976190Y-70620000D01*
X75071428Y-70572380D01*
X75309523Y-70572380D01*
X75452380Y-70620000D01*
X75642857Y-71667619D02*
X76404761Y-71667619D01*
X77071428Y-70572380D02*
X76880952Y-70572380D01*
X76785714Y-70620000D01*
X76738095Y-70667619D01*
X76642857Y-70810476D01*
X76595238Y-71000952D01*
X76595238Y-71381904D01*
X76642857Y-71477142D01*
X76690476Y-71524761D01*
X76785714Y-71572380D01*
X76976190Y-71572380D01*
X77071428Y-71524761D01*
X77119047Y-71477142D01*
X77166666Y-71381904D01*
X77166666Y-71143809D01*
X77119047Y-71048571D01*
X77071428Y-71000952D01*
X76976190Y-70953333D01*
X76785714Y-70953333D01*
X76690476Y-71000952D01*
X76642857Y-71048571D01*
X76595238Y-71143809D01*
X78071428Y-70572380D02*
X77595238Y-70572380D01*
X77547619Y-71048571D01*
X77595238Y-71000952D01*
X77690476Y-70953333D01*
X77928571Y-70953333D01*
X78023809Y-71000952D01*
X78071428Y-71048571D01*
X78119047Y-71143809D01*
X78119047Y-71381904D01*
X78071428Y-71477142D01*
X78023809Y-71524761D01*
X77928571Y-71572380D01*
X77690476Y-71572380D01*
X77595238Y-71524761D01*
X77547619Y-71477142D01*
X103380952Y-71524761D02*
X103523809Y-71572380D01*
X103761904Y-71572380D01*
X103857142Y-71524761D01*
X103904761Y-71477142D01*
X103952380Y-71381904D01*
X103952380Y-71286666D01*
X103904761Y-71191428D01*
X103857142Y-71143809D01*
X103761904Y-71096190D01*
X103571428Y-71048571D01*
X103476190Y-71000952D01*
X103428571Y-70953333D01*
X103380952Y-70858095D01*
X103380952Y-70762857D01*
X103428571Y-70667619D01*
X103476190Y-70620000D01*
X103571428Y-70572380D01*
X103809523Y-70572380D01*
X103952380Y-70620000D01*
X104142857Y-71667619D02*
X104904761Y-71667619D01*
X105571428Y-70572380D02*
X105380952Y-70572380D01*
X105285714Y-70620000D01*
X105238095Y-70667619D01*
X105142857Y-70810476D01*
X105095238Y-71000952D01*
X105095238Y-71381904D01*
X105142857Y-71477142D01*
X105190476Y-71524761D01*
X105285714Y-71572380D01*
X105476190Y-71572380D01*
X105571428Y-71524761D01*
X105619047Y-71477142D01*
X105666666Y-71381904D01*
X105666666Y-71143809D01*
X105619047Y-71048571D01*
X105571428Y-71000952D01*
X105476190Y-70953333D01*
X105285714Y-70953333D01*
X105190476Y-71000952D01*
X105142857Y-71048571D01*
X105095238Y-71143809D01*
X106523809Y-70572380D02*
X106333333Y-70572380D01*
X106238095Y-70620000D01*
X106190476Y-70667619D01*
X106095238Y-70810476D01*
X106047619Y-71000952D01*
X106047619Y-71381904D01*
X106095238Y-71477142D01*
X106142857Y-71524761D01*
X106238095Y-71572380D01*
X106428571Y-71572380D01*
X106523809Y-71524761D01*
X106571428Y-71477142D01*
X106619047Y-71381904D01*
X106619047Y-71143809D01*
X106571428Y-71048571D01*
X106523809Y-71000952D01*
X106428571Y-70953333D01*
X106238095Y-70953333D01*
X106142857Y-71000952D01*
X106095238Y-71048571D01*
X106047619Y-71143809D01*
X136380952Y-71524761D02*
X136523809Y-71572380D01*
X136761904Y-71572380D01*
X136857142Y-71524761D01*
X136904761Y-71477142D01*
X136952380Y-71381904D01*
X136952380Y-71286666D01*
X136904761Y-71191428D01*
X136857142Y-71143809D01*
X136761904Y-71096190D01*
X136571428Y-71048571D01*
X136476190Y-71000952D01*
X136428571Y-70953333D01*
X136380952Y-70858095D01*
X136380952Y-70762857D01*
X136428571Y-70667619D01*
X136476190Y-70620000D01*
X136571428Y-70572380D01*
X136809523Y-70572380D01*
X136952380Y-70620000D01*
X137142857Y-71667619D02*
X137904761Y-71667619D01*
X138571428Y-70572380D02*
X138380952Y-70572380D01*
X138285714Y-70620000D01*
X138238095Y-70667619D01*
X138142857Y-70810476D01*
X138095238Y-71000952D01*
X138095238Y-71381904D01*
X138142857Y-71477142D01*
X138190476Y-71524761D01*
X138285714Y-71572380D01*
X138476190Y-71572380D01*
X138571428Y-71524761D01*
X138619047Y-71477142D01*
X138666666Y-71381904D01*
X138666666Y-71143809D01*
X138619047Y-71048571D01*
X138571428Y-71000952D01*
X138476190Y-70953333D01*
X138285714Y-70953333D01*
X138190476Y-71000952D01*
X138142857Y-71048571D01*
X138095238Y-71143809D01*
X139000000Y-70572380D02*
X139666666Y-70572380D01*
X139238095Y-71572380D01*
X164880952Y-71524761D02*
X165023809Y-71572380D01*
X165261904Y-71572380D01*
X165357142Y-71524761D01*
X165404761Y-71477142D01*
X165452380Y-71381904D01*
X165452380Y-71286666D01*
X165404761Y-71191428D01*
X165357142Y-71143809D01*
X165261904Y-71096190D01*
X165071428Y-71048571D01*
X164976190Y-71000952D01*
X164928571Y-70953333D01*
X164880952Y-70858095D01*
X164880952Y-70762857D01*
X164928571Y-70667619D01*
X164976190Y-70620000D01*
X165071428Y-70572380D01*
X165309523Y-70572380D01*
X165452380Y-70620000D01*
X165642857Y-71667619D02*
X166404761Y-71667619D01*
X167071428Y-70572380D02*
X166880952Y-70572380D01*
X166785714Y-70620000D01*
X166738095Y-70667619D01*
X166642857Y-70810476D01*
X166595238Y-71000952D01*
X166595238Y-71381904D01*
X166642857Y-71477142D01*
X166690476Y-71524761D01*
X166785714Y-71572380D01*
X166976190Y-71572380D01*
X167071428Y-71524761D01*
X167119047Y-71477142D01*
X167166666Y-71381904D01*
X167166666Y-71143809D01*
X167119047Y-71048571D01*
X167071428Y-71000952D01*
X166976190Y-70953333D01*
X166785714Y-70953333D01*
X166690476Y-71000952D01*
X166642857Y-71048571D01*
X166595238Y-71143809D01*
X167738095Y-71000952D02*
X167642857Y-70953333D01*
X167595238Y-70905714D01*
X167547619Y-70810476D01*
X167547619Y-70762857D01*
X167595238Y-70667619D01*
X167642857Y-70620000D01*
X167738095Y-70572380D01*
X167928571Y-70572380D01*
X168023809Y-70620000D01*
X168071428Y-70667619D01*
X168119047Y-70762857D01*
X168119047Y-70810476D01*
X168071428Y-70905714D01*
X168023809Y-70953333D01*
X167928571Y-71000952D01*
X167738095Y-71000952D01*
X167642857Y-71048571D01*
X167595238Y-71096190D01*
X167547619Y-71191428D01*
X167547619Y-71381904D01*
X167595238Y-71477142D01*
X167642857Y-71524761D01*
X167738095Y-71572380D01*
X167928571Y-71572380D01*
X168023809Y-71524761D01*
X168071428Y-71477142D01*
X168119047Y-71381904D01*
X168119047Y-71191428D01*
X168071428Y-71096190D01*
X168023809Y-71048571D01*
X167928571Y-71000952D01*
X182880952Y-71524761D02*
X183023809Y-71572380D01*
X183261904Y-71572380D01*
X183357142Y-71524761D01*
X183404761Y-71477142D01*
X183452380Y-71381904D01*
X183452380Y-71286666D01*
X183404761Y-71191428D01*
X183357142Y-71143809D01*
X183261904Y-71096190D01*
X183071428Y-71048571D01*
X182976190Y-71000952D01*
X182928571Y-70953333D01*
X182880952Y-70858095D01*
X182880952Y-70762857D01*
X182928571Y-70667619D01*
X182976190Y-70620000D01*
X183071428Y-70572380D01*
X183309523Y-70572380D01*
X183452380Y-70620000D01*
X183642857Y-71667619D02*
X184404761Y-71667619D01*
X185071428Y-70572380D02*
X184880952Y-70572380D01*
X184785714Y-70620000D01*
X184738095Y-70667619D01*
X184642857Y-70810476D01*
X184595238Y-71000952D01*
X184595238Y-71381904D01*
X184642857Y-71477142D01*
X184690476Y-71524761D01*
X184785714Y-71572380D01*
X184976190Y-71572380D01*
X185071428Y-71524761D01*
X185119047Y-71477142D01*
X185166666Y-71381904D01*
X185166666Y-71143809D01*
X185119047Y-71048571D01*
X185071428Y-71000952D01*
X184976190Y-70953333D01*
X184785714Y-70953333D01*
X184690476Y-71000952D01*
X184642857Y-71048571D01*
X184595238Y-71143809D01*
X185642857Y-71572380D02*
X185833333Y-71572380D01*
X185928571Y-71524761D01*
X185976190Y-71477142D01*
X186071428Y-71334285D01*
X186119047Y-71143809D01*
X186119047Y-70762857D01*
X186071428Y-70667619D01*
X186023809Y-70620000D01*
X185928571Y-70572380D01*
X185738095Y-70572380D01*
X185642857Y-70620000D01*
X185595238Y-70667619D01*
X185547619Y-70762857D01*
X185547619Y-71000952D01*
X185595238Y-71096190D01*
X185642857Y-71143809D01*
X185738095Y-71191428D01*
X185928571Y-71191428D01*
X186023809Y-71143809D01*
X186071428Y-71096190D01*
X186119047Y-71000952D01*
X200880952Y-71524761D02*
X201023809Y-71572380D01*
X201261904Y-71572380D01*
X201357142Y-71524761D01*
X201404761Y-71477142D01*
X201452380Y-71381904D01*
X201452380Y-71286666D01*
X201404761Y-71191428D01*
X201357142Y-71143809D01*
X201261904Y-71096190D01*
X201071428Y-71048571D01*
X200976190Y-71000952D01*
X200928571Y-70953333D01*
X200880952Y-70858095D01*
X200880952Y-70762857D01*
X200928571Y-70667619D01*
X200976190Y-70620000D01*
X201071428Y-70572380D01*
X201309523Y-70572380D01*
X201452380Y-70620000D01*
X201642857Y-71667619D02*
X202404761Y-71667619D01*
X202547619Y-70572380D02*
X203214285Y-70572380D01*
X202785714Y-71572380D01*
X203785714Y-70572380D02*
X203880952Y-70572380D01*
X203976190Y-70620000D01*
X204023809Y-70667619D01*
X204071428Y-70762857D01*
X204119047Y-70953333D01*
X204119047Y-71191428D01*
X204071428Y-71381904D01*
X204023809Y-71477142D01*
X203976190Y-71524761D01*
X203880952Y-71572380D01*
X203785714Y-71572380D01*
X203690476Y-71524761D01*
X203642857Y-71477142D01*
X203595238Y-71381904D01*
X203547619Y-71191428D01*
X203547619Y-70953333D01*
X203595238Y-70762857D01*
X203642857Y-70667619D01*
X203690476Y-70620000D01*
X203785714Y-70572380D01*
X220030952Y-71504761D02*
X220173809Y-71552380D01*
X220411904Y-71552380D01*
X220507142Y-71504761D01*
X220554761Y-71457142D01*
X220602380Y-71361904D01*
X220602380Y-71266666D01*
X220554761Y-71171428D01*
X220507142Y-71123809D01*
X220411904Y-71076190D01*
X220221428Y-71028571D01*
X220126190Y-70980952D01*
X220078571Y-70933333D01*
X220030952Y-70838095D01*
X220030952Y-70742857D01*
X220078571Y-70647619D01*
X220126190Y-70600000D01*
X220221428Y-70552380D01*
X220459523Y-70552380D01*
X220602380Y-70600000D01*
X220792857Y-71647619D02*
X221554761Y-71647619D01*
X221697619Y-70552380D02*
X222364285Y-70552380D01*
X221935714Y-71552380D01*
X223269047Y-71552380D02*
X222697619Y-71552380D01*
X222983333Y-71552380D02*
X222983333Y-70552380D01*
X222888095Y-70695238D01*
X222792857Y-70790476D01*
X222697619Y-70838095D01*
X241380952Y-71524761D02*
X241523809Y-71572380D01*
X241761904Y-71572380D01*
X241857142Y-71524761D01*
X241904761Y-71477142D01*
X241952380Y-71381904D01*
X241952380Y-71286666D01*
X241904761Y-71191428D01*
X241857142Y-71143809D01*
X241761904Y-71096190D01*
X241571428Y-71048571D01*
X241476190Y-71000952D01*
X241428571Y-70953333D01*
X241380952Y-70858095D01*
X241380952Y-70762857D01*
X241428571Y-70667619D01*
X241476190Y-70620000D01*
X241571428Y-70572380D01*
X241809523Y-70572380D01*
X241952380Y-70620000D01*
X242142857Y-71667619D02*
X242904761Y-71667619D01*
X243047619Y-70572380D02*
X243714285Y-70572380D01*
X243285714Y-71572380D01*
X244047619Y-70667619D02*
X244095238Y-70620000D01*
X244190476Y-70572380D01*
X244428571Y-70572380D01*
X244523809Y-70620000D01*
X244571428Y-70667619D01*
X244619047Y-70762857D01*
X244619047Y-70858095D01*
X244571428Y-71000952D01*
X244000000Y-71572380D01*
X244619047Y-71572380D01*
X259380952Y-71524761D02*
X259523809Y-71572380D01*
X259761904Y-71572380D01*
X259857142Y-71524761D01*
X259904761Y-71477142D01*
X259952380Y-71381904D01*
X259952380Y-71286666D01*
X259904761Y-71191428D01*
X259857142Y-71143809D01*
X259761904Y-71096190D01*
X259571428Y-71048571D01*
X259476190Y-71000952D01*
X259428571Y-70953333D01*
X259380952Y-70858095D01*
X259380952Y-70762857D01*
X259428571Y-70667619D01*
X259476190Y-70620000D01*
X259571428Y-70572380D01*
X259809523Y-70572380D01*
X259952380Y-70620000D01*
X260142857Y-71667619D02*
X260904761Y-71667619D01*
X261047619Y-70572380D02*
X261714285Y-70572380D01*
X261285714Y-71572380D01*
X262000000Y-70572380D02*
X262619047Y-70572380D01*
X262285714Y-70953333D01*
X262428571Y-70953333D01*
X262523809Y-71000952D01*
X262571428Y-71048571D01*
X262619047Y-71143809D01*
X262619047Y-71381904D01*
X262571428Y-71477142D01*
X262523809Y-71524761D01*
X262428571Y-71572380D01*
X262142857Y-71572380D01*
X262047619Y-71524761D01*
X262000000Y-71477142D01*
X277380952Y-71524761D02*
X277523809Y-71572380D01*
X277761904Y-71572380D01*
X277857142Y-71524761D01*
X277904761Y-71477142D01*
X277952380Y-71381904D01*
X277952380Y-71286666D01*
X277904761Y-71191428D01*
X277857142Y-71143809D01*
X277761904Y-71096190D01*
X277571428Y-71048571D01*
X277476190Y-71000952D01*
X277428571Y-70953333D01*
X277380952Y-70858095D01*
X277380952Y-70762857D01*
X277428571Y-70667619D01*
X277476190Y-70620000D01*
X277571428Y-70572380D01*
X277809523Y-70572380D01*
X277952380Y-70620000D01*
X278142857Y-71667619D02*
X278904761Y-71667619D01*
X279047619Y-70572380D02*
X279714285Y-70572380D01*
X279285714Y-71572380D01*
X280523809Y-70905714D02*
X280523809Y-71572380D01*
X280285714Y-70524761D02*
X280047619Y-71239047D01*
X280666666Y-71239047D01*
X149052380Y-73952380D02*
X148576190Y-74285714D01*
X149052380Y-74523809D02*
X148052380Y-74523809D01*
X148052380Y-74142857D01*
X148100000Y-74047619D01*
X148147619Y-74000000D01*
X148242857Y-73952380D01*
X148385714Y-73952380D01*
X148480952Y-74000000D01*
X148528571Y-74047619D01*
X148576190Y-74142857D01*
X148576190Y-74523809D01*
X148528571Y-73523809D02*
X148528571Y-73190476D01*
X149052380Y-73047619D02*
X149052380Y-73523809D01*
X148052380Y-73523809D01*
X148052380Y-73047619D01*
X149004761Y-72666666D02*
X149052380Y-72523809D01*
X149052380Y-72285714D01*
X149004761Y-72190476D01*
X148957142Y-72142857D01*
X148861904Y-72095238D01*
X148766666Y-72095238D01*
X148671428Y-72142857D01*
X148623809Y-72190476D01*
X148576190Y-72285714D01*
X148528571Y-72476190D01*
X148480952Y-72571428D01*
X148433333Y-72619047D01*
X148338095Y-72666666D01*
X148242857Y-72666666D01*
X148147619Y-72619047D01*
X148100000Y-72571428D01*
X148052380Y-72476190D01*
X148052380Y-72238095D01*
X148100000Y-72095238D01*
X148528571Y-71666666D02*
X148528571Y-71333333D01*
X149052380Y-71190476D02*
X149052380Y-71666666D01*
X148052380Y-71666666D01*
X148052380Y-71190476D01*
X148052380Y-70904761D02*
X148052380Y-70333333D01*
X149052380Y-70619047D02*
X148052380Y-70619047D01*
X19500000Y-36352380D02*
X19023809Y-36352380D01*
X19023809Y-35352380D01*
X19833333Y-35828571D02*
X20166666Y-35828571D01*
X20309523Y-36352380D02*
X19833333Y-36352380D01*
X19833333Y-35352380D01*
X20309523Y-35352380D01*
X20738095Y-36352380D02*
X20738095Y-35352380D01*
X20976190Y-35352380D01*
X21119047Y-35400000D01*
X21214285Y-35495238D01*
X21261904Y-35590476D01*
X21309523Y-35780952D01*
X21309523Y-35923809D01*
X21261904Y-36114285D01*
X21214285Y-36209523D01*
X21119047Y-36304761D01*
X20976190Y-36352380D01*
X20738095Y-36352380D01*
X21500000Y-36447619D02*
X22261904Y-36447619D01*
X23023809Y-36352380D02*
X22452380Y-36352380D01*
X22738095Y-36352380D02*
X22738095Y-35352380D01*
X22642857Y-35495238D01*
X22547619Y-35590476D01*
X22452380Y-35638095D01*
M02*
