M48
; DRILL file {KiCad (5.1.8)-1} date 03/20/21 07:13:33
; FORMAT={-:-/ absolute / metric / decimal}
; #@! TF.CreationDate,2021-03-20T07:13:33-07:00
; #@! TF.GenerationSoftware,Kicad,Pcbnew,(5.1.8)-1
FMAT,2
METRIC
T1C0.400
T2C0.650
T3C1.270
T4C4.062
T5C0.700
T6C1.702
T7C5.000
%
G90
G05
T1
X0.9Y-2.8
X1.6Y-12.65
X6.975Y-6.825
X7.775Y-12.85
X11.4Y-7.825
X14.475Y-7.25
X17.5Y-48.95
X17.5Y-50.45
X18.2Y-16.275
X18.9Y-31.95
X18.9Y-33.45
X18.95Y-14.825
X18.95Y-19.354
X18.95Y-21.25
X18.95Y-22.75
X19.7Y-16.275
X20.3Y-4.4
X22.0Y-65.95
X22.0Y-67.9
X23.45Y-36.0
X35.5Y-48.95
X35.5Y-50.45
X35.85Y-16.2
X36.9Y-17.25
X36.9Y-31.975
X36.9Y-33.875
X44.5Y-65.95
X44.5Y-68.35
X53.5Y-48.95
X53.5Y-50.45
X54.9Y-14.95
X54.9Y-16.45
X54.95Y-31.975
X54.95Y-33.875
X62.5Y-65.95
X65.35Y-68.8
X71.5Y-48.95
X71.5Y-50.45
X72.95Y-14.95
X72.95Y-16.45
X72.95Y-31.975
X72.95Y-33.875
X80.5Y-65.95
X83.85Y-69.3
X89.5Y-48.95
X89.5Y-50.45
X90.9Y-14.95
X90.9Y-16.45
X90.9Y-31.975
X90.9Y-33.875
X96.193Y-69.682
X96.2Y-65.975
X102.95Y-32.7
X102.95Y-70.7
X104.5Y-32.7
X105.7Y-49.7
X108.25Y-73.35
X108.95Y-14.95
X108.95Y-16.45
X108.95Y-31.95
X108.95Y-33.45
X109.7Y-49.7
X110.825Y-62.0
X110.825Y-63.0
X113.65Y-63.0
X114.2Y-64.7
X114.375Y-62.0
X117.5Y-74.65
X118.2Y-62.0
X118.5Y-15.7
X118.5Y-32.7
X119.5Y-71.45
X119.5Y-72.6
X119.7Y-83.15
X120.5Y-14.95
X120.5Y-16.45
X120.5Y-31.95
X120.5Y-33.45
X121.3Y-71.85
X121.3Y-73.35
X121.6Y-78.0
X122.45Y-71.2
X122.5Y-31.95
X122.5Y-33.45
X122.55Y-14.95
X122.55Y-16.45
X122.95Y-76.6
X124.2Y-55.65
X124.35Y-15.7
X124.35Y-32.7
X124.45Y-72.75
X124.45Y-74.2
X126.15Y-61.35
X126.85Y-31.95
X126.85Y-33.45
X126.9Y-14.95
X126.9Y-16.45
X126.9Y-56.25
X126.9Y-57.75
X128.55Y-73.5
X129.45Y-56.25
X129.45Y-57.75
X130.025Y-73.5
X130.1Y-80.85
X130.3Y-65.4
X130.65Y-70.75
X131.2Y-57.0
X131.7Y-66.8
X133.127Y-67.2
X133.737Y-55.263
X134.4Y-75.65
X134.763Y-54.237
X135.25Y-82.3
X135.681Y-69.781
X137.6Y-79.65
X143.5Y-48.95
X143.5Y-50.45
X144.9Y-14.95
X144.9Y-16.45
X144.9Y-31.95
X144.9Y-33.45
X145.7Y-78.9
X146.512Y-78.162
X147.717Y-80.917
X148.2Y-79.85
X152.5Y-65.85
X152.5Y-68.75
X161.5Y-48.95
X161.5Y-50.45
X162.9Y-14.95
X162.9Y-16.45
X162.9Y-31.95
X162.9Y-33.45
X170.5Y-65.85
X174.3Y-69.65
X179.5Y-48.95
X179.5Y-50.45
X180.9Y-14.95
X180.9Y-16.45
X180.9Y-31.95
X180.9Y-33.45
X188.5Y-65.85
X191.85Y-69.2
X197.5Y-48.95
X197.5Y-50.45
X198.9Y-14.95
X198.9Y-16.45
X198.9Y-31.95
X198.9Y-33.45
X206.5Y-65.85
X209.4Y-68.75
X215.5Y-48.95
X215.5Y-50.45
X216.95Y-14.95
X216.95Y-16.45
X216.95Y-31.95
X216.95Y-33.45
X229.0Y-65.85
X231.45Y-68.3
X234.9Y-14.95
X234.9Y-16.45
X234.9Y-31.9
X234.9Y-33.45
X243.85Y-45.0
X245.25Y-46.4
X256.0Y-65.85
X256.0Y-67.85
T3
X17.5Y-80.0
X22.5Y-82.1
X27.5Y-71.05
X125.5Y-29.0
X130.5Y-31.1
X135.5Y-20.05
X152.5Y-63.0
X157.5Y-65.1
X162.5Y-54.05
X274.0Y-12.0
X279.0Y-14.1
X284.0Y-3.05
X233.5Y-46.0
X238.5Y-48.1
X243.5Y-37.05
X233.5Y-29.0
X238.5Y-31.1
X243.5Y-20.05
X35.5Y-12.0
X40.5Y-14.1
X45.5Y-3.05
X197.5Y-80.0
X202.5Y-82.1
X207.5Y-71.05
X53.5Y-12.0
X58.5Y-14.1
X63.5Y-3.05
X133.0Y-80.0
X138.0Y-82.1
X143.0Y-71.05
X256.0Y-29.0
X261.0Y-31.1
X266.0Y-20.05
X62.5Y-63.0
X67.5Y-65.1
X72.5Y-54.05
X134.5Y-63.0
X139.5Y-65.1
X144.5Y-54.05
X256.0Y-12.0
X261.0Y-14.1
X266.0Y-3.05
X161.5Y-46.0
X166.5Y-48.1
X171.5Y-37.05
X107.5Y-29.0
X112.5Y-31.1
X117.5Y-20.05
X-2.75Y-80.0
X2.25Y-82.1
X7.25Y-71.05
X161.5Y-29.0
X166.5Y-31.1
X171.5Y-20.05
X256.0Y-80.0
X261.0Y-82.1
X266.0Y-71.05
X161.5Y-12.0
X166.5Y-14.1
X171.5Y-3.05
X100.0Y-80.0
X105.0Y-82.1
X110.0Y-71.05
X197.5Y-12.0
X202.5Y-14.1
X207.5Y-3.05
X-5.0Y-80.0
X0.0Y-82.1
X5.0Y-71.05
X116.5Y-63.0
X121.5Y-65.1
X126.5Y-54.05
X17.5Y-46.0
X22.5Y-48.1
X27.5Y-37.05
X215.5Y-46.0
X220.5Y-48.1
X225.5Y-37.05
X179.5Y-29.0
X184.5Y-31.1
X189.5Y-20.05
X125.5Y-46.0
X130.5Y-48.1
X135.5Y-37.05
X231.25Y-63.0
X236.25Y-65.1
X241.25Y-54.05
X53.5Y-29.0
X58.5Y-31.1
X63.5Y-20.05
X143.5Y-12.0
X148.5Y-14.1
X153.5Y-3.05
X98.5Y-63.0
X103.5Y-65.1
X108.5Y-54.05
X256.0Y-63.0
X261.0Y-65.1
X266.0Y-54.05
X-5.0Y-29.0
X0.0Y-31.1
X5.0Y-20.05
X44.5Y-63.0
X49.5Y-65.1
X54.5Y-54.05
X197.5Y-46.0
X202.5Y-48.1
X207.5Y-37.05
X143.5Y-29.0
X148.5Y-31.1
X153.5Y-20.05
X35.5Y-46.0
X40.5Y-48.1
X45.5Y-37.05
X-5.0Y-12.0
X0.0Y-14.1
X5.0Y-3.05
X215.5Y-80.0
X220.5Y-82.1
X225.5Y-71.05
X107.5Y-12.0
X112.5Y-14.1
X117.5Y-3.05
X215.5Y-12.0
X220.5Y-14.1
X225.5Y-3.05
X170.5Y-63.0
X175.5Y-65.1
X180.5Y-54.05
X215.5Y-29.0
X220.5Y-31.1
X225.5Y-20.05
X229.0Y-63.0
X234.0Y-65.1
X239.0Y-54.05
X233.5Y-12.0
X238.5Y-14.1
X243.5Y-3.05
X179.5Y-46.0
X184.5Y-48.1
X189.5Y-37.05
X17.5Y-29.0
X22.5Y-31.1
X27.5Y-20.05
X53.5Y-46.0
X58.5Y-48.1
X63.5Y-37.05
X107.5Y-46.0
X112.5Y-48.1
X117.5Y-37.05
X179.5Y-80.0
X184.5Y-82.1
X189.5Y-71.05
X71.5Y-12.0
X76.5Y-14.1
X81.5Y-3.05
X19.75Y-63.0
X24.75Y-65.1
X29.75Y-54.05
X35.5Y-80.0
X40.5Y-82.1
X45.5Y-71.05
X89.5Y-12.0
X94.5Y-14.1
X99.5Y-3.05
X71.5Y-80.0
X76.5Y-82.1
X81.5Y-71.05
X179.5Y-12.0
X184.5Y-14.1
X189.5Y-3.05
X206.5Y-63.0
X211.5Y-65.1
X216.5Y-54.05
X125.5Y-12.0
X130.5Y-14.1
X135.5Y-3.05
X143.5Y-46.0
X148.5Y-48.1
X153.5Y-37.05
X146.65Y-70.5
X146.65Y-74.5
X89.5Y-46.0
X94.5Y-48.1
X99.5Y-37.05
X161.5Y-80.0
X166.5Y-82.1
X171.5Y-71.05
X17.5Y-12.0
X22.5Y-14.1
X27.5Y-3.05
X217.75Y-80.0
X222.75Y-82.1
X227.75Y-71.05
X71.5Y-29.0
X76.5Y-31.1
X81.5Y-20.05
X80.5Y-63.0
X85.5Y-65.1
X90.5Y-54.05
X53.5Y-80.0
X58.5Y-82.1
X63.5Y-71.05
X197.5Y-29.0
X202.5Y-31.1
X207.5Y-20.05
X188.5Y-63.0
X193.5Y-65.1
X198.5Y-54.05
X89.5Y-29.0
X94.5Y-31.1
X99.5Y-20.05
X-5.0Y-63.0
X0.0Y-65.1
X5.0Y-54.05
X-5.0Y-46.0
X0.0Y-48.1
X5.0Y-37.05
X71.5Y-46.0
X76.5Y-48.1
X81.5Y-37.05
X274.0Y-80.0
X279.0Y-82.1
X284.0Y-71.05
X238.0Y-80.0
X243.0Y-82.1
X248.0Y-71.05
X35.5Y-29.0
X40.5Y-31.1
X45.5Y-20.05
X22.0Y-63.0
X27.0Y-65.1
X32.0Y-54.05
X274.0Y-29.0
X279.0Y-31.1
X284.0Y-20.05
T4
X37.5Y-54.9
X223.5Y-54.9
T5
X8.335Y-3.975
X14.115Y-3.975
T6
X161.0Y-76.2
X172.0Y-76.2
X17.0Y-8.2
X28.0Y-8.2
X217.25Y-76.2
X228.25Y-76.2
X71.0Y-25.2
X82.0Y-25.2
X80.0Y-59.2
X91.0Y-59.2
X53.0Y-76.2
X64.0Y-76.2
X197.0Y-25.2
X208.0Y-25.2
X188.0Y-59.2
X199.0Y-59.2
X89.0Y-25.2
X100.0Y-25.2
X-5.5Y-59.2
X5.5Y-59.2
X-5.5Y-42.2
X5.5Y-42.2
X71.0Y-42.2
X82.0Y-42.2
X273.5Y-76.2
X284.5Y-76.2
X237.5Y-76.2
X248.5Y-76.2
X35.0Y-25.2
X46.0Y-25.2
X21.5Y-59.2
X32.5Y-59.2
X273.5Y-25.2
X284.5Y-25.2
X17.0Y-76.2
X28.0Y-76.2
X125.0Y-25.2
X136.0Y-25.2
X152.0Y-59.2
X163.0Y-59.2
X273.5Y-8.2
X284.5Y-8.2
X233.0Y-42.2
X244.0Y-42.2
X233.0Y-25.2
X244.0Y-25.2
X35.0Y-8.2
X46.0Y-8.2
X197.0Y-76.2
X208.0Y-76.2
X53.0Y-8.2
X64.0Y-8.2
X132.5Y-76.2
X143.5Y-76.2
X255.5Y-25.2
X266.5Y-25.2
X62.0Y-59.2
X73.0Y-59.2
X134.0Y-59.2
X145.0Y-59.2
X255.5Y-8.2
X266.5Y-8.2
X161.0Y-42.2
X172.0Y-42.2
X107.0Y-25.2
X118.0Y-25.2
X-3.25Y-76.2
X7.75Y-76.2
X161.0Y-25.2
X172.0Y-25.2
X255.5Y-76.2
X266.5Y-76.2
X161.0Y-8.2
X172.0Y-8.2
X99.5Y-76.2
X110.5Y-76.2
X197.0Y-8.2
X208.0Y-8.2
X-5.5Y-76.2
X5.5Y-76.2
X116.0Y-59.2
X127.0Y-59.2
X17.0Y-42.2
X28.0Y-42.2
X215.0Y-42.2
X226.0Y-42.2
X179.0Y-25.2
X190.0Y-25.2
X125.0Y-42.2
X136.0Y-42.2
X230.75Y-59.2
X241.75Y-59.2
X53.0Y-25.2
X64.0Y-25.2
X143.0Y-8.2
X154.0Y-8.2
X98.0Y-59.2
X109.0Y-59.2
X255.5Y-59.2
X266.5Y-59.2
X-5.5Y-25.2
X5.5Y-25.2
X44.0Y-59.2
X55.0Y-59.2
X197.0Y-42.2
X208.0Y-42.2
X143.0Y-25.2
X154.0Y-25.2
X35.0Y-42.2
X46.0Y-42.2
X-5.5Y-8.2
X5.5Y-8.2
X215.0Y-76.2
X226.0Y-76.2
X107.0Y-8.2
X118.0Y-8.2
X215.0Y-8.2
X226.0Y-8.2
X170.0Y-59.2
X181.0Y-59.2
X215.0Y-25.2
X226.0Y-25.2
X228.5Y-59.2
X239.5Y-59.2
X233.0Y-8.2
X244.0Y-8.2
X179.0Y-42.2
X190.0Y-42.2
X17.0Y-25.2
X28.0Y-25.2
X53.0Y-42.2
X64.0Y-42.2
X107.0Y-42.2
X118.0Y-42.2
X179.0Y-76.2
X190.0Y-76.2
X71.0Y-8.2
X82.0Y-8.2
X19.25Y-59.2
X30.25Y-59.2
X35.0Y-76.2
X46.0Y-76.2
X89.0Y-8.2
X100.0Y-8.2
X71.0Y-76.2
X82.0Y-76.2
X179.0Y-8.2
X190.0Y-8.2
X206.0Y-59.2
X217.0Y-59.2
X125.0Y-8.2
X136.0Y-8.2
X143.0Y-42.2
X154.0Y-42.2
X89.0Y-42.2
X100.0Y-42.2
T7
X279.0Y-76.2
X243.0Y-76.2
X40.5Y-25.2
X27.0Y-59.2
X279.0Y-25.2
X22.5Y-76.2
X130.5Y-25.2
X157.5Y-59.2
X279.0Y-8.2
X238.5Y-42.2
X238.5Y-25.2
X40.5Y-8.2
X202.5Y-76.2
X58.5Y-8.2
X138.0Y-76.2
X261.0Y-25.2
X67.5Y-59.2
X139.5Y-59.2
X261.0Y-8.2
X166.5Y-42.2
X112.5Y-25.2
X2.25Y-76.2
X166.5Y-25.2
X261.0Y-76.2
X166.5Y-8.2
X105.0Y-76.2
X202.5Y-8.2
X0.0Y-76.2
X121.5Y-59.2
X22.5Y-42.2
X220.5Y-42.2
X184.5Y-25.2
X130.5Y-42.2
X236.25Y-59.2
X58.5Y-25.2
X148.5Y-8.2
X103.5Y-59.2
X261.0Y-59.2
X0.0Y-25.2
X49.5Y-59.2
X202.5Y-42.2
X148.5Y-25.2
X40.5Y-42.2
X0.0Y-8.2
X220.5Y-76.2
X112.5Y-8.2
X220.5Y-8.2
X175.5Y-59.2
X220.5Y-25.2
X234.0Y-59.2
X238.5Y-8.2
X184.5Y-42.2
X22.5Y-25.2
X58.5Y-42.2
X112.5Y-42.2
X184.5Y-76.2
X76.5Y-8.2
X24.75Y-59.2
X40.5Y-76.2
X94.5Y-8.2
X76.5Y-76.2
X184.5Y-8.2
X211.5Y-59.2
X130.5Y-8.2
X148.5Y-42.2
X94.5Y-42.2
X166.5Y-76.2
X22.5Y-8.2
X222.75Y-76.2
X76.5Y-25.2
X85.5Y-59.2
X58.5Y-76.2
X202.5Y-25.2
X193.5Y-59.2
X94.5Y-25.2
X0.0Y-59.2
X0.0Y-42.2
X76.5Y-42.2
T2
G00X6.905Y-0.025
M15
G01X6.905Y-0.625
M16
G05
G00X6.905Y-3.955
M15
G01X6.905Y-5.055
M16
G05
G00X15.545Y-0.025
M15
G01X15.545Y-0.625
M16
G05
G00X15.545Y-3.955
M15
G01X15.545Y-5.055
M16
G05
T0
M30
