<?xml version="1.0" encoding="utf-8"?>
<!-- Generator: Adobe Illustrator 15.0.0, SVG Export Plug-In . SVG Version: 6.00 Build 0)  -->
<!DOCTYPE svg PUBLIC "-//W3C//DTD SVG 1.1//EN" "http://www.w3.org/Graphics/SVG/1.1/DTD/svg11.dtd">
<svg version="1.1" id="Layer_1" xmlns:ev="http://www.w3.org/2001/xml-events"
	 xmlns="http://www.w3.org/2000/svg" xmlns:xlink="http://www.w3.org/1999/xlink" x="0px" y="0px" width="887.244px"
	 height="272.125px" viewBox="0 0 887.244 272.125" enable-background="new 0 0 887.244 272.125" xml:space="preserve">
<path fill="none" stroke="#000000" stroke-width="0.2" d="M-12.52-41.503h875.905c3.288,0,5.953,2.665,5.953,5.953v260.787
	c0,3.287-2.665,5.953-5.953,5.953H-12.52c-3.288,0-5.953-2.666-5.953-5.953V-35.55C-18.472-38.838-15.807-41.503-12.52-41.503z"/>
<circle fill="none" stroke="#000000" stroke-width="0.2" cx="-0.756" cy="0.096" r="5.272"/>
<circle fill="none" stroke="#000000" stroke-width="0.2" cx="425.433" cy="-26.977" r="5.272"/>
<circle fill="none" stroke="#000000" stroke-width="0.2" cx="851.622" cy="0.096" r="5.272"/>
<circle fill="none" stroke="#000000" stroke-width="0.2" cx="-0.756" cy="191.15" r="5.272"/>
<circle fill="none" stroke="#000000" stroke-width="0.2" cx="136.299" cy="131.624" r="5.271"/>
<circle fill="none" stroke="#000000" stroke-width="0.2" cx="272.447" cy="216.804" r="5.272"/>
<circle fill="none" stroke="#000000" stroke-width="0.2" cx="578.419" cy="216.804" r="5.272"/>
<circle fill="none" stroke="#000000" stroke-width="0.2" cx="663.543" cy="131.624" r="5.271"/>
<circle fill="none" stroke="#000000" stroke-width="0.2" cx="851.622" cy="191.15" r="5.272"/>
<polyline fill="none" stroke="#000000" stroke-width="0.2" points="752.977,-41.615 752.977,-3.874 723,-3.874 723,-41.615 "/>
<line fill="none" stroke="#000000" stroke-width="0.2" x1="435.903" y1="-23.788" x2="674.599" y2="-23.788"/>
<path fill="none" stroke="#000000" stroke-width="0.2" d="M8.032-6.424v-11.409c0-3.288,2.665-5.953,5.953-5.953h400.981"/>
<path fill="none" stroke="#000000" stroke-width="0.2" d="M8.032,5.623"/>
<line fill="none" stroke="#000000" stroke-width="0.2" x1="8.032" y1="53.812" x2="8.032" y2="14.056"/>
<path fill="none" stroke="#000000" stroke-width="0.2" d="M8.032,53.812"/>
<line fill="none" stroke="#000000" stroke-width="0.2" x1="8.032" y1="102.071" x2="8.032" y2="62.245"/>
<line fill="none" stroke="#000000" stroke-width="0.2" x1="8.032" y1="150.26" x2="8.032" y2="110.504"/>
<line fill="none" stroke="#000000" stroke-width="0.2" x1="8.032" y1="184.63" x2="8.032" y2="158.694"/>
<path fill="none" stroke="#000000" stroke-width="0.2" d="M8.032,184.63"/>
<line fill="none" stroke="#000000" stroke-width="0.2" x1="8.032" y1="198.45" x2="8.032" y2="197.668"/>
<path fill="none" stroke="#000000" stroke-width="0.2" d="M8.032,198.45"/>
<path fill="none" stroke="#000000" stroke-width="0.2" d="M23.338,213.615h-9.354c-3.288,0-5.953-2.664-5.953-5.953v-0.779"/>
<path fill="none" stroke="#000000" stroke-width="0.2" d="M799.606-23.788h37.274c3.288,0,5.953,2.666,5.953,5.953v225.495
	c0,3.289-2.665,5.953-5.953,5.953h-9.142"/>
<path fill="none" stroke="#000000" stroke-width="0.2" d="M8.032-6.424c1.354,1.821,2.154,4.077,2.154,6.52
	c0,2.017-0.545,3.905-1.497,5.527"/>
<path fill="none" stroke="#000000" stroke-width="0.2" d="M8.032,184.628c1.354,1.821,2.154,4.077,2.154,6.521
	c0,2.442-0.801,4.699-2.154,6.521"/>
<circle fill="none" stroke="#000000" stroke-width="0.2" cx="136.298" cy="131.624" r="11.525"/>
<path fill="none" stroke="#000000" stroke-width="0.2" d="M261.978,213.615c1.365-4.487,5.536-7.753,10.47-7.753
	c4.934,0,9.104,3.266,10.47,7.753"/>
<path fill="none" stroke="#000000" stroke-width="0.2" d="M567.95,213.615c1.365-4.487,5.535-7.753,10.469-7.753
	c4.935,0,9.104,3.266,10.47,7.753"/>
<circle fill="none" stroke="#000000" stroke-width="0.2" cx="663.543" cy="131.624" r="11.525"/>
<polyline fill="none" stroke="#000000" stroke-width="0.2" points="723,-41.503 723,-20.314 686.504,-20.314 686.504,5.765 
	678.567,5.765 678.567,13.984 686.504,13.984 686.504,21.354 727.323,21.354 727.323,15.119 748.583,15.119 748.583,21.354 
	789.401,21.354 789.401,-20.314 752.977,-20.314 752.977,-41.503 "/>
<line fill="none" stroke="#000000" stroke-width="0.2" x1="674.599" y1="-24" x2="674.599" y2="-24"/>
<line fill="none" stroke="#000000" stroke-width="0.2" x1="674.599" y1="-24" x2="674.599" y2="-24"/>
<line fill="none" stroke="#000000" stroke-width="0.2" x1="674.599" y1="-24" x2="674.599" y2="-24"/>
<polyline fill="none" stroke="#000000" stroke-width="0.2" points="8.689,5.623 3.284,5.623 2.362,6.543 2.362,13.134 3.284,14.056 
	8.032,14.056 "/>
<polyline fill="none" stroke="#000000" stroke-width="0.2" points="8.032,53.812 3.284,53.812 2.362,54.732 2.362,61.324 
	3.284,62.245 8.032,62.245 "/>
<polyline fill="none" stroke="#000000" stroke-width="0.2" points="8.032,102.071 3.284,102.071 2.362,102.993 2.362,109.583 
	3.284,110.504 8.032,110.504 "/>
<polyline fill="none" stroke="#000000" stroke-width="0.2" points="8.032,150.26 3.284,150.26 2.362,151.182 2.362,157.772 
	3.284,158.694 8.032,158.694 "/>
<polyline fill="none" stroke="#000000" stroke-width="0.2" points="8.032,198.45 3.284,198.45 2.362,199.371 2.362,205.96 
	3.284,206.881 8.032,206.881 "/>
<polyline fill="none" stroke="#000000" stroke-width="0.2" points="674.599,-23.788 674.599,26.173 799.606,26.173 799.606,13.915 
	793.37,13.915 793.37,5.834 799.606,5.834 799.606,-23.788 "/>
<line fill="none" stroke="#000000" stroke-width="0.2" x1="674.599" y1="-24" x2="674.599" y2="-24"/>
<line fill="none" stroke="#000000" stroke-width="0.2" x1="674.599" y1="-24" x2="674.599" y2="-24"/>
<line fill="none" stroke="#000000" stroke-width="0.2" x1="674.599" y1="-24" x2="674.599" y2="-24"/>
<line fill="none" stroke="#000000" stroke-width="0.2" x1="674.599" y1="-24" x2="674.599" y2="-24"/>
<line fill="none" stroke="#000000" stroke-width="0.2" x1="674.599" y1="-24" x2="674.599" y2="-24"/>
<line fill="none" stroke="#000000" stroke-width="0.2" x1="674.599" y1="-24" x2="674.599" y2="-24"/>
<line fill="none" stroke="#000000" stroke-width="0.2" x1="674.599" y1="-24" x2="674.599" y2="-24"/>
<polyline fill="none" stroke="#000000" stroke-width="0.2" points="588.888,213.615 597.354,213.615 597.354,215.881 
	610.89,215.881 610.89,213.615 648.378,213.615 648.378,215.881 661.913,215.881 661.913,213.615 712.157,213.615 712.157,215.881 
	725.693,215.881 725.693,213.615 763.181,213.615 763.181,215.881 776.717,215.881 776.717,213.615 814.205,213.615 
	814.205,215.881 827.74,215.881 827.74,213.615 "/>
<polyline fill="none" stroke="#000000" stroke-width="0.2" points="282.917,213.615 320.977,213.615 320.977,215.881 
	334.512,215.881 334.512,213.615 414.52,213.615 414.52,215.881 428.055,215.881 428.055,213.615 495.307,213.615 495.307,215.881 
	508.843,215.881 508.843,213.615 546.331,213.615 546.331,215.881 559.866,215.881 559.866,213.615 567.95,213.615 "/>
<polyline fill="none" stroke="#000000" stroke-width="0.2" points="23.338,213.615 23.338,215.881 36.874,215.881 36.874,213.615 
	87.118,213.615 87.118,215.881 100.653,215.881 100.653,213.615 138.142,213.615 138.142,215.881 151.677,215.881 151.677,213.615 
	189.166,213.615 189.166,215.881 202.701,215.881 202.701,213.615 240.189,213.615 240.189,215.881 253.725,215.881 
	253.725,213.615 261.977,213.615 "/>
<path fill="none" stroke="#000000" stroke-width="0.2" d="M435.965-24c-1.296,4.597-5.521,7.966-10.533,7.966
	c-5.012,0-9.237-3.372-10.532-7.971"/>
<path fill="none" stroke="#000000" stroke-width="0.2" d="M-2.457-5.343"/>
<line fill="none" stroke="#000000" stroke-width="0.2" x1="-2.457" y1="185.711" x2="-2.457" y2="5.534"/>
<path fill="none" stroke="#000000" stroke-width="0.2" d="M268.294,220.702H3.496c-3.288,0-5.953-2.665-5.953-5.952v-18.161"/>
<line fill="none" stroke="#000000" stroke-width="0.2" x1="574.264" y1="220.702" x2="276.602" y2="220.702"/>
<path fill="none" stroke="#000000" stroke-width="0.2" d="M853.322,196.588v18.16c0,3.287-2.665,5.952-5.952,5.952H582.574"/>
<line fill="none" stroke="#000000" stroke-width="0.2" x1="853.322" y1="5.535" x2="853.322" y2="185.71"/>
<path fill="none" stroke="#000000" stroke-width="0.2" d="M429.589-30.874H847.37c3.287,0,5.952,2.665,5.952,5.953v19.577"/>
<path fill="none" stroke="#000000" stroke-width="0.2" d="M-2.457-5.343V-24.92c0-3.288,2.665-5.953,5.953-5.953h417.781"/>
<path fill="none" stroke="#000000" stroke-width="0.2" d="M-2.448,5.538c-2.32-0.721-4.005-2.885-4.005-5.442
	c0-2.555,1.681-4.716,3.997-5.438"/>
<path fill="none" stroke="#000000" stroke-width="0.2" d="M421.277-30.874c1.04-1.108,2.517-1.8,4.155-1.8s3.115,0.691,4.154,1.797"
	/>
<path fill="none" stroke="#000000" stroke-width="0.2" d="M853.314-5.348c2.319,0.721,4.005,2.885,4.005,5.442
	c0,2.554-1.682,4.716-3.997,5.439"/>
<path fill="none" stroke="#000000" stroke-width="0.2" d="M-2.451,196.59c-2.319-0.721-4.003-2.884-4.003-5.441
	c0-2.554,1.681-4.715,3.997-5.438"/>
<path fill="none" stroke="#000000" stroke-width="0.2" d="M276.603,220.703c-1.04,1.106-2.517,1.799-4.155,1.799
	c-1.638,0-3.114-0.69-4.154-1.798"/>
<path fill="none" stroke="#000000" stroke-width="0.2" d="M582.574,220.703c-1.04,1.106-2.518,1.799-4.155,1.799
	c-1.64,0-3.117-0.692-4.156-1.801"/>
<path fill="none" stroke="#000000" stroke-width="0.2" d="M853.316,185.708c2.318,0.722,4.003,2.885,4.003,5.44
	s-1.682,4.718-3.997,5.439"/>
</svg>
